<?xml version="1.0" standalone="no"?>
<!DOCTYPE svg PUBLIC "-//W3C//DTD SVG 1.1//EN" "http://www.w3.org/Graphics/SVG/1.1/DTD/svg11.dtd" >
<svg xmlns="http://www.w3.org/2000/svg" xmlns:xlink="http://www.w3.org/1999/xlink" version="1.1">
<metadata>
Created by FontForge 20170731 at Mon Aug  2 17:43:49 2021
 By Aleksey,,,
Copyright (c) 2021 by www.fontiran.com All rights reserved.
</metadata>
<defs>
<font id="KalamehWeb-SemiBold" horiz-adv-x="0" >
  <font-face 
    font-family="KalamehWeb SemiBold"
    font-weight="600"
    font-stretch="normal"
    units-per-em="1000"
    panose-1="0 0 0 0 0 0 0 0 0 0"
    ascent="800"
    descent="-200"
    x-height="508"
    cap-height="702"
    bbox="-218 -573 1418 1255"
    underline-thickness="50"
    underline-position="-175"
    unicode-range="U+000D-FEFC"
  />
<missing-glyph horiz-adv-x="475" 
d="M35 705h405v-705h-405v705zM229 309q4 9 7 22.5t5 23.5l-24 17q-8 -4 -21.5 -11.5t-21.5 -15.5t-20 -25l-26 -36l56 -41l26 36q15 21 19 30zM178 369q11 0 39 3l9 28q-7 6 -18.5 16.5t-21 15.5t-29.5 12l-43 14l-21 -66l42 -14q30 -9 43 -9zM354 283l-26 37
q-15 20 -22.5 26.5t-23.5 15.5l-17 10l-24 -17q2 -11 5 -26t7.5 -24t17.5 -26l26 -37zM264 418q8 16 10 26.5t2 35.5v45h-69v-45q0 -26 2 -36t7.5 -22.5t9.5 -21.5h30zM390 391l-22 66l-43 -13q-24 -8 -32.5 -13t-21.5 -18l-15 -13l9 -28q10 -1 20 -2.5t20 -1.5q16 0 42 10z
" />
    <glyph glyph-name="uniFDF2" unicode="&#x627;&#xfedf;&#xfee0;&#xfeea;" horiz-adv-x="1383" arabic-form="isolated" 
d="M157 57.5q-49 28.5 -77.5 77t-28.5 105.5q0 56 28.5 102.5t77.5 73t106 26.5v0h80v62h122v-264q0 -58 -26 -106t-72.5 -76.5t-103.5 -28.5v0q-57 0 -106 28.5zM320 182.5q23 23.5 23 57.5v79h-80v0q-34 0 -57.5 -22.5t-23.5 -56.5t23.5 -57.5t57.5 -23.5v0q34 0 57 23.5z
M436.5 24.5q-37.5 24.5 -57.5 66t-20 91.5v175h106v-168q0 -25 16.5 -42t41.5 -17h44q10 0 10 -10v-110q0 -10 -10 -10h-44q-49 0 -86.5 24.5zM557 10v110q0 10 10 10h44q25 0 42 17t17 42v315h123v-315q0 -25 17 -42t42 -17h43q10 0 10 -10v-110q0 -10 -10 -10h-43
q-39 0 -70.5 16.5t-50.5 45.5q-19 -29 -50 -45.5t-70 -16.5h-44q-10 0 -10 10zM885 10v110q0 10 10 10h39q24 0 41 17.5t17 42.5v401h123v-409q0 -50 -24 -91.5t-65.5 -66t-91.5 -24.5h-39q-10 0 -10 10zM597 603q-30 30 -30 73v77h82v-77q0 -9 6 -15t16 -6t16 6t6 15v66h78
v-66q0 -9 6 -15t16 -6t16 6t6 15v77h82v-77q0 -43 -30 -73t-73 -30q-41 0 -62 30q-21 -30 -62 -30q-43 0 -73 30zM693 943h78v-160h-78v160zM1213 669h123v-669h-123v669z" />
    <glyph glyph-name="uni06440622" unicode="&#xfedf;&#xfe82;" horiz-adv-x="539" arabic-form="isolated" 
d="M53 130h261q24 0 41 17t17 41v467h123v-474q0 -49 -24 -90.5t-65.5 -66t-91.5 -24.5h-261v130zM62 602l118 31l107 -437l-119 -31zM-33 756.5q27 25.5 67 25.5h196v-95h-181q-12 0 -19.5 -7t-7.5 -20v-45h-82v73q0 43 27 68.5z" />
    <glyph glyph-name="uni06440622.fina" unicode="&#xfee0;&#xfe82;" horiz-adv-x="597" arabic-form="final" 
d="M53 130h261q25 0 41.5 17t16.5 42v465h123v-465q0 -25 17 -42t42 -17h43q10 0 10 -10v-110q0 -10 -10 -10h-43q-39 0 -70 16.5t-50 45.5q-19 -29 -50 -45.5t-70 -16.5h-261v130zM62 602l118 31l107 -437l-119 -31zM-33 756.5q27 25.5 67 25.5h196v-95h-181
q-12 0 -19.5 -7t-7.5 -20v-45h-82v73q0 43 27 68.5z" />
    <glyph glyph-name="uni06440623" unicode="&#xfedf;&#xfe84;" horiz-adv-x="539" arabic-form="isolated" 
d="M53 130h261q24 0 41 17t17 41v467h123v-474q0 -49 -24 -90.5t-65.5 -66t-91.5 -24.5h-261v130zM62 602l118 31l107 -437l-119 -31zM-13 745l92 34q-27 17 -38 46q-6 17 -6 33q0 35 23 66t61 45l77 27l32 -89l-67 -25q-11 -4 -17.5 -12.5t-6.5 -19.5q0 -15 10.5 -25
t25.5 -10q5 0 15 2l91 33l32 -88l-293 -106z" />
    <glyph glyph-name="uni06440623.fina" unicode="&#xfee0;&#xfe84;" horiz-adv-x="597" arabic-form="final" 
d="M53 130h261q25 0 41.5 17t16.5 42v465h123v-465q0 -25 17 -42t42 -17h43q10 0 10 -10v-110q0 -10 -10 -10h-43q-39 0 -70 16.5t-50 45.5q-19 -29 -50 -45.5t-70 -16.5h-261v130zM62 602l118 31l107 -437l-119 -31zM-13 745l92 34q-27 17 -38 46q-6 17 -6 33q0 35 23 66
t61 45l77 27l32 -89l-67 -25q-11 -4 -17.5 -12.5t-6.5 -19.5q0 -15 10.5 -25t25.5 -10q5 0 15 2l91 33l32 -88l-293 -106z" />
    <glyph glyph-name="uni06440625" unicode="&#xfedf;&#xfe88;" horiz-adv-x="539" arabic-form="isolated" 
d="M53 130h261q24 0 41 17t17 41v467h123v-474q0 -49 -24 -90.5t-65.5 -66t-91.5 -24.5h-261v130zM48 -301l92 34q-27 18 -38 47q-6 15 -6 33q0 35 23 66t61 44l77 27l32 -88l-68 -25q-11 -5 -17 -13.5t-6 -18.5q0 -16 10.5 -26t25.5 -10q8 0 15 3l90 33l32 -88l-292 -107z
M58 616l119 31l110 -451l-119 -31z" />
    <glyph glyph-name="uni06440625.fina" unicode="&#xfee0;&#xfe88;" horiz-adv-x="597" arabic-form="final" 
d="M53 130h261q25 0 41.5 17t16.5 42v465h123v-465q0 -25 17 -42t42 -17h43q10 0 10 -10v-110q0 -10 -10 -10h-43q-39 0 -70 16.5t-50 45.5q-19 -29 -50 -45.5t-70 -16.5h-261v130zM48 -301l92 34q-27 18 -38 47q-6 15 -6 33q0 35 23 66t61 44l77 27l32 -88l-68 -25
q-11 -5 -17 -13.5t-6 -18.5q0 -16 10.5 -26t25.5 -10q8 0 15 3l90 33l32 -88l-292 -107zM58 616l119 31l110 -451l-119 -31z" />
    <glyph glyph-name="uni06440627" unicode="&#xfedf;&#xfe8e;" horiz-adv-x="539" arabic-form="isolated" 
d="M53 130h261q24 0 41 17t17 41v467h123v-474q0 -49 -24 -90.5t-65.5 -66t-91.5 -24.5h-261v130zM58 616l119 31l110 -451l-119 -31z" />
    <glyph glyph-name="uni06440627.fina" unicode="&#xfee0;&#xfe8e;" horiz-adv-x="597" arabic-form="final" 
d="M53 130h261q25 0 41.5 17t16.5 42v465h123v-465q0 -25 17 -42t42 -17h43q10 0 10 -10v-110q0 -10 -10 -10h-43q-39 0 -70 16.5t-50 45.5q-19 -29 -50 -45.5t-70 -16.5h-261v130zM58 616l119 31l110 -451l-119 -31z" />
    <glyph glyph-name="uni06440671" unicode="&#xfedf;&#xfb51;" horiz-adv-x="539" 
d="M53 130h261q24 0 41 17t17 41v467h123v-474q0 -49 -24 -90.5t-65.5 -66t-91.5 -24.5h-261v130zM62 602l118 31l107 -437l-119 -31zM-36 798l137 81l38 -68l5 -8l-136 -82zM109.5 703q-26.5 27 -26.5 66v22l62 7v-14q0 -7 11 -16.5t22 -9.5h84q12 0 21 8.5t9 21.5
q0 15 -8.5 24.5t-23.5 9.5q-6 0 -15.5 -4.5t-22.5 -13.5l-109 -66l-28 74l112 68q30 19 65 19q45 0 77.5 -32.5t32.5 -77.5q0 -47 -32 -80t-78 -33h-89q-37 0 -63.5 27z" />
    <glyph glyph-name="uni06440671.fina" unicode="&#xfee0;&#xfb51;" horiz-adv-x="597" 
d="M53 130h261q25 0 41.5 17t16.5 42v465h123v-465q0 -25 17 -42t42 -17h43q10 0 10 -10v-110q0 -10 -10 -10h-43q-39 0 -70 16.5t-50 45.5q-19 -29 -50 -45.5t-70 -16.5h-261v130zM62 602l118 31l107 -437l-119 -31zM-36 798l137 81l38 -68l5 -8l-136 -82zM109.5 703
q-26.5 27 -26.5 66v22l62 7v-14q0 -7 11 -16.5t22 -9.5h84q12 0 21 8.5t9 21.5q0 15 -8.5 24.5t-23.5 9.5q-6 0 -15.5 -4.5t-22.5 -13.5l-109 -66l-28 74l112 68q30 19 65 19q45 0 77.5 -32.5t32.5 -77.5q0 -47 -32 -80t-78 -33h-89q-37 0 -63.5 27z" />
    <glyph glyph-name="uni0621" unicode="&#x621;" horiz-adv-x="524" arabic-form="isolated" 
d="M260 117q-47 0 -83 22.5t-52 67.5q-9 29 -9 56q0 49 30 87t83 57l106 39l42 -116l-102 -37q-16 -6 -24.5 -18t-8.5 -27q0 -22 13.5 -36t33.5 -14q10 0 19 4l137 50l20 -75l-127 -47q-42 -13 -78 -13zM39 103l406 149l43 -116l-407 -149z" />
    <glyph glyph-name="uni0622" unicode="&#x622;" horiz-adv-x="218" arabic-form="isolated" 
d="M53 621h123v-621h-123v621zM-49.5 770q27.5 26 67.5 26h234v-95h-219q-12 0 -20 -7.5t-8 -19.5v-46h-82v73q0 43 27.5 69z" />
    <glyph glyph-name="uni0623" unicode="&#x623;" horiz-adv-x="223" arabic-form="isolated" 
d="M54 621h123v-621h-123v621zM-66 727l93 35q-11 6 -22 18.5t-17 27.5q-5 14 -5 33q0 35 22.5 66t60.5 45l77 26l32 -88l-67 -25q-11 -4 -17 -12.5t-6 -19.5q0 -15 10 -25t25 -10q10 0 15 2l91 33l32 -88l-293 -107z" />
    <glyph glyph-name="uni0624" unicode="&#x624;" horiz-adv-x="507" arabic-form="isolated" 
d="M262 -104.5q44 24.5 61.5 48t17.5 56.5h-79v0q-58 0 -106.5 26.5t-76.5 72.5t-28 103t28.5 105.5t77 77t105.5 28.5v0q56 0 102.5 -28.5t73 -77t26.5 -105.5v-151q0 -88 -29 -142.5t-90 -94t-180 -90.5l-38 108q91 39 135 63.5zM262 122h79v80q0 34 -23 57.5t-56 23.5v0
q-34 0 -57.5 -23t-23.5 -58q0 -34 23.5 -57t57.5 -23v0zM104 567l92 34q-27 18 -38 47q-6 15 -6 33q0 35 22.5 66t61.5 44l77 27l32 -89l-68 -25q-11 -4 -17 -12.5t-6 -18.5q0 -16 10.5 -26t25.5 -10q7 0 14 3l91 33l32 -88l-292 -107z" />
    <glyph glyph-name="uni0625" unicode="&#x625;" horiz-adv-x="223" arabic-form="isolated" 
d="M-44 -303l93 34q-27 17 -39 47q-5 18 -5 33q0 35 22.5 66t60.5 44l77 27l32 -88l-67 -25q-23 -9 -23 -32q0 -16 10 -26t25 -10q8 0 15 3l91 33l32 -88l-292 -107zM54 669h123v-669h-123v669z" />
    <glyph glyph-name="uni0626" unicode="&#x626;" horiz-adv-x="756" arabic-form="isolated" 
d="M175 -192.5q-56 32.5 -88.5 88.5t-32.5 122v232h123v-225q0 -50 35.5 -85t84.5 -35h225q29 0 46.5 18.5t17.5 46.5q0 22 -13 39.5t-36 22.5l-250 58v122q0 54 28 101t76 75t103 28h176v-123h-178q-34 0 -58 -24.5t-24 -57.5v-23q101 -22 140 -32l27 -6q60 -17 98.5 -69
t38.5 -115q0 -52 -26 -95.5t-70 -69.5t-96 -26h-225q-66 0 -122 32.5zM57 433l93 35q-11 6 -22 18.5t-17 27.5q-5 18 -5 33q0 35 22.5 66t60.5 45l77 26l32 -88l-67 -25q-11 -4 -17 -12.5t-6 -19.5q0 -15 10 -25t25 -10q10 0 15 2l91 33l32 -88l-292 -107z" />
    <glyph glyph-name="uni0627" unicode="&#x627;" horiz-adv-x="223" arabic-form="isolated" 
d="M54 669h123v-669h-123v669z" />
    <glyph glyph-name="uni0628" unicode="&#x628;" horiz-adv-x="863" arabic-form="isolated" 
d="M175 32.5q-56 32.5 -88.5 88.5t-32.5 122v114h123v-107q0 -49 35.5 -84.5t84.5 -35.5h327q34 0 57 23t23 58v146h123v-146q0 -57 -26.5 -105.5t-73 -77t-103.5 -28.5h-327q-66 0 -122 32.5zM521 -202h-115v115h115v-115z" />
    <glyph glyph-name="uni0629" unicode="&#x629;" horiz-adv-x="502" arabic-form="isolated" 
d="M65 125q-15 36 -15 75q0 41 17 81t49 71l56 56l-44 43l88 86l186 -185q31 -31 47.5 -71t16.5 -81q0 -39 -15 -75t-44 -65q-30 -30 -69 -45.5t-80 -15.5t-80 15.5t-69 45.5q-29 29 -44 65zM259 128q33 0 57 24q23 23 23 54q0 32 -25 59l-56 57l-56 -56q-24 -24 -24 -58
q0 -33 23 -56q24 -24 58 -24zM77 729h115v-115h-115v115zM244 729h115v-115h-115v115z" />
    <glyph glyph-name="uni062A" unicode="&#x62a;" horiz-adv-x="863" arabic-form="isolated" 
d="M175 32.5q-56 32.5 -88.5 88.5t-32.5 122v114h123v-107q0 -49 35.5 -84.5t84.5 -35.5h327q34 0 57 23t23 58v146h123v-146q0 -57 -26.5 -105.5t-73 -77t-103.5 -28.5h-327q-66 0 -122 32.5zM301 472h115v-115h-115v115zM468 472h115v-115h-115v115z" />
    <glyph glyph-name="uni062B" unicode="&#x62b;" horiz-adv-x="863" arabic-form="isolated" 
d="M175 32.5q-56 32.5 -88.5 88.5t-32.5 122v114h123v-107q0 -49 35.5 -84.5t84.5 -35.5h327q34 0 57 23t23 58v146h123v-146q0 -57 -26.5 -105.5t-73 -77t-103.5 -28.5h-327q-66 0 -122 32.5zM416 472v-115h-115v115h115zM583 472v-115h-115v115h115zM500 639v-115h-115
v115h115z" />
    <glyph glyph-name="uni062C" unicode="&#x62c;" horiz-adv-x="704" arabic-form="isolated" 
d="M182.5 -289.5q-55.5 32.5 -88 87.5t-32.5 119q0 53 23.5 101.5t65.5 83.5l273 201l-124 60q-22 9 -34 9q-14 0 -28 -7t-25 -17l-71 -78l-86 75l72 86q25 31 61.5 47t76.5 16q27 0 44 -6t38 -16l216 -101q8 -3 17 -3h86v-120h-113l-317 -233q-45 -38 -45 -96
q0 -49 35 -83.5t84 -34.5h291v-123h-300q-64 0 -119.5 32.5zM388 20h115v-115h-115v115z" />
    <glyph glyph-name="uni062D" unicode="&#x62d;" horiz-adv-x="704" arabic-form="isolated" 
d="M182.5 -289.5q-55.5 32.5 -88 87.5t-32.5 119q0 53 23.5 101.5t65.5 83.5l273 201l-124 60q-22 9 -34 9q-14 0 -28 -7t-25 -17l-71 -78l-86 75l72 86q25 31 61.5 47t76.5 16q27 0 44 -6t38 -16l216 -101q8 -3 17 -3h86v-120h-113l-317 -233q-45 -38 -45 -96
q0 -49 35 -83.5t84 -34.5h291v-123h-300q-64 0 -119.5 32.5z" />
    <glyph glyph-name="uni062E" unicode="&#x62e;" horiz-adv-x="704" arabic-form="isolated" 
d="M182.5 -289.5q-55.5 32.5 -88 87.5t-32.5 119q0 53 23.5 101.5t65.5 83.5l273 201l-124 60q-22 9 -34 9q-14 0 -28 -7t-25 -17l-71 -78l-86 75l72 86q25 31 61.5 47t76.5 16q27 0 44 -6t38 -16l216 -101q8 -3 17 -3h86v-120h-113l-317 -233q-45 -38 -45 -96
q0 -49 35 -83.5t84 -34.5h291v-123h-300q-64 0 -119.5 32.5zM207 690h115v-115h-115v115z" />
    <glyph glyph-name="uni062F" unicode="&#x62f;" horiz-adv-x="514" arabic-form="isolated" 
d="M51 130h243q26 0 43 16t17 41q0 17 -9.5 30.5t-32.5 28.5l-202 139l70 101l222 -153q36 -28 55.5 -61.5t19.5 -80.5q0 -53 -26 -97t-71 -69t-97 -25h-232v130z" />
    <glyph glyph-name="uni0630" unicode="&#x630;" horiz-adv-x="514" arabic-form="isolated" 
d="M51 130h243q26 0 43 16t17 41q0 17 -9.5 30.5t-32.5 28.5l-202 139l70 101l222 -153q36 -28 55.5 -61.5t19.5 -80.5q0 -53 -26 -97t-71 -69t-97 -25h-232v130zM126 683h115v-115h-115v115z" />
    <glyph glyph-name="uni0631" unicode="&#x631;" horiz-adv-x="281" arabic-form="isolated" 
d="M62.5 -108q30.5 24 43 55t12.5 87v323h123v-323q0 -81 -21.5 -133t-71 -92t-142.5 -85l-46 103q72 41 102.5 65z" />
    <glyph glyph-name="uni0632" unicode="&#x632;" horiz-adv-x="286" arabic-form="isolated" 
d="M62.5 -108q30.5 24 43 55t12.5 87v323h123v-323q0 -81 -21.5 -133t-71 -92t-142.5 -85l-46 103q72 41 102.5 65zM122 561h115v-115h-115v115z" />
    <glyph glyph-name="uni0633" unicode="&#x633;" horiz-adv-x="1183" arabic-form="isolated" 
d="M209.5 -139q-71.5 42 -113.5 113.5t-42 155.5v187h123v-180q0 -51 25.5 -94t69 -68.5t93.5 -25.5q52 0 95 25.5t68.5 68.5t25.5 94v220h119v-227q0 -84 -41 -155.5t-111.5 -113.5t-155.5 -42q-84 0 -155.5 42zM635 47.5q-31 49.5 -31 132.5v177h75v-170q0 -25 16.5 -42
t41.5 -17t42 17t17 42v170h99v-177q0 -78 -42 -130t-116 -52q-71 0 -102 49.5zM862 52q-42 52 -42 130v175h99v-168q0 -25 17 -42t42 -17h45v257h123v-387h-168q-74 0 -116 52z" />
    <glyph glyph-name="uni0634" unicode="&#x634;" horiz-adv-x="1183" arabic-form="isolated" 
d="M209.5 -139q-71.5 42 -113.5 113.5t-42 155.5v187h123v-180q0 -51 25.5 -94t69 -68.5t93.5 -25.5q52 0 95 25.5t68.5 68.5t25.5 94v220h119v-227q0 -84 -41 -155.5t-111.5 -113.5t-155.5 -42q-84 0 -155.5 42zM635 47.5q-31 49.5 -31 132.5v177h75v-170q0 -25 16.5 -42
t41.5 -17t42 17t17 42v170h99v-177q0 -78 -42 -130t-116 -52q-71 0 -102 49.5zM862 52q-42 52 -42 130v175h99v-168q0 -25 17 -42t42 -17h45v257h123v-387h-168q-74 0 -116 52zM717 557h115v-115h-115v115zM884 557h115v-115h-115v115zM801 723h115v-115h-115v115z" />
    <glyph glyph-name="uni0635" unicode="&#x635;" horiz-adv-x="1281" arabic-form="isolated" 
d="M209.5 -139q-71.5 42 -113.5 113.5t-42 155.5v187h124v-180q0 -51 25.5 -94t68.5 -68.5t93 -25.5q52 0 95.5 25.5t69 68.5t25.5 94v220h119v-227q0 -84 -41 -155.5t-112 -113.5t-156 -42q-84 0 -155.5 42zM677.5 32q-47.5 32 -72.5 86.5t-25 120.5v118h99v-135
q0 -38 26.5 -65t64.5 -27h262q35 0 60.5 25.5t25.5 60.5q0 37 -25.5 63.5t-62.5 26.5q-16 0 -33.5 -6.5t-43.5 -23.5l-280 -167l-44 112l272 162q39 23 66.5 33.5t64.5 10.5q58 0 106.5 -29t77.5 -77.5t29 -106.5t-29 -107t-78 -78t-107 -29h-243q-63 0 -110.5 32z" />
    <glyph glyph-name="uni0636" unicode="&#x636;" horiz-adv-x="1281" arabic-form="isolated" 
d="M209.5 -139q-71.5 42 -113.5 113.5t-42 155.5v187h124v-180q0 -51 25.5 -94t68.5 -68.5t93 -25.5q52 0 95.5 25.5t69 68.5t25.5 94v220h119v-227q0 -84 -41 -155.5t-112 -113.5t-156 -42q-84 0 -155.5 42zM677.5 32q-47.5 32 -72.5 86.5t-25 120.5v118h99v-135
q0 -38 26.5 -65t64.5 -27h262q35 0 60.5 25.5t25.5 60.5q0 37 -25.5 63t-60.5 26q-18 0 -37 -6t-45 -20l-279 -166l-42 108l289 173q53 33 114 33q58 0 106.5 -29t77.5 -77.5t29 -106.5t-29 -107t-78 -78t-107 -29h-243q-63 0 -110.5 32zM974 625h115v-115h-115v115z" />
    <glyph glyph-name="uni0637" unicode="&#x637;" horiz-adv-x="681" arabic-form="isolated" 
d="M48 130h384q35 0 60.5 25.5t25.5 60.5q0 37 -25.5 63t-62.5 26q-16 0 -33.5 -6.5t-43.5 -23.5l-232 -136l-57 103l237 141q39 23 66.5 33.5t64.5 10.5q58 0 106.5 -29t77.5 -77.5t29 -106.5t-29 -107t-78 -78t-107 -29h-383v130zM165 320q6 21 6 51v298h123v-197
q0 -43 -8 -74.5t-21 -43.5l-124 -66q18 11 24 32z" />
    <glyph glyph-name="uni0638" unicode="&#x638;" horiz-adv-x="681" arabic-form="isolated" 
d="M48 130h384q35 0 60.5 25.5t25.5 60.5q0 37 -25.5 63t-62.5 26q-16 0 -33.5 -6.5t-43.5 -23.5l-245 -145l-44 112l237 141q39 23 66.5 33.5t64.5 10.5q58 0 106.5 -29t77.5 -77.5t29 -106.5t-29 -107t-78 -78t-107 -29h-383v130zM165 320q6 21 6 51v298h123v-197
q0 -88 -24 -111l-129 -73q18 11 24 32zM385 625h115v-115h-115v115z" />
    <glyph glyph-name="uni0639" unicode="&#x639;" horiz-adv-x="551" arabic-form="isolated" 
d="M191.5 -398q-64.5 38 -102.5 102.5t-38 141.5q0 70 32.5 125.5t89 89t127.5 41.5q7 1 16 14q10 14 16 14h146v-130h-146q-41 0 -75.5 -20.5t-55 -56t-20.5 -76.5q0 -42 20.5 -77t55 -55.5t75.5 -20.5h183v-130h-183q-76 0 -140.5 38zM226.5 50.5q-51.5 24.5 -81.5 69.5
t-30 103q0 60 30 109.5t81.5 77.5t113.5 28h110v-121h-110q-41 0 -68 -26.5t-27 -66.5q0 -42 26.5 -68t68.5 -26v-104q-62 0 -113.5 24.5z" />
    <glyph glyph-name="uni063A" unicode="&#x63a;" horiz-adv-x="551" arabic-form="isolated" 
d="M191.5 -398q-64.5 38 -102.5 102.5t-38 141.5q0 70 32.5 125.5t89 89t127.5 41.5q7 1 16 14q10 14 16 14h146v-130h-146q-41 0 -75.5 -20.5t-55 -56t-20.5 -76.5q0 -42 20.5 -77t55 -55.5t75.5 -20.5h183v-130h-183q-76 0 -140.5 38zM226.5 50.5q-51.5 24.5 -81.5 69.5
t-30 103q0 60 30 109.5t81.5 77.5t113.5 28h110v-121h-110q-41 0 -68 -26.5t-27 -66.5q0 -42 26.5 -68t68.5 -26v-104q-62 0 -113.5 24.5zM273 635h115v-115h-115v115z" />
    <glyph glyph-name="uni0641" unicode="&#x641;" horiz-adv-x="863" arabic-form="isolated" 
d="M175 32.5q-56 32.5 -88.5 88.5t-32.5 122v114h123v-107q0 -49 35.5 -84.5t84.5 -35.5h348q25 0 42 16.5t17 41.5v14h-62v0q-53 0 -97.5 24.5t-70.5 66.5t-26 94q0 54 26.5 99t71 71t96.5 26v0q52 0 94 -26t66.5 -71t24.5 -99v-206q0 -49 -24 -90.5t-65.5 -66t-91.5 -24.5
h-349q-66 0 -122 32.5zM711 317v74q0 31 -21.5 52t-51.5 21v0q-31 1 -52.5 -20.5t-21.5 -52.5q0 -32 21 -53t53 -21v0h73zM585 780h115v-115h-115v115z" />
    <glyph glyph-name="uni0642" unicode="&#x642;" horiz-adv-x="718" arabic-form="isolated" 
d="M291.5 307.5q28.5 48.5 77 77t106.5 28.5v0q56 0 102 -28.5t72.5 -77t26.5 -105.5v-206q0 -84 -41.5 -155.5t-113 -113.5t-156.5 -42q-84 0 -155.5 42t-113.5 113.5t-42 155.5v187h123v-180q0 -51 25.5 -94t69 -68.5t93.5 -25.5q52 0 95 25.5t68.5 68.5t25.5 94v-3h-79v0
q-58 0 -106.5 26.5t-77 72.5t-28.5 103t28.5 105.5zM416.5 152.5q23.5 -22.5 58.5 -22.5v0h80v79q0 34 -23.5 57.5t-56.5 23.5v0q-35 0 -58.5 -23.5t-23.5 -57.5t23.5 -56.5zM334 616h115v-115h-115v115zM501 616h115v-115h-115v115z" />
    <glyph glyph-name="uni0643" unicode="&#x643;" horiz-adv-x="868" arabic-form="isolated" 
d="M175 32.5q-56 32.5 -88.5 88.5t-32.5 122v114h123v-107q0 -49 35.5 -84.5t84.5 -35.5h327q34 0 57 23t23 58v444h123v-444q0 -57 -26.5 -105.5t-73 -77t-103.5 -28.5h-327q-66 0 -122 32.5zM325 340l131 47q19 9 19 25q0 22 -22 26l-133 34l-33 59l192 140l41 -70
l-97 -70l38 -9q71 -20 89 -70q7 -20 7 -42q0 -37 -20.5 -66.5t-56.5 -42.5l-123 -46z" />
    <glyph glyph-name="uni0644" unicode="&#x644;" horiz-adv-x="721" arabic-form="isolated" 
d="M209.5 -139q-71.5 42 -113.5 113.5t-42 155.5v187h123v-180q0 -51 25.5 -94t69 -68.5t93.5 -25.5q52 0 95 25.5t68.5 68.5t25.5 94v533h123v-540q0 -84 -42 -155.5t-113.5 -113.5t-156.5 -42q-84 0 -155.5 42z" />
    <glyph glyph-name="uni0645" unicode="&#x645;" horiz-adv-x="725" arabic-form="isolated" 
d="M80 313.5q26 44.5 70.5 71t97.5 26.5h229v0q58 0 106.5 -26.5t76.5 -73t28 -102.5q0 -57 -28.5 -105.5t-77 -77t-105.5 -28.5v0q-57 0 -103 28.5t-72.5 77t-26.5 105.5v79h-26q-29 0 -50.5 -21.5t-21.5 -50.5v-466h-123v466q0 53 26 97.5zM535 151.5q23 23.5 23 57.5
t-23.5 57t-57.5 23v0h-80v-80q0 -34 23 -57.5t57 -23.5v0q35 0 58 23.5z" />
    <glyph glyph-name="uni0646" unicode="&#x646;" horiz-adv-x="721" arabic-form="isolated" 
d="M209.5 -139q-71.5 42 -113.5 113.5t-42 155.5v187h123v-180q0 -51 25.5 -94t69 -68.5t93.5 -25.5q52 0 95 25.5t68.5 68.5t25.5 94v220h123v-227q0 -84 -42 -155.5t-113.5 -113.5t-156.5 -42q-84 0 -155.5 42zM306 438h115v-115h-115v115z" />
    <glyph glyph-name="uni0647" unicode="&#x647;" horiz-adv-x="506" arabic-form="isolated" 
d="M68.5 125q-14.5 36 -14.5 75q0 41 17 81t49 71l55 56l-44 43l88 86l186 -185q31 -31 48 -71t17 -81q0 -39 -15 -75t-44 -65q-30 -30 -69 -45.5t-80 -15.5t-80 15.5t-70 45.5q-29 29 -43.5 65zM262 128q33 0 58 24q22 22 22 54q0 34 -24 59l-56 57l-56 -56
q-25 -25 -25 -58q0 -32 24 -56t57 -24z" />
    <glyph glyph-name="uni0648" unicode="&#x648;" horiz-adv-x="507" arabic-form="isolated" 
d="M262 -104.5q44 24.5 61.5 48t17.5 56.5h-79v0q-58 0 -106.5 26.5t-76.5 72.5t-28 103t28.5 105.5t77 77t105.5 28.5v0q56 0 102.5 -28.5t73 -77t26.5 -105.5v-151q0 -88 -29 -142.5t-90 -94t-180 -90.5l-38 108q91 39 135 63.5zM341 122v80q0 34 -23 57.5t-56 23.5v0
q-34 0 -57.5 -23t-23.5 -58q0 -34 23.5 -57t57.5 -23v0h79z" />
    <glyph glyph-name="uni0649" unicode="&#x649;" horiz-adv-x="756" arabic-form="isolated" 
d="M175 -192.5q-56 32.5 -88.5 88.5t-32.5 122v232h123v-225q0 -50 35.5 -85t84.5 -35h225q29 0 46.5 18.5t17.5 46.5q0 22 -13 39.5t-36 22.5l-250 58v122q0 54 28 101t76 75t103 28h176v-123h-178q-34 0 -58 -24.5t-24 -57.5v-23q101 -22 140 -32l27 -6q60 -17 98.5 -69
t38.5 -115q0 -52 -26 -95.5t-70 -69.5t-96 -26h-225q-66 0 -122 32.5z" />
    <glyph glyph-name="uni064A" unicode="&#x64a;" horiz-adv-x="756" arabic-form="isolated" 
d="M175 -192.5q-56 32.5 -88.5 88.5t-32.5 122v232h123v-225q0 -50 35.5 -85t84.5 -35h225q29 0 46.5 18.5t17.5 46.5q0 22 -13 39.5t-36 22.5l-250 58v122q0 54 28 101t76 75t103 28h176v-123h-178q-34 0 -58 -24.5t-24 -57.5v-23q101 -22 140 -32l27 -6q60 -17 98.5 -69
t38.5 -115q0 -52 -26 -95.5t-70 -69.5t-96 -26h-225q-66 0 -122 32.5zM243 -314h115v-115h-115v115zM410 -314h115v-115h-115v115z" />
    <glyph glyph-name="uni066E.init" unicode="&#x66e;" horiz-adv-x="270" 
d="M-10 10v110q0 10 10 10h52q24 0 41 17.5t17 42.5v197h123v-205q0 -50 -24 -91.5t-65.5 -66t-91.5 -24.5h-52q-10 0 -10 10z" />
    <glyph glyph-name="uni066E.medi" unicode="&#x66e;" horiz-adv-x="341" 
d="M0 130h50q25 0 42 17t17 42v168h123v-168q0 -25 17 -42t42 -17h50q10 0 10 -10v-110q0 -10 -10 -10h-50q-40 0 -71.5 17t-49.5 46q-18 -29 -49.5 -46t-70.5 -17h-50q-10 0 -10 10v110q0 10 10 10z" />
    <glyph glyph-name="uni066E.fina" unicode="&#x66e;" horiz-adv-x="929" 
d="M175 32.5q-56 32.5 -88.5 88.5t-32.5 122v114h123v-107q0 -49 35.5 -84.5t84.5 -35.5h327q34 0 57 23t23 58v146h100v-146q0 -59 -21 -107t-62 -76t-97 -28h-327q-66 0 -122 32.5zM770 52q-42 52 -42 130v175h99v-168q0 -25 16.5 -42t41.5 -17h44q10 0 10 -10v-110
q0 -10 -10 -10h-44q-73 0 -115 52z" />
    <glyph glyph-name="uni066F.fina" unicode="&#x66f;" horiz-adv-x="721" 
d="M209.5 -273q-71.5 42 -113.5 113.5t-42 155.5v187h123v-180q0 -51 25.5 -94t69 -68.5t93.5 -25.5q52 0 95 25.5t68.5 68.5t25.5 94v-3h-79v0q-58 0 -106.5 26.5t-77 72.5t-28.5 103t28.5 105.5t77 77t106.5 28.5v0q56 0 102 -28.5t72.5 -77t26.5 -105.5v-206
q0 -84 -41.5 -155.5t-113 -113.5t-156.5 -42q-84 0 -155.5 42zM555 130v79q0 34 -23.5 57.5t-56.5 23.5v0q-35 0 -58.5 -23.5t-23.5 -57.5t23.5 -56.5t58.5 -22.5v0h80zM676 130h45q10 0 10 -10v-110q0 -10 -10 -10h-45v130z" />
    <glyph glyph-name="uni0671" unicode="&#x671;" horiz-adv-x="223" arabic-form="isolated" 
d="M53 621h123v-621h-123v621zM40.5 684q-26.5 27 -26.5 66v26l63 4l2 -21q3 -8 11 -14t19 -6h84q12 0 21 8.5t9 21.5q0 15 -8.5 24.5t-23.5 9.5q-6 0 -13 -3.5t-14 -8t-10 -6.5l-110 -66l-28 74l112 68q30 19 65 19q45 0 77.5 -32t32.5 -78q0 -47 -32 -80t-78 -33h-89
q-37 0 -63.5 27zM-105 779l138 82l37 -69l5 -8l-136 -81z" />
    <glyph glyph-name="uni0679" unicode="&#x679;" horiz-adv-x="864" arabic-form="isolated" 
d="M175.5 32.5q-55.5 32.5 -88 88.5t-32.5 122v114h123v-107q0 -50 35 -85t84 -35h327q34 0 57 23t23 58v146h123v-146q0 -57 -26.5 -105.5t-73 -77t-103.5 -28.5h-327q-66 0 -121.5 32.5zM329 439h153q12 0 21 8.5t9 21.5q0 15 -8 24.5t-24 9.5q-6 0 -13 -3.5t-14 -8
t-10 -6.5l-109 -66l-29 74l112 68q30 19 65 19q45 0 77.5 -32.5t32.5 -78.5q0 -47 -32 -79.5t-78 -32.5h-153v82zM350 576v91h83v-66v45q0 -34 -8.5 -60t-24.5 -36l-68 -41q18 12 18 67z" />
    <glyph glyph-name="uni067E" unicode="&#x67e;" horiz-adv-x="863" arabic-form="isolated" 
d="M175 32.5q-56 32.5 -88.5 88.5t-32.5 122v114h123v-107q0 -49 35.5 -84.5t84.5 -35.5h327q34 0 57 23t23 58v146h123v-146q0 -57 -26.5 -105.5t-73 -77t-103.5 -28.5h-327q-66 0 -122 32.5zM406 -254h115v-115h-115v115zM322 -87h115v-115h-115v115zM488 -87h115v-115
h-115v115z" />
    <glyph glyph-name="uni0686" unicode="&#x686;" horiz-adv-x="704" arabic-form="isolated" 
d="M182.5 -289.5q-55.5 32.5 -88 87.5t-32.5 119q0 53 23.5 101.5t65.5 83.5l273 201l-124 60q-22 9 -34 9q-14 0 -28 -7t-25 -17l-71 -78l-86 75l72 86q25 31 61.5 47t76.5 16q27 0 44 -6t38 -16l216 -101q8 -3 17 -3h86v-120h-113l-317 -233q-45 -38 -45 -96
q0 -49 35 -83.5t84 -34.5h291v-123h-300q-64 0 -119.5 32.5zM429 -60h97v-90h-97v90zM369 65h97v-98h-97v98zM493 65h97v-98h-97v98z" />
    <glyph glyph-name="uni0688" unicode="&#x688;" horiz-adv-x="514" arabic-form="isolated" 
d="M51 130h243q26 0 43 16t17 41q0 17 -9.5 30.5t-32.5 28.5l-202 139l70 101l222 -153q36 -28 55.5 -61.5t19.5 -80.5q0 -53 -26 -97t-71 -69t-97 -25h-232v130zM72 669h153q12 0 21.5 9t9.5 21q0 15 -8.5 24t-23.5 9q-7 0 -16 -4.5t-22 -12.5l-109 -66l-28 74l111 68
q16 9 30.5 14t34.5 5q45 0 77.5 -32.5t32.5 -78.5q0 -47 -32 -79.5t-78 -32.5h-153v82zM89 761.5q4 16.5 4 44.5v91h83v-66v45q0 -34 -8.5 -60t-23.5 -36l-69 -41q10 6 14 22.5z" />
    <glyph glyph-name="uni0691" unicode="&#x691;" horiz-adv-x="281" arabic-form="isolated" 
d="M62.5 -108q30.5 24 43 55t12.5 87v323h123v-323q0 -81 -21.5 -133t-71 -92t-142.5 -85l-46 103q72 41 102.5 65zM56 545h153q12 0 21.5 9t9.5 21q0 15 -8.5 24.5t-23.5 9.5q-7 0 -16 -5t-22 -13l-109 -66l-28 74l111 68q32 19 65 19q45 0 77.5 -32.5t32.5 -77.5
q0 -47 -32 -80t-78 -33h-153v82zM73 638q4 16 4 44v92h84v-67v45q0 -33 -9 -59.5t-24 -36.5l-69 -41q10 7 14 23z" />
    <glyph glyph-name="uni0695.fina" unicode="&#x695;" horiz-adv-x="344" 
d="M62.5 -108q30.5 24 43 55t12.5 87v323h123v-323q0 -81 -21.5 -133t-71 -92t-142.5 -85l-46 103q72 41 102.5 65zM190.5 51q-36.5 51 -36.5 131v175h87v-168q0 -25 17 -42t42 -17h44q10 0 10 -10v-110q0 -10 -10 -10h-44q-73 0 -109.5 51zM89.5 -376.5
q39.5 -25.5 40.5 -76.5q1 51 40.5 76.5t110.5 25.5v-93q-56 -4 -83.5 -27t-27.5 -86h-79q0 63 -28 86t-84 27v93q71 0 110.5 -25.5z" />
    <glyph glyph-name="uni0698" unicode="&#x698;" horiz-adv-x="315" arabic-form="isolated" 
d="M62.5 -108q30.5 24 43 55t12.5 87v323h123v-323q0 -81 -21.5 -133t-71 -92t-142.5 -85l-46 103q72 41 102.5 65zM41 561h115v-115h-115v115zM201 561h115v-115h-115v115zM121 727h115v-115h-115v115z" />
    <glyph glyph-name="uni06A1.init" unicode="&#x6a1;" horiz-adv-x="460" 
d="M-10 10v110q0 10 10 10h242q25 0 42 16.5t17 41.5v14h-62v0q-53 0 -97.5 24.5t-70.5 66.5t-26 94q0 53 26.5 98t71 71.5t96.5 26.5v0q52 0 94 -26t66.5 -71t24.5 -99v-206q0 -49 -24 -90.5t-65.5 -66t-91.5 -24.5h-243q-10 0 -10 10zM235 317h73v74q0 31 -21.5 52
t-51.5 21v0q-32 0 -53 -21t-21 -52q0 -32 21 -53t53 -21v0z" />
    <glyph glyph-name="uni06A1.medi" unicode="&#x6a1;" horiz-adv-x="476" 
d="M56.5 318q28.5 47 77 74t105.5 27v0q57 0 105.5 -27t77 -74t28.5 -105t-28.5 -104t-76.5 -72t-106 -26v0q-58 0 -106 26t-76.5 72t-28.5 104t28.5 105zM-10 10v110q0 10 10 10h476q10 0 10 -10v-110q0 -10 -10 -10h-476q-10 0 -10 10zM181 152.5q23 -22.5 58 -22.5v0
q35 0 58 22.5t23 56.5t-23.5 57t-57.5 23v0q-34 0 -57.5 -23t-23.5 -57t23 -56.5z" />
    <glyph glyph-name="uni06A1.fina" unicode="&#x6a1;" horiz-adv-x="886" 
d="M175 32.5q-56 32.5 -88.5 88.5t-32.5 122v114h123v-107q0 -49 35.5 -84.5t84.5 -35.5h589q10 0 10 -10v-110q0 -10 -10 -10h-589q-66 0 -122 32.5zM829.5 109q-28.5 -46 -76.5 -72t-106 -26v0q-58 0 -106 26t-76.5 72t-28.5 104t28.5 105t77 74t105.5 27v0
q57 0 105.5 -27t77 -74t28.5 -105t-28.5 -104zM704.5 266q-23.5 23 -57.5 23v0q-34 0 -57.5 -23t-23.5 -57t23 -56.5t58 -22.5v0q34 0 57.5 22.5t23.5 56.5t-23.5 57z" />
    <glyph glyph-name="uni06A9" unicode="&#x6a9;" horiz-adv-x="864" arabic-form="isolated" 
d="M175 32.5q-56 32.5 -88.5 88.5t-32.5 122v113h123v-106q0 -49 35.5 -84.5t84.5 -35.5h330q32 0 54.5 21.5t22.5 55.5q0 42 -41 66l-230 152v96l197 209l84 -80l-154 -161l181 -119q41 -26 63.5 -69.5t22.5 -96.5q0 -55 -27 -102t-73 -74.5t-101 -27.5h-329
q-66 0 -122 32.5z" />
    <glyph glyph-name="uni06AF" unicode="&#x6af;" horiz-adv-x="864" arabic-form="isolated" 
d="M175 32.5q-56 32.5 -88.5 88.5t-32.5 122v113h123v-106q0 -49 35.5 -84.5t84.5 -35.5h330q32 0 54.5 21.5t22.5 55.5q0 42 -41 66l-230 152v96l197 209l84 -80l-154 -161l181 -119q41 -26 63.5 -69.5t22.5 -96.5q0 -55 -27 -102t-73 -74.5t-101 -27.5h-329
q-66 0 -122 32.5zM334 601l176 186l60 -60l-176 -186z" />
    <glyph glyph-name="uni06B5.init" unicode="&#x6b5;" horiz-adv-x="264" 
d="M-10 10v110q0 10 10 10h38q25 0 42 17.5t17 42.5v479h123v-487q0 -50 -24 -91.5t-65.5 -66t-91.5 -24.5h-39q-10 0 -10 10zM98 824q-28 23 -84 27v93q71 0 110.5 -25.5t40.5 -76.5q1 51 40.5 76.5t110.5 25.5v-93q-56 -4 -83.5 -27t-27.5 -86h-79q0 63 -28 86z" />
    <glyph glyph-name="uni06B5.medi" unicode="&#x6b5;" horiz-adv-x="328" 
d="M-10 10v110q0 10 10 10h44q25 0 42 17t17 42v480h123v-480q0 -25 16.5 -42t41.5 -17h44q10 0 10 -10v-110q0 -10 -10 -10h-44q-39 0 -70 16.5t-50 45.5q-19 -29 -50 -45.5t-70 -16.5h-44q-10 0 -10 10zM102 824q-28 23 -84 27v93q71 0 110.5 -25.5t40.5 -76.5
q1 51 40.5 76.5t110.5 25.5v-93q-56 -4 -84 -27t-28 -86h-78q0 63 -28 86z" />
    <glyph glyph-name="uni06B5.fina" unicode="&#x6b5;" horiz-adv-x="781" 
d="M209.5 -139q-71.5 42 -113.5 113.5t-42 155.5v187h123v-180q0 -51 25.5 -94t69 -68.5t93.5 -25.5q52 0 95 25.5t68.5 68.5t25.5 94v533h120v-540q0 -84 -41 -155.5t-112 -113.5t-156 -42q-84 0 -155.5 42zM635.5 49.5q-30.5 49.5 -30.5 132.5v487h74v-480q0 -25 16.5 -42
t41.5 -17h44q10 0 10 -10v-110q0 -10 -10 -10h-44q-71 0 -101.5 49.5zM547 824q-28 23 -84 27v93q71 0 110.5 -25.5t40.5 -76.5q1 51 40.5 76.5t110.5 25.5v-93q-56 -4 -83.5 -27t-27.5 -86h-79q0 63 -28 86z" />
    <glyph glyph-name="uni06BA" unicode="&#x6ba;" horiz-adv-x="721" arabic-form="isolated" 
d="M209.5 -139q-71.5 42 -113.5 113.5t-42 155.5v187h123v-180q0 -51 25.5 -94t69 -68.5t93.5 -25.5q52 0 95 25.5t68.5 68.5t25.5 94v220h123v-227q0 -84 -42 -155.5t-113.5 -113.5t-156.5 -42q-84 0 -155.5 42z" />
    <glyph glyph-name="uni06C0" unicode="&#x6c0;" horiz-adv-x="523" arabic-form="isolated" 
d="M68.5 125q-14.5 36 -14.5 75q0 41 17 81t49 71l55 56l-44 43l88 86l186 -185q31 -31 48 -71t17 -81q0 -39 -15 -75t-44 -65q-30 -30 -69 -45.5t-80 -15.5t-80 15.5t-70 45.5q-29 29 -43.5 65zM262 128q33 0 58 24q22 22 22 54q0 34 -24 59l-56 57l-56 -56
q-25 -25 -25 -58q0 -32 24 -56t57 -24zM141 668l119 32q8 1 13 7t5 14q0 10 -7 17t-18 7l-135 -5l-20 66q-4 20 -4 29q0 38 24 69t61 41l96 26l22 -78l-96 -27q-14 -4 -20 -13t-4 -20l2 -9l80 3q36 0 63 -21t36 -58q3 -13 3 -27q0 -36 -21.5 -64.5t-56.5 -38.5l-119 -32z
" />
    <glyph glyph-name="uni06C1" unicode="&#x6c1;" horiz-adv-x="502" arabic-form="isolated" 
d="M65 125q-15 36 -15 75q0 41 17 81t49 71l56 56l-44 43l88 86l186 -185q31 -31 47.5 -71t16.5 -81q0 -39 -15 -75t-44 -65q-30 -30 -69 -45.5t-80 -15.5t-80 15.5t-69 45.5q-29 29 -44 65zM259 128q33 0 57 24q23 23 23 54q0 32 -25 59l-56 57l-56 -56q-24 -24 -24 -58
q0 -33 23 -56q24 -24 58 -24z" />
    <glyph glyph-name="uni06C2.fina" unicode="&#x6c2;" horiz-adv-x="564" 
d="M153.5 57.5q-48.5 28.5 -77.5 77t-29 105.5q0 56 28.5 102.5t77.5 73t107 26.5v0h80v62h122v-264q0 -57 -26.5 -105.5t-72.5 -77t-103 -28.5v0q-58 0 -106.5 28.5zM317 182.5q23 23.5 23 57.5v79h-80v0q-35 0 -58 -22.5t-23 -56.5t23.5 -57.5t57.5 -23.5v0q34 0 57 23.5z
M433.5 24.5q-37.5 24.5 -58 66t-20.5 91.5v175h107v-168q0 -25 16.5 -42t41.5 -17h44q10 0 10 -10v-110q0 -10 -10 -10h-44q-49 0 -86.5 24.5zM94 602l92 34q-27 17 -38 46q-6 17 -6 33q0 35 23 66t61 45l77 27l32 -89l-67 -25q-11 -4 -17.5 -12.5t-6.5 -19.5
q0 -15 10.5 -25t25.5 -10q5 0 15 2l91 33l32 -88l-293 -106z" />
    <glyph glyph-name="uni06C3.fina" unicode="&#x6c3;" horiz-adv-x="544" 
d="M315 501h115v-115h-115v115zM148 501h115v-115h-115v115zM554 120v-110q0 -10 -10 -10h-43q-53 0 -96.5 23t-70.5 64l-55 85l-162 -155l-80 85l209 197h96l85 -128q25 -41 66 -41h51q10 0 10 -10z" />
    <glyph glyph-name="uni06CC" unicode="&#x6cc;" horiz-adv-x="756" arabic-form="isolated" 
d="M175 -192.5q-56 32.5 -88.5 88.5t-32.5 122v232h123v-225q0 -50 35.5 -85t84.5 -35h225q29 0 46.5 18.5t17.5 46.5q0 22 -13 39.5t-36 22.5l-250 58v122q0 54 28 101t76 75t103 28h176v-123h-178q-34 0 -58 -24.5t-24 -57.5v-23q101 -22 140 -32l27 -6q60 -17 98.5 -69
t38.5 -115q0 -52 -26 -95.5t-70 -69.5t-96 -26h-225q-66 0 -122 32.5z" />
    <glyph glyph-name="uni06ce.init" unicode="&#x6ce;" horiz-adv-x="327" 
d="M-10 10v110q0 10 10 10h82q24 0 41.5 17.5t17.5 42.5v197h123v-205q0 -50 -24 -91.5t-65.5 -66t-91.5 -24.5h-83q-10 0 -10 10zM104 580q-28 23 -84 27v93q71 -1 110 -26.5t40 -76.5q2 51 41 76.5t110 26.5v-93q-56 -4 -83.5 -27t-27.5 -86h-78q0 63 -28 86zM0 -89h115
v-115h-115v115zM167 -89h115v-115h-115v115z" />
    <glyph glyph-name="uni06ce.medi" unicode="&#x6ce;" horiz-adv-x="366" 
d="M116 539q-28 23 -84 27v93q71 -1 110.5 -26.5t40.5 -76.5q1 51 40 76.5t110 26.5v-93q-56 -4 -83.5 -27t-27.5 -86h-78q0 63 -28 86zM-10 10v110q0 10 10 10h63q25 0 41.5 17t16.5 42v168h123v-168q0 -25 17 -42t42 -17h63q10 0 10 -10v-110q0 -10 -10 -10h-63
q-77 0 -120 56q-21 -27 -51.5 -41.5t-68.5 -14.5h-63q-10 0 -10 10zM41 -89h115v-115h-115v115zM208 -89h115v-115h-115v115z" />
    <glyph glyph-name="uni06ce.fina" unicode="&#x6ce;" horiz-adv-x="757" 
d="M142.5 483.5q-27.5 23.5 -83.5 27.5v92q71 0 110 -25.5t40 -76.5q1 51 40.5 76.5t110.5 25.5v-92q-56 -4 -83.5 -27.5t-27.5 -86.5h-79q0 63 -27.5 86.5zM175 -218.5q-56 32.5 -88.5 88.5t-32.5 122v231h123v-225q0 -49 35 -84t85 -35h228q25 0 43 17.5t18 42.5t-18 43
t-43 18h-181v106h178q54 0 97.5 -20t69 -58t25.5 -89q0 -52 -25.5 -95.5t-69.5 -69t-97 -25.5h-225q-66 0 -122 32.5zM324 130h433q10 0 10 -10v-110q0 -10 -10 -10h-433v130z" />
    <glyph glyph-name="uni06D2" unicode="&#x6d2;" horiz-adv-x="646" arabic-form="isolated" 
d="M132 26q-44 26 -69.5 69.5t-25.5 95.5q0 63 38.5 115t98.5 69l27 6q39 10 140 32l38 -118l-165 -38q-23 -5 -36.5 -22.5t-13.5 -39.5q0 -28 18 -46.5t47 -18.5h377v-130h-377q-53 0 -97 26z" />
    <glyph glyph-name="uni06d5.fina" unicode="&#x6d5;" horiz-adv-x="567" 
d="M157 57.5q-49 28.5 -77.5 77t-28.5 105.5q0 56 28.5 102.5t77.5 73t106 26.5v0h80v62h122v-264q0 -58 -26 -106t-72.5 -76.5t-103.5 -28.5v0q-57 0 -106 28.5zM320 182.5q23 23.5 23 57.5v79h-80v0q-34 0 -57.5 -22.5t-23.5 -56.5t23.5 -57.5t57.5 -23.5v0q34 0 57 23.5z
M436.5 24.5q-37.5 24.5 -57.5 66t-20 91.5v175h106v-168q0 -25 16.5 -42t41.5 -17h44q10 0 10 -10v-110q0 -10 -10 -10h-44q-49 0 -86.5 24.5z" />
    <glyph glyph-name="uni0671.fina" unicode="&#x671;" horiz-adv-x="287" arabic-form="final" 
d="M143.5 24.5q-41.5 24.5 -65.5 66t-24 91.5v439h123v-431q0 -25 17 -42.5t42 -17.5h51q10 0 10 -10v-110q0 -10 -10 -10h-52q-50 0 -91.5 24.5zM-105 779l138 82l37 -69l5 -8l-136 -81zM40.5 684q-26.5 27 -26.5 66v22l63 8v-15q0 -7 10.5 -16.5t21.5 -9.5h84q12 0 21 8.5
t9 21.5q0 15 -8.5 24.5t-23.5 9.5q-6 0 -13 -3.5t-14 -8t-10 -6.5l-110 -66l-28 74l112 68q30 19 65 19q45 0 77.5 -32t32.5 -78q0 -47 -32 -80t-78 -33h-89q-37 0 -63.5 27z" />
    <glyph glyph-name="uni067E.fina" unicode="&#x67e;" horiz-adv-x="929" arabic-form="final" 
d="M175 32.5q-56 32.5 -88.5 88.5t-32.5 122v114h123v-107q0 -49 35.5 -84.5t84.5 -35.5h327q34 0 57 23t23 58v146h100v-146q0 -59 -21 -107t-62 -76t-97 -28h-327q-66 0 -122 32.5zM406 -254h115v-115h-115v115zM322 -87h115v-115h-115v115zM488 -87h115v-115h-115v115z
M770 52q-42 52 -42 130v175h99v-168q0 -25 16.5 -42t41.5 -17h44q10 0 10 -10v-110q0 -10 -10 -10h-44q-73 0 -115 52z" />
    <glyph glyph-name="uni067E.init" unicode="&#x67e;" horiz-adv-x="321" arabic-form="initial" 
d="M-10 10v110q0 10 10 10h97q24 0 41 17.5t17 42.5v197h123v-205q0 -50 -24 -91.5t-65.5 -66t-91.5 -24.5h-97q-10 0 -10 10zM84 -254h115v-115h-115v115zM0 -87h115v-115h-115v115zM166 -87h115v-115h-115v115z" />
    <glyph glyph-name="uni067E.medi" unicode="&#x67e;" horiz-adv-x="366" arabic-form="medial" 
d="M0 130h63q25 0 41.5 17t16.5 42v168h123v-168q0 -25 17 -42t42 -17h63q10 0 10 -10v-110q0 -10 -10 -10h-63q-77 0 -120 56q-21 -27 -51.5 -41.5t-68.5 -14.5h-63q-10 0 -10 10v110q0 10 10 10zM125 -254h115v-115h-115v115zM41 -87h115v-115h-115v115zM208 -87h115v-115
h-115v115z" />
    <glyph glyph-name="uni0679.fina" unicode="&#x679;" horiz-adv-x="929" arabic-form="final" 
d="M175 32.5q-56 32.5 -88.5 88.5t-32.5 122v114h123v-107q0 -49 35.5 -84.5t84.5 -35.5h327q34 0 57 23t23 58v146h100v-146q0 -59 -21 -107t-62 -76t-97 -28h-327q-66 0 -122 32.5zM770 52q-42 52 -42 130v175h99v-168q0 -25 16.5 -42t41.5 -17h44q10 0 10 -10v-110
q0 -10 -10 -10h-44q-73 0 -115 52zM326 441h153q12 0 21.5 9t9.5 21q0 15 -8.5 24.5t-23.5 9.5q-7 0 -16 -5t-22 -13l-109 -66l-28 74l111 68q16 9 30.5 14t34.5 5q45 0 77.5 -32.5t32.5 -77.5q0 -47 -32 -80t-78 -33h-153v82zM343 534q4 16 4 44v92h83v-67v45
q0 -33 -8.5 -59.5t-23.5 -36.5l-69 -41q10 7 14 23z" />
    <glyph glyph-name="uni0679.init" unicode="&#x679;" horiz-adv-x="270" arabic-form="initial" 
d="M-10 10v110q0 10 10 10h52q24 0 41 17.5t17 42.5v197h123v-205q0 -50 -24 -91.5t-65.5 -66t-91.5 -24.5h-52q-10 0 -10 10zM2 569h153q12 0 21.5 9t9.5 21q0 15 -8.5 24t-23.5 9q-7 0 -16 -4.5t-22 -12.5l-109 -67l-28 75l111 68q32 19 65 19q45 0 77.5 -32.5t32.5 -78.5
q0 -47 -32 -79.5t-78 -32.5h-153v82zM19 661.5q4 16.5 4 44.5v91h84v-66v44q0 -33 -9 -59t-24 -36l-69 -41q10 6 14 22.5z" />
    <glyph glyph-name="uni0679.medi" unicode="&#x679;" horiz-adv-x="341" arabic-form="medial" 
d="M0 130h50q25 0 42 17t17 42v168h123v-168q0 -25 17 -42t42 -17h50q10 0 10 -10v-110q0 -10 -10 -10h-50q-40 0 -71.5 17t-49.5 46q-18 -29 -49.5 -46t-70.5 -17h-50q-10 0 -10 10v110q0 10 10 10zM66 539h152q12 0 21.5 9t9.5 21q0 15 -8.5 24.5t-23.5 9.5
q-6 0 -15.5 -4.5t-22.5 -13.5l-109 -66l-28 74l111 68q32 19 65 19q46 0 78 -32.5t32 -78.5q0 -47 -32 -79.5t-78 -32.5h-152v82zM82 631.5q4 16.5 4 44.5v91h84v-66v45q0 -34 -8.5 -60t-24.5 -36l-69 -41q10 6 14 22.5z" />
    <glyph glyph-name="uni06A4.fina" unicode="&#x6a4;" horiz-adv-x="886" arabic-form="final" 
d="M175 32.5q-56 32.5 -88.5 88.5t-32.5 122v114h123v-107q0 -49 35.5 -84.5t84.5 -35.5h589q10 0 10 -10v-110q0 -10 -10 -10h-589q-66 0 -122 32.5zM829.5 109q-28.5 -46 -76.5 -72t-106 -26v0q-58 0 -106 26t-76.5 72t-28.5 104t28.5 105t77 74t105.5 27v0
q57 0 105.5 -27t77 -74t28.5 -105t-28.5 -104zM704.5 266q-23.5 23 -57.5 23v0q-34 0 -57.5 -23t-23.5 -57t23 -56.5t58 -22.5v0q34 0 57.5 22.5t23.5 56.5t-23.5 57zM507 616h115v-115h-115v115zM674 616h115v-115h-115v115zM592 782h115v-115h-115v115z" />
    <glyph glyph-name="uni06A4.init" unicode="&#x6a4;" horiz-adv-x="460" arabic-form="initial" 
d="M-10 10v110q0 10 10 10h242q25 0 42 16.5t17 41.5v14h-62v0q-53 0 -97.5 24.5t-70.5 66.5t-26 94q0 53 26.5 98t71 71.5t96.5 26.5v0q52 0 94 -26t66.5 -71t24.5 -99v-206q0 -49 -24 -90.5t-65.5 -66t-91.5 -24.5h-243q-10 0 -10 10zM235 317h73v74q0 31 -21.5 52
t-51.5 21v0q-32 0 -53 -21t-21 -52q0 -32 21 -53t53 -21v0zM100 782h115v-115h-115v115zM267 782h115v-115h-115v115zM184 948h115v-115h-115v115z" />
    <glyph glyph-name="uni06A4.medi" unicode="&#x6a4;" horiz-adv-x="476" arabic-form="medial" 
d="M56.5 318q28.5 47 77 74t105.5 27v0q57 0 105.5 -27t77 -74t28.5 -105t-28.5 -104t-76.5 -72t-106 -26v0q-58 0 -106 26t-76.5 72t-28.5 104t28.5 105zM-10 10v110q0 10 10 10h476q10 0 10 -10v-110q0 -10 -10 -10h-476q-10 0 -10 10zM181 152.5q23 -22.5 58 -22.5v0
q35 0 58 22.5t23 56.5t-23.5 57t-57.5 23v0q-34 0 -57.5 -23t-23.5 -57t23 -56.5zM98 616h115v-115h-115v115zM265 616h115v-115h-115v115zM182 782h115v-115h-115v115z" />
    <glyph glyph-name="uni0686.fina" unicode="&#x686;" horiz-adv-x="708" arabic-form="final" 
d="M182.5 -289.5q-55.5 32.5 -88 87.5t-32.5 119q0 53 23.5 101.5t65.5 83.5l273 201l-124 60q-22 9 -34 9q-14 0 -28 -7t-25 -17l-71 -78l-86 75l72 86q25 31 61.5 47t76.5 16q27 0 44 -6t38 -16l216 -101q8 -3 17 -3h86v-120h-114l-27 -20v-39q0 -25 16.5 -42t41.5 -17
h124q10 0 10 -10v-110q0 -10 -10 -10h-124q-71 0 -113 38t-43 105v12l-191 -140q-45 -38 -45 -96q0 -49 35 -83.5t84 -34.5h291v-123h-300q-64 0 -119.5 32.5zM324 -96h68v-68h-68v68zM277 2h67v-68h-67v68zM371 2h69v-68h-69v68z" />
    <glyph glyph-name="uni0686.init" unicode="&#x686;" horiz-adv-x="708" arabic-form="initial" 
d="M-10 10v110q0 10 10 10h199q83 0 137 50l108 97l-152 72q-20 10 -34 10t-28 -7t-25 -18l-85 -95l-86 75l86 104q25 31 61.5 46.5t76.5 15.5q26 0 45 -6t37 -15l216 -101q6 -3 17 -3h98v-120h-105l-162 -151q-45 -41 -102.5 -62.5t-120.5 -21.5h-181q-10 0 -10 10z
M216 -255h115v-115h-115v115zM132 -89h115v-115h-115v115zM298 -89h115v-115h-115v115z" />
    <glyph glyph-name="uni0686.medi" unicode="&#x686;" horiz-adv-x="706" arabic-form="medial" 
d="M-10 10v110q0 10 10 10h199q83 0 137 50l108 97l-152 72q-20 10 -34 10t-28.5 -7t-24.5 -18l-85 -95l-86 75l86 104q25 31 61.5 46.5t76.5 15.5q26 0 45 -6t37 -15l216 -101q9 -3 17 -3h98v-120h-108l-26 -24v-22q0 -25 17 -42t42 -17h110q10 0 10 -10v-110
q0 -10 -10 -10h-110q-59 0 -98.5 34t-51.5 89l-42 -39q-45 -41 -102.5 -62.5t-120.5 -21.5h-181q-10 0 -10 10zM216 -254h115v-115h-115v115zM132 -87h115v-115h-115v115zM298 -87h115v-115h-115v115z" />
    <glyph glyph-name="uni0688.fina" unicode="&#x688;" horiz-adv-x="556" arabic-form="final" 
d="M51 130h234q25 0 42.5 15t17.5 40q0 7 -6 27l-92 253l116 44l120 -332q9 -22 25 -34.5t39 -12.5h9q10 0 10 -10v-110q0 -10 -10 -10h-15q-41 0 -74 18t-48 44q-29 -33 -59.5 -47.5t-74.5 -14.5h-234v130zM197 691h152q13 0 22 8.5t9 21.5q0 15 -8.5 24.5t-23.5 9.5
q-6 0 -15.5 -4.5t-22.5 -13.5l-109 -66l-28 74l111 68q32 19 65 19q46 0 78 -32t32 -78q0 -47 -32 -80t-78 -33h-152v82zM213 784.5q4 16.5 4 44.5v91h84v-66v44q0 -34 -8.5 -60t-24.5 -36l-69 -40q10 6 14 22.5z" />
    <glyph glyph-name="uni0698.fina" unicode="&#x698;" horiz-adv-x="381" arabic-form="final" 
d="M62.5 -108q30.5 24 43 55t12.5 87v323h123v-323q0 -81 -21.5 -133t-71 -92t-142.5 -85l-46 103q72 41 102.5 65zM190.5 51q-36.5 51 -36.5 131v175h87v-168q0 -25 17 -42t42 -17h81q10 0 10 -10v-110q0 -10 -10 -10h-81q-73 0 -109.5 51zM45 561h115v-115h-115v115z
M212 561h114v-115h-114v115zM129 727h115v-115h-115v115z" />
    <glyph glyph-name="uni0691.fina" unicode="&#x691;" horiz-adv-x="344" arabic-form="final" 
d="M62.5 -108q30.5 24 43 55t12.5 87v323h123v-323q0 -81 -21.5 -133t-71 -92t-142.5 -85l-46 103q72 41 102.5 65zM190.5 51q-36.5 51 -36.5 131v175h87v-168q0 -25 17 -42t42 -17h44q10 0 10 -10v-110q0 -10 -10 -10h-44q-73 0 -109.5 51zM75 542h153q12 0 21 9t9 22
q0 15 -8 24t-24 9q-6 0 -13 -3.5t-14 -8t-10 -6.5l-110 -66l-28 75l112 68q29 18 65 18q45 0 77.5 -32t32.5 -78q0 -47 -32 -79.5t-78 -32.5h-153v81zM96 680v91h83v-66v44q0 -34 -9 -59.5t-24 -35.5l-68 -41q18 12 18 67z" />
    <glyph glyph-name="uni06A9.fina" unicode="&#x6a9;" horiz-adv-x="929" arabic-form="final" 
d="M175 32.5q-56 32.5 -88.5 88.5t-32.5 122v113h123v-106q0 -49 35.5 -84.5t84.5 -35.5h330q32 0 54.5 21.5t22.5 55.5q0 42 -41 66l-230 152v96l197 209l84 -80l-154 -161l181 -119q41 -26 63.5 -69.5t22.5 -96.5q0 -55 -27 -102t-73 -74.5t-101 -27.5h-329
q-66 0 -122 32.5zM770 52q-42 52 -42 130v22h99v-15q-1 -25 16.5 -42t42.5 -17h43q10 0 10 -10v-110q0 -10 -10 -10h-43q-74 0 -116 52z" />
    <glyph glyph-name="uni06A9.init" unicode="&#x6a9;" horiz-adv-x="459" arabic-form="initial" 
d="M0 130h223q31 0 53.5 21.5t22.5 55.5q0 42 -40 66l-230 152v96l196 209l85 -80l-154 -161l180 -119q41 -27 64 -70t23 -96q0 -55 -27 -102t-73.5 -74.5t-101.5 -27.5h-221q-10 0 -10 10v110q0 10 10 10z" />
    <glyph glyph-name="uni06A9.medi" unicode="&#x6a9;" horiz-adv-x="525" arabic-form="medial" 
d="M-10 10v110q0 10 10 10h223q31 0 53.5 21.5t22.5 55.5q0 42 -40 66l-230 152v96l196 209l85 -80l-154 -161l180 -119q41 -27 64 -70t23 -96q0 -55 -27 -102t-73.5 -74.5t-101.5 -27.5h-221q-10 0 -10 10zM366 52q-42 52 -42 130v22h99v-15q0 -25 16.5 -42t41.5 -17h44
q10 0 10 -10v-110q0 -10 -10 -10h-44q-73 0 -115 52z" />
    <glyph glyph-name="uni06AF.fina" unicode="&#x6af;" horiz-adv-x="929" arabic-form="final" 
d="M770 52q-42 52 -42 130v22h99v-15q-1 -25 16.5 -42t42.5 -17h43q10 0 10 -10v-110q0 -10 -10 -10h-43q-74 0 -116 52zM334 601l176 186l60 -60l-176 -186zM175 32.5q-56 32.5 -88.5 88t-32.5 121.5v114h123v-108q0 -49 35 -83.5t85 -34.5h330q32 0 54.5 21.5t22.5 55.5
q0 42 -41 66l-230 152v96l197 209l84 -80l-154 -161l181 -119q41 -26 63.5 -69.5t22.5 -96.5q0 -55 -27 -102t-73 -74.5t-101 -27.5h-329q-66 0 -122 32.5z" />
    <glyph glyph-name="uni06AF.init" unicode="&#x6af;" horiz-adv-x="555" arabic-form="initial" 
d="M-10 10v110q0 10 10 10h319q31 0 53.5 21.5t22.5 55.5q0 42 -40 66l-231 152v96l197 209l84 -80l-154 -161l181 -119q41 -27 64 -70t23 -96q0 -55 -27 -102t-73.5 -74.5t-101.5 -27.5h-317q-10 0 -10 10zM25 601l176 186l60 -60l-176 -186z" />
    <glyph glyph-name="uni06AF.medi" unicode="&#x6af;" horiz-adv-x="621" arabic-form="medial" 
d="M-10 10v110q0 10 10 10h319q31 0 53.5 21.5t22.5 55.5q0 42 -40 66l-231 152v96l197 209l84 -80l-154 -161l181 -119q41 -27 64 -70t23 -96q0 -55 -27 -102t-73.5 -74.5t-101.5 -27.5h-317q-10 0 -10 10zM461.5 52q-42.5 52 -42.5 130v22h100v-15q-1 -25 16 -42t42 -17
h44q10 0 10 -10v-110q0 -10 -10 -10h-44q-73 0 -115.5 52zM25 601l176 186l60 -60l-176 -186z" />
    <glyph glyph-name="uni06BA.fina" unicode="&#x6ba;" horiz-adv-x="781" arabic-form="final" 
d="M209.5 -139q-71.5 42 -113.5 113.5t-42 155.5v187h123v-180q0 -51 25.5 -94t69 -68.5t93.5 -25.5q52 0 95 25.5t68.5 68.5t25.5 94v220h119v-227q0 -84 -41 -155.5t-111.5 -113.5t-155.5 -42q-84 0 -155.5 42zM635 49.5q-31 49.5 -31 132.5v175h75v-168q0 -25 16.5 -42
t41.5 -17h44q10 0 10 -10v-110q0 -10 -10 -10h-44q-71 0 -102 49.5z" />
    <glyph glyph-name="uni06C0.fina" unicode="&#x6c0;" horiz-adv-x="567" arabic-form="final" 
d="M157 57.5q-49 28.5 -77.5 77t-28.5 105.5q0 56 28.5 102.5t77.5 73t106 26.5v0h80v62h122v-264q0 -58 -26 -106t-72.5 -76.5t-103.5 -28.5v0q-57 0 -106 28.5zM320 182.5q23 23.5 23 57.5v79h-80v0q-34 0 -57.5 -22.5t-23.5 -56.5t23.5 -57.5t57.5 -23.5v0q34 0 57 23.5z
M436.5 24.5q-37.5 24.5 -57.5 66t-20 91.5v175h106v-168q0 -25 16.5 -42t41.5 -17h44q10 0 10 -10v-110q0 -10 -10 -10h-44q-49 0 -86.5 24.5zM86 573l119 32q18 5 18 22q0 10 -7 17t-17 6l-136 -4l-19 65q-4 13 -4 29q0 38 23.5 69.5t60.5 41.5l96 26l23 -79l-97 -27
q-14 -4 -20 -12.5t-4 -20.5l2 -9l80 3q36 0 63 -21t36 -58q4 -12 4 -26q0 -36 -22 -65t-57 -39l-119 -32z" />
    <glyph glyph-name="uni06C1.fina" unicode="&#x6c1;" horiz-adv-x="544" arabic-form="final" 
d="M554 120v-110q0 -10 -10 -10h-43q-53 0 -96.5 23t-70.5 64l-55 85l-162 -155l-80 85l209 197h96l85 -128q25 -41 66 -41h51q10 0 10 -10z" />
    <glyph glyph-name="uni06C1.init" unicode="&#x6c1;" horiz-adv-x="270" arabic-form="initial" 
d="M-10 10v110q0 10 10 10h52q24 0 41 17.5t17 42.5v197h123v-205q0 -50 -24 -91.5t-65.5 -66t-91.5 -24.5h-52q-10 0 -10 10zM20 -400.5q-23 24.5 -23 58.5q0 48 26.5 111t82.5 138l71 -47q-29 -40 -70 -113q-4 -8 -6.5 -12.5t-3.5 -6.5q23 2 44 -20t21 -50q0 -35 -24 -59
t-59 -24q-36 0 -59 24.5z" />
    <glyph glyph-name="uni06C1.medi" unicode="&#x6c1;" horiz-adv-x="579" arabic-form="medial" 
d="M265 -98.5q22 -22.5 53 -22.5h200v-121h-201q-53 0 -98.5 26.5t-72 72t-26.5 98.5v291h123v-291q0 -31 22 -53.5zM362.5 25q25.5 48 71 76.5t103.5 28.5h42q10 0 10 -10v-110q0 -10 -10 -10h-52q-34 0 -56 -23t-22 -58v-141h-112v141q0 58 25.5 106zM217.5 105.5
q-25.5 -48.5 -71.5 -77t-103 -28.5h-43q-10 0 -10 10v110q0 10 10 10h42q34 0 56 23.5t22 58.5v49h123v-49q0 -58 -25.5 -106.5z" />
    <glyph glyph-name="uni06BE.fina" unicode="&#x6be;" horiz-adv-x="547" arabic-form="final" 
d="M198 42.5q-47 25.5 -75 68.5t-28 94t28 94.5t75 69t102 25.5v0q55 0 97 -25.5t65.5 -68.5t23.5 -95t-23.5 -95t-65.5 -68t-97 -25v0q-55 0 -102 25.5zM198 -243.5q-47 25.5 -75 68.5t-28 93q0 51 28 94.5t75 69t102 25.5v0q55 0 97 -25.5t65.5 -68.5t23.5 -95
q0 -51 -23.5 -94t-65.5 -68t-97 -25v0q-55 0 -102 25.5zM355.5 -133q23.5 23 23.5 55q0 33 -23.5 56t-55.5 23v0q-32 0 -55.5 -23t-23.5 -56q0 -32 23.5 -55t55.5 -23v0q32 0 55.5 23zM224 130h323q10 0 10 -10v-110q0 -10 -10 -10h-323v130zM355.5 153.5
q23.5 23.5 23.5 55.5t-23.5 55t-55.5 23v0q-32 0 -55.5 -23t-23.5 -55t23.5 -55.5t55.5 -23.5v0q32 0 55.5 23.5zM50 394h250l-52 -124h-198v124z" />
    <glyph glyph-name="uni06BE.init" unicode="&#x6be;" horiz-adv-x="779" arabic-form="initial" 
d="M299 130q34 0 56 24t22 55q0 30 -22 54t-56 24t-56.5 -22.5t-22.5 -55.5q0 -36 24 -57.5t55 -21.5h232q34 0 57.5 22.5t23.5 56.5q0 33 -23.5 55.5t-57.5 22.5h-483v123h483q57 0 105.5 -26.5t77 -72.5t28.5 -102q0 -57 -29 -105t-77.5 -76t-104.5 -28h-239
q-60 0 -105 31t-69 79t-24 99q0 45 26 89.5t73 73t106 28.5q68 0 109.5 -35t58.5 -80t17 -76q0 -67 -28.5 -114.5t-73 -71t-90.5 -23.5h-294l1 130h300z" />
    <glyph glyph-name="uni06BE.medi" unicode="&#x6be;" horiz-adv-x="844" arabic-form="medial" 
d="M713 104q-29 -48 -77.5 -76t-104.5 -28h-531q-10 0 -10 10v110q0 10 10 10h531q34 0 57.5 22.5t23.5 56.5q0 33 -23.5 55.5t-57.5 22.5h-483v123h483q57 0 105.5 -26.5t77 -72.5t28.5 -102q0 -57 -29 -105zM461 110q-23 -43 -65 -68t-97 -25v0q-56 0 -103 25.5
t-74.5 68.5t-27.5 94t28 94.5t75 69t102 25.5v0q55 0 97 -25.5t65 -68.5t23 -95t-23 -95zM354 264q-23 23 -55 23v0q-33 0 -56 -23t-23 -55t23 -55.5t56 -23.5v0q32 0 55 23.5t23 55.5t-23 55zM685 52q-42 52 -42 130v26h99v-19q0 -25 17 -42t42 -17h43q10 0 10 -10v-110
q0 -10 -10 -10h-43q-74 0 -116 52z" />
    <glyph glyph-name="uni06D2.fina" unicode="&#x6d2;" horiz-adv-x="536" arabic-form="final" 
d="M80 34.5q26 43.5 70 69.5t96 26h290q10 0 10 -10v-110q0 -10 -10 -10h-292q-25 0 -43 -18t-18 -43t18 -42.5t43 -17.5h241v-130h-239q-52 0 -96 25.5t-70 69t-26 95.5t26 95.5z" />
    <glyph glyph-name="uni06D3.fina" unicode="&#x6d3;" horiz-adv-x="536" arabic-form="final" 
d="M80 34.5q26 43.5 70 69.5t96 26h290q10 0 10 -10v-110q0 -10 -10 -10h-292q-25 0 -43 -18t-18 -43t18 -42.5t43 -17.5h241v-130h-239q-52 0 -96 25.5t-70 69t-26 95.5t26 95.5zM57 246l93 34q-27 17 -39 46q-5 18 -5 33q0 35 22.5 66t60.5 45l77 27l32 -89l-67 -25
q-11 -4 -17 -12.5t-6 -19.5q0 -15 10 -25t25 -10q10 0 15 2l91 33l32 -88l-292 -107z" />
    <glyph glyph-name="uni06C7.fina" unicode="&#x6c7;" horiz-adv-x="510" arabic-form="final" 
d="M262 -104.5q44 24.5 61.5 48t17.5 56.5h-79v0q-58 0 -106.5 26.5t-76.5 72.5t-28 103t28.5 105.5t77 77t105.5 28.5v0q56 0 102.5 -28.5t73 -77t26.5 -105.5v-151q0 -88 -29 -142.5t-90 -94t-180 -90.5l-38 108q91 39 135 63.5zM341 122v80q0 34 -23 57.5t-56 23.5v0
q-34 0 -57.5 -23t-23.5 -58q0 -34 23.5 -57t57.5 -23v0h79zM455 130h55q10 0 10 -10v-110q0 -10 -10 -10h-55v130zM165.5 629q-9.5 18 -9.5 41q0 54 37.5 91.5t90.5 37.5q35 0 65 -17t47.5 -47t17.5 -65q0 -42 -23 -75t-63 -47l-194 -70l-31 89l89 32q-17 12 -26.5 30z
M255.5 643.5q11.5 -11.5 29.5 -11.5t29.5 11.5t11.5 29.5t-11.5 30t-29.5 12t-29.5 -12t-11.5 -30t11.5 -29.5z" />
    <glyph glyph-name="uni06C6.fina" unicode="&#x6c6;" horiz-adv-x="510" arabic-form="final" 
d="M262 -104.5q44 24.5 61.5 48t17.5 56.5h-79v0q-58 0 -106.5 26.5t-76.5 72.5t-28 103t28.5 105.5t77 77t105.5 28.5v0q56 0 102.5 -28.5t73 -77t26.5 -105.5v-151q0 -88 -29 -142.5t-90 -94t-180 -90.5l-38 108q91 39 135 63.5zM341 122v80q0 34 -23 57.5t-56 23.5v0
q-34 0 -57.5 -23t-23.5 -58q0 -34 23.5 -57t57.5 -23v0h79zM455 130h55q10 0 10 -10v-110q0 -10 -10 -10h-55v130zM196 600.5q-28 23.5 -84 27.5v93q71 -1 110.5 -26.5t40.5 -76.5q1 51 40.5 76.5t110.5 26.5v-93q-56 -4 -83.5 -27.5t-27.5 -86.5h-79q0 63 -28 86.5z" />
    <glyph glyph-name="uni06CC.fina" unicode="&#x6cc;" horiz-adv-x="757" arabic-form="final" 
d="M54 223h123v-225q0 -49 35 -84t85 -35h228q25 0 43 17.5t18 42.5t-18 43t-43 18h-181v106h178q54 0 97.5 -20t69 -58t25.5 -89q0 -52 -25.5 -95.5t-69.5 -69t-97 -25.5h-225q-66 0 -122 32.5t-88.5 88.5t-32.5 122v231zM324 0v130h433q10 0 10 -10v-110q0 -10 -10 -10
h-433z" />
    <glyph glyph-name="uni06CC.init" unicode="&#x6cc;" horiz-adv-x="320" arabic-form="initial" 
d="M-10 10v110q0 10 10 10h97q24 0 41 17.5t17 42.5v197h123v-205q0 -50 -24 -91.5t-65.5 -66t-91.5 -24.5h-97q-10 0 -10 10zM1 -89h115v-115h-115v115zM168 -89h115v-115h-115v115z" />
    <glyph glyph-name="uni06CC.medi" unicode="&#x6cc;" horiz-adv-x="366" arabic-form="medial" 
d="M0 130h63q25 0 41.5 17t16.5 42v168h123v-168q0 -25 17 -42t42 -17h63q10 0 10 -10v-110q0 -10 -10 -10h-63q-77 0 -120 56q-21 -27 -51.5 -41.5t-68.5 -14.5h-63q-10 0 -10 10v110q0 10 10 10zM41 -89h115v-115h-115v115zM208 -89h115v-115h-115v115z" />
    <glyph glyph-name="uniFDFC" unicode="&#xfdfc;" horiz-adv-x="1466" arabic-form="isolated" 
d="M209.5 -139q-71.5 42 -113.5 113.5t-42 155.5v187h123v-180q0 -51 25.5 -94t69 -68.5t93.5 -25.5q52 0 95 25.5t68.5 68.5t25.5 94v533h123v-540q0 -84 -42 -155.5t-113.5 -113.5t-156.5 -42q-84 0 -155.5 42zM834 -89h115v-115h-115v115zM1001 -89h115v-115h-115v115z
M864.5 24.5q-41.5 24.5 -65.5 66t-24 91.5v234q0 40 -5.5 58.5t-19 28.5t-48.5 27q-47 22 -73 37l48 103l24 -12q89 -43 125.5 -67.5t54 -63t17.5 -111.5v-226q0 -25 17 -42.5t42 -17.5h51q10 0 10 -10v-110q0 -10 -10 -10h-52q-50 0 -91.5 24.5zM998 10v110q0 10 10 10h34
q25 0 42 17.5t16 42.5v197h123v-205q0 -50 -24 -91.5t-65.5 -66t-91.5 -24.5h-34q-10 0 -10 10zM1239.5 -108q30.5 24 43 55t12.5 87v323h123v-323q0 -81 -21.5 -133t-71 -92t-142.5 -85l-46 103q72 41 102.5 65z" />
    <glyph glyph-name="uni0622.fina" unicode="&#x622;" horiz-adv-x="287" arabic-form="final" 
d="M143.5 24.5q-41.5 24.5 -65.5 66t-24 91.5v439h123v-431q0 -25 17 -42.5t42 -17.5h51q10 0 10 -10v-110q0 -10 -10 -10h-52q-50 0 -91.5 24.5zM-49.5 770q27.5 26 67.5 26h234v-95h-219q-12 0 -20 -7.5t-8 -19.5v-46h-82v73q0 43 27.5 69z" />
    <glyph glyph-name="uni0623.fina" unicode="&#x623;" horiz-adv-x="287" arabic-form="final" 
d="M143.5 24.5q-41.5 24.5 -65.5 66t-24 91.5v439h123v-431q0 -25 17 -42.5t42 -17.5h51q10 0 10 -10v-110q0 -10 -10 -10h-52q-50 0 -91.5 24.5zM-30 727l93 35q-11 6 -22 18.5t-17 27.5q-5 18 -5 33q0 35 22.5 66t61.5 45l76 26l32 -88l-67 -25q-11 -4 -17 -12.5t-6 -19.5
q0 -15 10 -25t25 -10q10 0 15 2l91 33l32 -88l-292 -107z" />
    <glyph glyph-name="uni0624.fina" unicode="&#x624;" horiz-adv-x="510" arabic-form="final" 
d="M262 -104.5q44 24.5 61.5 48t17.5 56.5h-79v0q-58 0 -106.5 26.5t-76.5 72.5t-28 103t28.5 105.5t77 77t105.5 28.5v0q56 0 102.5 -28.5t73 -77t26.5 -105.5v-151q0 -88 -29 -142.5t-90 -94t-180 -90.5l-38 108q91 39 135 63.5zM341 122v80q0 34 -23 57.5t-56 23.5v0
q-34 0 -57.5 -23t-23.5 -58q0 -34 23.5 -57t57.5 -23v0h79zM455 130h55q10 0 10 -10v-110q0 -10 -10 -10h-55v130zM104 567l92 34q-27 18 -38 47q-6 15 -6 33q0 35 22.5 66t61.5 44l77 27l32 -89l-68 -25q-11 -4 -17 -12.5t-6 -18.5q0 -16 10.5 -26t25.5 -10q7 0 14 3l91 33
l32 -88l-292 -107z" />
    <glyph glyph-name="uni0625.fina" unicode="&#x625;" horiz-adv-x="287" arabic-form="final" 
d="M143.5 24.5q-41.5 24.5 -65.5 66t-24 91.5v487h123v-479q0 -25 17 -42.5t42 -17.5h51q10 0 10 -10v-110q0 -10 -10 -10h-52q-50 0 -91.5 24.5zM-25 -303l92 34q-27 18 -38 47q-6 16 -6 33q0 35 23 66t61 44l77 27l32 -88l-67 -25q-11 -5 -17.5 -13.5t-6.5 -18.5
q0 -16 10.5 -26t25.5 -10q8 0 15 3l91 33l32 -88l-293 -107z" />
    <glyph glyph-name="uni0626.fina" unicode="&#x626;" horiz-adv-x="757" arabic-form="final" 
d="M175 -218.5q-56 32.5 -88.5 88.5t-32.5 122v231h123v-225q0 -49 35 -84t85 -35h228q25 0 43 17.5t18 42.5t-18 43t-43 18h-181v106h178q54 0 97.5 -20t69 -58t25.5 -89q0 -52 -25.5 -95.5t-69.5 -69t-97 -25.5h-225q-66 0 -122 32.5zM324 130h433q10 0 10 -10v-110
q0 -10 -10 -10h-433v130zM54 388l93 34q-27 17 -39 47q-5 18 -5 33q0 35 22.5 66t60.5 44l77 27l32 -88l-67 -25q-23 -9 -23 -32q0 -15 10.5 -25.5t24.5 -10.5q8 0 15 3l91 33l32 -88l-292 -107z" />
    <glyph glyph-name="uni0626.init" unicode="&#x626;" horiz-adv-x="322" arabic-form="initial" 
d="M-10 10v110q0 10 10 10h82q24 0 41.5 17.5t17.5 42.5v197h123v-205q0 -50 -24 -91.5t-65.5 -66t-91.5 -24.5h-83q-10 0 -10 10zM-20 549l93 34q-27 18 -38 47q-6 17 -6 33q0 35 22.5 66t61.5 44l76 27l32 -88l-67 -25q-11 -5 -17 -13.5t-6 -18.5q0 -15 10.5 -25.5
t24.5 -10.5q8 0 15 3l91 33l32 -88l-292 -107z" />
    <glyph glyph-name="uni0626.medi" unicode="&#x626;" horiz-adv-x="366" arabic-form="medial" 
d="M-10 10v110q0 10 10 10h63q25 0 41.5 17t16.5 42v168h123v-168q0 -25 17 -42t42 -17h63q10 0 10 -10v-110q0 -10 -10 -10h-63q-77 0 -120 56q-21 -27 -51.5 -41.5t-68.5 -14.5h-63q-10 0 -10 10zM20 520l93 35q-11 6 -22 18.5t-17 27.5q-5 14 -5 33q0 35 22.5 66t60.5 45
l77 26l32 -88l-67 -25q-11 -4 -17 -12.5t-6 -19.5q0 -15 10 -25t25 -10q10 0 15 2l91 33l32 -88l-293 -107z" />
    <glyph glyph-name="uni0627.fina" unicode="&#x627;" horiz-adv-x="287" arabic-form="final" 
d="M143.5 24.5q-41.5 24.5 -65.5 66t-24 91.5v487h123v-479q0 -25 17 -42.5t42 -17.5h51q10 0 10 -10v-110q0 -10 -10 -10h-52q-50 0 -91.5 24.5z" />
    <glyph glyph-name="uni0628.fina" unicode="&#x628;" horiz-adv-x="929" arabic-form="final" 
d="M175 32.5q-56 32.5 -88.5 88.5t-32.5 122v114h123v-107q0 -49 35.5 -84.5t84.5 -35.5h327q34 0 57 23t23 58v146h123v-168q0 -25 16.5 -42t41.5 -17h44q10 0 10 -10v-110q0 -10 -10 -10h-44q-82 0 -125 64q-51 -64 -136 -64h-327q-66 0 -122 32.5zM411 -87h115v-115h-115
v115z" />
    <glyph glyph-name="uni0628.init" unicode="&#x628;" horiz-adv-x="270" arabic-form="initial" 
d="M-10 10v110q0 10 10 10h52q24 0 41 17.5t17 42.5v197h123v-205q0 -50 -24 -91.5t-65.5 -66t-91.5 -24.5h-52q-10 0 -10 10zM0 -87h115v-115h-115v115z" />
    <glyph glyph-name="uni0628.medi" unicode="&#x628;" horiz-adv-x="328" arabic-form="medial" 
d="M-10 10v110q0 10 10 10h44q25 0 42 17t17 42v168h123v-168q0 -25 16.5 -42t41.5 -17h44q10 0 10 -10v-110q0 -10 -10 -10h-44q-77 0 -120 56q-43 -56 -120 -56h-44q-10 0 -10 10zM108 -87h115v-115h-115v115z" />
    <glyph glyph-name="uni0629.fina" unicode="&#x629;" horiz-adv-x="564" arabic-form="final" 
d="M153.5 57.5q-48.5 28.5 -77.5 77t-29 105.5q0 56 28.5 102.5t77.5 73t107 26.5v0h80v62h122v-264q0 -57 -26.5 -105.5t-72.5 -77t-103 -28.5v0q-58 0 -106.5 28.5zM317 182.5q23 23.5 23 57.5v79h-80v0q-35 0 -58 -22.5t-23 -56.5t23.5 -57.5t57.5 -23.5v0q34 0 57 23.5z
M433.5 24.5q-37.5 24.5 -58 66t-20.5 91.5v175h107v-168q0 -25 16.5 -42t41.5 -17h44q10 0 10 -10v-110q0 -10 -10 -10h-44q-49 0 -86.5 24.5zM131 716h115v-115h-115v115zM298 716h115v-115h-115v115z" />
    <glyph glyph-name="uni062A.fina" unicode="&#x62a;" horiz-adv-x="929" arabic-form="final" 
d="M54 357h123v-107q0 -49 35.5 -84.5t84.5 -35.5h327q34 0 57 23t23 58v146h123v-168q0 -25 16.5 -42t41.5 -17h44q10 0 10 -10v-110q0 -10 -10 -10h-44q-82 0 -125 64q-51 -64 -136 -64h-327q-66 0 -122 32.5t-88.5 88.5t-32.5 122v114zM301 472h115v-115h-115v115z
M468 472h115v-115h-115v115z" />
    <glyph glyph-name="uni062A.init" unicode="&#x62a;" horiz-adv-x="315" arabic-form="initial" 
d="M-10 10v110q0 10 10 10h97q24 0 41 17.5t17 42.5v197h123v-205q0 -50 -24 -91.5t-65.5 -66t-91.5 -24.5h-97q-10 0 -10 10zM-5 590h115v-115h-115v115zM162 590h115v-115h-115v115z" />
    <glyph glyph-name="uni062A.medi" unicode="&#x62a;" horiz-adv-x="366" arabic-form="medial" 
d="M0 130h63q25 0 41.5 17t16.5 42v168h123v-168q0 -25 17 -42t42 -17h63q10 0 10 -10v-110q0 -10 -10 -10h-63q-77 0 -120 56q-21 -27 -51.5 -41.5t-68.5 -14.5h-63q-10 0 -10 10v110q0 10 10 10zM42 562h115v-115h-115v115zM209 562h115v-115h-115v115z" />
    <glyph glyph-name="uni062B.fina" unicode="&#x62b;" horiz-adv-x="929" arabic-form="final" 
d="M175 32.5q-56 32.5 -88.5 88.5t-32.5 122v114h123v-107q0 -49 35.5 -84.5t84.5 -35.5h327q34 0 57 23t23 58v146h100v-146q0 -59 -21 -107t-62 -76t-97 -28h-327q-66 0 -122 32.5zM770 52q-42 52 -42 130v175h99v-168q0 -25 16.5 -42t41.5 -17h44q10 0 10 -10v-110
q0 -10 -10 -10h-44q-73 0 -115 52zM302 472h114v-115h-114v115zM468 472h115v-115h-115v115zM386 639h115v-115h-115v115z" />
    <glyph glyph-name="uni062B.init" unicode="&#x62b;" horiz-adv-x="315" arabic-form="initial" 
d="M-10 10v110q0 10 10 10h97q24 0 41 17.5t17 42.5v197h123v-205q0 -50 -24 -91.5t-65.5 -66t-91.5 -24.5h-97q-10 0 -10 10zM-5 590h115v-115h-115v115zM162 590h115v-115h-115v115zM79 757h115v-115h-115v115z" />
    <glyph glyph-name="uni062B.medi" unicode="&#x62b;" horiz-adv-x="366" arabic-form="medial" 
d="M-10 10v110q0 10 10 10h63q25 0 41.5 17t16.5 42v168h123v-168q0 -25 17 -42t42 -17h63q10 0 10 -10v-110q0 -10 -10 -10h-63q-39 0 -70.5 17t-49.5 46q-18 -29 -49.5 -46t-70.5 -17h-63q-10 0 -10 10zM41 561h115v-115h-115v115zM208 561h115v-115h-115v115zM125 727
h115v-114h-115v114z" />
    <glyph glyph-name="uni062C.fina" unicode="&#x62c;" horiz-adv-x="708" arabic-form="final" 
d="M182.5 -289.5q-55.5 32.5 -88 87.5t-32.5 119q0 53 23.5 101.5t65.5 83.5l273 201l-124 60q-22 9 -34 9q-14 0 -28 -7t-25 -17l-71 -78l-86 75l72 86q25 31 61.5 47t76.5 16q27 0 44 -6t38 -16l216 -101q8 -3 17 -3h86v-120h-114l-27 -20v-39q0 -25 16.5 -42t41.5 -17
h124q10 0 10 -10v-110q0 -10 -10 -10h-124q-71 0 -113 38t-43 105v12l-191 -140q-45 -38 -45 -96q0 -49 35 -83.5t84 -34.5h291v-123h-300q-64 0 -119.5 32.5zM331 -15h96v-99h-96v99z" />
    <glyph glyph-name="uni062C.init" unicode="&#x62c;" horiz-adv-x="708" arabic-form="initial" 
d="M-10 10v110q0 10 10 10h199q83 0 137 50l108 97l-152 72q-20 10 -34 10t-28 -7t-25 -18l-85 -95l-86 75l86 104q25 31 61.5 46.5t76.5 15.5q26 0 45 -6t37 -15l216 -101q6 -3 17 -3h98v-120h-105l-162 -151q-45 -41 -102.5 -62.5t-120.5 -21.5h-181q-10 0 -10 10z
M174 -87h113v-115h-113v115z" />
    <glyph glyph-name="uni062C.medi" unicode="&#x62c;" horiz-adv-x="706" arabic-form="medial" 
d="M-10 10v110q0 10 10 10h199q83 0 137 50l108 97l-152 72q-20 10 -34 10t-28 -7t-25 -18l-85 -95l-86 75l86 104q25 31 61.5 46.5t76.5 15.5q26 0 45 -6t37 -15l216 -101q6 -3 17 -3h98v-120h-108l-26 -24v-22q0 -25 17 -42t42 -17h110q10 0 10 -10v-110q0 -10 -10 -10
h-110q-58 0 -97 33t-55 88l-40 -37q-45 -41 -102.5 -62.5t-120.5 -21.5h-181q-10 0 -10 10zM169 -87h114v-115h-114v115z" />
    <glyph glyph-name="uni062D.fina" unicode="&#x62d;" horiz-adv-x="708" arabic-form="final" 
d="M182.5 -289.5q-55.5 32.5 -88 87.5t-32.5 119q0 53 23.5 101.5t65.5 83.5l273 201l-124 60q-22 9 -34 9q-14 0 -28 -7t-25 -17l-71 -78l-86 75l72 86q25 31 61.5 47t76.5 16q27 0 44 -6t38 -16l216 -101q8 -3 17 -3h86v-120h-114l-27 -20v-39q0 -25 16.5 -42t41.5 -17
h124q10 0 10 -10v-110q0 -10 -10 -10h-124q-71 0 -113 38t-43 105v12l-191 -140q-45 -38 -45 -96q0 -49 35 -83.5t84 -34.5h291v-123h-300q-64 0 -119.5 32.5z" />
    <glyph glyph-name="uni062D.init" unicode="&#x62d;" horiz-adv-x="708" arabic-form="initial" 
d="M-10 10v110q0 10 10 10h199q83 0 137 50l108 97l-152 72q-20 10 -34 10t-28 -7t-25 -18l-85 -95l-86 75l86 104q25 31 61.5 46.5t76.5 15.5q26 0 45 -6t37 -15l216 -101q6 -3 17 -3h98v-120h-105l-162 -151q-45 -41 -102.5 -62.5t-120.5 -21.5h-181q-10 0 -10 10z" />
    <glyph glyph-name="uni062D.medi" unicode="&#x62d;" horiz-adv-x="706" arabic-form="medial" 
d="M-10 10v110q0 10 10 10h199q83 0 137 50l108 97l-152 72q-20 10 -34 10t-28 -7t-25 -18l-85 -95l-86 75l86 104q25 31 61.5 46.5t76.5 15.5q26 0 45 -6t37 -15l216 -101q6 -3 17 -3h98v-120h-108l-26 -24v-22q0 -25 17 -42t42 -17h110q10 0 10 -10v-110q0 -10 -10 -10
h-110q-59 0 -98.5 34t-51.5 89l-42 -39q-45 -41 -102.5 -62.5t-120.5 -21.5h-181q-10 0 -10 10z" />
    <glyph glyph-name="uni062E.fina" unicode="&#x62e;" horiz-adv-x="708" arabic-form="final" 
d="M182.5 -289.5q-55.5 32.5 -88 87.5t-32.5 119q0 53 23.5 101.5t65.5 83.5l273 201l-124 60q-22 9 -34 9q-14 0 -28 -7t-25 -17l-71 -78l-86 75l72 86q25 31 61.5 47t76.5 16q27 0 44 -6t38 -16l216 -101q8 -3 17 -3h86v-120h-113l-28 -21v-38q0 -25 16.5 -42t41.5 -17
h124q10 0 10 -10v-110q0 -10 -10 -10h-124q-71 0 -113 38t-43 105v12l-191 -140q-45 -38 -45 -96q0 -49 35 -83.5t84 -34.5h291v-123h-300q-64 0 -119.5 32.5zM207 690h115v-115h-115v115z" />
    <glyph glyph-name="uni062E.init" unicode="&#x62e;" horiz-adv-x="708" arabic-form="initial" 
d="M-10 10v110q0 10 10 10h199q83 0 137 50l108 97l-152 72q-20 10 -34 10t-28 -7t-25 -18l-85 -95l-86 75l86 104q25 31 61.5 46.5t76.5 15.5q26 0 45 -6t37 -15l216 -101q6 -3 17 -3h98v-120h-105l-162 -151q-45 -41 -102.5 -62.5t-120.5 -21.5h-181q-10 0 -10 10z
M201 678h115v-115h-115v115z" />
    <glyph glyph-name="uni062E.medi" unicode="&#x62e;" horiz-adv-x="706" arabic-form="medial" 
d="M-10 10v110q0 10 10 10h199q83 0 137 50l108 97l-152 72q-20 10 -34 10t-28 -7t-25 -18l-85 -95l-86 75l86 104q25 31 61.5 46.5t76.5 15.5q26 0 45 -6t37 -15l216 -101q6 -3 17 -3h98v-120h-105l-29 -27v-19q0 -25 17 -42t42 -17h110q10 0 10 -10v-110q0 -10 -10 -10
h-110q-58 0 -97 33t-55 88l-40 -37q-45 -41 -102.5 -62.5t-120.5 -21.5h-181q-10 0 -10 10zM316 563h-115v115h115v-115z" />
    <glyph glyph-name="uni062F.fina" unicode="&#x62f;" horiz-adv-x="556" arabic-form="final" 
d="M51 130h234q25 0 42.5 15t17.5 40q0 7 -6 27l-92 253l116 44l120 -332q9 -22 25 -34.5t39 -12.5h9q10 0 10 -10v-110q0 -10 -10 -10h-15q-41 0 -74 18t-48 44q-29 -33 -59.5 -47.5t-74.5 -14.5h-234v130z" />
    <glyph glyph-name="uni0630.fina" unicode="&#x630;" horiz-adv-x="556" arabic-form="final" 
d="M51 130h234q25 0 42.5 15t17.5 40q0 7 -6 27l-92 253l116 44l120 -332q8 -22 24.5 -34.5t39.5 -12.5h9q10 0 10 -10v-110q0 -10 -10 -10h-15q-41 0 -74 18t-48 44q-29 -33 -59.5 -47.5t-74.5 -14.5h-234v130zM247 693h115v-115h-115v115z" />
    <glyph glyph-name="uni0631.fina" unicode="&#x631;" horiz-adv-x="344" arabic-form="final" 
d="M62.5 -108q30.5 24 43 55t12.5 87v323h123v-323q0 -81 -21.5 -133t-71 -92t-142.5 -85l-46 103q72 41 102.5 65zM190.5 51q-36.5 51 -36.5 131v175h87v-168q0 -25 17 -42t42 -17h44q10 0 10 -10v-110q0 -10 -10 -10h-44q-73 0 -109.5 51z" />
    <glyph glyph-name="uni0632.fina" unicode="&#x632;" horiz-adv-x="344" arabic-form="final" 
d="M62.5 -108q30.5 24 43 55t12.5 87v323h123v-323q0 -81 -21.5 -133t-71 -92t-142.5 -85l-46 103q72 41 102.5 65zM190.5 51q-36.5 51 -36.5 131v175h87v-168q0 -25 17 -42t42 -17h44q10 0 10 -10v-110q0 -10 -10 -10h-44q-73 0 -109.5 51zM122 561h115v-115h-115v115z" />
    <glyph glyph-name="uni0633.fina" unicode="&#x633;" horiz-adv-x="1262" arabic-form="final" 
d="M209.5 -139q-71.5 42 -113.5 113.5t-42 155.5v187h123v-180q0 -51 25.5 -94t69 -68.5t93.5 -25.5q52 0 95 25.5t68.5 68.5t25.5 94v220h119v-227q0 -84 -41 -155.5t-111.5 -113.5t-155.5 -42q-84 0 -155.5 42zM635 47.5q-31 49.5 -31 132.5v177h75v-170q0 -25 16.5 -42
t41.5 -17t42 17t17 42v170h99v-177q0 -78 -42 -130t-116 -52q-71 0 -102 49.5zM862 50q-42 52 -42 130v177h99v-170q0 -25 17 -42t42 -17t41.5 17t16.5 42v200h100v-207q0 -78 -42.5 -130t-115.5 -52q-74 0 -116 52zM1103 52q-42 52 -42 130v205h98v-198q0 -25 17 -42
t42 -17h44q10 0 10 -10v-110q0 -10 -10 -10h-44q-73 0 -115 52z" />
    <glyph glyph-name="uni0633.init" unicode="&#x633;" horiz-adv-x="729" arabic-form="initial" 
d="M409 52q-42 52 -42 130v175h99v-168q0 -25 17 -42t41 -17h46v257h123v-387h-169q-73 0 -115 52zM-10 10v110q0 10 10 10h44q25 0 42 17t17 42v168h98v-175q0 -78 -42 -130t-115 -52h-44q-10 0 -10 10zM168.5 50q-42.5 52 -42.5 130v177h100v-170q0 -25 16.5 -42t41.5 -17
t42 17t17 42v170h99v-177q0 -78 -42 -130t-116 -52q-73 0 -115.5 52z" />
    <glyph glyph-name="uni0633.medi" unicode="&#x633;" horiz-adv-x="809" arabic-form="medial" 
d="M409 50q-42 52 -42 130v177h99v-170q0 -25 17 -42t42 -17t41.5 17t16.5 42v200h99v-207q0 -78 -42 -130t-115 -52q-74 0 -116 52zM-10 10v110q0 10 10 10h44q25 0 42 17t17 42v168h98v-175q0 -78 -42 -130t-115 -52h-44q-10 0 -10 10zM168.5 50q-42.5 52 -42.5 130v177
h100v-170q0 -25 16.5 -42t41.5 -17t42 17t17 42v170h99v-177q0 -78 -42 -130t-116 -52q-73 0 -115.5 52zM649 52q-42 52 -42 130v205h99v-198q0 -25 17 -42t42 -17h44q10 0 10 -10v-110q0 -10 -10 -10h-44q-74 0 -116 52z" />
    <glyph glyph-name="uni0634.fina" unicode="&#x634;" horiz-adv-x="1262" arabic-form="final" 
d="M209.5 -139q-71.5 42 -113.5 113.5t-42 155.5v187h123v-180q0 -51 25.5 -94t69 -68.5t93.5 -25.5q52 0 95 25.5t68.5 68.5t25.5 94v220h119v-227q0 -84 -41 -155.5t-111.5 -113.5t-155.5 -42q-84 0 -155.5 42zM635 47.5q-31 49.5 -31 132.5v177h75v-170q0 -25 16.5 -42
t41.5 -17t42 17t17 42v170h99v-177q0 -78 -42 -130t-116 -52q-71 0 -102 49.5zM862 50q-42 52 -42 130v177h99v-170q0 -25 17 -42t42 -17t41.5 17t16.5 42v200h100v-207q0 -78 -42.5 -130t-115.5 -52q-74 0 -116 52zM1103 52q-42 52 -42 130v205h98v-198q0 -25 17 -42
t42 -17h44q10 0 10 -10v-110q0 -10 -10 -10h-44q-73 0 -115 52zM717 558h115v-115h-115v115zM884 558h115v-115h-115v115zM801 724h115v-115h-115v115z" />
    <glyph glyph-name="uni0634.init" unicode="&#x634;" horiz-adv-x="729" arabic-form="initial" 
d="M409 52q-42 52 -42 130v175h99v-168q0 -25 17 -42t41 -17h46v257h123v-387h-169q-73 0 -115 52zM-10 10v110q0 10 10 10h44q25 0 42 17t17 42v168h98v-175q0 -78 -42 -130t-115 -52h-44q-10 0 -10 10zM168.5 50q-42.5 52 -42.5 130v177h100v-170q0 -25 16.5 -42t41.5 -17
t42 17t17 42v170h99v-177q0 -78 -42 -130t-116 -52q-73 0 -115.5 52zM263 555h115v-115h-115v115zM430 555h115v-115h-115v115zM347 721h115v-115h-115v115z" />
    <glyph glyph-name="uni0634.medi" unicode="&#x634;" horiz-adv-x="809" arabic-form="medial" 
d="M409 50q-42 52 -42 130v177h99v-170q0 -25 17 -42t42 -17t41.5 17t16.5 42v200h99v-207q0 -78 -42 -130t-115 -52q-74 0 -116 52zM-10 10v110q0 10 10 10h44q25 0 42 17t17 42v168h98v-175q0 -78 -42 -130t-115 -52h-44q-10 0 -10 10zM168.5 50q-42.5 52 -42.5 130v177
h100v-170q0 -25 16.5 -42t41.5 -17t42 17t17 42v170h99v-177q0 -78 -42 -130t-116 -52q-73 0 -115.5 52zM649 52q-42 52 -42 130v205h99v-198q0 -25 17 -42t42 -17h44q10 0 10 -10v-110q0 -10 -10 -10h-44q-74 0 -116 52zM263 555h115v-115h-115v115zM430 555h115v-115h-115
v115zM347 721h115v-115h-115v115z" />
    <glyph glyph-name="uni0635.fina" unicode="&#x635;" horiz-adv-x="1347" arabic-form="final" 
d="M209.5 -139q-71.5 42 -113.5 113.5t-42 155.5v187h124v-180q0 -51 25.5 -94t68.5 -68.5t93 -25.5q52 0 95.5 25.5t69 68.5t25.5 94v220h119v-227q0 -84 -41 -155.5t-112 -113.5t-156 -42q-84 0 -155.5 42zM677.5 32q-47.5 32 -72.5 86.5t-25 120.5v118h99v-135
q0 -38 26.5 -65t64.5 -27h262q35 0 60.5 25.5t25.5 60.5q0 37 -25.5 63.5t-62.5 26.5q-16 0 -33.5 -6.5t-43.5 -23.5l-280 -167l-44 112l272 162q39 23 66.5 33.5t64.5 10.5q58 0 106.5 -29t77.5 -77.5t29 -106.5t-29 -107t-78 -78t-107 -29h-243q-63 0 -110.5 32zM1188 52
q-42 52 -42 130v30h99v-23q0 -25 16.5 -42t41.5 -17h44q10 0 10 -10v-110q0 -10 -10 -10h-44q-73 0 -115 52z" />
    <glyph glyph-name="uni0635.init" unicode="&#x635;" horiz-adv-x="828" arabic-form="initial" 
d="M223.5 32q-47.5 32 -72.5 86.5t-25 120.5v118h100v-135q0 -38 26.5 -65t63.5 -27h263q35 0 60 25.5t25 60.5q0 37 -25 63.5t-63 26.5q-15 0 -32.5 -6.5t-44.5 -23.5l-279 -167l-44 112l271 162q39 23 67 33.5t65 10.5q58 0 106.5 -29t77 -77.5t28.5 -106.5t-29 -107
t-77.5 -78t-106.5 -29h-244q-63 0 -110.5 32zM-10 10v110q0 10 10 10h44q25 0 42 17t17 42v168h98v-175q0 -78 -42 -130t-115 -52h-44q-10 0 -10 10z" />
    <glyph glyph-name="uni0635.medi" unicode="&#x635;" horiz-adv-x="894" arabic-form="medial" 
d="M223.5 32q-47.5 32 -72.5 86.5t-25 120.5v118h100v-135q0 -38 26.5 -65t63.5 -27h263q35 0 60 25.5t25 60.5q0 37 -25 63.5t-63 26.5q-15 0 -32.5 -6.5t-44.5 -23.5l-279 -167l-44 112l271 162q39 23 67 33.5t65 10.5q58 0 106.5 -29t77 -77.5t28.5 -106.5t-29 -107
t-77.5 -78t-106.5 -29h-244q-63 0 -110.5 32zM-10 10v110q0 10 10 10h44q25 0 42 17t17 42v168h98v-175q0 -78 -42 -130t-115 -52h-44q-10 0 -10 10zM734 52q-42 52 -42 130v30h99v-23q0 -25 17 -42t42 -17h44q10 0 10 -10v-110q0 -10 -10 -10h-44q-74 0 -116 52z" />
    <glyph glyph-name="uni0636.fina" unicode="&#x636;" horiz-adv-x="1347" arabic-form="final" 
d="M209.5 -139q-71.5 42 -113.5 113.5t-42 155.5v187h124v-180q0 -51 25.5 -94t68.5 -68.5t93 -25.5q52 0 95.5 25.5t69 68.5t25.5 94v220h119v-227q0 -84 -41 -155.5t-112 -113.5t-156 -42q-84 0 -155.5 42zM677.5 32q-47.5 32 -72.5 86.5t-25 120.5v118h99v-135
q0 -38 26.5 -65t64.5 -27h262q35 0 60.5 25.5t25.5 60.5q0 37 -25.5 63t-60.5 26q-18 0 -37 -6t-45 -20l-279 -166l-42 108l289 173q53 33 114 33q58 0 106.5 -29t77.5 -77.5t29 -106.5t-29 -107t-78 -78t-107 -29h-243q-63 0 -110.5 32zM1188 52q-42 52 -42 130v30h99v-23
q0 -25 16.5 -42t41.5 -17h44q10 0 10 -10v-110q0 -10 -10 -10h-44q-73 0 -115 52zM974 625h115v-115h-115v115z" />
    <glyph glyph-name="uni0636.init" unicode="&#x636;" horiz-adv-x="828" arabic-form="initial" 
d="M223.5 32q-47.5 32 -72.5 86.5t-25 120.5v118h100v-135q0 -38 26.5 -65t63.5 -27h263q35 0 60 25.5t25 60.5q0 37 -25 63.5t-63 26.5q-15 0 -32 -6.5t-45 -23.5l-279 -167l-44 112l271 162q39 23 67 33.5t65 10.5q58 0 106.5 -29t77 -77.5t28.5 -106.5t-29 -107
t-77.5 -78t-106.5 -29h-244q-63 0 -110.5 32zM-10 10v110q0 10 10 10h44q25 0 42 17t17 42v168h98v-175q0 -78 -42 -130t-115 -52h-44q-10 0 -10 10zM520 625h115v-115h-115v115z" />
    <glyph glyph-name="uni0636.medi" unicode="&#x636;" horiz-adv-x="894" arabic-form="medial" 
d="M223.5 32q-47.5 32 -72.5 86.5t-25 120.5v118h100v-135q0 -38 26.5 -65t63.5 -27h263q36 0 60.5 26t24.5 63q0 40 -26 68t-64 28q-16 0 -34.5 -7t-46.5 -25l-292 -174l-25 112l271 162q39 23 67 33.5t65 10.5q58 0 106.5 -29t77 -77.5t28.5 -106.5t-29 -107t-77.5 -78
t-106.5 -29h-244q-63 0 -110.5 32zM-10 10v110q0 10 10 10h44q25 0 42 17t17 42v168h98v-175q0 -78 -42 -130t-115 -52h-44q-10 0 -10 10zM734 52q-42 52 -42 130v30h99v-23q0 -25 17 -42t42 -17h44q10 0 10 -10v-110q0 -10 -10 -10h-44q-74 0 -116 52zM520 625h115v-115
h-115v115z" />
    <glyph glyph-name="uni0637.fina" unicode="&#x637;" horiz-adv-x="747" arabic-form="final" 
d="M48 130h384q35 0 60.5 25.5t25.5 60.5q0 37 -25.5 63t-62.5 26q-16 0 -33.5 -6.5t-43.5 -23.5l-232 -136l-57 103l237 141q39 23 66.5 33.5t64.5 10.5q58 0 106.5 -29t77.5 -77.5t29 -106.5t-29 -107t-78 -78t-107 -29h-383v130zM165 320q6 21 6 51v298h123v-197
q0 -43 -8 -74.5t-21 -43.5l-124 -66q18 11 24 32zM587.5 52q-42.5 52 -42.5 130v32h100v-25q0 -25 16.5 -42t41.5 -17h44q10 0 10 -10v-110q0 -10 -10 -10h-44q-73 0 -115.5 52z" />
    <glyph glyph-name="uni0637.init" unicode="&#x637;" horiz-adv-x="667" arabic-form="initial" 
d="M-10 10v110q0 10 10 10h418q35 0 60 25.5t25 60.5q0 37 -25 63t-63 26q-15 0 -32.5 -6.5t-44.5 -23.5l-244 -145l-45 112l237 141q39 23 67 33.5t65 10.5q58 0 106.5 -29t77 -77.5t28.5 -106.5t-29 -107t-78 -78t-106 -29h-417q-10 0 -10 10zM151 320q6 21 6 51v298h123
v-197q0 -87 -24 -111l-130 -73q19 11 25 32z" />
    <glyph glyph-name="uni0637.medi" unicode="&#x637;" horiz-adv-x="732" arabic-form="medial" 
d="M-10 10v110q0 10 10 10h418q35 0 60 25.5t25 60.5q0 37 -25 63t-63 26q-15 0 -32.5 -6.5t-44.5 -23.5l-244 -145l-45 112l237 141q39 23 67 33.5t65 10.5q58 0 106.5 -29t77 -77.5t28.5 -106.5t-29 -107t-78 -78t-106 -29h-417q-10 0 -10 10zM151 320q6 21 6 51v298h123
v-197q0 -87 -24 -111l-130 -73q19 11 25 32zM573 52q-42 52 -42 130v32h99v-25q0 -25 17 -42t42 -17h43q10 0 10 -10v-110q0 -10 -10 -10h-43q-74 0 -116 52z" />
    <glyph glyph-name="uni0638.fina" unicode="&#x638;" horiz-adv-x="747" arabic-form="final" 
d="M48 130h384q35 0 60.5 25.5t25.5 60.5q0 37 -25.5 63t-62.5 26q-16 0 -33.5 -6.5t-43.5 -23.5l-245 -145l-44 112l237 141q39 23 66.5 33.5t64.5 10.5q58 0 106.5 -29t77.5 -77.5t29 -106.5t-29 -107t-78 -78t-107 -29h-383v130zM165 320q6 21 6 51v298h123v-197
q0 -88 -24 -111l-129 -73q18 11 24 32zM587.5 52q-42.5 52 -42.5 130v32h100v-25q0 -25 16.5 -42t41.5 -17h44q10 0 10 -10v-110q0 -10 -10 -10h-44q-73 0 -115.5 52zM385 625h115v-115h-115v115z" />
    <glyph glyph-name="uni0638.init" unicode="&#x638;" horiz-adv-x="667" arabic-form="initial" 
d="M-10 10v110q0 10 10 10h418q35 0 60 25.5t25 60.5q0 37 -25 63t-63 26q-15 0 -32.5 -6.5t-44.5 -23.5l-244 -145l-45 112l237 141q39 23 67 33.5t65 10.5q58 0 106.5 -29t77 -77.5t28.5 -106.5t-29 -107t-78 -78t-106 -29h-417q-10 0 -10 10zM151 320q6 21 6 51v298h123
v-197q0 -87 -24 -111l-130 -73q19 11 25 32zM372 625h115v-115h-115v115z" />
    <glyph glyph-name="uni0638.medi" unicode="&#x638;" horiz-adv-x="732" arabic-form="medial" 
d="M-10 10v110q0 10 10 10h418q35 0 60 25.5t25 60.5q0 37 -25 63t-63 26q-15 0 -32.5 -6.5t-44.5 -23.5l-244 -145l-45 112l237 141q39 23 67 33.5t65 10.5q58 0 106.5 -29t77 -77.5t28.5 -106.5t-29 -107t-78 -78t-106 -29h-417q-10 0 -10 10zM151 320q6 21 6 51v298h123
v-197q0 -87 -24 -111l-130 -73q19 11 25 32zM573 52q-42 52 -42 130v32h99v-25q0 -25 17 -42t42 -17h43q10 0 10 -10v-110q0 -10 -10 -10h-43q-74 0 -116 52zM371 625h115v-115h-115v115z" />
    <glyph glyph-name="uni0639.fina" unicode="&#x639;" horiz-adv-x="630" arabic-form="final" 
d="M193 -398q-65 38 -103 102.5t-38 141.5q0 70 33 125.5t89.5 89t127.5 41.5q7 1 16 14q10 14 16 14h296q10 0 10 -10v-110q0 -10 -10 -10h-296q-41 0 -76 -20.5t-55.5 -56t-20.5 -76.5q0 -42 20.5 -77t55.5 -55.5t76 -20.5h182v-130h-182q-76 0 -141 38zM544 121.5
q-26 -44.5 -72 -69.5t-104 -25h-50q-58 0 -104 25t-72 69.5t-26 101.5v65h-60v123h262h50h202v-188q0 -57 -26 -101.5zM448 288h-80h-50h-80v-77q0 -35 23 -58t57 -23h50q34 0 57 23t23 58v77z" />
    <glyph glyph-name="uni0639.init" unicode="&#x639;" horiz-adv-x="471" arabic-form="initial" 
d="M172 50.5q-52 24.5 -82 69.5t-30 103q0 60 30.5 109.5t82 77.5t113.5 28h110v-121h-110q-41 0 -68.5 -26.5t-27.5 -66.5q0 -42 27 -68t69 -26v-104q-62 0 -114 24.5zM-10 10v110q0 10 10 10h434v-130h-434q-10 0 -10 10z" />
    <glyph glyph-name="uni0639.medi" unicode="&#x639;" horiz-adv-x="627" arabic-form="medial" 
d="M535 121.5q-26 -44.5 -72 -69.5t-103 -25h-50q-58 0 -104 25t-72 69.5t-26 101.5v65h-61v123h263h50h201v-188q0 -57 -26 -101.5zM-10 10v110q0 10 10 10h627q10 0 10 -10v-110q0 -10 -10 -10h-627q-10 0 -10 10zM439 288h-79h-50h-80v-77q0 -35 23 -58t57 -23h50
q34 0 56.5 23t22.5 58v77z" />
    <glyph glyph-name="uni063A.fina" unicode="&#x63a;" horiz-adv-x="630" arabic-form="final" 
d="M193 -398q-65 38 -103 102.5t-38 141.5q0 70 33 125.5t89.5 89t127.5 41.5q7 1 16 14q10 14 16 14h296q10 0 10 -10v-110q0 -10 -10 -10h-296q-41 0 -76 -20.5t-55.5 -56t-20.5 -76.5q0 -42 20.5 -77t55.5 -55.5t76 -20.5h182v-130h-182q-76 0 -141 38zM214 52
q-46 25 -72 69.5t-26 101.5v65h-60v123h262h50h202v-188q0 -57 -26 -101.5t-72 -69.5t-104 -25h-50q-58 0 -104 25zM425 153q23 23 23 58v77h-80h-50h-80v-77q0 -35 23 -58t57 -23h50q34 0 57 23zM280 614h115v-115h-115v115z" />
    <glyph glyph-name="uni063A.init" unicode="&#x63a;" horiz-adv-x="471" arabic-form="initial" 
d="M218 635h115v-115h-115v115zM172 50.5q-52 24.5 -82 69.5t-30 103q0 60 30.5 109.5t82 77.5t113.5 28h110v-121h-110q-41 0 -68.5 -26.5t-27.5 -66.5q0 -42 27 -68t69 -26v-104q-62 0 -114 24.5zM-10 10v110q0 10 10 10h434v-130h-434q-10 0 -10 10z" />
    <glyph glyph-name="uni063A.medi" unicode="&#x63a;" horiz-adv-x="627" arabic-form="medial" 
d="M206 52q-46 25 -72 69.5t-26 101.5v65h-61v123h263h50h201v-188q0 -57 -26 -101.5t-72 -69.5t-103 -25h-50q-58 0 -104 25zM-10 10v110q0 10 10 10h627q10 0 10 -10v-110q0 -10 -10 -10h-627q-10 0 -10 10zM416.5 153q22.5 23 22.5 58v77h-79h-50h-80v-77q0 -35 23 -58
t57 -23h50q34 0 56.5 23zM278 614h115v-115h-115v115z" />
    <glyph glyph-name="uni0641.fina" unicode="&#x641;" horiz-adv-x="886" arabic-form="final" 
d="M589 616h115v-115h-115v115zM175 32.5q-56 32.5 -88.5 88.5t-32.5 122v114h123v-107q0 -49 35.5 -84.5t84.5 -35.5h589q10 0 10 -10v-110q0 -10 -10 -10h-589q-66 0 -122 32.5zM829.5 109q-28.5 -46 -76.5 -72t-106 -26v0q-58 0 -106 26t-76.5 72t-28.5 104t28.5 105
t77 74t105.5 27v0q57 0 105.5 -27t77 -74t28.5 -105t-28.5 -104zM704.5 266q-23.5 23 -57.5 23v0q-34 0 -57.5 -23t-23.5 -57t23 -56.5t58 -22.5v0q34 0 57.5 22.5t23.5 56.5t-23.5 57z" />
    <glyph glyph-name="uni0641.init" unicode="&#x641;" horiz-adv-x="460" arabic-form="initial" 
d="M-10 10v110q0 10 10 10h242q25 0 42 16.5t17 41.5v14h-62v0q-53 0 -97.5 24.5t-70.5 66.5t-26 94q0 53 26.5 98t71 71.5t96.5 26.5v0q52 0 94 -26t66.5 -71t24.5 -99v-206q0 -49 -24 -90.5t-65.5 -66t-91.5 -24.5h-243q-10 0 -10 10zM308 317v74q0 31 -21.5 52t-51.5 21
v0q-32 0 -53 -21t-21 -52q0 -32 21 -53t53 -21v0h73zM182 780h115v-115h-115v115z" />
    <glyph glyph-name="uni0641.medi" unicode="&#x641;" horiz-adv-x="506" arabic-form="medial" 
d="M70 318q28 47 76.5 74t106.5 27v0q57 0 105.5 -27t77 -74t28.5 -105t-28.5 -104t-76.5 -72t-106 -26v0q-58 0 -106.5 26t-76.5 72t-28 104t28 105zM-10 10v110q0 10 10 10h506q10 0 10 -10v-110q0 -10 -10 -10h-506q-10 0 -10 10zM195 152.5q23 -22.5 58 -22.5v0
q35 0 58 22.5t23 56.5t-23.5 57t-57.5 23v0q-34 0 -57.5 -23t-23.5 -57t23 -56.5zM196 616h115v-115h-115v115z" />
    <glyph glyph-name="uni0642.fina" unicode="&#x642;" horiz-adv-x="721" arabic-form="final" 
d="M209.5 -273q-71.5 42 -113.5 113.5t-42 155.5v187h123v-180q0 -51 25.5 -94t69 -68.5t93.5 -25.5q52 0 95 25.5t68.5 68.5t25.5 94v-3h-79v0q-58 0 -106.5 26.5t-77 72.5t-28.5 103t28.5 105.5t77 77t106.5 28.5v0q56 0 102 -28.5t72.5 -77t26.5 -105.5v-206
q0 -84 -41.5 -155.5t-113 -113.5t-156.5 -42q-84 0 -155.5 42zM555 130v79q0 34 -23.5 57.5t-56.5 23.5v0q-35 0 -58.5 -23.5t-23.5 -57.5t23.5 -56.5t58.5 -22.5v0h80zM676 130h45q10 0 10 -10v-110q0 -10 -10 -10h-45v130zM334 616h115v-115h-115v115zM501 616h115v-115
h-115v115z" />
    <glyph glyph-name="uni0642.init" unicode="&#x642;" horiz-adv-x="460" arabic-form="initial" 
d="M-10 10v110q0 10 10 10h242q25 0 42 16.5t17 41.5v14h-62v0q-53 0 -97.5 24.5t-70.5 66.5t-26 94q0 53 26.5 98t71 71.5t96.5 26.5v0q52 0 94 -26t66.5 -71t24.5 -99v-206q0 -49 -24 -90.5t-65.5 -66t-91.5 -24.5h-243q-10 0 -10 10zM308 317v74q0 31 -21.5 52t-51.5 21
v0q-32 0 -53 -21t-21 -52q0 -32 21 -53t53 -21v0h73zM98 787h115v-115h-115v115zM265 787h115v-115h-115v115z" />
    <glyph glyph-name="uni0642.medi" unicode="&#x642;" horiz-adv-x="476" arabic-form="medial" 
d="M56.5 318q28.5 47 77 74t105.5 27v0q57 0 105.5 -27t77 -74t28.5 -105t-28.5 -104t-76.5 -72t-106 -26v0q-58 0 -106 26t-76.5 72t-28.5 104t28.5 105zM-10 10v110q0 10 10 10h476q10 0 10 -10v-110q0 -10 -10 -10h-476q-10 0 -10 10zM181 152.5q23 -22.5 58 -22.5v0
q35 0 58 22.5t23 56.5t-23.5 57t-57.5 23v0q-34 0 -57.5 -23t-23.5 -57t23 -56.5zM97 622h115v-115h-115v115zM264 622h115v-115h-115v115z" />
    <glyph glyph-name="uni0643.fina" unicode="&#x643;" horiz-adv-x="929" arabic-form="final" 
d="M175 32.5q-56 32.5 -88.5 88.5t-32.5 122v114h123v-107q0 -49 35.5 -84.5t84.5 -35.5h327q34 0 57 23t23 58v443h124v-443q0 -57 -27 -105.5t-73.5 -77t-103.5 -28.5h-327q-66 0 -122 32.5zM770 52q-42 52 -42 130v472h99v-465q0 -25 16.5 -42t41.5 -17h44q10 0 10 -10
v-110q0 -10 -10 -10h-44q-73 0 -115 52zM332 340l130 47q19 8 19 25q0 22 -22 26l-133 34l-33 59l192 140l41 -70l-97 -70l38 -9q73 -19 89 -70q7 -20 7 -42q0 -37 -20.5 -66.5t-56.5 -42.5l-123 -46z" />
    <glyph glyph-name="uni0643.init" unicode="&#x643;" horiz-adv-x="459" arabic-form="initial" 
d="M0 130h223q31 0 53.5 21.5t22.5 55.5q0 42 -40 66l-230 152v96l196 209l85 -80l-154 -161l180 -119q41 -27 64 -70t23 -96q0 -55 -27 -102t-73.5 -74.5t-101.5 -27.5h-221q-10 0 -10 10v110q0 10 10 10z" />
    <glyph glyph-name="uni0643.medi" unicode="&#x643;" horiz-adv-x="525" arabic-form="medial" 
d="M-10 10v110q0 10 10 10h223q31 0 53.5 21.5t22.5 55.5q0 42 -40 66l-230 152v96l196 209l85 -80l-154 -161l180 -119q41 -27 64 -70t23 -96q0 -55 -27 -102t-73.5 -74.5t-101.5 -27.5h-221q-10 0 -10 10zM366 52q-42 52 -42 130v22h99v-15q0 -25 16.5 -42t41.5 -17h44
q10 0 10 -10v-110q0 -10 -10 -10h-44q-73 0 -115 52z" />
    <glyph glyph-name="uni0644.fina" unicode="&#x644;" horiz-adv-x="781" arabic-form="final" 
d="M209.5 -139q-71.5 42 -113.5 113.5t-42 155.5v187h123v-180q0 -51 25.5 -94t69 -68.5t93.5 -25.5q52 0 95 25.5t68.5 68.5t25.5 94v533h120v-540q0 -84 -41 -155.5t-112 -113.5t-156 -42q-84 0 -155.5 42zM635.5 49.5q-30.5 49.5 -30.5 132.5v487h74v-480q0 -25 16.5 -42
t41.5 -17h44q10 0 10 -10v-110q0 -10 -10 -10h-44q-71 0 -101.5 49.5z" />
    <glyph glyph-name="uni0644.init" unicode="&#x644;" horiz-adv-x="264" arabic-form="initial" 
d="M-10 10v110q0 10 10 10h38q25 0 42 17.5t17 42.5v479h123v-487q0 -50 -24 -91.5t-65.5 -66t-91.5 -24.5h-39q-10 0 -10 10z" />
    <glyph glyph-name="uni0644.medi" unicode="&#x644;" horiz-adv-x="328" arabic-form="medial" 
d="M-10 10v110q0 10 10 10h44q25 0 42 17t17 42v480h123v-480q0 -25 16.5 -42t41.5 -17h44q10 0 10 -10v-110q0 -10 -10 -10h-44q-39 0 -70 16.5t-50 45.5q-19 -29 -50 -45.5t-70 -16.5h-44q-10 0 -10 10z" />
    <glyph glyph-name="uni0645.fina" unicode="&#x645;" horiz-adv-x="791" arabic-form="final" 
d="M80 313.5q26 44.5 70.5 71t97.5 26.5h229v0q58 0 106.5 -26.5t76.5 -73t28 -102.5q0 -57 -28.5 -105.5t-77 -77t-105.5 -28.5v0q-57 0 -103 28.5t-72.5 77t-26.5 105.5v79h-26q-29 0 -50.5 -21.5t-21.5 -50.5v-466h-123v466q0 53 26 97.5zM535 151.5q23 23.5 23 57.5
t-23.5 57t-57.5 23v0h-80v-80q0 -34 23 -57.5t57 -23.5v0q35 0 58 23.5zM631 52q-42 52 -42 130v27h99v-20q0 -25 17 -42t42 -17h44q10 0 10 -10v-110q0 -10 -10 -10h-44q-74 0 -116 52z" />
    <glyph glyph-name="uni0645.init" unicode="&#x645;" horiz-adv-x="570" arabic-form="initial" 
d="M219.5 26.5q-46.5 28.5 -72.5 76.5t-26 106v79h-61v123h263v0q57 0 105.5 -26.5t77 -73t28.5 -102.5q0 -57 -28.5 -105.5t-77 -77t-105.5 -28.5v0q-57 0 -103.5 28.5zM-10 10v110q0 10 10 10h62q25 0 42 17t17 42v78h99v-85q0 -78 -42 -130t-116 -52h-62q-10 0 -10 10z
M381 151.5q23 23.5 23 57.5t-23 56.5t-58 22.5v0h-80v-79q0 -35 23 -58t57 -23v0q35 0 58 23.5z" />
    <glyph glyph-name="uni0645.medi" unicode="&#x645;" horiz-adv-x="636" arabic-form="medial" 
d="M219.5 26.5q-46.5 28.5 -72.5 76.5t-26 106v79h-61v123h263v0q57 0 105.5 -26.5t77 -73t28.5 -102.5q0 -57 -28.5 -105.5t-77 -77t-105.5 -28.5v0q-57 0 -103.5 28.5zM-10 10v110q0 10 10 10h62q25 0 42 17t17 42v82h99v-89q0 -78 -42 -130t-116 -52h-62q-10 0 -10 10z
M381 151.5q23 23.5 23 57.5t-23 56.5t-58 22.5v0h-80v-79q0 -35 23 -58t57 -23v0q35 0 58 23.5zM477 52q-42 52 -42 130v27h99v-20q0 -25 16.5 -42t41.5 -17h44q10 0 10 -10v-110q0 -10 -10 -10h-44q-73 0 -115 52z" />
    <glyph glyph-name="uni0646.fina" unicode="&#x646;" horiz-adv-x="781" arabic-form="final" 
d="M209.5 -139q-71.5 42 -113.5 113.5t-42 155.5v187h123v-180q0 -51 25.5 -94t69 -68.5t93.5 -25.5q52 0 95 25.5t68.5 68.5t25.5 94v220h119v-227q0 -84 -41 -155.5t-111.5 -113.5t-155.5 -42q-84 0 -155.5 42zM306 438h115v-115h-115v115zM635 49.5q-31 49.5 -31 132.5
v175h75v-168q0 -25 16.5 -42t41.5 -17h44q10 0 10 -10v-110q0 -10 -10 -10h-44q-71 0 -102 49.5z" />
    <glyph glyph-name="uni0646.init" unicode="&#x646;" horiz-adv-x="270" arabic-form="initial" 
d="M-10 10v110q0 10 10 10h52q24 0 41 17.5t17 42.5v197h123v-205q0 -50 -24 -91.5t-65.5 -66t-91.5 -24.5h-52q-10 0 -10 10zM108 590h115v-115h-115v115z" />
    <glyph glyph-name="uni0646.medi" unicode="&#x646;" horiz-adv-x="341" arabic-form="medial" 
d="M0 130h50q25 0 42 17t17 42v168h123v-168q0 -25 17 -42t42 -17h50q10 0 10 -10v-110q0 -10 -10 -10h-50q-78 0 -121 56q-43 -56 -120 -56h-50q-10 0 -10 10v110q0 10 10 10zM113 561h115v-115h-115v115z" />
    <glyph glyph-name="uni0647.fina" unicode="&#x647;" horiz-adv-x="567" arabic-form="final" 
d="M157 57.5q-49 28.5 -77.5 77t-28.5 105.5q0 56 28.5 102.5t77.5 73t106 26.5v0h80v62h122v-264q0 -58 -26 -106t-72.5 -76.5t-103.5 -28.5v0q-57 0 -106 28.5zM320 182.5q23 23.5 23 57.5v79h-80v0q-34 0 -57.5 -22.5t-23.5 -56.5t23.5 -57.5t57.5 -23.5v0q34 0 57 23.5z
M436.5 24.5q-37.5 24.5 -57.5 66t-20 91.5v175h106v-168q0 -25 16.5 -42t41.5 -17h44q10 0 10 -10v-110q0 -10 -10 -10h-44q-49 0 -86.5 24.5z" />
    <glyph glyph-name="uni0647.init" unicode="&#x647;" horiz-adv-x="779" arabic-form="initial" 
d="M299 130q34 0 56 24t22 55q0 30 -22 54t-56 24t-56.5 -22.5t-22.5 -55.5q0 -36 24 -57.5t55 -21.5h232q34 0 57.5 22.5t23.5 56.5q0 33 -23.5 55.5t-57.5 22.5h-483v123h483q57 0 105.5 -26.5t77 -72.5t28.5 -102q0 -57 -29 -105t-77.5 -76t-104.5 -28h-239
q-60 0 -105 31t-69 79t-24 99q0 45 26 89.5t73 73t106 28.5q68 0 109.5 -35t58.5 -80t17 -76q0 -67 -28.5 -114.5t-73 -71t-90.5 -23.5h-294l1 130h300z" />
    <glyph glyph-name="uni0647.medi" unicode="&#x647;" horiz-adv-x="554" arabic-form="medial" 
d="M0 130h49v78q0 57 26.5 105.5t72.5 77t103 28.5t105.5 -28.5t77 -77t28.5 -105.5t-28.5 -104.5t-77 -75.5t-105.5 -28h-79v-45q0 -31 22.5 -53.5t53.5 -22.5h246v-121h-247q-53 0 -98.5 26.5t-72.5 72t-27 98.5v45h-49q-10 0 -10 10v110q0 10 10 10zM337.5 25
q25.5 48 71 76.5t103.5 28.5h42q10 0 10 -10v-110q0 -10 -10 -10h-52q-34 0 -56 -23t-22 -58v-141h-112v141q0 58 25.5 106zM309 152q23 22 23 56q0 35 -23 58t-58 23q-34 0 -57 -23.5t-23 -57.5v-78h80q35 0 58 22z" />
    <glyph glyph-name="uni0648.fina" unicode="&#x648;" horiz-adv-x="510" arabic-form="final" 
d="M262 -104.5q44 24.5 61.5 48t17.5 56.5h-79v0q-58 0 -106.5 26.5t-76.5 72.5t-28 103t28.5 105.5t77 77t105.5 28.5v0q56 0 102.5 -28.5t73 -77t26.5 -105.5v-151q0 -88 -29 -142.5t-90 -94t-180 -90.5l-38 108q91 39 135 63.5zM262 122h79v80q0 34 -23 57.5t-56 23.5v0
q-34 0 -57.5 -23t-23.5 -58q0 -34 23.5 -57t57.5 -23v0zM457 130h53q10 0 10 -10v-110q0 -10 -10 -10h-53v130z" />
    <glyph glyph-name="uni0649.fina" unicode="&#x649;" horiz-adv-x="757" arabic-form="final" 
d="M54 223h123v-225q0 -49 35 -84t85 -35h228q25 0 43 17.5t18 42.5t-18 43t-43 18h-181v106h178q54 0 97.5 -20t69 -58t25.5 -89q0 -52 -25.5 -95.5t-69.5 -69t-97 -25.5h-225q-66 0 -122 32.5t-88.5 88.5t-32.5 122v231zM324 0v130h433q10 0 10 -10v-110q0 -10 -10 -10
h-433z" />
    <glyph glyph-name="uni064A.fina" unicode="&#x64a;" horiz-adv-x="757" arabic-form="final" 
d="M175 -218.5q-56 32.5 -88.5 88.5t-32.5 122v231h123v-225q0 -49 35 -84t85 -35h228q25 0 43 17.5t18 42.5t-18 43t-43 18h-181v106h178q54 0 97.5 -20t69 -58t25.5 -89q0 -52 -25.5 -95.5t-69.5 -69t-97 -25.5h-225q-66 0 -122 32.5zM243 -340h115v-115h-115v115z
M410 -340h115v-115h-115v115zM324 130h433q10 0 10 -10v-110q0 -10 -10 -10h-433v130z" />
    <glyph glyph-name="uni064A.init" unicode="&#x64a;" horiz-adv-x="319" arabic-form="initial" 
d="M-10 10v110q0 10 10 10h97q24 0 41 17.5t17 42.5v197h123v-205q0 -50 -24 -91.5t-65.5 -66t-91.5 -24.5h-97q-10 0 -10 10zM0 -89h115v-115h-115v115zM167 -89h115v-115h-115v115z" />
    <glyph glyph-name="uni064A.medi" unicode="&#x64a;" horiz-adv-x="366" arabic-form="medial" 
d="M0 130h63q25 0 41.5 17t16.5 42v168h123v-168q0 -25 17 -42t42 -17h63q10 0 10 -10v-110q0 -10 -10 -10h-63q-77 0 -120 56q-21 -27 -51.5 -41.5t-68.5 -14.5h-63q-10 0 -10 10v110q0 10 10 10zM41 -89h115v-115h-115v115zM208 -89h115v-115h-115v115z" />
    <glyph glyph-name=".notdef" horiz-adv-x="475" 
d="M35 705h405v-705h-405v705zM229 309q4 9 7 22.5t5 23.5l-24 17q-8 -4 -21.5 -11.5t-21.5 -15.5t-20 -25l-26 -36l56 -41l26 36q15 21 19 30zM178 369q11 0 39 3l9 28q-7 6 -18.5 16.5t-21 15.5t-29.5 12l-43 14l-21 -66l42 -14q30 -9 43 -9zM354 283l-26 37
q-15 20 -22.5 26.5t-23.5 15.5l-17 10l-24 -17q2 -11 5 -26t7.5 -24t17.5 -26l26 -37zM264 418q8 16 10 26.5t2 35.5v45h-69v-45q0 -26 2 -36t7.5 -22.5t9.5 -21.5h30zM390 391l-22 66l-43 -13q-24 -8 -32.5 -13t-21.5 -18l-15 -13l9 -28q10 -1 20 -2.5t20 -1.5q16 0 42 10z
" />
    <glyph glyph-name=".null" horiz-adv-x="600" 
 />
    <glyph glyph-name="nonmarkingreturn" unicode="&#xd;" horiz-adv-x="600" 
 />
    <glyph glyph-name="space" unicode=" " horiz-adv-x="184" 
 />
    <glyph glyph-name="space" unicode="&#xa0;" horiz-adv-x="184" 
 />
    <glyph glyph-name="exclam" unicode="!" horiz-adv-x="266" 
d="M175 197h-84l-28 505h139zM82.5 9q-21.5 22 -21.5 51q0 30 21 51t51 21q32 0 52 -21.5t20 -50.5q0 -31 -21.5 -52t-50.5 -21t-50.5 22z" />
    <glyph glyph-name="quotedbl" unicode="&#x22;" horiz-adv-x="427" 
d="M165 421h-107l-10 281h127zM368 421h-107l-10 281h127z" />
    <glyph glyph-name="numbersign" unicode="#" horiz-adv-x="740" 
d="M544 263h132v-101h-144l-21 -162h-108l20 162h-151l-20 -162h-108l20 162h-132v101h145l19 163h-131v101h144l20 157h108l-20 -157h151l20 157h109l-20 -157h131v-101h-144zM285 263h151l20 163h-151z" />
    <glyph glyph-name="dollar" unicode="$" horiz-adv-x="674" 
d="M191 6q-76 21 -131 54l45 108q43 -25 109 -43t121 -18q68 0 108.5 22t40.5 61q0 27 -17 44t-45 27t-80 23l-20 6q-92 25 -144.5 54t-76 68.5t-23.5 96.5q0 65 36 112t99.5 72t143.5 25q107 0 233 -46l-43 -113q-107 38 -191 38q-67 0 -107.5 -23.5t-40.5 -64.5
q0 -29 17 -46.5t47.5 -28.5t95.5 -27q134 -32 190 -80.5t56 -125.5q0 -67 -35 -115.5t-97 -74.5t-142 -26q-73 0 -149 21zM307 8h97v-111h-97v111zM307 808h97v-112h-97v112z" />
    <glyph glyph-name="percent" unicode="%" horiz-adv-x="881" 
d="M85 387.5q-48 52.5 -48 140.5q0 87 47.5 139.5t125.5 52.5t125 -53t47 -139q0 -88 -47.5 -140.5t-124.5 -52.5t-125 52.5zM256 0h-116l491 719h115zM264.5 443.5q19.5 32.5 19.5 84.5t-19.5 84t-54.5 32q-36 0 -55.5 -32.5t-19.5 -83.5q0 -53 20 -85t55 -32t54.5 32.5z
M547.5 45q-47.5 52 -47.5 140q0 87 47 139.5t125 52.5t125 -53t47 -139q0 -88 -47.5 -140t-124.5 -52t-124.5 52zM726.5 101q19.5 33 19.5 84q0 53 -19.5 85t-54.5 32q-36 0 -55.5 -33t-19.5 -84q0 -53 19.5 -85t55.5 -32q35 0 54.5 33z" />
    <glyph glyph-name="ampersand" unicode="&#x26;" horiz-adv-x="764" 
d="M184.5 11q-56.5 23 -89 66.5t-32.5 102.5q0 63 35.5 106.5t116.5 92.5q-82 88 -82 161q0 79 60 124t152 45q87 0 141 -41.5t54 -116.5q0 -54 -34 -96.5t-102 -81.5l140 -139q33 42 74 112l81 -48q-40 -73 -89 -135l96 -91l-75 -83l-96 93q-57 -46 -107.5 -70t-115.5 -24
q-71 0 -127.5 23zM457 150l-171 167q-48 -31 -71.5 -58.5t-23.5 -62.5q0 -43 36.5 -69t95.5 -26q80 0 134 49zM395.5 497q23.5 23 23.5 51q0 29 -20 45.5t-54 16.5q-38 0 -60 -18t-22 -50q0 -22 12.5 -43t45.5 -54q51 29 74.5 52z" />
    <glyph glyph-name="quotesingle" unicode="'" horiz-adv-x="223" 
d="M165 421h-107l-10 281h127z" />
    <glyph glyph-name="parenleft" unicode="(" horiz-adv-x="349" 
d="M103 29.5q-32 120.5 -32 258.5q0 137 32 257.5t93 210.5l102 -45q-49 -97 -73 -201.5t-24 -221.5q0 -118 24 -222t73 -201l-102 -45q-61 89 -93 209.5z" />
    <glyph glyph-name="parenright" unicode=")" horiz-adv-x="349" 
d="M124 67q24 104 24 221q0 229 -97 423l102 45q60 -90 92 -210.5t32 -257.5q0 -138 -32 -258.5t-92 -209.5l-102 45q49 98 73 202z" />
    <glyph glyph-name="asterisk" unicode="*" horiz-adv-x="516" 
d="M274 405q-6 14 -11 45l-5 30l40 29q12 -7 30 -16q25 -13 36.5 -23.5t34.5 -42.5l36 -49l-95 -70l-36 50q-24 33 -30 47zM364 501q-6 0 -34 4q-5 1 -13 2t-19 2l-15 47q7 6 13 12l11 11q21 20 34 28t51 20l59 19l36 -112l-59 -19q-41 -14 -64 -14zM220 585
q-13 26 -16.5 41t-3.5 56v62h118v-62q0 -40 -3.5 -55t-17.5 -43q-9 -15 -14 -28h-49zM29 535l37 112l59 -19q38 -12 51 -20t35 -30l23 -22l-15 -47l-24 -3q-38 -4 -42 -4q-23 0 -65 14zM80 378l36 50q23 33 35.5 43t39.5 24l28 14l39 -29l-6 -32q-5 -29 -11 -43.5t-30 -46.5
l-36 -49z" />
    <glyph glyph-name="plus" unicode="+" horiz-adv-x="625" 
d="M252 256h-181v115h181v181h121v-181h181v-115h-181v-183h-121v183z" />
    <glyph glyph-name="comma" unicode="," horiz-adv-x="293" 
d="M119 -20l11 18q-24 -2 -44.5 20t-20.5 51q0 34 24 58t58 24q37 0 59.5 -24t22.5 -59q0 -105 -109 -249l-70 48q39 55 69 113z" />
    <glyph glyph-name="hyphen" unicode="-" horiz-adv-x="433" 
d="M65 345h304v-114h-304v114z" />
    <glyph glyph-name="period" unicode="." horiz-adv-x="292" 
d="M89.5 12q-24.5 25 -24.5 57q0 34 23.5 58t57.5 24q36 0 58.5 -24.5t22.5 -57.5q0 -35 -24.5 -58.5t-56.5 -23.5t-56.5 25z" />
    <glyph glyph-name="slash" unicode="/" horiz-adv-x="392" 
d="M120 -100h-130l281 802h131z" />
    <glyph glyph-name="zero" unicode="0" horiz-adv-x="620" 
d="M69 537.5q30 81.5 90.5 129t149.5 47.5q87 0 148.5 -47.5t92.5 -129.5t31 -185q0 -101 -31.5 -184t-93 -131.5t-147.5 -48.5q-85 0 -146 49t-92.5 132t-31.5 183q0 104 30 185.5zM189.5 217q20.5 -55 53.5 -81.5t69 -26.5q38 0 69.5 26t50.5 80.5t19 135.5t-19.5 135.5
t-51 80.5t-68.5 26q-38 0 -70.5 -26.5t-52.5 -81t-20 -134.5q0 -79 20.5 -134z" />
    <glyph glyph-name="one" unicode="1" horiz-adv-x="374" 
d="M308 0h-130v521l-89 -79l-71 96l181 164h109v-702z" />
    <glyph glyph-name="two" unicode="2" horiz-adv-x="571" 
d="M68 120l206 189q52 50 80.5 91.5t28.5 84.5q0 46 -26 72.5t-67 26.5q-49 0 -75 -35.5t-26 -86.5v-18h-131v21q0 116 61.5 182.5t169.5 66.5q101 0 162.5 -60t61.5 -164q0 -72 -32 -126.5t-93 -114.5l-143 -130h266v-119h-445z" />
    <glyph glyph-name="three" unicode="3" horiz-adv-x="589" 
d="M181.5 20q-56.5 32 -89.5 86.5t-33 118.5v4h130v-4q0 -47 34 -81.5t81 -34.5q48 0 82 34.5t34 81.5t-34 81.5t-82 34.5q-23 0 -45 -6.5t-52 -20.5l-35 97q64 38 132 38t124 -29t89 -80t33 -115t-33 -118.5t-89.5 -86.5t-123.5 -32q-66 0 -122.5 32zM140 405l214 178h-276
v119h429v-124l-301 -264z" />
    <glyph glyph-name="four" unicode="4" horiz-adv-x="574" 
d="M452 132v-132h-130v132h-288v110l233 460h185v-450h87v-120h-87zM322 533l-155 -281h155v281z" />
    <glyph glyph-name="five" unicode="5" horiz-adv-x="579" 
d="M170 20q-56 32 -89 86.5t-33 118.5h130q0 -47 34 -81.5t81 -34.5t81 34.5t34 81.5q0 48 -33.5 82t-81.5 34q-59 0 -110 -50l-47 100q36 27 72.5 42.5t84.5 15.5q68 0 124 -29t88.5 -80t32.5 -115t-33 -118.5t-89 -86.5t-123 -32t-123 32zM56 320l38 382h392v-119h-276
l-27 -292z" />
    <glyph glyph-name="six" unicode="6" horiz-adv-x="600" 
d="M166 30q-60 41 -91.5 116t-31.5 174q0 108 30 197t92 142t154 53q58 0 107 -26t81 -70t42 -96l-112 -16q-13 35 -43.5 61.5t-77.5 26.5q-44 0 -75.5 -32.5t-46.5 -81.5t-13 -97q15 35 52.5 58.5t81.5 23.5q66 0 121.5 -28t88.5 -79t33 -117q0 -68 -33.5 -125.5t-91 -91
t-124.5 -33.5q-83 0 -143 41zM392 144q36 35 36 84t-36 84t-86 35t-85.5 -35t-35.5 -84t35.5 -84t85.5 -35t86 35z" />
    <glyph glyph-name="seven" unicode="7" horiz-adv-x="479" 
d="M196 0h-138l266 583h-306v119h443v-123z" />
    <glyph glyph-name="eight" unicode="8" horiz-adv-x="564" 
d="M159.5 19.5q-55.5 30.5 -88 83.5t-32.5 117t32 112t87.5 73.5t123.5 25.5t123.5 -25.5t87.5 -73.5t32 -112t-32.5 -117t-88 -83.5t-122.5 -30.5t-122.5 30.5zM362 142q33 32 33 78q0 45 -32.5 73.5t-80.5 28.5t-81 -28t-33 -74t33.5 -78t80.5 -32t80 32zM177 357.5
q-47 22.5 -74.5 64t-27.5 95.5q0 55 27.5 99.5t75 70.5t104.5 26q56 0 103.5 -26t75 -71t27.5 -99t-27.5 -95.5t-74.5 -64t-104 -22.5q-58 0 -105 22.5zM341 455q24 21 24 56q0 34 -24 57t-59 23t-59.5 -23t-24.5 -57q0 -35 24 -56t60 -21q35 0 59 21z" />
    <glyph glyph-name="nine" unicode="9" horiz-adv-x="600" 
d="M175 15q-49 26 -81 70t-43 97l113 15q13 -35 43.5 -61.5t77.5 -26.5q44 0 75.5 32.5t46.5 81.5t13 97q-15 -35 -52.5 -58t-81.5 -23q-66 0 -121.5 27.5t-88.5 78.5t-33 117q0 68 33.5 125.5t91 91t124.5 33.5q83 0 143 -41t91.5 -116t31.5 -174q0 -108 -30 -197t-92 -142
t-154 -53q-58 0 -107 26zM380.5 389q35.5 35 35.5 84t-35.5 84t-85.5 35q-51 0 -86.5 -35t-35.5 -84t35.5 -84t86.5 -35q50 0 85.5 35z" />
    <glyph glyph-name="colon" unicode=":" horiz-adv-x="292" 
d="M89.5 326.5q-24.5 24.5 -24.5 57.5q0 34 23.5 58t57.5 24q36 0 58.5 -24.5t22.5 -57.5q0 -35 -24.5 -58.5t-56.5 -23.5t-56.5 24.5zM89.5 12q-24.5 25 -24.5 57q0 34 23.5 58t57.5 24q36 0 58.5 -24.5t22.5 -57.5q0 -35 -24.5 -58.5t-56.5 -23.5t-56.5 25z" />
    <glyph glyph-name="semicolon" unicode=";" horiz-adv-x="293" 
d="M119 -20l11 18q-24 -2 -44.5 20t-20.5 51q0 34 24 58t58 24q37 0 59.5 -24t22.5 -59q0 -105 -109 -249l-70 48q39 55 69 113zM89.5 326.5q-24.5 24.5 -24.5 57.5q0 34 23.5 58t57.5 24q36 0 58.5 -24.5t22.5 -57.5q0 -35 -24.5 -58.5t-56.5 -23.5t-56.5 24.5z" />
    <glyph glyph-name="less" unicode="&#x3c;" horiz-adv-x="561" 
d="M201 350l304 -125v-115l-443 180v120l443 180v-115z" />
    <glyph glyph-name="equal" unicode="=" horiz-adv-x="599" 
d="M62 529h475v-114h-475v114zM62 285h475v-114h-475v114z" />
    <glyph glyph-name="greater" unicode="&#x3e;" horiz-adv-x="561" 
d="M57 225l303 125l-303 125v115l442 -180v-120l-442 -180v115z" />
    <glyph glyph-name="question" unicode="?" horiz-adv-x="423" 
d="M173.5 288.5q11.5 38.5 40.5 82.5l17 24q26 38 38 62.5t12 54.5q0 38 -27 65t-65 27q-28 0 -51 -16t-34 -41l-10 -23l-78 30q12 67 65 111.5t123 44.5q52 0 95 -24.5t67.5 -67.5t24.5 -95q0 -45 -18 -82t-59 -89q-31 -40 -48.5 -77t-17.5 -78h-85q-1 53 10.5 91.5z
M154.5 9q-21.5 22 -21.5 51q0 30 20.5 51t50.5 21q32 0 52.5 -21.5t20.5 -50.5q0 -31 -22 -52t-51 -21q-28 0 -49.5 22z" />
    <glyph glyph-name="at" unicode="@" horiz-adv-x="1035" 
d="M271 -147q-109 58 -170 162t-61 238t62 238t172 161.5t249 57.5q134 0 242 -55.5t169 -155t61 -226.5q0 -78 -23.5 -141.5t-68.5 -101t-107 -37.5q-49 0 -80 21.5t-44 57.5q-9 27 -10 41q-24 -55 -71.5 -87.5t-109.5 -32.5q-65 0 -117 34t-81 92t-29 128q0 71 29.5 128.5
t81 91t116.5 33.5q54 0 96.5 -23t66.5 -65v81h127v-336q0 -31 14.5 -47.5t38.5 -16.5q41 0 58 52t17 126q0 106 -48.5 185.5t-134 123t-193.5 43.5q-110 0 -196 -47t-134 -131.5t-48 -191.5q0 -109 47.5 -193t132.5 -131t194 -47q105 0 198 44l29 -84q-42 -22 -104 -34.5
t-123 -12.5q-139 0 -248 58zM608.5 148.5q38.5 40.5 38.5 99.5q0 60 -38.5 99.5t-96.5 39.5q-59 0 -97.5 -39.5t-38.5 -99.5t39 -100t97 -40t96.5 40.5z" />
    <glyph glyph-name="A" unicode="A" horiz-adv-x="689" 
d="M269 702h137l-259 -702h-137zM283 702h137l259 -702h-136zM197 264h301v-121h-301v121z" />
    <glyph glyph-name="B" unicode="B" horiz-adv-x="629" 
d="M67 702h293q54 0 100.5 -26.5t73.5 -72.5t27 -100q0 -44 -19 -78t-52 -55q46 -19 74 -60.5t28 -96.5q0 -58 -28.5 -107t-77.5 -77.5t-107 -28.5h-312v702zM436 149.5q26 26.5 26 63.5q0 36 -26.5 62.5t-63.5 26.5h-175v-179h175q38 0 64 26.5zM406.5 445q23.5 24 23.5 58
q0 33 -23.5 56.5t-56.5 23.5h-153v-162h153q33 0 56.5 24z" />
    <glyph glyph-name="C" unicode="C" horiz-adv-x="773" 
d="M222.5 35.5q-79.5 49.5 -126.5 133.5t-47 183t47 183t126.5 133.5t173.5 49.5q79 0 148.5 -35t118 -97t67.5 -140l-111 -15q-23 72 -82 118t-132 46q-61 0 -113 -32.5t-82.5 -88.5t-30.5 -122t30.5 -122t82.5 -88.5t113 -32.5q73 0 132 45.5t82 117.5l112 -14
q-19 -78 -68 -140t-118.5 -97t-148.5 -35q-94 0 -173.5 49.5z" />
    <glyph glyph-name="D" unicode="D" horiz-adv-x="690" 
d="M60 702h230q95 0 176 -47t128 -127.5t47 -175.5q0 -96 -47 -177t-128 -128t-176 -47h-230v702zM394.5 148.5q53.5 31.5 85 85.5t31.5 118t-31.5 117.5t-85 85t-117.5 31.5h-87v-469h87q64 0 117.5 31.5z" />
    <glyph glyph-name="E" unicode="E" horiz-adv-x="565" 
d="M60 702h469l1 -119h-340v-177h303v-110h-303v-177h339v-119h-469v702z" />
    <glyph glyph-name="F" unicode="F" horiz-adv-x="537" 
d="M60 702h447v-119h-317v-177h283v-110h-283v-296h-130v702z" />
    <glyph glyph-name="G" unicode="G" horiz-adv-x="774" 
d="M213 35.5q-80 49.5 -126.5 133.5t-46.5 183t46.5 183t126.5 133.5t174 49.5q106 0 192.5 -62t126.5 -163l-106 -37q-27 63 -82.5 101t-122.5 38q-61 0 -112.5 -32.5t-82 -88.5t-30.5 -122t30.5 -122t82 -88.5t112.5 -32.5q55 0 103 27t79.5 73.5t38.5 102.5l118 40
q0 -99 -47 -183t-126.5 -133.5t-173.5 -49.5t-174 49.5zM354 389h380v-37l-16 -68h-364v105z" />
    <glyph glyph-name="H" unicode="H" horiz-adv-x="696" 
d="M506 0v296h-316v-296h-130v702h130v-296h316v296h130v-702h-130z" />
    <glyph glyph-name="I" unicode="I" horiz-adv-x="250" 
d="M60 0v702h130v-702h-130z" />
    <glyph glyph-name="J" unicode="J" horiz-adv-x="235" 
d="M-101 -96h50q41 0 68.5 27.5t27.5 67.5v703h130v-698q0 -60 -29 -110.5t-78 -80t-107 -29.5h-62v120z" />
    <glyph glyph-name="K" unicode="K" horiz-adv-x="649" 
d="M627 702l-443 -486l-7 190l283 296h167zM190 702v-702h-130v702h130zM341 411l295 -411h-152l-268 369z" />
    <glyph glyph-name="L" unicode="L" horiz-adv-x="489" 
d="M470 0h-410v702h130v-583h280v-119z" />
    <glyph glyph-name="M" unicode="M" horiz-adv-x="861" 
d="M60 702h189l181 -500l182 500h189v-702h-123v512l-184 -455h-127l-183 455v-512h-124v702z" />
    <glyph glyph-name="N" unicode="N" horiz-adv-x="714" 
d="M465 0l-281 514v-514h-124v702h167l303 -562v562h124v-702h-189z" />
    <glyph glyph-name="O" unicode="O" horiz-adv-x="818" 
d="M229 35.5q-83 49.5 -131.5 133.5t-48.5 183t48.5 183t131.5 133.5t180 49.5t179.5 -49.5t131 -133.5t48.5 -183t-48.5 -183t-131 -133.5t-179.5 -49.5t-180 49.5zM523.5 141.5q52.5 32.5 83.5 88.5t31 122t-31 122t-83.5 88.5t-114.5 32.5q-63 0 -116 -32.5t-84 -88.5
t-31 -122t31 -122t84 -88.5t116 -32.5q62 0 114.5 32.5z" />
    <glyph glyph-name="P" unicode="P" horiz-adv-x="596" 
d="M60 702h265q64 0 119 -32t87.5 -87t32.5 -119q0 -65 -32.5 -120.5t-87 -87.5t-119.5 -32h-135v-224h-130v702zM190 343h126q31 0 58.5 16.5t43.5 44.5t16 60t-16 59.5t-43.5 43.5t-58.5 16h-126v-240z" />
    <glyph glyph-name="Q" unicode="Q" horiz-adv-x="824" 
d="M230.5 38.5q-83.5 48.5 -132.5 132t-49 181.5t49 181.5t132.5 132t182.5 48.5q98 0 181.5 -48.5t132 -132t48.5 -181.5t-48.5 -181.5t-132 -132t-181.5 -48.5q-99 0 -182.5 48.5zM464.5 -25.5q-22.5 15.5 -51.5 15.5l16 44q75 0 126.5 -19t70.5 -69l19 -49l-118 -38
l-28 70q-12 30 -34.5 45.5zM529.5 145q53.5 32 84.5 87t31 120t-31 120t-84.5 87t-116.5 32q-64 0 -118 -32t-85.5 -87t-31.5 -120t31.5 -120t85.5 -87t118 -32q63 0 116.5 32z" />
    <glyph glyph-name="R" unicode="R" horiz-adv-x="627" 
d="M60 702h265q65 0 119.5 -32t86.5 -86.5t32 -119.5q0 -64 -32 -114.5t-86.5 -78t-119.5 -27.5h-135v-244h-130v702zM365.5 223.5q-24.5 18.5 -68.5 18.5h-134v64h128q73 0 112.5 -6t70 -30.5t52.5 -77.5l79 -192h-129l-71 168q-15 37 -39.5 55.5zM398.5 379.5
q34.5 35.5 34.5 84.5t-34.5 84t-82.5 35h-126v-239h126q48 0 82.5 35.5z" />
    <glyph glyph-name="S" unicode="S" horiz-adv-x="628" 
d="M169 6q-76 21 -131 54l45 108q43 -25 109 -43t121 -18q67 0 108 22t41 61q0 27 -17.5 44t-45 27t-79.5 23l-20 6q-92 25 -144.5 54t-76 68.5t-23.5 96.5q0 64 36 111.5t99 72.5t143 25q108 0 233 -46l-43 -113q-107 38 -191 38q-67 0 -107 -23.5t-40 -64.5
q0 -29 16.5 -46.5t47.5 -28.5t96 -27q134 -32 190 -80.5t56 -125.5q0 -67 -35 -115.5t-97.5 -74.5t-141.5 -26q-73 0 -149 21z" />
    <glyph glyph-name="T" unicode="T" horiz-adv-x="530" 
d="M200 583h-188l-1 119h508v-119h-190v-583h-129v583z" />
    <glyph glyph-name="U" unicode="U" horiz-adv-x="652" 
d="M190 31.5q-62 36.5 -98 98.5t-36 135v437h130v-444q0 -38 19 -70t51 -51t70 -19t70 19t51 51t19 70v444h130v-437q0 -73 -36.5 -135t-98.5 -98.5t-135 -36.5q-74 0 -136 36.5z" />
    <glyph glyph-name="V" unicode="V" horiz-adv-x="622" 
d="M221 0l-211 702h132l169 -561l169 561h132l-211 -702h-180z" />
    <glyph glyph-name="W" unicode="W" horiz-adv-x="885" 
d="M10 702h127l95 -569l132 516h158l132 -516l94 569h128l-136 -702h-175l-122 531l-123 -531h-174z" />
    <glyph glyph-name="X" unicode="X" horiz-adv-x="629" 
d="M161 0l458 702h-152l-457 -702h151zM619 0l-458 702h-151l457 -702h152z" />
    <glyph glyph-name="Y" unicode="Y" horiz-adv-x="600" 
d="M233 228l-223 474h141l146 -317l152 317h141l-227 -474v-228h-130v228z" />
    <glyph glyph-name="Z" unicode="Z" horiz-adv-x="571" 
d="M547 0h-523v141l367 442h-354v119h505v-141l-365 -442h369z" />
    <glyph glyph-name="bracketleft" unicode="[" horiz-adv-x="358" 
d="M69 745h244v-114h-114v-686h114v-114h-244v914z" />
    <glyph glyph-name="backslash" unicode="\" horiz-adv-x="395" 
d="M-10 702h133l282 -802h-134z" />
    <glyph glyph-name="bracketright" unicode="]" horiz-adv-x="358" 
d="M45 -169v114h114v686h-114v114h243v-914h-243z" />
    <glyph glyph-name="asciicircum" unicode="^" horiz-adv-x="598" 
d="M299 442l-124 -301h-115l179 418h120l180 -418h-115z" />
    <glyph glyph-name="underscore" unicode="_" horiz-adv-x="500" 
d="M500 -114h-500v114h500v-114z" />
    <glyph glyph-name="a" unicode="a" horiz-adv-x="633" 
d="M171 25.5q-61 35.5 -96.5 96.5t-35.5 133q0 71 35.5 131.5t96.5 96.5t133 36q69 0 118.5 -35.5t74.5 -95.5t25 -134t-25 -134t-74.5 -95t-118.5 -35q-72 0 -133 35.5zM382.5 130q32.5 19 51.5 52t19 72t-19 72t-51.5 52t-71.5 19t-71.5 -19t-51.5 -52t-19 -72t19 -72
t51.5 -52t71.5 -19t71.5 19zM475 172l-22 -5v166h130v-333h-108v172zM453 341l22 -4v171h108v-333h-130v166z" />
    <glyph glyph-name="b" unicode="b" horiz-adv-x="644" 
d="M221.5 25q-49.5 35 -75 95t-25.5 134t25.5 134t75 95.5t118.5 35.5q72 0 132.5 -36t96 -96.5t35.5 -131.5q0 -72 -35.5 -133t-96 -96.5t-132.5 -35.5q-69 0 -118.5 35zM60 732h130v-613l-22 4v-123h-108v732zM403.5 130q32.5 19 51.5 52t19 72t-19 72t-51.5 52t-71.5 19
t-71.5 -19t-51.5 -52t-19 -72t19 -72t51.5 -52t71.5 -19t71.5 19z" />
    <glyph glyph-name="c" unicode="c" horiz-adv-x="596" 
d="M171 25.5q-61 35.5 -96.5 96.5t-35.5 133q0 71 35.5 132t96.5 96.5t133 35.5q63 0 117 -27t90 -74.5t47 -105.5l-111 -16q-14 44 -51.5 73t-83.5 29q-39 0 -72 -19.5t-52 -52.5t-19 -72t19 -72t52 -52t72 -19q46 0 83.5 28.5t51.5 73.5l111 -16q-11 -58 -47 -105.5
t-90 -74.5t-117 -27q-72 0 -133 35.5z" />
    <glyph glyph-name="d" unicode="d" horiz-adv-x="644" 
d="M171 25.5q-61 35.5 -96.5 96.5t-35.5 133q0 71 36 131.5t96.5 96.5t132.5 36q69 0 118.5 -35.5t74.5 -95.5t25 -134t-25 -134t-74.5 -95t-118.5 -35q-72 0 -133 35.5zM383.5 130q32.5 19 51.5 52t19 72t-19 72t-51.5 52t-71.5 19t-72 -19t-52 -52t-19 -72t19 -72t52 -52
t72 -19t71.5 19zM476 123l-22 -4v613h130v-732h-108v123z" />
    <glyph glyph-name="e" unicode="e" horiz-adv-x="593" 
d="M174 26q-61 36 -96.5 97t-35.5 132t35.5 132t96.5 96.5t133 35.5q73 0 130.5 -35.5t90 -96t32.5 -132.5q0 -27 -3 -50h-390q11 -47 50 -78t91 -31q82 0 130 64l94 -49q-35 -57 -94 -89t-131 -32t-133 36zM395 380.5q-38 29.5 -87 29.5t-87 -29.5t-50 -74.5h274
q-12 45 -50 74.5z" />
    <glyph glyph-name="f" unicode="f" horiz-adv-x="419" 
d="M250 0h-130v389h-101v120h231v-509zM144.5 658q24.5 41 66.5 65t91 24h102v-114h-95q-25 0 -42 -17t-17 -43v-64h131v-120h-261v178q0 50 24.5 91z" />
    <glyph glyph-name="g" unicode="g" horiz-adv-x="629" 
d="M144 -108h201q34 0 63.5 17.5t47 47t17.5 64.5v377l3 -3v113h108v-486q0 -68 -33.5 -126t-90.5 -92t-124 -34h-192v122zM171 25.5q-61 35.5 -96.5 96.5t-35.5 133q0 71 35.5 131.5t96.5 96.5t133 36q69 0 118.5 -35.5t74.5 -95.5t25 -134t-25 -134t-74.5 -95t-118.5 -35
q-72 0 -133 35.5zM383.5 130q32.5 19 51.5 52t19 72t-19 72t-51.5 52t-71.5 19t-72 -19t-52 -52t-19 -72t19 -72t52 -52t72 -19t71.5 19z" />
    <glyph glyph-name="h" unicode="h" horiz-adv-x="572" 
d="M375.5 358q-31.5 32 -77.5 32q-44 0 -76 -32t-32 -77h-68q0 60 24 114.5t69 88.5t106 34t110.5 -31.5t77.5 -85t28 -116.5v-285h-130v281q0 45 -31.5 77zM60 732h130v-732h-130v732z" />
    <glyph glyph-name="i" unicode="i" horiz-adv-x="236" 
d="M53 508h130v-508h-130v508zM50 676h136v-105h-136v105z" />
    <glyph glyph-name="j" unicode="j" horiz-adv-x="235" 
d="M-58 -78h53q25 0 42 17t17 42v527h130v-527q0 -50 -24.5 -91.5t-66.5 -65.5t-91 -24h-60v122zM51 676h137v-105h-137v105z" />
    <glyph glyph-name="k" unicode="k" horiz-adv-x="549" 
d="M232 217l84 104l216 -321h-152zM60 732h130v-732h-130v732zM190 341l165 167h160l-325 -346v179z" />
    <glyph glyph-name="l" unicode="l" horiz-adv-x="260" 
d="M138 20.5q-36 20.5 -57 56t-21 78.5v577h129v-585q0 -11 8 -18.5t19 -7.5h16v-121h-16q-42 0 -78 20.5z" />
    <glyph glyph-name="m" unicode="m" horiz-adv-x="854" 
d="M661 362.5q-28 28.5 -67 28.5t-67 -28.5t-28 -66.5l-69 1q0 56 22.5 107t65 83t99.5 32t103.5 -29.5t72.5 -79.5t26 -109v-301h-130v296q0 38 -28 66.5zM50 508h108v-114l22 -5v-389h-130v508zM341 363q-28 28 -67 28q-38 0 -66 -28.5t-28 -66.5l-69 1q0 56 22.5 107
t65 83t99.5 32t103 -29.5t72 -79.5t26 -109v-301h-130v296q0 39 -28 67z" />
    <glyph glyph-name="n" unicode="n" horiz-adv-x="562" 
d="M365 359q-32 32 -77 32q-44 0 -76 -32.5t-32 -76.5h-68q0 60 24 114.5t69 88.5t106 34t110.5 -31.5t77.5 -85t28 -116.5v-286h-130v282q0 45 -32 77zM50 508h108v-114l22 -5v-389h-130v508z" />
    <glyph glyph-name="o" unicode="o" horiz-adv-x="622" 
d="M175 25.5q-63 35.5 -99.5 96.5t-36.5 133t36.5 132.5t99.5 96t137 35.5t136 -35.5t98.5 -96t36.5 -132.5t-36.5 -133t-98.5 -96.5t-136 -35.5t-137 35.5zM382.5 130q32.5 19 51.5 52t19 72t-19 72t-51.5 52t-71.5 19t-71.5 -19t-51.5 -52t-19 -72t19 -72t51.5 -52
t71.5 -19t71.5 19z" />
    <glyph glyph-name="p" unicode="p" horiz-adv-x="640" 
d="M218 25q-49 35 -74 95t-25 134t25 134t74 95.5t119 35.5q72 0 132.5 -36t96 -97t35.5 -132t-35.5 -132t-96 -96.5t-132.5 -35.5q-70 0 -119 35zM57 508h108v-122l22 3v-583h-130v702zM400.5 130q32.5 19 51.5 52t19 72t-19 72t-51.5 52t-71.5 19t-71.5 -19t-51.5 -52
t-19 -72t19 -72t51.5 -52t71.5 -19t71.5 19z" />
    <glyph glyph-name="q" unicode="q" horiz-adv-x="640" 
d="M171 25.5q-61 35.5 -96.5 96.5t-35.5 132t35.5 132t96.5 97t133 36q69 0 118.5 -35.5t74.5 -95.5t25 -134t-25 -134t-74.5 -95t-118.5 -35q-72 0 -133 35.5zM382.5 130q32.5 19 51.5 52t19 72t-19 72t-51.5 52t-71.5 19t-71.5 -19t-51.5 -52t-19 -72t19 -72t51.5 -52
t71.5 -19t71.5 19zM453 389l22 -3v122h108v-702h-130v583z" />
    <glyph glyph-name="r" unicode="r" horiz-adv-x="387" 
d="M50 508h108v-122l22 3v-389h-130v508zM139 369.5q27 62.5 78.5 101t120.5 38.5h28v-119h-65q-32 0 -60 -16.5t-44.5 -45t-16.5 -60.5l-68 -29q0 68 27 130.5z" />
    <glyph glyph-name="s" unicode="s" horiz-adv-x="528" 
d="M146.5 9q-60.5 20 -107.5 55l55 85q88 -53 182 -53q89 0 89 48q0 21 -21.5 32t-73.5 23q-105 25 -153.5 60t-48.5 103q0 70 56.5 113.5t152.5 43.5q51 0 102.5 -15t92.5 -39l-45 -90q-78 36 -150 36q-37 0 -58.5 -13.5t-21.5 -37.5q0 -25 21 -35.5t76 -19.5
q97 -17 148.5 -55t51.5 -104q0 -73 -58.5 -115t-159.5 -42q-69 0 -129.5 20z" />
    <glyph glyph-name="t" unicode="t" horiz-adv-x="456" 
d="M136 388h-115v120h391v-119h-146v-211q0 -25 17 -41.5t42 -16.5h97v-120h-104q-49 0 -91 23.5t-66.5 64t-24.5 90.5v210zM136 508v151h130v-151h-130z" />
    <glyph glyph-name="u" unicode="u" horiz-adv-x="562" 
d="M140.5 21.5q-49.5 31.5 -77.5 85t-28 116.5v285h130v-281q0 -45 31.5 -77t77.5 -32q44 0 76 32t32 77h69q0 -60 -24 -114.5t-69.5 -88.5t-106.5 -34t-110.5 31.5zM404 115l-22 5v388h130v-508h-108v115z" />
    <glyph glyph-name="v" unicode="v" horiz-adv-x="536" 
d="M185 0l-176 508h134l124 -375l126 375h134l-178 -508h-164z" />
    <glyph glyph-name="w" unicode="w" horiz-adv-x="721" 
d="M9 508h126l65 -326l109 298h110l109 -298l59 326h125l-90 -508h-141l-117 307l-116 -307h-140z" />
    <glyph glyph-name="x" unicode="x" horiz-adv-x="534" 
d="M9 508h148l364 -508h-146zM376 508h149l-366 -508h-148z" />
    <glyph glyph-name="y" unicode="y" horiz-adv-x="551" 
d="M47 -113h85q32 0 55 16.5t33 45.5l187 559h132l-195 -587q-18 -71 -73 -115t-130 -44h-94v125zM12 508h131l157 -508h-131z" />
    <glyph glyph-name="z" unicode="z" horiz-adv-x="500" 
d="M465 0h-431v123l257 266h-259v119h433v-122l-252 -267h252v-119z" />
    <glyph glyph-name="braceleft" unicode="{" horiz-adv-x="393" 
d="M248.5 323.5q-14.5 -24.5 -48.5 -35.5q34 -11 48.5 -35.5t14.5 -71.5v-162q0 -36 18.5 -55t55.5 -19h17v-114h-35q-91 0 -138 44t-47 128v181q0 23 -11.5 35t-32.5 12h-34v114h34q21 0 32.5 12t11.5 35v181q0 84 47 128t138 44h35v-114h-17q-37 0 -55.5 -19t-18.5 -55
v-162q0 -47 -14.5 -71.5z" />
    <glyph glyph-name="bar" unicode="|" horiz-adv-x="300" 
d="M215 -194h-130v936h130v-936z" />
    <glyph glyph-name="braceright" unicode="}" horiz-adv-x="393" 
d="M111.5 612q-18.5 19 -55.5 19h-18v114h36q91 0 138 -44t47 -128v-181q0 -47 44 -47h33v-114h-33q-44 0 -44 -47v-181q0 -84 -47 -128t-138 -44h-36v114h18q37 0 55.5 19t18.5 55v162q0 47 14.5 71.5t47.5 35.5q-33 11 -47.5 35.5t-14.5 71.5v162q0 36 -18.5 55z" />
    <glyph glyph-name="asciitilde" unicode="~" horiz-adv-x="598" 
d="M345.5 264.5q-26.5 12.5 -62.5 39.5q-28 22 -43.5 30t-33.5 8q-28 0 -44.5 -21t-17.5 -59h-94q1 87 41 137t104 50q32 0 58.5 -12.5t62.5 -39.5q28 -22 43.5 -30t33.5 -8q28 0 44.5 21t17.5 59h94q-1 -87 -41 -137t-103 -50q-33 0 -59.5 12.5z" />
    <glyph glyph-name="exclamdown" unicode="&#xa1;" horiz-adv-x="266" 
d="M91 345h84l28 -505h-139zM183.5 533q21.5 -22 21.5 -51q0 -30 -20.5 -51t-50.5 -21q-33 0 -53 21t-20 51q0 31 22 52t51 21q28 0 49.5 -22z" />
    <glyph glyph-name="cent" unicode="&#xa2;" horiz-adv-x="624" 
d="M188 25.5q-61 35.5 -96.5 96.5t-35.5 133q0 71 35.5 132t96.5 96.5t133 35.5q63 0 117 -27t90 -74.5t47 -105.5l-111 -16q-14 44 -51.5 73t-83.5 29q-39 0 -72 -19.5t-52 -52.5t-19 -72t19 -72t52 -52t72 -19q46 0 83.5 28.5t51.5 73.5l111 -16q-11 -58 -47 -105.5
t-90 -74.5t-117 -27q-72 0 -133 35.5zM274 6h95v-118h-95v118zM274 623h95v-118h-95v118z" />
    <glyph glyph-name="sterling" unicode="&#xa3;" horiz-adv-x="574" 
d="M49 120h101v171h-101v102h101v77q0 123 76.5 193.5t214.5 70.5v-115q-81 0 -126 -39.5t-47 -110.5v-76h173v-102h-173v-171h253v-114h-472v114z" />
    <glyph glyph-name="currency" unicode="&#xa4;" horiz-adv-x="699" 
d="M30 77l104 104q-45 64 -45 139q0 74 43 136l-102 102l79 79l102 -101q62 42 138 42t140 -42l101 101l79 -79l-102 -102q44 -61 44 -136q0 -37 -12 -72.5t-34 -65.5l104 -105l-79 -79l-106 106q-60 -40 -135 -40q-70 0 -134 39l-106 -105zM425 194.5q35 19.5 55.5 53
t20.5 72.5q0 40 -20.5 74t-55.5 54t-76 20q-40 0 -74.5 -20t-54.5 -54t-20 -74t20.5 -73t54.5 -52.5t74 -19.5q41 0 76 19.5z" />
    <glyph glyph-name="yen" unicode="&#xa5;" horiz-adv-x="678" 
d="M597 260h-190v-62h190v-101h-190v-97h-137v97h-190v101h190v62h-190v102h162l-210 340h141l172 -282l170 282h130l-208 -340h160v-102z" />
    <glyph glyph-name="brokenbar" unicode="&#xa6;" horiz-adv-x="298" 
d="M213 392h-129v350h129v-350zM213 -194h-129v350h129v-350z" />
    <glyph glyph-name="section" unicode="&#xa7;" horiz-adv-x="581" 
d="M495 225.5q-27 -32.5 -64 -45.5q76 -45 76 -125q0 -75 -63.5 -116t-165.5 -41q-67 0 -124.5 17.5t-97.5 46.5l42 96q40 -25 89 -39t91 -14q95 0 95 61q0 28 -34 45t-113 41q-5 2 -34 11q-129 38 -129 141q0 47 26 82.5t66 52.5q-36 19 -53.5 51t-17.5 68q0 79 60.5 120.5
t170.5 41.5q51 0 111 -16t99 -41l-46 -91q-30 18 -74 29.5t-80 11.5q-109 0 -109 -67q0 -31 27 -46.5t85 -30.5q68 -19 104.5 -33.5t64 -45.5t26.5 -83q-1 -49 -28 -81.5zM383.5 253q18.5 19 18.5 46q0 34 -24 49t-78 29l-45 12q-31 -6 -49.5 -24.5t-18.5 -45.5
q0 -34 24.5 -49t78.5 -29l45 -12q30 5 48.5 24z" />
    <glyph glyph-name="copyright" unicode="&#xa9;" horiz-adv-x="797" 
d="M222 47q-81 47 -128 128t-47 177q0 95 47 176t128 128t177 47q95 0 176 -47t128 -128t47 -176q0 -96 -47 -177t-128 -128t-176 -47q-96 0 -177 47zM542.5 103.5q65.5 38.5 104 104.5t38.5 144t-38.5 143.5t-104 104t-143.5 38.5t-144 -38.5t-104.5 -104t-38.5 -143.5
t38.5 -144t104.5 -104.5t144 -38.5t143.5 38.5zM300.5 179q-44.5 27 -70.5 73t-26 100t26 100t70.5 73t96.5 27q66 0 118 -41.5t68 -106.5l-83 -11q-11 35 -38.5 56t-60.5 21q-42 0 -73 -34.5t-31 -83.5q0 -48 31 -83t73 -35q33 0 60.5 21t38.5 56l83 -11
q-16 -65 -68 -106.5t-118 -41.5q-52 0 -96.5 27z" />
    <glyph glyph-name="guillemotleft" unicode="&#xab;" horiz-adv-x="520" 
d="M69 259q0 163 102 300l90 -47q-35 -53 -55.5 -118t-20.5 -135t20.5 -135t55.5 -118l-90 -47q-102 137 -102 300zM316.5 117.5q-23.5 66.5 -23.5 141.5t23.5 141.5t71.5 129.5l89 -47q-32 -47 -50 -105.5t-18 -118.5t18 -118.5t50 -105.5l-89 -47q-48 63 -71.5 129.5z" />
    <glyph glyph-name="registered" unicode="&#xae;" horiz-adv-x="797" 
d="M222 47q-81 47 -128 128t-47 177q0 95 47 176t128 128t177 47q95 0 176 -47t128 -128t47 -176q0 -96 -47 -177t-128 -128t-176 -47q-96 0 -177 47zM542.5 103.5q65.5 38.5 104 104.5t38.5 144t-38.5 143.5t-104 104t-143.5 38.5t-144 -38.5t-104.5 -104t-38.5 -143.5
t38.5 -144t104.5 -104.5t144 -38.5t143.5 38.5zM486 155l-41 98q-7 18 -19 26t-31 8h-88v57h78q54 0 86.5 -16.5t47.5 -52.5l50 -120h-83zM258 549h163q37 0 68.5 -18t50.5 -49t19 -68q0 -53 -39 -83.5t-99 -30.5h-81v-145h-82v394zM461 377.5q16 16.5 16 38.5q0 24 -16 41
t-39 17h-82v-113h82q23 0 39 16.5z" />
    <glyph glyph-name="degree" unicode="&#xb0;" horiz-adv-x="417" 
d="M122 391.5q-40 22.5 -63.5 61.5t-23.5 86t23.5 85.5t63.5 61t87 22.5t87 -22.5t63.5 -61t23.5 -85.5t-23.5 -86t-63.5 -61.5t-87 -22.5t-87 22.5zM269 477.5q24 24.5 24 61.5q0 36 -24 60.5t-60 24.5t-60 -24.5t-24 -60.5t24 -61t60 -25t60 24.5z" />
    <glyph glyph-name="plusminus" unicode="&#xb1;" horiz-adv-x="581" 
d="M231 340h-169v108h169v142h120v-142h168v-108h-168v-141h-120v141zM519 0h-457v114h457v-114z" />
    <glyph glyph-name="paragraph" unicode="&#xb6;" horiz-adv-x="681" 
d="M82.5 378.5q-59.5 51.5 -59.5 135.5q0 89 66 138.5t172 49.5h353v-802h-130v698h-118v-698h-130v425q-94 2 -153.5 53.5z" />
    <glyph glyph-name="periodcentered" unicode="&#xb7;" horiz-adv-x="292" 
d="M89.5 217.5q-24.5 24.5 -24.5 57.5q0 34 23.5 58t57.5 24q36 0 58.5 -24.5t22.5 -57.5q0 -35 -24.5 -58.5t-56.5 -23.5t-56.5 24.5z" />
    <glyph glyph-name="guillemotright" unicode="&#xbb;" horiz-adv-x="520" 
d="M315 124q20 65 20 135t-20 135t-55 118l89 47q102 -137 102 -300t-102 -300l-89 47q35 53 55 118zM93 140.5q18 58.5 18 118.5t-18 118.5t-50 105.5l90 47q47 -63 70.5 -129.5t23.5 -141.5t-23.5 -141.5t-70.5 -129.5l-90 47q32 47 50 105.5z" />
    <glyph glyph-name="questiondown" unicode="&#xbf;" horiz-adv-x="423" 
d="M250 206q-11 -38 -41 -82q-5 -8 -17 -24q-26 -37 -38 -62.5t-12 -54.5q0 -38 27 -65t65 -27q29 0 51.5 16t33.5 41q3 6 5.5 11.5t4.5 10.5l79 -29q-13 -67 -66 -111.5t-123 -44.5q-52 0 -95 24.5t-67.5 67.5t-24.5 95q0 45 18 82t59 89q31 40 48.5 77t18.5 78h84
q1 -54 -10 -92zM268.5 486q21.5 -22 21.5 -51q0 -30 -20.5 -51t-50.5 -21q-33 0 -53 21t-20 51q0 31 22 52t51 21q28 0 49.5 -22z" />
    <glyph glyph-name="Agrave" unicode="&#xc0;" horiz-adv-x="688" 
d="M269 702h137l-259 -702h-137zM283 702h137l259 -702h-136zM197 264h301v-121h-301v121zM140 933h131l135 -142h-118z" />
    <glyph glyph-name="Aacute" unicode="&#xc1;" horiz-adv-x="688" 
d="M269 702h137l-259 -702h-137zM283 702h137l259 -702h-136zM197 264h301v-121h-301v121zM417 933h131l-149 -142h-117z" />
    <glyph glyph-name="Acircumflex" unicode="&#xc2;" horiz-adv-x="688" 
d="M269 702h137l-259 -702h-137zM283 702h137l259 -702h-136zM197 264h301v-121h-301v121zM347 874l-94 -83h-98l126 141h132l125 -141h-97z" />
    <glyph glyph-name="Atilde" unicode="&#xc3;" horiz-adv-x="688" 
d="M269 702h137l-259 -702h-137zM283 702h137l259 -702h-136zM197 264h301v-121h-301v121zM383.5 800q-19.5 9 -45.5 29q-18 14 -29 19.5t-22 5.5q-20 0 -33 -15t-15 -41h-74q2 66 32.5 103.5t81.5 37.5q24 0 43.5 -9t45.5 -29q18 -14 28.5 -19.5t21.5 -5.5q21 0 34 14.5
t15 38.5h74q-2 -63 -32.5 -100.5t-81.5 -37.5q-24 0 -43.5 9z" />
    <glyph glyph-name="Adieresis" unicode="&#xc4;" horiz-adv-x="688" 
d="M269 702h137l-259 -702h-137zM283 702h137l259 -702h-136zM197 264h301v-121h-301v121zM222 810.5q-20 19.5 -20 47.5t20 48t48 20t47.5 -20t19.5 -48t-19.5 -47.5t-47.5 -19.5t-48 19.5zM379.5 810.5q-19.5 19.5 -19.5 47.5t19.5 48t47.5 20t48 -20t20 -48t-20 -47.5
t-48 -19.5t-47.5 19.5z" />
    <glyph glyph-name="Aring" unicode="&#xc5;" horiz-adv-x="688" 
d="M269 702h137l-259 -702h-137zM283 702h137l259 -702h-136zM197 264h301v-121h-301v121zM260.5 825.5q-35.5 34.5 -35.5 83.5t35.5 83.5t86.5 34.5t86.5 -34.5t35.5 -83.5t-35.5 -83.5t-86.5 -34.5t-86.5 34.5zM390.5 865.5q17.5 17.5 17.5 43.5t-17.5 43.5t-43.5 17.5
t-43.5 -17.5t-17.5 -43.5t17 -43.5t44 -17.5q26 0 43.5 17.5z" />
    <glyph glyph-name="AE" unicode="&#xc6;" horiz-adv-x="946" 
d="M268 702h137l-260 -702h-137zM301 583v119h266v-119h-266zM195 264h257v-121h-257v121zM441 702h469l1 -119h-340v-177h303v-110h-303v-177h339v-119h-469v702z" />
    <glyph glyph-name="Ccedilla" unicode="&#xc7;" horiz-adv-x="773" 
d="M222.5 35.5q-79.5 49.5 -126.5 133.5t-47 183t47 183t126.5 133.5t173.5 49.5q79 0 148.5 -35t118 -97t67.5 -140l-111 -15q-23 72 -82 118t-132 46q-61 0 -113 -32.5t-82.5 -88.5t-30.5 -122t30.5 -122t82.5 -88.5t113 -32.5q73 0 132 45.5t82 117.5l112 -14
q-19 -78 -68 -140t-118.5 -97t-148.5 -35q-94 0 -173.5 49.5zM285 -243l15 66h72q46 0 46 35q0 17 -11 26.5t-31 9.5h-46l26 102h81l-15 -62q40 -4 62 -25.5t22 -53.5q0 -45 -38.5 -71.5t-102.5 -26.5h-80z" />
    <glyph glyph-name="Egrave" unicode="&#xc8;" horiz-adv-x="565" 
d="M60 702h469l1 -119h-340v-177h303v-110h-303v-177h339v-119h-469v702zM157 937h131l135 -142h-118z" />
    <glyph glyph-name="Eacute" unicode="&#xc9;" horiz-adv-x="565" 
d="M60 702h469l1 -119h-340v-177h303v-110h-303v-177h339v-119h-469v702zM357 933h131l-149 -142h-117z" />
    <glyph glyph-name="Ecircumflex" unicode="&#xca;" horiz-adv-x="565" 
d="M60 702h469l1 -119h-340v-177h303v-110h-303v-177h339v-119h-469v702zM302 874l-94 -83h-98l126 141h132l125 -141h-97z" />
    <glyph glyph-name="Edieresis" unicode="&#xcb;" horiz-adv-x="565" 
d="M60 702h469l1 -119h-340v-177h303v-110h-303v-177h339v-119h-469v702zM185 810.5q-20 19.5 -20 47.5t20 48t48 20t47.5 -20t19.5 -48t-19.5 -47.5t-47.5 -19.5t-48 19.5zM342.5 810.5q-19.5 19.5 -19.5 47.5t19.5 48t47.5 20t48 -20t20 -48t-20 -47.5t-48 -19.5
t-47.5 19.5z" />
    <glyph glyph-name="Igrave" unicode="&#xcc;" horiz-adv-x="248" 
d="M60 0v702h130v-702h-130zM-79 933h131l135 -142h-118z" />
    <glyph glyph-name="Iacute" unicode="&#xcd;" horiz-adv-x="248" 
d="M60 0v702h130v-702h-130zM197 933h131l-149 -142h-117z" />
    <glyph glyph-name="Icircumflex" unicode="&#xce;" horiz-adv-x="248" 
d="M60 0v702h130v-702h-130zM125 874l-94 -83h-98l126 141h132l125 -141h-97z" />
    <glyph glyph-name="Idieresis" unicode="&#xcf;" horiz-adv-x="248" 
d="M60 0v702h130v-702h-130zM-8 810.5q-20 19.5 -20 47.5t20 48t48 20t47.5 -20t19.5 -48t-19.5 -47.5t-47.5 -19.5t-48 19.5zM149.5 810.5q-19.5 19.5 -19.5 47.5t19.5 48t47.5 20t48 -20t20 -48t-20 -47.5t-48 -19.5t-47.5 19.5z" />
    <glyph glyph-name="Eth" unicode="&#xd0;" horiz-adv-x="728" 
d="M97 702h230q95 0 176 -47t128.5 -127.5t47.5 -175.5q0 -96 -47.5 -176.5t-128.5 -128t-176 -47.5h-230v702zM432 148.5q54 31.5 85.5 85.5t31.5 118t-31.5 117.5t-85.5 85t-118 31.5h-87v-469h87q64 0 118 31.5zM14 406h303v-110h-303v110z" />
    <glyph glyph-name="Ntilde" unicode="&#xd1;" horiz-adv-x="713" 
d="M465 0l-281 514v-514h-124v702h167l303 -562v562h124v-702h-189zM390.5 800q-19.5 9 -45.5 29q-18 14 -29 19.5t-22 5.5q-20 0 -33 -15t-15 -41h-74q2 66 32.5 103.5t81.5 37.5q24 0 43.5 -9t45.5 -29q18 -14 28.5 -19.5t21.5 -5.5q21 0 34 14.5t15 38.5h74
q-2 -63 -32.5 -100.5t-81.5 -37.5q-24 0 -43.5 9z" />
    <glyph glyph-name="Ograve" unicode="&#xd2;" horiz-adv-x="818" 
d="M229 35.5q-83 49.5 -131.5 133.5t-48.5 183t48.5 183t131.5 133.5t180 49.5t179.5 -49.5t131 -133.5t48.5 -183t-48.5 -183t-131 -133.5t-179.5 -49.5t-180 49.5zM523.5 141.5q52.5 32.5 83.5 88.5t31 122t-31 122t-83.5 88.5t-114.5 32.5q-63 0 -116 -32.5t-84 -88.5
t-31 -122t31 -122t84 -88.5t116 -32.5q62 0 114.5 32.5zM198 938h131l135 -142h-118z" />
    <glyph glyph-name="Oacute" unicode="&#xd3;" horiz-adv-x="818" 
d="M229 35.5q-83 49.5 -131.5 133.5t-48.5 183t48.5 183t131.5 133.5t180 49.5t179.5 -49.5t131 -133.5t48.5 -183t-48.5 -183t-131 -133.5t-179.5 -49.5t-180 49.5zM523.5 141.5q52.5 32.5 83.5 88.5t31 122t-31 122t-83.5 88.5t-114.5 32.5q-63 0 -116 -32.5t-84 -88.5
t-31 -122t31 -122t84 -88.5t116 -32.5q62 0 114.5 32.5zM474 938h131l-149 -142h-117z" />
    <glyph glyph-name="Ocircumflex" unicode="&#xd4;" horiz-adv-x="818" 
d="M229 35.5q-83 49.5 -131.5 133.5t-48.5 183t48.5 183t131.5 133.5t180 49.5t179.5 -49.5t131 -133.5t48.5 -183t-48.5 -183t-131 -133.5t-179.5 -49.5t-180 49.5zM523.5 141.5q52.5 32.5 83.5 88.5t31 122t-31 122t-83.5 88.5t-114.5 32.5q-63 0 -116 -32.5t-84 -88.5
t-31 -122t31 -122t84 -88.5t116 -32.5q62 0 114.5 32.5zM406 880l-94 -83h-98l126 141h132l125 -141h-97z" />
    <glyph glyph-name="Otilde" unicode="&#xd5;" horiz-adv-x="818" 
d="M229 35.5q-83 49.5 -131.5 133.5t-48.5 183t48.5 183t131.5 133.5t180 49.5t179.5 -49.5t131 -133.5t48.5 -183t-48.5 -183t-131 -133.5t-179.5 -49.5t-180 49.5zM523.5 141.5q52.5 32.5 83.5 88.5t31 122t-31 122t-83.5 88.5t-114.5 32.5q-63 0 -116 -32.5t-84 -88.5
t-31 -122t31 -122t84 -88.5t116 -32.5q62 0 114.5 32.5zM436.5 805q-19.5 9 -45.5 29q-18 14 -29 19.5t-22 5.5q-20 0 -33 -15t-15 -41h-74q2 66 32.5 103.5t81.5 37.5q24 0 43.5 -9t45.5 -29q18 -14 28.5 -19.5t21.5 -5.5q21 0 34 14.5t15 38.5h74q-2 -63 -32.5 -100.5
t-81.5 -37.5q-24 0 -43.5 9z" />
    <glyph glyph-name="Odieresis" unicode="&#xd6;" horiz-adv-x="818" 
d="M229 35.5q-83 49.5 -131.5 133.5t-48.5 183t48.5 183t131.5 133.5t180 49.5t179.5 -49.5t131 -133.5t48.5 -183t-48.5 -183t-131 -133.5t-179.5 -49.5t-180 49.5zM523.5 141.5q52.5 32.5 83.5 88.5t31 122t-31 122t-83.5 88.5t-114.5 32.5q-63 0 -116 -32.5t-84 -88.5
t-31 -122t31 -122t84 -88.5t116 -32.5q62 0 114.5 32.5zM285 814.5q-20 19.5 -20 47.5t20 48t48 20t47.5 -20t19.5 -48t-19.5 -47.5t-47.5 -19.5t-48 19.5zM442.5 814.5q-19.5 19.5 -19.5 47.5t19.5 48t47.5 20t48 -20t20 -48t-20 -47.5t-48 -19.5t-47.5 19.5z" />
    <glyph glyph-name="multiply" unicode="&#xd7;" horiz-adv-x="559" 
d="M72 223l127 127l-127 127l81 80l126 -126l127 126l81 -80l-127 -127l127 -127l-81 -80l-127 126l-126 -126z" />
    <glyph glyph-name="Oslash" unicode="&#xd8;" horiz-adv-x="818" 
d="M229 35.5q-83 49.5 -131.5 133.5t-48.5 183t48.5 183t131.5 133.5t180 49.5t179.5 -49.5t131 -133.5t48.5 -183t-48.5 -183t-131 -133.5t-179.5 -49.5t-180 49.5zM524.5 141.5q52.5 32.5 83.5 88.5t31 122t-31 122t-83.5 88.5t-114.5 32.5q-63 0 -116 -32.5t-84 -88.5
t-31 -122t31 -122t84 -88.5t116 -32.5q62 0 114.5 32.5zM333 -50h-130l281 803h130z" />
    <glyph glyph-name="Ugrave" unicode="&#xd9;" horiz-adv-x="652" 
d="M190 31.5q-62 36.5 -98 98.5t-36 135v437h130v-444q0 -38 19 -70t51 -51t70 -19t70 19t51 51t19 70v444h130v-437q0 -73 -36.5 -135t-98.5 -98.5t-135 -36.5q-74 0 -136 36.5zM126 933h131l135 -142h-118z" />
    <glyph glyph-name="Uacute" unicode="&#xda;" horiz-adv-x="652" 
d="M190 31.5q-62 36.5 -98 98.5t-36 135v437h130v-444q0 -38 19 -70t51 -51t70 -19t70 19t51 51t19 70v444h130v-437q0 -73 -36.5 -135t-98.5 -98.5t-135 -36.5q-74 0 -136 36.5zM400 933h131l-149 -142h-117z" />
    <glyph glyph-name="Ucircumflex" unicode="&#xdb;" horiz-adv-x="652" 
d="M190 31.5q-62 36.5 -98 98.5t-36 135v437h130v-444q0 -38 19 -70t51 -51t70 -19t70 19t51 51t19 70v444h130v-437q0 -73 -36.5 -135t-98.5 -98.5t-135 -36.5q-74 0 -136 36.5zM328 874l-94 -83h-98l126 141h132l125 -141h-97z" />
    <glyph glyph-name="Udieresis" unicode="&#xdc;" horiz-adv-x="652" 
d="M190 31.5q-62 36.5 -98 98.5t-36 135v437h130v-444q0 -38 19 -70t51 -51t70 -19t70 19t51 51t19 70v444h130v-437q0 -73 -36.5 -135t-98.5 -98.5t-135 -36.5q-74 0 -136 36.5zM204 810.5q-20 19.5 -20 47.5t20 48t48 20t47.5 -20t19.5 -48t-19.5 -47.5t-47.5 -19.5
t-48 19.5zM361.5 810.5q-19.5 19.5 -19.5 47.5t19.5 48t47.5 20t48 -20t20 -48t-20 -47.5t-48 -19.5t-47.5 19.5z" />
    <glyph glyph-name="Yacute" unicode="&#xdd;" horiz-adv-x="600" 
d="M233 228l-223 474h141l146 -317l152 317h141l-227 -474v-228h-130v228zM374 933h131l-149 -142h-117z" />
    <glyph glyph-name="Thorn" unicode="&#xde;" horiz-adv-x="591" 
d="M60 601h265q64 0 119 -32t87.5 -87t32.5 -120t-32.5 -120t-87.5 -87.5t-119 -32.5h-135v-122h-130v601zM375 258q27 16 43 44t16 60t-16 59.5t-43.5 43.5t-58.5 16h-126v-239h126q32 0 59 16zM60 702h130v-230h-130v230z" />
    <glyph glyph-name="germandbls" unicode="&#xdf;" horiz-adv-x="599" 
d="M174 0l-113 -1v527q0 56 27 103t73.5 74.5t102.5 27.5t103.5 -27.5t75 -74.5t27.5 -103t-27.5 -103t-75 -74.5t-103.5 -27.5v114q38 0 64.5 26.5t26.5 64.5t-26.5 64.5t-64.5 26.5t-64 -26.5t-26 -64.5v-526zM238 3l48 105q23 -10 48 -10q46 0 78 32.5t32 79.5
q0 46 -32 78t-78 32h-72v96h71q63 0 115 -25.5t82 -72.5t30 -108q0 -63 -30 -115t-82 -82t-115 -30q-50 0 -95 20z" />
    <glyph glyph-name="agrave" unicode="&#xe0;" horiz-adv-x="633" 
d="M171 25.5q-61 35.5 -96.5 96.5t-35.5 133q0 71 35.5 131.5t96.5 96.5t133 36q69 0 118.5 -35.5t74.5 -95.5t25 -134t-25 -134t-74.5 -95t-118.5 -35q-72 0 -133 35.5zM382.5 130q32.5 19 51.5 52t19 72t-19 72t-51.5 52t-71.5 19t-71.5 -19t-51.5 -52t-19 -72t19 -72
t51.5 -52t71.5 -19t71.5 19zM475 172l-22 -5v166h130v-333h-108v172zM453 341l22 -4v171h108v-333h-130v166zM103 760h131l135 -142h-118z" />
    <glyph glyph-name="aacute" unicode="&#xe1;" horiz-adv-x="633" 
d="M171 25.5q-61 35.5 -96.5 96.5t-35.5 133q0 71 35.5 131.5t96.5 96.5t133 36q69 0 118.5 -35.5t74.5 -95.5t25 -134t-25 -134t-74.5 -95t-118.5 -35q-72 0 -133 35.5zM382.5 130q32.5 19 51.5 52t19 72t-19 72t-51.5 52t-71.5 19t-71.5 -19t-51.5 -52t-19 -72t19 -72
t51.5 -52t71.5 -19t71.5 19zM475 172l-22 -5v166h130v-333h-108v172zM453 341l22 -4v171h108v-333h-130v166zM363 760h131l-149 -142h-117z" />
    <glyph glyph-name="acircumflex" unicode="&#xe2;" horiz-adv-x="633" 
d="M171 25.5q-61 35.5 -96.5 96.5t-35.5 133q0 71 35.5 131.5t96.5 96.5t133 36q69 0 118.5 -35.5t74.5 -95.5t25 -134t-25 -134t-74.5 -95t-118.5 -35q-72 0 -133 35.5zM382.5 130q32.5 19 51.5 52t19 72t-19 72t-51.5 52t-71.5 19t-71.5 -19t-51.5 -52t-19 -72t19 -72
t51.5 -52t71.5 -19t71.5 19zM475 172l-22 -5v166h130v-333h-108v172zM453 341l22 -4v171h108v-333h-130v166zM306 699l-94 -83h-98l126 141h132l125 -141h-97z" />
    <glyph glyph-name="atilde" unicode="&#xe3;" horiz-adv-x="633" 
d="M171 25.5q-61 35.5 -96.5 96.5t-35.5 133q0 71 35.5 131.5t96.5 96.5t133 36q69 0 118.5 -35.5t74.5 -95.5t25 -134t-25 -134t-74.5 -95t-118.5 -35q-72 0 -133 35.5zM382.5 130q32.5 19 51.5 52t19 72t-19 72t-51.5 52t-71.5 19t-71.5 -19t-51.5 -52t-19 -72t19 -72
t51.5 -52t71.5 -19t71.5 19zM475 172l-22 -5v166h130v-333h-108v172zM453 341l22 -4v171h108v-333h-130v166zM343.5 631q-19.5 9 -45.5 29q-18 14 -29 19.5t-22 5.5q-20 0 -33 -15t-15 -41h-74q2 66 32.5 103.5t81.5 37.5q24 0 43.5 -9t45.5 -29q18 -14 28.5 -19.5
t21.5 -5.5q21 0 34 14.5t15 38.5h74q-2 -63 -32.5 -100.5t-81.5 -37.5q-24 0 -43.5 9z" />
    <glyph glyph-name="adieresis" unicode="&#xe4;" horiz-adv-x="633" 
d="M171 25.5q-61 35.5 -96.5 96.5t-35.5 133q0 71 35.5 131.5t96.5 96.5t133 36q69 0 118.5 -35.5t74.5 -95.5t25 -134t-25 -134t-74.5 -95t-118.5 -35q-72 0 -133 35.5zM382.5 130q32.5 19 51.5 52t19 72t-19 72t-51.5 52t-71.5 19t-71.5 -19t-51.5 -52t-19 -72t19 -72
t51.5 -52t71.5 -19t71.5 19zM475 172l-22 -5v166h130v-333h-108v172zM453 341l22 -4v171h108v-333h-130v166zM178 633.5q-20 19.5 -20 47.5t20 48t48 20t47.5 -20t19.5 -48t-19.5 -47.5t-47.5 -19.5t-48 19.5zM335.5 633.5q-19.5 19.5 -19.5 47.5t19.5 48t47.5 20t48 -20
t20 -48t-20 -47.5t-48 -19.5t-47.5 19.5z" />
    <glyph glyph-name="aring" unicode="&#xe5;" horiz-adv-x="633" 
d="M171 25.5q-61 35.5 -96.5 96.5t-35.5 133q0 71 35.5 131.5t96.5 96.5t133 36q69 0 118.5 -35.5t74.5 -95.5t25 -134t-25 -134t-74.5 -95t-118.5 -35q-72 0 -133 35.5zM382.5 130q32.5 19 51.5 52t19 72t-19 72t-51.5 52t-71.5 19t-71.5 -19t-51.5 -52t-19 -72t19 -72
t51.5 -52t71.5 -19t71.5 19zM475 172l-22 -5v166h130v-333h-108v172zM453 341l22 -4v171h108v-333h-130v166zM215.5 652.5q-35.5 34.5 -35.5 83.5t35.5 83.5t86.5 34.5t86.5 -34.5t35.5 -83.5t-35.5 -83.5t-86.5 -34.5t-86.5 34.5zM345.5 692.5q17.5 17.5 17.5 43.5
t-17.5 43.5t-43.5 17.5t-43.5 -17.5t-17.5 -43.5t17 -43.5t44 -17.5q26 0 43.5 17.5z" />
    <glyph glyph-name="ae" unicode="&#xe6;" horiz-adv-x="1022" 
d="M171 25.5q-61 35.5 -96.5 96.5t-35.5 133q0 71 35.5 131.5t96.5 96.5t133 36q69 0 118.5 -35.5t74.5 -95.5t25 -134t-25 -134t-74.5 -95t-118.5 -35q-72 0 -133 35.5zM382.5 130q32.5 19 51.5 52t19 72t-19 72t-51.5 52t-71.5 19t-71.5 -19t-51.5 -52t-19 -72t19 -72
t51.5 -52t71.5 -19t71.5 19zM474 172l-21 -5v166h120v-333h-99v172zM453 341l21 -4v171h99v-333h-120v166zM617 25.5q-52 35.5 -80 96t-28 133.5t28 133t80 95.5t119 35.5q73 0 131 -35.5t90.5 -96t32.5 -132.5q0 -20 -4 -50l-95 50q0 42 -20.5 77.5t-55.5 56.5t-77 21
t-77.5 -21t-56.5 -56.5t-21 -77.5q0 -43 19.5 -79.5t55 -58t80.5 -21.5q41 0 74 16.5t55 47.5l95 -49q-35 -57 -94.5 -89t-131.5 -32q-67 0 -119 35.5zM579 300h385l22 -95h-407v95z" />
    <glyph glyph-name="ccedilla" unicode="&#xe7;" horiz-adv-x="596" 
d="M171 25.5q-61 35.5 -96.5 96.5t-35.5 133q0 71 35.5 132t96.5 96.5t133 35.5q63 0 117 -27t90 -74.5t47 -105.5l-111 -16q-14 44 -51.5 73t-83.5 29q-39 0 -72 -19.5t-52 -52.5t-19 -72t19 -72t52 -52t72 -19q46 0 83.5 28.5t51.5 73.5l111 -16q-11 -58 -47 -105.5
t-90 -74.5t-117 -27q-72 0 -133 35.5zM192 -239l16 66h71q46 0 46 36q0 16 -11 25.5t-30 9.5h-46l26 102h80l-15 -62q41 -4 63 -25.5t22 -53.5q0 -45 -39 -71.5t-102 -26.5h-81z" />
    <glyph glyph-name="egrave" unicode="&#xe8;" horiz-adv-x="593" 
d="M174 26q-61 36 -96.5 97t-35.5 132t35.5 132t96.5 96.5t133 35.5q73 0 130.5 -35.5t90 -96t32.5 -132.5q0 -27 -3 -50h-390q11 -47 50 -78t91 -31q82 0 130 64l94 -49q-35 -57 -94 -89t-131 -32t-133 36zM395 380.5q-38 29.5 -87 29.5t-87 -29.5t-50 -74.5h274
q-12 45 -50 74.5zM114 760h131l135 -142h-118z" />
    <glyph glyph-name="eacute" unicode="&#xe9;" horiz-adv-x="593" 
d="M174 26q-61 36 -96.5 97t-35.5 132t35.5 132t96.5 96.5t133 35.5q73 0 130.5 -35.5t90 -96t32.5 -132.5q0 -27 -3 -50h-390q11 -47 50 -78t91 -31q82 0 130 64l94 -49q-35 -57 -94 -89t-131 -32t-133 36zM395 380.5q-38 29.5 -87 29.5t-87 -29.5t-50 -74.5h274
q-12 45 -50 74.5zM374 759h131l-149 -142h-117z" />
    <glyph glyph-name="ecircumflex" unicode="&#xea;" horiz-adv-x="593" 
d="M174 26q-61 36 -96.5 97t-35.5 132t35.5 132t96.5 96.5t133 35.5q73 0 130.5 -35.5t90 -96t32.5 -132.5q0 -27 -3 -50h-390q11 -47 50 -78t91 -31q82 0 130 64l94 -49q-35 -57 -94 -89t-131 -32t-133 36zM395 380.5q-38 29.5 -87 29.5t-87 -29.5t-50 -74.5h274
q-12 45 -50 74.5zM313 697l-94 -83h-98l126 141h132l125 -141h-97z" />
    <glyph glyph-name="edieresis" unicode="&#xeb;" horiz-adv-x="593" 
d="M174 26q-61 36 -96.5 97t-35.5 132t35.5 132t96.5 96.5t133 35.5q73 0 130.5 -35.5t90 -96t32.5 -132.5q0 -27 -3 -50h-390q11 -47 50 -78t91 -31q82 0 130 64l94 -49q-35 -57 -94 -89t-131 -32t-133 36zM395 380.5q-38 29.5 -87 29.5t-87 -29.5t-50 -74.5h274
q-12 45 -50 74.5zM178 630.5q-20 19.5 -20 47.5t20 48t48 20t47.5 -20t19.5 -48t-19.5 -47.5t-47.5 -19.5t-48 19.5zM335.5 630.5q-19.5 19.5 -19.5 47.5t19.5 48t47.5 20t48 -20t20 -48t-20 -47.5t-48 -19.5t-47.5 19.5z" />
    <glyph glyph-name="igrave" unicode="&#xec;" horiz-adv-x="236" 
d="M53 508h130v-508h-130v508zM-87 749h131l135 -141h-117z" />
    <glyph glyph-name="iacute" unicode="&#xed;" horiz-adv-x="236" 
d="M53 508h130v-508h-130v508zM193 750h130l-148 -142h-117z" />
    <glyph glyph-name="icircumflex" unicode="&#xee;" horiz-adv-x="236" 
d="M53 508h130v-508h-130v508zM118 691l-94 -83h-98l126 142h132l126 -142h-98z" />
    <glyph glyph-name="idieresis" unicode="&#xef;" horiz-adv-x="236" 
d="M53 508h130v-508h-130v508zM-8.5 628q-19.5 20 -19.5 48t19.5 47.5t47.5 19.5t48 -19.5t20 -47.5t-20 -48t-48 -20t-47.5 20zM149 628q-20 20 -20 48t20 47.5t48 19.5t47.5 -19.5t19.5 -47.5t-19.5 -48t-47.5 -20t-48 20z" />
    <glyph glyph-name="eth" unicode="&#xf0;" horiz-adv-x="628" 
d="M183 22.5q-57 33.5 -90.5 91t-33.5 125.5q0 66 33 117t88.5 79t121.5 28q43 0 80.5 -23.5t53.5 -58.5q2 48 -13 97t-46.5 81.5t-76.5 32.5h-65v120h63q91 0 153 -53t92 -142t30 -197q0 -99 -31.5 -174t-91.5 -116t-143 -41q-67 0 -124 33.5zM396 144q36 35 36 84t-36 84
t-86 35t-85.5 -35t-35.5 -84t35.5 -84t85.5 -35t86 35zM263 520l272 161l36 -58l-272 -161z" />
    <glyph glyph-name="ntilde" unicode="&#xf1;" horiz-adv-x="562" 
d="M365 359q-32 32 -77 32q-44 0 -76 -32.5t-32 -76.5h-68q0 60 24 114.5t69 88.5t106 34t110.5 -31.5t77.5 -85t28 -116.5v-286h-130v282q0 45 -32 77zM50 508h108v-114l22 -5v-389h-130v508zM354.5 621q-19.5 9 -45.5 29q-18 14 -29 19.5t-22 5.5q-20 0 -33 -15t-15 -41
h-74q2 66 32.5 103.5t81.5 37.5q24 0 43.5 -9t45.5 -29q18 -14 28.5 -19.5t21.5 -5.5q21 0 34 14.5t15 38.5h74q-2 -63 -32.5 -100.5t-81.5 -37.5q-24 0 -43.5 9z" />
    <glyph glyph-name="ograve" unicode="&#xf2;" horiz-adv-x="622" 
d="M175 25.5q-63 35.5 -99.5 96.5t-36.5 133t36.5 132.5t99.5 96t137 35.5t136 -35.5t98.5 -96t36.5 -132.5t-36.5 -133t-98.5 -96.5t-136 -35.5t-137 35.5zM382.5 130q32.5 19 51.5 52t19 72t-19 72t-51.5 52t-71.5 19t-71.5 -19t-51.5 -52t-19 -72t19 -72t51.5 -52
t71.5 -19t71.5 19zM106 758h131l135 -142h-118z" />
    <glyph glyph-name="oacute" unicode="&#xf3;" horiz-adv-x="622" 
d="M175 25.5q-63 35.5 -99.5 96.5t-36.5 133t36.5 132.5t99.5 96t137 35.5t136 -35.5t98.5 -96t36.5 -132.5t-36.5 -133t-98.5 -96.5t-136 -35.5t-137 35.5zM382.5 130q32.5 19 51.5 52t19 72t-19 72t-51.5 52t-71.5 19t-71.5 -19t-51.5 -52t-19 -72t19 -72t51.5 -52
t71.5 -19t71.5 19zM376 757h131l-149 -142h-117z" />
    <glyph glyph-name="ocircumflex" unicode="&#xf4;" horiz-adv-x="622" 
d="M175 25.5q-63 35.5 -99.5 96.5t-36.5 133t36.5 132.5t99.5 96t137 35.5t136 -35.5t98.5 -96t36.5 -132.5t-36.5 -133t-98.5 -96.5t-136 -35.5t-137 35.5zM382.5 130q32.5 19 51.5 52t19 72t-19 72t-51.5 52t-71.5 19t-71.5 -19t-51.5 -52t-19 -72t19 -72t51.5 -52
t71.5 -19t71.5 19zM311 694l-94 -83h-98l126 141h132l125 -141h-97z" />
    <glyph glyph-name="otilde" unicode="&#xf5;" horiz-adv-x="622" 
d="M175 25.5q-63 35.5 -99.5 96.5t-36.5 133t36.5 132.5t99.5 96t137 35.5t136 -35.5t98.5 -96t36.5 -132.5t-36.5 -133t-98.5 -96.5t-136 -35.5t-137 35.5zM382.5 130q32.5 19 51.5 52t19 72t-19 72t-51.5 52t-71.5 19t-71.5 -19t-51.5 -52t-19 -72t19 -72t51.5 -52
t71.5 -19t71.5 19zM347.5 620q-19.5 9 -45.5 29q-18 14 -29 19.5t-22 5.5q-20 0 -33 -15t-15 -41h-74q2 66 32.5 103.5t81.5 37.5q24 0 43.5 -9t45.5 -29q18 -14 28.5 -19.5t21.5 -5.5q21 0 34 14.5t15 38.5h74q-2 -63 -32.5 -100.5t-81.5 -37.5q-24 0 -43.5 9z" />
    <glyph glyph-name="odieresis" unicode="&#xf6;" horiz-adv-x="622" 
d="M175 25.5q-63 35.5 -99.5 96.5t-36.5 133t36.5 132.5t99.5 96t137 35.5t136 -35.5t98.5 -96t36.5 -132.5t-36.5 -133t-98.5 -96.5t-136 -35.5t-137 35.5zM382.5 130q32.5 19 51.5 52t19 72t-19 72t-51.5 52t-71.5 19t-71.5 -19t-51.5 -52t-19 -72t19 -72t51.5 -52
t71.5 -19t71.5 19zM184 628.5q-20 19.5 -20 47.5t20 48t48 20t47.5 -20t19.5 -48t-19.5 -47.5t-47.5 -19.5t-48 19.5zM341.5 628.5q-19.5 19.5 -19.5 47.5t19.5 48t47.5 20t48 -20t20 -48t-20 -47.5t-48 -19.5t-47.5 19.5z" />
    <glyph glyph-name="divide" unicode="&#xf7;" horiz-adv-x="598" 
d="M62 407h473v-115h-473v115zM242.5 86q-24.5 25 -24.5 57q0 34 23.5 58t57.5 24q36 0 58.5 -24.5t22.5 -57.5q0 -35 -24.5 -58.5t-56.5 -23.5t-56.5 25zM242.5 499.5q-24.5 24.5 -24.5 57.5t23.5 57.5t57.5 24.5q36 0 58.5 -24.5t22.5 -57.5q0 -35 -24.5 -58.5
t-56.5 -23.5t-56.5 24.5z" />
    <glyph glyph-name="oslash" unicode="&#xf8;" horiz-adv-x="622" 
d="M175 25.5q-63 35.5 -99.5 96.5t-36.5 133t36.5 132.5t99.5 96t137 35.5t136 -35.5t98.5 -96t36.5 -132.5t-36.5 -133t-98.5 -96.5t-136 -35.5t-137 35.5zM385 126q34 20 53.5 54t19.5 74t-19.5 74t-53.5 54t-74 20t-74 -20t-53.5 -54t-19.5 -74t19.5 -74t53.5 -54t74 -20
t74 20zM261 -50h-112l215 613h112z" />
    <glyph glyph-name="ugrave" unicode="&#xf9;" horiz-adv-x="566" 
d="M140.5 21.5q-49.5 31.5 -77.5 85t-28 116.5v285h130v-281q0 -45 31.5 -77t77.5 -32q44 0 76 32t32 77h69q0 -60 -24 -114.5t-69.5 -88.5t-106.5 -34t-110.5 31.5zM404 115l-22 5v388h130v-508h-108v115zM66 750h131l135 -142h-118z" />
    <glyph glyph-name="uacute" unicode="&#xfa;" horiz-adv-x="566" 
d="M140.5 21.5q-49.5 31.5 -77.5 85t-28 116.5v285h130v-281q0 -45 31.5 -77t77.5 -32q44 0 76 32t32 77h69q0 -60 -24 -114.5t-69.5 -88.5t-106.5 -34t-110.5 31.5zM404 115l-22 5v388h130v-508h-108v115zM345 749h131l-149 -142h-117z" />
    <glyph glyph-name="ucircumflex" unicode="&#xfb;" horiz-adv-x="566" 
d="M140.5 21.5q-49.5 31.5 -77.5 85t-28 116.5v285h130v-281q0 -45 31.5 -77t77.5 -32q44 0 76 32t32 77h69q0 -60 -24 -114.5t-69.5 -88.5t-106.5 -34t-110.5 31.5zM404 115l-22 5v388h130v-508h-108v115zM282 691l-94 -83h-98l126 141h132l125 -141h-97z" />
    <glyph glyph-name="udieresis" unicode="&#xfc;" horiz-adv-x="566" 
d="M140.5 21.5q-49.5 31.5 -77.5 85t-28 116.5v285h130v-281q0 -45 31.5 -77t77.5 -32q44 0 76 32t32 77h69q0 -60 -24 -114.5t-69.5 -88.5t-106.5 -34t-110.5 31.5zM404 115l-22 5v388h130v-508h-108v115zM150 626.5q-20 19.5 -20 47.5t20 48t48 20t47.5 -20t19.5 -48
t-19.5 -47.5t-47.5 -19.5t-48 19.5zM307.5 626.5q-19.5 19.5 -19.5 47.5t19.5 48t47.5 20t48 -20t20 -48t-20 -47.5t-48 -19.5t-47.5 19.5z" />
    <glyph glyph-name="yacute" unicode="&#xfd;" horiz-adv-x="557" 
d="M47 -113h85q32 0 55 16.5t33 45.5l187 559h132l-195 -587q-18 -71 -73 -115t-130 -44h-94v125zM12 508h131l157 -508h-131zM347 750h131l-149 -142h-117z" />
    <glyph glyph-name="thorn" unicode="&#xfe;" horiz-adv-x="641" 
d="M218.5 25q-49.5 35 -74.5 95t-25 134t25 134t74.5 95.5t118.5 35.5q72 0 133 -36t96.5 -97t35.5 -132t-35.5 -132t-96.5 -96.5t-133 -35.5q-69 0 -118.5 35zM57 721h129v-303l1 -29v-583h-130v915zM401 130q33 19 52 52t19 72t-19 72t-52 52t-72 19t-71.5 -19t-51.5 -52
t-19 -72t19 -72t51.5 -52t71.5 -19t72 19z" />
    <glyph glyph-name="ydieresis" unicode="&#xff;" horiz-adv-x="557" 
d="M47 -113h85q32 0 55 16.5t33 45.5l187 559h132l-195 -587q-18 -71 -73 -115t-130 -44h-94v125zM12 508h131l157 -508h-131zM150 626.5q-20 19.5 -20 47.5t20 48t48 20t47.5 -20t19.5 -48t-19.5 -47.5t-47.5 -19.5t-48 19.5zM307.5 626.5q-19.5 19.5 -19.5 47.5t19.5 48
t47.5 20t48 -20t20 -48t-20 -47.5t-48 -19.5t-47.5 19.5z" />
    <glyph glyph-name="Amacron" unicode="&#x100;" horiz-adv-x="688" 
d="M269 702h137l-259 -702h-137zM283 702h137l259 -702h-136zM197 264h301v-121h-301v121zM488 791h-292v82h292v-82z" />
    <glyph glyph-name="amacron" unicode="&#x101;" horiz-adv-x="633" 
d="M171 25.5q-61 35.5 -96.5 96.5t-35.5 133q0 71 35.5 131.5t96.5 96.5t133 36q69 0 118.5 -35.5t74.5 -95.5t25 -134t-25 -134t-74.5 -95t-118.5 -35q-72 0 -133 35.5zM382.5 130q32.5 19 51.5 52t19 72t-19 72t-51.5 52t-71.5 19t-71.5 -19t-51.5 -52t-19 -72t19 -72
t51.5 -52t71.5 -19t71.5 19zM475 172l-22 -5v166h130v-333h-108v172zM453 341l22 -4v171h108v-333h-130v166zM444 618h-292v82h292v-82z" />
    <glyph glyph-name="Abreve" unicode="&#x102;" horiz-adv-x="688" 
d="M269 702h137l-259 -702h-137zM283 702h137l259 -702h-136zM197 264h301v-121h-301v121zM213 831.5q-50 40.5 -52 108.5h91q2 -33 26.5 -53t62.5 -20t62.5 20t26.5 53h91q-2 -68 -52 -108.5t-128 -40.5t-128 40.5z" />
    <glyph glyph-name="abreve" unicode="&#x103;" horiz-adv-x="633" 
d="M171 25.5q-61 35.5 -96.5 96.5t-35.5 133q0 71 35.5 131.5t96.5 96.5t133 36q69 0 118.5 -35.5t74.5 -95.5t25 -134t-25 -134t-74.5 -95t-118.5 -35q-72 0 -133 35.5zM382.5 130q32.5 19 51.5 52t19 72t-19 72t-51.5 52t-71.5 19t-71.5 -19t-51.5 -52t-19 -72t19 -72
t51.5 -52t71.5 -19t71.5 19zM475 172l-22 -5v166h130v-333h-108v172zM453 341l22 -4v171h108v-333h-130v166zM170 658.5q-50 40.5 -52 108.5h91q2 -33 26.5 -53t62.5 -20t62.5 20t26.5 53h91q-2 -68 -52 -108.5t-128 -40.5t-128 40.5z" />
    <glyph glyph-name="Aogonek" unicode="&#x104;" horiz-adv-x="688" 
d="M269 702h137l-259 -702h-137zM283 702h137l259 -702h-136zM197 264h301v-121h-301v121zM504 -201q-36 29 -36 79q0 51 40 91.5t117 67.5l53 -37q-59 -27 -89 -53t-30 -56q0 -23 15.5 -36.5t44.5 -13.5h59v-71h-76q-62 0 -98 29z" />
    <glyph glyph-name="aogonek" unicode="&#x105;" horiz-adv-x="633" 
d="M171 25.5q-61 35.5 -96.5 96.5t-35.5 133q0 71 35.5 131.5t96.5 96.5t133 36q69 0 118.5 -35.5t74.5 -95.5t25 -134t-25 -134t-74.5 -95t-118.5 -35q-72 0 -133 35.5zM382.5 130q32.5 19 51.5 52t19 72t-19 72t-51.5 52t-71.5 19t-71.5 -19t-51.5 -52t-19 -72t19 -72
t51.5 -52t71.5 -19t71.5 19zM475 172l-22 -5v166h130v-333h-108v172zM453 341l22 -4v171h108v-333h-130v166zM409.5 -201q-35.5 29 -35.5 79q0 51 39.5 91.5t116.5 67.5l53 -37q-59 -27 -88.5 -53t-29.5 -56q0 -23 15.5 -36.5t43.5 -13.5h59v-71h-76q-62 0 -97.5 29z" />
    <glyph glyph-name="Cacute" unicode="&#x106;" horiz-adv-x="773" 
d="M222.5 35.5q-79.5 49.5 -126.5 133.5t-47 183t47 183t126.5 133.5t173.5 49.5q79 0 148.5 -35t118 -97t67.5 -140l-111 -15q-23 72 -82 118t-132 46q-61 0 -113 -32.5t-82.5 -88.5t-30.5 -122t30.5 -122t82.5 -88.5t113 -32.5q73 0 132 45.5t82 117.5l112 -14
q-19 -78 -68 -140t-118.5 -97t-148.5 -35q-94 0 -173.5 49.5zM464 938h131l-149 -142h-117z" />
    <glyph glyph-name="cacute" unicode="&#x107;" horiz-adv-x="596" 
d="M171 25.5q-61 35.5 -96.5 96.5t-35.5 133q0 71 35.5 132t96.5 96.5t133 35.5q63 0 117 -27t90 -74.5t47 -105.5l-111 -16q-14 44 -51.5 73t-83.5 29q-39 0 -72 -19.5t-52 -52.5t-19 -72t19 -72t52 -52t72 -19q46 0 83.5 28.5t51.5 73.5l111 -16q-11 -58 -47 -105.5
t-90 -74.5t-117 -27q-72 0 -133 35.5zM368 759h131l-149 -142h-117z" />
    <glyph glyph-name="Cdotaccent" unicode="&#x10a;" horiz-adv-x="773" 
d="M222.5 35.5q-79.5 49.5 -126.5 133.5t-47 183t47 183t126.5 133.5t173.5 49.5q79 0 148.5 -35t118 -97t67.5 -140l-111 -15q-23 72 -82 118t-132 46q-61 0 -113 -32.5t-82.5 -88.5t-30.5 -122t30.5 -122t82.5 -88.5t113 -32.5q73 0 132 45.5t82 117.5l112 -14
q-19 -78 -68 -140t-118.5 -97t-148.5 -35q-94 0 -173.5 49.5zM350 817.5q-20 19.5 -20 47.5t20 48t48 20t47.5 -20t19.5 -48t-19.5 -47.5t-47.5 -19.5t-48 19.5z" />
    <glyph glyph-name="cdotaccent" unicode="&#x10b;" horiz-adv-x="596" 
d="M171 25.5q-61 35.5 -96.5 96.5t-35.5 133q0 71 35.5 132t96.5 96.5t133 35.5q63 0 117 -27t90 -74.5t47 -105.5l-111 -16q-14 44 -51.5 73t-83.5 29q-39 0 -72 -19.5t-52 -52.5t-19 -72t19 -72t52 -52t72 -19q46 0 83.5 28.5t51.5 73.5l111 -16q-11 -58 -47 -105.5
t-90 -74.5t-117 -27q-72 0 -133 35.5zM254 636.5q-20 19.5 -20 47.5t20 48t48 20t47.5 -20t19.5 -48t-19.5 -47.5t-47.5 -19.5t-48 19.5z" />
    <glyph glyph-name="Ccaron" unicode="&#x10c;" horiz-adv-x="773" 
d="M222.5 35.5q-79.5 49.5 -126.5 133.5t-47 183t47 183t126.5 133.5t173.5 49.5q79 0 148.5 -35t118 -97t67.5 -140l-111 -15q-23 72 -82 118t-132 46q-61 0 -113 -32.5t-82.5 -88.5t-30.5 -122t30.5 -122t82.5 -88.5t113 -32.5q73 0 132 45.5t82 117.5l112 -14
q-19 -78 -68 -140t-118.5 -97t-148.5 -35q-94 0 -173.5 49.5zM460 796h-132l-126 142h98l94 -83l94 83h97z" />
    <glyph glyph-name="ccaron" unicode="&#x10d;" horiz-adv-x="596" 
d="M171 25.5q-61 35.5 -96.5 96.5t-35.5 133q0 71 35.5 132t96.5 96.5t133 35.5q63 0 117 -27t90 -74.5t47 -105.5l-111 -16q-14 44 -51.5 73t-83.5 29q-39 0 -72 -19.5t-52 -52.5t-19 -72t19 -72t52 -52t72 -19q46 0 83.5 28.5t51.5 73.5l111 -16q-11 -58 -47 -105.5
t-90 -74.5t-117 -27q-72 0 -133 35.5zM372 618h-132l-126 142h98l94 -83l94 83h97z" />
    <glyph glyph-name="Dcaron" unicode="&#x10e;" horiz-adv-x="690" 
d="M60 702h230q95 0 176 -47t128 -127.5t47 -175.5q0 -96 -47 -177t-128 -128t-176 -47h-230v702zM394.5 148.5q53.5 31.5 85 85.5t31.5 118t-31.5 117.5t-85 85t-117.5 31.5h-87v-469h87q64 0 117.5 31.5zM328 791h-132l-126 142h98l94 -83l94 83h97z" />
    <glyph glyph-name="dcaron" unicode="&#x10f;" horiz-adv-x="648" 
d="M171 25.5q-61 35.5 -96.5 96.5t-35.5 133q0 71 36 131.5t96.5 96.5t132.5 36q69 0 118.5 -35.5t74.5 -95.5t25 -134t-25 -134t-74.5 -95t-118.5 -35q-72 0 -133 35.5zM383.5 130q32.5 19 51.5 52t19 72t-19 72t-51.5 52t-71.5 19t-72 -19t-52 -52t-19 -72t19 -72t52 -52
t72 -19t71.5 19zM476 123l-22 -4v613h130v-732h-108v123zM585 831h-132l-126 142h98l94 -83l94 83h97z" />
    <glyph glyph-name="Dcroat" unicode="&#x110;" horiz-adv-x="728" 
d="M97 702h230q95 0 176 -47t128.5 -127.5t47.5 -175.5q0 -96 -47.5 -176.5t-128.5 -128t-176 -47.5h-230v702zM432 148.5q54 31.5 85.5 85.5t31.5 118t-31.5 117.5t-85.5 85t-118 31.5h-87v-469h87q64 0 118 31.5zM14 406h303v-110h-303v110z" />
    <glyph glyph-name="dcroat" unicode="&#x111;" horiz-adv-x="673" 
d="M171 25.5q-61 35.5 -96.5 96.5t-35.5 133q0 71 36 131.5t96.5 96.5t132.5 36q69 0 118.5 -35.5t74.5 -95.5t25 -134t-25 -134t-74.5 -95t-118.5 -35q-72 0 -133 35.5zM383.5 130q32.5 19 51.5 52t19 72t-19 72t-51.5 52t-71.5 19t-72 -19t-52 -52t-19 -72t19 -72t52 -52
t72 -19t71.5 19zM476 123l-22 -4v613h130v-732h-108v123zM382 669h259v-110h-259v110z" />
    <glyph glyph-name="Emacron" unicode="&#x112;" horiz-adv-x="565" 
d="M60 702h469l1 -119h-340v-177h303v-110h-303v-177h339v-119h-469v702zM449 791h-292v82h292v-82z" />
    <glyph glyph-name="emacron" unicode="&#x113;" horiz-adv-x="593" 
d="M174 26q-61 36 -96.5 97t-35.5 132t35.5 132t96.5 96.5t133 35.5q73 0 130.5 -35.5t90 -96t32.5 -132.5q0 -27 -3 -50h-390q11 -47 50 -78t91 -31q82 0 130 64l94 -49q-35 -57 -94 -89t-131 -32t-133 36zM395 380.5q-38 29.5 -87 29.5t-87 -29.5t-50 -74.5h274
q-12 45 -50 74.5zM449 618h-292v82h292v-82z" />
    <glyph glyph-name="Edotaccent" unicode="&#x116;" horiz-adv-x="565" 
d="M60 702h469l1 -119h-340v-177h303v-110h-303v-177h339v-119h-469v702zM253 810.5q-20 19.5 -20 47.5t20 48t48 20t47.5 -20t19.5 -48t-19.5 -47.5t-47.5 -19.5t-48 19.5z" />
    <glyph glyph-name="edotaccent" unicode="&#x117;" horiz-adv-x="593" 
d="M174 26q-61 36 -96.5 97t-35.5 132t35.5 132t96.5 96.5t133 35.5q73 0 130.5 -35.5t90 -96t32.5 -132.5q0 -27 -3 -50h-390q11 -47 50 -78t91 -31q82 0 130 64l94 -49q-35 -57 -94 -89t-131 -32t-133 36zM395 380.5q-38 29.5 -87 29.5t-87 -29.5t-50 -74.5h274
q-12 45 -50 74.5zM259 637.5q-20 19.5 -20 47.5t20 48t48 20t47.5 -20t19.5 -48t-19.5 -47.5t-47.5 -19.5t-48 19.5z" />
    <glyph glyph-name="Eogonek" unicode="&#x118;" horiz-adv-x="565" 
d="M60 702h469l1 -119h-340v-177h303v-110h-303v-177h339v-119h-469v702zM355 -201q-36 29 -36 79q0 51 40 91.5t117 67.5l53 -37q-59 -27 -89 -53t-30 -56q0 -23 15.5 -36.5t44.5 -13.5h59v-71h-76q-62 0 -98 29z" />
    <glyph glyph-name="eogonek" unicode="&#x119;" horiz-adv-x="593" 
d="M174 26q-61 36 -96.5 97t-35.5 132t35.5 132t96.5 96.5t133 35.5q73 0 130.5 -35.5t90 -96t32.5 -132.5q0 -27 -3 -50h-390q11 -47 50 -78t91 -31q82 0 130 64l94 -49q-35 -57 -94 -89t-131 -32t-133 36zM395 380.5q-38 29.5 -87 29.5t-87 -29.5t-50 -74.5h274
q-12 45 -50 74.5zM210 -200q-36 29 -36 79q0 51 40 91.5t116 67.5l54 -37q-119 -52 -119 -109q0 -23 15.5 -36t44.5 -13h59v-72h-76q-62 0 -98 29z" />
    <glyph glyph-name="Ecaron" unicode="&#x11a;" horiz-adv-x="565" 
d="M60 702h469l1 -119h-340v-177h303v-110h-303v-177h339v-119h-469v702zM372 791h-132l-126 142h98l94 -83l94 83h97z" />
    <glyph glyph-name="ecaron" unicode="&#x11b;" horiz-adv-x="593" 
d="M174 26q-61 36 -96.5 97t-35.5 132t35.5 132t96.5 96.5t133 35.5q73 0 130.5 -35.5t90 -96t32.5 -132.5q0 -27 -3 -50h-390q11 -47 50 -78t91 -31q82 0 130 64l94 -49q-35 -57 -94 -89t-131 -32t-133 36zM395 380.5q-38 29.5 -87 29.5t-87 -29.5t-50 -74.5h274
q-12 45 -50 74.5zM374 618h-132l-126 142h98l94 -83l94 83h97z" />
    <glyph glyph-name="Gbreve" unicode="&#x11e;" horiz-adv-x="774" 
d="M213 35.5q-80 49.5 -126.5 133.5t-46.5 183t46.5 183t126.5 133.5t174 49.5q106 0 192.5 -62t126.5 -163l-106 -37q-27 63 -82.5 101t-122.5 38q-61 0 -112.5 -32.5t-82 -88.5t-30.5 -122t30.5 -122t82 -88.5t112.5 -32.5q55 0 103 27t79.5 73.5t38.5 102.5l118 40
q0 -99 -47 -183t-126.5 -133.5t-173.5 -49.5t-174 49.5zM354 389h380v-37l-16 -68h-364v105zM251 836.5q-50 40.5 -52 108.5h91q2 -33 26.5 -53t62.5 -20t62.5 20t26.5 53h91q-2 -68 -52 -108.5t-128 -40.5t-128 40.5z" />
    <glyph glyph-name="gbreve" unicode="&#x11f;" horiz-adv-x="629" 
d="M144 -108h201q34 0 63.5 17.5t47 47t17.5 64.5v377l3 -3v113h108v-486q0 -68 -33.5 -126t-90.5 -92t-124 -34h-192v122zM171 25.5q-61 35.5 -96.5 96.5t-35.5 133q0 71 35.5 131.5t96.5 96.5t133 36q69 0 118.5 -35.5t74.5 -95.5t25 -134t-25 -134t-74.5 -95t-118.5 -35
q-72 0 -133 35.5zM383.5 130q32.5 19 51.5 52t19 72t-19 72t-51.5 52t-71.5 19t-72 -19t-52 -52t-19 -72t19 -72t52 -52t72 -19t71.5 19zM166 658.5q-50 40.5 -52 108.5h91q2 -33 26.5 -53t62.5 -20t62.5 20t26.5 53h91q-2 -68 -52 -108.5t-128 -40.5t-128 40.5z" />
    <glyph glyph-name="Gdotaccent" unicode="&#x120;" horiz-adv-x="774" 
d="M213 35.5q-80 49.5 -126.5 133.5t-46.5 183t46.5 183t126.5 133.5t174 49.5q106 0 192.5 -62t126.5 -163l-106 -37q-27 63 -82.5 101t-122.5 38q-61 0 -112.5 -32.5t-82 -88.5t-30.5 -122t30.5 -122t82 -88.5t112.5 -32.5q55 0 103 27t79.5 73.5t38.5 102.5l118 40
q0 -99 -47 -183t-126.5 -133.5t-173.5 -49.5t-174 49.5zM354 389h380v-37l-16 -68h-364v105zM338 814.5q-20 19.5 -20 47.5t20 48t48 20t47.5 -20t19.5 -48t-19.5 -47.5t-47.5 -19.5t-48 19.5z" />
    <glyph glyph-name="gdotaccent" unicode="&#x121;" horiz-adv-x="629" 
d="M144 -108h201q34 0 63.5 17.5t47 47t17.5 64.5v377l3 -3v113h108v-486q0 -68 -33.5 -126t-90.5 -92t-124 -34h-192v122zM171 25.5q-61 35.5 -96.5 96.5t-35.5 133q0 71 35.5 131.5t96.5 96.5t133 36q69 0 118.5 -35.5t74.5 -95.5t25 -134t-25 -134t-74.5 -95t-118.5 -35
q-72 0 -133 35.5zM383.5 130q32.5 19 51.5 52t19 72t-19 72t-51.5 52t-71.5 19t-72 -19t-52 -52t-19 -72t19 -72t52 -52t72 -19t71.5 19zM257 638.5q-20 19.5 -20 47.5t20 48t48 20t47.5 -20t19.5 -48t-19.5 -47.5t-47.5 -19.5t-48 19.5z" />
    <glyph glyph-name="uni0122" unicode="&#x122;" horiz-adv-x="774" 
d="M213 35.5q-80 49.5 -126.5 133.5t-46.5 183t46.5 183t126.5 133.5t174 49.5q106 0 192.5 -62t126.5 -163l-106 -37q-27 63 -82.5 101t-122.5 38q-61 0 -112.5 -32.5t-82 -88.5t-30.5 -122t30.5 -122t82 -88.5t112.5 -32.5q55 0 103 27t79.5 73.5t38.5 102.5l118 40
q0 -99 -47 -183t-126.5 -133.5t-173.5 -49.5t-174 49.5zM354 389h380v-37l-16 -68h-364v105zM360 -265l11 19q-24 -2 -44.5 19.5t-20.5 50.5q0 34 24 58.5t58 24.5q37 0 59.5 -24.5t22.5 -58.5q0 -105 -109 -249l-70 48q41 58 69 112z" />
    <glyph glyph-name="uni0123" unicode="&#x123;" horiz-adv-x="629" 
d="M144 -108h201q34 0 63.5 17.5t47 47t17.5 64.5v377l3 -3v113h108v-486q0 -68 -33.5 -126t-90.5 -92t-124 -34h-192v122zM171 25.5q-61 35.5 -96.5 96.5t-35.5 133q0 71 35.5 131.5t96.5 96.5t133 36q69 0 118.5 -35.5t74.5 -95.5t25 -134t-25 -134t-74.5 -95t-118.5 -35
q-72 0 -133 35.5zM383.5 130q32.5 19 51.5 52t19 72t-19 72t-51.5 52t-71.5 19t-72 -19t-52 -52t-19 -72t19 -72t52 -52t72 -19t71.5 19zM330 788l-11 -19q24 2 44.5 -19.5t20.5 -50.5q0 -34 -24 -58.5t-58 -24.5q-37 0 -59.5 24.5t-22.5 58.5q0 49 26 111.5t83 137.5
l70 -47q-39 -55 -69 -113z" />
    <glyph glyph-name="Hbar" unicode="&#x126;" horiz-adv-x="720" 
d="M72 702h130v-296h316v296h130v-702h-130v296h-316v-296h-130v702zM37 618h646v-110h-646v110z" />
    <glyph glyph-name="hbar" unicode="&#x127;" horiz-adv-x="597" 
d="M400.5 358q-31.5 32 -77.5 32q-44 0 -76 -32t-32 -77h-68q0 60 24 114.5t69 88.5t106 34t110.5 -31.5t77.5 -85t28 -116.5v-285h-130v281q0 45 -31.5 77zM85 732h130v-732h-130v732zM32 675h259v-110h-259v110z" />
    <glyph glyph-name="Imacron" unicode="&#x12a;" horiz-adv-x="248" 
d="M60 0v702h130v-702h-130zM271 791h-292v82h292v-82z" />
    <glyph glyph-name="imacron" unicode="&#x12b;" horiz-adv-x="236" 
d="M53 508h130v-508h-130v508zM264 608h-292v82h292v-82z" />
    <glyph glyph-name="Iogonek" unicode="&#x12e;" horiz-adv-x="248" 
d="M60 0v702h130v-702h-130zM15.5 -201q-35.5 29 -35.5 79q0 51 40 91.5t116 67.5l54 -37q-59 -27 -89 -53t-30 -56q0 -23 15.5 -36.5t44.5 -13.5h59v-71h-77q-62 0 -97.5 29z" />
    <glyph glyph-name="iogonek" unicode="&#x12f;" horiz-adv-x="236" 
d="M53 508h130v-508h-130v508zM9 -201q-36 29 -36 79q0 51 40 91.5t116 67.5l54 -37q-59 -27 -89 -53t-30 -56q0 -23 15.5 -36.5t44.5 -13.5h59v-71h-76q-62 0 -98 29z" />
    <glyph glyph-name="Idotaccent" unicode="&#x130;" horiz-adv-x="248" 
d="M60 0v702h130v-702h-130zM80 810.5q-20 19.5 -20 47.5t20 48t48 20t47.5 -20t19.5 -48t-19.5 -47.5t-47.5 -19.5t-48 19.5z" />
    <glyph glyph-name="dotlessi" unicode="&#x131;" horiz-adv-x="236" 
d="M53 508h130v-508h-130v508z" />
    <glyph glyph-name="uni0136" unicode="&#x136;" horiz-adv-x="649" 
d="M627 702l-443 -486l-7 190l283 296h167zM190 702v-702h-130v702h130zM341 411l295 -411h-152l-268 369zM287 -261l11 19q-24 -2 -44.5 19.5t-20.5 50.5q0 34 24 58.5t58 24.5q37 0 59.5 -24.5t22.5 -58.5q0 -105 -109 -249l-70 48q41 58 69 112z" />
    <glyph glyph-name="uni0137" unicode="&#x137;" horiz-adv-x="549" 
d="M232 217l84 104l216 -321h-152zM60 732h130v-732h-130v732zM190 341l165 167h160l-325 -346v179zM245 -272l11 19q-24 -2 -44.5 19.5t-20.5 50.5q0 34 24 58.5t58 24.5q37 0 59.5 -24.5t22.5 -58.5q0 -105 -109 -249l-70 48q41 58 69 112z" />
    <glyph glyph-name="Lacute" unicode="&#x139;" horiz-adv-x="489" 
d="M470 0h-410v702h130v-583h280v-119zM197 933h131l-149 -142h-117z" />
    <glyph glyph-name="lacute" unicode="&#x13a;" horiz-adv-x="258" 
d="M138 20.5q-36 20.5 -57 56t-21 78.5v577h129v-585q0 -11 8 -18.5t19 -7.5h16v-121h-16q-42 0 -78 20.5zM201 973h131l-149 -142h-117z" />
    <glyph glyph-name="uni013B" unicode="&#x13b;" horiz-adv-x="489" 
d="M470 0h-410v702h130v-583h280v-119zM223 -261l11 19q-24 -2 -44.5 19.5t-20.5 50.5q0 34 24 58.5t58 24.5q37 0 59.5 -24.5t22.5 -58.5q0 -105 -109 -249l-70 48q41 58 69 112z" />
    <glyph glyph-name="uni013C" unicode="&#x13c;" horiz-adv-x="268" 
d="M138 20.5q-36 20.5 -57 56t-21 78.5v577h129v-585q0 -11 8 -18.5t19 -7.5h16v-121h-16q-42 0 -78 20.5zM126 -272l11 19q-24 -2 -44.5 19.5t-20.5 50.5q0 34 24 58.5t58 24.5q37 0 59.5 -24.5t22.5 -58.5q0 -105 -109 -249l-70 48q41 58 69 112z" />
    <glyph glyph-name="Lcaron" unicode="&#x13d;" horiz-adv-x="489" 
d="M470 0h-410v702h130v-583h280v-119zM183 791h-132l-126 142h98l94 -83l94 83h97z" />
    <glyph glyph-name="lcaron" unicode="&#x13e;" horiz-adv-x="265" 
d="M138 20.5q-36 20.5 -57 56t-21 78.5v577h129v-585q0 -11 8 -18.5t19 -7.5h16v-121h-16q-42 0 -78 20.5zM194 831h-132l-126 142h98l94 -83l94 83h97z" />
    <glyph glyph-name="Lslash" unicode="&#x141;" horiz-adv-x="554" 
d="M34 326l317 182l55 -96l-317 -183zM536 0h-411v702h130v-583h281v-119z" />
    <glyph glyph-name="lslash" unicode="&#x142;" horiz-adv-x="440" 
d="M34 326l317 182l55 -96l-317 -183zM229 20.5q-36 20.5 -57 56t-21 78.5v577h129v-585q0 -11 8 -18.5t19 -7.5h16v-121h-16q-42 0 -78 20.5z" />
    <glyph glyph-name="Nacute" unicode="&#x143;" horiz-adv-x="713" 
d="M465 0l-281 514v-514h-124v702h167l303 -562v562h124v-702h-189zM415 933h131l-149 -142h-117z" />
    <glyph glyph-name="nacute" unicode="&#x144;" horiz-adv-x="562" 
d="M365 359q-32 32 -77 32q-44 0 -76 -32.5t-32 -76.5h-68q0 60 24 114.5t69 88.5t106 34t110.5 -31.5t77.5 -85t28 -116.5v-286h-130v282q0 45 -32 77zM50 508h108v-114l22 -5v-389h-130v508zM373 758h131l-149 -142h-117z" />
    <glyph glyph-name="uni0145" unicode="&#x145;" horiz-adv-x="713" 
d="M465 0l-281 514v-514h-124v702h167l303 -562v562h124v-702h-189zM340 -261l11 19q-24 -2 -44.5 19.5t-20.5 50.5q0 34 24 58.5t58 24.5q37 0 59.5 -24.5t22.5 -58.5q0 -105 -109 -249l-70 48q41 58 69 112z" />
    <glyph glyph-name="uni0146" unicode="&#x146;" horiz-adv-x="562" 
d="M365 359q-32 32 -77 32q-44 0 -76 -32.5t-32 -76.5h-68q0 60 24 114.5t69 88.5t106 34t110.5 -31.5t77.5 -85t28 -116.5v-286h-130v282q0 45 -32 77zM50 508h108v-114l22 -5v-389h-130v508zM257 -272l11 19q-24 -2 -44.5 19.5t-20.5 50.5q0 34 24 58.5t58 24.5
q37 0 59.5 -24.5t22.5 -58.5q0 -105 -109 -249l-70 48q41 58 69 112z" />
    <glyph glyph-name="Ncaron" unicode="&#x147;" horiz-adv-x="713" 
d="M465 0l-281 514v-514h-124v702h167l303 -562v562h124v-702h-189zM420 791h-132l-126 142h98l94 -83l94 83h97z" />
    <glyph glyph-name="ncaron" unicode="&#x148;" horiz-adv-x="562" 
d="M365 359q-32 32 -77 32q-44 0 -76 -32.5t-32 -76.5h-68q0 60 24 114.5t69 88.5t106 34t110.5 -31.5t77.5 -85t28 -116.5v-286h-130v282q0 45 -32 77zM50 508h108v-114l22 -5v-389h-130v508zM377 616h-132l-126 142h98l94 -83l94 83h97z" />
    <glyph glyph-name="Eng" unicode="&#x14a;" horiz-adv-x="714" 
d="M465 0l-281 513v-513h-124v702h167l303 -562v562h124v-702h-189zM411 -78h60q25 0 42 17t17 42v527h123v-527q0 -50 -24.5 -91.5t-66 -65.5t-90.5 -24h-61v122z" />
    <glyph glyph-name="eng" unicode="&#x14b;" horiz-adv-x="574" 
d="M365 359q-32 32 -77 32q-44 0 -76 -32.5t-32 -76.5h-68q0 60 24 114.5t69 88.5t106 34t110.5 -31.5t77.5 -85t28 -116.5v-286h-130v282q0 45 -32 77zM50 508h108v-114l22 -5v-389h-130v508zM285 -78h53q25 0 42 17t17 42v226h130v-226q0 -50 -24.5 -91.5t-66.5 -65.5
t-91 -24h-60v122z" />
    <glyph glyph-name="Omacron" unicode="&#x14c;" horiz-adv-x="818" 
d="M229 35.5q-83 49.5 -131.5 133.5t-48.5 183t48.5 183t131.5 133.5t180 49.5t179.5 -49.5t131 -133.5t48.5 -183t-48.5 -183t-131 -133.5t-179.5 -49.5t-180 49.5zM523.5 141.5q52.5 32.5 83.5 88.5t31 122t-31 122t-83.5 88.5t-114.5 32.5q-63 0 -116 -32.5t-84 -88.5
t-31 -122t31 -122t84 -88.5t116 -32.5q62 0 114.5 32.5zM554 796h-292v82h292v-82z" />
    <glyph glyph-name="omacron" unicode="&#x14d;" horiz-adv-x="622" 
d="M175 25.5q-63 35.5 -99.5 96.5t-36.5 133t36.5 132.5t99.5 96t137 35.5t136 -35.5t98.5 -96t36.5 -132.5t-36.5 -133t-98.5 -96.5t-136 -35.5t-137 35.5zM382.5 130q32.5 19 51.5 52t19 72t-19 72t-51.5 52t-71.5 19t-71.5 -19t-51.5 -52t-19 -72t19 -72t51.5 -52
t71.5 -19t71.5 19zM453 617h-292v82h292v-82z" />
    <glyph glyph-name="Ohungarumlaut" unicode="&#x150;" horiz-adv-x="818" 
d="M229 35.5q-83 49.5 -131.5 133.5t-48.5 183t48.5 183t131.5 133.5t180 49.5t179.5 -49.5t131 -133.5t48.5 -183t-48.5 -183t-131 -133.5t-179.5 -49.5t-180 49.5zM523.5 141.5q52.5 32.5 83.5 88.5t31 122t-31 122t-83.5 88.5t-114.5 32.5q-63 0 -116 -32.5t-84 -88.5
t-31 -122t31 -122t84 -88.5t116 -32.5q62 0 114.5 32.5zM538 937h129l-136 -142h-117zM346 937h128l-136 -142h-116z" />
    <glyph glyph-name="ohungarumlaut" unicode="&#x151;" horiz-adv-x="622" 
d="M175 25.5q-63 35.5 -99.5 96.5t-36.5 133t36.5 132.5t99.5 96t137 35.5t136 -35.5t98.5 -96t36.5 -132.5t-36.5 -133t-98.5 -96.5t-136 -35.5t-137 35.5zM382.5 130q32.5 19 51.5 52t19 72t-19 72t-51.5 52t-71.5 19t-71.5 -19t-51.5 -52t-19 -72t19 -72t51.5 -52
t71.5 -19t71.5 19zM451 758h129l-136 -142h-117zM259 758h128l-136 -142h-116z" />
    <glyph glyph-name="OE" unicode="&#x152;" horiz-adv-x="1145" 
d="M229 35.5q-83 49.5 -131.5 133.5t-48.5 183t48.5 183t131.5 133.5t180 49.5t179.5 -49.5t131 -133.5t48.5 -183t-48.5 -183t-131 -133.5t-179.5 -49.5t-180 49.5zM523.5 141.5q52.5 32.5 83.5 88.5t31 122t-31 122t-83.5 88.5t-114.5 32.5q-63 0 -116 -32.5t-84 -88.5
t-31 -122t31 -122t84 -88.5t116 -32.5q62 0 114.5 32.5zM639 702h470v-119h-340v-177h304v-110h-304v-177h340v-119h-470v702z" />
    <glyph glyph-name="oe" unicode="&#x153;" horiz-adv-x="1006" 
d="M175 25.5q-63 35.5 -99.5 96.5t-36.5 133t36.5 132.5t99.5 96t137 35.5t136 -35.5t98.5 -96t36.5 -132.5t-36.5 -133t-98.5 -96.5t-136 -35.5t-137 35.5zM382.5 130q32.5 19 51.5 52t19 72t-19 72t-51.5 52t-71.5 19t-71.5 -19t-51.5 -52t-19 -72t19 -72t51.5 -52
t71.5 -19t71.5 19zM587.5 26q-60.5 36 -96 97t-35.5 132t35.5 132t96 96.5t132.5 35.5q73 0 131 -35.5t90.5 -96t32.5 -132.5q0 -30 -4 -50l-94 50q0 41 -20.5 77t-56 57t-77.5 21t-77.5 -21t-56 -56.5t-20.5 -77.5q0 -43 19.5 -79.5t55 -58t79.5 -21.5q41 0 74 16.5
t55 47.5l95 -49q-35 -57 -94.5 -89t-131.5 -32t-132.5 36zM563 300h385l22 -95h-407v95z" />
    <glyph glyph-name="Racute" unicode="&#x154;" horiz-adv-x="627" 
d="M60 702h265q65 0 119.5 -32t86.5 -86.5t32 -119.5q0 -64 -32 -114.5t-86.5 -78t-119.5 -27.5h-135v-244h-130v702zM365.5 223.5q-24.5 18.5 -68.5 18.5h-134v64h128q73 0 112.5 -6t70 -30.5t52.5 -77.5l79 -192h-129l-71 168q-15 37 -39.5 55.5zM398.5 379.5
q34.5 35.5 34.5 84.5t-34.5 84t-82.5 35h-126v-239h126q48 0 82.5 35.5zM341 933h131l-149 -142h-117z" />
    <glyph glyph-name="racute" unicode="&#x155;" horiz-adv-x="391" 
d="M50 508h108v-122l22 3v-389h-130v508zM139 369.5q27 62.5 78.5 101t120.5 38.5h28v-119h-65q-32 0 -60 -16.5t-44.5 -45t-16.5 -60.5l-68 -29q0 68 27 130.5zM272 750h131l-149 -142h-117z" />
    <glyph glyph-name="uni0156" unicode="&#x156;" horiz-adv-x="627" 
d="M60 702h265q65 0 119.5 -32t86.5 -86.5t32 -119.5q0 -64 -32 -114.5t-86.5 -78t-119.5 -27.5h-135v-244h-130v702zM365.5 223.5q-24.5 18.5 -68.5 18.5h-134v64h128q73 0 112.5 -6t70 -30.5t52.5 -77.5l79 -192h-129l-71 168q-15 37 -39.5 55.5zM398.5 379.5
q34.5 35.5 34.5 84.5t-34.5 84t-82.5 35h-126v-239h126q48 0 82.5 35.5zM295 -261l11 19q-24 -2 -44.5 19.5t-20.5 50.5q0 34 24 58.5t58 24.5q37 0 59.5 -24.5t22.5 -58.5q0 -105 -109 -249l-70 48q41 58 69 112z" />
    <glyph glyph-name="uni0157" unicode="&#x157;" horiz-adv-x="391" 
d="M50 508h108v-122l22 3v-389h-130v508zM139 369.5q27 62.5 78.5 101t120.5 38.5h28v-119h-65q-32 0 -60 -16.5t-44.5 -45t-16.5 -60.5l-68 -29q0 68 27 130.5zM102 -272l11 19q-24 -2 -44.5 19.5t-20.5 50.5q0 34 24 58.5t58 24.5q37 0 59.5 -24.5t22.5 -58.5
q0 -105 -109 -249l-70 48q41 58 69 112z" />
    <glyph glyph-name="Rcaron" unicode="&#x158;" horiz-adv-x="627" 
d="M60 702h265q65 0 119.5 -32t86.5 -86.5t32 -119.5q0 -64 -32 -114.5t-86.5 -78t-119.5 -27.5h-135v-244h-130v702zM365.5 223.5q-24.5 18.5 -68.5 18.5h-134v64h128q73 0 112.5 -6t70 -30.5t52.5 -77.5l79 -192h-129l-71 168q-15 37 -39.5 55.5zM398.5 379.5
q34.5 35.5 34.5 84.5t-34.5 84t-82.5 35h-126v-239h126q48 0 82.5 35.5zM342 791h-132l-126 142h98l94 -83l94 83h97z" />
    <glyph glyph-name="rcaron" unicode="&#x159;" horiz-adv-x="391" 
d="M50 508h108v-122l22 3v-389h-130v508zM139 369.5q27 62.5 78.5 101t120.5 38.5h28v-119h-65q-32 0 -60 -16.5t-44.5 -45t-16.5 -60.5l-68 -29q0 68 27 130.5zM286 607h-132l-126 142h98l94 -83l94 83h97z" />
    <glyph glyph-name="Sacute" unicode="&#x15a;" horiz-adv-x="628" 
d="M169 6q-76 21 -131 54l45 108q43 -25 109 -43t121 -18q67 0 108 22t41 61q0 27 -17.5 44t-45 27t-79.5 23l-20 6q-92 25 -144.5 54t-76 68.5t-23.5 96.5q0 64 36 111.5t99 72.5t143 25q108 0 233 -46l-43 -113q-107 38 -191 38q-67 0 -107 -23.5t-40 -64.5
q0 -29 16.5 -46.5t47.5 -28.5t96 -27q134 -32 190 -80.5t56 -125.5q0 -67 -35 -115.5t-97.5 -74.5t-141.5 -26q-73 0 -149 21zM384 938h131l-149 -142h-117z" />
    <glyph glyph-name="sacute" unicode="&#x15b;" horiz-adv-x="528" 
d="M146.5 9q-60.5 20 -107.5 55l55 85q88 -53 182 -53q89 0 89 48q0 21 -21.5 32t-73.5 23q-105 25 -153.5 60t-48.5 103q0 70 56.5 113.5t152.5 43.5q51 0 102.5 -15t92.5 -39l-45 -90q-78 36 -150 36q-37 0 -58.5 -13.5t-21.5 -37.5q0 -25 21 -35.5t76 -19.5
q97 -17 148.5 -55t51.5 -104q0 -73 -58.5 -115t-159.5 -42q-69 0 -129.5 20zM342 760h131l-149 -142h-117z" />
    <glyph glyph-name="Scedilla" unicode="&#x15e;" horiz-adv-x="628" 
d="M169 6q-76 21 -131 54l45 108q43 -25 109 -43t121 -18q67 0 108 22t41 61q0 27 -17.5 44t-45 27t-79.5 23l-20 6q-92 25 -144.5 54t-76 68.5t-23.5 96.5q0 64 36 111.5t99 72.5t143 25q108 0 233 -46l-43 -113q-107 38 -191 38q-67 0 -107 -23.5t-40 -64.5
q0 -29 16.5 -46.5t47.5 -28.5t96 -27q134 -32 190 -80.5t56 -125.5q0 -67 -35 -115.5t-97.5 -74.5t-141.5 -26q-73 0 -149 21zM209 -244l15 66l72 -1q46 0 46 36q0 16 -11 26t-30 10h-46l25 101h81l-15 -61q41 -4 62.5 -26t21.5 -54q0 -45 -38.5 -71t-101.5 -26h-81z" />
    <glyph glyph-name="scedilla" unicode="&#x15f;" horiz-adv-x="528" 
d="M146.5 9q-60.5 20 -107.5 55l55 85q88 -53 182 -53q89 0 89 48q0 21 -21.5 32t-73.5 23q-105 25 -153.5 60t-48.5 103q0 70 56.5 113.5t152.5 43.5q51 0 102.5 -15t92.5 -39l-45 -90q-78 36 -150 36q-37 0 -58.5 -13.5t-21.5 -37.5q0 -25 21 -35.5t76 -19.5
q97 -17 148.5 -55t51.5 -104q0 -73 -58.5 -115t-159.5 -42q-69 0 -129.5 20zM161 -239l15 66h72q46 0 46 36q0 16 -11 25.5t-30 9.5h-46l25 102h81l-15 -62q40 -4 62 -25.5t22 -53.5q0 -45 -38.5 -71.5t-102.5 -26.5h-80z" />
    <glyph glyph-name="Scaron" unicode="&#x160;" horiz-adv-x="628" 
d="M169 6q-76 21 -131 54l45 108q43 -25 109 -43t121 -18q67 0 108 22t41 61q0 27 -17.5 44t-45 27t-79.5 23l-20 6q-92 25 -144.5 54t-76 68.5t-23.5 96.5q0 64 36 111.5t99 72.5t143 25q108 0 233 -46l-43 -113q-107 38 -191 38q-67 0 -107 -23.5t-40 -64.5
q0 -29 16.5 -46.5t47.5 -28.5t96 -27q134 -32 190 -80.5t56 -125.5q0 -67 -35 -115.5t-97.5 -74.5t-141.5 -26q-73 0 -149 21zM390 796h-132l-126 142h98l94 -83l94 83h97z" />
    <glyph glyph-name="scaron" unicode="&#x161;" horiz-adv-x="528" 
d="M146.5 9q-60.5 20 -107.5 55l55 85q88 -53 182 -53q89 0 89 48q0 21 -21.5 32t-73.5 23q-105 25 -153.5 60t-48.5 103q0 70 56.5 113.5t152.5 43.5q51 0 102.5 -15t92.5 -39l-45 -90q-78 36 -150 36q-37 0 -58.5 -13.5t-21.5 -37.5q0 -25 21 -35.5t76 -19.5
q97 -17 148.5 -55t51.5 -104q0 -73 -58.5 -115t-159.5 -42q-69 0 -129.5 20zM338 618h-132l-126 142h98l94 -83l94 83h97z" />
    <glyph glyph-name="uni0162" unicode="&#x162;" horiz-adv-x="530" 
d="M200 583h-188l-1 119h508v-119h-190v-583h-129v583zM177 -239l15 66h72q46 0 46 36q0 16 -11 25.5t-31 9.5h-45l25 102h81l-15 -62q40 -4 62 -25.5t22 -53.5q0 -45 -38.5 -71.5t-102.5 -26.5h-80z" />
    <glyph glyph-name="uni0163" unicode="&#x163;" horiz-adv-x="456" 
d="M136 388h-115v120h391v-119h-146v-211q0 -25 17 -41.5t42 -16.5h97v-120h-104q-49 0 -91 23.5t-66.5 64t-24.5 90.5v210zM136 508v151h130v-151h-130zM174 -222l15 66l72 -1q46 0 46 36q0 16 -11 26t-31 10h-46l26 101h81l-15 -61q40 -4 62 -26t22 -54q0 -45 -38.5 -71
t-102.5 -26h-80z" />
    <glyph glyph-name="Tcaron" unicode="&#x164;" horiz-adv-x="530" 
d="M200 583h-188l-1 119h508v-119h-190v-583h-129v583zM332 791h-132l-126 142h98l94 -83l94 83h97z" />
    <glyph glyph-name="tcaron" unicode="&#x165;" horiz-adv-x="456" 
d="M136 388h-115v120h391v-119h-146v-211q0 -25 17 -41.5t42 -16.5h97v-120h-104q-49 0 -91 23.5t-66.5 64t-24.5 90.5v210zM136 508v151h130v-151h-130zM268 757h-132l-126 142h98l94 -83l94 83h97z" />
    <glyph glyph-name="Tbar" unicode="&#x166;" horiz-adv-x="530" 
d="M113 406h304v-110h-304v110zM200 583h-188l-1 119h508v-119h-190v-583h-129v583z" />
    <glyph glyph-name="tbar" unicode="&#x167;" horiz-adv-x="529" 
d="M76 320h258v-83h-258v83zM136 388h-115v120h391v-119h-146v-211q0 -25 17 -41.5t42 -16.5h97v-120h-104q-49 0 -91 23.5t-66.5 64t-24.5 90.5v210zM136 508v151h130v-151h-130z" />
    <glyph glyph-name="Umacron" unicode="&#x16a;" horiz-adv-x="652" 
d="M190 31.5q-62 36.5 -98 98.5t-36 135v437h130v-444q0 -38 19 -70t51 -51t70 -19t70 19t51 51t19 70v444h130v-437q0 -73 -36.5 -135t-98.5 -98.5t-135 -36.5q-74 0 -136 36.5zM472 791h-292v82h292v-82z" />
    <glyph glyph-name="umacron" unicode="&#x16b;" horiz-adv-x="566" 
d="M140.5 21.5q-49.5 31.5 -77.5 85t-28 116.5v285h130v-281q0 -45 31.5 -77t77.5 -32q44 0 76 32t32 77h69q0 -60 -24 -114.5t-69.5 -88.5t-106.5 -34t-110.5 31.5zM404 115l-22 5v388h130v-508h-108v115zM421 608h-292v82h292v-82z" />
    <glyph glyph-name="Uring" unicode="&#x16e;" horiz-adv-x="652" 
d="M190 31.5q-62 36.5 -98 98.5t-36 135v437h130v-444q0 -38 19 -70t51 -51t70 -19t70 19t51 51t19 70v444h130v-437q0 -73 -36.5 -135t-98.5 -98.5t-135 -36.5q-74 0 -136 36.5zM242.5 825.5q-35.5 34.5 -35.5 83.5t35.5 83.5t86.5 34.5t86.5 -34.5t35.5 -83.5t-35.5 -83.5
t-86.5 -34.5t-86.5 34.5zM372.5 865.5q17.5 17.5 17.5 43.5t-17.5 43.5t-43.5 17.5t-43.5 -17.5t-17.5 -43.5t17 -43.5t44 -17.5q26 0 43.5 17.5z" />
    <glyph glyph-name="uring" unicode="&#x16f;" horiz-adv-x="566" 
d="M140.5 21.5q-49.5 31.5 -77.5 85t-28 116.5v285h130v-281q0 -45 31.5 -77t77.5 -32q44 0 76 32t32 77h69q0 -60 -24 -114.5t-69.5 -88.5t-106.5 -34t-110.5 31.5zM404 115l-22 5v388h130v-508h-108v115zM182.5 642.5q-35.5 34.5 -35.5 83.5t35.5 83.5t86.5 34.5
t86.5 -34.5t35.5 -83.5t-35.5 -83.5t-86.5 -34.5t-86.5 34.5zM312.5 682.5q17.5 17.5 17.5 43.5t-17.5 43.5t-43.5 17.5t-43.5 -17.5t-17.5 -43.5t17 -43.5t44 -17.5q26 0 43.5 17.5z" />
    <glyph glyph-name="Uhungarumlaut" unicode="&#x170;" horiz-adv-x="652" 
d="M190 31.5q-62 36.5 -98 98.5t-36 135v437h130v-444q0 -38 19 -70t51 -51t70 -19t70 19t51 51t19 70v444h130v-437q0 -73 -36.5 -135t-98.5 -98.5t-135 -36.5q-74 0 -136 36.5zM466 933h129l-136 -142h-117zM274 933h128l-136 -142h-116z" />
    <glyph glyph-name="uhungarumlaut" unicode="&#x171;" horiz-adv-x="566" 
d="M140.5 21.5q-49.5 31.5 -77.5 85t-28 116.5v285h130v-281q0 -45 31.5 -77t77.5 -32q44 0 76 32t32 77h69q0 -60 -24 -114.5t-69.5 -88.5t-106.5 -34t-110.5 31.5zM404 115l-22 5v388h130v-508h-108v115zM418 750h129l-136 -142h-117zM226 750h128l-136 -142h-116z" />
    <glyph glyph-name="Uogonek" unicode="&#x172;" horiz-adv-x="652" 
d="M190 31.5q-62 36.5 -98 98.5t-36 135v437h130v-444q0 -38 19 -70t51 -51t70 -19t70 19t51 51t19 70v444h130v-437q0 -73 -36.5 -135t-98.5 -98.5t-135 -36.5q-74 0 -136 36.5zM220 -195q-36 29 -36 79q0 51 40 91.5t116 67.5l54 -37q-119 -52 -119 -109q0 -23 15.5 -36
t44.5 -13h59v-72h-76q-62 0 -98 29z" />
    <glyph glyph-name="uogonek" unicode="&#x173;" horiz-adv-x="566" 
d="M140.5 21.5q-49.5 31.5 -77.5 85t-28 116.5v285h130v-281q0 -45 31.5 -77t77.5 -32q44 0 76 32t32 77h69q0 -60 -24 -114.5t-69.5 -88.5t-106.5 -34t-110.5 31.5zM404 115l-22 5v388h130v-508h-108v115zM338.5 -201q-35.5 29 -35.5 79q0 51 39.5 91.5t116.5 67.5l53 -37
q-59 -27 -88.5 -53t-29.5 -56q0 -23 15.5 -36.5t43.5 -13.5h59v-71h-76q-62 0 -97.5 29z" />
    <glyph glyph-name="Wcircumflex" unicode="&#x174;" horiz-adv-x="885" 
d="M10 702h127l95 -569l132 516h158l132 -516l94 569h128l-136 -702h-175l-122 531l-123 -531h-174zM430 835l-94 -83h-98l126 141h132l125 -141h-97z" />
    <glyph glyph-name="wcircumflex" unicode="&#x175;" horiz-adv-x="720" 
d="M9 508h126l65 -326l109 298h110l109 -298l59 326h125l-90 -508h-141l-117 307l-116 -307h-140zM364 664l-94 -83h-98l126 141h132l125 -141h-97z" />
    <glyph glyph-name="Ycircumflex" unicode="&#x176;" horiz-adv-x="600" 
d="M233 228l-223 474h141l146 -317l152 317h141l-227 -474v-228h-130v228zM305 874l-94 -83h-98l126 141h132l125 -141h-97z" />
    <glyph glyph-name="ycircumflex" unicode="&#x177;" horiz-adv-x="557" 
d="M47 -113h85q32 0 55 16.5t33 45.5l187 559h132l-195 -587q-18 -71 -73 -115t-130 -44h-94v125zM12 508h131l157 -508h-131zM279 691l-94 -83h-98l126 141h132l125 -141h-97z" />
    <glyph glyph-name="Ydieresis" unicode="&#x178;" horiz-adv-x="600" 
d="M233 228l-223 474h141l146 -317l152 317h141l-227 -474v-228h-130v228zM179 810.5q-20 19.5 -20 47.5t20 48t48 20t47.5 -20t19.5 -48t-19.5 -47.5t-47.5 -19.5t-48 19.5zM336.5 810.5q-19.5 19.5 -19.5 47.5t19.5 48t47.5 20t48 -20t20 -48t-20 -47.5t-48 -19.5
t-47.5 19.5z" />
    <glyph glyph-name="Zacute" unicode="&#x179;" horiz-adv-x="571" 
d="M547 0h-523v141l367 442h-354v119h505v-141l-365 -442h369zM337 933h131l-149 -142h-117z" />
    <glyph glyph-name="zacute" unicode="&#x17a;" horiz-adv-x="500" 
d="M465 0h-431v123l257 266h-259v119h433v-122l-252 -267h252v-119zM309 750h131l-149 -142h-117z" />
    <glyph glyph-name="Zdotaccent" unicode="&#x17b;" horiz-adv-x="571" 
d="M547 0h-523v141l367 442h-354v119h505v-141l-365 -442h369zM244 810.5q-20 19.5 -20 47.5t20 48t48 20t47.5 -20t19.5 -48t-19.5 -47.5t-47.5 -19.5t-48 19.5z" />
    <glyph glyph-name="zdotaccent" unicode="&#x17c;" horiz-adv-x="500" 
d="M465 0h-431v123l257 266h-259v119h433v-122l-252 -267h252v-119zM203 625.5q-20 19.5 -20 47.5t20 48t48 20t47.5 -20t19.5 -48t-19.5 -47.5t-47.5 -19.5t-48 19.5z" />
    <glyph glyph-name="Zcaron" unicode="&#x17d;" horiz-adv-x="571" 
d="M547 0h-523v141l367 442h-354v119h505v-141l-365 -442h369zM359 791h-132l-126 142h98l94 -83l94 83h97z" />
    <glyph glyph-name="zcaron" unicode="&#x17e;" horiz-adv-x="500" 
d="M465 0h-431v123l257 266h-259v119h433v-122l-252 -267h252v-119zM321 608h-132l-126 142h98l94 -83l94 83h97z" />
    <glyph glyph-name="uni0218" unicode="&#x218;" horiz-adv-x="628" 
d="M169 6q-76 21 -131 54l45 108q43 -25 109 -43t121 -18q67 0 108 22t41 61q0 27 -17.5 44t-45 27t-79.5 23l-20 6q-92 25 -144.5 54t-76 68.5t-23.5 96.5q0 64 36 111.5t99 72.5t143 25q108 0 233 -46l-43 -113q-107 38 -191 38q-67 0 -107 -23.5t-40 -64.5
q0 -29 16.5 -46.5t47.5 -28.5t96 -27q134 -32 190 -80.5t56 -125.5q0 -67 -35 -115.5t-97.5 -74.5t-141.5 -26q-73 0 -149 21zM282 -267l11 19q-24 -2 -44.5 19.5t-20.5 50.5q0 34 24 58.5t58 24.5q37 0 59.5 -24.5t22.5 -58.5q0 -105 -109 -249l-70 48q41 58 69 112z" />
    <glyph glyph-name="uni0219" unicode="&#x219;" horiz-adv-x="528" 
d="M146.5 9q-60.5 20 -107.5 55l55 85q88 -53 182 -53q89 0 89 48q0 21 -21.5 32t-73.5 23q-105 25 -153.5 60t-48.5 103q0 70 56.5 113.5t152.5 43.5q51 0 102.5 -15t92.5 -39l-45 -90q-78 36 -150 36q-37 0 -58.5 -13.5t-21.5 -37.5q0 -25 21 -35.5t76 -19.5
q97 -17 148.5 -55t51.5 -104q0 -73 -58.5 -115t-159.5 -42q-69 0 -129.5 20zM246 -278l11 19q-24 -2 -44.5 19.5t-20.5 50.5q0 34 24 58.5t58 24.5q37 0 59.5 -24.5t22.5 -58.5q0 -105 -109 -249l-70 48q41 58 69 112z" />
    <glyph glyph-name="uni021A" unicode="&#x21a;" horiz-adv-x="530" 
d="M200 583h-188l-1 119h508v-119h-190v-583h-129v583zM237 -261l11 19q-24 -2 -44.5 19.5t-20.5 50.5q0 34 24 58.5t58 24.5q37 0 59.5 -24.5t22.5 -58.5q0 -105 -109 -249l-70 48q41 58 69 112z" />
    <glyph glyph-name="uni021B" unicode="&#x21b;" horiz-adv-x="456" 
d="M136 388h-115v120h391v-119h-146v-211q0 -25 17 -41.5t42 -16.5h97v-120h-104q-49 0 -91 23.5t-66.5 64t-24.5 90.5v210zM136 508v151h130v-151h-130zM249 -272l11 19q-24 -2 -44.5 19.5t-20.5 50.5q0 34 24 58.5t58 24.5q37 0 59.5 -24.5t22.5 -58.5q0 -105 -109 -249
l-70 48q41 58 69 112z" />
    <glyph glyph-name="tilde" unicode="&#x2dc;" horiz-adv-x="508" 
d="M284 614q-20 9 -45 28q-19 14 -29.5 20t-20.5 6q-20 0 -33 -15t-15 -41h-75q2 65 32.5 103t81.5 38q24 0 43.5 -8.5t45.5 -28.5q17 -14 28 -20t22 -6q20 0 33.5 14t14.5 39h75q-2 -63 -32.5 -100.5t-81.5 -37.5q-24 0 -44 9z" />
    <glyph glyph-name="gravecomb" unicode="&#x300;" 
d="M62 844h131l135 -142h-118z" />
    <glyph glyph-name="acutecomb" unicode="&#x301;" 
d="M197 844h131l-149 -142h-117z" />
    <glyph glyph-name="uni0302" unicode="&#x302;" 
d="M254 785l-94 -83h-98l126 141h132l125 -141h-97z" />
    <glyph glyph-name="tildecomb" unicode="&#x303;" 
d="M280.5 711q-19.5 9 -45.5 29q-18 14 -29 19.5t-22 5.5q-20 0 -33 -15t-15 -41h-74q2 66 32.5 103.5t81.5 37.5q24 0 43.5 -9t45.5 -29q18 -14 28.5 -19.5t21.5 -5.5q21 0 34 14.5t15 38.5h74q-2 -63 -32.5 -100.5t-81.5 -37.5q-24 0 -43.5 9z" />
    <glyph glyph-name="uni0304" unicode="&#x304;" 
d="M354 702h-292v82h292v-82z" />
    <glyph glyph-name="uni0306" unicode="&#x306;" 
d="M114 742.5q-50 40.5 -52 108.5h91q2 -33 26.5 -53t62.5 -20t62.5 20t26.5 53h91q-2 -68 -52 -108.5t-128 -40.5t-128 40.5z" />
    <glyph glyph-name="uni0307" unicode="&#x307;" 
d="M82 721.5q-20 19.5 -20 47.5t20 48t48 20t47.5 -20t19.5 -48t-19.5 -47.5t-47.5 -19.5t-48 19.5z" />
    <glyph glyph-name="uni0308" unicode="&#x308;" 
d="M82 721.5q-20 19.5 -20 47.5t20 48t48 20t47.5 -20t19.5 -48t-19.5 -47.5t-47.5 -19.5t-48 19.5zM239.5 721.5q-19.5 19.5 -19.5 47.5t19.5 48t47.5 20t48 -20t20 -48t-20 -47.5t-48 -19.5t-47.5 19.5z" />
    <glyph glyph-name="uni030A" unicode="&#x30a;" 
d="M97.5 736.5q-35.5 34.5 -35.5 83.5t35.5 83.5t86.5 34.5t86.5 -34.5t35.5 -83.5t-35.5 -83.5t-86.5 -34.5t-86.5 34.5zM227.5 776.5q17.5 17.5 17.5 43.5t-17.5 43.5t-43.5 17.5t-43.5 -17.5t-17.5 -43.5t17 -43.5t44 -17.5q26 0 43.5 17.5z" />
    <glyph glyph-name="uni030B" unicode="&#x30b;" 
d="M378 844h129l-136 -142h-117zM186 844h128l-136 -142h-116z" />
    <glyph glyph-name="uni030C" unicode="&#x30c;" 
d="M320 702h-132l-126 142h98l94 -83l94 83h97z" />
    <glyph glyph-name="uni0312" unicode="&#x312;" 
d="M172 874l-11 -19q24 2 44.5 -19.5t20.5 -50.5q0 -34 -24 -58.5t-58 -24.5q-37 0 -59.5 24.5t-22.5 58.5q0 49 26 111.5t83 137.5l70 -47q-39 -55 -69 -113z" />
    <glyph glyph-name="uni0326" unicode="&#x326;" 
d="M119 -172l11 19q-24 -2 -44.5 19.5t-20.5 50.5q0 34 24 58.5t58 24.5q37 0 59.5 -24.5t22.5 -58.5q0 -105 -109 -249l-70 48q41 58 69 112z" />
    <glyph glyph-name="uni0327" unicode="&#x327;" 
d="M62 -239l15 66h72q46 0 46 36q0 16 -11 25.5t-31 9.5h-45l25 102h81l-15 -62q40 -4 62 -25.5t22 -53.5q0 -45 -38.5 -71.5t-102.5 -26.5h-80z" />
    <glyph glyph-name="uni0328" unicode="&#x328;" 
d="M97.5 -201q-35.5 29 -35.5 79q0 51 40 91.5t116 67.5l54 -37q-59 -27 -89 -53t-30 -56q0 -23 15.5 -36.5t43.5 -13.5h59v-71h-76q-62 0 -97.5 29z" />
    <glyph glyph-name="uni060C" unicode="&#x60c;" horiz-adv-x="293" 
d="M87.5 24.5q-22.5 24.5 -22.5 58.5q0 105 109 249l70 -48q-31 -43 -69 -112l-11 -19q24 2 44.5 -19.5t20.5 -50.5q0 -34 -24 -58.5t-58 -24.5q-37 0 -59.5 24.5z" />
    <glyph glyph-name="uni0615" unicode="&#x615;" 
d="M-119 782h153q12 0 21 9t9 22q0 15 -8.5 24t-23.5 9q-7 0 -16 -4.5t-22 -12.5l-109 -67l-28 75l112 68q29 18 65 18q45 0 77.5 -32t32.5 -78q0 -47 -32 -79.5t-78 -32.5h-153v81zM-103 875.5q4 16.5 4 44.5v91h84v-66v44q0 -34 -9 -59.5t-24 -35.5l-69 -41q10 6 14 22.5z
" />
    <glyph glyph-name="uni061B" unicode="&#x61b;" horiz-adv-x="293" 
d="M83.5 327.5q-22.5 24.5 -22.5 58.5q0 49 26 111.5t83 137.5l70 -47q-29 -40 -70 -113q-4 -8 -6.5 -12.5t-3.5 -6.5q23 2 44 -20t21 -50q0 -34 -24 -58.5t-58 -24.5q-37 0 -59.5 24.5zM84 21.5q-23 24.5 -23 57.5q0 35 24.5 58.5t57.5 23.5q32 0 56.5 -25t24.5 -57
q0 -34 -23.5 -58t-57.5 -24q-36 0 -59 24.5z" />
    <glyph glyph-name="uni061F" unicode="&#x61f;" horiz-adv-x="423" 
d="M157.5 275q-17.5 37 -48.5 77q-41 52 -59 89t-18 82q0 52 24.5 95t67.5 67.5t95 24.5q70 0 123 -44.5t66 -111.5l-79 -30q-2 5 -4 11t-6 12q-11 25 -33.5 41t-51.5 16q-38 0 -65 -27t-27 -65q0 -30 12 -54.5t38 -62.5q12 -16 17 -24q30 -44 41 -82t10 -92h-84
q-1 41 -18.5 78zM168 8q-22 21 -22 52q0 29 20.5 50.5t52.5 21.5q30 0 50.5 -21t20.5 -51q0 -29 -21.5 -51t-49.5 -22q-29 0 -51 21z" />
    <glyph glyph-name="uni0640" unicode="&#x640;" horiz-adv-x="148" 
d="M-10 10v110q0 10 10 10h148q10 0 10 -10v-110q0 -10 -10 -10h-148q-10 0 -10 10z" />
    <glyph glyph-name="uni064B" unicode="&#x64b;" 
d="M-155 939l279 102l32 -89l-280 -102zM-155 790l279 102l32 -89l-280 -102z" />
    <glyph glyph-name="uni064C" unicode="&#x64c;" 
d="M-155 820q0 16 -10 26l-26 29l-16 17l72 80q5 -4 18 -16t22 -22.5t14 -21.5q11 -16 11 -41q0 -33 -19 -52l73 27q-17 11 -26.5 29t-9.5 41q0 54 37.5 91.5t91.5 37.5q35 0 64.5 -17t47 -47t17.5 -65q0 -41 -23 -74.5t-63 -47.5l-259 -94l-31 87q15 12 15 33zM106.5 889.5
q11.5 11.5 11.5 29.5t-11.5 30t-29.5 12t-29.5 -12t-11.5 -30t11.5 -29.5t29.5 -11.5t29.5 11.5z" />
    <glyph glyph-name="uni064D" unicode="&#x64d;" 
d="M-155 -102l279 102l32 -88l-280 -103zM-155 -251l279 102l32 -88l-280 -103z" />
    <glyph glyph-name="uni064E" unicode="&#x64e;" 
d="M-155 790l279 102l32 -89l-280 -102z" />
    <glyph glyph-name="uni064F" unicode="&#x64f;" 
d="M-93 851q-10 18 -10 41q0 54 37.5 91.5t91.5 37.5q35 0 65 -17t47.5 -47t17.5 -65q0 -41 -23.5 -74.5t-62.5 -47.5l-194 -70l-31 89l89 33q-17 11 -27 29zM-3 865.5q12 -11.5 30 -11.5q17 0 29 11.5t12 29.5t-12 30t-29 12q-18 0 -30 -12t-12 -30t12 -29.5z" />
    <glyph glyph-name="uni0650" unicode="&#x650;" 
d="M-155 -102l279 102l32 -88l-280 -103z" />
    <glyph glyph-name="uni0651" unicode="&#x651;" 
d="M-166 880h83v-76q0 -9 6 -15.5t15 -6.5q10 0 16 6.5t6 15.5v65h79v-65q0 -9 6 -15.5t16 -6.5q9 0 15 6.5t6 15.5v76h83v-76q0 -43 -30.5 -73.5t-73.5 -30.5q-39 0 -62 30q-22 -30 -61 -30q-43 0 -73.5 30.5t-30.5 73.5v76z" />
    <glyph glyph-name="uni0652" unicode="&#x652;" 
d="M-64.5 717.5q-29.5 17.5 -47 47t-17.5 64.5t17.5 64.5t47 47t64.5 17.5t64.5 -17.5t47 -47t17.5 -64.5t-17.5 -64.5t-47 -47t-64.5 -17.5t-64.5 17.5zM0 799q16 0 25 15q5 6 5 16q0 16 -14 25q-6 5 -16 5q-17 0 -26 -15q-5 -8 -5 -16q0 -15 15 -25q6 -5 16 -5z" />
    <glyph glyph-name="uni0653" unicode="&#x653;" 
d="M-137 842q27 26 67 26h234v-95h-219q-12 0 -19.5 -7t-7.5 -20v-46h-82v73q0 43 27 69z" />
    <glyph glyph-name="uni0654" unicode="&#x654;" 
d="M-155 790l80 30q-26 15 -39 46q-5 14 -5 33q0 35 22.5 66t60.5 44l77 27l32 -88l-67 -25q-11 -4 -17.5 -12.5t-6.5 -19.5q0 -16 10.5 -26t25.5 -10q8 0 15 3l91 33l32 -88l-280 -102z" />
    <glyph glyph-name="uni0655" unicode="&#x655;" 
d="M-156 -247l80 30q-27 18 -38 47q-6 15 -6 33q0 35 23 66t61 44l77 27l32 -88l-68 -25q-11 -5 -17 -13.5t-6 -18.5q0 -16 10.5 -26t25.5 -10q8 0 15 3l90 33l32 -88l-279 -103z" />
    <glyph glyph-name="uni0656" unicode="&#x656;" 
d="M39 0v-160h-79v160h79z" />
    <glyph glyph-name="uni0658" unicode="&#x658;" 
d="M-79 922v-54q0 -34 22 -55.5t57 -21.5t57 21.5t22 55.5v76h86v-78q0 -46 -22 -84t-60 -60.5t-83 -22.5t-83 22.5t-60 60.5t-22 84v56h86z" />
    <glyph glyph-name="uni065A" unicode="&#x65a;" 
d="M-40.5 880.5q39.5 -25.5 40.5 -76.5q1 51 40.5 76.5t110.5 25.5v-93q-56 -4 -84 -27t-28 -86h-78q0 63 -28 86t-84 27v93q71 0 110.5 -25.5z" />
    <glyph glyph-name="uni065B" unicode="&#x65b;" 
d="M-67 820q28 23 28 86h78q0 -63 28 -86t84 -27v-93q-72 1 -111 26.5t-40 76.5q-1 -51 -40.5 -76.5t-110.5 -26.5v93q56 4 84 27z" />
    <glyph glyph-name="uni0660" unicode="&#x660;" horiz-adv-x="237" 
d="M61 76q-24 24 -24 58t24 58t58 24t57.5 -24t23.5 -58t-23.5 -58t-57.5 -24t-58 24z" />
    <glyph glyph-name="uni0661" unicode="&#x661;" horiz-adv-x="242" 
d="M64 348v21q0 91 -5 163.5t-22 136.5l112 19q21 -49 29.5 -156t8.5 -230v-302h-124v319q0 19 1 29z" />
    <glyph glyph-name="uni0662" unicode="&#x662;" horiz-adv-x="494" 
d="M164 326q-41 28 -62.5 76.5t-21.5 107.5l100 -1q0 -34 23.5 -57.5t57.5 -23.5t57 23.5t23 57.5v172h122v-172q0 -57 -26.5 -105.5t-72.5 -77t-103 -28.5q-56 0 -97 28zM64 348v21q0 91 -5 163.5t-22 136.5l112 19q21 -49 29.5 -156t8.5 -230v-302h-124v319q0 19 1 29z
" />
    <glyph glyph-name="uni0663" unicode="&#x663;" horiz-adv-x="698" 
d="M366 344q-42 52 -42 130v177h99v-170q0 -25 16.5 -42t41.5 -17t42 17t17 42v200h126v-207q0 -49 -25 -91t-67.5 -66.5t-92.5 -24.5q-73 0 -115 52zM64 348v21q0 91 -5 163.5t-22 136.5l112 19q21 -49 29.5 -156t8.5 -230v-302h-124v319q0 19 1 29zM125 344
q-42 52 -42 130l99 7q0 -25 17 -42t42 -17t42 17t17 42v170h99v-177q0 -78 -42 -130t-116 -52t-116 52z" />
    <glyph glyph-name="uni0664" unicode="&#x664;" horiz-adv-x="446" 
d="M155.5 21.5q-45.5 22.5 -76 62.5t-39.5 91q-3 18 -3 36q0 49 22.5 91.5t62.5 71t90 36.5l171 29l22 -120l-172 -31q-29 -5 -48 -26.5t-19 -49.5q0 -36 25 -60t59 -22h169v-130h-168q-50 -1 -95.5 21.5zM152 321q-44 26 -69.5 70.5t-25.5 97.5q0 52 25.5 96t69.5 70t97 26
h121v-123h-121q-29 0 -49 -20t-20 -49q0 -30 19.5 -50.5t47.5 -20.5q15 0 24 2l10 -122q-5 0 -14.5 -1.5t-17.5 -1.5q-53 0 -97 26z" />
    <glyph glyph-name="uni0665" unicode="&#x665;" horiz-adv-x="675" 
d="M87 45.5q-58 60.5 -58 168.5q0 69 24.5 125t70 109.5t135.5 143.5l36 36l90 -81q-3 -3 -14.5 -13t-22.5 -24q-78 -79 -118.5 -131.5t-55.5 -93t-15 -86.5q0 -54 26.5 -76t56.5 -22h191q30 0 56.5 22t26.5 76q0 46 -15 86.5t-55.5 93.5t-119.5 132q-4 6 -133 134l-20 19
l89 83q18 -20 153 -155q90 -90 135.5 -143.5t70 -109.5t24.5 -125q0 -108 -57.5 -168.5t-161.5 -60.5h-177q-104 0 -162 60.5z" />
    <glyph glyph-name="uni0666" unicode="&#x666;" horiz-adv-x="509" 
d="M330.5 141q-8.5 107 -8.5 230v306h123v-324v-44q0 -92 5 -166t22 -139l-112 -19q-21 49 -29.5 156zM17 571l11 118q38 -5 97.5 -8.5t106.5 -3.5h209v-123h-217q-108 0 -207 17z" />
    <glyph glyph-name="uni0667" unicode="&#x667;" horiz-adv-x="578" 
d="M436 314q-40 -111 -62.5 -185.5t-22.5 -128.5h-121q-5 98 97 373l118 322l116 -42l-116 -317zM134 695l117 -322q43 -116 71.5 -217.5t26.5 -155.5h-122q0 54 -22.5 128.5t-62.5 185.5l-9 22l-116 317z" />
    <glyph glyph-name="uni0668" unicode="&#x668;" horiz-adv-x="578" 
d="M17 27l116 317l9 24q39 105 62 182t23 131h122q2 -54 -26.5 -155.5t-71.5 -217.5l-117 -323zM230 681h121q0 -54 23.5 -132t61.5 -180l9 -25l116 -317l-116 -42l-118 323q-102 275 -97 373z" />
    <glyph glyph-name="uni0669" unicode="&#x669;" horiz-adv-x="502" 
d="M323.5 113q-8.5 80 -8.5 147v12h-78q-58 0 -106.5 26.5t-76.5 72.5t-28 102q0 58 28.5 106t76.5 76.5t106 28.5q56 0 102 -28t72.5 -76.5t26.5 -106.5v-120v-44q0 -93 5 -167t22 -138l-112 -20q-21 49 -29.5 129zM315 394v79q0 34 -22.5 57.5t-55.5 23.5q-34 0 -57.5 -23
t-23.5 -58q0 -34 23 -56.5t58 -22.5h78z" />
    <glyph glyph-name="uni066A" unicode="&#x66a;" horiz-adv-x="553" 
d="M37 53l392 632l87 -55l-393 -631zM342.5 37.5q-24.5 24.5 -24.5 57.5t23.5 57t57.5 24q36 0 59 -24t23 -57q0 -35 -24.5 -58.5t-57.5 -23.5q-32 0 -56.5 24.5zM88.5 517q-24.5 25 -24.5 57q0 34 23.5 58t57.5 24q36 0 59 -24t23 -58q0 -35 -24.5 -58.5t-57.5 -23.5
q-32 0 -56.5 25z" />
    <glyph glyph-name="uni066B" unicode="&#x66b;" horiz-adv-x="330" 
d="M24 -47q12 29 64 147.5t135 310.5h98l-201 -458h-96z" />
    <glyph glyph-name="uni066C" unicode="&#x66c;" horiz-adv-x="302" 
d="M118 -12l11 18q-24 -2 -44.5 20t-20.5 51q0 34 24 58t58 24q37 0 59.5 -24t22.5 -59q0 -105 -109 -249l-70 48q28 40 69 113z" />
    <glyph glyph-name="uni066D" unicode="&#x66d;" horiz-adv-x="505" 
d="M268 405.5q-6 14.5 -10 44.5l-5 30l39 29q12 -7 30 -16q25 -13 36.5 -23.5t34.5 -42.5l36 -49l-95 -70l-36 50q-24 33 -30 47.5zM359 501q-6 0 -36 4q-34 4 -31 4l-15 47l24 23q21 20 34 28t51 20l59 19l36 -112l-58 -19q-42 -14 -64 -14zM221 571q-3 7 -7 14
q-13 27 -16.5 42t-3.5 55v62h118v-62q0 -40 -3.5 -55t-17.5 -43l-14 -28h-49q-4 8 -7 15zM24 535l36 112l59 -19q38 -12 51.5 -20t35.5 -30l22 -22l-15 -47l-24 -3q-38 -4 -42 -4q-23 0 -65 14zM74 378l36 50q24 33 36 43.5t39 23.5l28 14l40 -29q-5 -20 -6 -32
q-6 -29 -12 -43.5t-29 -46.5l-37 -49z" />
    <glyph glyph-name="uni066E" unicode="&#x66e;" horiz-adv-x="863" 
d="M175 32.5q-56 32.5 -88.5 88.5t-32.5 122v114h123v-107q0 -49 35.5 -84.5t84.5 -35.5h327q34 0 57 23t23 58v146h123v-146q0 -57 -26.5 -105.5t-73 -77t-103.5 -28.5h-327q-66 0 -122 32.5z" />
    <glyph glyph-name="uni066F" unicode="&#x66f;" horiz-adv-x="718" 
d="M291.5 307.5q28.5 48.5 77 77t106.5 28.5v0q56 0 102 -28.5t72.5 -77t26.5 -105.5v-206q0 -84 -41.5 -155.5t-113 -113.5t-156.5 -42q-84 0 -155.5 42t-113.5 113.5t-42 155.5v187h123v-180q0 -51 25.5 -94t69 -68.5t93.5 -25.5q52 0 95 25.5t68.5 68.5t25.5 94v-3h-79v0
q-58 0 -106.5 26.5t-77 72.5t-28.5 103t28.5 105.5zM416.5 152.5q23.5 -22.5 58.5 -22.5v0h80v79q0 34 -23 57.5t-57 23.5v0q-35 0 -58.5 -23t-23.5 -58q0 -34 23.5 -56.5z" />
    <glyph glyph-name="uni0670" unicode="&#x670;" 
d="M39 860v-160h-79v160h79z" />
    <glyph glyph-name="uni0695" unicode="&#x695;" horiz-adv-x="286" 
d="M62.5 -108q30.5 24 43 55t12.5 87v323h123v-323q0 -81 -21.5 -133t-71 -92t-142.5 -85l-46 103q72 41 102.5 65zM85 -393.5q39 -25.5 40 -76.5q2 51 41 76.5t110 26.5v-93q-56 -4 -83.5 -27t-27.5 -86h-78q0 63 -28 86t-84 27v93q71 -1 110 -26.5z" />
    <glyph glyph-name="uni06A1" unicode="&#x6a1;" horiz-adv-x="863" 
d="M175 32.5q-56 32.5 -88.5 88.5t-32.5 122v114h123v-107q0 -49 35.5 -84.5t84.5 -35.5h348q25 0 42 16.5t17 41.5v14h-62v0q-53 0 -97.5 24.5t-70.5 66.5t-26 94q0 54 26.5 99t71 71t96.5 26v0q52 0 94 -26t66.5 -71t24.5 -99v-206q0 -49 -24 -90.5t-65.5 -66t-91.5 -24.5
h-349q-66 0 -122 32.5zM711 317v74q0 31 -21.5 52t-51.5 21v0q-31 1 -52.5 -20.5t-21.5 -52.5q0 -32 21 -53t53 -21v0h73z" />
    <glyph glyph-name="uni06A4" unicode="&#x6a4;" horiz-adv-x="863" 
d="M175 32.5q-56 32.5 -88.5 88.5t-32.5 122v114h123v-107q0 -49 35.5 -84.5t84.5 -35.5h348q25 0 42 16.5t17 41.5v14h-62v0q-53 0 -97.5 24.5t-70.5 66.5t-26 94q0 54 26.5 99t71 71t96.5 26v0q52 0 94 -26t66.5 -71t24.5 -99v-206q0 -49 -24 -90.5t-65.5 -66t-91.5 -24.5
h-349q-66 0 -122 32.5zM638 317h73v74q0 31 -21.5 52t-51.5 21v0q-31 1 -52.5 -20.5t-21.5 -52.5q0 -32 21 -53t53 -21v0zM501 780h115v-115h-115v115zM668 780h115v-115h-115v115zM585 947h115v-115h-115v115z" />
    <glyph glyph-name="uni06B5" unicode="&#x6b5;" horiz-adv-x="770" 
d="M209.5 -139q-71.5 42 -113.5 113.5t-42 155.5v187h123v-180q0 -51 25.5 -94t69 -68.5t93.5 -25.5q52 0 95 25.5t68.5 68.5t25.5 94v533h123v-540q0 -84 -42 -155.5t-113.5 -113.5t-156.5 -42q-84 0 -155.5 42zM573.5 918.5q39.5 -25.5 40.5 -76.5q1 51 40.5 76.5
t110.5 25.5v-93q-56 -4 -83.5 -27t-27.5 -86h-79q0 63 -28 86t-84 27v93q71 0 110.5 -25.5z" />
    <glyph glyph-name="uni06BE" unicode="&#x6be;" horiz-adv-x="779" 
d="M299 130q34 0 56 24t22 55q0 30 -22 54t-56 24t-56.5 -22.5t-22.5 -55.5q0 -36 24 -57.5t55 -21.5h232q34 0 57.5 22.5t23.5 56.5q0 33 -23.5 55.5t-57.5 22.5h-483v123h483q57 0 105.5 -26.5t77 -72.5t28.5 -102q0 -57 -29 -105t-77.5 -76t-104.5 -28h-239
q-60 0 -105 31t-69 79t-24 99q0 45 26 89.5t73 73t106 28.5q68 0 109.5 -35t58.5 -80t17 -76q0 -67 -28.5 -114.5t-73 -71t-90.5 -23.5h-294l1 130h300z" />
    <glyph glyph-name="uni06C2" unicode="&#x6c2;" horiz-adv-x="502" 
d="M65 125q-15 36 -15 75q0 41 17 81t49 71l56 56l-44 43l88 86l186 -185q31 -31 47.5 -71t16.5 -81q0 -39 -15 -75t-44 -65q-30 -30 -69 -45.5t-80 -15.5t-80 15.5t-69 45.5q-29 29 -44 65zM259 128q33 0 57 24q23 23 23 54q0 32 -25 59l-56 57l-56 -56q-24 -24 -24 -58
q0 -33 23 -56q24 -24 58 -24zM64 664l93 35q-26 15 -39 46q-5 18 -5 33q0 35 22.5 66t60.5 44l77 27l32 -88l-67 -25q-11 -4 -17 -12.5t-6 -19.5q0 -16 10 -26t25 -10q8 0 15 3l91 33l32 -88l-292 -107z" />
    <glyph glyph-name="uni06C3" unicode="&#x6c3;" horiz-adv-x="502" 
d="M65 125q-15 36 -15 75q0 41 17 81t49 71l56 56l-44 43l88 86l186 -185q31 -31 47.5 -71t16.5 -81q0 -39 -15 -75t-44 -65q-30 -30 -69 -45.5t-80 -15.5t-80 15.5t-69 45.5q-29 29 -44 65zM259 128q33 0 57 24q23 23 23 54q0 32 -25 59l-56 57l-56 -56q-24 -24 -24 -58
q0 -33 23 -56q24 -24 58 -24zM77 729h115v-115h-115v115zM244 729h115v-115h-115v115z" />
    <glyph glyph-name="uni06C6" unicode="&#x6c6;" horiz-adv-x="507" 
d="M262 -104.5q44 24.5 61.5 48t17.5 56.5h-79v0q-58 0 -106.5 26.5t-76.5 72.5t-28 103t28.5 105.5t77 77t105.5 28.5v0q56 0 102.5 -28.5t73 -77t26.5 -105.5v-151q0 -88 -29 -142.5t-90 -94t-180 -90.5l-38 108q91 39 135 63.5zM341 122v80q0 34 -23 57.5t-56 23.5v0
q-34 0 -57.5 -23t-23.5 -58q0 -34 23.5 -57t57.5 -23v0h79zM196 600.5q-28 23.5 -84 27.5v93q71 -1 110.5 -26.5t40.5 -76.5q1 51 40.5 76.5t110.5 26.5v-93q-56 -4 -83.5 -27.5t-27.5 -86.5h-79q0 63 -28 86.5z" />
    <glyph glyph-name="uni06C7" unicode="&#x6c7;" horiz-adv-x="507" 
d="M262 -104.5q44 24.5 61.5 48t17.5 56.5h-79v0q-58 0 -106.5 26.5t-76.5 72.5t-28 103t28.5 105.5t77 77t105.5 28.5v0q56 0 102.5 -28.5t73 -77t26.5 -105.5v-151q0 -88 -29 -142.5t-90 -94t-180 -90.5l-38 108q91 39 135 63.5zM262 122h79v80q0 34 -23 57.5t-56 23.5v0
q-34 0 -57.5 -23t-23.5 -58q0 -34 23.5 -57t57.5 -23v0zM165.5 629q-9.5 18 -9.5 41q0 54 37.5 91.5t90.5 37.5q35 0 65 -17t47.5 -47t17.5 -65q0 -42 -23 -75t-63 -47l-194 -70l-31 89l89 32q-17 12 -26.5 30zM255.5 643.5q11.5 -11.5 29.5 -11.5t29.5 11.5t11.5 29.5
t-11.5 30t-29.5 12t-29.5 -12t-11.5 -30t11.5 -29.5z" />
    <glyph glyph-name="uni06CE" unicode="&#x6ce;" horiz-adv-x="756" 
d="M175 -192.5q-56 32.5 -88.5 88.5t-32.5 122v232h123v-225q0 -50 35.5 -85t84.5 -35h225q29 0 46.5 18.5t17.5 46.5q0 22 -13 39.5t-36 22.5l-250 58v122q0 54 28 101t76 75t103 28h176v-123h-178q-34 0 -58 -24.5t-24 -57.5v-23q101 -22 140 -32l27 -6q60 -17 98.5 -69
t38.5 -115q0 -52 -26 -95.5t-70 -69.5t-96 -26h-225q-66 0 -122 32.5zM142.5 483.5q-27.5 23.5 -83.5 27.5v92q71 0 110 -25.5t40 -76.5q1 51 40.5 76.5t110.5 25.5v-92q-56 -4 -83.5 -27.5t-27.5 -86.5h-79q0 63 -27.5 86.5z" />
    <glyph glyph-name="uni06D3" unicode="&#x6d3;" horiz-adv-x="646" 
d="M132 26q-44 26 -69.5 69.5t-25.5 95.5q0 63 38.5 115t98.5 69l27 6q39 10 140 32l38 -118l-165 -38q-23 -5 -36.5 -22.5t-13.5 -39.5q0 -28 18 -46.5t47 -18.5h377v-130h-377q-53 0 -97 26zM57 491l93 35q-26 15 -39 46q-5 18 -5 33q0 35 22.5 66t60.5 44l77 27l32 -88
l-67 -25q-11 -4 -17 -12.5t-6 -19.5q0 -16 10 -26t25 -10q8 0 15 3l91 33l32 -88l-292 -107z" />
    <glyph glyph-name="uni06D4" unicode="&#x6d4;" horiz-adv-x="330" 
d="M58 130h245l-31 -130h-245z" />
    <glyph glyph-name="uni06D5" unicode="&#x6d5;" horiz-adv-x="506" 
d="M68.5 125q-14.5 36 -14.5 75q0 41 17 81t49 71l55 56l-44 43l88 86l186 -185q31 -31 48 -71t17 -81q0 -39 -15 -75t-44 -65q-30 -30 -69 -45.5t-80 -15.5t-80 15.5t-70 45.5q-29 29 -43.5 65zM262 128q33 0 58 24q22 22 22 54q0 34 -24 59l-56 57l-56 -56
q-25 -25 -25 -58q0 -32 24 -56t57 -24z" />
    <glyph glyph-name="uni06F0" unicode="&#x6f0;" horiz-adv-x="458" 
d="M132 26q-44 26 -69.5 70t-25.5 96t25.5 96t69.5 70t97 26q52 0 96 -26t70 -70t26 -96t-26 -96t-70 -70t-96 -26q-53 0 -97 26zM278 143q20 20 20 49t-20 49t-49 20q-30 0 -49.5 -20t-19.5 -49t19.5 -49t49.5 -20q29 0 49 20z" />
    <glyph glyph-name="uni06F1" unicode="&#x6f1;" horiz-adv-x="235" 
d="M64 348v21q0 91 -5 163.5t-22 136.5l112 19q20 -50 28.5 -156.5t8.5 -229.5v-302h-123v319q0 19 1 29z" />
    <glyph glyph-name="uni06F2" unicode="&#x6f2;" horiz-adv-x="494" 
d="M164 326q-41 28 -62.5 76.5t-21.5 107.5l100 -1q0 -34 23.5 -57.5t57.5 -23.5t57 23.5t23 57.5v172h122v-172q0 -57 -26.5 -105.5t-72.5 -77t-103 -28.5q-56 0 -97 28zM64 348v21q0 91 -5 163.5t-22 136.5l112 19q20 -50 28.5 -156.5t8.5 -229.5v-302h-123v319q0 19 1 29
z" />
    <glyph glyph-name="uni06F3" unicode="&#x6f3;" horiz-adv-x="695" 
d="M366 344q-42 52 -42 130v177h99v-170q0 -25 16.5 -42t41.5 -17t42.5 17t17.5 42v200h123v-207q0 -49 -24.5 -91t-66.5 -66.5t-92 -24.5q-73 0 -115 52zM64 348v21q0 91 -5 163.5t-22 136.5l112 19q20 -50 28.5 -156.5t8.5 -229.5v-302h-123v319q0 19 1 29zM125 344
q-42 52 -42 130l99 7q0 -25 17 -42t42 -17t42 17t17 42v170h98v-177q0 -78 -41.5 -130t-115.5 -52t-116 52z" />
    <glyph glyph-name="uni06F4" unicode="&#x6f4;" horiz-adv-x="588" 
d="M64 348v22q0 90 -5 162.5t-22 136.5l112 20q20 -50 28.5 -157t8.5 -230v-302h-123v320q0 19 1 28zM196 296q-44 27 -68 74t-24 105l76 5q0 -34 23.5 -57.5t57.5 -23.5h236v-130h-200q-57 0 -101 27zM350.5 297.5q-48.5 28.5 -77 77t-28.5 105.5q0 56 28.5 102t77 72.5
t105.5 26.5h83v-123h-83q-34 0 -57.5 -22.5t-23.5 -55.5q0 -34 23.5 -57.5t57.5 -23.5h104v-130h-104q-57 0 -105.5 28.5z" />
    <glyph glyph-name="uni06F5" unicode="&#x6f5;" horiz-adv-x="727" 
d="M372 40q-29 43 -29 122v83h82v-77q0 -23 14.5 -38.5t42.5 -15.5q33 0 57.5 15.5t24.5 68.5q0 40 -15 78t-56 91t-119 131q-9 12 -134 137l-16 15l89 83q6 -7 67 -69.5t83 -83.5q90 -90 135.5 -143.5t70.5 -107t25 -115.5q0 -107 -57 -162t-163 -55q-73 0 -102 43zM90 52
q-57 55 -57 162q0 62 24.5 115.5t70 106.5t135.5 143q48 48 56 58l90 -83q-45 -41 -57 -56q-78 -78 -119 -130.5t-55.5 -91t-14.5 -78.5q0 -53 24.5 -68.5t57.5 -15.5q28 0 42.5 15.5t14.5 38.5v77h82v-83q0 -79 -29.5 -122t-102.5 -43q-105 0 -162 55z" />
    <glyph glyph-name="uni06F6" unicode="&#x6f6;" horiz-adv-x="546" 
d="M70 30l156 272q58 102 115.5 185.5t100.5 117.5l84 -77q-39 -34 -80 -97t-97 -161q-14 -26 -21 -37l-152 -264zM44.5 392q-14.5 37 -14.5 75q0 42 17 81.5t49 70.5l110 104l87 -86l-111 -105q-25 -22 -25 -57q0 -33 24 -57q22 -22 61 -22q19 0 34.5 7t24.5 21l80 -58
q-40 -39 -88 -62t-94 -23q-66 0 -111 45q-29 29 -43.5 66z" />
    <glyph glyph-name="uni06F7" unicode="&#x6f7;" horiz-adv-x="578" 
d="M436 314q-40 -111 -62.5 -185.5t-22.5 -128.5h-121q-5 98 97 373l118 322l116 -42l-116 -317zM134 695l117 -322q43 -116 71.5 -217.5t26.5 -155.5h-122q0 54 -22.5 128.5t-62.5 185.5l-9 22l-116 317z" />
    <glyph glyph-name="uni06F8" unicode="&#x6f8;" horiz-adv-x="578" 
d="M142 368q39 105 62 182t23 131h122q2 -54 -26.5 -155.5t-71.5 -217.5l-117 -323l-117 42l116 317zM445 -15l-118 323q-102 275 -97 373h121q0 -54 23.5 -132t61.5 -180l9 -25l116 -317z" />
    <glyph glyph-name="uni06F9" unicode="&#x6f9;" horiz-adv-x="502" 
d="M323.5 113q-8.5 80 -8.5 147v12h-78q-58 0 -106.5 26.5t-76.5 72.5t-28 102q0 58 28.5 106t76.5 76.5t106 28.5q56 0 102 -28t72.5 -76.5t26.5 -106.5v-120v-44q0 -93 5 -167t22 -138l-112 -20q-21 49 -29.5 129zM315 394v79q0 34 -22.5 57.5t-55.5 23.5q-34 0 -57.5 -23
t-23.5 -58q0 -34 23 -56.5t58 -22.5h78z" />
    <glyph glyph-name="uni0756" unicode="&#x756;" horiz-adv-x="863" 
d="M175 32.5q-56 32.5 -88.5 88.5t-32.5 122v114h123v-107q0 -49 35.5 -84.5t84.5 -35.5h327q34 0 57 23t23 58v146h123v-146q0 -57 -26.5 -105.5t-73 -77t-103.5 -28.5h-327q-66 0 -122 32.5zM379 449q-28 23 -84 27v93q71 0 110 -25.5t40 -76.5q2 51 41 76.5t110 25.5v-93
q-56 -4 -83.5 -27t-27.5 -86h-78q0 63 -28 86z" />
    <glyph glyph-name="uni0769" unicode="&#x769;" horiz-adv-x="721" 
d="M209.5 -139q-71.5 42 -113.5 113.5t-42 155.5v187h123v-180q0 -51 25.5 -94t69 -68.5t93.5 -25.5q52 0 95 25.5t68.5 68.5t25.5 94v220h123v-227q0 -84 -42 -155.5t-113.5 -113.5t-156.5 -42q-84 0 -155.5 42zM306 438h115v-115h-115v115zM295.5 613.5
q-27.5 23.5 -83.5 27.5v92q71 0 110 -25.5t40 -76.5q1 51 40.5 76.5t110.5 25.5v-92q-56 -4 -83.5 -27.5t-27.5 -86.5h-79q0 63 -27.5 86.5z" />
    <glyph glyph-name="uni08A0" unicode="&#x8a0;" horiz-adv-x="863" 
d="M175 32.5q-56 32.5 -88.5 88.5t-32.5 122v114h123v-107q0 -49 35.5 -84.5t84.5 -35.5h327q34 0 57 23t23 58v146h123v-146q0 -57 -26.5 -105.5t-73 -77t-103.5 -28.5h-327q-66 0 -122 32.5zM388.5 -219q-27.5 23 -83.5 27v93q71 -1 110 -26.5t40 -76.5q1 51 40.5 76.5
t110.5 26.5v-93q-56 -4 -83.5 -27t-27.5 -86h-79q0 63 -27.5 86z" />
    <glyph glyph-name="Wgrave" unicode="&#x1e80;" horiz-adv-x="885" 
d="M10 702h127l95 -569l132 516h158l132 -516l94 569h128l-136 -702h-175l-122 531l-123 -531h-174zM237 894h131l135 -142h-118z" />
    <glyph glyph-name="wgrave" unicode="&#x1e81;" horiz-adv-x="720" 
d="M9 508h126l65 -326l109 298h110l109 -298l59 326h125l-90 -508h-141l-117 307l-116 -307h-140zM157 722h131l135 -142h-118z" />
    <glyph glyph-name="Wacute" unicode="&#x1e82;" horiz-adv-x="885" 
d="M10 702h127l95 -569l132 516h158l132 -516l94 569h128l-136 -702h-175l-122 531l-123 -531h-174zM517 893h131l-149 -142h-117z" />
    <glyph glyph-name="wacute" unicode="&#x1e83;" horiz-adv-x="720" 
d="M9 508h126l65 -326l109 298h110l109 -298l59 326h125l-90 -508h-141l-117 307l-116 -307h-140zM437 723h131l-149 -142h-117z" />
    <glyph glyph-name="Wdieresis" unicode="&#x1e84;" horiz-adv-x="885" 
d="M10 702h127l95 -569l132 516h158l132 -516l94 569h128l-136 -702h-175l-122 531l-123 -531h-174zM318 708.5q-20 19.5 -20 47.5t20 48t48 20t47.5 -20t19.5 -48t-19.5 -47.5t-47.5 -19.5t-48 19.5zM475.5 708.5q-19.5 19.5 -19.5 47.5t19.5 48t47.5 20t48 -20t20 -48
t-20 -47.5t-48 -19.5t-47.5 19.5z" />
    <glyph glyph-name="wdieresis" unicode="&#x1e85;" horiz-adv-x="720" 
d="M9 508h126l65 -326l109 298h110l109 -298l59 326h125l-90 -508h-141l-117 307l-116 -307h-140zM241 599.5q-20 19.5 -20 47.5t20 48t48 20t47.5 -20t19.5 -48t-19.5 -47.5t-47.5 -19.5t-48 19.5zM398.5 599.5q-19.5 19.5 -19.5 47.5t19.5 48t47.5 20t48 -20t20 -48
t-20 -47.5t-48 -19.5t-47.5 19.5z" />
    <glyph glyph-name="uni1E9E" unicode="&#x1e9e;" horiz-adv-x="722" 
d="M90.5 613q24.5 41 66.5 65t91 24h100v-119h-93q-25 0 -42 -17.5t-17 -43.5v-522h-130v522q0 50 24.5 91zM273 405l215 178h-184v119h336v-124l-300 -264zM330.5 12q-50.5 24 -84.5 66l95 85q15 -25 41 -39.5t56 -14.5q47 0 81 34.5t34 81.5t-34 81.5t-81 34.5
q-23 0 -45.5 -7t-52.5 -20l-35 97q64 38 133 38q67 0 123 -29t89 -80t33 -115t-33 -118.5t-89.5 -86.5t-122.5 -32q-57 0 -107.5 24z" />
    <glyph glyph-name="Ygrave" unicode="&#x1ef2;" horiz-adv-x="600" 
d="M233 228l-223 474h141l146 -317l152 317h141l-227 -474v-228h-130v228zM109 933h131l135 -142h-118z" />
    <glyph glyph-name="ygrave" unicode="&#x1ef3;" horiz-adv-x="557" 
d="M47 -113h85q32 0 55 16.5t33 45.5l187 559h132l-195 -587q-18 -71 -73 -115t-130 -44h-94v125zM12 508h131l157 -508h-131zM82 750h131l135 -142h-118z" />
    <glyph glyph-name="uni2000" unicode="&#x2000;" horiz-adv-x="590" 
 />
    <glyph glyph-name="uni2001" unicode="&#x2001;" horiz-adv-x="640" 
 />
    <glyph glyph-name="uni2002" unicode="&#x2002;" horiz-adv-x="590" 
 />
    <glyph glyph-name="uni2003" unicode="&#x2003;" horiz-adv-x="640" 
 />
    <glyph glyph-name="uni2004" unicode="&#x2004;" horiz-adv-x="573" 
 />
    <glyph glyph-name="uni2005" unicode="&#x2005;" horiz-adv-x="576" 
 />
    <glyph glyph-name="uni2006" unicode="&#x2006;" horiz-adv-x="534" 
 />
    <glyph glyph-name="uni2009" unicode="&#x2009;" horiz-adv-x="551" 
 />
    <glyph glyph-name="uni200A" unicode="&#x200a;" horiz-adv-x="522" 
 />
    <glyph glyph-name="uni200B" unicode="&#x200b;" horiz-adv-x="451" 
 />
    <glyph glyph-name="uni200C" unicode="&#x200c;" 
 />
    <glyph glyph-name="uni200D" unicode="&#x200d;" 
 />
    <glyph glyph-name="uni200E" unicode="&#x200e;" 
 />
    <glyph glyph-name="uni200F" unicode="&#x200f;" 
 />
    <glyph glyph-name="endash" unicode="&#x2013;" horiz-adv-x="500" 
d="M500 222h-500v115h500v-115z" />
    <glyph glyph-name="emdash" unicode="&#x2014;" horiz-adv-x="1000" 
d="M1000 222h-1000v115h1000v-115z" />
    <glyph glyph-name="quoteleft" unicode="&#x2018;" horiz-adv-x="238" 
d="M144 683l-10 -18q23 2 44 -20t21 -51q0 -34 -24.5 -58t-58.5 -24q-37 0 -59.5 24t-22.5 59q0 105 109 249l71 -48q-29 -40 -70 -113z" />
    <glyph glyph-name="quoteright" unicode="&#x2019;" horiz-adv-x="238" 
d="M94 672l11 19q-24 -2 -44.5 19.5t-20.5 50.5q0 35 24 59t58 24q36 0 59 -24.5t23 -58.5q0 -105 -109 -249l-71 47q29 40 70 113z" />
    </font>
</defs>
</svg>
