<?xml version="1.0" standalone="no"?>
<!DOCTYPE svg PUBLIC "-//W3C//DTD SVG 1.1//EN" "http://www.w3.org/Graphics/SVG/1.1/DTD/svg11.dtd" >
<svg xmlns="http://www.w3.org/2000/svg" xmlns:xlink="http://www.w3.org/1999/xlink" version="1.1">
<metadata>
Created by FontForge 20170731 at Mon Aug  2 17:43:48 2021
 By Aleksey,,,
Copyright (c) 2021 by www.fontiran.com All rights reserved.
</metadata>
<defs>
<font id="KalamehWeb-Black" horiz-adv-x="0" >
  <font-face 
    font-family="KalamehWeb Black"
    font-weight="900"
    font-stretch="normal"
    units-per-em="1000"
    panose-1="0 0 0 0 0 0 0 0 0 0"
    ascent="800"
    descent="-200"
    x-height="532"
    cap-height="730"
    bbox="-267 -598 1477 1369"
    underline-thickness="50"
    underline-position="-175"
    unicode-range="U+000D-FEFC"
  />
<missing-glyph horiz-adv-x="445" 
d="M20 705h405v-705h-405v705zM220.5 300.5q3.5 9.5 5.5 29.5q1 4 1 11t2 17l-34 24l-23 -10q-21 -8 -29.5 -14.5t-24.5 -29.5l-12 -17l81 -60l13 17q17 23 20.5 32.5zM143 372q3 0 23 4q12 3 29 6l13 39l-16 19q-14 17 -22.5 23t-36.5 15l-20 7l-32 -96l20 -7
q30 -10 42 -10zM351 310l-12 17q-16 22 -24 29t-27 15q-21 9 -25 11l-34 -24l3 -29q1 -19 4.5 -28.5t19.5 -32.5l13 -18zM264 445q11 18 13.5 28t2.5 38v21h-101v-21q0 -28 2.5 -38t13.5 -29q1 -2 13 -23h42zM377 387l-31 96l-21 -6q-27 -9 -35.5 -14.5t-21.5 -20.5l-18 -21
l13 -39l23 -5q22 -5 30 -5q14 0 41 9z" />
    <glyph glyph-name="uniFDF2" unicode="&#x627;&#xfedf;&#xfee0;&#xfeea;" horiz-adv-x="1362" arabic-form="isolated" 
d="M143.5 62q-54.5 32 -86.5 86t-32 117t32 113.5t86 79t119 28.5v0h39v70h182v-291q0 -64 -28.5 -118t-79 -85.5t-113.5 -31.5v0q-64 0 -118.5 32zM290.5 235.5q10.5 11.5 10.5 29.5v37h-39v0q-19 0 -30 -10t-11 -27q0 -18 11 -29.5t30 -11.5v0q18 0 28.5 11.5zM407 27
q-41 27 -62 73.5t-21 103.5v202h159v-190q0 -10 5.5 -16t15.5 -6h40q10 0 10 -10v-174q0 -10 -10 -10h-40q-56 0 -97 27zM534 10v174q0 10 10 10h40q10 0 15.5 6t5.5 16v340h184v-340q0 -10 5.5 -16t15.5 -6h40q10 0 10 -10v-174q0 -10 -10 -10h-40q-70 0 -113 43
q-43 -43 -113 -43h-40q-10 0 -10 10zM840 10v174q0 10 10 10h38q8 0 14 6t6 15v416h184v-428q0 -55 -27 -101.5t-73 -74t-102 -27.5h-40q-10 0 -10 10zM542.5 643q-36.5 37 -36.5 90v83h119v-83q0 -8 8 -8t8 8v70h113v-70q0 -8 8 -8t8 8v83h119v-83q0 -53 -36.5 -90
t-89.5 -37q-41 0 -66 25q-23 -25 -65 -25q-53 0 -89.5 37zM641 994h113v-160h-113v160zM1148 683h184v-683h-184v683z" />
    <glyph glyph-name="uni06440622" unicode="&#xfedf;&#xfe82;" horiz-adv-x="562" arabic-form="isolated" 
d="M34 194h299q8 0 14 6t6 15v468h184v-480q0 -55 -27 -101.5t-73 -74t-102 -27.5h-301v194zM29 642l178 47l103 -426l-178 -47zM-86 838.5q34 30.5 82 30.5h231v-139h-203q-13 0 -18.5 -5t-5.5 -17v-53h-120v98q0 55 34 85.5z" />
    <glyph glyph-name="uni06440622.fina" unicode="&#xfee0;&#xfe82;" horiz-adv-x="598" arabic-form="final" 
d="M34 194h298q10 0 15.5 6t5.5 16v466h184v-466q0 -10 5.5 -16t15.5 -6h40q10 0 10 -10v-174q0 -10 -10 -10h-40q-70 0 -113 43q-43 -43 -113 -43h-298v194zM29 642l178 47l103 -426l-178 -47zM-86 838.5q34 30.5 82 30.5h231v-139h-203q-13 0 -18.5 -5t-5.5 -17v-53h-120
v98q0 55 34 85.5z" />
    <glyph glyph-name="uni06440623" unicode="&#xfedf;&#xfe84;" horiz-adv-x="562" arabic-form="isolated" 
d="M34 194h299q8 0 14 6t6 15v468h184v-480q0 -55 -27 -101.5t-73 -74t-102 -27.5h-301v194zM29 642l178 47l103 -426l-178 -47zM-40 806l82 31q-17 19 -26 45q-5 14 -5 33q0 40 26.5 75.5t71.5 50.5l91 31l47 -130l-76 -28q-11 -3 -11 -13q0 -6 4 -11t11 -5l8 2l102 37
l47 -129l-326 -120z" />
    <glyph glyph-name="uni06440623.fina" unicode="&#xfee0;&#xfe84;" horiz-adv-x="598" arabic-form="final" 
d="M34 194h298q10 0 15.5 6t5.5 16v466h184v-466q0 -10 5.5 -16t15.5 -6h40q10 0 10 -10v-174q0 -10 -10 -10h-40q-70 0 -113 43q-43 -43 -113 -43h-298v194zM29 642l178 47l103 -426l-178 -47zM-40 806l82 31q-17 19 -26 45q-5 14 -5 33q0 40 26.5 75.5t71.5 50.5l91 31
l47 -130l-76 -28q-11 -3 -11 -13q0 -6 4 -11t11 -5l8 2l102 37l47 -129l-326 -120z" />
    <glyph glyph-name="uni06440625" unicode="&#xfedf;&#xfe88;" horiz-adv-x="562" arabic-form="isolated" 
d="M34 194h299q8 0 14 6t6 15v468h184v-480q0 -55 -27 -101.5t-73 -74t-102 -27.5h-301v194zM20 -313l82 31q-17 19 -26 45q-5 14 -5 33q0 40 26.5 75.5t71.5 50.5l91 31l47 -130l-76 -28q-11 -3 -11 -13q0 -6 4 -11t11 -5l8 2l102 37l47 -129l-326 -120zM29 642l178 47
l103 -426l-178 -47z" />
    <glyph glyph-name="uni06440625.fina" unicode="&#xfee0;&#xfe88;" horiz-adv-x="598" arabic-form="final" 
d="M34 194h298q10 0 15.5 6t5.5 16v466h184v-466q0 -10 5.5 -16t15.5 -6h40q10 0 10 -10v-174q0 -10 -10 -10h-40q-70 0 -113 43q-43 -43 -113 -43h-298v194zM20 -313l82 31q-17 19 -26 45q-5 14 -5 33q0 40 26.5 75.5t71.5 50.5l91 31l47 -130l-76 -28q-11 -3 -11 -13
q0 -6 4 -11t11 -5l8 2l102 37l47 -129l-326 -120zM29 642l178 47l103 -426l-178 -47z" />
    <glyph glyph-name="uni06440627" unicode="&#xfedf;&#xfe8e;" horiz-adv-x="562" arabic-form="isolated" 
d="M34 194h299q8 0 14 6t6 15v468h184v-480q0 -55 -27 -101.5t-73 -74t-102 -27.5h-301v194zM29 642l178 47l103 -426l-178 -47z" />
    <glyph glyph-name="uni06440627.fina" unicode="&#xfee0;&#xfe8e;" horiz-adv-x="598" arabic-form="final" 
d="M34 194h298q10 0 15.5 6t5.5 16v466h184v-466q0 -10 5.5 -16t15.5 -6h40q10 0 10 -10v-174q0 -10 -10 -10h-40q-70 0 -113 43q-43 -43 -113 -43h-298v194zM29 642l178 47l103 -426l-178 -47z" />
    <glyph glyph-name="uni06440671" unicode="&#xfedf;&#xfb51;" horiz-adv-x="562" 
d="M34 194h299q8 0 14 6t6 15v468h184v-480q0 -55 -27 -101.5t-73 -74t-102 -27.5h-301v194zM29 642l178 47l103 -426l-178 -47zM-55 884l146 86l56 -101l8 -11l-146 -86zM99 759q-29 29 -29 71v13l87 6v9v1q1 0 7.5 -5.5t10.5 -5.5h94q7 0 12 4.5t5 11.5q0 9 -4.5 14
t-13.5 5q-4 0 -9 -2.5t-11.5 -7t-13.5 -8.5l-125 -76l-41 107l126 77q34 21 75 21q35 0 65 -17.5t48 -48t18 -65.5q0 -36 -17.5 -66.5t-47.5 -48.5t-66 -18h-101q-40 0 -69 29z" />
    <glyph glyph-name="uni06440671.fina" unicode="&#xfee0;&#xfb51;" horiz-adv-x="598" 
d="M34 194h298q10 0 15.5 6t5.5 16v466h184v-466q0 -10 5.5 -16t15.5 -6h40q10 0 10 -10v-174q0 -10 -10 -10h-40q-70 0 -113 43q-43 -43 -113 -43h-298v194zM29 642l178 47l103 -426l-178 -47zM-55 884l146 86l56 -101l8 -11l-146 -86zM99 759q-29 29 -29 71v13l87 6v9v1
q1 0 7.5 -5.5t10.5 -5.5h94q7 0 12 4.5t5 11.5q0 9 -4.5 14t-13.5 5q-4 0 -9 -2.5t-11.5 -7t-13.5 -8.5l-125 -76l-41 107l126 77q34 21 75 21q35 0 65 -17.5t48 -48t18 -65.5q0 -36 -17.5 -66.5t-47.5 -48.5t-66 -18h-101q-40 0 -69 29z" />
    <glyph glyph-name="uni0621" unicode="&#x621;" horiz-adv-x="536" arabic-form="isolated" 
d="M262 143q-54 0 -94 24t-58 76q-11 36 -11 65q0 57 35 99t99 65l107 41l63 -174l-102 -37q-15 -6 -15 -18q0 -9 5 -15.5t13 -6.5q2 0 10 2l139 51l28 -110l-120 -45q-51 -17 -99 -17zM20 157l433 158l63 -173l-434 -159z" />
    <glyph glyph-name="uni0622" unicode="&#x622;" horiz-adv-x="244" arabic-form="isolated" 
d="M30 659h184v-659h-184v659zM-94 847.5q34 30.5 82 30.5h292v-139h-264q-13 0 -18.5 -5t-5.5 -17v-53h-120v98q0 55 34 85.5z" />
    <glyph glyph-name="uni0623" unicode="&#x623;" horiz-adv-x="244" arabic-form="isolated" 
d="M30 659h184v-659h-184v659zM-85 800l82 31q-17 19 -26 45q-5 14 -5 33q0 40 26.5 75.5t71.5 50.5l91 31l47 -130l-76 -28q-11 -3 -11 -13q0 -6 4 -11t11 -5l8 2l102 37l47 -129l-326 -120z" />
    <glyph glyph-name="uni0624" unicode="&#x624;" horiz-adv-x="511" arabic-form="isolated" 
d="M234 -76.5q42 23.5 55 40t13 36.5h-37v0q-64 0 -118 28.5t-85.5 79t-31.5 113.5q0 64 32 118t85.5 85.5t117.5 31.5v0q63 0 113.5 -31.5t79 -85.5t28.5 -118v-139q0 -103 -28 -165.5t-95 -110.5t-199 -104l-57 162q85 36 127 59.5zM265 182h37v39q0 19 -10 30t-27 11v0
q-18 0 -29.5 -11t-11.5 -30q0 -18 11.5 -28.5t29.5 -10.5v0zM77 629l82 31q-17 19 -26 45q-5 14 -5 33q0 40 26.5 75.5t71.5 50.5l91 31l47 -130l-76 -28q-11 -3 -11 -13q0 -6 4 -11t11 -5l8 2l102 37l47 -129l-326 -120z" />
    <glyph glyph-name="uni0625" unicode="&#x625;" horiz-adv-x="244" arabic-form="isolated" 
d="M-46 -313l82 31q-17 19 -26 45q-5 14 -5 33q0 40 26.5 75.5t71.5 50.5l91 31l47 -130l-76 -28q-11 -3 -11 -13q0 -6 4 -11t11 -5l8 2l102 37l47 -129l-326 -120zM30 683h184v-683h-184v683z" />
    <glyph glyph-name="uni0626" unicode="&#x626;" horiz-adv-x="788" arabic-form="isolated" 
d="M167 -188q-63 37 -100 100t-37 137v264h184v-254q0 -37 26.5 -63.5t63.5 -26.5h236q16 0 24.5 9t8.5 24q0 11 -6.5 20t-17.5 11l-273 63v149q0 62 32.5 116t87 86t118.5 32h207v-184h-209q-21 0 -36.5 -15.5t-15.5 -36.5v0l96 -22l51 -12q69 -20 112.5 -79t43.5 -134
q0 -60 -30 -111t-81 -80.5t-112 -29.5h-236q-74 0 -137 37zM34 503l82 31q-17 19 -26 45q-5 14 -5 33q0 40 26.5 75.5t71.5 50.5l91 31l47 -130l-76 -28q-11 -3 -11 -13q0 -6 4 -11t11 -5l8 2l102 37l47 -129l-326 -120z" />
    <glyph glyph-name="uni0627" unicode="&#x627;" horiz-adv-x="244" arabic-form="isolated" 
d="M30 683h184v-683h-184v683z" />
    <glyph glyph-name="uni0628" unicode="&#x628;" horiz-adv-x="847" arabic-form="isolated" 
d="M167 37q-63 37 -100 100t-37 137v132h184v-122q0 -37 26.5 -63.5t63.5 -26.5h300q18 0 28.5 11.5t10.5 29.5v171h184v-171q0 -64 -29 -118t-80 -85.5t-114 -31.5h-300q-74 0 -137 37zM537 -235h-155v155h155v-155z" />
    <glyph glyph-name="uni0629" unicode="&#x629;" horiz-adv-x="509" arabic-form="isolated" 
d="M46 137.5q-16 39.5 -16 81.5q0 47 19 92t55 80l26 26l-47 45l132 129l202 -200q35 -36 53.5 -80.5t18.5 -90.5q0 -90 -64 -153q-34 -33 -77 -50t-89 -17t-89 17t-77 50q-31 31 -47 70.5zM260 192q16 0 29 13q11 11 11 24q0 16 -15 31l-26 28l-26 -26q-14 -14 -14 -30
q0 -15 12 -27q13 -13 29 -13zM63 807h155v-155h-155v155zM218 807h155v-155h-155v155z" />
    <glyph glyph-name="uni062A" unicode="&#x62a;" horiz-adv-x="847" arabic-form="isolated" 
d="M167 37q-63 37 -100 100t-37 137v132h184v-122q0 -37 26.5 -63.5t63.5 -26.5h300q18 0 28.5 11.5t10.5 29.5v171h184v-171q0 -64 -29 -118t-80 -85.5t-114 -31.5h-300q-74 0 -137 37zM279 561h155v-155h-155v155zM434 561h155v-155h-155v155z" />
    <glyph glyph-name="uni062B" unicode="&#x62b;" horiz-adv-x="847" arabic-form="isolated" 
d="M167 37q-63 37 -100 100t-37 137v132h184v-122q0 -37 26.5 -63.5t63.5 -26.5h300q18 0 28.5 11.5t10.5 29.5v171h184v-171q0 -64 -29 -118t-80 -85.5t-114 -31.5h-300q-74 0 -137 37zM429 561v-155h-155v155h155zM584 561v-155h-155v155h155zM508 696v-135h-155v135h155z
" />
    <glyph glyph-name="uni062C" unicode="&#x62c;" horiz-adv-x="720" arabic-form="isolated" 
d="M177.5 -272.5q-61.5 36.5 -98 98.5t-36.5 134q0 60 26.5 115.5t74.5 94.5l225 165l-71 35q-13 6 -22 6q-14 0 -36 -16l-82 -87l-128 112l83 100q32 39 74.5 56t86.5 17q50 0 95 -24l214 -100q8 -2 14 -2h103v-180h-137l-294 -215q-17 -15 -24.5 -32.5t-7.5 -41.5
q0 -36 26 -62t62 -26h289v-184h-302q-73 0 -134.5 36.5zM415 101h155v-155h-155v155z" />
    <glyph glyph-name="uni062D" unicode="&#x62d;" horiz-adv-x="720" arabic-form="isolated" 
d="M177.5 -272.5q-61.5 36.5 -98 98.5t-36.5 134q0 60 26.5 115.5t74.5 94.5l225 165l-71 35q-13 6 -22 6q-14 0 -36 -16l-82 -87l-128 112l83 100q32 39 74.5 56t86.5 17q50 0 95 -24l214 -100q8 -2 14 -2h103v-180h-137l-294 -215q-17 -15 -24.5 -32.5t-7.5 -41.5
q0 -36 26 -62t62 -26h289v-184h-302q-73 0 -134.5 36.5z" />
    <glyph glyph-name="uni062E" unicode="&#x62e;" horiz-adv-x="720" arabic-form="isolated" 
d="M177.5 -272.5q-61.5 36.5 -98 98.5t-36.5 134q0 60 26.5 115.5t74.5 94.5l225 165l-71 35q-13 6 -22 6q-14 0 -36 -16l-82 -87l-128 112l83 100q32 39 74.5 56t86.5 17q50 0 95 -24l214 -100q8 -2 14 -2h103v-180h-137l-294 -215q-17 -15 -24.5 -32.5t-7.5 -41.5
q0 -36 26 -62t62 -26h289v-184h-302q-73 0 -134.5 36.5zM198 783h155v-155h-155v155z" />
    <glyph glyph-name="uni062F" unicode="&#x62f;" horiz-adv-x="525" arabic-form="isolated" 
d="M30 194h265q26 0 26 21q0 8 -6 13.5t-28 20.5l-225 155l105 152l255 -177q41 -32 62 -68t21 -90q0 -63 -30.5 -113.5t-82.5 -79t-113 -28.5h-249v194z" />
    <glyph glyph-name="uni0630" unicode="&#x630;" horiz-adv-x="525" arabic-form="isolated" 
d="M30 194h265q26 0 26 21q0 8 -6 13.5t-28 20.5l-225 155l105 152l255 -177q41 -32 62 -68t21 -90q0 -63 -30.5 -113.5t-82.5 -79t-113 -28.5h-249v194zM92 780h155v-155h-155v155z" />
    <glyph glyph-name="uni0631" unicode="&#x631;" horiz-adv-x="295" arabic-form="isolated" 
d="M45 -76q28 26 34.5 51t6.5 81v350h184v-350q0 -91 -20.5 -149t-74.5 -105.5t-159 -99.5l-69 154q70 42 98 68z" />
    <glyph glyph-name="uni0632" unicode="&#x632;" horiz-adv-x="295" arabic-form="isolated" 
d="M45 -76q28 26 34.5 51t6.5 81v350h184v-350q0 -91 -20.5 -149t-74.5 -105.5t-159 -99.5l-69 154q70 42 98 68zM101 641h155v-155h-155v155z" />
    <glyph glyph-name="uni0633" unicode="&#x633;" horiz-adv-x="1190" arabic-form="isolated" 
d="M202 -118.5q-79 46.5 -125.5 125.5t-46.5 172v187h184v-177q0 -42 22 -79t59 -59t79 -22q44 0 81 22t59 59t22 79v217h178v-227q0 -93 -45 -172t-123 -125.5t-172 -46.5q-93 0 -172 46.5zM660 24q-28 26 -36.5 69t-8.5 109v204h107v-192q0 -10 5.5 -16t15.5 -6t15.5 6
t5.5 16v192h147v-204q0 -90 -42.5 -147t-125.5 -57q-55 0 -83 26zM843.5 57.5q-42.5 57.5 -42.5 146.5v202h147v-190q0 -10 5.5 -16t14.5 -6h18v240h184v-434h-202q-82 0 -124.5 57.5z" />
    <glyph glyph-name="uni0634" unicode="&#x634;" horiz-adv-x="1190" arabic-form="isolated" 
d="M202 -118.5q-79 46.5 -125.5 125.5t-46.5 172v187h184v-177q0 -42 22 -79t59 -59t79 -22q44 0 81 22t59 59t22 79v217h178v-227q0 -93 -45 -172t-123 -125.5t-172 -46.5q-93 0 -172 46.5zM660 24q-28 26 -36.5 69t-8.5 109v204h107v-192q0 -10 5.5 -16t15.5 -6t15.5 6
t5.5 16v192h147v-204q0 -90 -42.5 -147t-125.5 -57q-55 0 -83 26zM843.5 57.5q-42.5 57.5 -42.5 146.5v202h147v-190q0 -10 5.5 -16t14.5 -6h18v240h184v-434h-202q-82 0 -124.5 57.5zM704 641h155v-155h-155v155zM859 641h155v-155h-155v155zM782 776h155v-135h-155v135z
" />
    <glyph glyph-name="uni0635" unicode="&#x635;" horiz-adv-x="1311" arabic-form="isolated" 
d="M202 -118.5q-79 46.5 -125.5 125.5t-46.5 172v187h184v-177q0 -42 22 -79t59 -59t79 -22q44 0 81 22t59 59t22 79v217h178v-227q0 -93 -45 -172t-123 -125.5t-172 -46.5q-93 0 -172 46.5zM690.5 39.5q-56.5 39.5 -86 108t-29.5 152.5v106h147v-134q0 -32 22 -55t52 -23
h256q20 0 34.5 14.5t14.5 34.5q0 23 -14.5 39t-38.5 16q-11 0 -27.5 -7t-45.5 -26l-261 -157l-65 169l254 152q46 27 76.5 39t72.5 12q64 0 119 -32.5t87.5 -88t32.5 -120.5q0 -64 -32.5 -119t-87.5 -87.5t-119 -32.5h-226q-79 0 -135.5 39.5z" />
    <glyph glyph-name="uni0636" unicode="&#x636;" horiz-adv-x="1311" arabic-form="isolated" 
d="M202 -118.5q-79 46.5 -125.5 125.5t-46.5 172v187h184v-177q0 -42 22 -79t59 -59t79 -22q44 0 81 22t59 59t22 79v217h178v-227q0 -93 -45 -172t-123 -125.5t-172 -46.5q-93 0 -172 46.5zM690.5 39.5q-56.5 39.5 -86 108t-29.5 152.5v106h147v-134q0 -32 22 -55t52 -23
h256q20 0 34.5 14.5t14.5 34.5q0 22 -14.5 37.5t-34.5 15.5q-33 0 -81 -26l-261 -156l-61 163l282 170q24 15 57.5 24t63.5 9q64 0 119 -32.5t87.5 -88t32.5 -120.5q0 -64 -32.5 -119t-87.5 -87.5t-119 -32.5h-226q-79 0 -135.5 39.5zM975 705h155v-155h-155v155z" />
    <glyph glyph-name="uni0637" unicode="&#x637;" horiz-adv-x="678" arabic-form="isolated" 
d="M25 194h394q20 0 34.5 14.5t14.5 34.5q0 23 -14.5 39t-38.5 16q-11 0 -27.5 -7.5t-45.5 -26.5l-205 -120l-86 155l219 130q46 27 76.5 39t72.5 12q64 0 119 -32.5t87.5 -88t32.5 -120.5q0 -64 -32.5 -119t-87.5 -87.5t-119 -32.5h-394v194zM134.5 365q5.5 20 5.5 49v269
h184v-110q0 -112 -35 -142l-177 -96q17 10 22.5 30z" />
    <glyph glyph-name="uni0638" unicode="&#x638;" horiz-adv-x="678" arabic-form="isolated" 
d="M25 194h394q20 0 34.5 14.5t14.5 34.5q0 23 -14.5 39t-38.5 16q-11 0 -27.5 -7.5t-45.5 -26.5l-226 -134l-65 169l219 130q46 27 76.5 39t72.5 12q64 0 119 -32.5t87.5 -88t32.5 -120.5q0 -64 -32.5 -119t-87.5 -87.5t-119 -32.5h-394v194zM134.5 365q5.5 20 5.5 49v270
h184v-111q0 -54 -5 -84.5t-22 -45.5l-185 -108q17 10 22.5 30zM359 705h155v-155h-155v155z" />
    <glyph glyph-name="uni0639" unicode="&#x639;" horiz-adv-x="545" arabic-form="isolated" 
d="M185.5 -393q-71.5 42 -113.5 113.5t-42 156.5q0 77 35 135t96 93t139 46q8 1 20 21q1 2 6 8.5t9 10t7 3.5h133v-194h-133q-49 0 -83.5 -35.5t-34.5 -85.5t34.5 -85t83.5 -35h183v-194h-183q-85 0 -156.5 42zM215 65q-57 25 -90.5 72t-33.5 110q0 67 33.5 121t91 84.5
t126.5 30.5h110v-181h-110q-26 0 -41.5 -14.5t-15.5 -39.5q0 -26 15 -40t42 -14v-154q-70 0 -127 25z" />
    <glyph glyph-name="uni063A" unicode="&#x63a;" horiz-adv-x="545" arabic-form="isolated" 
d="M185.5 -393q-71.5 42 -113.5 113.5t-42 156.5q0 77 35 135t96 93t139 46q8 1 20 21q1 2 6 8.5t9 10t7 3.5h133v-194h-133q-49 0 -83.5 -35.5t-34.5 -85.5t34.5 -85t83.5 -35h183v-194h-183q-85 0 -156.5 42zM215 65q-57 25 -90.5 72t-33.5 110q0 67 33.5 121t91 84.5
t126.5 30.5h110v-181h-110q-26 0 -41.5 -14.5t-15.5 -39.5q0 -26 15 -40t42 -14v-154q-70 0 -127 25zM251 718h155v-155h-155v155z" />
    <glyph glyph-name="uni0641" unicode="&#x641;" horiz-adv-x="847" arabic-form="isolated" 
d="M167 37q-63 37 -100 100t-37 137v132h184v-122q0 -37 26.5 -63.5t63.5 -26.5h319q20 0 20 21v3h-20v0q-60 0 -110 27t-79.5 73.5t-29.5 103.5q0 61 30 112t80.5 80.5t108.5 29.5v0q58 0 104.5 -29.5t73 -80t26.5 -112.5v-219q0 -55 -27 -101.5t-73 -74t-102 -27.5h-321
q-74 0 -137 37zM655 388v41q0 16 -11.5 27.5t-27.5 11.5v0q-17 1 -28.5 -10.5t-11.5 -28.5q0 -18 11 -29.5t29 -11.5v0h39zM546 869h155v-155h-155v155z" />
    <glyph glyph-name="uni0642" unicode="&#x642;" horiz-adv-x="743" arabic-form="isolated" 
d="M294 339q32 54 85.5 85.5t117.5 31.5v0q63 0 113.5 -31.5t79 -85.5t28.5 -118v-216q0 -93 -46 -172t-125 -125.5t-173 -46.5q-93 0 -172 46.5t-125.5 125.5t-46.5 172v187h184v-177q0 -42 22 -79t59 -59t79 -22q44 0 81 22t59 59t22 79v-15h-39v0q-64 0 -118 28.5
t-85.5 79t-31.5 113.5q0 64 32 118zM467.5 204.5q11.5 -10.5 29.5 -10.5v0h39v37q0 19 -11 30t-28 11v0q-18 0 -29.5 -11t-11.5 -30q0 -16 11.5 -26.5zM342 691h155v-155h-155v155zM497 691h155v-155h-155v155z" />
    <glyph glyph-name="uni0643" unicode="&#x643;" horiz-adv-x="852" arabic-form="isolated" 
d="M167 37q-63 37 -100 100t-37 137v132h184v-122q0 -37 26.5 -63.5t63.5 -26.5h300q18 0 28.5 11.5t10.5 29.5v448h184v-448q0 -64 -29 -118t-80 -85.5t-114 -31.5h-300q-74 0 -137 37zM285 380l157 56q10 5 10 14q0 12 -12 15l-167 43l-47 83l231 170l59 -100l-90 -68
l24 -7q92 -27 113 -86q9 -27 9 -53q0 -47 -26 -84.5t-72 -54.5l-143 -53z" />
    <glyph glyph-name="uni0644" unicode="&#x644;" horiz-adv-x="745" arabic-form="isolated" 
d="M202 -118.5q-79 46.5 -125.5 125.5t-46.5 172v187h184v-177q0 -42 22 -79t59 -59t79 -22q44 0 81 22t59 59t22 79v494h184v-504q0 -93 -46.5 -172t-126 -125.5t-173.5 -46.5q-93 0 -172 46.5z" />
    <glyph glyph-name="uni0645" unicode="&#x645;" horiz-adv-x="738" arabic-form="isolated" 
d="M60.5 340q30.5 52 82 83t111.5 31h229v0q64 0 118 -28.5t85.5 -79t31.5 -113.5q0 -64 -31.5 -117.5t-85.5 -85.5t-118 -32v0q-63 0 -113.5 31.5t-79 85.5t-28.5 118v37h-6q-17 0 -29.5 -13t-12.5 -30v-478h-184v478q0 61 30.5 113zM513 203.5q11 11.5 11 29.5
q0 17 -11 28t-30 11v0h-39v-39q0 -18 10.5 -29.5t28.5 -11.5v0q19 0 30 11.5z" />
    <glyph glyph-name="uni0646" unicode="&#x646;" horiz-adv-x="745" arabic-form="isolated" 
d="M202 -118.5q-79 46.5 -125.5 125.5t-46.5 172v187h184v-177q0 -42 22 -79t59 -59t79 -22q44 0 81 22t59 59t22 79v217h184v-227q0 -93 -46.5 -172t-126 -125.5t-173.5 -46.5q-93 0 -172 46.5zM293 521h155v-155h-155v155z" />
    <glyph glyph-name="uni0647" unicode="&#x647;" horiz-adv-x="509" arabic-form="isolated" 
d="M46 137.5q-16 39.5 -16 81.5q0 47 19 92t55 80l26 26l-47 45l132 129l202 -200q35 -36 53.5 -80.5t18.5 -90.5q0 -90 -64 -153q-34 -33 -77 -50t-89 -17t-89 17t-77 50q-31 31 -47 70.5zM260 192q16 0 29 13q11 11 11 24q0 16 -15 31l-26 28l-26 -26q-14 -14 -14 -30
q0 -15 12 -27q13 -13 29 -13z" />
    <glyph glyph-name="uni0648" unicode="&#x648;" horiz-adv-x="511" arabic-form="isolated" 
d="M234 -76.5q42 23.5 55 40t13 36.5h-37v0q-64 0 -118 28.5t-85.5 79t-31.5 113.5q0 64 32 118t85.5 85.5t117.5 31.5v0q63 0 113.5 -31.5t79 -85.5t28.5 -118v-139q0 -103 -28 -165.5t-95 -110.5t-199 -104l-57 162q85 36 127 59.5zM302 182v39q0 19 -10 30t-27 11v0
q-18 0 -29.5 -11t-11.5 -30q0 -18 11.5 -28.5t29.5 -10.5v0h37z" />
    <glyph glyph-name="uni0649" unicode="&#x649;" horiz-adv-x="788" arabic-form="isolated" 
d="M167 -188q-63 37 -100 100t-37 137v264h184v-254q0 -37 26.5 -63.5t63.5 -26.5h236q16 0 24.5 9t8.5 24q0 11 -6.5 20t-17.5 11l-273 63v149q0 62 32.5 116t87 86t118.5 32h207v-184h-209q-21 0 -36.5 -15.5t-15.5 -36.5v0l96 -22l51 -12q69 -20 112.5 -79t43.5 -134
q0 -60 -30 -111t-81 -80.5t-112 -29.5h-236q-74 0 -137 37z" />
    <glyph glyph-name="uni064A" unicode="&#x64a;" horiz-adv-x="788" arabic-form="isolated" 
d="M167 -188q-63 37 -100 100t-37 137v264h184v-254q0 -37 26.5 -63.5t63.5 -26.5h236q16 0 24.5 9t8.5 24q0 11 -6.5 20t-17.5 11l-273 63v149q0 62 32.5 116t87 86t118.5 32h207v-184h-209q-21 0 -36.5 -15.5t-15.5 -36.5v0l96 -22l51 -12q69 -20 112.5 -79t43.5 -134
q0 -60 -30 -111t-81 -80.5t-112 -29.5h-236q-74 0 -137 37zM241 -305h155v-155h-155v155zM396 -305h155v-155h-155v155z" />
    <glyph glyph-name="uni066E.init" unicode="&#x66e;" horiz-adv-x="283" 
d="M-10 10v174q0 10 10 10h59q8 0 14 6t6 15v219h184v-231q0 -55 -27 -101.5t-73 -74t-102 -27.5h-61q-10 0 -10 10z" />
    <glyph glyph-name="uni066E.medi" unicode="&#x66e;" horiz-adv-x="326" 
d="M0 194h50q10 0 15.5 6t5.5 16v190h184v-190q0 -10 5.5 -16t15.5 -6h50q10 0 10 -10v-174q0 -10 -10 -10h-50q-70 0 -113 43q-43 -43 -113 -43h-50q-10 0 -10 10v174q0 10 10 10z" />
    <glyph glyph-name="uni066E.fina" unicode="&#x66e;" horiz-adv-x="888" 
d="M167 37q-63 37 -100 100t-37 137v132h184v-122q0 -37 26.5 -63.5t63.5 -26.5h300q18 0 28.5 11.5t10.5 29.5v171h149v-171q0 -103 -48 -169t-140 -66h-300q-74 0 -137 37zM722.5 57q-42.5 57 -42.5 147v202h147v-190q0 -10 5.5 -16t15.5 -6h40q10 0 10 -10v-174
q0 -10 -10 -10h-40q-83 0 -125.5 57z" />
    <glyph glyph-name="uni066F.fina" unicode="&#x66f;" horiz-adv-x="746" 
d="M202 -292.5q-79 46.5 -125.5 125.5t-46.5 172v187h184v-177q0 -42 22 -79t59 -59t79 -22q44 0 81 22t59 59t22 79v-15h-39v0q-64 0 -118 28.5t-85.5 79t-31.5 113.5q0 64 32 118t85.5 85.5t117.5 31.5v0q63 0 113.5 -31.5t79 -85.5t28.5 -118v-216q0 -93 -46 -172
t-125 -125.5t-173 -46.5q-93 0 -172 46.5zM536 194v37q0 19 -11 30t-28 11v0q-18 0 -29.5 -11t-11.5 -30q0 -16 11.5 -26.5t29.5 -10.5v0h39zM718 194h28q10 0 10 -10v-174q0 -10 -10 -10h-28v194z" />
    <glyph glyph-name="uni0671" unicode="&#x671;" horiz-adv-x="244" arabic-form="isolated" 
d="M30 659h184v-659h-184v659zM25 729q-29 29 -29 71v19h87h4l14 -1h94q7 0 12 4.5t5 11.5q0 9 -4.5 14t-13.5 5q-4 0 -9 -2.5t-11.5 -7t-13.5 -8.5l-125 -76l-41 107l126 77q34 21 75 21q35 0 65 -17.5t48 -48t18 -65.5q0 -36 -17.5 -66.5t-47.5 -48.5t-66 -18h-101
q-40 0 -69 29zM-129 854l146 86l56 -101l8 -11l-146 -86z" />
    <glyph glyph-name="uni0679" unicode="&#x679;" horiz-adv-x="847" arabic-form="isolated" 
d="M167 37q-63 37 -100 100t-37 137v132h184v-122q0 -37 26.5 -63.5t63.5 -26.5h300q18 0 28.5 11.5t10.5 29.5v171h184v-171q0 -64 -29 -118t-80 -85.5t-114 -31.5h-300q-74 0 -137 37zM297 524h167q7 0 12 4.5t5 11.5q0 9 -4.5 14t-13.5 5q-4 0 -9 -2.5t-11.5 -7
t-13.5 -8.5l-125 -76l-41 107l126 77q34 21 75 21q35 0 65 -17.5t48 -48t18 -65.5q0 -36 -17.5 -66.5t-47.5 -48.5t-66 -18h-167v118zM298 642v125h121v-72v55q0 -37 -10 -65.5t-31 -42.5l-90 -55q10 7 10 55z" />
    <glyph glyph-name="uni067E" unicode="&#x67e;" horiz-adv-x="847" arabic-form="isolated" 
d="M167 37q-63 37 -100 100t-37 137v132h184v-122q0 -37 26.5 -63.5t63.5 -26.5h300q18 0 28.5 11.5t10.5 29.5v171h184v-171q0 -64 -29 -118t-80 -85.5t-114 -31.5h-300q-74 0 -137 37zM382 -235h155v-135h-155v135zM302 -80h155v-155h-155v155zM457 -80h155v-155h-155v155
z" />
    <glyph glyph-name="uni0686" unicode="&#x686;" horiz-adv-x="720" arabic-form="isolated" 
d="M177.5 -272.5q-61.5 36.5 -98 98.5t-36.5 134q0 60 26.5 115.5t74.5 94.5l225 165l-71 35q-13 6 -22 6q-14 0 -36 -16l-82 -87l-128 112l83 100q32 39 74.5 56t86.5 17q50 0 95 -24l214 -100q8 -2 14 -2h103v-180h-137l-294 -215q-17 -15 -24.5 -32.5t-7.5 -41.5
q0 -36 26 -62t62 -26h289v-184h-302q-73 0 -134.5 36.5zM460 -1h125v-108h-125v108zM404 117h125v-127h-125v127zM529 117h125v-127h-125v127z" />
    <glyph glyph-name="uni0688" unicode="&#x688;" horiz-adv-x="525" arabic-form="isolated" 
d="M30 194h265q26 0 26 21q0 8 -6 13.5t-28 20.5l-225 155l105 152l255 -177q41 -32 62 -68t21 -90q0 -63 -30.5 -113.5t-82.5 -79t-113 -28.5h-249v194zM50 776h167q7 0 12 4.5t5 11.5q0 9 -4.5 14t-13.5 5q-4 0 -9 -2.5t-11.5 -7t-13.5 -8.5l-125 -76l-41 107l126 77
q34 21 75 21q35 0 65 -17.5t48 -48t18 -65.5q0 -36 -17.5 -66.5t-47.5 -48.5t-66 -18h-167v118zM51 894v125h121v-72v55q0 -37 -10 -65.5t-31 -42.5l-90 -55q10 7 10 55z" />
    <glyph glyph-name="uni0691" unicode="&#x691;" horiz-adv-x="295" arabic-form="isolated" 
d="M45 -76q28 26 34.5 51t6.5 81v350h184v-350q0 -91 -20.5 -149t-74.5 -105.5t-159 -99.5l-69 154q70 42 98 68zM52 634h167q7 0 12 4.5t5 11.5q0 9 -4.5 14t-13.5 5q-4 0 -9 -2.5t-11.5 -7t-13.5 -8.5l-125 -76l-41 107l126 77q34 21 75 21q35 0 65 -17.5t48 -48t18 -65.5
q0 -36 -17.5 -66.5t-47.5 -48.5t-66 -18h-167v118zM53 752v125h121v-72v55q0 -37 -10 -65.5t-31 -42.5l-90 -55q10 7 10 55z" />
    <glyph glyph-name="uni0695.fina" unicode="&#x695;" horiz-adv-x="331" 
d="M45 -76q28 26 34.5 51t6.5 81v350h184v-350q0 -91 -20.5 -149t-74.5 -105.5t-159 -99.5l-69 154q70 42 98 68zM176.5 55q-33.5 55 -33.5 149v202h127v-190q0 -10 5.5 -16t15.5 -6h40q10 0 10 -10v-174q0 -10 -10 -10h-40q-81 0 -114.5 55zM99 -376q47 -24 47 -78
q0 54 47 78t126 22v-136q-38 -3 -61.5 -10.5t-39 -30t-15.5 -67.5h-113q0 45 -15.5 67.5t-39 30t-62.5 10.5v136q79 2 126 -22z" />
    <glyph glyph-name="uni0698" unicode="&#x698;" horiz-adv-x="340" arabic-form="isolated" 
d="M45 -76q28 26 34.5 51t6.5 81v350h184v-350q0 -91 -20.5 -149t-74.5 -105.5t-159 -99.5l-69 154q70 42 98 68zM40 641h145v-155h-145v155zM185 641h145v-155h-145v155zM108 776h155v-135h-155v135z" />
    <glyph glyph-name="uni06A1.init" unicode="&#x6a1;" horiz-adv-x="472" 
d="M-10 10v174q0 10 10 10h248q20 0 20 21v3h-20v0q-60 0 -110 27t-79.5 73.5t-29.5 103.5q0 61 30 112t80.5 80.5t108.5 29.5v0q58 0 104.5 -29.5t73 -80t26.5 -112.5v-219q0 -55 -27 -101.5t-73 -74t-102 -27.5h-250q-10 0 -10 10zM241 388h39v41q0 16 -11.5 27.5
t-27.5 11.5v0q-18 0 -29 -11t-11 -28q0 -18 11 -29.5t29 -11.5v0z" />
    <glyph glyph-name="uni06A1.medi" unicode="&#x6a1;" horiz-adv-x="521" 
d="M61.5 355.5q31.5 51.5 85.5 81t118 29.5v0q64 0 118 -29.5t85.5 -81t31.5 -115.5q0 -65 -31.5 -116t-85 -79t-118.5 -28v0q-65 0 -118.5 28t-85 79t-31.5 116q0 64 31.5 115.5zM-10 10v174q0 10 10 10h521q10 0 10 -10v-174q0 -10 -10 -10h-521q-10 0 -10 10zM235 204.5
q11 -10.5 30 -10.5v0q19 0 30 10.5t11 28.5q0 17 -11 28t-30 11v0q-19 0 -30 -11t-11 -28q0 -18 11 -28.5z" />
    <glyph glyph-name="uni06A1.fina" unicode="&#x6a1;" horiz-adv-x="908" 
d="M167 37q-63 37 -100 100t-37 137v132h184v-122q0 -37 26.5 -63.5t63.5 -26.5h604q10 0 10 -10v-174q0 -10 -10 -10h-604q-74 0 -137 37zM845.5 124q-31.5 -51 -85 -79t-118.5 -28v0q-65 0 -118.5 28t-85 79t-31.5 116q0 64 31.5 115.5t85.5 81t118 29.5v0q64 0 118 -29.5
t85.5 -81t31.5 -115.5q0 -65 -31.5 -116zM672 261q-11 11 -30 11v0q-19 0 -30 -11t-11 -28q0 -18 11 -28.5t30 -10.5v0q19 0 30 10.5t11 28.5q0 17 -11 28z" />
    <glyph glyph-name="uni06A9" unicode="&#x6a9;" horiz-adv-x="846" arabic-form="isolated" 
d="M167 37q-63 37 -100 100t-37 137v130h184v-120q0 -37 26.5 -63.5t63.5 -26.5h294q18 0 31 11t13 33t-23 36l-217 145v136l204 217l126 -120l-136 -141l136 -90q45 -29 69.5 -79t24.5 -108q0 -64 -31 -117.5t-83.5 -85t-115.5 -31.5h-292q-74 0 -137 37z" />
    <glyph glyph-name="uni06AF" unicode="&#x6af;" horiz-adv-x="846" arabic-form="isolated" 
d="M167 37q-63 37 -100 100t-37 137v130h184v-120q0 -37 26.5 -63.5t63.5 -26.5h294q18 0 31 11t13 33t-23 36l-217 145v136l204 217l126 -120l-136 -141l136 -90q45 -29 69.5 -79t24.5 -108q0 -64 -31 -117.5t-83.5 -85t-115.5 -31.5h-292q-74 0 -137 37zM314 644l176 186
l88 -89l-176 -186z" />
    <glyph glyph-name="uni06B5.init" unicode="&#x6b5;" horiz-adv-x="267" 
d="M-10 10v174q0 10 10 10h38q8 0 14 6t6 15v468h184v-480q0 -55 -27 -101.5t-73 -74t-102 -27.5h-40q-10 0 -10 10zM88.5 800.5q-15.5 22.5 -39 30t-62.5 10.5v136q79 2 126 -22t47 -78q0 54 47 78t126 22v-136q-38 -3 -61.5 -10.5t-39 -30t-15.5 -67.5h-113
q0 45 -15.5 67.5z" />
    <glyph glyph-name="uni06B5.medi" unicode="&#x6b5;" horiz-adv-x="306" 
d="M-10 10v174q0 10 10 10h40q10 0 15.5 6t5.5 16v467h184v-467q0 -10 5.5 -16t15.5 -6h40q10 0 10 -10v-174q0 -10 -10 -10h-40q-70 0 -113 43q-43 -43 -113 -43h-40q-10 0 -10 10zM88.5 800.5q-15.5 22.5 -39 30t-62.5 10.5v136q79 2 126 -22t47 -78q0 54 47 78t126 22
v-136q-38 -3 -61.5 -10.5t-39 -30t-15.5 -67.5h-113q0 45 -15.5 67.5z" />
    <glyph glyph-name="uni06B5.fina" unicode="&#x6b5;" horiz-adv-x="788" 
d="M202 -118.5q-79 46.5 -125.5 125.5t-46.5 172v187h184v-177q0 -42 22 -79t59 -59t79 -22q44 0 81 22t59 59t22 79v494h178v-504q0 -93 -45 -172t-123 -125.5t-172 -46.5q-93 0 -172 46.5zM660 26q-28 26 -36.5 69t-8.5 109v479h107v-467q0 -10 5.5 -16t15.5 -6h40
q10 0 10 -10v-174q0 -10 -10 -10h-40q-55 0 -83 26zM553.5 800.5q-15.5 22.5 -39 30t-62.5 10.5v136q79 2 126 -22t47 -78q0 54 47 78t126 22v-136q-38 -3 -61.5 -10.5t-39 -30t-15.5 -67.5h-113q0 45 -15.5 67.5z" />
    <glyph glyph-name="uni06BA" unicode="&#x6ba;" horiz-adv-x="745" arabic-form="isolated" 
d="M202 -118.5q-79 46.5 -125.5 125.5t-46.5 172v187h184v-177q0 -42 22 -79t59 -59t79 -22q44 0 81 22t59 59t22 79v217h184v-227q0 -93 -46.5 -172t-126 -125.5t-173.5 -46.5q-93 0 -172 46.5z" />
    <glyph glyph-name="uni06C0" unicode="&#x6c0;" horiz-adv-x="519" arabic-form="isolated" 
d="M46 137.5q-16 39.5 -16 81.5q0 47 19 92t55 80l26 26l-47 45l132 129l202 -200q35 -36 53.5 -80.5t18.5 -90.5q0 -90 -64 -153q-34 -33 -77 -50t-89 -17t-89 17t-77 50q-31 31 -47 70.5zM260 192q16 0 29 13q11 11 11 24q0 16 -15 31l-26 28l-26 -26q-14 -14 -14 -30
q0 -15 12 -27q13 -13 29 -13zM118 751l133 35q8 2 8 7q0 4 -3 6t-7 2l-156 -5l-24 83q-5 18 -5 34q0 45 29 83t73 50l117 32l32 -115l-118 -33q-9 -2 -12 -4.5t-3 -7.5v-1l74 3q45 0 76.5 -25.5t42.5 -70.5q4 -15 4 -31q0 -44 -26.5 -79t-69.5 -47l-132 -36z" />
    <glyph glyph-name="uni06C1" unicode="&#x6c1;" horiz-adv-x="509" arabic-form="isolated" 
d="M46 137.5q-16 39.5 -16 81.5q0 47 19 92t55 80l26 26l-47 45l132 129l202 -200q35 -36 53.5 -80.5t18.5 -90.5q0 -90 -64 -153q-34 -33 -77 -50t-89 -17t-89 17t-77 50q-31 31 -47 70.5zM260 192q16 0 29 13q11 11 11 24q0 16 -15 31l-26 28l-26 -26q-14 -14 -14 -30
q0 -15 12 -27q13 -13 29 -13z" />
    <glyph glyph-name="uni06C2.fina" unicode="&#x6c2;" horiz-adv-x="544" 
d="M143.5 62q-54.5 32 -86.5 86t-32 117t32 113.5t86 79t119 28.5v0h39v70h182v-291q0 -64 -28.5 -118t-79 -85.5t-113.5 -31.5v0q-64 0 -118.5 32zM290.5 235.5q10.5 11.5 10.5 29.5v37h-39v0q-19 0 -30 -10t-11 -27q0 -18 11 -29.5t30 -11.5v0q18 0 28.5 11.5zM407 27
q-41 27 -62 73.5t-21 103.5v202h159v-190q0 -10 5.5 -16t15.5 -6h40q10 0 10 -10v-174q0 -10 -10 -10h-40q-56 0 -97 27zM73 660l82 31q-17 19 -26 45q-5 14 -5 33q0 40 26.5 75.5t71.5 50.5l91 31l47 -130l-76 -28q-11 -3 -11 -13q0 -6 4 -11t11 -5l8 2l102 37l47 -129
l-326 -120z" />
    <glyph glyph-name="uni06C3.fina" unicode="&#x6c3;" horiz-adv-x="551" 
d="M298 586h155v-155h-155v155zM143 586h155v-155h-155v155zM561 184v-174q0 -10 -10 -10h-40q-58 0 -108 25t-79 69l-42 63l-142 -136l-120 126l218 204h136l90 -134q16 -23 36 -23h51q10 0 10 -10z" />
    <glyph glyph-name="uni06CC" unicode="&#x6cc;" horiz-adv-x="788" arabic-form="isolated" 
d="M167 -188q-63 37 -100 100t-37 137v264h184v-254q0 -37 26.5 -63.5t63.5 -26.5h236q16 0 24.5 9t8.5 24q0 11 -6.5 20t-17.5 11l-273 63v149q0 62 32.5 116t87 86t118.5 32h207v-184h-209q-21 0 -36.5 -15.5t-15.5 -36.5v0l96 -22l51 -12q69 -20 112.5 -79t43.5 -134
q0 -60 -30 -111t-81 -80.5t-112 -29.5h-236q-74 0 -137 37z" />
    <glyph glyph-name="uni06ce.init" unicode="&#x6ce;" horiz-adv-x="332" 
d="M-10 10v174q0 10 10 10h72q8 0 14 6t6 15v219h184v-231q0 -55 -27 -101.5t-73 -74t-102 -27.5h-74q-10 0 -10 10zM117.5 596.5q-15.5 22.5 -39 30t-62.5 10.5v136q79 2 126 -22t47 -78q0 54 47 78t126 22v-136q-38 -3 -61.5 -10.5t-39 -30t-15.5 -67.5h-113
q0 45 -15.5 67.5zM26 -80h155v-155h-155v155zM181 -80h155v-155h-155v155z" />
    <glyph glyph-name="uni06ce.medi" unicode="&#x6ce;" horiz-adv-x="366" 
d="M112.5 545.5q-15.5 22.5 -39 30t-62.5 10.5v136q79 2 126 -22t47 -78q0 54 47 78t126 22v-136q-38 -3 -61.5 -10.5t-39 -30t-15.5 -67.5h-113q0 45 -15.5 67.5zM-10 10v174q0 10 10 10h70q10 0 15.5 6t5.5 16v190h184v-190q0 -10 5.5 -16t15.5 -6h70q10 0 10 -10v-174
q0 -10 -10 -10h-70q-36 0 -62.5 8t-50.5 26q-24 -18 -50.5 -26t-62.5 -8h-70q-10 0 -10 10zM28 -80h155v-155h-155v155zM183 -80h155v-155h-155v155z" />
    <glyph glyph-name="uni06ce.fina" unicode="&#x6ce;" horiz-adv-x="789" 
d="M138.5 544.5q-15.5 22.5 -39 30t-62.5 10.5v136q79 2 126 -22t47 -78q0 54 47 78t126 22v-136q-38 -3 -61.5 -10.5t-39 -30t-15.5 -67.5h-113q0 45 -15.5 67.5zM167 -211q-63 37 -100 100t-37 137v264h184v-254q0 -37 26.5 -63.5t63.5 -26.5h239q12 0 20 8t8 19t-8 19
t-20 8h-210v159h207q97 0 160 -49t63 -137q0 -60 -30 -111t-81 -80.5t-112 -29.5h-236q-74 0 -137 37zM324 194h465q10 0 10 -10v-174q0 -10 -10 -10h-465v194z" />
    <glyph glyph-name="uni06D2" unicode="&#x6d2;" horiz-adv-x="649" arabic-form="isolated" 
d="M131 29.5q-51 29.5 -81 80.5t-30 111q0 75 43.5 134t112.5 79l51 12l96 22l59 -176l-148 -34q-11 -2 -17.5 -11t-6.5 -20q0 -15 8.5 -24t24.5 -9h381v-194h-381q-61 0 -112 29.5z" />
    <glyph glyph-name="uni06d5.fina" unicode="&#x6d5;" horiz-adv-x="544" 
d="M143.5 62q-54.5 32 -86.5 86t-32 117t32 113.5t86 79t119 28.5v0h39v70h182v-291q0 -64 -28.5 -118t-79 -85.5t-113.5 -31.5v0q-64 0 -118.5 32zM290.5 235.5q10.5 11.5 10.5 29.5v37h-39v0q-19 0 -30 -10t-11 -27q0 -18 11 -29.5t30 -11.5v0q18 0 28.5 11.5zM407 27
q-41 27 -62 73.5t-21 103.5v202h159v-190q0 -10 5.5 -16t15.5 -6h40q10 0 10 -10v-174q0 -10 -10 -10h-40q-56 0 -97 27z" />
    <glyph glyph-name="uni0671.fina" unicode="&#x671;" horiz-adv-x="295" arabic-form="final" 
d="M130 27.5q-46 27.5 -73 74t-27 101.5v456h184v-444q0 -10 5.5 -15.5t14.5 -5.5h61q10 0 10 -10v-174q0 -10 -10 -10h-63q-56 0 -102 27.5zM-129 854l146 86l56 -101l8 -11l-146 -86zM25 729q-29 29 -29 71v13l87 6v9v1q1 0 7.5 -5.5t10.5 -5.5h94q7 0 12 4.5t5 11.5
q0 9 -4.5 14t-13.5 5q-4 0 -9 -2.5t-11.5 -7t-13.5 -8.5l-125 -76l-41 107l126 77q34 21 75 21q35 0 65 -17.5t48 -48t18 -65.5q0 -36 -17.5 -66.5t-47.5 -48.5t-66 -18h-101q-40 0 -69 29z" />
    <glyph glyph-name="uni067E.fina" unicode="&#x67e;" horiz-adv-x="888" arabic-form="final" 
d="M167 37q-63 37 -100 100t-37 137v132h184v-122q0 -37 26.5 -63.5t63.5 -26.5h300q18 0 28.5 11.5t10.5 29.5v171h149v-171q0 -103 -48 -169t-140 -66h-300q-74 0 -137 37zM382 -235h155v-135h-155v135zM302 -80h155v-155h-155v155zM457 -80h155v-155h-155v155zM722.5 57
q-42.5 57 -42.5 147v202h147v-190q0 -10 5.5 -16t15.5 -6h40q10 0 10 -10v-174q0 -10 -10 -10h-40q-83 0 -125.5 57z" />
    <glyph glyph-name="uni067E.init" unicode="&#x67e;" horiz-adv-x="329" arabic-form="initial" 
d="M-10 10v174q0 10 10 10h105q8 0 14 6t6 15v219h184v-231q0 -55 -27 -101.5t-73 -74t-102 -27.5h-107q-10 0 -10 10zM77 -235h155v-135h-155v135zM-1 -80h155v-155h-155v155zM154 -80h155v-155h-155v155z" />
    <glyph glyph-name="uni067E.medi" unicode="&#x67e;" horiz-adv-x="366" arabic-form="medial" 
d="M0 194h70q10 0 15.5 6t5.5 16v190h184v-190q0 -10 5.5 -16t15.5 -6h70q10 0 10 -10v-174q0 -10 -10 -10h-70q-36 0 -62.5 8t-50.5 26q-24 -18 -50.5 -26t-62.5 -8h-70q-10 0 -10 10v174q0 10 10 10zM108 -235h155v-135h-155v135zM28 -80h155v-155h-155v155zM183 -80h155
v-155h-155v155z" />
    <glyph glyph-name="uni0679.fina" unicode="&#x679;" horiz-adv-x="888" arabic-form="final" 
d="M167 37q-63 37 -100 100t-37 137v132h184v-122q0 -37 26.5 -63.5t63.5 -26.5h300q18 0 28.5 11.5t10.5 29.5v171h149v-171q0 -103 -48 -169t-140 -66h-300q-74 0 -137 37zM722.5 57q-42.5 57 -42.5 147v202h147v-190q0 -10 5.5 -16t15.5 -6h40q10 0 10 -10v-174
q0 -10 -10 -10h-40q-83 0 -125.5 57zM301 524h167q7 0 12 4.5t5 11.5q0 9 -4.5 14t-13.5 5q-4 0 -9 -2.5t-11.5 -7t-13.5 -8.5l-125 -76l-41 107l126 77q34 21 75 21q35 0 65 -17.5t48 -48t18 -65.5q0 -36 -17.5 -66.5t-47.5 -48.5t-66 -18h-167v118zM302 642v125h121v-72
v55q0 -37 -10 -65.5t-31 -42.5l-90 -55q10 7 10 55z" />
    <glyph glyph-name="uni0679.init" unicode="&#x679;" horiz-adv-x="283" arabic-form="initial" 
d="M-10 10v174q0 10 10 10h59q8 0 14 6t6 15v219h184v-231q0 -55 -27 -101.5t-73 -74t-102 -27.5h-61q-10 0 -10 10zM-2 652h167q7 0 12 4.5t5 11.5q0 9 -4.5 14t-13.5 5q-4 0 -9 -2.5t-11.5 -7t-13.5 -8.5l-125 -76l-41 107l126 77q34 21 75 21q35 0 65 -17.5t48 -48
t18 -65.5q0 -36 -17.5 -66.5t-47.5 -48.5t-66 -18h-167v118zM-1 770v125h121v-72v55q0 -37 -10 -65.5t-31 -42.5l-90 -55q10 7 10 55z" />
    <glyph glyph-name="uni0679.medi" unicode="&#x679;" horiz-adv-x="326" arabic-form="medial" 
d="M0 194h50q10 0 15.5 6t5.5 16v190h184v-190q0 -10 5.5 -16t15.5 -6h50q10 0 10 -10v-174q0 -10 -10 -10h-50q-70 0 -113 43q-43 -43 -113 -43h-50q-10 0 -10 10v174q0 10 10 10zM48 624h167q7 0 12 4.5t5 11.5q0 9 -4.5 14t-13.5 5q-4 0 -9 -2.5t-11.5 -7t-13.5 -8.5
l-125 -76l-41 107l126 77q34 21 75 21q35 0 65 -17.5t48 -48t18 -65.5q0 -36 -17.5 -66.5t-47.5 -48.5t-66 -18h-167v118zM49 742v125h121v-72v55q0 -37 -10 -65.5t-31 -42.5l-90 -55q10 7 10 55z" />
    <glyph glyph-name="uni06A4.fina" unicode="&#x6a4;" horiz-adv-x="908" arabic-form="final" 
d="M167 37q-63 37 -100 100t-37 137v132h184v-122q0 -37 26.5 -63.5t63.5 -26.5h604q10 0 10 -10v-174q0 -10 -10 -10h-604q-74 0 -137 37zM845.5 124q-31.5 -51 -85 -79t-118.5 -28v0q-65 0 -118.5 28t-85 79t-31.5 116q0 64 31.5 115.5t85.5 81t118 29.5v0q64 0 118 -29.5
t85.5 -81t31.5 -115.5q0 -65 -31.5 -116zM672 261q-11 11 -30 11v0q-19 0 -30 -11t-11 -28q0 -18 11 -28.5t30 -10.5v0q19 0 30 10.5t11 28.5q0 17 -11 28zM491 691h155v-155h-155v155zM646 691h155v-155h-155v155zM569 826h155v-135h-155v135z" />
    <glyph glyph-name="uni06A4.init" unicode="&#x6a4;" horiz-adv-x="472" arabic-form="initial" 
d="M-10 10v174q0 10 10 10h248q20 0 20 21v3h-20v0q-60 0 -110 27t-79.5 73.5t-29.5 103.5q0 61 30 112t80.5 80.5t108.5 29.5v0q58 0 104.5 -29.5t73 -80t26.5 -112.5v-219q0 -55 -27 -101.5t-73 -74t-102 -27.5h-250q-10 0 -10 10zM241 388h39v41q0 16 -11.5 27.5
t-27.5 11.5v0q-18 0 -29 -11t-11 -28q0 -18 11 -29.5t29 -11.5v0zM100 871h155v-155h-155v155zM255 871h155v-155h-155v155zM178 1006h155v-135h-155v135z" />
    <glyph glyph-name="uni06A4.medi" unicode="&#x6a4;" horiz-adv-x="521" arabic-form="medial" 
d="M61.5 355.5q31.5 51.5 85.5 81t118 29.5v0q64 0 118 -29.5t85.5 -81t31.5 -115.5q0 -65 -31.5 -116t-85 -79t-118.5 -28v0q-65 0 -118.5 28t-85 79t-31.5 116q0 64 31.5 115.5zM-10 10v174q0 10 10 10h521q10 0 10 -10v-174q0 -10 -10 -10h-521q-10 0 -10 10zM235 204.5
q11 -10.5 30 -10.5v0q19 0 30 10.5t11 28.5q0 17 -11 28t-30 11v0q-19 0 -30 -11t-11 -28q0 -18 11 -28.5zM109 691h155v-155h-155v155zM264 691h155v-155h-155v155zM187 826h155v-135h-155v135z" />
    <glyph glyph-name="uni0686.fina" unicode="&#x686;" horiz-adv-x="724" arabic-form="final" 
d="M177.5 -272.5q-61.5 36.5 -98 98.5t-36.5 134q0 60 26.5 115.5t74.5 94.5l225 165l-71 35q-13 6 -22 6q-14 0 -36 -16l-82 -87l-128 112l83 100q32 39 74.5 56t86.5 17q50 0 95 -24l214 -100q8 -2 14 -2h103v-180h-138v0v-36q0 -10 5.5 -16t15.5 -6h141q10 0 10 -10v-174
q0 -10 -10 -10h-141q-163 0 -166 140v5l-148 -108q-17 -15 -24.5 -32.5t-7.5 -41.5q0 -36 26 -62t62 -26h289v-184h-302q-73 0 -134.5 36.5zM321 -50h85v-64h-85v64zM279 35h85v-87h-85v87zM362 35h87v-87h-87v87z" />
    <glyph glyph-name="uni0686.init" unicode="&#x686;" horiz-adv-x="746" arabic-form="initial" 
d="M-10 10v174q0 10 10 10h224q68 0 116 42l79 70l-115 56q-13 6 -22 6q-18 0 -36 -16l-104 -115l-128 112l105 128q32 38 75 55.5t86 17.5q50 0 95 -24l214 -100q5 -2 8.5 -2h5.5h123v-180h-123l-162 -152q-50 -45 -113 -68.5t-129 -23.5h-199q-10 0 -10 10zM224 -235h155
v-135h-155v135zM144 -80h155v-155h-155v155zM299 -80h155v-155h-155v155z" />
    <glyph glyph-name="uni0686.medi" unicode="&#x686;" horiz-adv-x="744" arabic-form="medial" 
d="M-10 10v174q0 10 10 10h224q68 0 116 42l79 70l-115 56q-13 6 -22 6q-22 0 -36 -16l-104 -115l-128 112l105 128q32 38 75 55.5t86 17.5q50 0 95 -24l214 -100q12 -2 14 -2h123v-180h-128v0v-28q0 -10 5.5 -16t15.5 -6h125q10 0 10 -10v-174q0 -10 -10 -10h-125
q-60 0 -99 30.5t-56 83.5l-23 -22q-50 -45 -113 -68.5t-129 -23.5h-199q-10 0 -10 10zM224 -235h155v-135h-155v135zM144 -80h155v-155h-155v155zM299 -80h155v-155h-155v155z" />
    <glyph glyph-name="uni0688.fina" unicode="&#x688;" horiz-adv-x="545" arabic-form="final" 
d="M30 194h246q35 0 35 28q0 4 -6 24l-100 270l175 65l130 -358q6 -15 13 -22t22 -7v0q10 0 10 -10v-174q0 -10 -10 -10h-10q-40 0 -70 13.5t-47 31.5q-37 -28 -65 -36.5t-77 -8.5h-246v194zM191 800h167q7 0 12 4.5t5 11.5q0 9 -4.5 14t-13.5 5q-4 0 -9 -2.5t-11.5 -7
t-13.5 -8.5l-125 -76l-41 107l126 77q34 21 75 21q35 0 65 -17.5t48 -48t18 -65.5q0 -36 -17.5 -66.5t-47.5 -48.5t-66 -18h-167v118zM192 918v125h121v-72v55q0 -37 -10 -65.5t-31 -42.5l-90 -55q10 7 10 55z" />
    <glyph glyph-name="uni0698.fina" unicode="&#x698;" horiz-adv-x="391" arabic-form="final" 
d="M45 -76q28 26 34.5 51t6.5 81v350h184v-350q0 -91 -20.5 -149t-74.5 -105.5t-159 -99.5l-69 154q70 42 98 68zM176.5 55q-33.5 55 -33.5 149v202h127v-190q0 -10 5.5 -16t15.5 -6h100q10 0 10 -10v-174q0 -10 -10 -10h-100q-81 0 -114.5 55zM40 641h145v-155h-145v155z
M185 641h145v-155h-145v155zM108 776h155v-135h-155v135z" />
    <glyph glyph-name="uni0691.fina" unicode="&#x691;" horiz-adv-x="331" arabic-form="final" 
d="M45 -76q28 26 34.5 51t6.5 81v350h184v-350q0 -91 -20.5 -149t-74.5 -105.5t-159 -99.5l-69 154q70 42 98 68zM176.5 55q-33.5 55 -33.5 149v202h127v-190q0 -10 5.5 -16t15.5 -6h40q10 0 10 -10v-174q0 -10 -10 -10h-40q-81 0 -114.5 55zM68 628h167q7 0 12 4.5t5 11.5
q0 9 -4.5 14t-13.5 5q-4 0 -9 -2.5t-11.5 -7t-13.5 -8.5l-125 -76l-41 107l126 77q34 21 75 21q35 0 65 -17.5t48 -48t18 -65.5q0 -36 -17.5 -66.5t-47.5 -48.5t-66 -18h-167v118zM69 746v125h121v-72v55q0 -37 -10 -65.5t-31 -42.5l-90 -55q10 7 10 55z" />
    <glyph glyph-name="uni06A9.fina" unicode="&#x6a9;" horiz-adv-x="887" arabic-form="final" 
d="M167 37q-63 37 -100 100t-37 137v130h184v-120q0 -37 26.5 -63.5t63.5 -26.5h294q18 0 31 11t13 33t-23 36l-217 145v136l204 217l126 -120l-136 -141l136 -90q45 -29 69.5 -79t24.5 -108q0 -64 -31 -117.5t-83.5 -85t-115.5 -31.5h-292q-74 0 -137 37zM721.5 57
q-42.5 57 -42.5 147v30h147v-18v-2q0 -20 21 -20h40q10 0 10 -10v-174q0 -10 -10 -10h-40q-83 0 -125.5 57z" />
    <glyph glyph-name="uni06A9.init" unicode="&#x6a9;" horiz-adv-x="477" arabic-form="initial" 
d="M0 194h229q18 0 31 11t13 33t-23 36l-217 145v136l204 217l126 -120l-136 -141l136 -90q45 -29 69.5 -79t24.5 -108q0 -64 -31 -117.5t-83.5 -85t-115.5 -31.5h-227q-10 0 -10 10v174q0 10 10 10z" />
    <glyph glyph-name="uni06A9.medi" unicode="&#x6a9;" horiz-adv-x="518" arabic-form="medial" 
d="M-10 10v174q0 10 10 10h229q18 0 31 11t13 33t-23 36l-217 145v136l204 217l126 -120l-136 -141l136 -90q45 -29 69.5 -79t24.5 -108q0 -64 -31 -117.5t-83.5 -85t-115.5 -31.5h-227q-10 0 -10 10zM352.5 57q-42.5 57 -42.5 147v30h147v-18q0 -22 21 -22h40q10 0 10 -10
v-174q0 -10 -10 -10h-40q-83 0 -125.5 57z" />
    <glyph glyph-name="uni06AF.fina" unicode="&#x6af;" horiz-adv-x="887" arabic-form="final" 
d="M721.5 57q-42.5 57 -42.5 147v30h147v-18v-2q0 -20 21 -20h40q10 0 10 -10v-174q0 -10 -10 -10h-40q-83 0 -125.5 57zM314 644l176 186l88 -89l-176 -186zM167 37q-63 37 -100 100t-37 137v130h184v-120q0 -37 26.5 -63.5t63.5 -26.5h294q18 0 31 11t13 33t-23 36
l-217 145v136l204 217l126 -120l-136 -141l136 -90q45 -29 69.5 -79t24.5 -108q0 -64 -31 -117.5t-83.5 -85t-115.5 -31.5h-292q-74 0 -137 37z" />
    <glyph glyph-name="uni06AF.init" unicode="&#x6af;" horiz-adv-x="528" arabic-form="initial" 
d="M-10 10v174q0 10 10 10h280q18 0 31 11t13 33t-23 36l-218 145v136l204 217l126 -120l-136 -141l137 -90q45 -29 69.5 -79t24.5 -108q0 -64 -31 -117.5t-83.5 -85t-115.5 -31.5h-278q-10 0 -10 10zM-5 644l176 186l88 -89l-176 -186z" />
    <glyph glyph-name="uni06AF.medi" unicode="&#x6af;" horiz-adv-x="569" arabic-form="medial" 
d="M-10 10v174q0 10 10 10h280q18 0 31 11t13 33t-23 36l-218 145v136l204 217l126 -120l-136 -141l137 -90q45 -29 69.5 -79t24.5 -108q0 -64 -31 -117.5t-83.5 -85t-115.5 -31.5h-278q-10 0 -10 10zM403.5 57q-42.5 57 -42.5 147v30h147v-18q0 -22 21 -22h40q10 0 10 -10
v-174q0 -10 -10 -10h-40q-83 0 -125.5 57zM-5 644l176 186l88 -89l-176 -186z" />
    <glyph glyph-name="uni06BA.fina" unicode="&#x6ba;" horiz-adv-x="783" arabic-form="final" 
d="M202 -118.5q-79 46.5 -125.5 125.5t-46.5 172v187h184v-177q0 -42 22 -79t59 -59t79 -22q44 0 81 22t59 59t22 79v216h178v-226q0 -93 -45 -172t-123 -125.5t-172 -46.5q-93 0 -172 46.5zM660 26q-28 26 -36.5 69t-8.5 109v201h107v-189q0 -10 5.5 -16t15.5 -6h40
q10 0 10 -10v-174q0 -10 -10 -10h-40q-55 0 -83 26z" />
    <glyph glyph-name="uni06C0.fina" unicode="&#x6c0;" horiz-adv-x="544" arabic-form="final" 
d="M143.5 62q-54.5 32 -86.5 86t-32 117t32 113.5t86 79t119 28.5v0h39v70h182v-291q0 -64 -28.5 -118t-79 -85.5t-113.5 -31.5v0q-64 0 -118.5 32zM290.5 235.5q10.5 11.5 10.5 29.5v37h-39v0q-19 0 -30 -10t-11 -27q0 -18 11 -29.5t30 -11.5v0q18 0 28.5 11.5zM407 27
q-41 27 -62 73.5t-21 103.5v202h159v-190q0 -10 5.5 -16t15.5 -6h40q10 0 10 -10v-174q0 -10 -10 -10h-40q-56 0 -97 27zM67 644l133 35q8 2 8 7q0 4 -3 6t-7 2l-156 -5l-24 83q-5 18 -5 34q0 45 29 83t73 50l117 32l32 -115l-118 -33q-9 -2 -12 -4.5t-3 -7.5v-1l74 3
q45 0 76.5 -25.5t42.5 -70.5q4 -15 4 -31q0 -44 -26.5 -79t-69.5 -47l-132 -36z" />
    <glyph glyph-name="uni06C1.fina" unicode="&#x6c1;" horiz-adv-x="551" arabic-form="final" 
d="M561 184v-174q0 -10 -10 -10h-40q-58 0 -108 25t-79 69l-42 63l-142 -136l-120 126l218 204h136l90 -134q16 -23 36 -23h51q10 0 10 -10z" />
    <glyph glyph-name="uni06C1.init" unicode="&#x6c1;" horiz-adv-x="283" arabic-form="initial" 
d="M-10 10v174q0 10 10 10h59q8 0 14 6t6 15v219h184v-231q0 -55 -27 -101.5t-73 -74t-102 -27.5h-61q-10 0 -10 10zM27 -452q-31 33 -31 77q0 59 31 131.5t97 153.5l102 -69q-39 -48 -85 -119q19 0 37.5 -13.5t30.5 -35t12 -45.5q0 -47 -32.5 -80t-79.5 -33q-51 0 -82 33z
" />
    <glyph glyph-name="uni06C1.medi" unicode="&#x6c1;" horiz-adv-x="589" arabic-form="medial" 
d="M279 -60.5q14 -14.5 34 -14.5h238v-182h-240q-61 0 -114 31.5t-84.5 84.5t-31.5 115v308h184v-308q0 -20 14 -34.5zM351.5 77.5q27.5 53.5 78 85t114.5 31.5h45q10 0 10 -10v-174q0 -10 -10 -10h-61q-18 0 -27.5 -11t-9.5 -30v-193h-167v193q0 65 27.5 118.5zM237.5 117
q-27.5 -54 -78 -85.5t-114.5 -31.5h-45q-10 0 -10 10v174q0 10 10 10h44q18 0 27.5 11t9.5 31v46h184v-46q0 -65 -27.5 -119z" />
    <glyph glyph-name="uni06BE.fina" unicode="&#x6be;" horiz-adv-x="565" arabic-form="final" 
d="M205.5 51q-51.5 27 -82 73.5t-30.5 100.5t30.5 101t82.5 74.5t112 27.5v0q60 0 104 -27t67.5 -73.5t23.5 -102.5t-23 -101.5t-67.5 -72.5t-104.5 -27v0q-61 0 -112.5 27zM205.5 -216q-51.5 27 -82 73.5t-30.5 100.5t30.5 101t82.5 74.5t112 27.5v0q60 0 104 -27
t67.5 -73.5t23.5 -102.5t-23 -101.5t-67.5 -72.5t-104.5 -27v0q-61 0 -112.5 27zM344.5 -62q10.5 11 10.5 26q0 16 -10.5 26.5t-26.5 10.5v0q-16 0 -26.5 -10.5t-10.5 -26.5q0 -15 10.5 -26t26.5 -11v0q16 0 26.5 11zM205 194h360q10 0 10 -10v-174q0 -10 -10 -10h-360v194z
M344.5 205q10.5 11 10.5 26q0 16 -10.5 26.5t-26.5 10.5v0q-16 0 -26.5 -10.5t-10.5 -26.5q0 -15 10.5 -26t26.5 -11v0q16 0 26.5 11zM32 428h286l-56 -184h-230v184z" />
    <glyph glyph-name="uni06BE.init" unicode="&#x6be;" horiz-adv-x="790" arabic-form="initial" 
d="M318 194q16 0 26.5 11.5t10.5 25.5t-10.5 25.5t-26.5 11.5q-18 0 -27.5 -11t-9.5 -26q0 -17 10.5 -27t26.5 -10h217q19 0 30 9.5t11 27.5q0 17 -11 27t-30 10h-503v184h503q64 0 118 -28.5t85.5 -79t31.5 -113.5t-32.5 -116t-86.5 -84t-116 -31h-229q-70 0 -118.5 35
t-71.5 88.5t-23 107.5q0 47 28 95t79.5 80t117.5 32q82 0 125 -42t56.5 -89.5t13.5 -75.5q0 -82 -32 -133.5t-79 -74.5t-96 -23h-308l2 194h318z" />
    <glyph glyph-name="uni06BE.medi" unicode="&#x6be;" horiz-adv-x="831" arabic-form="medial" 
d="M737.5 115q-32.5 -53 -86.5 -84t-116 -31h-535q-10 0 -10 10v174q0 10 10 10h535q19 0 30 9.5t11 27.5q0 17 -11 27t-30 10h-503v184h503q64 0 118 -28.5t85.5 -79t31.5 -113.5t-32.5 -116zM490 123.5q-23 -45.5 -67.5 -72.5t-104.5 -27v0q-61 0 -112.5 27t-82 73.5
t-30.5 100.5t30.5 101t82.5 74.5t112 27.5v0q60 0 104 -27t67.5 -73.5t23.5 -102.5t-23 -101.5zM344.5 257.5q-10.5 10.5 -26.5 10.5v0q-16 0 -26.5 -10.5t-10.5 -26.5q0 -15 10.5 -26t26.5 -11v0q16 0 26.5 11t10.5 26q0 16 -10.5 26.5zM665.5 57q-42.5 57 -42.5 147v27
h147v-15q0 -10 5.5 -16t15.5 -6h40q10 0 10 -10v-174q0 -10 -10 -10h-40q-83 0 -125.5 57z" />
    <glyph glyph-name="uni06D2.fina" unicode="&#x6d2;" horiz-adv-x="541" arabic-form="final" 
d="M60 84q30 51 81 80.5t112 29.5h288q10 0 10 -10v-174q0 -10 -10 -10h-291q-12 0 -20 -8t-8 -19t8 -19t20 -8h227v-194h-224q-61 0 -112 29.5t-81 80.5t-30 111t30 111z" />
    <glyph glyph-name="uni06D3.fina" unicode="&#x6d3;" horiz-adv-x="541" arabic-form="final" 
d="M60 84q30 51 81 80.5t112 29.5h288q10 0 10 -10v-174q0 -10 -10 -10h-291q-12 0 -20 -8t-8 -19t8 -19t20 -8h227v-194h-224q-61 0 -112 29.5t-81 80.5t-30 111t30 111zM34 332l82 31q-17 19 -26 45q-5 14 -5 33q0 40 26.5 75.5t71.5 50.5l91 31l47 -130l-76 -28
q-11 -3 -11 -13q0 -6 4 -11t11 -5l8 2l102 37l47 -129l-326 -120z" />
    <glyph glyph-name="uni06C7.fina" unicode="&#x6c7;" horiz-adv-x="517" arabic-form="final" 
d="M234 -76.5q42 23.5 55 40t13 36.5h-37v0q-64 0 -118 28.5t-85.5 79t-31.5 113.5q0 64 32 118t85.5 85.5t117.5 31.5v0q63 0 113.5 -31.5t79 -85.5t28.5 -118v-139q0 -103 -28 -165.5t-95 -110.5t-199 -104l-57 162q85 36 127 59.5zM302 182v39q0 19 -10 30t-27 11v0
q-18 0 -29.5 -11t-11.5 -30q0 -18 11.5 -28.5t29.5 -10.5v0h37zM473 194h44q10 0 10 -10v-174q0 -10 -10 -10h-44v194zM122 716q0 42 20 77t55 55.5t77 20.5t77.5 -20.5t56 -55.5t20.5 -77q0 -48 -27.5 -87.5t-71.5 -55.5l-207 -75l-46 131l65 24q-19 25 -19 63zM257 703
q7 -7 18 -7t18 7t7 18t-7 18t-18 7t-18 -7t-7 -18t7 -18z" />
    <glyph glyph-name="uni06C6.fina" unicode="&#x6c6;" horiz-adv-x="517" arabic-form="final" 
d="M234 -76.5q42 23.5 55 40t13 36.5h-37v0q-64 0 -118 28.5t-85.5 79t-31.5 113.5q0 64 32 118t85.5 85.5t117.5 31.5v0q63 0 113.5 -31.5t79 -85.5t28.5 -118v-139q0 -103 -28 -165.5t-95 -110.5t-199 -104l-57 162q85 36 127 59.5zM302 182v39q0 19 -10 30t-27 11v0
q-18 0 -29.5 -11t-11.5 -30q0 -18 11.5 -28.5t29.5 -10.5v0h37zM473 194h44q10 0 10 -10v-174q0 -10 -10 -10h-44v194zM196.5 621.5q-15.5 22.5 -39 30t-62.5 10.5v136q79 2 126 -22t47 -78q0 54 47 78t126 22v-136q-38 -3 -61.5 -10.5t-39 -30t-15.5 -67.5h-113
q0 45 -15.5 67.5z" />
    <glyph glyph-name="uni06CC.fina" unicode="&#x6cc;" horiz-adv-x="789" arabic-form="final" 
d="M30 290h184v-254q0 -37 26.5 -63.5t63.5 -26.5h239q12 0 20 8t8 19t-8 19t-20 8h-210v159h207q97 0 160 -49t63 -137q0 -60 -30 -111t-81 -80.5t-112 -29.5h-236q-74 0 -137 37t-100 100t-37 137v264zM324 0v194h465q10 0 10 -10v-174q0 -10 -10 -10h-465z" />
    <glyph glyph-name="uni06CC.init" unicode="&#x6cc;" horiz-adv-x="363" arabic-form="initial" 
d="M-10 10v174q0 10 10 10h131q8 0 14 6t6 15v219h184v-231q0 -55 -27 -101.5t-73 -74t-102 -27.5h-133q-10 0 -10 10zM27 -80h155v-155h-155v155zM182 -80h155v-155h-155v155z" />
    <glyph glyph-name="uni06CC.medi" unicode="&#x6cc;" horiz-adv-x="366" arabic-form="medial" 
d="M0 194h70q10 0 15.5 6t5.5 16v190h184v-190q0 -10 5.5 -16t15.5 -6h70q10 0 10 -10v-174q0 -10 -10 -10h-70q-36 0 -62.5 8t-50.5 26q-24 -18 -50.5 -26t-62.5 -8h-70q-10 0 -10 10v174q0 10 10 10zM28 -80h155v-155h-155v155zM183 -80h155v-155h-155v155z" />
    <glyph glyph-name="uniFDFC" unicode="&#xfdfc;" horiz-adv-x="1502" arabic-form="isolated" 
d="M202 -118.5q-79 46.5 -125.5 125.5t-46.5 172v187h184v-177q0 -42 22 -79t59 -59t79 -22q44 0 81 22t59 59t22 79v494h184v-504q0 -93 -46.5 -172t-126 -125.5t-173.5 -46.5q-93 0 -172 46.5zM816 -80h155v-155h-155v155zM971 -80h155v-155h-155v155zM890 27.5
q-46 27.5 -73 74t-27 101.5v190q0 37 -2 49.5t-10 19t-33 17.5q-61 31 -94 50l69 154q9 -5 27 -13q108 -53 150 -81.5t59.5 -70.5t17.5 -125v-178q0 -10 5.5 -15.5t14.5 -5.5h17q10 0 10 -10v-174q0 -10 -10 -10h-19q-56 0 -102 27.5zM1001 10v174q0 10 10 10h23q8 0 14 6
t6 15v219h184v-231q0 -55 -27 -101.5t-73 -74t-102 -27.5h-25q-10 0 -10 10zM1252 -76q28 26 34.5 51t6.5 81v350h184v-350q0 -91 -20.5 -149t-74.5 -105.5t-159 -99.5l-69 154q70 42 98 68z" />
    <glyph glyph-name="uni0622.fina" unicode="&#x622;" horiz-adv-x="295" arabic-form="final" 
d="M130 27.5q-46 27.5 -73 74t-27 101.5v456h184v-444q0 -10 5.5 -15.5t14.5 -5.5h61q10 0 10 -10v-174q0 -10 -10 -10h-63q-56 0 -102 27.5zM-94 847.5q34 30.5 82 30.5h292v-139h-264q-13 0 -18.5 -5t-5.5 -17v-53h-120v98q0 55 34 85.5z" />
    <glyph glyph-name="uni0623.fina" unicode="&#x623;" horiz-adv-x="295" arabic-form="final" 
d="M130 27.5q-46 27.5 -73 74t-27 101.5v456h184v-444q0 -10 5.5 -15.5t14.5 -5.5h61q10 0 10 -10v-174q0 -10 -10 -10h-63q-56 0 -102 27.5zM-45 800l82 31q-17 19 -26 45q-5 14 -5 33q0 40 26.5 75.5t71.5 50.5l91 31l47 -130l-76 -28q-11 -3 -11 -13q0 -6 4 -11t11 -5
l8 2l102 37l47 -129l-326 -120z" />
    <glyph glyph-name="uni0624.fina" unicode="&#x624;" horiz-adv-x="517" arabic-form="final" 
d="M234 -76.5q42 23.5 55 40t13 36.5h-37v0q-64 0 -118 28.5t-85.5 79t-31.5 113.5q0 64 32 118t85.5 85.5t117.5 31.5v0q63 0 113.5 -31.5t79 -85.5t28.5 -118v-139q0 -103 -28 -165.5t-95 -110.5t-199 -104l-57 162q85 36 127 59.5zM302 182v39q0 19 -10 30t-27 11v0
q-18 0 -29.5 -11t-11.5 -30q0 -18 11.5 -28.5t29.5 -10.5v0h37zM473 194h44q10 0 10 -10v-174q0 -10 -10 -10h-44v194zM77 629l82 31q-17 19 -26 45q-5 14 -5 33q0 40 26.5 75.5t71.5 50.5l91 31l47 -130l-76 -28q-11 -3 -11 -13q0 -6 4 -11t11 -5l8 2l102 37l47 -129
l-326 -120z" />
    <glyph glyph-name="uni0625.fina" unicode="&#x625;" horiz-adv-x="295" arabic-form="final" 
d="M130 27.5q-46 27.5 -73 74t-27 101.5v480h184v-468q0 -10 5.5 -15.5t14.5 -5.5h61q10 0 10 -10v-174q0 -10 -10 -10h-63q-56 0 -102 27.5zM-46 -313l82 31q-17 19 -26 45q-5 14 -5 33q0 40 26.5 75.5t71.5 50.5l91 31l47 -130l-76 -28q-11 -3 -11 -13q0 -6 4 -11t11 -5
l8 2l102 37l47 -129l-326 -120z" />
    <glyph glyph-name="uni0626.fina" unicode="&#x626;" horiz-adv-x="789" arabic-form="final" 
d="M167 -211q-63 37 -100 100t-37 137v264h184v-254q0 -37 26.5 -63.5t63.5 -26.5h239q12 0 20 8t8 19t-8 19t-20 8h-210v159h207q97 0 160 -49t63 -137q0 -60 -30 -111t-81 -80.5t-112 -29.5h-236q-74 0 -137 37zM324 194h465q10 0 10 -10v-174q0 -10 -10 -10h-465v194z
M30 479l82 31q-17 19 -26 45q-5 14 -5 33q0 40 26.5 75.5t71.5 50.5l91 31l47 -130l-76 -28q-11 -3 -11 -13q0 -6 4 -11t11 -5l8 2l102 37l47 -129l-326 -120z" />
    <glyph glyph-name="uni0626.init" unicode="&#x626;" horiz-adv-x="329" arabic-form="initial" 
d="M-10 10v174q0 10 10 10h72q8 0 14 6t6 15v219h184v-231q0 -55 -27 -101.5t-73 -74t-102 -27.5h-74q-10 0 -10 10zM-33 613l82 31q-17 19 -26 45q-5 14 -5 33q0 40 26.5 75.5t71.5 50.5l91 31l47 -130l-76 -28q-11 -3 -11 -13q0 -6 4 -11t11 -5l8 2l102 37l47 -129
l-326 -120z" />
    <glyph glyph-name="uni0626.medi" unicode="&#x626;" horiz-adv-x="366" arabic-form="medial" 
d="M-10 10v174q0 10 10 10h70q10 0 15.5 6t5.5 16v190h184v-190q0 -10 5.5 -16t15.5 -6h70q10 0 10 -10v-174q0 -10 -10 -10h-70q-36 0 -62.5 8t-50.5 26q-24 -18 -50.5 -26t-62.5 -8h-70q-10 0 -10 10zM1 593l82 31q-17 19 -26 45q-5 14 -5 33q0 40 26.5 75.5t71.5 50.5
l91 31l47 -130l-76 -28q-11 -3 -11 -13q0 -6 4 -11t11 -5l8 2l102 37l47 -129l-326 -120z" />
    <glyph glyph-name="uni0627.fina" unicode="&#x627;" horiz-adv-x="295" arabic-form="final" 
d="M130 27.5q-46 27.5 -73 74t-27 101.5v480h184v-468q0 -10 5.5 -15.5t14.5 -5.5h61q10 0 10 -10v-174q0 -10 -10 -10h-63q-56 0 -102 27.5z" />
    <glyph glyph-name="uni0628.fina" unicode="&#x628;" horiz-adv-x="888" arabic-form="final" 
d="M167 37q-63 37 -100 100t-37 137v132h184v-122q0 -37 26.5 -63.5t63.5 -26.5h300q18 0 28.5 11.5t10.5 29.5v171h184v-190q0 -10 5.5 -16t15.5 -6h40q10 0 10 -10v-174q0 -10 -10 -10h-40q-38 0 -66 9t-53 30q-28 -20 -57.5 -29.5t-67.5 -9.5h-300q-74 0 -137 37z
M388 -80h155v-155h-155v155z" />
    <glyph glyph-name="uni0628.init" unicode="&#x628;" horiz-adv-x="283" arabic-form="initial" 
d="M-10 10v174q0 10 10 10h59q8 0 14 6t6 15v219h184v-231q0 -55 -27 -101.5t-73 -74t-102 -27.5h-61q-10 0 -10 10zM-1 -80h155v-155h-155v155z" />
    <glyph glyph-name="uni0628.medi" unicode="&#x628;" horiz-adv-x="306" arabic-form="medial" 
d="M-10 10v174q0 10 10 10h40q10 0 15.5 6t5.5 16v190h184v-190q0 -10 5.5 -16t15.5 -6h40q10 0 10 -10v-174q0 -10 -10 -10h-40q-36 0 -62.5 8t-50.5 26q-24 -18 -50.5 -26t-62.5 -8h-40q-10 0 -10 10zM81 -79h155v-155h-155v155z" />
    <glyph glyph-name="uni0629.fina" unicode="&#x629;" horiz-adv-x="544" arabic-form="final" 
d="M143.5 62q-54.5 32 -86.5 86t-32 117t32 113.5t86 79t119 28.5v0h39v70h182v-291q0 -64 -28.5 -118t-79 -85.5t-113.5 -31.5v0q-64 0 -118.5 32zM290.5 235.5q10.5 11.5 10.5 29.5v37h-39v0q-19 0 -30 -10t-11 -27q0 -18 11 -29.5t30 -11.5v0q18 0 28.5 11.5zM407 27
q-41 27 -62 73.5t-21 103.5v202h159v-190q0 -10 5.5 -16t15.5 -6h40q10 0 10 -10v-174q0 -10 -10 -10h-40q-56 0 -97 27zM117 791h155v-155h-155v155zM272 791h155v-155h-155v155z" />
    <glyph glyph-name="uni062A.fina" unicode="&#x62a;" horiz-adv-x="888" arabic-form="final" 
d="M30 406h184v-122q0 -37 26.5 -63.5t63.5 -26.5h300q18 0 28.5 11.5t10.5 29.5v171h184v-190q0 -10 5.5 -16t15.5 -6h40q10 0 10 -10v-174q0 -10 -10 -10h-40q-38 0 -66 9t-53 30q-28 -20 -57.5 -29.5t-67.5 -9.5h-300q-74 0 -137 37t-100 100t-37 137v132zM280 561h155
v-155h-155v155zM435 561h155v-155h-155v155z" />
    <glyph glyph-name="uni062A.init" unicode="&#x62a;" horiz-adv-x="332" arabic-form="initial" 
d="M-10 10v174q0 10 10 10h108q8 0 14 6t6 15v219h184v-231q0 -55 -27 -101.5t-73 -74t-102 -27.5h-110q-10 0 -10 10zM2 669h155v-155h-155v155zM157 669h155v-155h-155v155z" />
    <glyph glyph-name="uni062A.medi" unicode="&#x62a;" horiz-adv-x="366" arabic-form="medial" 
d="M0 194h70q10 0 15.5 6t5.5 16v190h184v-190q0 -10 5.5 -16t15.5 -6h70q10 0 10 -10v-174q0 -10 -10 -10h-70q-36 0 -62.5 8t-50.5 26q-24 -18 -50.5 -26t-62.5 -8h-70q-10 0 -10 10v174q0 10 10 10zM32 641h155v-155h-155v155zM187 641h155v-155h-155v155z" />
    <glyph glyph-name="uni062B.fina" unicode="&#x62b;" horiz-adv-x="888" arabic-form="final" 
d="M167 37q-63 37 -100 100t-37 137v132h184v-122q0 -37 26.5 -63.5t63.5 -26.5h300q18 0 28.5 11.5t10.5 29.5v171h149v-171q0 -103 -48 -169t-140 -66h-300q-74 0 -137 37zM722.5 57q-42.5 57 -42.5 147v202h147v-190q0 -10 5.5 -16t15.5 -6h40q10 0 10 -10v-174
q0 -10 -10 -10h-40q-83 0 -125.5 57zM274 561h155v-155h-155v155zM429 561h155v-155h-155v155zM352 696h155v-135h-155v135z" />
    <glyph glyph-name="uni062B.init" unicode="&#x62b;" horiz-adv-x="355" arabic-form="initial" 
d="M-10 10v174q0 10 10 10h131q8 0 14 6t6 15v219h184v-231q0 -55 -27 -101.5t-73 -74t-102 -27.5h-133q-10 0 -10 10zM25 669h155v-155h-155v155zM180 669h155v-155h-155v155zM102 804h155v-135h-155v135z" />
    <glyph glyph-name="uni062B.medi" unicode="&#x62b;" horiz-adv-x="366" arabic-form="medial" 
d="M-10 10v174q0 10 10 10h70q10 0 15.5 6t5.5 16v190h184v-190q0 -10 5.5 -16t15.5 -6h70q10 0 10 -10v-174q0 -10 -10 -10h-70q-70 0 -113 43q-43 -43 -113 -43h-70q-10 0 -10 10zM29 641h155v-155h-155v155zM184 641h155v-155h-155v155zM107 776h155v-135h-155v135z" />
    <glyph glyph-name="uni062C.fina" unicode="&#x62c;" horiz-adv-x="724" arabic-form="final" 
d="M177.5 -272.5q-61.5 36.5 -98 98.5t-36.5 134q0 60 26.5 115.5t74.5 94.5l225 165l-71 35q-13 6 -22 6q-14 0 -36 -16l-82 -87l-128 112l83 100q32 39 74.5 56t86.5 17q50 0 95 -24l214 -100q8 -2 14 -2h103v-180h-138v0v-36q0 -10 5.5 -16t15.5 -6h141q10 0 10 -10v-174
q0 -10 -10 -10h-141q-163 0 -166 140v5l-148 -108q-17 -15 -24.5 -32.5t-7.5 -41.5q0 -36 26 -62t62 -26h289v-184h-302q-73 0 -134.5 36.5zM319 43h125v-129h-125v129z" />
    <glyph glyph-name="uni062C.init" unicode="&#x62c;" horiz-adv-x="746" arabic-form="initial" 
d="M-10 10v174q0 10 10 10h224q68 0 116 42l79 70l-115 56q-13 6 -22 6q-18 0 -36 -16l-104 -115l-128 112l105 128q32 38 75 55.5t86 17.5q50 0 95 -24l214 -100q5 -2 8.5 -2h5.5h123v-180h-123l-162 -152q-50 -45 -113 -68.5t-129 -23.5h-199q-10 0 -10 10zM124 -80h155
v-155h-155v155z" />
    <glyph glyph-name="uni062C.medi" unicode="&#x62c;" horiz-adv-x="744" arabic-form="medial" 
d="M-10 10v174q0 10 10 10h224q68 0 116 42l79 70l-115 56q-13 6 -22 6q-18 0 -36 -16l-104 -115l-128 112l105 128q32 38 75 55.5t86 17.5q50 0 95 -24l214 -100q5 -2 8.5 -2h5.5h123v-180h-128v0v-28q0 -10 5.5 -16t15.5 -6h125q10 0 10 -10v-174q0 -10 -10 -10h-125
q-59 0 -96.5 28.5t-61.5 83.5l-20 -20q-50 -45 -113 -68.5t-129 -23.5h-199q-10 0 -10 10zM124 -80h155v-155h-155v155z" />
    <glyph glyph-name="uni062D.fina" unicode="&#x62d;" horiz-adv-x="724" arabic-form="final" 
d="M177.5 -272.5q-61.5 36.5 -98 98.5t-36.5 134q0 60 26.5 115.5t74.5 94.5l225 165l-71 35q-13 6 -22 6q-14 0 -36 -16l-82 -87l-128 112l83 100q32 39 74.5 56t86.5 17q50 0 95 -24l214 -100q8 -2 14 -2h103v-180h-138v0v-36q0 -10 5.5 -16t15.5 -6h141q10 0 10 -10v-174
q0 -10 -10 -10h-141q-163 0 -166 140v5l-148 -108q-17 -15 -24.5 -32.5t-7.5 -41.5q0 -36 26 -62t62 -26h289v-184h-302q-73 0 -134.5 36.5z" />
    <glyph glyph-name="uni062D.init" unicode="&#x62d;" horiz-adv-x="746" arabic-form="initial" 
d="M-10 10v174q0 10 10 10h224q68 0 116 42l79 70l-115 56q-13 6 -22 6q-18 0 -36 -16l-104 -115l-128 112l105 128q32 38 75 55.5t86 17.5q50 0 95 -24l214 -100q5 -2 8.5 -2h5.5h123v-180h-123l-162 -152q-50 -45 -113 -68.5t-129 -23.5h-199q-10 0 -10 10z" />
    <glyph glyph-name="uni062D.medi" unicode="&#x62d;" horiz-adv-x="744" arabic-form="medial" 
d="M-10 10v174q0 10 10 10h224q68 0 116 42l79 70l-115 56q-13 6 -22 6q-18 0 -36 -16l-104 -115l-128 112l105 128q32 38 75 55.5t86 17.5q50 0 95 -24l214 -100q5 -2 8.5 -2h5.5h123v-180h-128v0v-28q0 -10 5.5 -16t15.5 -6h125q10 0 10 -10v-174q0 -10 -10 -10h-125
q-60 0 -99 30.5t-56 83.5l-23 -22q-50 -45 -113 -68.5t-129 -23.5h-199q-10 0 -10 10z" />
    <glyph glyph-name="uni062E.fina" unicode="&#x62e;" horiz-adv-x="724" arabic-form="final" 
d="M177.5 -272.5q-61.5 36.5 -98 98.5t-36.5 134q0 60 26.5 115.5t74.5 94.5l225 165l-71 35q-13 6 -22 6q-14 0 -36 -16l-82 -87l-128 112l83 100q32 39 74.5 56t86.5 17q50 0 95 -24l214 -100q8 -2 14 -2h103v-180h-137l-1 -1v-35q0 -10 5.5 -16t15.5 -6h141q10 0 10 -10
v-174q0 -10 -10 -10h-141q-163 0 -166 140v5l-148 -108q-17 -15 -24.5 -32.5t-7.5 -41.5q0 -36 26 -62t62 -26h289v-184h-302q-73 0 -134.5 36.5zM198 783h155v-155h-155v155z" />
    <glyph glyph-name="uni062E.init" unicode="&#x62e;" horiz-adv-x="746" arabic-form="initial" 
d="M-10 10v174q0 10 10 10h224q68 0 116 42l79 70l-115 56q-13 6 -22 6q-18 0 -36 -16l-104 -115l-128 112l105 128q32 38 75 55.5t86 17.5q50 0 95 -24l214 -100q5 -2 8.5 -2h5.5h123v-180h-123l-162 -152q-50 -45 -113 -68.5t-129 -23.5h-199q-10 0 -10 10zM203 775h155
v-155h-155v155z" />
    <glyph glyph-name="uni062E.medi" unicode="&#x62e;" horiz-adv-x="744" arabic-form="medial" 
d="M-10 10v174q0 10 10 10h224q68 0 116 42l79 70l-115 56q-13 6 -22 6q-18 0 -36 -16l-104 -115l-128 112l105 128q32 38 75 55.5t86 17.5q50 0 95 -24l214 -100q5 -2 8.5 -2h5.5h123v-180h-123l-5 -4v-24q0 -10 5.5 -16t15.5 -6h125q10 0 10 -10v-174q0 -10 -10 -10h-125
q-59 0 -96.5 28.5t-61.5 83.5l-20 -20q-50 -45 -113 -68.5t-129 -23.5h-199q-10 0 -10 10zM359 620h-155v155h155v-155z" />
    <glyph glyph-name="uni062F.fina" unicode="&#x62f;" horiz-adv-x="545" arabic-form="final" 
d="M30 194h246q35 0 35 28q0 4 -6 24l-100 270l175 65l130 -358q6 -15 13 -22t22 -7v0q10 0 10 -10v-174q0 -10 -10 -10h-10q-40 0 -70 13.5t-47 31.5q-37 -28 -65 -36.5t-77 -8.5h-246v194z" />
    <glyph glyph-name="uni0630.fina" unicode="&#x630;" horiz-adv-x="545" arabic-form="final" 
d="M30 194h246q35 0 35 28q0 4 -6 24l-100 270l175 65l130 -358q5 -15 12.5 -22t22.5 -7v0q10 0 10 -10v-174q0 -10 -10 -10h-10q-40 0 -70 13.5t-47 31.5q-37 -28 -65 -36.5t-77 -8.5h-246v194zM210 793h155v-155h-155v155z" />
    <glyph glyph-name="uni0631.fina" unicode="&#x631;" horiz-adv-x="331" arabic-form="final" 
d="M45 -76q28 26 34.5 51t6.5 81v350h184v-350q0 -91 -20.5 -149t-74.5 -105.5t-159 -99.5l-69 154q70 42 98 68zM176.5 55q-33.5 55 -33.5 149v202h127v-190q0 -10 5.5 -16t15.5 -6h40q10 0 10 -10v-174q0 -10 -10 -10h-40q-81 0 -114.5 55z" />
    <glyph glyph-name="uni0632.fina" unicode="&#x632;" horiz-adv-x="331" arabic-form="final" 
d="M45 -76q28 26 34.5 51t6.5 81v350h184v-350q0 -91 -20.5 -149t-74.5 -105.5t-159 -99.5l-69 154q70 42 98 68zM176.5 55q-33.5 55 -33.5 149v202h127v-190q0 -10 5.5 -16t15.5 -6h40q10 0 10 -10v-174q0 -10 -10 -10h-40q-81 0 -114.5 55zM101 641h155v-155h-155v155z
" />
    <glyph glyph-name="uni0633.fina" unicode="&#x633;" horiz-adv-x="1235" arabic-form="final" 
d="M202 -118.5q-79 46.5 -125.5 125.5t-46.5 172v187h184v-177q0 -42 22 -79t59 -59t79 -22q44 0 81 22t59 59t22 79v217h178v-227q0 -93 -45 -172t-123 -125.5t-172 -46.5q-93 0 -172 46.5zM660 24q-28 26 -36.5 69t-8.5 109v204h107v-192q0 -10 5.5 -16t15.5 -6t15.5 6
t5.5 16v192h147v-204q0 -90 -42.5 -147t-125.5 -57q-55 0 -83 26zM843.5 55q-42.5 57 -42.5 147v204h147v-192q0 -10 5.5 -16t15.5 -6t15.5 6t5.5 16v220h147v-232q0 -90 -42.5 -147t-125.5 -57t-125.5 57zM1069.5 57q-42.5 57 -42.5 147v230h147v-218q0 -10 5.5 -16
t15.5 -6h40q10 0 10 -10v-174q0 -10 -10 -10h-40q-83 0 -125.5 57z" />
    <glyph glyph-name="uni0633.init" unicode="&#x633;" horiz-adv-x="713" arabic-form="initial" 
d="M366.5 57.5q-42.5 57.5 -42.5 146.5v202h147v-190q0 -10 5.5 -16t14.5 -6h18v240h184v-434h-202q-82 0 -124.5 57.5zM-10 10v174q0 10 10 10h40q10 0 15.5 6t5.5 16v190h147v-202q0 -90 -42.5 -147t-125.5 -57h-40q-10 0 -10 10zM140.5 55q-42.5 57 -42.5 147v204h147
v-192q0 -10 5.5 -16t15.5 -6t15.5 6t5.5 16v192h147v-204q0 -90 -42.5 -147t-125.5 -57t-125.5 57z" />
    <glyph glyph-name="uni0633.medi" unicode="&#x633;" horiz-adv-x="758" arabic-form="medial" 
d="M366.5 55q-42.5 57 -42.5 147v204h147v-192q0 -10 5.5 -16t15.5 -6t15.5 6t5.5 16v220h147v-232q0 -90 -42.5 -147t-125.5 -57t-125.5 57zM-10 10v174q0 10 10 10h40q10 0 15.5 6t5.5 16v190h147v-202q0 -90 -42.5 -147t-125.5 -57h-40q-10 0 -10 10zM140.5 55
q-42.5 57 -42.5 147v204h147v-192q0 -10 5.5 -16t15.5 -6t15.5 6t5.5 16v192h147v-204q0 -90 -42.5 -147t-125.5 -57t-125.5 57zM592.5 57q-42.5 57 -42.5 147v230h147v-218q0 -10 5.5 -16t15.5 -6h40q10 0 10 -10v-174q0 -10 -10 -10h-40q-83 0 -125.5 57z" />
    <glyph glyph-name="uni0634.fina" unicode="&#x634;" horiz-adv-x="1235" arabic-form="final" 
d="M202 -118.5q-79 46.5 -125.5 125.5t-46.5 172v187h184v-177q0 -42 22 -79t59 -59t79 -22q44 0 81 22t59 59t22 79v217h178v-227q0 -93 -45 -172t-123 -125.5t-172 -46.5q-93 0 -172 46.5zM660 24q-28 26 -36.5 69t-8.5 109v204h107v-192q0 -10 5.5 -16t15.5 -6t15.5 6
t5.5 16v192h147v-204q0 -90 -42.5 -147t-125.5 -57q-55 0 -83 26zM843.5 55q-42.5 57 -42.5 147v204h147v-192q0 -10 5.5 -16t15.5 -6t15.5 6t5.5 16v220h147v-232q0 -90 -42.5 -147t-125.5 -57t-125.5 57zM1069.5 57q-42.5 57 -42.5 147v230h147v-218q0 -10 5.5 -16
t15.5 -6h40q10 0 10 -10v-174q0 -10 -10 -10h-40q-83 0 -125.5 57zM704 641h155v-155h-155v155zM859 641h155v-155h-155v155zM782 776h155v-135h-155v135z" />
    <glyph glyph-name="uni0634.init" unicode="&#x634;" horiz-adv-x="713" arabic-form="initial" 
d="M366.5 57.5q-42.5 57.5 -42.5 146.5v202h147v-190q0 -10 5.5 -16t14.5 -6h18v240h184v-434h-202q-82 0 -124.5 57.5zM-10 10v174q0 10 10 10h40q10 0 15.5 6t5.5 16v190h147v-202q0 -90 -42.5 -147t-125.5 -57h-40q-10 0 -10 10zM140.5 55q-42.5 57 -42.5 147v204h147
v-192q0 -10 5.5 -16t15.5 -6t15.5 6t5.5 16v192h147v-204q0 -90 -42.5 -147t-125.5 -57t-125.5 57zM220 641h155v-155h-155v155zM375 641h155v-155h-155v155zM298 776h155v-135h-155v135z" />
    <glyph glyph-name="uni0634.medi" unicode="&#x634;" horiz-adv-x="758" arabic-form="medial" 
d="M366.5 55q-42.5 57 -42.5 147v204h147v-192q0 -10 5.5 -16t15.5 -6t15.5 6t5.5 16v220h147v-232q0 -90 -42.5 -147t-125.5 -57t-125.5 57zM-10 10v174q0 10 10 10h40q10 0 15.5 6t5.5 16v190h147v-202q0 -90 -42.5 -147t-125.5 -57h-40q-10 0 -10 10zM140.5 55
q-42.5 57 -42.5 147v204h147v-192q0 -10 5.5 -16t15.5 -6t15.5 6t5.5 16v192h147v-204q0 -90 -42.5 -147t-125.5 -57t-125.5 57zM592.5 57q-42.5 57 -42.5 147v230h147v-218q0 -10 5.5 -16t15.5 -6h40q10 0 10 -10v-174q0 -10 -10 -10h-40q-83 0 -125.5 57zM221 641h155
v-155h-155v155zM376 641h155v-155h-155v155zM299 776h155v-135h-155v135z" />
    <glyph glyph-name="uni0635.fina" unicode="&#x635;" horiz-adv-x="1352" arabic-form="final" 
d="M202 -118.5q-79 46.5 -125.5 125.5t-46.5 172v187h184v-177q0 -42 22 -79t59 -59t79 -22q44 0 81 22t59 59t22 79v217h178v-227q0 -93 -45 -172t-123 -125.5t-172 -46.5q-93 0 -172 46.5zM690.5 39.5q-56.5 39.5 -86 108t-29.5 152.5v106h147v-134q0 -32 22 -55t52 -23
h256q20 0 34.5 14.5t14.5 34.5q0 23 -14.5 39t-38.5 16q-11 0 -27.5 -7t-45.5 -26l-261 -157l-65 169l254 152q46 27 76.5 39t72.5 12q64 0 119 -32.5t87.5 -88t32.5 -120.5q0 -64 -32.5 -119t-87.5 -87.5t-119 -32.5h-226q-79 0 -135.5 39.5zM1186.5 57q-42.5 57 -42.5 147
v33h147v-21q0 -10 5.5 -16t15.5 -6h40q10 0 10 -10v-174q0 -10 -10 -10h-40q-83 0 -125.5 57z" />
    <glyph glyph-name="uni0635.init" unicode="&#x635;" horiz-adv-x="834" arabic-form="initial" 
d="M213.5 39.5q-56.5 39.5 -86 108t-29.5 152.5v106h147v-134q0 -32 22 -55t52 -23h256q20 0 34.5 14.5t14.5 34.5q0 23 -14.5 39t-38.5 16q-11 0 -27.5 -7t-45.5 -26l-261 -157l-65 169l254 152q46 27 76.5 39t72.5 12q64 0 119 -32.5t87.5 -88t32.5 -120.5
q0 -64 -32.5 -119t-87.5 -87.5t-119 -32.5h-226q-79 0 -135.5 39.5zM-10 10v174q0 10 10 10h40q10 0 15.5 6t5.5 16v190h147v-202q0 -90 -42.5 -147t-125.5 -57h-40q-10 0 -10 10z" />
    <glyph glyph-name="uni0635.medi" unicode="&#x635;" horiz-adv-x="875" arabic-form="medial" 
d="M213.5 39.5q-56.5 39.5 -86 108t-29.5 152.5v106h147v-134q0 -32 22 -55t52 -23h256q20 0 34.5 14.5t14.5 34.5q0 23 -14.5 39t-38.5 16q-11 0 -27.5 -7t-45.5 -26l-261 -157l-65 169l254 152q46 27 76.5 39t72.5 12q64 0 119 -32.5t87.5 -88t32.5 -120.5
q0 -64 -32.5 -119t-87.5 -87.5t-119 -32.5h-226q-79 0 -135.5 39.5zM-10 10v174q0 10 10 10h40q10 0 15.5 6t5.5 16v190h147v-202q0 -90 -42.5 -147t-125.5 -57h-40q-10 0 -10 10zM709.5 57q-42.5 57 -42.5 147v33h147v-21q0 -10 5.5 -16t15.5 -6h40q10 0 10 -10v-174
q0 -10 -10 -10h-40q-83 0 -125.5 57z" />
    <glyph glyph-name="uni0636.fina" unicode="&#x636;" horiz-adv-x="1352" arabic-form="final" 
d="M202 -118.5q-79 46.5 -125.5 125.5t-46.5 172v187h184v-177q0 -42 22 -79t59 -59t79 -22q44 0 81 22t59 59t22 79v217h178v-227q0 -93 -45 -172t-123 -125.5t-172 -46.5q-93 0 -172 46.5zM690.5 39.5q-56.5 39.5 -86 108t-29.5 152.5v106h147v-134q0 -32 22 -55t52 -23
h256q20 0 34.5 14.5t14.5 34.5q0 22 -14.5 37.5t-34.5 15.5q-33 0 -81 -26l-261 -156l-61 163l282 170q24 15 57.5 24t63.5 9q64 0 119 -32.5t87.5 -88t32.5 -120.5q0 -64 -32.5 -119t-87.5 -87.5t-119 -32.5h-226q-79 0 -135.5 39.5zM1186.5 57q-42.5 57 -42.5 147v33h147
v-21q0 -10 5.5 -16t15.5 -6h40q10 0 10 -10v-174q0 -10 -10 -10h-40q-83 0 -125.5 57zM975 705h155v-155h-155v155z" />
    <glyph glyph-name="uni0636.init" unicode="&#x636;" horiz-adv-x="834" arabic-form="initial" 
d="M213.5 39.5q-56.5 39.5 -86 108t-29.5 152.5v106h147v-134q0 -32 22 -55t52 -23h256q20 0 34.5 14.5t14.5 34.5q0 23 -14.5 39t-38.5 16q-11 0 -27.5 -7.5t-45.5 -26.5l-261 -156l-65 169l254 152q46 27 76.5 39t72.5 12q64 0 119 -32.5t87.5 -88t32.5 -120.5
q0 -64 -32.5 -119t-87.5 -87.5t-119 -32.5h-226q-79 0 -135.5 39.5zM-10 10v174q0 10 10 10h40q10 0 15.5 6t5.5 16v190h147v-202q0 -90 -42.5 -147t-125.5 -57h-40q-10 0 -10 10zM496 705h155v-155h-155v155z" />
    <glyph glyph-name="uni0636.medi" unicode="&#x636;" horiz-adv-x="875" arabic-form="medial" 
d="M213.5 39.5q-56.5 39.5 -86 108t-29.5 152.5v106h147v-134q0 -32 22 -55t52 -23h256q21 0 35 16t14 38q0 27 -16 45.5t-41 18.5q-13 0 -31 -7.5t-48 -28.5l-281 -168l-35 169l254 152q46 27 76.5 39t72.5 12q64 0 119 -32.5t87.5 -88t32.5 -120.5q0 -64 -32.5 -119
t-87.5 -87.5t-119 -32.5h-226q-79 0 -135.5 39.5zM-10 10v174q0 10 10 10h40q10 0 15.5 6t5.5 16v190h147v-202q0 -90 -42.5 -147t-125.5 -57h-40q-10 0 -10 10zM709.5 57q-42.5 57 -42.5 147v33h147v-21q0 -10 5.5 -16t15.5 -6h40q10 0 10 -10v-174q0 -10 -10 -10h-40
q-83 0 -125.5 57zM496 705h155v-155h-155v155z" />
    <glyph glyph-name="uni0637.fina" unicode="&#x637;" horiz-adv-x="719" arabic-form="final" 
d="M25 194h394q20 0 34.5 14.5t14.5 34.5q0 23 -14.5 39t-38.5 16q-11 0 -27.5 -7.5t-45.5 -26.5l-205 -120l-86 155l219 130q46 27 76.5 39t72.5 12q64 0 119 -32.5t87.5 -88t32.5 -120.5q0 -64 -32.5 -119t-87.5 -87.5t-119 -32.5h-394v194zM134.5 365q5.5 20 5.5 49v269
h184v-110q0 -112 -35 -142l-177 -96q17 10 22.5 30zM553.5 57q-42.5 57 -42.5 147v35h147v-23q0 -10 5.5 -16t15.5 -6h40q10 0 10 -10v-174q0 -10 -10 -10h-40q-83 0 -125.5 57z" />
    <glyph glyph-name="uni0637.init" unicode="&#x637;" horiz-adv-x="655" arabic-form="initial" 
d="M-10 10v174q0 10 10 10h396q20 0 34.5 14.5t14.5 34.5q0 23 -14.5 39t-38.5 16q-11 0 -27.5 -7.5t-45.5 -26.5l-226 -134l-65 169l219 130q46 27 76.5 39t72.5 12q64 0 119 -32.5t87.5 -88t32.5 -120.5q0 -64 -32.5 -119t-87.5 -87.5t-119 -32.5h-396q-10 0 -10 10z
M111.5 365q5.5 20 5.5 49v269h184v-110q0 -54 -5 -84.5t-22 -45.5l-185 -108q17 10 22.5 30z" />
    <glyph glyph-name="uni0637.medi" unicode="&#x637;" horiz-adv-x="696" arabic-form="medial" 
d="M-10 10v174q0 10 10 10h396q20 0 34.5 14.5t14.5 34.5q0 23 -14.5 39t-38.5 16q-11 0 -27.5 -7.5t-45.5 -26.5l-226 -134l-65 169l219 130q46 27 76.5 39t72.5 12q64 0 119 -32.5t87.5 -88t32.5 -120.5q0 -64 -32.5 -119t-87.5 -87.5t-119 -32.5h-396q-10 0 -10 10z
M111.5 365q5.5 20 5.5 49v270h184v-111q0 -54 -5 -84.5t-22 -45.5l-185 -108q17 10 22.5 30zM530.5 57q-42.5 57 -42.5 147v35h147v-23q0 -10 5.5 -16t15.5 -6h40q10 0 10 -10v-174q0 -10 -10 -10h-40q-83 0 -125.5 57z" />
    <glyph glyph-name="uni0638.fina" unicode="&#x638;" horiz-adv-x="719" arabic-form="final" 
d="M25 194h394q20 0 34.5 14.5t14.5 34.5q0 23 -14.5 39t-38.5 16q-11 0 -27.5 -7.5t-45.5 -26.5l-226 -134l-65 169l219 130q46 27 76.5 39t72.5 12q64 0 119 -32.5t87.5 -88t32.5 -120.5q0 -64 -32.5 -119t-87.5 -87.5t-119 -32.5h-394v194zM134.5 365q5.5 20 5.5 49v269
h184v-110q0 -54 -5 -84.5t-22 -45.5l-185 -108q17 10 22.5 30zM553.5 57q-42.5 57 -42.5 147v35h147v-23q0 -10 5.5 -16t15.5 -6h40q10 0 10 -10v-174q0 -10 -10 -10h-40q-83 0 -125.5 57zM359 705h155v-155h-155v155z" />
    <glyph glyph-name="uni0638.init" unicode="&#x638;" horiz-adv-x="655" arabic-form="initial" 
d="M-10 10v174q0 10 10 10h396q20 0 34.5 14.5t14.5 34.5q0 23 -14.5 39t-38.5 16q-11 0 -27.5 -7.5t-45.5 -26.5l-226 -134l-65 169l219 130q46 27 76.5 39t72.5 12q64 0 119 -32.5t87.5 -88t32.5 -120.5q0 -64 -32.5 -119t-87.5 -87.5t-119 -32.5h-396q-10 0 -10 10z
M111.5 365q5.5 20 5.5 49v269h184v-110q0 -54 -5 -84.5t-22 -45.5l-185 -108q17 10 22.5 30zM339 705h155v-155h-155v155z" />
    <glyph glyph-name="uni0638.medi" unicode="&#x638;" horiz-adv-x="696" arabic-form="medial" 
d="M-10 10v174q0 10 10 10h396q20 0 34.5 14.5t14.5 34.5q0 23 -14.5 39t-38.5 16q-11 0 -27.5 -7.5t-45.5 -26.5l-226 -134l-65 169l219 130q46 27 76.5 39t72.5 12q64 0 119 -32.5t87.5 -88t32.5 -120.5q0 -64 -32.5 -119t-87.5 -87.5t-119 -32.5h-396q-10 0 -10 10z
M111.5 365q5.5 20 5.5 49v270h184v-111q0 -54 -5 -84.5t-22 -45.5l-185 -108q17 10 22.5 30zM530.5 57q-42.5 57 -42.5 147v35h147v-23q0 -10 5.5 -16t15.5 -6h40q10 0 10 -10v-174q0 -10 -10 -10h-40q-83 0 -125.5 57zM336 705h155v-155h-155v155z" />
    <glyph glyph-name="uni0639.fina" unicode="&#x639;" horiz-adv-x="618" arabic-form="final" 
d="M188.5 -393q-71.5 42 -113.5 113.5t-42 156.5q0 77 35 135t96 93t139 46q8 1 20 21q1 2 6 8.5t9 10t7 3.5h273q10 0 10 -10v-174q0 -10 -10 -10h-273q-49 0 -83.5 -35.5t-34.5 -85.5t34.5 -85t83.5 -35h183v-194h-183q-85 0 -156.5 42zM558 142.5q-28 -48.5 -78.5 -75.5
t-114.5 -27h-50q-64 0 -114.5 27t-78.5 75.5t-28 112.5v15h-64v184h285h50h221v-199q0 -64 -28 -112.5zM404 270h-39h-50h-39v-35q0 -18 10.5 -29.5t28.5 -11.5h50q18 0 28.5 11.5t10.5 29.5v35z" />
    <glyph glyph-name="uni0639.init" unicode="&#x639;" horiz-adv-x="456" arabic-form="initial" 
d="M172 65q-57 25 -90.5 72t-33.5 110q0 67 33.5 121t91 84.5t126.5 30.5h110v-181h-110q-26 0 -41.5 -14.5t-15.5 -39.5q0 -26 15 -40t42 -14v-154q-70 0 -127 25zM-10 10v174q0 10 10 10h436v-194h-436q-10 0 -10 10z" />
    <glyph glyph-name="uni0639.medi" unicode="&#x639;" horiz-adv-x="621" arabic-form="medial" 
d="M554 142.5q-28 -48.5 -78.5 -75.5t-114.5 -27h-50q-64 0 -114.5 27t-78.5 75.5t-28 112.5v15h-64v184h285h50h221v-199q0 -64 -28 -112.5zM-10 10v174q0 10 10 10h621q10 0 10 -10v-174q0 -10 -10 -10h-621q-10 0 -10 10zM400 270h-39h-50h-39v-35q0 -18 10.5 -29.5
t28.5 -11.5h50q18 0 28.5 11.5t10.5 29.5v35z" />
    <glyph glyph-name="uni063A.fina" unicode="&#x63a;" horiz-adv-x="618" arabic-form="final" 
d="M188.5 -393q-71.5 42 -113.5 113.5t-42 156.5q0 77 35 135t96 93t139 46q8 1 20 21q1 2 6 8.5t9 10t7 3.5h273q10 0 10 -10v-174q0 -10 -10 -10h-273q-49 0 -83.5 -35.5t-34.5 -85.5t34.5 -85t83.5 -35h183v-194h-183q-85 0 -156.5 42zM200.5 67q-50.5 27 -78.5 75.5
t-28 112.5v15h-64v184h285h50h221v-199q0 -64 -28 -112.5t-78.5 -75.5t-114.5 -27h-50q-64 0 -114.5 27zM393.5 205.5q10.5 11.5 10.5 29.5v35h-39h-50h-39v-35q0 -18 10.5 -29.5t28.5 -11.5h50q18 0 28.5 11.5zM271 689h155v-155h-155v155z" />
    <glyph glyph-name="uni063A.init" unicode="&#x63a;" horiz-adv-x="456" arabic-form="initial" 
d="M222 718h155v-155h-155v155zM172 65q-57 25 -90.5 72t-33.5 110q0 67 33.5 121t91 84.5t126.5 30.5h110v-181h-110q-26 0 -41.5 -14.5t-15.5 -39.5q0 -26 15 -40t42 -14v-154q-70 0 -127 25zM-10 10v174q0 10 10 10h436v-194h-436q-10 0 -10 10z" />
    <glyph glyph-name="uni063A.medi" unicode="&#x63a;" horiz-adv-x="621" arabic-form="medial" 
d="M196.5 67q-50.5 27 -78.5 75.5t-28 112.5v15h-64v184h285h50h221v-199q0 -64 -28 -112.5t-78.5 -75.5t-114.5 -27h-50q-64 0 -114.5 27zM-10 10v174q0 10 10 10h621q10 0 10 -10v-174q0 -10 -10 -10h-621q-10 0 -10 10zM389.5 205.5q10.5 11.5 10.5 29.5v35h-39h-50h-39
v-35q0 -18 10.5 -29.5t28.5 -11.5h50q18 0 28.5 11.5zM262 689h155v-155h-155v155z" />
    <glyph glyph-name="uni0641.fina" unicode="&#x641;" horiz-adv-x="908" arabic-form="final" 
d="M563 691h155v-155h-155v155zM167 37q-63 37 -100 100t-37 137v132h184v-122q0 -37 26.5 -63.5t63.5 -26.5h604q10 0 10 -10v-174q0 -10 -10 -10h-604q-74 0 -137 37zM845.5 124q-31.5 -51 -85 -79t-118.5 -28v0q-65 0 -118.5 28t-85 79t-31.5 116q0 64 31.5 115.5
t85.5 81t118 29.5v0q64 0 118 -29.5t85.5 -81t31.5 -115.5q0 -65 -31.5 -116zM672 261q-11 11 -30 11v0q-19 0 -30 -11t-11 -28q0 -18 11 -28.5t30 -10.5v0q19 0 30 10.5t11 28.5q0 17 -11 28z" />
    <glyph glyph-name="uni0641.init" unicode="&#x641;" horiz-adv-x="472" arabic-form="initial" 
d="M-10 10v174q0 10 10 10h248q20 0 20 21v3h-20v0q-60 0 -110 27t-79.5 73.5t-29.5 103.5q0 61 30 112t80.5 80.5t108.5 29.5v0q58 0 104.5 -29.5t73 -80t26.5 -112.5v-219q0 -55 -27 -101.5t-73 -74t-102 -27.5h-250q-10 0 -10 10zM280 388v41q0 16 -11.5 27.5t-27.5 11.5
v0q-18 0 -29 -11t-11 -28q0 -18 11 -29.5t29 -11.5v0h39zM171 868h155v-155h-155v155z" />
    <glyph glyph-name="uni0641.medi" unicode="&#x641;" horiz-adv-x="523" arabic-form="medial" 
d="M57.5 355.5q31.5 51.5 85.5 81t118 29.5v0q64 0 118 -29.5t85.5 -81t31.5 -115.5q0 -65 -31.5 -116t-85 -79t-118.5 -28v0q-65 0 -118.5 28t-85 79t-31.5 116q0 64 31.5 115.5zM-10 10v174q0 10 10 10h523q10 0 10 -10v-174q0 -10 -10 -10h-523q-10 0 -10 10zM231 204.5
q11 -10.5 30 -10.5v0q19 0 30 10.5t11 28.5q0 17 -11 28t-30 11v0q-19 0 -30 -11t-11 -28q0 -18 11 -28.5zM184 691h155v-155h-155v155z" />
    <glyph glyph-name="uni0642.fina" unicode="&#x642;" horiz-adv-x="746" arabic-form="final" 
d="M202 -292.5q-79 46.5 -125.5 125.5t-46.5 172v187h184v-177q0 -42 22 -79t59 -59t79 -22q44 0 81 22t59 59t22 79v-15h-39v0q-64 0 -118 28.5t-85.5 79t-31.5 113.5q0 64 32 118t85.5 85.5t117.5 31.5v0q63 0 113.5 -31.5t79 -85.5t28.5 -118v-216q0 -93 -46 -172
t-125 -125.5t-173 -46.5q-93 0 -172 46.5zM536 194v37q0 19 -11 30t-28 11v0q-18 0 -29.5 -11t-11.5 -30q0 -16 11.5 -26.5t29.5 -10.5v0h39zM718 194h28q10 0 10 -10v-174q0 -10 -10 -10h-28v194zM342 691h155v-155h-155v155zM497 691h155v-155h-155v155z" />
    <glyph glyph-name="uni0642.init" unicode="&#x642;" horiz-adv-x="472" arabic-form="initial" 
d="M-10 10v174q0 10 10 10h248q20 0 20 21v3h-20v0q-60 0 -110 27t-79.5 73.5t-29.5 103.5q0 61 30 112t80.5 80.5t108.5 29.5v0q58 0 104.5 -29.5t73 -80t26.5 -112.5v-219q0 -55 -27 -101.5t-73 -74t-102 -27.5h-250q-10 0 -10 10zM280 388v41q0 16 -11.5 27.5t-27.5 11.5
v0q-18 0 -29 -11t-11 -28q0 -18 11 -29.5t29 -11.5v0h39zM93 879h155v-155h-155v155zM248 879h155v-155h-155v155z" />
    <glyph glyph-name="uni0642.medi" unicode="&#x642;" horiz-adv-x="521" arabic-form="medial" 
d="M61.5 355.5q31.5 51.5 85.5 81t118 29.5v0q64 0 118 -29.5t85.5 -81t31.5 -115.5q0 -65 -31.5 -116t-85 -79t-118.5 -28v0q-65 0 -118.5 28t-85 79t-31.5 116q0 64 31.5 115.5zM-10 10v174q0 10 10 10h521q10 0 10 -10v-174q0 -10 -10 -10h-521q-10 0 -10 10zM235 204.5
q11 -10.5 30 -10.5v0q19 0 30 10.5t11 28.5q0 17 -11 28t-30 11v0q-19 0 -30 -11t-11 -28q0 -18 11 -28.5zM108 701h155v-155h-155v155zM263 701h155v-155h-155v155z" />
    <glyph glyph-name="uni0643.fina" unicode="&#x643;" horiz-adv-x="888" arabic-form="final" 
d="M167 37q-63 37 -100 100t-37 137v132h184v-122q0 -37 26.5 -63.5t63.5 -26.5h300q18 0 28.5 11.5t10.5 29.5v448h189v-448q0 -64 -30 -118t-82.5 -85.5t-115.5 -31.5h-300q-74 0 -137 37zM722.5 57q-42.5 57 -42.5 147v479h147v-467q0 -10 5.5 -16t15.5 -6h40
q10 0 10 -10v-174q0 -10 -10 -10h-40q-83 0 -125.5 57zM295 380l157 56q10 5 10 14q0 12 -12 15l-167 43l-47 83l231 170l59 -100l-90 -68l24 -7q92 -27 113 -86q9 -27 9 -53q0 -47 -26 -84.5t-72 -54.5l-143 -53z" />
    <glyph glyph-name="uni0643.init" unicode="&#x643;" horiz-adv-x="477" arabic-form="initial" 
d="M0 194h229q18 0 31 11t13 33t-23 36l-217 145v136l204 217l126 -120l-136 -141l136 -90q45 -29 69.5 -79t24.5 -108q0 -64 -31 -117.5t-83.5 -85t-115.5 -31.5h-227q-10 0 -10 10v174q0 10 10 10z" />
    <glyph glyph-name="uni0643.medi" unicode="&#x643;" horiz-adv-x="518" arabic-form="medial" 
d="M-10 10v174q0 10 10 10h229q18 0 31 11t13 33t-23 36l-217 145v136l204 217l126 -120l-136 -141l136 -90q45 -29 69.5 -79t24.5 -108q0 -64 -31 -117.5t-83.5 -85t-115.5 -31.5h-227q-10 0 -10 10zM352.5 57q-42.5 57 -42.5 147v30h147v-18q0 -22 21 -22h40q10 0 10 -10
v-174q0 -10 -10 -10h-40q-83 0 -125.5 57z" />
    <glyph glyph-name="uni0644.fina" unicode="&#x644;" horiz-adv-x="783" arabic-form="final" 
d="M202 -118.5q-79 46.5 -125.5 125.5t-46.5 172v187h184v-177q0 -42 22 -79t59 -59t79 -22q44 0 81 22t59 59t22 79v494h178v-504q0 -93 -45 -172t-123 -125.5t-172 -46.5q-93 0 -172 46.5zM660 26q-28 26 -36.5 69t-8.5 109v479h107v-467q0 -10 5.5 -16t15.5 -6h40
q10 0 10 -10v-174q0 -10 -10 -10h-40q-55 0 -83 26z" />
    <glyph glyph-name="uni0644.init" unicode="&#x644;" horiz-adv-x="267" arabic-form="initial" 
d="M-10 10v174q0 10 10 10h38q8 0 14 6t6 15v468h184v-480q0 -55 -27 -101.5t-73 -74t-102 -27.5h-40q-10 0 -10 10z" />
    <glyph glyph-name="uni0644.medi" unicode="&#x644;" horiz-adv-x="306" arabic-form="medial" 
d="M-10 10v174q0 10 10 10h40q10 0 15.5 6t5.5 16v467h184v-467q0 -10 5.5 -16t15.5 -6h40q10 0 10 -10v-174q0 -10 -10 -10h-40q-70 0 -113 43q-43 -43 -113 -43h-40q-10 0 -10 10z" />
    <glyph glyph-name="uni0645.fina" unicode="&#x645;" horiz-adv-x="779" arabic-form="final" 
d="M60.5 340q30.5 52 82 83t111.5 31h229v0q64 0 118 -28.5t85.5 -79t31.5 -113.5q0 -64 -31.5 -117.5t-85.5 -85.5t-118 -32v0q-63 0 -113.5 31.5t-79 85.5t-28.5 118v37h-6q-17 0 -29.5 -13t-12.5 -30v-478h-184v478q0 61 30.5 113zM513 203.5q11 11.5 11 29.5
q0 17 -11 28t-30 11v0h-39v-39q0 -18 10.5 -29.5t28.5 -11.5v0q19 0 30 11.5zM613.5 57q-42.5 57 -42.5 147v29h147v-17q0 -10 5.5 -16t15.5 -6h40q10 0 10 -10v-174q0 -10 -10 -10h-40q-83 0 -125.5 57z" />
    <glyph glyph-name="uni0645.init" unicode="&#x645;" horiz-adv-x="569" arabic-form="initial" 
d="M200.5 29.5q-50.5 31.5 -79 85.5t-28.5 118v37h-64v184h285v0q64 0 118 -28.5t85.5 -79t31.5 -113.5q0 -64 -31.5 -117.5t-85.5 -85.5t-118 -32v0q-63 0 -113.5 31.5zM-10 10v174q0 10 10 10h72q10 0 15.5 6t5.5 16v35h147v-47q0 -90 -42.5 -147t-125.5 -57h-72
q-10 0 -10 10zM344 203.5q11 11.5 11 29.5q0 17 -11 27t-30 10v0h-39v-37q0 -18 10.5 -29.5t28.5 -11.5v0q19 0 30 11.5z" />
    <glyph glyph-name="uni0645.medi" unicode="&#x645;" horiz-adv-x="610" arabic-form="medial" 
d="M200.5 29.5q-50.5 31.5 -79 85.5t-28.5 118v37h-64v184h285v0q64 0 118 -28.5t85.5 -79t31.5 -113.5q0 -64 -31.5 -117.5t-85.5 -85.5t-118 -32v0q-63 0 -113.5 31.5zM-10 10v174q0 10 10 10h72q10 0 15.5 6t5.5 16v40h147v-52q0 -90 -42.5 -147t-125.5 -57h-72
q-10 0 -10 10zM344 203.5q11 11.5 11 29.5q0 17 -11 27t-30 10v0h-39v-37q0 -18 10.5 -29.5t28.5 -11.5v0q19 0 30 11.5zM444.5 57q-42.5 57 -42.5 147v29h147v-17q0 -10 5.5 -16t15.5 -6h40q10 0 10 -10v-174q0 -10 -10 -10h-40q-83 0 -125.5 57z" />
    <glyph glyph-name="uni0646.fina" unicode="&#x646;" horiz-adv-x="783" arabic-form="final" 
d="M202 -118.5q-79 46.5 -125.5 125.5t-46.5 172v187h184v-177q0 -42 22 -79t59 -59t79 -22q44 0 81 22t59 59t22 79v216h178v-226q0 -93 -45 -172t-123 -125.5t-172 -46.5q-93 0 -172 46.5zM293 521h155v-155h-155v155zM660 26q-28 26 -36.5 69t-8.5 109v201h107v-189
q0 -10 5.5 -16t15.5 -6h40q10 0 10 -10v-174q0 -10 -10 -10h-40q-55 0 -83 26z" />
    <glyph glyph-name="uni0646.init" unicode="&#x646;" horiz-adv-x="283" arabic-form="initial" 
d="M-10 10v174q0 10 10 10h59q8 0 14 6t6 15v219h184v-231q0 -55 -27 -101.5t-73 -74t-102 -27.5h-61q-10 0 -10 10zM92 669h155v-155h-155v155z" />
    <glyph glyph-name="uni0646.medi" unicode="&#x646;" horiz-adv-x="326" arabic-form="medial" 
d="M0 194h50q10 0 15.5 6t5.5 16v190h184v-190q0 -10 5.5 -16t15.5 -6h50q10 0 10 -10v-174q0 -10 -10 -10h-50q-36 0 -62.5 8t-50.5 26q-24 -18 -50.5 -26t-62.5 -8h-50q-10 0 -10 10v174q0 10 10 10zM86 641h155v-155h-155v155z" />
    <glyph glyph-name="uni0647.fina" unicode="&#x647;" horiz-adv-x="544" arabic-form="final" 
d="M143.5 62q-54.5 32 -86.5 86t-32 117t32 113.5t86 79t119 28.5v0h39v70h182v-291q0 -64 -28.5 -118t-79 -85.5t-113.5 -31.5v0q-64 0 -118.5 32zM290.5 235.5q10.5 11.5 10.5 29.5v37h-39v0q-19 0 -30 -10t-11 -27q0 -18 11 -29.5t30 -11.5v0q18 0 28.5 11.5zM407 27
q-41 27 -62 73.5t-21 103.5v202h159v-190q0 -10 5.5 -16t15.5 -6h40q10 0 10 -10v-174q0 -10 -10 -10h-40q-56 0 -97 27z" />
    <glyph glyph-name="uni0647.init" unicode="&#x647;" horiz-adv-x="790" arabic-form="initial" 
d="M318 194q16 0 26.5 11.5t10.5 25.5t-10.5 25.5t-26.5 11.5q-18 0 -27.5 -11t-9.5 -26q0 -17 10.5 -27t26.5 -10h217q19 0 30 9.5t11 27.5q0 17 -11 27t-30 10h-503v184h503q64 0 118 -28.5t85.5 -79t31.5 -113.5t-32.5 -116t-86.5 -84t-116 -31h-229q-70 0 -118.5 35
t-71.5 88.5t-23 107.5q0 47 28 95t79.5 80t117.5 32q82 0 125 -42t56.5 -89.5t13.5 -75.5q0 -82 -32 -133.5t-79 -74.5t-96 -23h-308l2 194h318z" />
    <glyph glyph-name="uni0647.medi" unicode="&#x647;" horiz-adv-x="553" arabic-form="medial" 
d="M0 194h28v37q0 64 28.5 118t79 85.5t113.5 31.5q64 0 118 -32t85.5 -85.5t31.5 -117.5q0 -63 -31.5 -116t-85.5 -84t-118 -31h-37v-26q0 -20 14 -34.5t34 -14.5h255v-182h-257q-61 0 -114 31.5t-84.5 84.5t-31.5 115v26h-28q-10 0 -10 10v174q0 10 10 10zM315.5 77.5
q27.5 53.5 78 85t114.5 31.5h45q10 0 10 -10v-174q0 -10 -10 -10h-61q-18 0 -27.5 -11t-9.5 -30v-193h-167v193q0 65 27.5 118.5zM279 204q11 10 11 27q0 18 -11 29.5t-30 11.5q-18 0 -28.5 -11.5t-10.5 -29.5v-37h39q19 0 30 10z" />
    <glyph glyph-name="uni0648.fina" unicode="&#x648;" horiz-adv-x="517" arabic-form="final" 
d="M234 -76.5q42 23.5 55 40t13 36.5h-37v0q-64 0 -118 28.5t-85.5 79t-31.5 113.5q0 64 32 118t85.5 85.5t117.5 31.5v0q63 0 113.5 -31.5t79 -85.5t28.5 -118v-139q0 -103 -28 -165.5t-95 -110.5t-199 -104l-57 162q85 36 127 59.5zM265 182h37v39q0 19 -10 30t-27 11v0
q-18 0 -29.5 -11t-11.5 -30q0 -18 11.5 -28.5t29.5 -10.5v0zM476 194h41q10 0 10 -10v-174q0 -10 -10 -10h-41v194z" />
    <glyph glyph-name="uni0649.fina" unicode="&#x649;" horiz-adv-x="789" arabic-form="final" 
d="M30 290h184v-254q0 -37 26.5 -63.5t63.5 -26.5h239q12 0 20 8t8 19t-8 19t-20 8h-210v159h207q97 0 160 -49t63 -137q0 -60 -30 -111t-81 -80.5t-112 -29.5h-236q-74 0 -137 37t-100 100t-37 137v264zM324 0v194h465q10 0 10 -10v-174q0 -10 -10 -10h-465z" />
    <glyph glyph-name="uni064A.fina" unicode="&#x64a;" horiz-adv-x="789" arabic-form="final" 
d="M167 -211q-63 37 -100 100t-37 137v264h184v-254q0 -37 26.5 -63.5t63.5 -26.5h239q12 0 20 8t8 19t-8 19t-20 8h-210v159h207q97 0 160 -49t63 -137q0 -60 -30 -111t-81 -80.5t-112 -29.5h-236q-74 0 -137 37zM241 -328h155v-155h-155v155zM396 -328h155v-155h-155v155z
M324 194h465q10 0 10 -10v-174q0 -10 -10 -10h-465v194z" />
    <glyph glyph-name="uni064A.init" unicode="&#x64a;" horiz-adv-x="362" arabic-form="initial" 
d="M-10 10v174q0 10 10 10h131q8 0 14 6t6 15v219h184v-231q0 -55 -27 -101.5t-73 -74t-102 -27.5h-133q-10 0 -10 10zM26 -80h155v-155h-155v155zM181 -80h155v-155h-155v155z" />
    <glyph glyph-name="uni064A.medi" unicode="&#x64a;" horiz-adv-x="366" arabic-form="medial" 
d="M0 194h70q10 0 15.5 6t5.5 16v190h184v-190q0 -10 5.5 -16t15.5 -6h70q10 0 10 -10v-174q0 -10 -10 -10h-70q-36 0 -62.5 8t-50.5 26q-24 -18 -50.5 -26t-62.5 -8h-70q-10 0 -10 10v174q0 10 10 10zM28 -80h155v-155h-155v155zM183 -80h155v-155h-155v155z" />
    <glyph glyph-name=".notdef" horiz-adv-x="445" 
d="M20 705h405v-705h-405v705zM220.5 300.5q3.5 9.5 5.5 29.5q1 4 1 11t2 17l-34 24l-23 -10q-21 -8 -29.5 -14.5t-24.5 -29.5l-12 -17l81 -60l13 17q17 23 20.5 32.5zM143 372q3 0 23 4q12 3 29 6l13 39l-16 19q-14 17 -22.5 23t-36.5 15l-20 7l-32 -96l20 -7
q30 -10 42 -10zM351 310l-12 17q-16 22 -24 29t-27 15q-21 9 -25 11l-34 -24l3 -29q1 -19 4.5 -28.5t19.5 -32.5l13 -18zM264 445q11 18 13.5 28t2.5 38v21h-101v-21q0 -28 2.5 -38t13.5 -29q1 -2 13 -23h42zM377 387l-31 96l-21 -6q-27 -9 -35.5 -14.5t-21.5 -20.5l-18 -21
l13 -39l23 -5q22 -5 30 -5q14 0 41 9z" />
    <glyph glyph-name=".null" horiz-adv-x="600" 
 />
    <glyph glyph-name="nonmarkingreturn" unicode="&#xd;" horiz-adv-x="600" 
 />
    <glyph glyph-name="space" unicode=" " horiz-adv-x="150" 
 />
    <glyph glyph-name="space" unicode="&#xa0;" horiz-adv-x="150" 
 />
    <glyph glyph-name="exclam" unicode="!" horiz-adv-x="298" 
d="M211 214h-124l-42 516h208zM82 9.5q-29 29.5 -29 67.5q0 40 27.5 68.5t67.5 28.5q44 0 70.5 -28.5t26.5 -68.5q0 -42 -29 -69.5t-68 -27.5q-37 0 -66 29.5z" />
    <glyph glyph-name="quotedbl" unicode="&#x22;" horiz-adv-x="489" 
d="M207 430h-160l-15 300h190zM442 430h-160l-15 300h190z" />
    <glyph glyph-name="numbersign" unicode="#" horiz-adv-x="764" 
d="M584 287h121v-150h-140l-17 -137h-160l17 137h-99l-17 -137h-160l17 137h-121v150h140l15 126h-121v150h140l17 137h160l-17 -137h99l17 137h160l-17 -137h121v-150h-140zM325 287h99l15 126h-99z" />
    <glyph glyph-name="dollar" unicode="$" horiz-adv-x="684" 
d="M186 6q-82 20 -141 52l66 164q42 -21 108 -37.5t115 -16.5q48 0 79.5 11t31.5 32q0 18 -19.5 27.5t-66.5 21.5l-49 14q-100 30 -155.5 63.5t-77.5 76t-22 101.5q0 70 39.5 122t109.5 80.5t159 28.5q115 0 250 -50l-65 -168q-106 36 -187 36q-50 0 -81 -13t-31 -36
q0 -16 11.5 -25.5t35 -17t83.5 -22.5q105 -26 162 -60t77.5 -73t20.5 -88q0 -74 -38 -129t-105.5 -84.5t-154.5 -29.5q-73 0 -155 20zM291 19h141v-107h-141v107zM291 820h141v-109h-141v109z" />
    <glyph glyph-name="percent" unicode="%" horiz-adv-x="930" 
d="M81.5 392.5q-51.5 52.5 -51.5 142.5q0 89 51 142t135 53q85 0 135.5 -53.5t50.5 -141.5q0 -90 -51.5 -142.5t-134.5 -52.5t-134.5 52.5zM303 0h-169l498 730h169zM249.5 473q10.5 25 10.5 62q0 40 -10.5 63.5t-33.5 23.5t-33.5 -25t-10.5 -62q0 -40 10.5 -63.5
t33.5 -23.5t33.5 25zM579.5 42.5q-51.5 52.5 -51.5 142.5q0 89 51 142t135 53q85 0 135.5 -53.5t50.5 -141.5q0 -90 -51.5 -142.5t-134.5 -52.5t-134.5 52.5zM747.5 123q10.5 25 10.5 62q0 40 -10.5 63.5t-33.5 23.5t-33.5 -25t-10.5 -62q0 -40 10.5 -63.5t33.5 -23.5
t33.5 25z" />
    <glyph glyph-name="ampersand" unicode="&#x26;" horiz-adv-x="777" 
d="M181.5 8q-60.5 24 -95.5 70t-35 109q0 44 16 76.5t43 56t71 52.5q-31 32 -52.5 74.5t-21.5 76.5q0 60 33 102.5t89.5 64.5t124.5 22q100 0 163.5 -46.5t63.5 -130.5q0 -53 -29 -95t-90 -76l86 -71q32 39 67 94l120 -72q-38 -65 -90 -125l89 -77l-109 -123l-90 80
q-49 -32 -77 -48t-63.5 -27t-76.5 -11q-76 0 -136.5 24zM417 169l-131 112q-44 -29 -44 -69q0 -27 26 -43.5t67 -16.5q43 0 82 17zM386.5 500q15.5 14 15.5 30t-13 26t-34 10q-25 0 -39.5 -11t-14.5 -29q0 -13 8 -24.5t30 -31.5q32 16 47.5 30z" />
    <glyph glyph-name="quotesingle" unicode="'" horiz-adv-x="254" 
d="M207 430h-160l-15 300h190z" />
    <glyph glyph-name="parenleft" unicode="(" horiz-adv-x="391" 
d="M94 16.5q-34 120.5 -34 257.5t34 257.5t99 210.5l153 -68q-47 -100 -69.5 -198t-22.5 -202t22.5 -202t69.5 -198l-153 -68q-65 90 -99 210.5z" />
    <glyph glyph-name="parenright" unicode=")" horiz-adv-x="391" 
d="M114.5 72q22.5 98 22.5 202t-22.5 202t-69.5 198l153 68q65 -90 99 -210.5t34 -257.5t-34 -257.5t-99 -210.5l-153 68q47 100 69.5 198z" />
    <glyph glyph-name="asterisk" unicode="*" horiz-adv-x="554" 
d="M289.5 337q-6.5 17 -8.5 53l-4 47l58 42q22 -10 45 -20q31 -14 45 -25.5t42 -49.5l22 -30l-142 -104l-22 30q-29 40 -35.5 57zM427 461q-12 0 -44 7q-45 11 -48 11l-22 69l33 36q23 26 37.5 35.5t60.5 24.5l36 11l54 -167l-35 -11q-48 -16 -72 -16zM217 589
q-18 31 -22.5 48.5t-4.5 65.5v37h176v-37q0 -48 -5 -66t-24 -49l-24 -40h-72q-18 33 -24 41zM20 490l55 167l35 -11q33 -11 48.5 -18t25.5 -16t27 -30l30 -34l-22 -69l-49 -10q-30 -7 -42 -7q-21 0 -73 17zM63 355l22 30q29 39 43.5 50.5t48.5 25.5q7 3 17.5 7t24.5 11
l58 -42q-2 -15 -5 -48q-3 -35 -10 -52t-35 -56l-22 -29z" />
    <glyph glyph-name="plus" unicode="+" horiz-adv-x="620" 
d="M220 265h-165v170h165v160h180v-160h165v-170h-165v-160h-180v160z" />
    <glyph glyph-name="comma" unicode="," horiz-adv-x="323" 
d="M130 -3q-19 0 -37.5 13.5t-30.5 35t-12 45.5q0 47 32.5 80t79.5 33q51 0 82 -33t31 -77q0 -59 -31 -131.5t-97 -153.5l-102 69q39 48 85 119z" />
    <glyph glyph-name="hyphen" unicode="-" horiz-adv-x="390" 
d="M45 374h300v-170h-300v170z" />
    <glyph glyph-name="period" unicode="." horiz-adv-x="322" 
d="M106.5 -4.5q-25.5 15.5 -41 41.5t-15.5 55q0 46 32 79t78 33q50 0 81 -33.5t31 -78.5q0 -48 -33.5 -80t-78.5 -32q-28 0 -53.5 15.5z" />
    <glyph glyph-name="slash" unicode="/" horiz-adv-x="466" 
d="M185 -100h-195l291 830h195z" />
    <glyph glyph-name="zero" unicode="0" horiz-adv-x="597" 
d="M46.5 554.5q27.5 85.5 89.5 138t160 52.5q96 0 159.5 -53t93 -139t29.5 -187q0 -98 -30.5 -185t-94 -141.5t-157.5 -54.5t-156 55.5t-91.5 142.5t-29.5 183q0 103 27.5 188.5zM225.5 255q12.5 -45 32.5 -67t42 -22q36 0 60 50.5t24 148.5t-24.5 148.5t-59.5 50.5
q-23 0 -42.5 -21.5t-32 -66.5t-12.5 -111q0 -65 12.5 -110z" />
    <glyph glyph-name="one" unicode="1" horiz-adv-x="421" 
d="M371 0h-194v460l-61 -50l-106 144l199 176h162v-730z" />
    <glyph glyph-name="two" unicode="2" horiz-adv-x="580" 
d="M58 167l167 163q52 51 81 92t29 73q0 53 -43 53q-29 0 -37 -20.5t-8 -50.5v-11h-198l1 16q0 126 62.5 194t181.5 68q108 0 172 -62t64 -181q0 -54 -16.5 -97t-43 -78t-71.5 -82l-63 -66h192v-178h-472z" />
    <glyph glyph-name="three" unicode="3" horiz-adv-x="597" 
d="M182.5 18.5q-60.5 33.5 -95.5 90.5t-35 125v1h194v-1q0 -28 20 -48t48 -20t48.5 20t20.5 48q0 29 -20 49t-49 20q-16 0 -31 -3.5t-32.5 -9t-25.5 -8.5l-53 143q64 39 142 39q73 0 133 -28.5t95 -81t35 -120.5t-35 -125t-95.5 -90.5t-132.5 -33.5q-71 0 -131.5 33.5z
M126 418l171 134h-215v178h438v-185l-295 -263z" />
    <glyph glyph-name="four" unicode="4" horiz-adv-x="581" 
d="M497 114v-114h-194v114h-273v164l190 452h277v-438h69v-178h-69zM303 476l-76 -184h76v184z" />
    <glyph glyph-name="five" unicode="5" horiz-adv-x="587" 
d="M170.5 18.5q-60.5 33.5 -95.5 90.5t-35 125h194q0 -28 20 -48t48 -20t48.5 20t20.5 48q0 29 -20 49t-49 20q-15 0 -32 -4t-35 -10l-75 136q64 39 142 39q73 0 133 -28.5t95 -81t35 -120.5t-35 -125t-95.5 -90.5t-132.5 -33.5q-71 0 -131.5 33.5zM45 328l41 402h406v-178
h-232l-25 -263z" />
    <glyph glyph-name="six" unicode="6" horiz-adv-x="609" 
d="M160 28q-65 43 -100 122t-35 185q0 201 78 304.5t220 103.5q60 0 112.5 -26t88.5 -74.5t49 -112.5l-168 -23q-13 29 -35.5 43.5t-48.5 14.5q-38 0 -64 -28t-26 -71q20 10 44.5 16t46.5 6q71 0 131 -27.5t95.5 -80t35.5 -123.5q0 -74 -36.5 -136.5t-99 -99t-135.5 -36.5
q-88 0 -153 43zM366 185.5q24 22.5 24 53.5q0 32 -24 54.5t-58 22.5t-57.5 -22.5t-23.5 -54.5q0 -31 23.5 -53.5t57.5 -22.5t58 22.5z" />
    <glyph glyph-name="seven" unicode="7" horiz-adv-x="482" 
d="M226 0h-208l248 552h-256v178h462v-184z" />
    <glyph glyph-name="eight" unicode="8" horiz-adv-x="563" 
d="M148.5 18.5q-60.5 33.5 -95.5 90.5t-35 125t35 120.5t95 81t133 28.5t133 -28.5t95 -81t35 -120.5t-35 -125t-95.5 -90.5t-132.5 -33.5t-132.5 33.5zM329.5 186q20.5 20 20.5 48q0 29 -20 49t-49 20q-28 0 -48.5 -20t-20.5 -49q0 -28 20.5 -48t48.5 -20t48.5 20zM165 350
q-53 25 -83.5 71t-30.5 105t31 109.5t83.5 79.5t115.5 29t115.5 -29t83.5 -79.5t31 -109.5t-30.5 -105t-83.5 -71t-116 -25t-116 25zM314 481q14 14 14 34t-14 34t-33 14t-33 -14t-14 -34t14 -34t33 -14t33 14z" />
    <glyph glyph-name="nine" unicode="9" horiz-adv-x="609" 
d="M173.5 11q-52.5 26 -88.5 74.5t-49 112.5l168 23q13 -29 35.5 -43.5t48.5 -14.5q38 0 64 28t26 71q-20 -10 -44.5 -16t-46.5 -6q-71 0 -131 27.5t-95.5 80t-35.5 123.5q0 74 36.5 136.5t99 99t135.5 36.5q88 0 153 -43t100 -122t35 -185q0 -201 -78 -304.5t-220 -103.5
q-60 0 -112.5 26zM358.5 434.5q23.5 22.5 23.5 54.5q0 31 -23.5 53.5t-57.5 22.5t-58 -22.5t-24 -53.5q0 -32 24 -54.5t58 -22.5t57.5 22.5z" />
    <glyph glyph-name="colon" unicode=":" horiz-adv-x="322" 
d="M106.5 286.5q-25.5 15.5 -41 41.5t-15.5 55q0 46 32 79t78 33q50 0 81 -33.5t31 -78.5q0 -48 -33.5 -80t-78.5 -32q-28 0 -53.5 15.5zM106.5 -4.5q-25.5 15.5 -41 41.5t-15.5 55q0 46 32 79t78 33q50 0 81 -33.5t31 -78.5q0 -48 -33.5 -80t-78.5 -32q-28 0 -53.5 15.5z
" />
    <glyph glyph-name="semicolon" unicode=";" horiz-adv-x="323" 
d="M130 -3q-19 0 -37.5 13.5t-30.5 35t-12 45.5q0 47 32.5 80t79.5 33q51 0 82 -33t31 -77q0 -59 -31 -131.5t-97 -153.5l-102 69q39 48 85 119zM106.5 286.5q-25.5 15.5 -41 41.5t-15.5 55q0 46 32 79t78 33q50 0 81 -33.5t31 -78.5q0 -48 -33.5 -80t-78.5 -32
q-28 0 -53.5 15.5z" />
    <glyph glyph-name="less" unicode="&#x3c;" horiz-adv-x="570" 
d="M262 350l253 -104v-170l-460 185v178l460 185v-170z" />
    <glyph glyph-name="equal" unicode="=" horiz-adv-x="620" 
d="M55 565h510v-170h-510v170zM55 305h510v-170h-510v170z" />
    <glyph glyph-name="greater" unicode="&#x3e;" horiz-adv-x="570" 
d="M55 246l253 104l-253 104v170l460 -185v-178l-460 -185v170z" />
    <glyph glyph-name="question" unicode="?" horiz-adv-x="452" 
d="M160 305q7 36 35 79l19 28q24 33 37.5 58t13.5 48q0 29 -19.5 48.5t-48.5 19.5q-20 0 -36 -11t-25 -28l-12 -27l-114 43q8 50 38 90.5t75.5 64t97.5 23.5q58 0 105 -27t74 -74t27 -105q0 -41 -18 -82t-61 -91q-29 -34 -48.5 -74t-20.5 -74h-125q-1 55 6 91zM150 9.5
q-29 29.5 -29 67.5q0 40 27.5 68.5t67.5 28.5q44 0 70.5 -28.5t26.5 -68.5q0 -42 -29 -69.5t-68 -27.5q-37 0 -66 29.5z" />
    <glyph glyph-name="at" unicode="@" horiz-adv-x="1037" 
d="M267.5 -151.5q-112.5 58.5 -175.5 163.5t-63 241q0 135 64.5 240t178 163t255.5 58q135 0 245 -55t173 -153.5t63 -224.5q0 -83 -28 -149t-81.5 -103.5t-125.5 -37.5q-55 0 -88.5 18t-53.5 51q-4 6 -9 15.5t-7 14.5q-23 -46 -61.5 -72.5t-90.5 -26.5q-60 0 -108.5 34
t-76 91t-27.5 124q0 69 27 125.5t75.5 89.5t109.5 33q80 0 123 -49v40h189v-286q0 -27 11 -41t31 -14q30 0 40.5 40t10.5 100q0 93 -44 163t-122 108t-175 38q-100 0 -178 -43t-121.5 -119t-43.5 -172q0 -98 43 -174.5t120 -119t176 -42.5q103 0 202 44l42 -123
q-45 -22 -111.5 -35t-132.5 -13q-143 0 -255.5 58.5zM567 186q23 23 23 55t-23 55t-55 23q-33 0 -55.5 -23t-22.5 -55t22.5 -55t55.5 -23q32 0 55 23z" />
    <glyph glyph-name="A" unicode="A" horiz-adv-x="749" 
d="M262 730h204l-254 -730h-204zM283 730h204l254 -730h-204zM243 281h269v-178h-269v178z" />
    <glyph glyph-name="B" unicode="B" horiz-adv-x="642" 
d="M52 730h309q60 0 111.5 -29.5t81.5 -80.5t30 -112q0 -78 -54 -124q82 -48 82 -149q0 -64 -31.5 -118t-85.5 -85.5t-118 -31.5h-325v730zM403.5 198.5q14.5 14.5 14.5 36.5q0 19 -15 34.5t-36 15.5h-121v-101h121q22 0 36.5 14.5zM377 476q13 13 13 32t-13 31.5t-32 12.5
h-99v-89h99q19 0 32 13z" />
    <glyph glyph-name="C" unicode="C" horiz-adv-x="781" 
d="M215.5 37q-83.5 51 -132 138.5t-48.5 190.5t48.5 190.5t132 138.5t181.5 51q84 0 158 -38.5t125 -106t69 -151.5l-166 -21q-18 58 -66 95.5t-107 37.5q-49 0 -90.5 -26.5t-66 -71.5t-24.5 -98t24.5 -98t66 -71.5t90.5 -26.5q59 0 107 37.5t66 95.5l166 -20
q-18 -84 -69 -152t-125 -106.5t-158 -38.5q-98 0 -181.5 51z" />
    <glyph glyph-name="D" unicode="D" horiz-adv-x="697" 
d="M40 730h257q99 0 183 -49t133 -133t49 -183t-49 -183t-133 -133t-183 -49h-257v730zM373.5 199.5q43.5 25.5 69 69.5t25.5 96t-25.5 96t-69 69.5t-96.5 25.5h-43v-382h43q53 0 96.5 25.5z" />
    <glyph glyph-name="E" unicode="E" horiz-adv-x="575" 
d="M40 730h515l1 -178h-321v-105h282v-164h-282v-105h320v-178h-515v730z" />
    <glyph glyph-name="F" unicode="F" horiz-adv-x="541" 
d="M40 730h491v-178h-296v-105h262v-164h-262v-283h-195v730z" />
    <glyph glyph-name="G" unicode="G" horiz-adv-x="763" 
d="M200.5 37q-83.5 51 -132 138.5t-48.5 190.5t48.5 190.5t132 138.5t181.5 51q111 0 201.5 -65t131.5 -169l-157 -56q-23 48 -66.5 77t-96.5 29q-49 0 -90.5 -26.5t-66 -71.5t-24.5 -98t24.5 -98t66 -71.5t90.5 -26.5q59 0 107 37.5t66 95.5l175 63q0 -103 -48.5 -190.5
t-131.5 -138.5t-181 -51t-181.5 51zM333 419h410v-53l-21 -101h-389v154z" />
    <glyph glyph-name="H" unicode="H" horiz-adv-x="724" 
d="M490 0v283h-256v-283h-194v730h194v-283h256v283h194v-730h-194z" />
    <glyph glyph-name="I" unicode="I" horiz-adv-x="274" 
d="M40 0v730h194v-730h-194z" />
    <glyph glyph-name="J" unicode="J" horiz-adv-x="270" 
d="M-80 -45h71q21 0 33 12t12 31v732h194v-725q0 -62 -29.5 -114.5t-80 -83t-109.5 -30.5h-91v178z" />
    <glyph glyph-name="K" unicode="K" horiz-adv-x="696" 
d="M681 730l-457 -548l-10 286l219 262h248zM234 730v-730h-194v730h194zM417 430l274 -430h-226l-236 372z" />
    <glyph glyph-name="L" unicode="L" horiz-adv-x="500" 
d="M485 0h-445v730h194v-552h251v-178z" />
    <glyph glyph-name="M" unicode="M" horiz-adv-x="878" 
d="M40 730h289l110 -430l110 430h289v-730h-184v455l-121 -374h-188l-121 374v-455h-184v730z" />
    <glyph glyph-name="N" unicode="N" horiz-adv-x="726" 
d="M404 0l-180 449v-449h-184v730h253l209 -519v519h184v-730h-282z" />
    <glyph glyph-name="O" unicode="O" horiz-adv-x="833" 
d="M225.5 37q-87.5 51 -139 138.5t-51.5 191.5q0 103 51.5 190t139 138t191.5 51q103 0 190.5 -51t139 -138t51.5 -190q0 -104 -51.5 -191.5t-139 -138.5t-190.5 -51q-104 0 -191.5 51zM511 196.5q43 26.5 68 71.5t25 99q0 53 -25 97.5t-68 71t-94 26.5q-52 0 -95.5 -26.5
t-69 -71t-25.5 -97.5q0 -54 25.5 -99t69 -71.5t95.5 -26.5q51 0 94 26.5z" />
    <glyph glyph-name="P" unicode="P" horiz-adv-x="614" 
d="M40 730h278q73 0 135.5 -36.5t99 -99t36.5 -135.5q0 -74 -36.5 -136.5t-99 -99t-135.5 -36.5h-84v-187h-194v730zM234 365h71q36 0 63 28t27 66q0 37 -27 65t-63 28h-71v-187z" />
    <glyph glyph-name="Q" unicode="Q" horiz-adv-x="833" 
d="M225.5 37q-87.5 51 -139 138.5t-51.5 191.5q0 103 51.5 190t139 138t191.5 51q103 0 190.5 -51t139 -138t51.5 -190q0 -104 -51.5 -191.5t-139 -138.5t-190.5 -51q-104 0 -191.5 51zM446 -22.5q-12 8.5 -29 8.5l24 59q61 0 101 -4t72 -20.5t43 -50.5l21 -56l-177 -56
l-35 90q-8 21 -20 29.5zM511 196.5q43 26.5 68 71.5t25 99q0 53 -25 97.5t-68 71t-94 26.5q-52 0 -95.5 -26.5t-69 -71t-25.5 -97.5q0 -54 25.5 -99t69 -71.5t95.5 -26.5q51 0 94 26.5z" />
    <glyph glyph-name="R" unicode="R" horiz-adv-x="643" 
d="M40 730h278q73 0 135.5 -36.5t99 -99t36.5 -135.5t-36 -128t-98 -85t-137 -30h-84v-216h-194v730zM354 188.5q-8 11.5 -24 19t-44 7.5h-82v90h71h69q61 0 96.5 -7.5t63 -33.5t49.5 -81l75 -183h-192l-65 155q-9 22 -17 33.5zM368 393q27 28 27 66q0 37 -27 65t-63 28h-71
v-187h71q36 0 63 28z" />
    <glyph glyph-name="S" unicode="S" horiz-adv-x="632" 
d="M161 6q-82 20 -141 52l66 164q42 -21 108 -37.5t115 -16.5q48 0 79.5 11t31.5 32q0 18 -19.5 27.5t-66.5 21.5l-49 14q-100 30 -155.5 63.5t-77.5 76t-22 101.5q0 70 39.5 122t109.5 80.5t159 28.5q115 0 250 -50l-65 -168q-106 36 -187 36q-50 0 -81 -13t-31 -36
q0 -16 11.5 -25.5t35 -17t83.5 -22.5q105 -26 162 -60t77.5 -73t20.5 -88q0 -74 -38 -129t-105.5 -84.5t-154.5 -29.5q-73 0 -155 20z" />
    <glyph glyph-name="T" unicode="T" horiz-adv-x="568" 
d="M185 552h-176v178h550v-178h-180v-552h-194v552z" />
    <glyph glyph-name="U" unicode="U" horiz-adv-x="684" 
d="M190.5 34.5q-69.5 40.5 -110 110t-40.5 151.5v434h194v-444q0 -44 32 -76t76 -32t76 32t32 76v444h194v-434q0 -82 -40.5 -151.5t-110 -110t-151.5 -40.5t-151.5 40.5z" />
    <glyph glyph-name="V" unicode="V" horiz-adv-x="658" 
d="M193 0l-185 730h198l123 -522l124 522h197l-185 -730h-272z" />
    <glyph glyph-name="W" unicode="W" horiz-adv-x="936" 
d="M8 730h190l56 -536l95 474h238l95 -474l56 536h190l-117 -730h-262l-81 497l-81 -497h-262z" />
    <glyph glyph-name="X" unicode="X" horiz-adv-x="708" 
d="M234 0l466 730h-226l-466 -730h226zM700 0l-466 730h-226l466 -730h226z" />
    <glyph glyph-name="Y" unicode="Y" horiz-adv-x="634" 
d="M217 256l-209 474h208l96 -240l104 240h210l-215 -474v-256h-194v256z" />
    <glyph glyph-name="Z" unicode="Z" horiz-adv-x="592" 
d="M572 0h-552v215l328 337h-328v178h552v-215l-325 -337h324z" />
    <glyph glyph-name="bracketleft" unicode="[" horiz-adv-x="398" 
d="M57 742h311v-170h-117v-596h117v-170h-311v936z" />
    <glyph glyph-name="backslash" unicode="\" horiz-adv-x="471" 
d="M-10 730h200l291 -830h-200z" />
    <glyph glyph-name="bracketright" unicode="]" horiz-adv-x="398" 
d="M30 -194v170h117v596h-117v170h311v-936h-311z" />
    <glyph glyph-name="asciicircum" unicode="^" horiz-adv-x="620" 
d="M310 390l-104 -251h-170l185 422h178l185 -422h-170z" />
    <glyph glyph-name="underscore" unicode="_" horiz-adv-x="500" 
d="M500 -170h-500v170h500v-170z" />
    <glyph glyph-name="a" unicode="a" horiz-adv-x="643" 
d="M165.5 23.5q-64.5 38.5 -102.5 103t-38 140.5q0 75 38 139.5t102.5 102.5t140.5 38q106 0 158 -78.5t52 -202.5t-52 -202.5t-158 -78.5q-76 0 -140.5 38.5zM390 195q29 29 29 71t-29 71t-71 29t-71 -29t-29 -71t29 -71t71 -29t71 29zM453 176l-34 -16v228h194v-388h-160
v176zM419 372l34 -16v176h160v-388h-194v228z" />
    <glyph glyph-name="b" unicode="b" horiz-adv-x="653" 
d="M189 63.5q-52 78.5 -52 202.5t52 202.5t158 78.5q76 0 140.5 -38t102.5 -102.5t38 -139.5q0 -76 -38 -140.5t-102.5 -103t-140.5 -38.5q-106 0 -158 78.5zM40 760h194v-672l-34 14v-102h-160v760zM405 195q29 29 29 71t-29 71t-71 29t-71 -29t-29 -71t29 -71t71 -29
t71 29z" />
    <glyph glyph-name="c" unicode="c" horiz-adv-x="603" 
d="M165.5 23.5q-64.5 38.5 -102.5 103t-38 140.5q0 75 38 139.5t102.5 102.5t140.5 38q69 0 127 -29.5t96 -80.5t49 -114l-166 -23q-11 29 -37 47.5t-56 18.5q-42 0 -71 -29t-29 -71t29 -71t71 -29q30 0 56 18.5t37 47.5l166 -23q-11 -63 -49 -114t-96 -80.5t-127 -29.5
q-76 0 -140.5 38.5z" />
    <glyph glyph-name="d" unicode="d" horiz-adv-x="653" 
d="M165.5 23.5q-64.5 38.5 -102.5 103t-38 140.5q0 75 38 139.5t102.5 102.5t140.5 38q106 0 158 -78.5t52 -202.5t-52 -202.5t-158 -78.5q-76 0 -140.5 38.5zM390 195q29 29 29 71t-29 71t-71 29t-71 -29t-29 -71t29 -71t71 -29t71 29zM453 102l-34 -14v672h194v-760h-160
v102z" />
    <glyph glyph-name="e" unicode="e" horiz-adv-x="598" 
d="M170.5 23.5q-64.5 38.5 -102.5 103.5t-38 140t38 139.5t102.5 102.5t140.5 38q78 0 139 -38t94.5 -102.5t33.5 -140.5q0 -41 -6 -73h-357q16 -24 41 -37.5t58 -13.5q31 0 51.5 5.5t39.5 20.5l140 -74q-40 -53 -101 -81t-133 -28q-76 0 -140.5 38.5zM371 370.5
q-26 14.5 -57 14.5t-57 -14.5t-42 -38.5h198q-16 24 -42 38.5z" />
    <glyph glyph-name="f" unicode="f" horiz-adv-x="459" 
d="M319 0h-194v354h-110v178h304v-532zM152.5 684.5q27.5 46.5 74.5 73t102 26.5h120v-169h-108q-10 0 -16 -6t-6 -18v-59h110v-178h-304v228q0 56 27.5 102.5z" />
    <glyph glyph-name="g" unicode="g" horiz-adv-x="643" 
d="M145 -52h223q31 0 56 24t25 57v417l4 -14v100h160v-501q0 -72 -35 -133.5t-94.5 -97.5t-129.5 -36h-209v184zM165.5 23.5q-64.5 38.5 -102.5 103t-38 140.5q0 75 38 139.5t102.5 102.5t140.5 38q106 0 158 -78.5t52 -202.5t-52 -202.5t-158 -78.5q-76 0 -140.5 38.5z
M390 195q29 29 29 71t-29 71t-71 29t-71 -29t-29 -71t29 -71t71 -29t71 29z" />
    <glyph glyph-name="h" unicode="h" horiz-adv-x="567" 
d="M331 338q-17 17 -41 17q-22 0 -39 -17t-17 -39h-97q0 60 21.5 117.5t64.5 94t105 36.5q61 0 110 -32.5t76.5 -88t27.5 -121.5v-305h-194v299q0 22 -17 39zM40 760h194v-760h-194v760z" />
    <glyph glyph-name="i" unicode="i" horiz-adv-x="264" 
d="M35 532h194v-532h-194v532zM35 712h194v-141h-194v141z" />
    <glyph glyph-name="j" unicode="j" horiz-adv-x="254" 
d="M-50 -26h58q10 0 16 5.5t6 14.5v538h194v-538q0 -56 -27.5 -102.5t-74.5 -73t-102 -26.5h-70v182zM30 712h194v-141h-194v141z" />
    <glyph glyph-name="k" unicode="k" horiz-adv-x="612" 
d="M262 181l129 151l212 -332h-226zM40 760h194v-760h-194v760zM234 398l116 134h237l-353 -404v270z" />
    <glyph glyph-name="l" unicode="l" horiz-adv-x="284" 
d="M145.5 27.5q-48.5 27.5 -77 75.5t-28.5 106v551h194v-563q0 -7 4.5 -11t12.5 -4h18v-182h-18q-57 0 -105.5 27.5z" />
    <glyph glyph-name="m" unicode="m" horiz-adv-x="811" 
d="M579 342q-13 13 -31 13q-17 0 -30 -13t-13 -30l-97 3q0 57 20 110t60 87.5t98 34.5t103.5 -30.5t71 -82.5t25.5 -113v-321h-194v312q0 17 -13 30zM30 532h160v-89h34v-443h-194v532zM298 342q-13 13 -31 13q-17 0 -30 -13t-13 -30l-97 3q0 57 20 110t60 87.5t98 34.5
t103.5 -30.5t71 -82.5t25.5 -113v-321h-194v312q0 17 -13 30z" />
    <glyph glyph-name="n" unicode="n" horiz-adv-x="557" 
d="M321 338q-17 17 -41 17q-22 0 -39 -17t-17 -39h-97q0 60 21.5 117.5t64.5 94t105 36.5q61 0 110 -32.5t76.5 -88t27.5 -121.5v-305h-194v299q0 22 -17 39zM30 532h160v-89h34v-443h-194v532z" />
    <glyph glyph-name="o" unicode="o" horiz-adv-x="638" 
d="M172 23q-68 38 -107.5 102.5t-39.5 141.5q0 76 39.5 140.5t107.5 102t148 37.5t147 -37.5t106.5 -102t39.5 -140.5q0 -77 -39.5 -141.5t-106.5 -102.5t-147 -38t-148 38zM390 195q29 29 29 71t-29 71t-71 29t-71 -29t-29 -71t29 -71t71 -29t71 29z" />
    <glyph glyph-name="p" unicode="p" horiz-adv-x="648" 
d="M184 63.5q-52 78.5 -52 202.5t52 202.5t158 78.5q76 0 140.5 -38.5t102.5 -103t38 -140.5q0 -75 -38 -139.5t-102.5 -102.5t-140.5 -38q-106 0 -158 78.5zM35 532h160v-102l34 14v-642h-194v730zM400 195q29 29 29 71t-29 71t-71 29t-71 -29t-29 -71t29 -71t71 -29t71 29
z" />
    <glyph glyph-name="q" unicode="q" horiz-adv-x="648" 
d="M165.5 23q-64.5 38 -102.5 102.5t-38 139.5q0 76 38 140.5t102.5 103t140.5 38.5q106 0 158 -78.5t52 -202.5t-52 -202.5t-158 -78.5q-76 0 -140.5 38zM390 195q29 29 29 71t-29 71t-71 29t-71 -29t-29 -71t29 -71t71 -29t71 29zM419 444l34 -14v102h160v-730h-194v642z
" />
    <glyph glyph-name="r" unicode="r" horiz-adv-x="402" 
d="M30 532h160v-102l34 14v-444h-194v532zM152 379q25 67 75.5 110t122.5 43h37v-178h-97q-25 0 -45.5 -20t-20.5 -46l-97 -46q0 70 25 137z" />
    <glyph glyph-name="s" unicode="s" horiz-adv-x="557" 
d="M146.5 7.5q-68.5 22.5 -121.5 61.5l81 127q96 -52 186 -52q50 0 50 15q0 7 -12.5 12t-50.5 15q-119 28 -169.5 69t-50.5 114q0 52 29.5 92.5t82.5 63t122 22.5q56 0 113 -16.5t103 -43.5l-66 -135q-81 35 -150 35q-18 0 -30 -5.5t-12 -15.5q0 -9 10 -12t54 -11
q110 -20 164.5 -64.5t54.5 -115.5q0 -82 -65.5 -130t-176.5 -48q-77 0 -145.5 22.5z" />
    <glyph glyph-name="t" unicode="t" horiz-adv-x="486" 
d="M125 352h-110v180h434v-178h-130v-156q0 -9 6 -14.5t16 -5.5h118v-178h-130q-56 0 -102.5 26t-74 71t-27.5 101v154zM125 532v158h194v-158h-194z" />
    <glyph glyph-name="u" unicode="u" horiz-adv-x="557" 
d="M129 17.5q-49 32.5 -76.5 88t-27.5 121.5v305h194v-299q0 -22 17 -39t41 -17q22 0 39 17t17 39h97q0 -60 -21.5 -117.5t-64.5 -94t-105 -36.5q-61 0 -110 32.5zM367 89h-34v443h194v-532h-160v89z" />
    <glyph glyph-name="v" unicode="v" horiz-adv-x="583" 
d="M165 0l-158 532h199l83 -334l88 334h199l-163 -532h-248z" />
    <glyph glyph-name="w" unicode="w" horiz-adv-x="753" 
d="M7 532h188l43 -267l63 245h162l63 -245l33 267h187l-79 -532h-217l-68 247l-67 -247h-214z" />
    <glyph glyph-name="x" unicode="x" horiz-adv-x="600" 
d="M7 532h218l363 -532h-217zM373 532h220l-364 -532h-219z" />
    <glyph glyph-name="y" unicode="y" horiz-adv-x="591" 
d="M59 -62h109q26 0 47.5 16.5t28.5 41.5l143 536h197l-155 -578q-13 -57 -48.5 -103t-87 -72.5t-110.5 -26.5h-124v186zM7 532h196l127 -532h-195z" />
    <glyph glyph-name="z" unicode="z" horiz-adv-x="522" 
d="M492 0h-462v180l207 174h-218v178h485v-178l-200 -176h188v-178z" />
    <glyph glyph-name="braceleft" unicode="{" horiz-adv-x="421" 
d="M296 318q-19 -31 -62 -44q43 -13 62 -44t19 -90v-95q0 -33 18 -51t53 -18h10v-170h-42q-114 0 -173.5 55t-59.5 158v126q0 22 -11 33t-32 11h-33v170h33q21 0 32 11.5t11 32.5v126q0 103 59.5 158t173.5 55h42v-170h-10q-35 0 -53 -18t-18 -51v-95q0 -59 -19 -90z" />
    <glyph glyph-name="bar" unicode="|" horiz-adv-x="308" 
d="M251 -194h-194v936h194v-936z" />
    <glyph glyph-name="braceright" unicode="}" horiz-adv-x="421" 
d="M88 554q-18 18 -53 18h-10v170h42q114 0 173.5 -55t59.5 -158v-126q0 -21 11.5 -32.5t31.5 -11.5h33v-170h-33q-20 0 -31.5 -11t-11.5 -33v-126q0 -103 -59.5 -158t-173.5 -55h-42v170h10q35 0 53 18t18 51v95q0 59 19 90t62 44q-43 13 -62 44t-19 90v95q0 33 -18 51z
" />
    <glyph glyph-name="asciitilde" unicode="~" horiz-adv-x="620" 
d="M349 246.5q-27 11.5 -61 35.5q-24 16 -35.5 22t-23.5 6q-22 0 -36 -17t-15 -46h-138q0 67 22 117t60.5 77t88.5 27q33 0 60 -11.5t61 -35.5q24 -16 35.5 -22t23.5 -6q22 0 36 17t15 46h138q0 -67 -22 -117t-60.5 -77t-88.5 -27q-33 0 -60 11.5z" />
    <glyph glyph-name="exclamdown" unicode="&#xa1;" horiz-adv-x="298" 
d="M87 323h124l42 -516h-208zM216 527.5q29 -29.5 29 -67.5q0 -40 -27.5 -68.5t-67.5 -28.5q-44 0 -70.5 28.5t-26.5 68.5q0 42 29 69.5t68 27.5q37 0 66 -29.5z" />
    <glyph glyph-name="cent" unicode="&#xa2;" horiz-adv-x="638" 
d="M185.5 23.5q-64.5 38.5 -102.5 103t-38 140.5q0 75 38 139.5t102.5 102.5t140.5 38q69 0 127 -29.5t96 -80.5t49 -114l-166 -23q-11 29 -37 47.5t-56 18.5q-42 0 -71 -29t-29 -71t29 -71t71 -29q30 0 56 18.5t37 47.5l166 -23q-11 -63 -49 -114t-96 -80.5t-127 -29.5
q-76 0 -140.5 38.5zM255 6h141v-118h-141v118zM255 647h141v-118h-141v118z" />
    <glyph glyph-name="sterling" unicode="&#xa3;" horiz-adv-x="553" 
d="M45 180h90v83h-90v150h90v50q0 88 37.5 153.5t109 100.5t170.5 35v-171q-63 0 -100 -32.5t-41 -85.5v-50h141v-150h-141v-83h197v-170h-463v170z" />
    <glyph glyph-name="currency" unicode="&#xa4;" horiz-adv-x="699" 
d="M25 111l101 101q-26 54 -26 111q0 54 23 103l-98 98l118 118l96 -96q52 26 110 26q57 0 111 -26l96 96l118 -118l-98 -98q22 -50 22 -103q0 -58 -26 -110l102 -102l-118 -118l-104 104q-49 -23 -103 -23q-53 0 -103 22l-103 -103zM409 263.5q25 24.5 25 59.5t-25 60
t-60 25t-59.5 -25t-24.5 -60t24.5 -59.5t59.5 -24.5t60 24.5z" />
    <glyph glyph-name="yen" unicode="&#xa5;" horiz-adv-x="674" 
d="M600 240h-160v-30h160v-150h-160v-60h-206v60h-160v150h160v30h-160v150h123l-172 340h209l113 -247l110 247h192l-171 -340h122v-150z" />
    <glyph glyph-name="brokenbar" unicode="&#xa6;" horiz-adv-x="304" 
d="M249 392h-194v350h194v-350zM249 -194h-194v350h194v-350z" />
    <glyph glyph-name="section" unicode="&#xa7;" horiz-adv-x="598" 
d="M525.5 240.5q-26.5 -31.5 -58.5 -44.5q39 -25 57 -59.5t18 -70.5q0 -81 -72.5 -124t-184.5 -43q-137 0 -240 59l60 144q46 -21 94 -32.5t85 -11.5q29 0 42 5.5t13 18.5t-22 22t-84 29q-75 23 -86 27q-42 15 -70.5 51t-28.5 86q0 47 24.5 83t61.5 54q-34 20 -50.5 54
t-16.5 67q0 86 67 130.5t187 44.5q52 0 120.5 -17.5t111.5 -42.5l-66 -135q-31 15 -75.5 25t-74.5 10q-72 0 -72 -33q0 -16 19.5 -25.5t62.5 -21.5l23 -6q56 -16 93 -31.5t64 -47.5t26 -83q-1 -50 -27.5 -81.5zM359.5 282.5q11.5 10.5 11.5 26.5q0 19 -14.5 27.5t-49.5 17.5
l-30 7q-19 -4 -30.5 -14.5t-11.5 -26.5q0 -19 15.5 -28t48.5 -17q31 -7 30 -7q19 4 30.5 14.5z" />
    <glyph glyph-name="copyright" unicode="&#xa9;" horiz-adv-x="763" 
d="M205 47q-81 47 -128 128t-47 177q0 95 47 176t128 128t177 47q95 0 176 -47t128 -128t47 -176q0 -96 -47 -177t-128 -128t-176 -47q-96 0 -177 47zM512.5 126q59.5 35 94.5 95t35 131t-35 130.5t-94.5 94.5t-130.5 35t-131 -35t-95 -94.5t-35 -130.5t35 -131t95 -95
t131 -35t130.5 35zM287.5 185q-43.5 26 -69 70.5t-25.5 96.5t25.5 96.5t69 70.5t95.5 26q45 0 85 -20.5t67 -56.5t35 -81l-122 -14q-6 24 -22 38.5t-37 14.5q-24 0 -42 -22t-18 -52t18 -52t42 -22q21 0 37 14.5t22 38.5l122 -14q-8 -45 -35 -81t-67 -56.5t-85 -20.5
q-52 0 -95.5 26z" />
    <glyph glyph-name="guillemotleft" unicode="&#xab;" horiz-adv-x="606" 
d="M60 259q0 184 125 327l133 -70q-37 -47 -61.5 -116t-24.5 -141t24.5 -141t61.5 -116l-133 -70q-125 143 -125 327zM328 259q0 162 115 287l133 -69q-34 -39 -55 -99t-21 -119t21 -119t55 -99l-133 -69q-115 125 -115 287z" />
    <glyph glyph-name="registered" unicode="&#xae;" horiz-adv-x="763" 
d="M205 47q-81 47 -128 128t-47 177q0 95 47 176t128 128t177 47q95 0 176 -47t128 -128t47 -176q0 -96 -47 -177t-128 -128t-176 -47q-96 0 -177 47zM512.5 126q59.5 35 94.5 95t35 131t-35 130.5t-94.5 94.5t-130.5 35t-131 -35t-95 -94.5t-35 -130.5t35 -131t95 -95
t131 -35t130.5 35zM427 168l-34 82q-5 12 -10.5 15.5t-16.5 3.5h-53v79h36q65 0 100 -16.5t51 -54.5l45 -109h-118zM236 543h164q40 0 74 -19.5t54 -52.5t20 -72q0 -54 -40.5 -82t-107.5 -28h-47v-121h-117v375zM422.5 382q8.5 9 8.5 21q0 13 -8.5 22.5t-19.5 9.5h-50v-62
h50q11 0 19.5 9z" />
    <glyph glyph-name="degree" unicode="&#xb0;" horiz-adv-x="416" 
d="M114 373q-43 24 -68.5 65.5t-25.5 91.5t25.5 91.5t68.5 65.5t94 24t94 -24t68.5 -65.5t25.5 -91.5t-25.5 -91.5t-68.5 -65.5t-94 -24t-94 24zM249.5 487.5q16.5 16.5 16.5 42.5t-16.5 42.5t-41.5 16.5t-41.5 -16.5t-16.5 -42.5t16.5 -42.5t41.5 -16.5t41.5 16.5z" />
    <glyph glyph-name="plusminus" unicode="&#xb1;" horiz-adv-x="594" 
d="M207 341h-152v161h152v112h180v-112h152v-161h-152v-112h-180v112zM539 0h-484v170h484v-170z" />
    <glyph glyph-name="paragraph" unicode="&#xb6;" horiz-adv-x="742" 
d="M118 348.5q-50 25.5 -79 71t-29 105.5q0 66 34 112t93 69.5t133 23.5h417v-830h-194v675h-68v-675h-194v421q-63 2 -113 27.5z" />
    <glyph glyph-name="periodcentered" unicode="&#xb7;" horiz-adv-x="322" 
d="M106.5 186.5q-25.5 15.5 -41 41.5t-15.5 55q0 46 32 79t78 33q50 0 81 -33.5t31 -78.5q0 -48 -33.5 -80t-78.5 -32q-28 0 -53.5 15.5z" />
    <glyph glyph-name="guillemotright" unicode="&#xbb;" horiz-adv-x="606" 
d="M349.5 118q24.5 69 24.5 141t-24.5 141t-61.5 116l133 70q125 -143 125 -327t-125 -327l-133 70q37 47 61.5 116zM85 140q21 60 21 119t-21 119t-55 99l133 69q115 -125 115 -287t-115 -287l-133 69q34 39 55 99z" />
    <glyph glyph-name="questiondown" unicode="&#xbf;" horiz-adv-x="452" 
d="M292 206q-7 -36 -35 -79l-19 -28q-24 -33 -37.5 -58t-13.5 -48q0 -29 20 -48.5t48 -19.5q20 0 36 11t25 28l12 27l114 -43q-8 -50 -38 -90.5t-75.5 -64t-97.5 -23.5q-58 0 -105 27t-74 74t-27 105q0 41 18 82t61 91q29 34 48.5 74t20.5 74h125q1 -55 -6 -91zM302 501.5
q29 -29.5 29 -67.5q0 -40 -27.5 -68.5t-67.5 -28.5q-44 0 -70.5 28.5t-26.5 68.5q0 42 29 69.5t68 27.5q37 0 66 -29.5z" />
    <glyph glyph-name="Agrave" unicode="&#xc0;" horiz-adv-x="749" 
d="M262 730h204l-254 -730h-204zM283 730h204l254 -730h-204zM243 281h269v-178h-269v178zM148 990h185l132 -160h-170z" />
    <glyph glyph-name="Aacute" unicode="&#xc1;" horiz-adv-x="749" 
d="M262 730h204l-254 -730h-204zM283 730h204l254 -730h-204zM243 281h269v-178h-269v178zM419 990h185l-147 -160h-170z" />
    <glyph glyph-name="Acircumflex" unicode="&#xc2;" horiz-adv-x="749" 
d="M262 730h204l-254 -730h-204zM283 730h204l254 -730h-204zM243 281h269v-178h-269v178zM379 907l-84 -77h-140l128 160h192l128 -160h-140z" />
    <glyph glyph-name="Atilde" unicode="&#xc3;" horiz-adv-x="749" 
d="M262 730h204l-254 -730h-204zM283 730h204l254 -730h-204zM243 281h269v-178h-269v178zM420.5 839q-21.5 9 -51.5 28q-19 12 -29 17t-19 5q-19 0 -31 -13t-14 -36h-107q2 81 38.5 127t99.5 46q27 0 50 -9t50 -28q18 -12 28 -17t20 -5q19 0 31 12.5t14 33.5h107
q-2 -78 -39 -124t-99 -46q-27 0 -48.5 9z" />
    <glyph glyph-name="Adieresis" unicode="&#xc4;" horiz-adv-x="749" 
d="M262 730h204l-254 -730h-204zM283 730h204l254 -730h-204zM243 281h269v-178h-269v178zM220 855q-26 26 -26 63t26 63t63 26t63 -26t26 -63t-26 -63t-63 -26t-63 26zM416 855q-26 26 -26 63t26 63t63 26t63 -26t26 -63t-26 -63t-63 -26t-63 26z" />
    <glyph glyph-name="Aring" unicode="&#xc5;" horiz-adv-x="749" 
d="M262 730h204l-254 -730h-204zM283 730h204l254 -730h-204zM243 281h269v-178h-269v178zM308.5 848q-32.5 18 -51 48.5t-18.5 67.5t18.5 67.5t51 48.5t70.5 18t70.5 -18t51 -48.5t18.5 -67.5t-18.5 -67.5t-51 -48.5t-70.5 -18t-70.5 18zM417.5 925q15.5 15 15.5 39
t-15.5 39t-38.5 15t-38.5 -15t-15.5 -39t15.5 -39t38.5 -15t38.5 15z" />
    <glyph glyph-name="AE" unicode="&#xc6;" horiz-adv-x="974" 
d="M262 730h204l-254 -730h-204zM314 552v178h275v-178h-275zM243 281h209v-178h-209v178zM439 730h515l1 -178h-321v-105h282v-164h-282v-105h320v-178h-515v730z" />
    <glyph glyph-name="Ccedilla" unicode="&#xc7;" horiz-adv-x="781" 
d="M215.5 37q-83.5 51 -132 138.5t-48.5 190.5t48.5 190.5t132 138.5t181.5 51q84 0 158 -38.5t125 -106t69 -151.5l-166 -21q-18 58 -66 95.5t-107 37.5q-49 0 -90.5 -26.5t-66 -71.5t-24.5 -98t24.5 -98t66 -71.5t90.5 -26.5q59 0 107 37.5t66 95.5l166 -20
q-18 -84 -69 -152t-125 -106.5t-158 -38.5q-98 0 -181.5 51zM272 -255l19 93l81 -1q17 0 24 5t7 17q0 10 -6 16t-18 6h-62l27 114h116l-14 -62q42 -6 63.5 -27.5t21.5 -52.5q0 -50 -46 -79t-124 -29h-89z" />
    <glyph glyph-name="Egrave" unicode="&#xc8;" horiz-adv-x="575" 
d="M40 730h515l1 -178h-321v-105h282v-164h-282v-105h320v-178h-515v730zM131 990h185l132 -160h-170z" />
    <glyph glyph-name="Eacute" unicode="&#xc9;" horiz-adv-x="575" 
d="M40 730h515l1 -178h-321v-105h282v-164h-282v-105h320v-178h-515v730zM332 990h185l-147 -160h-170z" />
    <glyph glyph-name="Ecircumflex" unicode="&#xca;" horiz-adv-x="575" 
d="M40 730h515l1 -178h-321v-105h282v-164h-282v-105h320v-178h-515v730zM301 907l-84 -77h-140l128 160h192l128 -160h-140z" />
    <glyph glyph-name="Edieresis" unicode="&#xcb;" horiz-adv-x="575" 
d="M40 730h515l1 -178h-321v-105h282v-164h-282v-105h320v-178h-515v730zM152 855q-26 26 -26 63t26 63t63 26t63 -26t26 -63t-26 -63t-63 -26t-63 26zM348 855q-26 26 -26 63t26 63t63 26t63 -26t26 -63t-26 -63t-63 -26t-63 26z" />
    <glyph glyph-name="Igrave" unicode="&#xcc;" horiz-adv-x="274" 
d="M40 0v730h194v-730h-194zM-92 990h185l132 -160h-170z" />
    <glyph glyph-name="Iacute" unicode="&#xcd;" horiz-adv-x="274" 
d="M40 0v730h194v-730h-194zM177 990h185l-147 -160h-170z" />
    <glyph glyph-name="Icircumflex" unicode="&#xce;" horiz-adv-x="274" 
d="M40 0v730h194v-730h-194zM137 907l-84 -77h-140l128 160h192l128 -160h-140z" />
    <glyph glyph-name="Idieresis" unicode="&#xcf;" horiz-adv-x="274" 
d="M40 0v730h194v-730h-194zM-34 855q-26 26 -26 63t26 63t63 26t63 -26t26 -63t-26 -63t-63 -26t-63 26zM162 855q-26 26 -26 63t26 63t63 26t63 -26t26 -63t-26 -63t-63 -26t-63 26z" />
    <glyph glyph-name="Eth" unicode="&#xd0;" horiz-adv-x="714" 
d="M57 730h257q99 0 183 -49t133 -133t49 -183t-49 -183t-133 -133t-183 -49h-257v730zM390.5 199.5q43.5 25.5 69 69.5t25.5 96t-25.5 96t-69 69.5t-96.5 25.5h-43v-382h43q53 0 96.5 25.5zM10 447h282v-164h-282v164z" />
    <glyph glyph-name="Ntilde" unicode="&#xd1;" horiz-adv-x="726" 
d="M404 0l-180 449v-449h-184v730h253l209 -519v519h184v-730h-282zM394.5 839q-21.5 9 -51.5 28q-19 12 -29 17t-19 5q-19 0 -31 -13t-14 -36h-107q2 81 38.5 127t99.5 46q27 0 50 -9t50 -28q18 -12 28 -17t20 -5q19 0 31 12.5t14 33.5h107q-2 -78 -39 -124t-99 -46
q-27 0 -48.5 9z" />
    <glyph glyph-name="Ograve" unicode="&#xd2;" horiz-adv-x="833" 
d="M225.5 37q-87.5 51 -139 138.5t-51.5 191.5q0 103 51.5 190t139 138t191.5 51q103 0 190.5 -51t139 -138t51.5 -190q0 -104 -51.5 -191.5t-139 -138.5t-190.5 -51q-104 0 -191.5 51zM511 196.5q43 26.5 68 71.5t25 99q0 53 -25 97.5t-68 71t-94 26.5q-52 0 -95.5 -26.5
t-69 -71t-25.5 -97.5q0 -54 25.5 -99t69 -71.5t95.5 -26.5q51 0 94 26.5zM183 990h185l132 -160h-170z" />
    <glyph glyph-name="Oacute" unicode="&#xd3;" horiz-adv-x="833" 
d="M225.5 37q-87.5 51 -139 138.5t-51.5 191.5q0 103 51.5 190t139 138t191.5 51q103 0 190.5 -51t139 -138t51.5 -190q0 -104 -51.5 -191.5t-139 -138.5t-190.5 -51q-104 0 -191.5 51zM511 196.5q43 26.5 68 71.5t25 99q0 53 -25 97.5t-68 71t-94 26.5q-52 0 -95.5 -26.5
t-69 -71t-25.5 -97.5q0 -54 25.5 -99t69 -71.5t95.5 -26.5q51 0 94 26.5zM450 990h185l-147 -160h-170z" />
    <glyph glyph-name="Ocircumflex" unicode="&#xd4;" horiz-adv-x="833" 
d="M225.5 37q-87.5 51 -139 138.5t-51.5 191.5q0 103 51.5 190t139 138t191.5 51q103 0 190.5 -51t139 -138t51.5 -190q0 -104 -51.5 -191.5t-139 -138.5t-190.5 -51q-104 0 -191.5 51zM511 196.5q43 26.5 68 71.5t25 99q0 53 -25 97.5t-68 71t-94 26.5q-52 0 -95.5 -26.5
t-69 -71t-25.5 -97.5q0 -54 25.5 -99t69 -71.5t95.5 -26.5q51 0 94 26.5zM414 907l-84 -77h-140l128 160h192l128 -160h-140z" />
    <glyph glyph-name="Otilde" unicode="&#xd5;" horiz-adv-x="833" 
d="M225.5 37q-87.5 51 -139 138.5t-51.5 191.5q0 103 51.5 190t139 138t191.5 51q103 0 190.5 -51t139 -138t51.5 -190q0 -104 -51.5 -191.5t-139 -138.5t-190.5 -51q-104 0 -191.5 51zM511 196.5q43 26.5 68 71.5t25 99q0 53 -25 97.5t-68 71t-94 26.5q-52 0 -95.5 -26.5
t-69 -71t-25.5 -97.5q0 -54 25.5 -99t69 -71.5t95.5 -26.5q51 0 94 26.5zM444.5 839q-21.5 9 -51.5 28q-19 12 -29 17t-19 5q-19 0 -31 -13t-14 -36h-107q2 81 38.5 127t99.5 46q27 0 50 -9t50 -28q18 -12 28 -17t20 -5q19 0 31 12.5t14 33.5h107q-2 -78 -39 -124t-99 -46
q-27 0 -48.5 9z" />
    <glyph glyph-name="Odieresis" unicode="&#xd6;" horiz-adv-x="833" 
d="M225.5 37q-87.5 51 -139 138.5t-51.5 191.5q0 103 51.5 190t139 138t191.5 51q103 0 190.5 -51t139 -138t51.5 -190q0 -104 -51.5 -191.5t-139 -138.5t-190.5 -51q-104 0 -191.5 51zM511 196.5q43 26.5 68 71.5t25 99q0 53 -25 97.5t-68 71t-94 26.5q-52 0 -95.5 -26.5
t-69 -71t-25.5 -97.5q0 -54 25.5 -99t69 -71.5t95.5 -26.5q51 0 94 26.5zM259 855q-26 26 -26 63t26 63t63 26t63 -26t26 -63t-26 -63t-63 -26t-63 26zM455 855q-26 26 -26 63t26 63t63 26t63 -26t26 -63t-26 -63t-63 -26t-63 26z" />
    <glyph glyph-name="multiply" unicode="&#xd7;" horiz-adv-x="620" 
d="M70 230l120 120l-120 120l120 120l120 -120l120 120l120 -120l-120 -120l120 -120l-120 -120l-120 120l-120 -120z" />
    <glyph glyph-name="Oslash" unicode="&#xd8;" horiz-adv-x="833" 
d="M225.5 37q-87.5 51 -139 138.5t-51.5 191.5q0 103 51.5 190t139 138t191.5 51q103 0 190.5 -51t139 -138t51.5 -190q0 -104 -51.5 -191.5t-139 -138.5t-190.5 -51q-104 0 -191.5 51zM512 196.5q43 26.5 68 71.5t25 99q0 53 -25 97.5t-68 71t-94 26.5q-52 0 -95.5 -26.5
t-69 -71t-25.5 -97.5q0 -54 25.5 -99t69 -71.5t95.5 -26.5q51 0 94 26.5zM368 -51h-195l291 830h195z" />
    <glyph glyph-name="Ugrave" unicode="&#xd9;" horiz-adv-x="684" 
d="M190.5 34.5q-69.5 40.5 -110 110t-40.5 151.5v434h194v-444q0 -44 32 -76t76 -32t76 32t32 76v444h194v-434q0 -82 -40.5 -151.5t-110 -110t-151.5 -40.5t-151.5 40.5zM108 990h185l132 -160h-170z" />
    <glyph glyph-name="Uacute" unicode="&#xda;" horiz-adv-x="684" 
d="M190.5 34.5q-69.5 40.5 -110 110t-40.5 151.5v434h194v-444q0 -44 32 -76t76 -32t76 32t32 76v444h194v-434q0 -82 -40.5 -151.5t-110 -110t-151.5 -40.5t-151.5 40.5zM389 990h185l-147 -160h-170z" />
    <glyph glyph-name="Ucircumflex" unicode="&#xdb;" horiz-adv-x="684" 
d="M190.5 34.5q-69.5 40.5 -110 110t-40.5 151.5v434h194v-444q0 -44 32 -76t76 -32t76 32t32 76v444h194v-434q0 -82 -40.5 -151.5t-110 -110t-151.5 -40.5t-151.5 40.5zM346 907l-84 -77h-140l128 160h192l128 -160h-140z" />
    <glyph glyph-name="Udieresis" unicode="&#xdc;" horiz-adv-x="684" 
d="M190.5 34.5q-69.5 40.5 -110 110t-40.5 151.5v434h194v-444q0 -44 32 -76t76 -32t76 32t32 76v444h194v-434q0 -82 -40.5 -151.5t-110 -110t-151.5 -40.5t-151.5 40.5zM186 855q-26 26 -26 63t26 63t63 26t63 -26t26 -63t-26 -63t-63 -26t-63 26zM382 855q-26 26 -26 63
t26 63t63 26t63 -26t26 -63t-26 -63t-63 -26t-63 26z" />
    <glyph glyph-name="Yacute" unicode="&#xdd;" horiz-adv-x="634" 
d="M217 256l-209 474h208l96 -240l104 240h210l-215 -474v-256h-194v256zM357 990h185l-147 -160h-170z" />
    <glyph glyph-name="Thorn" unicode="&#xde;" horiz-adv-x="614" 
d="M40 643h278q73 0 135.5 -36.5t99 -99t36.5 -135.5q0 -74 -36.5 -136.5t-99 -99t-135.5 -36.5h-84v-100h-194v643zM368 306q27 28 27 66q0 37 -27 65t-63 28h-71v-187h71q36 0 63 28zM40 730h194v-197h-194v197z" />
    <glyph glyph-name="germandbls" unicode="&#xdf;" horiz-adv-x="631" 
d="M209 1l-169 -1v527q0 63 31.5 116.5t85 85t116.5 31.5t117 -31.5t85.5 -85t31.5 -116.5t-31.5 -117t-85.5 -85.5t-117 -31.5v170q27 0 45.5 18.5t18.5 45.5q0 26 -18.5 45t-45.5 19q-26 0 -45 -19t-19 -45v-526zM259 -5l71 157q14 -6 30 -6q32 0 53 21.5t21 52.5
t-21.5 52t-52.5 21h-87v140h86q70 0 126 -25t88.5 -73t32.5 -114q0 -68 -33 -124.5t-89.5 -89.5t-124.5 -33q-50 0 -100 21z" />
    <glyph glyph-name="agrave" unicode="&#xe0;" horiz-adv-x="643" 
d="M165.5 23.5q-64.5 38.5 -102.5 103t-38 140.5q0 75 38 139.5t102.5 102.5t140.5 38q106 0 158 -78.5t52 -202.5t-52 -202.5t-158 -78.5q-76 0 -140.5 38.5zM390 195q29 29 29 71t-29 71t-71 29t-71 -29t-29 -71t29 -71t71 -29t71 29zM453 176l-34 -16v228h194v-388h-160
v176zM419 372l34 -16v176h160v-388h-194v228zM84 807h185l132 -160h-170z" />
    <glyph glyph-name="aacute" unicode="&#xe1;" horiz-adv-x="643" 
d="M165.5 23.5q-64.5 38.5 -102.5 103t-38 140.5q0 75 38 139.5t102.5 102.5t140.5 38q106 0 158 -78.5t52 -202.5t-52 -202.5t-158 -78.5q-76 0 -140.5 38.5zM390 195q29 29 29 71t-29 71t-71 29t-71 -29t-29 -71t29 -71t71 -29t71 29zM453 176l-34 -16v228h194v-388h-160
v176zM419 372l34 -16v176h160v-388h-194v228zM329 807h185l-147 -160h-170z" />
    <glyph glyph-name="acircumflex" unicode="&#xe2;" horiz-adv-x="643" 
d="M165.5 23.5q-64.5 38.5 -102.5 103t-38 140.5q0 75 38 139.5t102.5 102.5t140.5 38q106 0 158 -78.5t52 -202.5t-52 -202.5t-158 -78.5q-76 0 -140.5 38.5zM390 195q29 29 29 71t-29 71t-71 29t-71 -29t-29 -71t29 -71t71 -29t71 29zM453 176l-34 -16v228h194v-388h-160
v176zM419 372l34 -16v176h160v-388h-194v228zM307 720l-84 -77h-140l128 160h192l128 -160h-140z" />
    <glyph glyph-name="atilde" unicode="&#xe3;" horiz-adv-x="643" 
d="M165.5 23.5q-64.5 38.5 -102.5 103t-38 140.5q0 75 38 139.5t102.5 102.5t140.5 38q106 0 158 -78.5t52 -202.5t-52 -202.5t-158 -78.5q-76 0 -140.5 38.5zM390 195q29 29 29 71t-29 71t-71 29t-71 -29t-29 -71t29 -71t71 -29t71 29zM453 176l-34 -16v228h194v-388h-160
v176zM419 372l34 -16v176h160v-388h-194v228zM349.5 662q-21.5 9 -51.5 28q-19 12 -29 17t-19 5q-19 0 -31 -13t-14 -36h-107q2 81 38.5 127t99.5 46q27 0 50 -9t50 -28q18 -12 28 -17t20 -5q19 0 31 12.5t14 33.5h107q-2 -78 -39 -124t-99 -46q-27 0 -48.5 9z" />
    <glyph glyph-name="adieresis" unicode="&#xe4;" horiz-adv-x="643" 
d="M165.5 23.5q-64.5 38.5 -102.5 103t-38 140.5q0 75 38 139.5t102.5 102.5t140.5 38q106 0 158 -78.5t52 -202.5t-52 -202.5t-158 -78.5q-76 0 -140.5 38.5zM390 195q29 29 29 71t-29 71t-71 29t-71 -29t-29 -71t29 -71t71 -29t71 29zM453 176l-34 -16v228h194v-388h-160
v176zM419 372l34 -16v176h160v-388h-194v228zM145 665q-26 26 -26 63t26 63t63 26t63 -26t26 -63t-26 -63t-63 -26t-63 26zM341 665q-26 26 -26 63t26 63t63 26t63 -26t26 -63t-26 -63t-63 -26t-63 26z" />
    <glyph glyph-name="aring" unicode="&#xe5;" horiz-adv-x="643" 
d="M165.5 23.5q-64.5 38.5 -102.5 103t-38 140.5q0 75 38 139.5t102.5 102.5t140.5 38q106 0 158 -78.5t52 -202.5t-52 -202.5t-158 -78.5q-76 0 -140.5 38.5zM390 195q29 29 29 71t-29 71t-71 29t-71 -29t-29 -71t29 -71t71 -29t71 29zM453 176l-34 -16v228h194v-388h-160
v176zM419 372l34 -16v176h160v-388h-194v228zM231.5 664q-32.5 18 -51 48.5t-18.5 67.5t18.5 67.5t51 48.5t70.5 18t70.5 -18t51 -48.5t18.5 -67.5t-18.5 -67.5t-51 -48.5t-70.5 -18t-70.5 18zM340.5 741q15.5 15 15.5 39t-15.5 39t-38.5 15t-38.5 -15t-15.5 -39t15.5 -39
t38.5 -15t38.5 15z" />
    <glyph glyph-name="ae" unicode="&#xe6;" horiz-adv-x="1016" 
d="M165.5 23.5q-64.5 38.5 -102.5 103t-38 140.5q0 75 38 139.5t102.5 102.5t140.5 38q106 0 158 -78.5t52 -202.5t-52 -202.5t-158 -78.5q-76 0 -140.5 38.5zM390 195q29 29 29 71t-29 71t-71 29t-71 -29t-29 -71t29 -71t71 -29t71 29zM453 176l-34 -16v228h177v-388h-143
v176zM419 372l34 -16v176h143v-388h-177v228zM610 23q-50 38 -76 102t-26 142q0 77 26 141t76 101.5t119 37.5q78 0 139 -38t94.5 -102.5t33.5 -140.5q0 -41 -6 -73l-139 73q0 49 -34.5 84t-84.5 35q-49 0 -84 -34.5t-35 -84.5q0 -52 32 -88t87 -36q31 0 51.5 5.5t39.5 20.5
l140 -74q-40 -53 -101 -81t-133 -28q-69 0 -119 38zM611 332h346l33 -139h-379v139z" />
    <glyph glyph-name="ccedilla" unicode="&#xe7;" horiz-adv-x="603" 
d="M165.5 23.5q-64.5 38.5 -102.5 103t-38 140.5q0 75 38 139.5t102.5 102.5t140.5 38q69 0 127 -29.5t96 -80.5t49 -114l-166 -23q-11 29 -37 47.5t-56 18.5q-42 0 -71 -29t-29 -71t29 -71t71 -29q30 0 56 18.5t37 47.5l166 -23q-11 -63 -49 -114t-96 -80.5t-127 -29.5
q-76 0 -140.5 38.5zM174 -255l19 93l81 -1q17 0 24 5t7 17q0 10 -6 16t-18 6h-62l27 114h116l-14 -62q42 -6 63.5 -27.5t21.5 -52.5q0 -50 -46 -79t-124 -29h-89z" />
    <glyph glyph-name="egrave" unicode="&#xe8;" horiz-adv-x="598" 
d="M170.5 23.5q-64.5 38.5 -102.5 103.5t-38 140t38 139.5t102.5 102.5t140.5 38q78 0 139 -38t94.5 -102.5t33.5 -140.5q0 -41 -6 -73h-357q16 -24 41 -37.5t58 -13.5q31 0 51.5 5.5t39.5 20.5l140 -74q-40 -53 -101 -81t-133 -28q-76 0 -140.5 38.5zM371 370.5
q-26 14.5 -57 14.5t-57 -14.5t-42 -38.5h198q-16 24 -42 38.5zM99 806h185l132 -160h-170z" />
    <glyph glyph-name="eacute" unicode="&#xe9;" horiz-adv-x="598" 
d="M170.5 23.5q-64.5 38.5 -102.5 103.5t-38 140t38 139.5t102.5 102.5t140.5 38q78 0 139 -38t94.5 -102.5t33.5 -140.5q0 -41 -6 -73h-357q16 -24 41 -37.5t58 -13.5q31 0 51.5 5.5t39.5 20.5l140 -74q-40 -53 -101 -81t-133 -28q-76 0 -140.5 38.5zM371 370.5
q-26 14.5 -57 14.5t-57 -14.5t-42 -38.5h198q-16 24 -42 38.5zM346 804h185l-147 -160h-170z" />
    <glyph glyph-name="ecircumflex" unicode="&#xea;" horiz-adv-x="598" 
d="M170.5 23.5q-64.5 38.5 -102.5 103.5t-38 140t38 139.5t102.5 102.5t140.5 38q78 0 139 -38t94.5 -102.5t33.5 -140.5q0 -41 -6 -73h-357q16 -24 41 -37.5t58 -13.5q31 0 51.5 5.5t39.5 20.5l140 -74q-40 -53 -101 -81t-133 -28q-76 0 -140.5 38.5zM371 370.5
q-26 14.5 -57 14.5t-57 -14.5t-42 -38.5h198q-16 24 -42 38.5zM324 716l-84 -77h-140l128 160h192l128 -160h-140z" />
    <glyph glyph-name="edieresis" unicode="&#xeb;" horiz-adv-x="598" 
d="M170.5 23.5q-64.5 38.5 -102.5 103.5t-38 140t38 139.5t102.5 102.5t140.5 38q78 0 139 -38t94.5 -102.5t33.5 -140.5q0 -41 -6 -73h-357q16 -24 41 -37.5t58 -13.5q31 0 51.5 5.5t39.5 20.5l140 -74q-40 -53 -101 -81t-133 -28q-76 0 -140.5 38.5zM371 370.5
q-26 14.5 -57 14.5t-57 -14.5t-42 -38.5h198q-16 24 -42 38.5zM149 660q-26 26 -26 63t26 63t63 26t63 -26t26 -63t-26 -63t-63 -26t-63 26zM345 660q-26 26 -26 63t26 63t63 26t63 -26t26 -63t-26 -63t-63 -26t-63 26z" />
    <glyph glyph-name="igrave" unicode="&#xec;" horiz-adv-x="264" 
d="M35 532h194v-532h-194v532zM-97 792h185l132 -160h-170z" />
    <glyph glyph-name="iacute" unicode="&#xed;" horiz-adv-x="264" 
d="M35 532h194v-532h-194v532zM178 792h185l-147 -160h-170z" />
    <glyph glyph-name="icircumflex" unicode="&#xee;" horiz-adv-x="264" 
d="M35 532h194v-532h-194v532zM132 709l-84 -77h-140l128 160h192l128 -160h-140z" />
    <glyph glyph-name="idieresis" unicode="&#xef;" horiz-adv-x="264" 
d="M35 532h194v-532h-194v532zM-29 658q-26 26 -26 63t26 63t63 26t63 -26t26 -63t-26 -63t-63 -26t-63 26zM167 658q-26 26 -26 63t26 63t63 26t63 -26t26 -63t-26 -63t-63 -26t-63 26z" />
    <glyph glyph-name="eth" unicode="&#xf0;" horiz-adv-x="644" 
d="M185.5 21.5q-62.5 36.5 -99 99t-36.5 136.5q0 71 35.5 123.5t95.5 80t131 27.5q22 0 46.5 -6t44.5 -16q0 43 -26 71t-64 28h-69v178h67q142 0 220 -103.5t78 -304.5q0 -106 -35 -185t-100 -122t-153 -43q-73 0 -135.5 36.5zM383.5 185.5q23.5 22.5 23.5 53.5
q0 32 -23.5 54.5t-57.5 22.5t-58 -22.5t-24 -54.5q0 -31 24 -53.5t58 -22.5t57.5 22.5zM279 548l259 156l52 -81l-259 -156z" />
    <glyph glyph-name="ntilde" unicode="&#xf1;" horiz-adv-x="557" 
d="M321 338q-17 17 -41 17q-22 0 -39 -17t-17 -39h-97q0 60 21.5 117.5t64.5 94t105 36.5q61 0 110 -32.5t76.5 -88t27.5 -121.5v-305h-194v299q0 22 -17 39zM30 532h160v-89h34v-443h-194v532zM357.5 651q-21.5 9 -51.5 28q-19 12 -29 17t-19 5q-19 0 -31 -13t-14 -36h-107
q2 81 38.5 127t99.5 46q27 0 50 -9t50 -28q18 -12 28 -17t20 -5q19 0 31 12.5t14 33.5h107q-2 -78 -39 -124t-99 -46q-27 0 -48.5 9z" />
    <glyph glyph-name="ograve" unicode="&#xf2;" horiz-adv-x="638" 
d="M172 23q-68 38 -107.5 102.5t-39.5 141.5q0 76 39.5 140.5t107.5 102t148 37.5t147 -37.5t106.5 -102t39.5 -140.5q0 -77 -39.5 -141.5t-106.5 -102.5t-147 -38t-148 38zM390 195q29 29 29 71t-29 71t-71 29t-71 -29t-29 -71t29 -71t71 -29t71 29zM89 805h185l132 -160
h-170z" />
    <glyph glyph-name="oacute" unicode="&#xf3;" horiz-adv-x="638" 
d="M172 23q-68 38 -107.5 102.5t-39.5 141.5q0 76 39.5 140.5t107.5 102t148 37.5t147 -37.5t106.5 -102t39.5 -140.5q0 -77 -39.5 -141.5t-106.5 -102.5t-147 -38t-148 38zM390 195q29 29 29 71t-29 71t-71 29t-71 -29t-29 -71t29 -71t71 -29t71 29zM350 803h185l-147 -160
h-170z" />
    <glyph glyph-name="ocircumflex" unicode="&#xf4;" horiz-adv-x="638" 
d="M172 23q-68 38 -107.5 102.5t-39.5 141.5q0 76 39.5 140.5t107.5 102t148 37.5t147 -37.5t106.5 -102t39.5 -140.5q0 -77 -39.5 -141.5t-106.5 -102.5t-147 -38t-148 38zM390 195q29 29 29 71t-29 71t-71 29t-71 -29t-29 -71t29 -71t71 -29t71 29zM320 713l-84 -77h-140
l128 160h192l128 -160h-140z" />
    <glyph glyph-name="otilde" unicode="&#xf5;" horiz-adv-x="638" 
d="M172 23q-68 38 -107.5 102.5t-39.5 141.5q0 76 39.5 140.5t107.5 102t148 37.5t147 -37.5t106.5 -102t39.5 -140.5q0 -77 -39.5 -141.5t-106.5 -102.5t-147 -38t-148 38zM390 195q29 29 29 71t-29 71t-71 29t-71 -29t-29 -71t29 -71t71 -29t71 29zM360.5 648
q-21.5 9 -51.5 28q-19 12 -29 17t-19 5q-19 0 -31 -13t-14 -36h-107q2 81 38.5 127t99.5 46q27 0 50 -9t50 -28q18 -12 28 -17t20 -5q19 0 31 12.5t14 33.5h107q-2 -78 -39 -124t-99 -46q-27 0 -48.5 9z" />
    <glyph glyph-name="odieresis" unicode="&#xf6;" horiz-adv-x="638" 
d="M172 23q-68 38 -107.5 102.5t-39.5 141.5q0 76 39.5 140.5t107.5 102t148 37.5t147 -37.5t106.5 -102t39.5 -140.5q0 -77 -39.5 -141.5t-106.5 -102.5t-147 -38t-148 38zM390 195q29 29 29 71t-29 71t-71 29t-71 -29t-29 -71t29 -71t71 -29t71 29zM159 661q-26 26 -26 63
t26 63t63 26t63 -26t26 -63t-26 -63t-63 -26t-63 26zM355 661q-26 26 -26 63t26 63t63 26t63 -26t26 -63t-26 -63t-63 -26t-63 26z" />
    <glyph glyph-name="divide" unicode="&#xf7;" horiz-adv-x="620" 
d="M55 435h510v-170h-510v170zM256.5 30.5q-25.5 15.5 -41 41.5t-15.5 55q0 46 32 79t78 33q50 0 81 -33.5t31 -78.5q0 -48 -33.5 -80t-78.5 -32q-28 0 -53.5 15.5zM256.5 476.5q-25.5 15.5 -41 41.5t-15.5 55q0 46 32 79t78 33q50 0 81 -33.5t31 -78.5q0 -48 -33.5 -80
t-78.5 -32q-28 0 -53.5 15.5z" />
    <glyph glyph-name="oslash" unicode="&#xf8;" horiz-adv-x="638" 
d="M172 23q-68 38 -107.5 102.5t-39.5 141.5q0 76 39.5 140.5t107.5 102t148 37.5t147 -37.5t106.5 -102t39.5 -140.5q0 -77 -39.5 -141.5t-106.5 -102.5t-147 -38t-148 38zM395.5 189.5q31.5 31.5 31.5 76.5t-31.5 76.5t-76.5 31.5t-76.5 -31.5t-31.5 -76.5t31.5 -76.5
t76.5 -31.5t76.5 31.5zM289 -51h-165l224 638h165z" />
    <glyph glyph-name="ugrave" unicode="&#xf9;" horiz-adv-x="557" 
d="M129 17.5q-49 32.5 -76.5 88t-27.5 121.5v305h194v-299q0 -22 17 -39t41 -17q22 0 39 17t17 39h97q0 -60 -21.5 -117.5t-64.5 -94t-105 -36.5q-61 0 -110 32.5zM367 89h-34v443h194v-532h-160v89zM45 792h185l132 -160h-170z" />
    <glyph glyph-name="uacute" unicode="&#xfa;" horiz-adv-x="557" 
d="M129 17.5q-49 32.5 -76.5 88t-27.5 121.5v305h194v-299q0 -22 17 -39t41 -17q22 0 39 17t17 39h97q0 -60 -21.5 -117.5t-64.5 -94t-105 -36.5q-61 0 -110 32.5zM367 89h-34v443h194v-532h-160v89zM321 791h185l-147 -160h-170z" />
    <glyph glyph-name="ucircumflex" unicode="&#xfb;" horiz-adv-x="557" 
d="M129 17.5q-49 32.5 -76.5 88t-27.5 121.5v305h194v-299q0 -22 17 -39t41 -17q22 0 39 17t17 39h97q0 -60 -21.5 -117.5t-64.5 -94t-105 -36.5q-61 0 -110 32.5zM367 89h-34v443h194v-532h-160v89zM278 709l-84 -77h-140l128 160h192l128 -160h-140z" />
    <glyph glyph-name="udieresis" unicode="&#xfc;" horiz-adv-x="557" 
d="M129 17.5q-49 32.5 -76.5 88t-27.5 121.5v305h194v-299q0 -22 17 -39t41 -17q22 0 39 17t17 39h97q0 -60 -21.5 -117.5t-64.5 -94t-105 -36.5q-61 0 -110 32.5zM367 89h-34v443h194v-532h-160v89zM118 655q-26 26 -26 63t26 63t63 26t63 -26t26 -63t-26 -63t-63 -26
t-63 26zM314 655q-26 26 -26 63t26 63t63 26t63 -26t26 -63t-26 -63t-63 -26t-63 26z" />
    <glyph glyph-name="yacute" unicode="&#xfd;" horiz-adv-x="591" 
d="M59 -62h109q26 0 47.5 16.5t28.5 41.5l143 536h197l-155 -578q-13 -57 -48.5 -103t-87 -72.5t-110.5 -26.5h-124v186zM7 532h196l127 -532h-195zM339 791h185l-147 -160h-170z" />
    <glyph glyph-name="thorn" unicode="&#xfe;" horiz-adv-x="648" 
d="M184 63.5q-52 78.5 -52 202.5t52 202.5t158 78.5q76 0 140.5 -38.5t102.5 -103t38 -140.5q0 -75 -38 -139.5t-102.5 -102.5t-140.5 -38q-106 0 -158 78.5zM35 760h194v-279v-37v-642h-194v958zM400 195q29 29 29 71t-29 71t-71 29t-71 -29t-29 -71t29 -71t71 -29t71 29z
" />
    <glyph glyph-name="ydieresis" unicode="&#xff;" horiz-adv-x="591" 
d="M59 -62h109q26 0 47.5 16.5t28.5 41.5l143 536h197l-155 -578q-13 -57 -48.5 -103t-87 -72.5t-110.5 -26.5h-124v186zM7 532h196l127 -532h-195zM132 656q-26 26 -26 63t26 63t63 26t63 -26t26 -63t-26 -63t-63 -26t-63 26zM328 656q-26 26 -26 63t26 63t63 26t63 -26
t26 -63t-26 -63t-63 -26t-63 26z" />
    <glyph glyph-name="Amacron" unicode="&#x100;" horiz-adv-x="749" 
d="M262 730h204l-254 -730h-204zM283 730h204l254 -730h-204zM243 281h269v-178h-269v178zM524 830h-304v118h304v-118z" />
    <glyph glyph-name="amacron" unicode="&#x101;" horiz-adv-x="643" 
d="M165.5 23.5q-64.5 38.5 -102.5 103t-38 140.5q0 75 38 139.5t102.5 102.5t140.5 38q106 0 158 -78.5t52 -202.5t-52 -202.5t-158 -78.5q-76 0 -140.5 38.5zM390 195q29 29 29 71t-29 71t-71 29t-71 -29t-29 -71t29 -71t71 -29t71 29zM453 176l-34 -16v228h194v-388h-160
v176zM419 372l34 -16v176h160v-388h-194v228zM449 647h-304v118h304v-118z" />
    <glyph glyph-name="Abreve" unicode="&#x102;" horiz-adv-x="749" 
d="M262 730h204l-254 -730h-204zM283 730h204l254 -730h-204zM243 281h269v-178h-269v178zM222 876q-57 46 -61 124h135q2 -28 22.5 -44.5t51.5 -16.5t51.5 16.5t22.5 44.5h135q-4 -78 -61 -124t-148 -46t-148 46z" />
    <glyph glyph-name="abreve" unicode="&#x103;" horiz-adv-x="643" 
d="M165.5 23.5q-64.5 38.5 -102.5 103t-38 140.5q0 75 38 139.5t102.5 102.5t140.5 38q106 0 158 -78.5t52 -202.5t-52 -202.5t-158 -78.5q-76 0 -140.5 38.5zM390 195q29 29 29 71t-29 71t-71 29t-71 -29t-29 -71t29 -71t71 -29t71 29zM453 176l-34 -16v228h194v-388h-160
v176zM419 372l34 -16v176h160v-388h-194v228zM152 692q-57 46 -61 124h135q2 -28 22.5 -44.5t51.5 -16.5t51.5 16.5t22.5 44.5h135q-4 -78 -61 -124t-148 -46t-148 46z" />
    <glyph glyph-name="Aogonek" unicode="&#x104;" horiz-adv-x="749" 
d="M262 730h204l-254 -730h-204zM283 730h204l254 -730h-204zM243 281h269v-178h-269v178zM537 -207q-42 33 -42 90q0 55 43.5 98t123.5 68l79 -49q-55 -25 -84.5 -47.5t-29.5 -49.5q0 -19 13.5 -30t39.5 -11h57v-102h-84q-74 0 -116 33z" />
    <glyph glyph-name="aogonek" unicode="&#x105;" horiz-adv-x="643" 
d="M165.5 23.5q-64.5 38.5 -102.5 103t-38 140.5q0 75 38 139.5t102.5 102.5t140.5 38q106 0 158 -78.5t52 -202.5t-52 -202.5t-158 -78.5q-76 0 -140.5 38.5zM390 195q29 29 29 71t-29 71t-71 29t-71 -29t-29 -71t29 -71t71 -29t71 29zM453 176l-34 -16v228h194v-388h-160
v176zM419 372l34 -16v176h160v-388h-194v228zM409 -207q-42 33 -42 90q0 55 43.5 98t123.5 68l79 -49q-55 -25 -84.5 -47.5t-29.5 -49.5q0 -19 13.5 -30t39.5 -11h57v-102h-84q-74 0 -116 33z" />
    <glyph glyph-name="Cacute" unicode="&#x106;" horiz-adv-x="781" 
d="M215.5 37q-83.5 51 -132 138.5t-48.5 190.5t48.5 190.5t132 138.5t181.5 51q84 0 158 -38.5t125 -106t69 -151.5l-166 -21q-18 58 -66 95.5t-107 37.5q-49 0 -90.5 -26.5t-66 -71.5t-24.5 -98t24.5 -98t66 -71.5t90.5 -26.5q59 0 107 37.5t66 95.5l166 -20
q-18 -84 -69 -152t-125 -106.5t-158 -38.5q-98 0 -181.5 51zM434 990h185l-147 -160h-170z" />
    <glyph glyph-name="cacute" unicode="&#x107;" horiz-adv-x="603" 
d="M165.5 23.5q-64.5 38.5 -102.5 103t-38 140.5q0 75 38 139.5t102.5 102.5t140.5 38q69 0 127 -29.5t96 -80.5t49 -114l-166 -23q-11 29 -37 47.5t-56 18.5q-42 0 -71 -29t-29 -71t29 -71t71 -29q30 0 56 18.5t37 47.5l166 -23q-11 -63 -49 -114t-96 -80.5t-127 -29.5
q-76 0 -140.5 38.5zM336 805h185l-147 -160h-170z" />
    <glyph glyph-name="Cdotaccent" unicode="&#x10a;" horiz-adv-x="781" 
d="M215.5 37q-83.5 51 -132 138.5t-48.5 190.5t48.5 190.5t132 138.5t181.5 51q84 0 158 -38.5t125 -106t69 -151.5l-166 -21q-18 58 -66 95.5t-107 37.5q-49 0 -90.5 -26.5t-66 -71.5t-24.5 -98t24.5 -98t66 -71.5t90.5 -26.5q59 0 107 37.5t66 95.5l166 -20
q-18 -84 -69 -152t-125 -106.5t-158 -38.5q-98 0 -181.5 51zM337 855q-26 26 -26 63t26 63t63 26t63 -26t26 -63t-26 -63t-63 -26t-63 26z" />
    <glyph glyph-name="cdotaccent" unicode="&#x10b;" horiz-adv-x="603" 
d="M165.5 23.5q-64.5 38.5 -102.5 103t-38 140.5q0 75 38 139.5t102.5 102.5t140.5 38q69 0 127 -29.5t96 -80.5t49 -114l-166 -23q-11 29 -37 47.5t-56 18.5q-42 0 -71 -29t-29 -71t29 -71t71 -29q30 0 56 18.5t37 47.5l166 -23q-11 -63 -49 -114t-96 -80.5t-127 -29.5
q-76 0 -140.5 38.5zM240 670q-26 26 -26 63t26 63t63 26t63 -26t26 -63t-26 -63t-63 -26t-63 26z" />
    <glyph glyph-name="Ccaron" unicode="&#x10c;" horiz-adv-x="781" 
d="M215.5 37q-83.5 51 -132 138.5t-48.5 190.5t48.5 190.5t132 138.5t181.5 51q84 0 158 -38.5t125 -106t69 -151.5l-166 -21q-18 58 -66 95.5t-107 37.5q-49 0 -90.5 -26.5t-66 -71.5t-24.5 -98t24.5 -98t66 -71.5t90.5 -26.5q59 0 107 37.5t66 95.5l166 -20
q-18 -84 -69 -152t-125 -106.5t-158 -38.5q-98 0 -181.5 51zM489 830h-192l-128 160h140l84 -77l84 77h140z" />
    <glyph glyph-name="ccaron" unicode="&#x10d;" horiz-adv-x="603" 
d="M165.5 23.5q-64.5 38.5 -102.5 103t-38 140.5q0 75 38 139.5t102.5 102.5t140.5 38q69 0 127 -29.5t96 -80.5t49 -114l-166 -23q-11 29 -37 47.5t-56 18.5q-42 0 -71 -29t-29 -71t29 -71t71 -29q30 0 56 18.5t37 47.5l166 -23q-11 -63 -49 -114t-96 -80.5t-127 -29.5
q-76 0 -140.5 38.5zM404 646h-192l-128 160h140l84 -77l84 77h140z" />
    <glyph glyph-name="Dcaron" unicode="&#x10e;" horiz-adv-x="697" 
d="M40 730h257q99 0 183 -49t133 -133t49 -183t-49 -183t-133 -133t-183 -49h-257v730zM373.5 199.5q43.5 25.5 69 69.5t25.5 96t-25.5 96t-69 69.5t-96.5 25.5h-43v-382h43q53 0 96.5 25.5zM341 830h-192l-128 160h140l84 -77l84 77h140z" />
    <glyph glyph-name="dcaron" unicode="&#x10f;" horiz-adv-x="653" 
d="M165.5 23.5q-64.5 38.5 -102.5 103t-38 140.5q0 75 38 139.5t102.5 102.5t140.5 38q106 0 158 -78.5t52 -202.5t-52 -202.5t-158 -78.5q-76 0 -140.5 38.5zM390 195q29 29 29 71t-29 71t-71 29t-71 -29t-29 -71t29 -71t71 -29t71 29zM453 102l-34 -14v672h194v-760h-160
v102zM612 860h-192l-128 160h140l84 -77l84 77h140z" />
    <glyph glyph-name="Dcroat" unicode="&#x110;" horiz-adv-x="714" 
d="M57 730h257q99 0 183 -49t133 -133t49 -183t-49 -183t-133 -133t-183 -49h-257v730zM390.5 199.5q43.5 25.5 69 69.5t25.5 96t-25.5 96t-69 69.5t-96.5 25.5h-43v-382h43q53 0 96.5 25.5zM10 447h282v-164h-282v164z" />
    <glyph glyph-name="dcroat" unicode="&#x111;" horiz-adv-x="679" 
d="M165.5 23.5q-64.5 38.5 -102.5 103t-38 140.5q0 75 38 139.5t102.5 102.5t140.5 38q106 0 158 -78.5t52 -202.5t-52 -202.5t-158 -78.5q-76 0 -140.5 38.5zM390 195q29 29 29 71t-29 71t-71 29t-71 -29t-29 -71t29 -71t71 -29t71 29zM453 102l-34 -14v672h194v-760h-160
v102zM372 713h282v-164h-282v164z" />
    <glyph glyph-name="Emacron" unicode="&#x112;" horiz-adv-x="575" 
d="M40 730h515l1 -178h-321v-105h282v-164h-282v-105h320v-178h-515v730zM460 830h-304v118h304v-118z" />
    <glyph glyph-name="emacron" unicode="&#x113;" horiz-adv-x="598" 
d="M170.5 23.5q-64.5 38.5 -102.5 103.5t-38 140t38 139.5t102.5 102.5t140.5 38q78 0 139 -38t94.5 -102.5t33.5 -140.5q0 -41 -6 -73h-357q16 -24 41 -37.5t58 -13.5q31 0 51.5 5.5t39.5 20.5l140 -74q-40 -53 -101 -81t-133 -28q-76 0 -140.5 38.5zM371 370.5
q-26 14.5 -57 14.5t-57 -14.5t-42 -38.5h198q-16 24 -42 38.5zM457 646h-304v118h304v-118z" />
    <glyph glyph-name="Edotaccent" unicode="&#x116;" horiz-adv-x="575" 
d="M40 730h515l1 -178h-321v-105h282v-164h-282v-105h320v-178h-515v730zM233 855q-26 26 -26 63t26 63t63 26t63 -26t26 -63t-26 -63t-63 -26t-63 26z" />
    <glyph glyph-name="edotaccent" unicode="&#x117;" horiz-adv-x="598" 
d="M170.5 23.5q-64.5 38.5 -102.5 103.5t-38 140t38 139.5t102.5 102.5t140.5 38q78 0 139 -38t94.5 -102.5t33.5 -140.5q0 -41 -6 -73h-357q16 -24 41 -37.5t58 -13.5q31 0 51.5 5.5t39.5 20.5l140 -74q-40 -53 -101 -81t-133 -28q-76 0 -140.5 38.5zM371 370.5
q-26 14.5 -57 14.5t-57 -14.5t-42 -38.5h198q-16 24 -42 38.5zM246 672q-26 26 -26 63t26 63t63 26t63 -26t26 -63t-26 -63t-63 -26t-63 26z" />
    <glyph glyph-name="Eogonek" unicode="&#x118;" horiz-adv-x="575" 
d="M40 730h515l1 -178h-321v-105h282v-164h-282v-105h320v-178h-515v730zM351 -207q-42 33 -42 90q0 55 43.5 98t123.5 68l79 -49q-55 -25 -84.5 -47.5t-29.5 -49.5q0 -19 13.5 -30t39.5 -11h57v-102h-84q-74 0 -116 33z" />
    <glyph glyph-name="eogonek" unicode="&#x119;" horiz-adv-x="598" 
d="M170.5 23.5q-64.5 38.5 -102.5 103.5t-38 140t38 139.5t102.5 102.5t140.5 38q78 0 139 -38t94.5 -102.5t33.5 -140.5q0 -41 -6 -73h-357q16 -24 41 -37.5t58 -13.5q31 0 51.5 5.5t39.5 20.5l140 -74q-40 -53 -101 -81t-133 -28q-76 0 -140.5 38.5zM371 370.5
q-26 14.5 -57 14.5t-57 -14.5t-42 -38.5h198q-16 24 -42 38.5zM205 -207q-42 33 -42 90q0 55 43.5 98t123.5 68l79 -49q-55 -25 -84.5 -47.5t-29.5 -49.5q0 -19 13.5 -30t39.5 -11h57v-102h-84q-74 0 -116 33z" />
    <glyph glyph-name="Ecaron" unicode="&#x11a;" horiz-adv-x="575" 
d="M40 730h515l1 -178h-321v-105h282v-164h-282v-105h320v-178h-515v730zM404 830h-192l-128 160h140l84 -77l84 77h140z" />
    <glyph glyph-name="ecaron" unicode="&#x11b;" horiz-adv-x="598" 
d="M170.5 23.5q-64.5 38.5 -102.5 103.5t-38 140t38 139.5t102.5 102.5t140.5 38q78 0 139 -38t94.5 -102.5t33.5 -140.5q0 -41 -6 -73h-357q16 -24 41 -37.5t58 -13.5q31 0 51.5 5.5t39.5 20.5l140 -74q-40 -53 -101 -81t-133 -28q-76 0 -140.5 38.5zM371 370.5
q-26 14.5 -57 14.5t-57 -14.5t-42 -38.5h198q-16 24 -42 38.5zM408 647h-192l-128 160h140l84 -77l84 77h140z" />
    <glyph glyph-name="Gbreve" unicode="&#x11e;" horiz-adv-x="763" 
d="M200.5 37q-83.5 51 -132 138.5t-48.5 190.5t48.5 190.5t132 138.5t181.5 51q111 0 201.5 -65t131.5 -169l-157 -56q-23 48 -66.5 77t-96.5 29q-49 0 -90.5 -26.5t-66 -71.5t-24.5 -98t24.5 -98t66 -71.5t90.5 -26.5q59 0 107 37.5t66 95.5l175 63q0 -103 -48.5 -190.5
t-131.5 -138.5t-181 -51t-181.5 51zM333 419h410v-53l-21 -101h-389v154zM230 876q-57 46 -61 124h135q2 -28 22.5 -44.5t51.5 -16.5t51.5 16.5t22.5 44.5h135q-4 -78 -61 -124t-148 -46t-148 46z" />
    <glyph glyph-name="gbreve" unicode="&#x11f;" horiz-adv-x="643" 
d="M145 -52h223q31 0 56 24t25 57v417l4 -14v100h160v-501q0 -72 -35 -133.5t-94.5 -97.5t-129.5 -36h-209v184zM165.5 23.5q-64.5 38.5 -102.5 103t-38 140.5q0 75 38 139.5t102.5 102.5t140.5 38q106 0 158 -78.5t52 -202.5t-52 -202.5t-158 -78.5q-76 0 -140.5 38.5z
M390 195q29 29 29 71t-29 71t-71 29t-71 -29t-29 -71t29 -71t71 -29t71 29zM143 693q-57 46 -61 124h135q2 -28 22.5 -44.5t51.5 -16.5t51.5 16.5t22.5 44.5h135q-4 -78 -61 -124t-148 -46t-148 46z" />
    <glyph glyph-name="Gdotaccent" unicode="&#x120;" horiz-adv-x="763" 
d="M200.5 37q-83.5 51 -132 138.5t-48.5 190.5t48.5 190.5t132 138.5t181.5 51q111 0 201.5 -65t131.5 -169l-157 -56q-23 48 -66.5 77t-96.5 29q-49 0 -90.5 -26.5t-66 -71.5t-24.5 -98t24.5 -98t66 -71.5t90.5 -26.5q59 0 107 37.5t66 95.5l175 63q0 -103 -48.5 -190.5
t-131.5 -138.5t-181 -51t-181.5 51zM333 419h410v-53l-21 -101h-389v154zM317 855q-26 26 -26 63t26 63t63 26t63 -26t26 -63t-26 -63t-63 -26t-63 26z" />
    <glyph glyph-name="gdotaccent" unicode="&#x121;" horiz-adv-x="643" 
d="M145 -52h223q31 0 56 24t25 57v417l4 -14v100h160v-501q0 -72 -35 -133.5t-94.5 -97.5t-129.5 -36h-209v184zM165.5 23.5q-64.5 38.5 -102.5 103t-38 140.5q0 75 38 139.5t102.5 102.5t140.5 38q106 0 158 -78.5t52 -202.5t-52 -202.5t-158 -78.5q-76 0 -140.5 38.5z
M390 195q29 29 29 71t-29 71t-71 29t-71 -29t-29 -71t29 -71t71 -29t71 29zM246 672q-26 26 -26 63t26 63t63 26t63 -26t26 -63t-26 -63t-63 -26t-63 26z" />
    <glyph glyph-name="uni0122" unicode="&#x122;" horiz-adv-x="763" 
d="M200.5 37q-83.5 51 -132 138.5t-48.5 190.5t48.5 190.5t132 138.5t181.5 51q111 0 201.5 -65t131.5 -169l-157 -56q-23 48 -66.5 77t-96.5 29q-49 0 -90.5 -26.5t-66 -71.5t-24.5 -98t24.5 -98t66 -71.5t90.5 -26.5q59 0 107 37.5t66 95.5l175 63q0 -103 -48.5 -190.5
t-131.5 -138.5t-181 -51t-181.5 51zM333 419h410v-53l-21 -101h-389v154zM351 -307q-19 0 -37.5 13.5t-30.5 35t-12 45.5q0 47 32.5 80t79.5 33q51 0 82 -33t31 -77q0 -59 -31 -131.5t-97 -153.5l-102 69q39 48 85 119z" />
    <glyph glyph-name="uni0123" unicode="&#x123;" horiz-adv-x="643" 
d="M145 -52h223q31 0 56 24t25 57v417l4 -14v100h160v-501q0 -72 -35 -133.5t-94.5 -97.5t-129.5 -36h-209v184zM165.5 23.5q-64.5 38.5 -102.5 103t-38 140.5q0 75 38 139.5t102.5 102.5t140.5 38q106 0 158 -78.5t52 -202.5t-52 -202.5t-158 -78.5q-76 0 -140.5 38.5z
M390 195q29 29 29 71t-29 71t-71 29t-71 -29t-29 -71t29 -71t71 -29t71 29zM332 852q19 0 37.5 -13.5t30.5 -35t12 -45.5q0 -47 -32.5 -80t-79.5 -33q-51 0 -82 33t-31 77q0 59 31 131.5t97 153.5l102 -69q-39 -48 -85 -119z" />
    <glyph glyph-name="Hbar" unicode="&#x126;" horiz-adv-x="762" 
d="M59 730h194v-283h256v283h194v-730h-194v283h-256v-283h-194v730zM30 677h702v-164h-702v164z" />
    <glyph glyph-name="hbar" unicode="&#x127;" horiz-adv-x="583" 
d="M347 338q-17 17 -41 17q-22 0 -39 -17t-17 -39h-97q0 60 21.5 117.5t64.5 94t105 36.5q61 0 110 -32.5t76.5 -88t27.5 -121.5v-305h-194v299q0 22 -17 39zM56 760h194v-760h-194v760zM25 723h282v-164h-282v164z" />
    <glyph glyph-name="Imacron" unicode="&#x12a;" horiz-adv-x="274" 
d="M40 0v730h194v-730h-194zM289 830h-304v118h304v-118z" />
    <glyph glyph-name="imacron" unicode="&#x12b;" horiz-adv-x="264" 
d="M35 532h194v-532h-194v532zM284 632h-304v118h304v-118z" />
    <glyph glyph-name="Iogonek" unicode="&#x12e;" horiz-adv-x="274" 
d="M40 0v730h194v-730h-194zM30 -207q-42 33 -42 90q0 55 43.5 98t123.5 68l79 -49q-55 -25 -84.5 -47.5t-29.5 -49.5q0 -19 13.5 -30t39.5 -11h57v-102h-84q-74 0 -116 33z" />
    <glyph glyph-name="iogonek" unicode="&#x12f;" horiz-adv-x="264" 
d="M35 532h194v-532h-194v532zM25 -207q-42 33 -42 90q0 55 43.5 98t123.5 68l79 -49q-55 -25 -84.5 -47.5t-29.5 -49.5q0 -19 13.5 -30t39.5 -11h57v-102h-84q-74 0 -116 33z" />
    <glyph glyph-name="Idotaccent" unicode="&#x130;" horiz-adv-x="274" 
d="M40 0v730h194v-730h-194zM77 855q-26 26 -26 63t26 63t63 26t63 -26t26 -63t-26 -63t-63 -26t-63 26z" />
    <glyph glyph-name="dotlessi" unicode="&#x131;" horiz-adv-x="264" 
d="M35 532h194v-532h-194v532z" />
    <glyph glyph-name="uni0136" unicode="&#x136;" horiz-adv-x="696" 
d="M681 730l-457 -548l-10 286l219 262h248zM234 730v-730h-194v730h194zM417 430l274 -430h-226l-236 372zM303 -307q-19 0 -37.5 13.5t-30.5 35t-12 45.5q0 47 32.5 80t79.5 33q51 0 82 -33t31 -77q0 -59 -31 -131.5t-97 -153.5l-102 69q39 48 85 119z" />
    <glyph glyph-name="uni0137" unicode="&#x137;" horiz-adv-x="612" 
d="M262 181l129 151l212 -332h-226zM40 760h194v-760h-194v760zM234 398l116 134h237l-353 -404v270zM262 -307q-19 0 -37.5 13.5t-30.5 35t-12 45.5q0 47 32.5 80t79.5 33q51 0 82 -33t31 -77q0 -59 -31 -131.5t-97 -153.5l-102 69q39 48 85 119z" />
    <glyph glyph-name="Lacute" unicode="&#x139;" horiz-adv-x="500" 
d="M485 0h-445v730h194v-552h251v-178zM177 990h185l-147 -160h-170z" />
    <glyph glyph-name="lacute" unicode="&#x13a;" horiz-adv-x="274" 
d="M145.5 27.5q-48.5 27.5 -77 75.5t-28.5 106v551h194v-563q0 -7 4.5 -11t12.5 -4h18v-182h-18q-57 0 -105.5 27.5zM177 1019h185l-147 -160h-170z" />
    <glyph glyph-name="uni013B" unicode="&#x13b;" horiz-adv-x="500" 
d="M485 0h-445v730h194v-552h251v-178zM221 -307q-19 0 -37.5 13.5t-30.5 35t-12 45.5q0 47 32.5 80t79.5 33q51 0 82 -33t31 -77q0 -59 -31 -131.5t-97 -153.5l-102 69q39 48 85 119z" />
    <glyph glyph-name="uni013C" unicode="&#x13c;" horiz-adv-x="290" 
d="M145.5 27.5q-48.5 27.5 -77 75.5t-28.5 106v551h194v-563q0 -7 4.5 -11t12.5 -4h18v-182h-18q-57 0 -105.5 27.5zM130 -307q-19 0 -37.5 13.5t-30.5 35t-12 45.5q0 47 32.5 80t79.5 33q51 0 82 -33t31 -77q0 -59 -31 -131.5t-97 -153.5l-102 69q39 48 85 119z" />
    <glyph glyph-name="Lcaron" unicode="&#x13d;" horiz-adv-x="500" 
d="M485 0h-445v730h194v-552h251v-178zM232 830h-192l-128 160h140l84 -77l84 77h140z" />
    <glyph glyph-name="lcaron" unicode="&#x13e;" horiz-adv-x="284" 
d="M145.5 27.5q-48.5 27.5 -77 75.5t-28.5 106v551h194v-563q0 -7 4.5 -11t12.5 -4h18v-182h-18q-57 0 -105.5 27.5zM232 860h-192l-128 160h140l84 -77l84 77h140z" />
    <glyph glyph-name="Lslash" unicode="&#x141;" horiz-adv-x="597" 
d="M30 342l331 190l82 -143l-331 -190zM582 0h-445v730h194v-552h251v-178z" />
    <glyph glyph-name="lslash" unicode="&#x142;" horiz-adv-x="473" 
d="M30 342l331 190l82 -143l-331 -190zM245.5 27.5q-48.5 27.5 -77 75.5t-28.5 106v551h194v-563q0 -7 4.5 -11t12.5 -4h18v-182h-18q-57 0 -105.5 27.5z" />
    <glyph glyph-name="Nacute" unicode="&#x143;" horiz-adv-x="726" 
d="M404 0l-180 449v-449h-184v730h253l209 -519v519h184v-730h-282zM380 990h185l-147 -160h-170z" />
    <glyph glyph-name="nacute" unicode="&#x144;" horiz-adv-x="557" 
d="M321 338q-17 17 -41 17q-22 0 -39 -17t-17 -39h-97q0 60 21.5 117.5t64.5 94t105 36.5q61 0 110 -32.5t76.5 -88t27.5 -121.5v-305h-194v299q0 22 -17 39zM30 532h160v-89h34v-443h-194v532zM346 804h185l-147 -160h-170z" />
    <glyph glyph-name="uni0145" unicode="&#x145;" horiz-adv-x="726" 
d="M404 0l-180 449v-449h-184v730h253l209 -519v519h184v-730h-282zM364 -307q-19 0 -37.5 13.5t-30.5 35t-12 45.5q0 47 32.5 80t79.5 33q51 0 82 -33t31 -77q0 -59 -31 -131.5t-97 -153.5l-102 69q39 48 85 119z" />
    <glyph glyph-name="uni0146" unicode="&#x146;" horiz-adv-x="557" 
d="M321 338q-17 17 -41 17q-22 0 -39 -17t-17 -39h-97q0 60 21.5 117.5t64.5 94t105 36.5q61 0 110 -32.5t76.5 -88t27.5 -121.5v-305h-194v299q0 22 -17 39zM30 532h160v-89h34v-443h-194v532zM243 -307q-19 0 -37.5 13.5t-30.5 35t-12 45.5q0 47 32.5 80t79.5 33
q51 0 82 -33t31 -77q0 -59 -31 -131.5t-97 -153.5l-102 69q39 48 85 119z" />
    <glyph glyph-name="Ncaron" unicode="&#x147;" horiz-adv-x="726" 
d="M404 0l-180 449v-449h-184v730h253l209 -519v519h184v-730h-282zM456 830h-192l-128 160h140l84 -77l84 77h140z" />
    <glyph glyph-name="ncaron" unicode="&#x148;" horiz-adv-x="557" 
d="M321 338q-17 17 -41 17q-22 0 -39 -17t-17 -39h-97q0 60 21.5 117.5t64.5 94t105 36.5q61 0 110 -32.5t76.5 -88t27.5 -121.5v-305h-194v299q0 22 -17 39zM30 532h160v-89h34v-443h-194v532zM414 645h-192l-128 160h140l84 -77l84 77h140z" />
    <glyph glyph-name="Eng" unicode="&#x14a;" horiz-adv-x="726" 
d="M404 0l-180 449v-449h-184v730h253l209 -519v519h184v-730h-282zM411 -26h69q10 0 16 5.5t6 14.5v538h183v-538q0 -56 -27.5 -102.5t-74.5 -73t-102 -26.5h-70v182z" />
    <glyph glyph-name="eng" unicode="&#x14b;" horiz-adv-x="562" 
d="M321 338q-17 17 -41 17q-22 0 -39 -17t-17 -39h-97q0 60 21.5 117.5t64.5 94t105 36.5q61 0 110 -32.5t76.5 -88t27.5 -121.5v-305h-194v299q0 22 -17 39zM30 532h160v-89h34v-443h-194v532zM258 -26h58q10 0 16 5.5t6 14.5v221h194v-221q0 -56 -27.5 -102.5t-74.5 -73
t-102 -26.5h-70v182z" />
    <glyph glyph-name="Omacron" unicode="&#x14c;" horiz-adv-x="833" 
d="M225.5 37q-87.5 51 -139 138.5t-51.5 191.5q0 103 51.5 190t139 138t191.5 51q103 0 190.5 -51t139 -138t51.5 -190q0 -104 -51.5 -191.5t-139 -138.5t-190.5 -51q-104 0 -191.5 51zM511 196.5q43 26.5 68 71.5t25 99q0 53 -25 97.5t-68 71t-94 26.5q-52 0 -95.5 -26.5
t-69 -71t-25.5 -97.5q0 -54 25.5 -99t69 -71.5t95.5 -26.5q51 0 94 26.5zM567 830h-304v118h304v-118z" />
    <glyph glyph-name="omacron" unicode="&#x14d;" horiz-adv-x="638" 
d="M172 23q-68 38 -107.5 102.5t-39.5 141.5q0 76 39.5 140.5t107.5 102t148 37.5t147 -37.5t106.5 -102t39.5 -140.5q0 -77 -39.5 -141.5t-106.5 -102.5t-147 -38t-148 38zM390 195q29 29 29 71t-29 71t-71 29t-71 -29t-29 -71t29 -71t71 -29t71 29zM463 647h-304v118h304
v-118z" />
    <glyph glyph-name="Ohungarumlaut" unicode="&#x150;" horiz-adv-x="833" 
d="M225.5 37q-87.5 51 -139 138.5t-51.5 191.5q0 103 51.5 190t139 138t191.5 51q103 0 190.5 -51t139 -138t51.5 -190q0 -104 -51.5 -191.5t-139 -138.5t-190.5 -51q-104 0 -191.5 51zM511 196.5q43 26.5 68 71.5t25 99q0 53 -25 97.5t-68 71t-94 26.5q-52 0 -95.5 -26.5
t-69 -71t-25.5 -97.5q0 -54 25.5 -99t69 -71.5t95.5 -26.5q51 0 94 26.5zM531 990h185l-147 -160h-170zM307 990h185l-147 -160h-170z" />
    <glyph glyph-name="ohungarumlaut" unicode="&#x151;" horiz-adv-x="638" 
d="M172 23q-68 38 -107.5 102.5t-39.5 141.5q0 76 39.5 140.5t107.5 102t148 37.5t147 -37.5t106.5 -102t39.5 -140.5q0 -77 -39.5 -141.5t-106.5 -102.5t-147 -38t-148 38zM390 195q29 29 29 71t-29 71t-71 29t-71 -29t-29 -71t29 -71t71 -29t71 29zM456 806h185l-147 -160
h-170zM232 806h185l-147 -160h-170z" />
    <glyph glyph-name="OE" unicode="&#x152;" horiz-adv-x="1139" 
d="M225.5 37q-87.5 51 -139 138.5t-51.5 191.5q0 103 51.5 190t139 138t191.5 51q103 0 190.5 -51t139 -138t51.5 -190q0 -104 -51.5 -191.5t-139 -138.5t-190.5 -51q-104 0 -191.5 51zM511 196.5q43 26.5 68 71.5t25 99q0 53 -25 97.5t-68 71t-94 26.5q-52 0 -95.5 -26.5
t-69 -71t-25.5 -97.5q0 -54 25.5 -99t69 -71.5t95.5 -26.5q51 0 94 26.5zM604 730h515l1 -178h-321v-105h282v-164h-282v-105h320v-178h-515v730z" />
    <glyph glyph-name="oe" unicode="&#x153;" horiz-adv-x="991" 
d="M172 23q-68 38 -107.5 102.5t-39.5 141.5q0 76 39.5 140.5t107.5 102t148 37.5t147 -37.5t106.5 -102t39.5 -140.5q0 -77 -39.5 -141.5t-106.5 -102.5t-147 -38t-148 38zM390 195q29 29 29 71t-29 71t-71 29t-71 -29t-29 -71t29 -71t71 -29t71 29zM563.5 23.5
q-64.5 38.5 -102.5 103.5t-38 140t38 139.5t102.5 102.5t140.5 38q78 0 139 -38t94.5 -102.5t33.5 -140.5q0 -41 -6 -73l-139 73q0 49 -34.5 84t-84.5 35q-49 0 -84 -34.5t-35 -84.5q0 -52 32 -88t87 -36q31 0 51.5 5.5t39.5 20.5l140 -74q-40 -53 -101 -81t-133 -28
q-76 0 -140.5 38.5zM586 332h346l33 -139h-379v139z" />
    <glyph glyph-name="Racute" unicode="&#x154;" horiz-adv-x="643" 
d="M40 730h278q73 0 135.5 -36.5t99 -99t36.5 -135.5t-36 -128t-98 -85t-137 -30h-84v-216h-194v730zM354 188.5q-8 11.5 -24 19t-44 7.5h-82v90h71h69q61 0 96.5 -7.5t63 -33.5t49.5 -81l75 -183h-192l-65 155q-9 22 -17 33.5zM368 393q27 28 27 66q0 37 -27 65t-63 28h-71
v-187h71q36 0 63 28zM316 990h185l-147 -160h-170z" />
    <glyph glyph-name="racute" unicode="&#x155;" horiz-adv-x="402" 
d="M30 532h160v-102l34 14v-444h-194v532zM152 379q25 67 75.5 110t122.5 43h37v-178h-97q-25 0 -45.5 -20t-20.5 -46l-97 -46q0 70 25 137zM248 792h185l-147 -160h-170z" />
    <glyph glyph-name="uni0156" unicode="&#x156;" horiz-adv-x="643" 
d="M40 730h278q73 0 135.5 -36.5t99 -99t36.5 -135.5t-36 -128t-98 -85t-137 -30h-84v-216h-194v730zM354 188.5q-8 11.5 -24 19t-44 7.5h-82v90h71h69q61 0 96.5 -7.5t63 -33.5t49.5 -81l75 -183h-192l-65 155q-9 22 -17 33.5zM368 393q27 28 27 66q0 37 -27 65t-63 28h-71
v-187h71q36 0 63 28zM301 -307q-19 0 -37.5 13.5t-30.5 35t-12 45.5q0 47 32.5 80t79.5 33q51 0 82 -33t31 -77q0 -59 -31 -131.5t-97 -153.5l-102 69q39 48 85 119z" />
    <glyph glyph-name="uni0157" unicode="&#x157;" horiz-adv-x="402" 
d="M30 532h160v-102l34 14v-444h-194v532zM152 379q25 67 75.5 110t122.5 43h37v-178h-97q-25 0 -45.5 -20t-20.5 -46l-97 -46q0 70 25 137zM110 -307q-19 0 -37.5 13.5t-30.5 35t-12 45.5q0 47 32.5 80t79.5 33q51 0 82 -33t31 -77q0 -59 -31 -131.5t-97 -153.5l-102 69
q39 48 85 119z" />
    <glyph glyph-name="Rcaron" unicode="&#x158;" horiz-adv-x="643" 
d="M40 730h278q73 0 135.5 -36.5t99 -99t36.5 -135.5t-36 -128t-98 -85t-137 -30h-84v-216h-194v730zM354 188.5q-8 11.5 -24 19t-44 7.5h-82v90h71h69q61 0 96.5 -7.5t63 -33.5t49.5 -81l75 -183h-192l-65 155q-9 22 -17 33.5zM368 393q27 28 27 66q0 37 -27 65t-63 28h-71
v-187h71q36 0 63 28zM365 830h-192l-128 160h140l84 -77l84 77h140z" />
    <glyph glyph-name="rcaron" unicode="&#x159;" horiz-adv-x="402" 
d="M30 532h160v-102l34 14v-444h-194v532zM152 379q25 67 75.5 110t122.5 43h37v-178h-97q-25 0 -45.5 -20t-20.5 -46l-97 -46q0 70 25 137zM320 631h-192l-128 160h140l84 -77l84 77h140z" />
    <glyph glyph-name="Sacute" unicode="&#x15a;" horiz-adv-x="632" 
d="M161 6q-82 20 -141 52l66 164q42 -21 108 -37.5t115 -16.5q48 0 79.5 11t31.5 32q0 18 -19.5 27.5t-66.5 21.5l-49 14q-100 30 -155.5 63.5t-77.5 76t-22 101.5q0 70 39.5 122t109.5 80.5t159 28.5q115 0 250 -50l-65 -168q-106 36 -187 36q-50 0 -81 -13t-31 -36
q0 -16 11.5 -25.5t35 -17t83.5 -22.5q105 -26 162 -60t77.5 -73t20.5 -88q0 -74 -38 -129t-105.5 -84.5t-154.5 -29.5q-73 0 -155 20zM351 990h185l-147 -160h-170z" />
    <glyph glyph-name="sacute" unicode="&#x15b;" horiz-adv-x="557" 
d="M146.5 7.5q-68.5 22.5 -121.5 61.5l81 127q96 -52 186 -52q50 0 50 15q0 7 -12.5 12t-50.5 15q-119 28 -169.5 69t-50.5 114q0 52 29.5 92.5t82.5 63t122 22.5q56 0 113 -16.5t103 -43.5l-66 -135q-81 35 -150 35q-18 0 -30 -5.5t-12 -15.5q0 -9 10 -12t54 -11
q110 -20 164.5 -64.5t54.5 -115.5q0 -82 -65.5 -130t-176.5 -48q-77 0 -145.5 22.5zM326 806h185l-147 -160h-170z" />
    <glyph glyph-name="Scedilla" unicode="&#x15e;" horiz-adv-x="632" 
d="M161 6q-82 20 -141 52l66 164q42 -21 108 -37.5t115 -16.5q48 0 79.5 11t31.5 32q0 18 -19.5 27.5t-66.5 21.5l-49 14q-100 30 -155.5 63.5t-77.5 76t-22 101.5q0 70 39.5 122t109.5 80.5t159 28.5q115 0 250 -50l-65 -168q-106 36 -187 36q-50 0 -81 -13t-31 -36
q0 -16 11.5 -25.5t35 -17t83.5 -22.5q105 -26 162 -60t77.5 -73t20.5 -88q0 -74 -38 -129t-105.5 -84.5t-154.5 -29.5q-73 0 -155 20zM195 -255l19 93l81 -1q17 0 24 5t7 17q0 10 -6 16t-18 6h-62l27 114h116l-14 -62q42 -6 63.5 -27.5t21.5 -52.5q0 -50 -46 -79t-124 -29
h-89z" />
    <glyph glyph-name="scedilla" unicode="&#x15f;" horiz-adv-x="557" 
d="M146.5 7.5q-68.5 22.5 -121.5 61.5l81 127q96 -52 186 -52q50 0 50 15q0 7 -12.5 12t-50.5 15q-119 28 -169.5 69t-50.5 114q0 52 29.5 92.5t82.5 63t122 22.5q56 0 113 -16.5t103 -43.5l-66 -135q-81 35 -150 35q-18 0 -30 -5.5t-12 -15.5q0 -9 10 -12t54 -11
q110 -20 164.5 -64.5t54.5 -115.5q0 -82 -65.5 -130t-176.5 -48q-77 0 -145.5 22.5zM150 -255l19 93l81 -1q17 0 24 5t7 17q0 10 -6 16t-18 6h-62l27 114h116l-14 -62q42 -6 63.5 -27.5t21.5 -52.5q0 -50 -46 -79t-124 -29h-89z" />
    <glyph glyph-name="Scaron" unicode="&#x160;" horiz-adv-x="632" 
d="M161 6q-82 20 -141 52l66 164q42 -21 108 -37.5t115 -16.5q48 0 79.5 11t31.5 32q0 18 -19.5 27.5t-66.5 21.5l-49 14q-100 30 -155.5 63.5t-77.5 76t-22 101.5q0 70 39.5 122t109.5 80.5t159 28.5q115 0 250 -50l-65 -168q-106 36 -187 36q-50 0 -81 -13t-31 -36
q0 -16 11.5 -25.5t35 -17t83.5 -22.5q105 -26 162 -60t77.5 -73t20.5 -88q0 -74 -38 -129t-105.5 -84.5t-154.5 -29.5q-73 0 -155 20zM420 830h-192l-128 160h140l84 -77l84 77h140z" />
    <glyph glyph-name="scaron" unicode="&#x161;" horiz-adv-x="557" 
d="M146.5 7.5q-68.5 22.5 -121.5 61.5l81 127q96 -52 186 -52q50 0 50 15q0 7 -12.5 12t-50.5 15q-119 28 -169.5 69t-50.5 114q0 52 29.5 92.5t82.5 63t122 22.5q56 0 113 -16.5t103 -43.5l-66 -135q-81 35 -150 35q-18 0 -30 -5.5t-12 -15.5q0 -9 10 -12t54 -11
q110 -20 164.5 -64.5t54.5 -115.5q0 -82 -65.5 -130t-176.5 -48q-77 0 -145.5 22.5zM381 646h-192l-128 160h140l84 -77l84 77h140z" />
    <glyph glyph-name="uni0162" unicode="&#x162;" horiz-adv-x="568" 
d="M185 552h-176v178h550v-178h-180v-552h-194v552zM191 -249l19 93l81 -1q17 0 24 5t7 17q0 10 -6 16t-18 6h-62l27 114h116l-14 -62q42 -6 63.5 -27.5t21.5 -52.5q0 -50 -46 -79t-124 -29h-89z" />
    <glyph glyph-name="uni0163" unicode="&#x163;" horiz-adv-x="486" 
d="M125 352h-110v180h434v-178h-130v-156q0 -9 6 -14.5t16 -5.5h118v-178h-130q-56 0 -102.5 26t-74 71t-27.5 101v154zM125 532v158h194v-158h-194zM170 -236l19 93l81 -1q17 0 24 5t7 17q0 10 -6 16t-18 6h-62l27 114h116l-14 -62q42 -6 63.5 -27.5t21.5 -52.5
q0 -50 -46 -79t-124 -29h-89z" />
    <glyph glyph-name="Tcaron" unicode="&#x164;" horiz-adv-x="568" 
d="M185 552h-176v178h550v-178h-180v-552h-194v552zM379 830h-192l-128 160h140l84 -77l84 77h140z" />
    <glyph glyph-name="tcaron" unicode="&#x165;" horiz-adv-x="486" 
d="M125 352h-110v180h434v-178h-130v-156q0 -9 6 -14.5t16 -5.5h118v-178h-130q-56 0 -102.5 26t-74 71t-27.5 101v154zM125 532v158h194v-158h-194zM318 789h-192l-128 160h140l84 -77l84 77h140z" />
    <glyph glyph-name="Tbar" unicode="&#x166;" horiz-adv-x="568" 
d="M143 447h282v-164h-282v164zM185 552h-176v178h550v-178h-180v-552h-194v552z" />
    <glyph glyph-name="tbar" unicode="&#x167;" horiz-adv-x="486" 
d="M80 327h282v-120h-282v120zM125 352h-110v180h434v-178h-130v-156q0 -9 6 -14.5t16 -5.5h118v-178h-130q-56 0 -102.5 26t-74 71t-27.5 101v154zM125 532v158h194v-158h-194z" />
    <glyph glyph-name="Umacron" unicode="&#x16a;" horiz-adv-x="684" 
d="M190.5 34.5q-69.5 40.5 -110 110t-40.5 151.5v434h194v-444q0 -44 32 -76t76 -32t76 32t32 76v444h194v-434q0 -82 -40.5 -151.5t-110 -110t-151.5 -40.5t-151.5 40.5zM493 830h-304v118h304v-118z" />
    <glyph glyph-name="umacron" unicode="&#x16b;" horiz-adv-x="557" 
d="M129 17.5q-49 32.5 -76.5 88t-27.5 121.5v305h194v-299q0 -22 17 -39t41 -17q22 0 39 17t17 39h97q0 -60 -21.5 -117.5t-64.5 -94t-105 -36.5q-61 0 -110 32.5zM367 89h-34v443h194v-532h-160v89zM426 632h-304v118h304v-118z" />
    <glyph glyph-name="Uring" unicode="&#x16e;" horiz-adv-x="684" 
d="M190.5 34.5q-69.5 40.5 -110 110t-40.5 151.5v434h194v-444q0 -44 32 -76t76 -32t76 32t32 76v444h194v-434q0 -82 -40.5 -151.5t-110 -110t-151.5 -40.5t-151.5 40.5zM274.5 848q-32.5 18 -51 48.5t-18.5 67.5t18.5 67.5t51 48.5t70.5 18t70.5 -18t51 -48.5t18.5 -67.5
t-18.5 -67.5t-51 -48.5t-70.5 -18t-70.5 18zM383.5 925q15.5 15 15.5 39t-15.5 39t-38.5 15t-38.5 -15t-15.5 -39t15.5 -39t38.5 -15t38.5 15z" />
    <glyph glyph-name="uring" unicode="&#x16f;" horiz-adv-x="557" 
d="M129 17.5q-49 32.5 -76.5 88t-27.5 121.5v305h194v-299q0 -22 17 -39t41 -17q22 0 39 17t17 39h97q0 -60 -21.5 -117.5t-64.5 -94t-105 -36.5q-61 0 -110 32.5zM367 89h-34v443h194v-532h-160v89zM198.5 650q-32.5 18 -51 48.5t-18.5 67.5t18.5 67.5t51 48.5t70.5 18
t70.5 -18t51 -48.5t18.5 -67.5t-18.5 -67.5t-51 -48.5t-70.5 -18t-70.5 18zM307.5 727q15.5 15 15.5 39t-15.5 39t-38.5 15t-38.5 -15t-15.5 -39t15.5 -39t38.5 -15t38.5 15z" />
    <glyph glyph-name="Uhungarumlaut" unicode="&#x170;" horiz-adv-x="684" 
d="M190.5 34.5q-69.5 40.5 -110 110t-40.5 151.5v434h194v-444q0 -44 32 -76t76 -32t76 32t32 76v444h194v-434q0 -82 -40.5 -151.5t-110 -110t-151.5 -40.5t-151.5 40.5zM471 990h185l-147 -160h-170zM247 990h185l-147 -160h-170z" />
    <glyph glyph-name="uhungarumlaut" unicode="&#x171;" horiz-adv-x="557" 
d="M129 17.5q-49 32.5 -76.5 88t-27.5 121.5v305h194v-299q0 -22 17 -39t41 -17q22 0 39 17t17 39h97q0 -60 -21.5 -117.5t-64.5 -94t-105 -36.5q-61 0 -110 32.5zM367 89h-34v443h194v-532h-160v89zM415 792h185l-147 -160h-170zM191 792h185l-147 -160h-170z" />
    <glyph glyph-name="Uogonek" unicode="&#x172;" horiz-adv-x="684" 
d="M190.5 34.5q-69.5 40.5 -110 110t-40.5 151.5v434h194v-444q0 -44 32 -76t76 -32t76 32t32 76v444h194v-434q0 -82 -40.5 -151.5t-110 -110t-151.5 -40.5t-151.5 40.5zM236 -196q-42 33 -42 90q0 55 43.5 98t123.5 68l79 -49q-55 -25 -84.5 -47.5t-29.5 -49.5
q0 -19 13.5 -30t39.5 -11h57v-102h-84q-74 0 -116 33z" />
    <glyph glyph-name="uogonek" unicode="&#x173;" horiz-adv-x="557" 
d="M129 17.5q-49 32.5 -76.5 88t-27.5 121.5v305h194v-299q0 -22 17 -39t41 -17q22 0 39 17t17 39h97q0 -60 -21.5 -117.5t-64.5 -94t-105 -36.5q-61 0 -110 32.5zM367 89h-34v443h194v-532h-160v89zM323 -207q-42 33 -42 90q0 55 43.5 98t123.5 68l79 -49
q-55 -25 -84.5 -47.5t-29.5 -49.5q0 -19 13.5 -30t39.5 -11h57v-102h-84q-74 0 -116 33z" />
    <glyph glyph-name="Wcircumflex" unicode="&#x174;" horiz-adv-x="936" 
d="M8 730h190l56 -536l95 474h238l95 -474l56 536h190l-117 -730h-262l-81 497l-81 -497h-262zM451 845l-84 -77h-140l128 160h192l128 -160h-140z" />
    <glyph glyph-name="wcircumflex" unicode="&#x175;" horiz-adv-x="753" 
d="M7 532h188l43 -267l63 245h162l63 -245l33 267h187l-79 -532h-217l-68 247l-67 -247h-214zM385 687l-84 -77h-140l128 160h192l128 -160h-140z" />
    <glyph glyph-name="Ycircumflex" unicode="&#x176;" horiz-adv-x="634" 
d="M217 256l-209 474h208l96 -240l104 240h210l-215 -474v-256h-194v256zM313 907l-84 -77h-140l128 160h192l128 -160h-140z" />
    <glyph glyph-name="ycircumflex" unicode="&#x177;" horiz-adv-x="591" 
d="M59 -62h109q26 0 47.5 16.5t28.5 41.5l143 536h197l-155 -578q-13 -57 -48.5 -103t-87 -72.5t-110.5 -26.5h-124v186zM7 532h196l127 -532h-195zM295 709l-84 -77h-140l128 160h192l128 -160h-140z" />
    <glyph glyph-name="Ydieresis" unicode="&#x178;" horiz-adv-x="634" 
d="M217 256l-209 474h208l96 -240l104 240h210l-215 -474v-256h-194v256zM159 855q-26 26 -26 63t26 63t63 26t63 -26t26 -63t-26 -63t-63 -26t-63 26zM355 855q-26 26 -26 63t26 63t63 26t63 -26t26 -63t-26 -63t-63 -26t-63 26z" />
    <glyph glyph-name="Zacute" unicode="&#x179;" horiz-adv-x="592" 
d="M572 0h-552v215l328 337h-328v178h552v-215l-325 -337h324zM303 990h185l-147 -160h-170z" />
    <glyph glyph-name="zacute" unicode="&#x17a;" horiz-adv-x="522" 
d="M492 0h-462v180l207 174h-218v178h485v-178l-200 -176h188v-178zM295 793h185l-147 -160h-170z" />
    <glyph glyph-name="Zdotaccent" unicode="&#x17b;" horiz-adv-x="592" 
d="M572 0h-552v215l328 337h-328v178h552v-215l-325 -337h324zM226 855q-26 26 -26 63t26 63t63 26t63 -26t26 -63t-26 -63t-63 -26t-63 26z" />
    <glyph glyph-name="zdotaccent" unicode="&#x17c;" horiz-adv-x="522" 
d="M492 0h-462v180l207 174h-218v178h485v-178l-200 -176h188v-178zM199 653q-26 26 -26 63t26 63t63 26t63 -26t26 -63t-26 -63t-63 -26t-63 26z" />
    <glyph glyph-name="Zcaron" unicode="&#x17d;" horiz-adv-x="592" 
d="M572 0h-552v215l328 337h-328v178h552v-215l-325 -337h324zM386 830h-192l-128 160h140l84 -77l84 77h140z" />
    <glyph glyph-name="zcaron" unicode="&#x17e;" horiz-adv-x="522" 
d="M492 0h-462v180l207 174h-218v178h485v-178l-200 -176h188v-178zM365 632h-192l-128 160h140l84 -77l84 77h140z" />
    <glyph glyph-name="uni0218" unicode="&#x218;" horiz-adv-x="632" 
d="M161 6q-82 20 -141 52l66 164q42 -21 108 -37.5t115 -16.5q48 0 79.5 11t31.5 32q0 18 -19.5 27.5t-66.5 21.5l-49 14q-100 30 -155.5 63.5t-77.5 76t-22 101.5q0 70 39.5 122t109.5 80.5t159 28.5q115 0 250 -50l-65 -168q-106 36 -187 36q-50 0 -81 -13t-31 -36
q0 -16 11.5 -25.5t35 -17t83.5 -22.5q105 -26 162 -60t77.5 -73t20.5 -88q0 -74 -38 -129t-105.5 -84.5t-154.5 -29.5q-73 0 -155 20zM278 -307q-19 0 -37.5 13.5t-30.5 35t-12 45.5q0 47 32.5 80t79.5 33q51 0 82 -33t31 -77q0 -59 -31 -131.5t-97 -153.5l-102 69
q39 48 85 119z" />
    <glyph glyph-name="uni0219" unicode="&#x219;" horiz-adv-x="557" 
d="M146.5 7.5q-68.5 22.5 -121.5 61.5l81 127q96 -52 186 -52q50 0 50 15q0 7 -12.5 12t-50.5 15q-119 28 -169.5 69t-50.5 114q0 52 29.5 92.5t82.5 63t122 22.5q56 0 113 -16.5t103 -43.5l-66 -135q-81 35 -150 35q-18 0 -30 -5.5t-12 -15.5q0 -9 10 -12t54 -11
q110 -20 164.5 -64.5t54.5 -115.5q0 -82 -65.5 -130t-176.5 -48q-77 0 -145.5 22.5zM257 -316q-19 0 -37.5 13.5t-30.5 35t-12 45.5q0 47 32.5 80t79.5 33q51 0 82 -33t31 -77q0 -59 -31 -131.5t-97 -153.5l-102 69q39 48 85 119z" />
    <glyph glyph-name="uni021A" unicode="&#x21a;" horiz-adv-x="568" 
d="M185 552h-176v178h550v-178h-180v-552h-194v552zM250 -307q-19 0 -37.5 13.5t-30.5 35t-12 45.5q0 47 32.5 80t79.5 33q51 0 82 -33t31 -77q0 -59 -31 -131.5t-97 -153.5l-102 69q39 48 85 119z" />
    <glyph glyph-name="uni021B" unicode="&#x21b;" horiz-adv-x="486" 
d="M125 352h-110v180h434v-178h-130v-156q0 -9 6 -14.5t16 -5.5h118v-178h-130q-56 0 -102.5 26t-74 71t-27.5 101v154zM125 532v158h194v-158h-194zM264 -307q-19 0 -37.5 13.5t-30.5 35t-12 45.5q0 47 32.5 80t79.5 33q51 0 82 -33t31 -77q0 -59 -31 -131.5t-97 -153.5
l-102 69q39 48 85 119z" />
    <glyph glyph-name="tilde" unicode="&#x2dc;" horiz-adv-x="548" 
d="M305 606q-23 9 -50 28q-19 12 -29 17t-19 5q-19 0 -31 -13t-14 -36h-107q2 81 38.5 127t99.5 46q27 0 50 -9t50 -28q18 -12 28 -17t20 -5q19 0 31 12.5t14 33.5h107q-2 -78 -39 -124t-99 -46q-27 0 -50 9z" />
    <glyph glyph-name="gravecomb" unicode="&#x300;" 
d="M45 890h185l132 -160h-170z" />
    <glyph glyph-name="acutecomb" unicode="&#x301;" 
d="M177 890h185l-147 -160h-170z" />
    <glyph glyph-name="uni0302" unicode="&#x302;" 
d="M269 807l-84 -77h-140l128 160h192l128 -160h-140z" />
    <glyph glyph-name="tildecomb" unicode="&#x303;" 
d="M296.5 739q-21.5 9 -51.5 28q-19 12 -29 17t-19 5q-19 0 -31 -13t-14 -36h-107q2 81 38.5 127t99.5 46q27 0 50 -9t50 -28q18 -12 28 -17t20 -5q19 0 31 12.5t14 33.5h107q-2 -78 -39 -124t-99 -46q-27 0 -48.5 9z" />
    <glyph glyph-name="uni0304" unicode="&#x304;" 
d="M349 730h-304v118h304v-118z" />
    <glyph glyph-name="uni0306" unicode="&#x306;" 
d="M106 776q-57 46 -61 124h135q2 -28 22.5 -44.5t51.5 -16.5t51.5 16.5t22.5 44.5h135q-4 -78 -61 -124t-148 -46t-148 46z" />
    <glyph glyph-name="uni0307" unicode="&#x307;" 
d="M71 755q-26 26 -26 63t26 63t63 26t63 -26t26 -63t-26 -63t-63 -26t-63 26z" />
    <glyph glyph-name="uni0308" unicode="&#x308;" 
d="M71 755q-26 26 -26 63t26 63t63 26t63 -26t26 -63t-26 -63t-63 -26t-63 26zM267 755q-26 26 -26 63t26 63t63 26t63 -26t26 -63t-26 -63t-63 -26t-63 26z" />
    <glyph glyph-name="uni030A" unicode="&#x30a;" 
d="M114.5 748q-32.5 18 -51 48.5t-18.5 67.5t18.5 67.5t51 48.5t70.5 18t70.5 -18t51 -48.5t18.5 -67.5t-18.5 -67.5t-51 -48.5t-70.5 -18t-70.5 18zM223.5 825q15.5 15 15.5 39t-15.5 39t-38.5 15t-38.5 -15t-15.5 -39t15.5 -39t38.5 -15t38.5 15z" />
    <glyph glyph-name="uni030B" unicode="&#x30b;" 
d="M401 890h185l-147 -160h-170zM177 890h185l-147 -160h-170z" />
    <glyph glyph-name="uni030C" unicode="&#x30c;" 
d="M365 730h-192l-128 160h140l84 -77l84 77h140z" />
    <glyph glyph-name="uni0312" unicode="&#x312;" 
d="M190 937q19 0 37.5 -13.5t30.5 -35t12 -45.5q0 -47 -32.5 -80t-79.5 -33q-51 0 -82 33t-31 77q0 59 31 131.5t97 153.5l102 -69q-39 -48 -85 -119z" />
    <glyph glyph-name="uni0326" unicode="&#x326;" 
d="M130 -207q-19 0 -37.5 13.5t-30.5 35t-12 45.5q0 47 32.5 80t79.5 33q51 0 82 -33t31 -77q0 -59 -31 -131.5t-97 -153.5l-102 69q39 48 85 119z" />
    <glyph glyph-name="uni0327" unicode="&#x327;" 
d="M45 -255l19 93l81 -1q17 0 24 5t7 17q0 10 -6 16t-18 6h-62l27 114h116l-14 -62q42 -6 63.5 -27.5t21.5 -52.5q0 -50 -46 -79t-124 -29h-89z" />
    <glyph glyph-name="uni0328" unicode="&#x328;" 
d="M87 -207q-42 33 -42 90q0 55 43.5 98t123.5 68l79 -49q-55 -25 -84.5 -47.5t-29.5 -49.5q0 -19 13.5 -30t39.5 -11h57v-102h-84q-74 0 -116 33z" />
    <glyph glyph-name="uni060C" unicode="&#x60c;" horiz-adv-x="323" 
d="M81 33q-31 33 -31 77q0 59 31 131.5t97 153.5l102 -69q-39 -48 -85 -119q19 0 37.5 -13.5t30.5 -35t12 -45.5q0 -47 -32.5 -80t-79.5 -33q-51 0 -82 33z" />
    <glyph glyph-name="uni0615" unicode="&#x615;" 
d="M-132 819h167q7 0 12 4.5t5 11.5q0 9 -4.5 14t-13.5 5q-4 0 -9 -2.5t-11.5 -7t-13.5 -8.5l-125 -76l-41 107l126 77q34 21 75 21q35 0 65 -17.5t48 -48t18 -65.5q0 -36 -17.5 -66.5t-47.5 -48.5t-66 -18h-167v118zM-131 937v125h121v-72v55q0 -37 -10 -65.5t-31 -42.5
l-90 -55q10 7 10 55z" />
    <glyph glyph-name="uni061B" unicode="&#x61b;" horiz-adv-x="323" 
d="M74 306q-31 33 -31 77q0 59 31 131.5t97 153.5l102 -69q-39 -48 -85 -119q19 0 37.5 -13.5t30.5 -35t12 -45.5q0 -47 -32.5 -80t-79.5 -33q-51 0 -82 33zM75 28.5q-31 33.5 -31 78.5q0 48 33.5 80t78.5 32q28 0 53.5 -15.5t41 -41.5t15.5 -55q0 -46 -32 -79t-78 -33
q-50 0 -81 33.5z" />
    <glyph glyph-name="uni061F" unicode="&#x61f;" horiz-adv-x="452" 
d="M152.5 288q-19.5 40 -48.5 74q-43 50 -61 91t-18 82q0 58 27 105t74 74t105 27q52 0 97.5 -23.5t75.5 -64t38 -90.5l-114 -43l-12 27q-9 17 -25 28t-36 11q-28 0 -48 -19.5t-20 -48.5q0 -23 13.5 -48t37.5 -58l19 -28q28 -43 35 -79t6 -91h-125q-1 34 -20.5 74zM168 7.5
q-29 27.5 -29 69.5q0 40 26.5 68.5t70.5 28.5q40 0 67.5 -28.5t27.5 -68.5q0 -38 -29 -67.5t-66 -29.5q-39 0 -68 27.5z" />
    <glyph glyph-name="uni0640" unicode="&#x640;" horiz-adv-x="108" 
d="M-10 10v174q0 10 10 10h108q10 0 10 -10v-174q0 -10 -10 -10h-108q-10 0 -10 10z" />
    <glyph glyph-name="uni064B" unicode="&#x64b;" 
d="M-176 1021l305 112l47 -130l-306 -113zM-176 832l305 112l47 -130l-306 -113z" />
    <glyph glyph-name="uni064C" unicode="&#x64c;" 
d="M-198 845q0 9 -5 15l-32 39l-14 17l108 117q5 -5 21 -19.5t25.5 -27t16.5 -27.5q7 -14 7 -34q0 -16 -6 -30.5t-16 -21.5l55 20q-19 25 -19 63q0 42 20 77t55 55.5t77 20.5t77.5 -20.5t56 -55.5t20.5 -77q0 -48 -27.5 -87.5t-71.5 -55.5l-310 -113l-46 128q8 6 8 17z
M114 943q7 7 7 18t-7 18t-18 7t-18 -7t-7 -18t7 -18t18 -7t18 7z" />
    <glyph glyph-name="uni064D" unicode="&#x64d;" 
d="M-176 -112l305 112l47 -130l-306 -113zM-176 -301l305 112l47 -130l-306 -113z" />
    <glyph glyph-name="uni064E" unicode="&#x64e;" 
d="M-176 832l305 112l47 -130l-306 -113z" />
    <glyph glyph-name="uni064F" unicode="&#x64f;" 
d="M-130 918q0 42 20 77t55 55.5t77 20.5t77.5 -20.5t56 -55.5t20.5 -77q0 -48 -27.5 -87.5t-71.5 -55.5l-207 -75l-46 131l65 24q-19 25 -19 63zM5 905q7 -7 18 -7t18 7t7 18t-7 18t-18 7t-18 -7t-7 -18t7 -18z" />
    <glyph glyph-name="uni0650" unicode="&#x650;" 
d="M-176 -112l305 112l47 -130l-306 -113z" />
    <glyph glyph-name="uni0651" unicode="&#x651;" 
d="M-192 910h119v-83q0 -8 8 -8t8 8v70h113v-70q0 -8 8 -8t8 8v83h119v-83q0 -53 -36.5 -90t-89.5 -37q-41 0 -66 25q-23 -25 -65 -25q-53 0 -89.5 37t-36.5 90v83z" />
    <glyph glyph-name="uni0652" unicode="&#x652;" 
d="M-76.5 720.5q-35.5 20.5 -56 56t-20.5 76.5t20.5 76.5t56 56t76.5 20.5t76.5 -20.5t56 -56t20.5 -76.5t-20.5 -76.5t-56 -56t-76.5 -20.5t-76.5 20.5zM-18 835q7 -7 18 -7t18 7t7 18t-7 18t-18 7t-18 -7t-7 -18t7 -18z" />
    <glyph glyph-name="uni0653" unicode="&#x653;" 
d="M-170 883.5q34 30.5 82 30.5h292v-139h-264q-13 0 -18.5 -5t-5.5 -17v-53h-120v98q0 55 34 85.5z" />
    <glyph glyph-name="uni0654" unicode="&#x654;" 
d="M-176 832l62 24q-17 19 -26 45q-5 14 -5 33q0 40 26.5 75.5t71.5 50.5l91 31l47 -130l-76 -28q-11 -3 -11 -13q0 -6 4 -11t11 -5l8 2l102 37l47 -129l-306 -113z" />
    <glyph glyph-name="uni0655" unicode="&#x655;" 
d="M-176 -259l62 24q-17 19 -26 45q-5 14 -5 33q0 40 26.5 75.5t71.5 50.5l91 31l47 -130l-76 -28q-11 -3 -11 -13q0 -6 4 -11t11 -5l8 2l102 37l47 -129l-306 -113z" />
    <glyph glyph-name="uni0656" unicode="&#x656;" 
d="M56 0v-160h-113v160h113z" />
    <glyph glyph-name="uni0658" unicode="&#x658;" 
d="M-55 966v-55q0 -23 15 -38t40 -15t40 15t15 38v76h125v-76q0 -51 -24 -94t-65.5 -68t-90.5 -25t-90.5 25t-65.5 68t-24 94v55h125z" />
    <glyph glyph-name="uni065A" unicode="&#x65a;" 
d="M-47 922q47 -24 47 -78q0 54 47 78t126 22v-136q-38 -3 -61.5 -10.5t-39 -30t-15.5 -67.5h-113q0 45 -15.5 67.5t-39 30t-62.5 10.5v136q79 2 126 -22z" />
    <glyph glyph-name="uni065B" unicode="&#x65b;" 
d="M-110.5 846.5q23.5 7.5 39 30t15.5 67.5h113q0 -45 15.5 -67.5t39 -30t61.5 -10.5v-136q-79 -2 -126 22t-47 78q0 -54 -47 -78t-126 -22v136q39 3 62.5 10.5z" />
    <glyph glyph-name="uni0660" unicode="&#x660;" horiz-adv-x="262" 
d="M52.5 84.5q-32.5 32.5 -32.5 79.5q0 46 32.5 78t79.5 32q46 0 78 -32t32 -78q0 -47 -32 -79.5t-78 -32.5q-47 0 -79.5 32.5z" />
    <glyph glyph-name="uni0661" unicode="&#x661;" horiz-adv-x="274" 
d="M50 376q0 93 -6 172.5t-24 153.5l169 27q45 -105 45 -466v-263h-184v299v77z" />
    <glyph glyph-name="uni0662" unicode="&#x662;" horiz-adv-x="507" 
d="M124 365.5q-49 66.5 -49 169.5l150 -1q0 -18 11 -29.5t30 -11.5q18 0 28.5 11.5t10.5 29.5v191h182v-191q0 -64 -28.5 -118t-79 -85.5t-113.5 -31.5q-93 0 -142 66.5zM50 376q0 93 -6 172.5t-24 153.5l169 27q45 -105 45 -466v-263h-184v299v77z" />
    <glyph glyph-name="uni0663" unicode="&#x663;" horiz-adv-x="705" 
d="M349.5 346q-42.5 57 -42.5 147v204h147v-192q0 -10 5.5 -16t15.5 -6t15.5 6t5.5 16v220h189v-232q0 -55 -28.5 -102t-76.5 -74.5t-105 -27.5q-83 0 -125.5 57zM50 376q0 93 -6 172.5t-24 153.5l169 27q45 -105 45 -466v-263h-184v299v77zM122 346.5q-44 57.5 -44 146.5
l150 12q0 -10 5.5 -16t15.5 -6t15.5 6t5.5 16v192h147v-204q0 -90 -42.5 -147t-125.5 -57t-127 57.5z" />
    <glyph glyph-name="uni0664" unicode="&#x664;" horiz-adv-x="458" 
d="M151.5 24q-50.5 25 -84.5 71t-44 103q-3 20 -3 39q0 54 25.5 101t70.5 78t101 39l181 28l31 -179l-181 -32q-16 -2 -25.5 -11t-9.5 -22q0 -20 13 -33.5t31 -10.5h181v-195h-180q-56 -1 -106.5 24zM156.5 312q-50.5 30 -80 80.5t-29.5 111.5q0 60 29.5 111t80 80.5
t110.5 29.5h130v-185h-130q-15 0 -25.5 -10t-10.5 -26q0 -17 9.5 -28.5t24.5 -11.5h6.5t9.5 1l15 -183h-29q-60 0 -110.5 30z" />
    <glyph glyph-name="uni0665" unicode="&#x665;" horiz-adv-x="708" 
d="M84 51q-64 73 -64 192q0 76 26.5 137.5t73.5 117t139 147.5q28 28 34 35l134 -121q-5 -5 -16 -13.5t-18 -20.5q-80 -80 -118.5 -134t-49.5 -91t-11 -82q0 -34 15.5 -51t31.5 -17h186q16 0 31.5 17t15.5 51q0 45 -11 82t-50 91.5t-120 135.5q-7 10 -64.5 69t-83.5 84
l134 121q23 -25 71 -74.5t75 -77.5q93 -93 141 -149.5t75 -118.5t27 -138q0 -119 -64 -192t-189 -73h-162q-125 0 -189 73z" />
    <glyph glyph-name="uni0666" unicode="&#x666;" horiz-adv-x="548" 
d="M314 447v273h184v-309v-77q0 -93 6 -172.5t24 -153.5l-169 -27q-45 105 -45 466zM15 558l17 179q33 -6 100.5 -11.5t127.5 -5.5h232v-184h-236q-97 0 -241 22z" />
    <glyph glyph-name="uni0667" unicode="&#x667;" horiz-adv-x="641" 
d="M506 342q-42 -113 -67.5 -198.5t-24.5 -143.5h-183q-5 119 117 448l110 298l173 -63l-108 -296zM183 746l110 -298q122 -329 117 -448h-183q1 58 -24.5 143.5t-67.5 198.5l-17 45l-108 296z" />
    <glyph glyph-name="uni0668" unicode="&#x668;" horiz-adv-x="641" 
d="M10 42l108 296l17 45q42 113 67.5 198.5t24.5 143.5h183q5 -119 -117 -448l-110 -298zM231 725h183q-1 -58 24.5 -143.5t67.5 -198.5l17 -45l108 -296l-173 -63l-110 298q-122 329 -117 448z" />
    <glyph glyph-name="uni0669" unicode="&#x669;" horiz-adv-x="526" 
d="M302 121q-10 82 -10 140v6h-37q-64 0 -118 28.5t-85.5 79t-31.5 113.5q0 64 32 118t85.5 85.5t117.5 31.5q63 0 113.5 -31.5t79 -85.5t28.5 -118v-77v-77q0 -93 6 -172.5t24 -153.5l-169 -27q-25 58 -35 140zM292 449v39q0 19 -10 30t-27 11q-18 0 -29.5 -11t-11.5 -30
q0 -18 11.5 -28.5t29.5 -10.5h37z" />
    <glyph glyph-name="uni066A" unicode="&#x66a;" horiz-adv-x="560" 
d="M20 81l392 632l128 -80l-393 -631zM347.5 13.5q-25.5 15.5 -41 41.5t-15.5 55q0 46 32 79t78 33q50 0 81 -33.5t31 -78.5q0 -48 -33.5 -80t-78.5 -32q-28 0 -53.5 15.5zM80.5 467.5q-25.5 15.5 -41 41.5t-15.5 55q0 46 32 79t78 33q50 0 81 -33.5t31 -78.5
q0 -48 -33.5 -80t-78.5 -32q-28 0 -53.5 15.5z" />
    <glyph glyph-name="uni066B" unicode="&#x66b;" horiz-adv-x="371" 
d="M24 -47q12 29 64 147.5t135 310.5h143l-201 -458h-141z" />
    <glyph glyph-name="uni066C" unicode="&#x66c;" horiz-adv-x="337" 
d="M128 10q-19 0 -37.5 13.5t-30.5 35t-12 45.5q0 47 32.5 80t79.5 33q51 0 82 -33t31 -77q0 -59 -31 -131.5t-97 -153.5l-102 69q39 48 85 119z" />
    <glyph glyph-name="uni066D" unicode="&#x66d;" horiz-adv-x="554" 
d="M289.5 337q-6.5 17 -8.5 53l-4 47l58 42q22 -10 45 -20q31 -14 45 -25.5t42 -49.5l22 -30l-142 -104l-22 30q-29 40 -35.5 57zM427 461q-12 0 -44 7q-45 11 -48 11l-22 69l33 36q23 26 37.5 35.5t60.5 24.5l36 11l54 -167l-35 -11q-48 -16 -72 -16zM217 589
q-18 31 -22.5 48.5t-4.5 65.5v37h176v-37q0 -48 -5 -66t-24 -49l-24 -40h-72q-18 33 -24 41zM20 490l55 167l35 -11q33 -11 48.5 -18t25.5 -16t27 -30l30 -34l-22 -69l-49 -10q-30 -7 -42 -7q-21 0 -73 17zM63 355l22 30q29 39 43.5 50.5t48.5 25.5q7 3 17.5 7t24.5 11
l58 -42q-2 -15 -5 -48q-3 -35 -10 -52t-35 -56l-22 -29z" />
    <glyph glyph-name="uni066E" unicode="&#x66e;" horiz-adv-x="847" 
d="M167 37q-63 37 -100 100t-37 137v132h184v-122q0 -37 26.5 -63.5t63.5 -26.5h300q18 0 28.5 11.5t10.5 29.5v171h184v-171q0 -64 -29 -118t-80 -85.5t-114 -31.5h-300q-74 0 -137 37z" />
    <glyph glyph-name="uni066F" unicode="&#x66f;" horiz-adv-x="743" 
d="M294 339q32 54 85.5 85.5t117.5 31.5v0q63 0 113.5 -31.5t79 -85.5t28.5 -118v-216q0 -93 -46 -172t-125 -125.5t-173 -46.5q-93 0 -172 46.5t-125.5 125.5t-46.5 172v187h184v-177q0 -42 22 -79t59 -59t79 -22q44 0 81 22t59 59t22 79v-15h-39v0q-64 0 -118 28.5
t-85.5 79t-31.5 113.5q0 64 32 118zM467.5 204.5q11.5 -10.5 29.5 -10.5v0h39v37q0 19 -11 30t-28 11v0q-18 0 -29.5 -11t-11.5 -30q0 -16 11.5 -26.5z" />
    <glyph glyph-name="uni0670" unicode="&#x670;" 
d="M56 860v-160h-113v160h113z" />
    <glyph glyph-name="uni0695" unicode="&#x695;" horiz-adv-x="295" 
d="M45 -76q28 26 34.5 51t6.5 81v350h184v-350q0 -91 -20.5 -149t-74.5 -105.5t-159 -99.5l-69 154q70 42 98 68zM99 -376q47 -24 47 -78q0 54 47 78t126 22v-136q-38 -3 -61.5 -10.5t-39 -30t-15.5 -67.5h-113q0 45 -15.5 67.5t-39 30t-62.5 10.5v136q79 2 126 -22z" />
    <glyph glyph-name="uni06A1" unicode="&#x6a1;" horiz-adv-x="847" 
d="M167 37q-63 37 -100 100t-37 137v132h184v-122q0 -37 26.5 -63.5t63.5 -26.5h319q20 0 20 21v3h-20v0q-60 0 -110 27t-79.5 73.5t-29.5 103.5q0 61 30 112t80.5 80.5t108.5 29.5v0q58 0 104.5 -29.5t73 -80t26.5 -112.5v-219q0 -55 -27 -101.5t-73 -74t-102 -27.5h-321
q-74 0 -137 37zM655 388v41q0 16 -11.5 27.5t-27.5 11.5v0q-17 1 -28.5 -10.5t-11.5 -28.5q0 -18 11 -29.5t29 -11.5v0h39z" />
    <glyph glyph-name="uni06A4" unicode="&#x6a4;" horiz-adv-x="847" 
d="M167 37q-63 37 -100 100t-37 137v132h184v-122q0 -37 26.5 -63.5t63.5 -26.5h319q20 0 20 21v3h-20v0q-60 0 -110 27t-79.5 73.5t-29.5 103.5q0 61 30 112t80.5 80.5t108.5 29.5v0q58 0 104.5 -29.5t73 -80t26.5 -112.5v-219q0 -55 -27 -101.5t-73 -74t-102 -27.5h-321
q-74 0 -137 37zM616 388h39v41q0 16 -11.5 27.5t-27.5 11.5v0q-17 1 -28.5 -10.5t-11.5 -28.5q0 -18 11 -29.5t29 -11.5v0zM467 868h155v-155h-155v155zM622 868h155v-155h-155v155zM545 1003h155v-135h-155v135z" />
    <glyph glyph-name="uni06B5" unicode="&#x6b5;" horiz-adv-x="783" 
d="M202 -118.5q-79 46.5 -125.5 125.5t-46.5 172v187h184v-177q0 -42 22 -79t59 -59t79 -22q44 0 81 22t59 59t22 79v494h184v-504q0 -93 -46.5 -172t-126 -125.5t-173.5 -46.5q-93 0 -172 46.5zM578 955q47 -24 47 -78q0 54 47 78t126 22v-136q-38 -3 -61.5 -10.5t-39 -30
t-15.5 -67.5h-113q0 45 -15.5 67.5t-39 30t-62.5 10.5v136q79 2 126 -22z" />
    <glyph glyph-name="uni06BE" unicode="&#x6be;" horiz-adv-x="790" 
d="M318 194q16 0 26.5 11.5t10.5 25.5t-10.5 25.5t-26.5 11.5q-18 0 -27.5 -11t-9.5 -26q0 -17 10.5 -27t26.5 -10h217q19 0 30 9.5t11 27.5q0 17 -11 27t-30 10h-503v184h503q64 0 118 -28.5t85.5 -79t31.5 -113.5t-32.5 -116t-86.5 -84t-116 -31h-229q-70 0 -118.5 35
t-71.5 88.5t-23 107.5q0 47 28 95t79.5 80t117.5 32q82 0 125 -42t56.5 -89.5t13.5 -75.5q0 -82 -32 -133.5t-79 -74.5t-96 -23h-308l2 194h318z" />
    <glyph glyph-name="uni06C2" unicode="&#x6c2;" horiz-adv-x="509" 
d="M46 137.5q-16 39.5 -16 81.5q0 47 19 92t55 80l26 26l-47 45l132 129l202 -200q35 -36 53.5 -80.5t18.5 -90.5q0 -90 -64 -153q-34 -33 -77 -50t-89 -17t-89 17t-77 50q-31 31 -47 70.5zM260 192q16 0 29 13q11 11 11 24q0 16 -15 31l-26 28l-26 -26q-14 -14 -14 -30
q0 -15 12 -27q13 -13 29 -13zM47 738l82 31q-17 19 -26 45q-5 14 -5 33q0 40 26.5 75.5t71.5 50.5l91 31l47 -130l-76 -28q-11 -3 -11 -13q0 -6 4 -11t11 -5l8 2l102 37l47 -129l-326 -120z" />
    <glyph glyph-name="uni06C3" unicode="&#x6c3;" horiz-adv-x="509" 
d="M46 137.5q-16 39.5 -16 81.5q0 47 19 92t55 80l26 26l-47 45l132 129l202 -200q35 -36 53.5 -80.5t18.5 -90.5q0 -90 -64 -153q-34 -33 -77 -50t-89 -17t-89 17t-77 50q-31 31 -47 70.5zM260 192q16 0 29 13q11 11 11 24q0 16 -15 31l-26 28l-26 -26q-14 -14 -14 -30
q0 -15 12 -27q13 -13 29 -13zM63 807h155v-155h-155v155zM218 807h155v-155h-155v155z" />
    <glyph glyph-name="uni06C6" unicode="&#x6c6;" horiz-adv-x="511" 
d="M234 -76.5q42 23.5 55 40t13 36.5h-37v0q-64 0 -118 28.5t-85.5 79t-31.5 113.5q0 64 32 118t85.5 85.5t117.5 31.5v0q63 0 113.5 -31.5t79 -85.5t28.5 -118v-139q0 -103 -28 -165.5t-95 -110.5t-199 -104l-57 162q85 36 127 59.5zM302 182v39q0 19 -10 30t-27 11v0
q-18 0 -29.5 -11t-11.5 -30q0 -18 11.5 -28.5t29.5 -10.5v0h37zM196.5 621.5q-15.5 22.5 -39 30t-62.5 10.5v136q79 2 126 -22t47 -78q0 54 47 78t126 22v-136q-38 -3 -61.5 -10.5t-39 -30t-15.5 -67.5h-113q0 45 -15.5 67.5z" />
    <glyph glyph-name="uni06C7" unicode="&#x6c7;" horiz-adv-x="511" 
d="M234 -76.5q42 23.5 55 40t13 36.5h-37v0q-64 0 -118 28.5t-85.5 79t-31.5 113.5q0 64 32 118t85.5 85.5t117.5 31.5v0q63 0 113.5 -31.5t79 -85.5t28.5 -118v-139q0 -103 -28 -165.5t-95 -110.5t-199 -104l-57 162q85 36 127 59.5zM265 182h37v39q0 19 -10 30t-27 11v0
q-18 0 -29.5 -11t-11.5 -30q0 -18 11.5 -28.5t29.5 -10.5v0zM122 716q0 42 20 77t55 55.5t77 20.5t77.5 -20.5t56 -55.5t20.5 -77q0 -48 -27.5 -87.5t-71.5 -55.5l-207 -75l-46 131l65 24q-19 25 -19 63zM257 703q7 -7 18 -7t18 7t7 18t-7 18t-18 7t-18 -7t-7 -18t7 -18z
" />
    <glyph glyph-name="uni06CE" unicode="&#x6ce;" horiz-adv-x="788" 
d="M167 -188q-63 37 -100 100t-37 137v264h184v-254q0 -37 26.5 -63.5t63.5 -26.5h236q16 0 24.5 9t8.5 24q0 11 -6.5 20t-17.5 11l-273 63v149q0 62 32.5 116t87 86t118.5 32h207v-184h-209q-21 0 -36.5 -15.5t-15.5 -36.5v0l96 -22l51 -12q69 -20 112.5 -79t43.5 -134
q0 -60 -30 -111t-81 -80.5t-112 -29.5h-236q-74 0 -137 37zM138.5 544.5q-15.5 22.5 -39 30t-62.5 10.5v136q79 2 126 -22t47 -78q0 54 47 78t126 22v-136q-38 -3 -61.5 -10.5t-39 -30t-15.5 -67.5h-113q0 45 -15.5 67.5z" />
    <glyph glyph-name="uni06D3" unicode="&#x6d3;" horiz-adv-x="649" 
d="M131 29.5q-51 29.5 -81 80.5t-30 111q0 75 43.5 134t112.5 79l51 12l96 22l59 -176l-148 -34q-11 -2 -17.5 -11t-6.5 -20q0 -15 8.5 -24t24.5 -9h381v-194h-381q-61 0 -112 29.5zM34 565l82 31q-17 19 -26 45q-5 14 -5 33q0 40 26.5 75.5t71.5 50.5l91 31l47 -130
l-76 -28q-11 -3 -11 -13q0 -6 4 -11t11 -5l8 2l102 37l47 -129l-326 -120z" />
    <glyph glyph-name="uni06D4" unicode="&#x6d4;" horiz-adv-x="330" 
d="M65 194h245l-45 -194h-245z" />
    <glyph glyph-name="uni06D5" unicode="&#x6d5;" horiz-adv-x="509" 
d="M46 137.5q-16 39.5 -16 81.5q0 47 19 92t55 80l26 26l-47 45l132 129l202 -200q35 -36 53.5 -80.5t18.5 -90.5q0 -90 -64 -153q-34 -33 -77 -50t-89 -17t-89 17t-77 50q-31 31 -47 70.5zM260 192q16 0 29 13q11 11 11 24q0 16 -15 31l-26 28l-26 -26q-14 -14 -14 -30
q0 -15 12 -27q13 -13 29 -13z" />
    <glyph glyph-name="uni06F0" unicode="&#x6f0;" horiz-adv-x="473" 
d="M127.5 29q-49.5 29 -78.5 78.5t-29 108.5q0 60 29 109.5t78.5 78.5t108.5 29q60 0 109.5 -29t78.5 -78.5t29 -109.5q0 -59 -29 -108.5t-78.5 -78.5t-109.5 -29q-59 0 -108.5 29zM260.5 192.5q8.5 8.5 8.5 23.5q0 16 -8.5 24.5t-24.5 8.5q-15 0 -23.5 -8.5t-8.5 -24.5
q0 -15 8.5 -23.5t23.5 -8.5q16 0 24.5 8.5z" />
    <glyph glyph-name="uni06F1" unicode="&#x6f1;" horiz-adv-x="264" 
d="M50 376q0 93 -6 172.5t-24 153.5l169 27q45 -105 45 -466v-263h-184v299v77z" />
    <glyph glyph-name="uni06F2" unicode="&#x6f2;" horiz-adv-x="507" 
d="M124 365.5q-49 66.5 -49 169.5l150 -1q0 -18 11 -29.5t30 -11.5q18 0 28.5 11.5t10.5 29.5v191h182v-191q0 -64 -28.5 -118t-79 -85.5t-113.5 -31.5q-93 0 -142 66.5zM50 376q0 93 -6 172.5t-24 153.5l169 27q45 -105 45 -466v-263h-184v299v77z" />
    <glyph glyph-name="uni06F3" unicode="&#x6f3;" horiz-adv-x="705" 
d="M349.5 346q-42.5 57 -42.5 147v204h147v-192q0 -10 5.5 -16t15.5 -6q11 0 18.5 6t7.5 16v220h184v-232q0 -55 -28.5 -102t-76.5 -74.5t-105 -27.5q-83 0 -125.5 57zM50 376q0 93 -6 172.5t-24 153.5l169 27q45 -105 45 -466v-263h-184v299v77zM122 346.5
q-44 57.5 -44 146.5l150 12q0 -10 5.5 -16t15.5 -6t15.5 6t5.5 16v192h147v-204q0 -90 -42.5 -147t-125.5 -57t-127 57.5z" />
    <glyph glyph-name="uni06F4" unicode="&#x6f4;" horiz-adv-x="621" 
d="M50 376q0 93 -6 172.5t-24 153.5l169 27q45 -105 45 -466v-263h-184v299v77zM214.5 299q-47.5 30 -73.5 81.5t-26 116.5l110 7q0 -18 11 -29.5t30 -11.5h279v-194h-219q-64 0 -111.5 30zM381 301q-54 32 -85.5 85.5t-31.5 117.5q0 63 31.5 113.5t85.5 79t118 28.5h88
v-184h-88q-19 0 -30 -10t-11 -27q0 -18 11 -29.5t30 -11.5h102v-194h-102q-64 0 -118 32z" />
    <glyph glyph-name="uni06F5" unicode="&#x6f5;" horiz-adv-x="768" 
d="M399 23.5q-30 26.5 -36 64t-6 102.5v79h119v-69q0 -13 8.5 -22t22.5 -9q21 0 34 8t13 40q0 34 -11 67.5t-50.5 87.5t-119.5 134q-7 10 -70 75.5t-91 93.5l134 121l159 -168q93 -93 141 -148.5t75 -113t27 -124.5q0 -116 -63 -180.5t-190 -64.5q-66 0 -96 26.5zM83 61.5
q-63 64.5 -63 180.5q0 66 26.5 123t74 112.5t138.5 146.5l61 61l134 -121q-6 -5 -29.5 -26.5t-31.5 -33.5q-79 -79 -118 -132.5t-50 -87t-11 -67.5q0 -32 13 -40t34 -8q14 0 22.5 9t8.5 22v69h119v-79q0 -65 -6 -102.5t-36 -64t-96 -26.5q-127 0 -190 64.5z" />
    <glyph glyph-name="uni06F6" unicode="&#x6f6;" horiz-adv-x="573" 
d="M34 48l136 237q164 290 256 360l127 -114q-45 -36 -90.5 -108t-106.5 -183l-30 -53l-133 -231zM36 403.5q-16 39.5 -16 81.5q0 46 19.5 90.5t56.5 79.5l116 107l129 -129l-116 -107q-15 -12 -15 -31q0 -15 12 -26q13 -11 30 -11q25 0 36 20l124 -83q-126 -110 -220 -110
q-61 0 -108 47q-32 32 -48 71.5z" />
    <glyph glyph-name="uni06F7" unicode="&#x6f7;" horiz-adv-x="641" 
d="M506 342q-42 -113 -67.5 -198.5t-24.5 -143.5h-183q-5 119 117 448l110 298l173 -63l-108 -296zM183 746l110 -298q122 -329 117 -448h-183q1 58 -24.5 143.5t-67.5 198.5l-17 45l-108 296z" />
    <glyph glyph-name="uni06F8" unicode="&#x6f8;" horiz-adv-x="641" 
d="M135 383q42 113 67.5 198.5t24.5 143.5h183q5 -119 -117 -448l-110 -298l-173 63l108 296zM458 -21l-110 298q-122 329 -117 448h183q-1 -58 24.5 -143.5t67.5 -198.5l17 -45l108 -296z" />
    <glyph glyph-name="uni06F9" unicode="&#x6f9;" horiz-adv-x="526" 
d="M302 121q-10 82 -10 140v6h-37q-64 0 -118 28.5t-85.5 79t-31.5 113.5q0 64 32 118t85.5 85.5t117.5 31.5q63 0 113.5 -31.5t79 -85.5t28.5 -118v-77v-77q0 -93 6 -172.5t24 -153.5l-169 -27q-25 58 -35 140zM292 449v39q0 19 -10 30t-27 11q-18 0 -29.5 -11t-11.5 -30
q0 -18 11.5 -28.5t29.5 -10.5h37z" />
    <glyph glyph-name="uni0756" unicode="&#x756;" horiz-adv-x="847" 
d="M167 37q-63 37 -100 100t-37 137v132h184v-122q0 -37 26.5 -63.5t63.5 -26.5h300q18 0 28.5 11.5t10.5 29.5v171h184v-171q0 -64 -29 -118t-80 -85.5t-114 -31.5h-300q-74 0 -137 37zM373.5 473.5q-15.5 22.5 -39 30t-62.5 10.5v136q79 2 126 -22t47 -78q0 54 47 78
t126 22v-136q-38 -3 -61.5 -10.5t-39 -30t-15.5 -67.5h-113q0 45 -15.5 67.5z" />
    <glyph glyph-name="uni0769" unicode="&#x769;" horiz-adv-x="745" 
d="M202 -118.5q-79 46.5 -125.5 125.5t-46.5 172v187h184v-177q0 -42 22 -79t59 -59t79 -22q44 0 81 22t59 59t22 79v217h184v-227q0 -93 -46.5 -172t-126 -125.5t-173.5 -46.5q-93 0 -172 46.5zM293 521h155v-155h-155v155zM298.5 668.5q-15.5 22.5 -39 30t-62.5 10.5v136
q79 2 126 -22t47 -78q0 54 47 78t126 22v-136q-38 -3 -61.5 -10.5t-39 -30t-15.5 -67.5h-113q0 45 -15.5 67.5z" />
    <glyph glyph-name="uni08A0" unicode="&#x8a0;" horiz-adv-x="847" 
d="M167 37q-63 37 -100 100t-37 137v132h184v-122q0 -37 26.5 -63.5t63.5 -26.5h300q18 0 28.5 11.5t10.5 29.5v171h184v-171q0 -64 -29 -118t-80 -85.5t-114 -31.5h-300q-74 0 -137 37zM373.5 -275.5q-15.5 22.5 -39 30t-62.5 10.5v136q79 2 126 -22t47 -78q0 54 47 78
t126 22v-136q-38 -3 -61.5 -10.5t-39 -30t-15.5 -67.5h-113q0 45 -15.5 67.5z" />
    <glyph glyph-name="Wgrave" unicode="&#x1e80;" horiz-adv-x="936" 
d="M8 730h190l56 -536l95 474h238l95 -474l56 536h190l-117 -730h-262l-81 497l-81 -497h-262zM238 928h185l132 -160h-170z" />
    <glyph glyph-name="wgrave" unicode="&#x1e81;" horiz-adv-x="753" 
d="M7 532h188l43 -267l63 245h162l63 -245l33 267h187l-79 -532h-217l-68 247l-67 -247h-214zM153 769h185l132 -160h-170z" />
    <glyph glyph-name="Wacute" unicode="&#x1e82;" horiz-adv-x="936" 
d="M8 730h190l56 -536l95 474h238l95 -474l56 536h190l-117 -730h-262l-81 497l-81 -497h-262zM511 927h185l-147 -160h-170z" />
    <glyph glyph-name="wacute" unicode="&#x1e83;" horiz-adv-x="753" 
d="M7 532h188l43 -267l63 245h162l63 -245l33 267h187l-79 -532h-217l-68 247l-67 -247h-214zM427 770h185l-147 -160h-170z" />
    <glyph glyph-name="Wdieresis" unicode="&#x1e84;" horiz-adv-x="936" 
d="M8 730h190l56 -536l95 474h238l95 -474l56 536h190l-117 -730h-262l-81 497l-81 -497h-262zM310 692q-26 26 -26 63t26 63t63 26t63 -26t26 -63t-26 -63t-63 -26t-63 26zM506 692q-26 26 -26 63t26 63t63 26t63 -26t26 -63t-26 -63t-63 -26t-63 26z" />
    <glyph glyph-name="wdieresis" unicode="&#x1e85;" horiz-adv-x="753" 
d="M7 532h188l43 -267l63 245h162l63 -245l33 267h187l-79 -532h-217l-68 247l-67 -247h-214zM225 635q-26 26 -26 63t26 63t63 26t63 -26t26 -63t-26 -63t-63 -26t-63 26zM421 635q-26 26 -26 63t26 63t63 26t63 -26t26 -63t-26 -63t-63 -26t-63 26z" />
    <glyph glyph-name="uni1E9E" unicode="&#x1e9e;" horiz-adv-x="761" 
d="M77.5 630.5q27.5 46.5 74.5 73t102 26.5h116v-178h-104q-10 0 -16 -6t-6 -18v-528h-194v528q0 56 27.5 102.5zM290 418l171 134h-143v178h366v-185l-295 -263zM369.5 7q-50.5 22 -87.5 62l139 128q10 -14 25 -22.5t32 -8.5q28 0 48.5 20t20.5 48q0 29 -20 49t-49 20
q-16 0 -31 -3.5t-32.5 -9t-25.5 -8.5l-53 143q64 39 142 39q73 0 133 -28.5t95 -81t35 -120.5t-35 -125t-95.5 -90.5t-132.5 -33.5q-58 0 -108.5 22z" />
    <glyph glyph-name="Ygrave" unicode="&#x1ef2;" horiz-adv-x="634" 
d="M217 256l-209 474h208l96 -240l104 240h210l-215 -474v-256h-194v256zM87 990h185l132 -160h-170z" />
    <glyph glyph-name="ygrave" unicode="&#x1ef3;" horiz-adv-x="591" 
d="M59 -62h109q26 0 47.5 16.5t28.5 41.5l143 536h197l-155 -578q-13 -57 -48.5 -103t-87 -72.5t-110.5 -26.5h-124v186zM7 532h196l127 -532h-195zM68 792h185l132 -160h-170z" />
    <glyph glyph-name="uni2000" unicode="&#x2000;" horiz-adv-x="710" 
 />
    <glyph glyph-name="uni2001" unicode="&#x2001;" horiz-adv-x="160" 
 />
    <glyph glyph-name="uni2002" unicode="&#x2002;" horiz-adv-x="710" 
 />
    <glyph glyph-name="uni2003" unicode="&#x2003;" horiz-adv-x="160" 
 />
    <glyph glyph-name="uni2004" unicode="&#x2004;" horiz-adv-x="893" 
 />
    <glyph glyph-name="uni2005" unicode="&#x2005;" horiz-adv-x="920" 
 />
    <glyph glyph-name="uni2006" unicode="&#x2006;" horiz-adv-x="854" 
 />
    <glyph glyph-name="uni2009" unicode="&#x2009;" horiz-adv-x="880" 
 />
    <glyph glyph-name="uni200A" unicode="&#x200a;" horiz-adv-x="834" 
 />
    <glyph glyph-name="uni200B" unicode="&#x200b;" horiz-adv-x="720" 
 />
    <glyph glyph-name="uni200C" unicode="&#x200c;" 
 />
    <glyph glyph-name="uni200D" unicode="&#x200d;" 
 />
    <glyph glyph-name="uni200E" unicode="&#x200e;" 
 />
    <glyph glyph-name="uni200F" unicode="&#x200f;" 
 />
    <glyph glyph-name="endash" unicode="&#x2013;" horiz-adv-x="500" 
d="M500 204h-500v170h500v-170z" />
    <glyph glyph-name="emdash" unicode="&#x2014;" horiz-adv-x="1000" 
d="M1000 204h-1000v170h1000v-170z" />
    <glyph glyph-name="quoteleft" unicode="&#x2018;" horiz-adv-x="270" 
d="M165 712q19 0 37.5 -13.5t30.5 -35t12 -45.5q0 -47 -32.5 -80t-79.5 -33q-51 0 -82 33t-31 77q0 59 31 131.5t97 153.5l102 -69q-39 -48 -85 -119z" />
    <glyph glyph-name="quoteright" unicode="&#x2019;" horiz-adv-x="270" 
d="M105 693q-19 0 -37.5 13.5t-30.5 35t-12 45.5q0 47 32.5 80t79.5 33q51 0 82 -33t31 -77q0 -59 -31 -131.5t-97 -153.5l-102 69q39 48 85 119z" />
    <glyph glyph-name="quotesinglbase" unicode="&#x201a;" horiz-adv-x="270" 
d="M105 10q-19 0 -37.5 13.5t-30.5 35t-12 45.5q0 47 32.5 80t79.5 33q51 0 82 -33t31 -77q0 -59 -31 -131.5t-97 -153.5l-102 69q39 48 85 119z" />
    <glyph glyph-name="quotedblleft" unicode="&#x201c;" horiz-adv-x="504" 
d="M165 712q19 0 37.5 -13.5t30.5 -35t12 -45.5q0 -47 -32.5 -80t-79.5 -33q-51 0 -82 33t-31 77q0 59 31 131.5t97 153.5l102 -69q-39 -48 -85 -119zM399 712q19 0 37.5 -13.5t30.5 -35t12 -45.5q0 -47 -32.5 -80t-79.5 -33q-51 0 -82 33t-31 77q0 59 31 131.5t97 153.5
l102 -69q-39 -48 -85 -119z" />
    <glyph glyph-name="quotedblright" unicode="&#x201d;" horiz-adv-x="504" 
d="M339 693q-19 0 -37.5 13.5t-30.5 35t-12 45.5q0 47 32.5 80t79.5 33q51 0 82 -33t31 -77q0 -59 -31 -131.5t-97 -153.5l-102 69q39 48 85 119zM105 693q-19 0 -37.5 13.5t-30.5 35t-12 45.5q0 47 32.5 80t79.5 33q51 0 82 -33t31 -77q0 -59 -31 -131.5t-97 -153.5
l-102 69q39 48 85 119z" />
    <glyph glyph-name="quotedblbase" unicode="&#x201e;" horiz-adv-x="504" 
d="M339 10q-19 0 -37.5 13.5t-30.5 35t-12 45.5q0 47 32.5 80t79.5 33q51 0 82 -33t31 -77q0 -59 -31 -131.5t-97 -153.5l-102 69q39 48 85 119zM105 10q-19 0 -37.5 13.5t-30.5 35t-12 45.5q0 47 32.5 80t79.5 33q51 0 82 -33t31 -77q0 -59 -31 -131.5t-97 -153.5l-102 69
q39 48 85 119z" />
    <glyph glyph-name="dagger" unicode="&#x2020;" horiz-adv-x="627" 
d="M45 535h171v195h194v-195h172v-170h-172v-529h-194v529h-171v170z" />
    <glyph glyph-name="daggerdbl" unicode="&#x2021;" horiz-adv-x="627" 
d="M582 208v-170h-172v-202h-194v202h-171v170h171v158h-171v170h171v194h194v-194h172v-170h-172v-158h172z" />
    <glyph glyph-name="bullet" unicode="&#x2022;" horiz-adv-x="410" 
d="M120.5 141q-37.5 22 -59 60t-21.5 84q0 47 21.5 84.5t59 58.5t83.5 21t84 -21.5t60 -59t22 -83.5q0 -47 -22 -85t-60 -59.5t-84 -21.5t-83.5 22z" />
    <glyph glyph-name="ellipsis" unicode="&#x2026;" horiz-adv-x="880" 
d="M106.5 10.5q-25.5 15.5 -41 41.5t-15.5 55q0 46 32 79t78 33q50 0 81 -33.5t31 -78.5q0 -48 -33.5 -80t-78.5 -32q-28 0 -53.5 15.5zM385.5 10.5q-25.5 15.5 -41 41.5t-15.5 55q0 46 32 79t78 33q50 0 81 -33.5t31 -78.5q0 -48 -33.5 -80t-78.5 -32q-28 0 -53.5 15.5z
M664.5 10.5q-25.5 15.5 -41 41.5t-15.5 55q0 46 32 79t78 33q50 0 81 -33.5t31 -78.5q0 -48 -33.5 -80t-78.5 -32q-28 0 -53.5 15.5z" />
    <glyph glyph-name="uni202F" unicode="&#x202f;" horiz-adv-x="732" 
 />
    <glyph glyph-name="guilsinglleft" unicode="&#x2039;" horiz-adv-x="378" 
d="M163 474h200l-133 -200l133 -200h-200l-138 200z" />
    <glyph glyph-name="guilsinglright" unicode="&#x203a;" horiz-adv-x="378" 
d="M148 274l-133 200h200l138 -200l-138 -200h-200z" />
    <glyph glyph-name="fraction" unicode="&#x2044;" horiz-adv-x="367" 
d="M517 730l-498 -730h-169l498 730h169z" />
    <glyph glyph-name="uni205F" unicode="&#x205f;" 
 />
    </font>
</defs>
</svg>
