<?xml version="1.0" standalone="no"?>
<!DOCTYPE svg PUBLIC "-//W3C//DTD SVG 1.1//EN" "http://www.w3.org/Graphics/SVG/1.1/DTD/svg11.dtd" >
<svg xmlns="http://www.w3.org/2000/svg" xmlns:xlink="http://www.w3.org/1999/xlink" version="1.1">
<metadata>
Created by FontForge 20170731 at Mon Aug  2 17:43:48 2021
 By Aleksey,,,
Copyright (c) 2021 by www.fontiran.com All rights reserved.
</metadata>
<defs>
<font id="KalamehWeb-Light" horiz-adv-x="0" >
  <font-face 
    font-family="KalamehWeb Light"
    font-weight="300"
    font-stretch="normal"
    units-per-em="1000"
    panose-1="0 0 0 0 0 0 0 0 0 0"
    ascent="800"
    descent="-200"
    x-height="485"
    cap-height="675"
    bbox="-181 -549 1352 1162"
    underline-thickness="50"
    underline-position="-175"
    unicode-range="U+000D-FEFC"
  />
<missing-glyph horiz-adv-x="505" 
d="M50 705h405v-705h-405v705zM238.5 315.5q4.5 8.5 8.5 19t7 17.5l-14 11q-7 -6 -17 -13.5t-17.5 -16t-16.5 -21.5l-40 -55l31 -22l40 55q14 17 18.5 25.5zM200.5 365.5q9.5 -1.5 21.5 -2t18 -0.5l5 15q-4 3 -15.5 10.5t-22 12.5t-25.5 10l-66 21l-12 -37l66 -20
q21 -8 30.5 -9.5zM357 257l-40 55q-12 17 -18.5 24t-15.5 14t-16 13l-13 -11q8 -25 12.5 -33.5t19.5 -28.5l40 -56zM267.5 398.5q3.5 12.5 4.5 23.5t1 27v68h-39v-68q0 -21 1.5 -31t4.5 -21t5 -19h17q2 8 5.5 20.5zM402 394l-11 37l-66 -21q-20 -7 -28.5 -11t-18 -10.5
t-16.5 -10.5l5 -15q7 0 20 0.5t24 3t26 7.5z" />
    <glyph glyph-name="uniFDF2" unicode="&#x627;&#xfedf;&#xfee0;&#xfeea;" horiz-adv-x="1405" arabic-form="isolated" 
d="M171 54q-43 25 -68.5 68t-25.5 94q0 50 25.5 91.5t68.5 66t94 24.5v0h121v54h61v-236q0 -51 -24 -94t-65.5 -68t-92.5 -25v0q-51 0 -94 25zM350.5 129.5q35.5 35.5 35.5 86.5v120h-121v0q-33 0 -60.5 -16.5t-44 -44t-16.5 -59.5q0 -51 35.5 -86.5t85.5 -35.5v0
q50 0 85.5 35.5zM466 21q-34 21 -53 57.5t-19 80.5v149h53v-147q0 -39 28.5 -67t67.5 -28h47q10 0 10 -10v-46q0 -10 -10 -10h-47q-43 0 -77 21zM580 10v46q0 10 10 10h48q39 0 68 28t29 67v291h61v-291q0 -39 28.5 -67t68.5 -28h48q10 0 10 -10v-46q0 -10 -10 -10h-48
q-43 0 -76.5 22t-51.5 59q-17 -37 -50.5 -59t-76.5 -22h-48q-10 0 -10 10zM931 10v46q0 10 10 10h38q41 0 69.5 28.5t28.5 69.5v388h61v-391q0 -44 -21.5 -81t-58 -58.5t-80.5 -21.5h-37q-10 0 -10 10zM651 563.5q-24 24.5 -24 56.5v69h46v-69q0 -14 10.5 -24.5t25.5 -10.5
t25 10.5t10 24.5v60h44v-60q0 -14 10.5 -24.5t25.5 -10.5q16 0 26 10.5t10 24.5v69h45v-69q0 -33 -24 -57t-57 -24q-18 0 -33.5 10t-23.5 25q-9 -16 -24.5 -25.5t-34.5 -9.5q-33 0 -57 24.5zM744 892h44v-160h-44v160zM1279 655h62v-655h-62v655z" />
    <glyph glyph-name="uni06440622" unicode="&#xfedf;&#xfe82;" horiz-adv-x="516" arabic-form="isolated" 
d="M72 66h222q40 0 68.5 28t28.5 68v464h62v-466q0 -43 -21.5 -80t-58 -58.5t-80.5 -21.5h-221v66zM94 561l60 16l110 -448l-60 -16zM19 674.5q20 20.5 53 20.5h161v-50h-159q-12 0 -21.5 -9.5t-9.5 -22.5v-39h-44v49q0 31 20 51.5z" />
    <glyph glyph-name="uni06440622.fina" unicode="&#xfee0;&#xfe82;" horiz-adv-x="597" arabic-form="final" 
d="M72 66h223q39 0 67.5 28t28.5 67v465h62v-465q0 -39 28.5 -67t67.5 -28h48q10 0 10 -10v-46q0 -10 -10 -10h-48q-42 0 -76 22t-50 59q-17 -37 -51 -59t-77 -22h-223v66zM94 561l60 16l110 -448l-60 -16zM19 674.5q20 20.5 53 20.5h161v-50h-159q-12 0 -21.5 -9.5
t-9.5 -22.5v-39h-44v49q0 31 20 51.5z" />
    <glyph glyph-name="uni06440623" unicode="&#xfedf;&#xfe84;" horiz-adv-x="516" arabic-form="isolated" 
d="M72 66h222q40 0 68.5 28t28.5 68v464h62v-466q0 -43 -21.5 -80t-58 -58.5t-80.5 -21.5h-221v66zM94 561l60 16l110 -448l-60 -16zM14 683l103 38q-15 4 -29 16t-22 32q-6 15 -6 33q0 30 18.5 56t50.5 38l63 23l17 -47l-59 -22q-16 -6 -26 -20t-10 -31q0 -25 17 -40
t40 -15q11 0 22 4l79 28l17 -46l-258 -94z" />
    <glyph glyph-name="uni06440623.fina" unicode="&#xfee0;&#xfe84;" horiz-adv-x="597" arabic-form="final" 
d="M72 66h223q39 0 67.5 28t28.5 67v465h62v-465q0 -39 28.5 -67t67.5 -28h48q10 0 10 -10v-46q0 -10 -10 -10h-48q-42 0 -76 22t-50 59q-17 -37 -51 -59t-77 -22h-223v66zM94 561l60 16l110 -448l-60 -16zM14 683l103 38q-15 4 -29 16t-22 32q-6 15 -6 33q0 30 18.5 56
t50.5 38l63 23l17 -47l-59 -22q-16 -6 -26 -20t-10 -31q0 -25 17 -40t40 -15q11 0 22 4l79 28l17 -46l-258 -94z" />
    <glyph glyph-name="uni06440625" unicode="&#xfedf;&#xfe88;" horiz-adv-x="516" arabic-form="isolated" 
d="M72 66h222q40 0 68.5 28t28.5 68v464h62v-466q0 -43 -21.5 -80t-58 -58.5t-80.5 -21.5h-221v66zM75 -289l103 38q-15 4 -28.5 16t-21.5 32q-7 14 -7 33q0 30 19 56t51 38l62 23l17 -47l-58 -22q-16 -6 -26 -20t-10 -31q0 -25 16.5 -40t39.5 -15q12 0 22 3l80 29l17 -46
l-259 -94zM87 590l59 16l118 -477l-60 -16z" />
    <glyph glyph-name="uni06440625.fina" unicode="&#xfee0;&#xfe88;" horiz-adv-x="597" arabic-form="final" 
d="M72 66h223q39 0 67.5 28t28.5 67v465h62v-465q0 -39 28.5 -67t67.5 -28h48q10 0 10 -10v-46q0 -10 -10 -10h-48q-42 0 -76 22t-50 59q-17 -37 -51 -59t-77 -22h-223v66zM75 -289l103 38q-15 4 -28.5 16t-21.5 32q-7 14 -7 33q0 30 19 56t51 38l62 23l17 -47l-58 -22
q-16 -6 -26 -20t-10 -31q0 -25 16.5 -40t39.5 -15q12 0 22 3l80 29l17 -46l-259 -94zM87 590l59 16l118 -477l-60 -16z" />
    <glyph glyph-name="uni06440627" unicode="&#xfedf;&#xfe8e;" horiz-adv-x="516" arabic-form="isolated" 
d="M72 66h222q40 0 68.5 28t28.5 68v464h62v-466q0 -43 -21.5 -80t-58 -58.5t-80.5 -21.5h-221v66zM87 590l59 16l118 -477l-60 -16z" />
    <glyph glyph-name="uni06440627.fina" unicode="&#xfee0;&#xfe8e;" horiz-adv-x="597" arabic-form="final" 
d="M72 66h223q39 0 67.5 28t28.5 67v465h62v-465q0 -39 28.5 -67t67.5 -28h48q10 0 10 -10v-46q0 -10 -10 -10h-48q-42 0 -76 22t-50 59q-17 -37 -51 -59t-77 -22h-223v66zM87 590l59 16l118 -477l-60 -16z" />
    <glyph glyph-name="uni06440671" unicode="&#xfedf;&#xfb51;" horiz-adv-x="516" 
d="M72 66h222q40 0 68.5 28t28.5 68v464h62v-466q0 -43 -21.5 -80t-58 -58.5t-80.5 -21.5h-221v66zM94 561l60 16l110 -448l-60 -16zM-18 712l130 77l19 -36l2 -6l-126 -76zM120 647q-24 25 -24 61v31l38 9v-39q0 -15 14 -28.5t32 -13.5h74q17 0 30.5 13.5t13.5 31.5
q0 22 -12 35t-34 13q-8 0 -17 -4t-24 -13l-94 -57l-15 42l97 59q15 9 27 13t28 4q37 0 63 -26.5t26 -63.5q0 -39 -25.5 -65.5t-63.5 -26.5h-76q-34 0 -58 25z" />
    <glyph glyph-name="uni06440671.fina" unicode="&#xfee0;&#xfb51;" horiz-adv-x="597" 
d="M72 66h223q39 0 67.5 28t28.5 67v465h62v-465q0 -39 28.5 -67t67.5 -28h48q10 0 10 -10v-46q0 -10 -10 -10h-48q-42 0 -76 22t-50 59q-17 -37 -51 -59t-77 -22h-223v66zM94 561l60 16l110 -448l-60 -16zM-18 712l130 77l19 -36l2 -6l-126 -76zM120 647q-24 25 -24 61v31
l38 9v-39q0 -15 14 -28.5t32 -13.5h74q17 0 30.5 13.5t13.5 31.5q0 22 -12 35t-34 13q-8 0 -17 -4t-24 -13l-94 -57l-15 42l97 59q15 9 27 13t28 4q37 0 63 -26.5t26 -63.5q0 -39 -25.5 -65.5t-63.5 -26.5h-76q-34 0 -58 25z" />
    <glyph glyph-name="uni0621" unicode="&#x621;" horiz-adv-x="513" arabic-form="isolated" 
d="M257 90q-40 0 -71 20.5t-45 59.5q-8 21 -8 47q0 42 24.5 75.5t68.5 49.5l104 38l21 -59l-102 -37q-24 -9 -38 -29t-14 -44q0 -34 22.5 -55.5t53.5 -21.5q17 0 28 5l136 49l11 -38l-133 -49q-30 -11 -58 -11zM59 50l378 138l22 -59l-380 -138z" />
    <glyph glyph-name="uni0622" unicode="&#x622;" horiz-adv-x="192" arabic-form="isolated" 
d="M76 583h62v-583h-62v583zM-5.5 692.5q19.5 20.5 52.5 20.5h177v-50h-174q-12 0 -21.5 -9.5t-9.5 -22.5v-39h-44v49q0 31 19.5 51.5z" />
    <glyph glyph-name="uni0623" unicode="&#x623;" horiz-adv-x="203" arabic-form="isolated" 
d="M79 583h62v-583h-62v583zM-47 655l103 37q-36 13 -51 48q-6 17 -6 33q0 31 18.5 57t50.5 38l63 23l17 -47l-59 -22q-16 -6 -25.5 -20t-9.5 -31q0 -25 16.5 -40.5t39.5 -15.5q8 0 22 4l80 29l17 -47l-259 -93z" />
    <glyph glyph-name="uni0624" unicode="&#x624;" horiz-adv-x="504" arabic-form="isolated" 
d="M290.5 -132.5q45.5 24.5 67 55t21.5 77.5h-121v0q-51 0 -94 24t-68 66t-25 93q0 50 25 93t68 68t94 25v0q51 0 92.5 -25t66 -68t24.5 -93v-162q0 -75 -30.5 -121t-82 -76t-161.5 -79l-20 55q98 43 143.5 67.5zM258 63h121v121q0 50 -35.5 85.5t-85.5 35.5v0
q-50 0 -85.5 -35.5t-35.5 -85.5q0 -51 35.5 -86t85.5 -35v0zM130 505l103 37q-36 13 -51 48q-6 17 -6 33q0 31 18.5 57t50.5 38l63 23l17 -47l-59 -22q-16 -6 -26 -20t-10 -31q0 -25 16.5 -40.5t40.5 -15.5q8 0 22 4l80 29l17 -47l-259 -93z" />
    <glyph glyph-name="uni0625" unicode="&#x625;" horiz-adv-x="201" arabic-form="isolated" 
d="M-42 -293l103 38q-15 4 -28.5 16t-21.5 32q-7 19 -7 33q0 30 19 56.5t51 38.5l62 22l17 -47l-58 -22q-16 -6 -26 -20t-10 -31q0 -25 16.5 -40t39.5 -15q13 0 22 4l80 29l17 -47l-259 -94zM79 655h62v-655h-62v655z" />
    <glyph glyph-name="uni0626" unicode="&#x626;" horiz-adv-x="724" arabic-form="isolated" 
d="M183.5 -196.5q-48.5 28.5 -76.5 77t-28 106.5v199h62v-196q0 -41 20 -75t54 -54t75 -20h213q42 0 69.5 28t27.5 69q0 32 -20.5 58.5t-54.5 35.5l-227 51v96q0 47 23.5 86.5t64 63t88.5 23.5h146v-61h-148q-46 0 -79 -33t-33 -79v-46l186 -42q53 -15 86 -59t33 -97
q0 -43 -21.5 -80t-58.5 -58.5t-81 -21.5h-214q-58 0 -106.5 28.5zM80 364l103 37q-36 13 -50 48q-7 15 -7 33q0 31 19 57t51 38l62 23l17 -47l-58 -22q-16 -6 -26 -20t-10 -31q0 -25 16.5 -40.5t40.5 -15.5q7 0 21 4l80 29l17 -47l-259 -93z" />
    <glyph glyph-name="uni0627" unicode="&#x627;" horiz-adv-x="202" arabic-form="isolated" 
d="M79 655h62v-655h-62v655z" />
    <glyph glyph-name="uni0628" unicode="&#x628;" horiz-adv-x="880" arabic-form="isolated" 
d="M183.5 28.5q-48.5 28.5 -76.5 77t-28 106.5v96h62v-93q0 -41 20 -75t54 -54t75 -20h354q50 0 85 35.5t35 85.5v121h62v-121q0 -51 -24 -94t-65.5 -68t-92.5 -25h-354q-58 0 -106.5 28.5zM505 -170h-75v75h75v-75z" />
    <glyph glyph-name="uni0629" unicode="&#x629;" horiz-adv-x="496" arabic-form="isolated" 
d="M84.5 112q-13.5 33 -13.5 68q0 36 14.5 71t42.5 63l85 85l-41 41l44 44l170 -170q27 -27 41.5 -62t14.5 -72q0 -35 -13.5 -68t-39.5 -59q-26 -27 -60.5 -41t-71.5 -14t-71.5 14t-61.5 41q-26 26 -39.5 59zM257 63q50 0 86 36q17 17 26 39t9 46q0 49 -35 86l-86 85
l-85 -85q-36 -36 -36 -86q0 -48 35 -85q36 -36 86 -36zM117 650h75v-74h-75v74zM244 650h75v-74h-75v74z" />
    <glyph glyph-name="uni062A" unicode="&#x62a;" horiz-adv-x="880" arabic-form="isolated" 
d="M183.5 28.5q-48.5 28.5 -76.5 77t-28 106.5v96h62v-93q0 -41 20 -75t54 -54t75 -20h354q50 0 85 35.5t35 85.5v121h62v-121q0 -51 -24 -94t-65.5 -68t-92.5 -25h-354q-58 0 -106.5 28.5zM353 383h75v-75h-75v75zM480 383h75v-75h-75v75z" />
    <glyph glyph-name="uni062B" unicode="&#x62b;" horiz-adv-x="880" arabic-form="isolated" 
d="M183.5 28.5q-48.5 28.5 -76.5 77t-28 106.5v96h62v-93q0 -41 20 -75t54 -54t75 -20h354q50 0 85 35.5t35 85.5v121h62v-121q0 -51 -24 -94t-65.5 -68t-92.5 -25h-354q-58 0 -106.5 28.5zM427 383v-75h-75v75h75zM554 383v-75h-75v75h75zM490 512v-75h-75v75h75z" />
    <glyph glyph-name="uni062C" unicode="&#x62c;" horiz-adv-x="688" arabic-form="isolated" 
d="M187.5 -307.5q-48.5 28.5 -77 77t-28.5 104.5q0 47 20.5 88.5t56.5 71.5l321 237l-178 84q-26 13 -45 13t-38 -9t-33 -24l-60 -68l-44 37l61 73q19 24 49 38t66 14q22 0 36 -5t33 -14l219 -102q8 -3 19 -3h69v-61h-90l-339 -251q-28 -23 -42.5 -53.5t-14.5 -64.5
q0 -40 20.5 -74.5t54.5 -54.5t74 -20h292v-62h-297q-56 0 -104.5 28.5zM361 -61h75v-75h-75v75z" />
    <glyph glyph-name="uni062D" unicode="&#x62d;" horiz-adv-x="688" arabic-form="isolated" 
d="M187.5 -307.5q-48.5 28.5 -77 77t-28.5 104.5q0 47 20.5 88.5t56.5 71.5l321 237l-178 84q-26 13 -45 13t-38 -9t-33 -24l-60 -68l-44 37l61 73q19 24 49 38t66 14q22 0 36 -5t33 -14l219 -102q8 -3 19 -3h69v-61h-90l-339 -251q-28 -23 -42.5 -53.5t-14.5 -64.5
q0 -40 20.5 -74.5t54.5 -54.5t74 -20h292v-62h-297q-56 0 -104.5 28.5z" />
    <glyph glyph-name="uni062E" unicode="&#x62e;" horiz-adv-x="688" arabic-form="isolated" 
d="M187.5 -307.5q-48.5 28.5 -77 77t-28.5 104.5q0 47 20.5 88.5t56.5 71.5l321 237l-178 84q-26 13 -45 13t-38 -9t-33 -24l-60 -68l-44 37l61 73q19 24 49 38t66 14q22 0 36 -5t33 -14l219 -102q8 -3 19 -3h69v-61h-90l-339 -251q-28 -23 -42.5 -53.5t-14.5 -64.5
q0 -40 20.5 -74.5t54.5 -54.5t74 -20h292v-62h-297q-56 0 -104.5 28.5zM215 597h75v-75h-75v75z" />
    <glyph glyph-name="uni062F" unicode="&#x62f;" horiz-adv-x="503" arabic-form="isolated" 
d="M71 66h221q39 0 66.5 27t27.5 67q0 51 -48 82l-180 124l34 51l190 -130q67 -48 67 -126q0 -44 -22 -81t-59 -58.5t-81 -21.5h-216v66z" />
    <glyph glyph-name="uni0630" unicode="&#x630;" horiz-adv-x="503" arabic-form="isolated" 
d="M71 66h221q39 0 66.5 27t27.5 67q0 51 -48 82l-180 124l34 51l190 -130q67 -48 67 -126q0 -44 -22 -81t-59 -58.5t-81 -21.5h-216v66zM161 587h75v-75h-75v75z" />
    <glyph glyph-name="uni0631" unicode="&#x631;" horiz-adv-x="267" arabic-form="isolated" 
d="M81 -139.5q33 22.5 51 57t18 93.5v297h62v-296q0 -72 -22 -117.5t-66 -77.5t-127 -72l-24 53q75 40 108 62.5z" />
    <glyph glyph-name="uni0632" unicode="&#x632;" horiz-adv-x="276" arabic-form="isolated" 
d="M81 -139.5q33 22.5 51 57t18 93.5v297h62v-296q0 -72 -22 -117.5t-66 -77.5t-127 -72l-24 53q75 40 108 62.5zM143 480h75v-75h-75v75z" />
    <glyph glyph-name="uni0633" unicode="&#x633;" horiz-adv-x="1175" arabic-form="isolated" 
d="M217.5 -159.5q-63.5 37.5 -101 101.5t-37.5 139v187h62v-183q0 -59 29 -108.5t78 -78.5t108 -29t108.5 29t79 78.5t29.5 108.5v223h59v-227q0 -75 -37 -139t-100 -101.5t-139 -37.5q-75 0 -138.5 37.5zM630.5 43.5q-37.5 45.5 -37.5 113.5v151h42v-149q0 -39 29 -67
t68 -28t67.5 28t28.5 67v149h51v-151q0 -44 -18.5 -80.5t-52 -57.5t-76.5 -21q-64 0 -101.5 45.5zM910.5 21q-33.5 21 -52.5 57.5t-19 80.5v149h51v-147q0 -39 28.5 -67t68.5 -28h72v274h62v-340h-134q-43 0 -76.5 21z" />
    <glyph glyph-name="uni0634" unicode="&#x634;" horiz-adv-x="1175" arabic-form="isolated" 
d="M217.5 -159.5q-63.5 37.5 -101 101.5t-37.5 139v187h62v-183q0 -59 29 -108.5t78 -78.5t108 -29t108.5 29t79 78.5t29.5 108.5v223h59v-227q0 -75 -37 -139t-100 -101.5t-139 -37.5q-75 0 -138.5 37.5zM630.5 43.5q-37.5 45.5 -37.5 113.5v151h42v-149q0 -39 29 -67
t68 -28t67.5 28t28.5 67v149h51v-151q0 -44 -18.5 -80.5t-52 -57.5t-76.5 -21q-64 0 -101.5 45.5zM910.5 21q-33.5 21 -52.5 57.5t-19 80.5v149h51v-147q0 -39 28.5 -67t68.5 -28h72v274h62v-340h-134q-43 0 -76.5 21zM758 473h75v-75h-75v75zM885 473h75v-75h-75v75z
M821 601h75v-74h-75v74z" />
    <glyph glyph-name="uni0635" unicode="&#x635;" horiz-adv-x="1252" arabic-form="isolated" 
d="M218 -159.5q-64 37.5 -101.5 101.5t-37.5 139v187h62v-183q0 -59 29 -108.5t78.5 -78.5t108.5 -29t108.5 29t78.5 78.5t29 108.5v223h60v-227q0 -75 -37 -139t-100 -101.5t-139 -37.5q-75 0 -139 37.5zM664 23.5q-38 23.5 -58.5 64.5t-20.5 90v130h51v-136
q0 -44 31.5 -75t76.5 -31h268q51 0 87 36.5t36 87.5t-36 87.5t-88 36.5q-19 0 -37.5 -6t-42.5 -21l-299 -178l-23 56l290 172q33 20 58 28.5t55 8.5q51 0 93.5 -25t67.5 -67.5t25 -93.5t-25 -94t-68 -68.5t-94 -25.5h-261q-48 0 -86 23.5z" />
    <glyph glyph-name="uni0636" unicode="&#x636;" horiz-adv-x="1252" arabic-form="isolated" 
d="M218 -159.5q-64 37.5 -101.5 101.5t-37.5 139v187h62v-183q0 -59 29 -108.5t78.5 -78.5t108.5 -29t108.5 29t78.5 78.5t29 108.5v223h60v-227q0 -75 -37 -139t-100 -101.5t-139 -37.5q-75 0 -139 37.5zM664 23.5q-38 23.5 -58.5 64.5t-20.5 90v130h51v-136
q0 -44 31.5 -75t76.5 -31h268q51 0 87 36.5t36 87.5q0 33 -16.5 61.5t-45 45t-61.5 16.5q-20 0 -39 -5.5t-43 -18.5l-299 -178l-22 54l297 176q52 33 106 33q51 0 93.5 -25t67.5 -67.5t25 -93.5t-25 -94t-68 -68.5t-94 -25.5h-261q-48 0 -86 23.5zM974 544h74v-75h-74v75z
" />
    <glyph glyph-name="uni0637" unicode="&#x637;" horiz-adv-x="685" arabic-form="isolated" 
d="M71 66h374q51 0 87 36.5t36 87.5t-36.5 87t-87.5 36q-19 0 -37.5 -6t-42.5 -21l-258 -152l-30 51l255 152q33 20 58.5 28.5t55.5 8.5q51 0 93.5 -25t67.5 -67.5t25 -93.5t-25 -94t-68 -68.5t-94 -25.5h-373v66zM196 274q6 22 6 53v328h63v-284q0 -35 -7.5 -60.5
t-16.5 -34.5l-71 -35q20 11 26 33z" />
    <glyph glyph-name="uni0638" unicode="&#x638;" horiz-adv-x="685" arabic-form="isolated" 
d="M71 66h374q51 0 87 36.5t36 87.5t-36.5 87t-87.5 36q-19 0 -37.5 -6t-42.5 -21l-264 -156l-24 55l255 152q33 20 58.5 28.5t55.5 8.5q51 0 93.5 -25t67.5 -67.5t25 -93.5t-25 -94t-68 -68.5t-94 -25.5h-373v66zM196 274q6 22 6 53v328h63v-284q0 -35 -7 -59t-15 -33
l-73 -38q20 11 26 33zM411 544h75v-75h-75v75z" />
    <glyph glyph-name="uni0639" unicode="&#x639;" horiz-adv-x="558" arabic-form="isolated" 
d="M197 -402.5q-58 33.5 -92 91.5t-34 126q0 64 30.5 116.5t83 84.5t116.5 37q3 0 10.5 6.5t11.5 6.5h158v-66h-158q-51 0 -93.5 -25t-67.5 -67.5t-25 -92.5q0 -51 25 -93.5t67.5 -67.5t93.5 -25h181v-65h-181q-68 0 -126 33.5zM237 36q-46 24 -72.5 66.5t-26.5 95.5
q0 54 27 98.5t72.5 70.5t100.5 26h110v-61h-110q-37 0 -67.5 -18t-48.5 -48.5t-18 -66.5q0 -56 39 -94.5t95 -38.5v-54q-55 0 -101 24z" />
    <glyph glyph-name="uni063A" unicode="&#x63a;" horiz-adv-x="558" arabic-form="isolated" 
d="M197 -402.5q-58 33.5 -92 91.5t-34 126q0 64 30.5 116.5t83 84.5t116.5 37q3 0 10.5 6.5t11.5 6.5h158v-66h-158q-51 0 -93.5 -25t-67.5 -67.5t-25 -92.5q0 -51 25 -93.5t67.5 -67.5t93.5 -25h181v-65h-181q-68 0 -126 33.5zM237 36q-46 24 -72.5 66.5t-26.5 95.5
q0 54 27 98.5t72.5 70.5t100.5 26h110v-61h-110q-37 0 -67.5 -18t-48.5 -48.5t-18 -66.5q0 -56 39 -94.5t95 -38.5v-54q-55 0 -101 24zM296 551h75v-75h-75v75z" />
    <glyph glyph-name="uni0641" unicode="&#x641;" horiz-adv-x="880" arabic-form="isolated" 
d="M183.5 28.5q-48.5 28.5 -76.5 77t-28 106.5v96h62v-93q0 -41 20 -75t54 -54t75 -20h377q40 0 68.5 28t28.5 68v24h-103v0q-46 0 -85 22t-61.5 60t-22.5 84t23 85t61.5 62t84.5 23v0q46 0 83.5 -23t59.5 -62t22 -85v-192q0 -43 -21.5 -80t-58 -58.5t-80.5 -21.5h-376
q-58 0 -106.5 28.5zM767 245v108q0 46 -31 77t-76 31v0q-46 -1 -77 -31.5t-31 -76.5t31 -77t77 -31v0h107zM624 691h75v-74h-75v74z" />
    <glyph glyph-name="uni0642" unicode="&#x642;" horiz-adv-x="694" arabic-form="isolated" 
d="M290 276q25 43 68 68t94 25v0q51 0 92.5 -25t66 -68t24.5 -93v-196q0 -75 -37.5 -139t-101.5 -101.5t-140 -37.5q-75 0 -138.5 37.5t-101 101.5t-37.5 139v187h62v-183q0 -59 29 -108.5t78 -78.5t108 -29t108.5 29t79 78.5t29.5 108.5v9h-121v0q-51 0 -94 24t-68 66
t-25 93q0 50 25 93zM366 100.5q36 -35.5 86 -35.5v0h121v121q0 50 -35.5 86t-85.5 36v0q-50 0 -86 -36t-36 -86t36 -85.5zM351 541h75v-75h-75v75zM478 541h75v-75h-75v75z" />
    <glyph glyph-name="uni0643" unicode="&#x643;" horiz-adv-x="885" arabic-form="isolated" 
d="M183.5 28.5q-48.5 28.5 -76.5 77t-28 106.5v96h62v-93q0 -41 20 -75t54 -54t75 -20h354q50 0 85 35.5t35 85.5v439h62v-439q0 -51 -24 -94t-65.5 -68t-92.5 -25h-354q-58 0 -106.5 28.5zM366 301l104 38q27 10 27 34q0 9 -2 13q-6 21 -29 26l-99 23l-20 37l153 109
l23 -39l-103 -73l52 -12q23 -6 41 -19.5t24 -32.5q5 -18 5 -31q0 -27 -15 -49t-42 -32l-102 -38z" />
    <glyph glyph-name="uni0644" unicode="&#x644;" horiz-adv-x="697" arabic-form="isolated" 
d="M217.5 -159.5q-63.5 37.5 -101 101.5t-37.5 139v187h62v-183q0 -59 29 -108.5t78 -78.5t108 -29t108.5 29t79 78.5t29.5 108.5v571h62v-575q0 -75 -37.5 -139t-101.5 -101.5t-140 -37.5q-75 0 -138.5 37.5z" />
    <glyph glyph-name="uni0645" unicode="&#x645;" horiz-adv-x="712" arabic-form="isolated" 
d="M101 286.5q22 37.5 59.5 59t82.5 21.5h228v0q51 0 94 -24t68 -65.5t25 -92.5t-25 -94t-68 -68t-94 -25v0q-51 0 -92.5 25t-65.5 68t-24 94v120h-47q-42 0 -71.5 -29.5t-29.5 -70.5v-455h-62v455q0 44 22 81.5zM556.5 99.5q35.5 35.5 35.5 85.5t-35.5 85.5t-85.5 35.5v0
h-121v-121q0 -50 35.5 -85.5t85.5 -35.5v0q50 0 85.5 35.5z" />
    <glyph glyph-name="uni0646" unicode="&#x646;" horiz-adv-x="697" arabic-form="isolated" 
d="M217.5 -159.5q-63.5 37.5 -101 101.5t-37.5 139v187h62v-183q0 -59 29 -108.5t78 -78.5t108 -29t108.5 29t79 78.5t29.5 108.5v223h62v-227q0 -75 -37.5 -139t-101.5 -101.5t-140 -37.5q-75 0 -138.5 37.5zM318 355h75v-74h-75v74z" />
    <glyph glyph-name="uni0647" unicode="&#x647;" horiz-adv-x="503" arabic-form="isolated" 
d="M92.5 112q-13.5 33 -13.5 68q0 36 14.5 71t41.5 63l86 85l-41 41l44 44l170 -170q27 -27 41.5 -62t14.5 -72q0 -35 -13.5 -68t-39.5 -59q-27 -27 -61.5 -41t-70.5 -14q-37 0 -71.5 14t-61.5 41q-26 26 -39.5 59zM265 63q24 0 46 9t39 27q35 34 35 85t-35 86l-86 85
l-85 -85q-35 -35 -35 -86q0 -50 35 -85q36 -36 86 -36z" />
    <glyph glyph-name="uni0648" unicode="&#x648;" horiz-adv-x="504" arabic-form="isolated" 
d="M290.5 -132.5q45.5 24.5 67 55t21.5 77.5h-121v0q-51 0 -94 24t-68 66t-25 93q0 50 25 93t68 68t94 25v0q51 0 92.5 -25t66 -68t24.5 -93v-162q0 -75 -30.5 -121t-82 -76t-161.5 -79l-20 55q98 43 143.5 67.5zM379 63v121q0 50 -35.5 85.5t-85.5 35.5v0
q-50 0 -85.5 -35.5t-35.5 -85.5q0 -51 35.5 -86t85.5 -35v0h121z" />
    <glyph glyph-name="uni0649" unicode="&#x649;" horiz-adv-x="724" arabic-form="isolated" 
d="M183.5 -196.5q-48.5 28.5 -76.5 77t-28 106.5v199h62v-196q0 -41 20 -75t54 -54t75 -20h213q42 0 69.5 28t27.5 69q0 32 -20.5 58.5t-54.5 35.5l-227 51v96q0 47 23.5 86.5t64 63t88.5 23.5h146v-61h-148q-46 0 -79 -33t-33 -79v-46l186 -42q53 -15 86 -59t33 -97
q0 -43 -21.5 -80t-58.5 -58.5t-81 -21.5h-214q-58 0 -106.5 28.5z" />
    <glyph glyph-name="uni064A" unicode="&#x64a;" horiz-adv-x="724" arabic-form="isolated" 
d="M183.5 -196.5q-48.5 28.5 -76.5 77t-28 106.5v199h62v-196q0 -41 20 -75t54 -54t75 -20h213q42 0 69.5 28t27.5 69q0 32 -20.5 58.5t-54.5 35.5l-227 51v96q0 47 23.5 86.5t64 63t88.5 23.5h146v-61h-148q-46 0 -79 -33t-33 -79v-46l186 -42q53 -15 86 -59t33 -97
q0 -43 -21.5 -80t-58.5 -58.5t-81 -21.5h-214q-58 0 -106.5 28.5zM271 -322h75v-75h-75v75zM398 -322h75v-75h-75v75z" />
    <glyph glyph-name="uni066E.init" unicode="&#x66e;" horiz-adv-x="257" 
d="M-10 10v46q0 10 10 10h44q41 0 69 28.5t28 69.5v176h62v-179q0 -44 -21.5 -81t-58 -58.5t-80.5 -21.5h-43q-10 0 -10 10z" />
    <glyph glyph-name="uni066E.medi" unicode="&#x66e;" horiz-adv-x="355" 
d="M0 66h50q39 0 68 28t29 67v147h62v-147q0 -39 28 -67t68 -28h50q10 0 10 -10v-46q0 -10 -10 -10h-50q-43 0 -77.5 23t-50.5 60q-16 -37 -50 -60t-77 -23h-50q-10 0 -10 10v46q0 10 10 10z" />
    <glyph glyph-name="uni066E.fina" unicode="&#x66e;" horiz-adv-x="970" 
d="M183.5 28.5q-48.5 28.5 -76.5 77t-28 106.5v96h62v-93q0 -41 20 -75t54 -54t75 -20h354q50 0 85 35.5t35 85.5v121h52v-121q0 -51 -21.5 -94t-61 -68t-89.5 -25h-354q-58 0 -106.5 28.5zM846.5 21q-33.5 21 -52 57.5t-18.5 80.5v149h50v-147q0 -39 29 -67t68 -28h47
q10 0 10 -10v-46q0 -10 -10 -10h-47q-43 0 -76.5 21z" />
    <glyph glyph-name="uni066F.fina" unicode="&#x66f;" horiz-adv-x="696" 
d="M217.5 -253.5q-63.5 37.5 -101 101.5t-37.5 139v187h62v-183q0 -59 29 -108.5t78 -78.5t108 -29t108.5 29t79 78.5t29.5 108.5v9h-121v0q-51 0 -94 24t-68 66t-25 93q0 50 25 93t68 68t94 25v0q51 0 92.5 -25t66 -68t24.5 -93v-196q0 -75 -37.5 -139t-101.5 -101.5
t-140 -37.5q-75 0 -138.5 37.5zM573 65v121q0 50 -35.5 86t-85.5 36v0q-50 0 -86 -36t-36 -86t36 -85.5t86 -35.5v0h121zM635 66h61q10 0 10 -10v-46q0 -10 -10 -10h-61v66z" />
    <glyph glyph-name="uni0671" unicode="&#x671;" horiz-adv-x="202" arabic-form="isolated" 
d="M76 583h62v-583h-62v583zM57 640q-24 25 -24 60v33l37 7l1 -41q2 -16 15 -27.5t31 -11.5h74q17 0 30 13t13 31q0 22 -12 35.5t-34 13.5q-8 0 -16.5 -4t-24.5 -14l-93 -56l-16 42l98 59q13 8 25 12t30 4q37 0 63 -26.5t26 -63.5q0 -38 -26 -64.5t-63 -26.5h-76
q-34 0 -58 25zM-81 704l129 77l20 -36l2 -5l-127 -77z" />
    <glyph glyph-name="uni0679" unicode="&#x679;" horiz-adv-x="881" arabic-form="isolated" 
d="M184.5 28.5q-48.5 28.5 -77 77t-28.5 106.5v96h62v-93q0 -41 20 -75t54.5 -54t75.5 -20h353q51 0 86 35.5t35 85.5v121h62v-121q0 -51 -24 -94t-66 -68t-93 -25h-353q-58 0 -106.5 28.5zM361 353h139q18 0 31 13.5t13 31.5q0 22 -12 35t-34 13q-8 0 -17 -4t-24 -13
l-94 -57l-15 42l97 59q14 8 26 12t29 4q37 0 63 -26t26 -63q0 -39 -25.5 -65.5t-63.5 -26.5h-139v45zM395.5 461q5.5 20 5.5 49v58h46v-62v35q0 -31 -7.5 -54t-16.5 -29l-47 -27q14 10 19.5 30z" />
    <glyph glyph-name="uni067E" unicode="&#x67e;" horiz-adv-x="880" arabic-form="isolated" 
d="M183.5 28.5q-48.5 28.5 -76.5 77t-28 106.5v96h62v-93q0 -41 20 -75t54 -54t75 -20h354q50 0 85 35.5t35 85.5v121h62v-121q0 -51 -24 -94t-65.5 -68t-92.5 -25h-354q-58 0 -106.5 28.5zM431 -223h75v-75h-75v75zM367 -95h75v-75h-75v75zM495 -95h75v-75h-75v75z" />
    <glyph glyph-name="uni0686" unicode="&#x686;" horiz-adv-x="688" arabic-form="isolated" 
d="M187.5 -307.5q-48.5 28.5 -77 77t-28.5 104.5q0 47 20.5 88.5t56.5 71.5l321 237l-178 84q-26 13 -45 13t-38 -9t-33 -24l-60 -68l-44 37l61 73q19 24 49 38t66 14q22 0 36 -5t33 -14l219 -102q8 -3 19 -3h69v-61h-90l-339 -251q-28 -23 -42.5 -53.5t-14.5 -64.5
q0 -40 20.5 -74.5t54.5 -54.5t74 -20h292v-62h-297q-56 0 -104.5 28.5zM399 -115h68v-65h-68v65zM343 1h69v-69h-69v69zM458 1h69v-69h-69v69z" />
    <glyph glyph-name="uni0688" unicode="&#x688;" horiz-adv-x="503" arabic-form="isolated" 
d="M71 66h221q39 0 66.5 27t27.5 67q0 51 -48 82l-180 124l34 51l190 -130q67 -48 67 -126q0 -44 -22 -81t-59 -58.5t-81 -21.5h-216v66zM95 561h138q18 0 31 13t13 31q0 22 -12 35.5t-34 13.5q-8 0 -16.5 -4t-24.5 -14l-93 -56l-16 42l98 59q13 8 25 12t29 4q38 0 64 -26
t26 -64t-26 -64.5t-64 -26.5h-138v45zM135 718v57h46v-61v35q0 -30 -7.5 -54t-17.5 -30l-47 -26q26 17 26 79z" />
    <glyph glyph-name="uni0691" unicode="&#x691;" horiz-adv-x="267" arabic-form="isolated" 
d="M81 -139.5q33 22.5 51 57t18 93.5v297h62v-296q0 -72 -22 -117.5t-66 -77.5t-127 -72l-24 53q75 40 108 62.5zM61 456h139q17 0 30 13t13 31q0 22 -11.5 35t-34.5 13q-8 0 -18 -4.5t-23 -12.5l-93 -56l-16 41l98 59q14 9 26 13t29 4q37 0 63 -26.5t26 -63.5
q0 -38 -26 -65t-63 -27h-139v46zM101 613v57h46v-61v35q0 -31 -7.5 -54.5t-16.5 -29.5l-48 -26q26 17 26 79z" />
    <glyph glyph-name="uni0695.fina" unicode="&#x695;" horiz-adv-x="356" 
d="M81 -139.5q33 22.5 51 57t18 93.5v297h62v-296q0 -72 -22 -117.5t-66 -77.5t-127 -72l-24 53q75 40 108 62.5zM204.5 45.5q-39.5 45.5 -39.5 113.5v149h47v-147q0 -39 28.5 -67t68.5 -28h47q10 0 10 -10v-46q0 -10 -10 -10h-47q-65 0 -104.5 45.5zM80.5 -376.5
q30.5 -26.5 33.5 -76.5q3 50 34 76.5t95 29.5v-50q-56 -4 -81.5 -30t-25.5 -89h-44q0 63 -25 89t-81 30v50q64 -3 94.5 -29.5z" />
    <glyph glyph-name="uni0698" unicode="&#x698;" horiz-adv-x="289" arabic-form="isolated" 
d="M81 -139.5q33 22.5 51 57t18 93.5v297h62v-296q0 -72 -22 -117.5t-66 -77.5t-127 -72l-24 53q75 40 108 62.5zM82 480h74v-75h-74v75zM206 480h75v-75h-75v75zM144 609h75v-75h-75v75z" />
    <glyph glyph-name="uni06A1.init" unicode="&#x6a1;" horiz-adv-x="449" 
d="M-10 10v46q0 10 10 10h236q40 0 68.5 28t28.5 68v24h-103v0q-46 0 -85 22t-62 60t-23 84t23 85t62 62t85 23v0q46 0 83.5 -23t59.5 -62t22 -85v-192q0 -43 -21.5 -80t-58 -58.5t-80.5 -21.5h-235q-10 0 -10 10zM229 245h107v108q0 46 -31 77t-76 31v0q-46 0 -77 -31
t-31 -77t31 -77t77 -31v0z" />
    <glyph glyph-name="uni06A1.medi" unicode="&#x6a1;" horiz-adv-x="432" 
d="M51 280.5q25 42.5 68 67t94 24.5v0q51 0 94 -24.5t68 -67t25 -93.5t-25 -92.5t-68 -65t-94 -23.5v0q-51 0 -94 23.5t-68 65t-25 92.5t25 93.5zM-10 10v46q0 10 10 10h432q10 0 10 -10v-46q0 -10 -10 -10h-432q-10 0 -10 10zM127.5 100.5q35.5 -34.5 85.5 -34.5v0
q50 0 85.5 34.5t35.5 84.5t-35.5 85.5t-85.5 35.5v0q-50 0 -85.5 -35.5t-35.5 -85.5t35.5 -84.5z" />
    <glyph glyph-name="uni06A1.fina" unicode="&#x6a1;" horiz-adv-x="865" 
d="M183.5 28.5q-48.5 28.5 -76.5 77t-28 106.5v96h62v-93q0 -41 20 -75t54 -54t75 -20h575q10 0 10 -10v-46q0 -10 -10 -10h-575q-58 0 -106.5 28.5zM814 94.5q-25 -41.5 -68 -65t-94 -23.5v0q-51 0 -94 23.5t-68 65t-25 92.5t25 93.5t68 67t94 24.5v0q51 0 94 -24.5t68 -67
t25 -93.5t-25 -92.5zM737.5 270.5q-35.5 35.5 -85.5 35.5v0q-50 0 -85.5 -35.5t-35.5 -85.5t35.5 -84.5t85.5 -34.5v0q50 0 85.5 34.5t35.5 84.5t-35.5 85.5z" />
    <glyph glyph-name="uni06A9" unicode="&#x6a9;" horiz-adv-x="882" arabic-form="isolated" 
d="M183.5 28.5q-48.5 28.5 -76.5 77t-28 106.5v95h62v-92q0 -41 20 -75t54 -54t75 -20h366q46 0 78 31.5t32 78.5q0 62 -59 97l-243 159v55l190 200l43 -39l-173 -182l225 -147q37 -24 58 -61t21 -84t-23 -87t-62.5 -63.5t-86.5 -23.5h-366q-58 0 -106.5 28.5z" />
    <glyph glyph-name="uni06AF" unicode="&#x6af;" horiz-adv-x="882" arabic-form="isolated" 
d="M183.5 28.5q-48.5 28.5 -76.5 77t-28 106.5v95h62v-92q0 -41 20 -75t54 -54t75 -20h366q46 0 78 31.5t32 78.5q0 62 -59 97l-243 159v55l190 200l43 -39l-173 -182l225 -147q37 -24 58 -61t21 -84t-23 -87t-62.5 -63.5t-86.5 -23.5h-366q-58 0 -106.5 28.5zM390 548
l176 186l31 -33l-176 -186z" />
    <glyph glyph-name="uni06B5.init" unicode="&#x6b5;" horiz-adv-x="260" 
d="M-10 10v46q0 10 10 10h39q40 0 68.5 28.5t28.5 69.5v491h62v-494q0 -44 -21.5 -81t-58 -58.5t-80.5 -21.5h-38q-10 0 -10 10zM123 832q-25 26 -81 30v50q63 -2 94 -28.5t34 -76.5q3 50 34 76.5t95 28.5v-50q-56 -4 -81.5 -30t-25.5 -89h-44q0 63 -25 89z" />
    <glyph glyph-name="uni06B5.medi" unicode="&#x6b5;" horiz-adv-x="350" 
d="M-10 10v46q0 10 10 10h47q40 0 68.5 28t28.5 67v494h62v-494q0 -39 28.5 -67t68.5 -28h47q10 0 10 -10v-46q0 -10 -10 -10h-47q-43 0 -77 22t-51 59q-17 -37 -51 -59t-77 -22h-47q-10 0 -10 10zM130.5 832q-25.5 26 -81.5 30v50q63 -2 94 -28.5t34 -76.5q4 50 35 76.5
t94 28.5v-50q-56 -4 -81 -30t-25 -89h-44q0 63 -25.5 89z" />
    <glyph glyph-name="uni06B5.fina" unicode="&#x6b5;" horiz-adv-x="779" 
d="M217.5 -159.5q-63.5 37.5 -101 101.5t-37.5 139v187h62v-183q0 -59 29 -108.5t78 -78.5t108 -29t108.5 29t79 78.5t29.5 108.5v571h60v-575q0 -75 -37 -139t-100.5 -101.5t-139.5 -37.5q-75 0 -138.5 37.5zM632 45.5q-37 45.5 -37 113.5v496h40v-494q0 -39 29 -67t68 -28
h47q10 0 10 -10v-46q0 -10 -10 -10h-47q-63 0 -100 45.5zM555.5 832q-25.5 26 -81.5 30v50q64 -2 95 -28.5t34 -76.5q3 50 34 76.5t94 28.5v-50q-56 -4 -81 -30t-25 -89h-44q0 63 -25.5 89z" />
    <glyph glyph-name="uni06BA" unicode="&#x6ba;" horiz-adv-x="697" arabic-form="isolated" 
d="M217.5 -159.5q-63.5 37.5 -101 101.5t-37.5 139v187h62v-183q0 -59 29 -108.5t78 -78.5t108 -29t108.5 29t79 78.5t29.5 108.5v223h62v-227q0 -75 -37.5 -139t-101.5 -101.5t-140 -37.5q-75 0 -138.5 37.5z" />
    <glyph glyph-name="uni06C0" unicode="&#x6c0;" horiz-adv-x="528" arabic-form="isolated" 
d="M92.5 112q-13.5 33 -13.5 68q0 36 14.5 71t41.5 63l86 85l-41 41l44 44l170 -170q27 -27 41.5 -62t14.5 -72q0 -35 -13.5 -68t-39.5 -59q-27 -27 -61.5 -41t-70.5 -14q-37 0 -71.5 14t-61.5 41q-26 26 -39.5 59zM265 63q24 0 46 9t39 27q35 34 35 85t-35 86l-86 85
l-85 -85q-35 -35 -35 -86q0 -50 35 -85q36 -36 86 -36zM156 586l106 28q13 4 20.5 13.5t7.5 22.5q0 17 -11.5 29t-27.5 11l-115 -4l-15 48q-4 11 -4 24q0 30 19 55t49 33l74 20l14 -43l-76 -21q-16 -4 -25 -16t-9 -27q0 -6 1 -10l5 -17q78 3 86 3q34 0 58 -24t24 -60
q0 -29 -17 -52t-45 -30l-105 -27z" />
    <glyph glyph-name="uni06C1" unicode="&#x6c1;" horiz-adv-x="496" arabic-form="isolated" 
d="M84.5 112q-13.5 33 -13.5 68q0 36 14.5 71t42.5 63l85 85l-41 41l44 44l170 -170q27 -27 41.5 -62t14.5 -72q0 -35 -13.5 -68t-39.5 -59q-26 -27 -60.5 -41t-71.5 -14t-71.5 14t-61.5 41q-26 26 -39.5 59zM257 63q50 0 86 36q17 17 26 39t9 46q0 49 -35 86l-86 85
l-85 -85q-36 -36 -36 -86q0 -48 35 -85q36 -36 86 -36z" />
    <glyph glyph-name="uni06C2.fina" unicode="&#x6c2;" horiz-adv-x="584" 
d="M163.5 54q-43.5 25 -68.5 68t-25 94q0 50 25 91.5t68.5 66t94.5 24.5v0h120v54h62v-236q0 -51 -24 -94t-65.5 -68t-92.5 -25v0q-51 0 -94.5 25zM343.5 129.5q35.5 35.5 35.5 86.5v120h-121v0q-33 0 -61 -16.5t-44.5 -44t-16.5 -59.5q0 -51 36 -86.5t86 -35.5v0
q50 0 85.5 35.5zM459 21q-34 21 -53 57.5t-19 80.5v149h53v-147q0 -39 28.5 -67t67.5 -28h48q10 0 10 -10v-46q0 -10 -10 -10h-48q-43 0 -77 21zM115 543l103 38q-15 4 -29 16t-22 32q-6 15 -6 33q0 30 18.5 56t50.5 38l63 23l17 -47l-59 -22q-16 -6 -26 -20t-10 -31
q0 -25 17 -40t40 -15q11 0 22 4l79 28l17 -46l-258 -94z" />
    <glyph glyph-name="uni06C3.fina" unicode="&#x6c3;" horiz-adv-x="538" 
d="M306 416h75v-75h-75v75zM179 416h75v-75h-75v75zM548 56v-46q0 -10 -10 -10h-48q-47 0 -84 21t-61 58l-70 107l-181 -172l-40 42l200 190h56l80 -122q35 -58 97 -58h51q10 0 10 -10z" />
    <glyph glyph-name="uni06CC" unicode="&#x6cc;" horiz-adv-x="724" arabic-form="isolated" 
d="M183.5 -196.5q-48.5 28.5 -76.5 77t-28 106.5v199h62v-196q0 -41 20 -75t54 -54t75 -20h213q42 0 69.5 28t27.5 69q0 32 -20.5 58.5t-54.5 35.5l-227 51v96q0 47 23.5 86.5t64 63t88.5 23.5h146v-61h-148q-46 0 -79 -33t-33 -79v-46l186 -42q53 -15 86 -59t33 -97
q0 -43 -21.5 -80t-58.5 -58.5t-81 -21.5h-214q-58 0 -106.5 28.5z" />
    <glyph glyph-name="uni06ce.init" unicode="&#x6ce;" horiz-adv-x="322" 
d="M-10 10v46q0 10 10 10h92q41 0 69 28.5t28 69.5v176h62v-179q0 -44 -21.5 -81t-58 -58.5t-80.5 -21.5h-91q-10 0 -10 10zM104.5 547q-25.5 26 -81.5 30v50q64 -2 95 -28.5t34 -76.5q3 50 34 76.5t94 28.5v-50q-56 -4 -81 -30t-25 -88h-44q0 62 -25.5 88zM0 -98h75v-75
h-75v75zM127 -98h75v-75h-75v75z" />
    <glyph glyph-name="uni06ce.medi" unicode="&#x6ce;" horiz-adv-x="365" 
d="M133.5 515.5q-25.5 26.5 -80.5 30.5v49q63 -2 94 -28.5t34 -76.5q6 101 129 105v-49q-55 -4 -80.5 -30.5t-25.5 -88.5h-45q0 62 -25.5 88.5zM-10 10v46q0 10 10 10h55q39 0 68 28t29 67v147h62v-147q0 -39 28 -67t68 -28h55q10 0 10 -10v-46q0 -10 -10 -10h-55
q-42 0 -75.5 21.5t-52.5 57.5q-18 -36 -51 -57.5t-76 -21.5h-55q-10 0 -10 10zM81 -98h75v-75h-75v75zM208 -98h74v-75h-74v75z" />
    <glyph glyph-name="uni06ce.fina" unicode="&#x6ce;" horiz-adv-x="725" 
d="M161.5 406q-25.5 26 -81.5 30v50q64 -3 95 -29.5t34 -76.5q3 50 33.5 76.5t94.5 29.5v-50q-56 -4 -81 -30t-25 -89h-44q0 63 -25.5 89zM183.5 -226.5q-48.5 28.5 -76.5 77t-28 106.5v200h62v-197q0 -40 20 -74.5t54 -54.5t75 -20h216q39 0 66.5 27.5t27.5 67.5
q0 38 -27.5 66t-66.5 28h-151v53h150q44 0 81 -18.5t58 -52t21 -76.5q0 -44 -21.5 -81t-58 -58.5t-80.5 -21.5h-215q-58 0 -106.5 28.5zM324 66h401q10 0 10 -10v-46q0 -10 -10 -10h-401v66z" />
    <glyph glyph-name="uni06D2" unicode="&#x6d2;" horiz-adv-x="644" arabic-form="isolated" 
d="M134 21.5q-37 21.5 -58.5 58.5t-21.5 80q0 53 32.5 97t85.5 59l186 42l19 -60l-183 -41q-35 -9 -55 -35.5t-20 -58.5q0 -41 27.5 -69t68.5 -28h374v-66h-374q-44 0 -81 21.5z" />
    <glyph glyph-name="uni06d5.fina" unicode="&#x6d5;" horiz-adv-x="590" 
d="M171 54q-43 25 -68.5 68t-25.5 94q0 50 25.5 91.5t68.5 66t94 24.5v0h121v54h61v-236q0 -51 -24 -94t-65.5 -68t-92.5 -25v0q-51 0 -94 25zM350.5 129.5q35.5 35.5 35.5 86.5v120h-121v0q-33 0 -60.5 -16.5t-44 -44t-16.5 -59.5q0 -51 35.5 -86.5t85.5 -35.5v0
q50 0 85.5 35.5zM466 21q-34 21 -53 57.5t-19 80.5v149h53v-147q0 -39 28.5 -67t67.5 -28h47q10 0 10 -10v-46q0 -10 -10 -10h-47q-43 0 -77 21z" />
    <glyph glyph-name="uni0671.fina" unicode="&#x671;" horiz-adv-x="279" arabic-form="final" 
d="M158.5 21.5q-36.5 21.5 -58 58.5t-21.5 81v422h62v-419q0 -41 28 -69.5t69 -28.5h41q10 0 10 -10v-46q0 -10 -10 -10h-40q-44 0 -80.5 21.5zM-81 704l129 77l20 -36l2 -5l-127 -77zM57 640q-24 25 -24 60v31l37 9v-39q0 -15 14.5 -28t32.5 -13h74q17 0 30 13t13 31
q0 22 -12 35.5t-34 13.5q-8 0 -16.5 -4t-24.5 -14l-93 -56l-16 42l98 59q13 8 25 12t30 4q37 0 63 -26.5t26 -63.5q0 -38 -26 -64.5t-63 -26.5h-76q-34 0 -58 25z" />
    <glyph glyph-name="uni067E.fina" unicode="&#x67e;" horiz-adv-x="970" arabic-form="final" 
d="M183.5 28.5q-48.5 28.5 -76.5 77t-28 106.5v96h62v-93q0 -41 20 -75t54 -54t75 -20h354q50 0 85 35.5t35 85.5v121h52v-121q0 -51 -21.5 -94t-61 -68t-89.5 -25h-354q-58 0 -106.5 28.5zM431 -223h75v-75h-75v75zM367 -95h75v-75h-75v75zM495 -95h75v-75h-75v75z
M846.5 21q-33.5 21 -52 57.5t-18.5 80.5v149h50v-147q0 -39 29 -67t68 -28h47q10 0 10 -10v-46q0 -10 -10 -10h-47q-43 0 -76.5 21z" />
    <glyph glyph-name="uni067E.init" unicode="&#x67e;" horiz-adv-x="277" arabic-form="initial" 
d="M-10 10v46q0 10 10 10h62q41 0 69 28.5t28 69.5v176h62v-179q0 -44 -21.5 -81t-58 -58.5t-80.5 -21.5h-61q-10 0 -10 10zM64 -223h75v-75h-75v75zM0 -95h75v-75h-75v75zM128 -95h75v-75h-75v75z" />
    <glyph glyph-name="uni067E.medi" unicode="&#x67e;" horiz-adv-x="365" arabic-form="medial" 
d="M0 66h55q39 0 68 28t29 67v147h62v-147q0 -39 28 -67t68 -28h55q10 0 10 -10v-46q0 -10 -10 -10h-55q-42 0 -75.5 21.5t-52.5 57.5q-18 -36 -51 -57.5t-76 -21.5h-55q-10 0 -10 10v46q0 10 10 10zM142 -223h75v-75h-75v75zM79 -95h75v-75h-75v75zM207 -95h75v-75h-75v75z
" />
    <glyph glyph-name="uni0679.fina" unicode="&#x679;" horiz-adv-x="970" arabic-form="final" 
d="M183.5 28.5q-48.5 28.5 -76.5 77t-28 106.5v96h62v-93q0 -41 20 -75t54 -54t75 -20h354q50 0 85 35.5t35 85.5v121h52v-121q0 -51 -21.5 -94t-61 -68t-89.5 -25h-354q-58 0 -106.5 28.5zM846.5 21q-33.5 21 -52 57.5t-18.5 80.5v149h50v-147q0 -39 29 -67t68 -28h47
q10 0 10 -10v-46q0 -10 -10 -10h-47q-43 0 -76.5 21zM352 358h138q18 0 31 13t13 31q0 22 -11.5 35t-34.5 13q-8 0 -18 -4.5t-23 -12.5l-93 -56l-16 41l98 59q14 9 25.5 13t28.5 4q38 0 64 -26t26 -64t-26.5 -65t-63.5 -27h-138v46zM392 515v57h46v-61v35q0 -31 -7.5 -54.5
t-17.5 -29.5l-47 -26q26 17 26 79z" />
    <glyph glyph-name="uni0679.init" unicode="&#x679;" horiz-adv-x="257" arabic-form="initial" 
d="M-10 10v46q0 10 10 10h44q41 0 69 28.5t28 69.5v176h62v-179q0 -44 -21.5 -81t-58 -58.5t-80.5 -21.5h-43q-10 0 -10 10zM7 485h139q17 0 30 13t13 31q0 22 -12 35.5t-34 13.5q-8 0 -16.5 -4t-24.5 -14l-93 -56l-16 42l98 59q13 8 25 12t30 4q37 0 63 -26.5t26 -63.5
q0 -38 -26 -64.5t-63 -26.5h-139v45zM47 642v57h46v-61v35q0 -30 -7.5 -53.5t-16.5 -30.5l-48 -26q26 17 26 79z" />
    <glyph glyph-name="uni0679.medi" unicode="&#x679;" horiz-adv-x="355" arabic-form="medial" 
d="M0 66h50q39 0 68 28t29 67v147h62v-147q0 -39 28 -67t68 -28h50q10 0 10 -10v-46q0 -10 -10 -10h-50q-43 0 -77.5 23t-50.5 60q-16 -37 -50 -60t-77 -23h-50q-10 0 -10 10v46q0 10 10 10zM83 453h139q18 0 31 13.5t13 31.5q0 22 -12 35t-35 13q-8 0 -18 -4.5t-22 -12.5
l-94 -57l-16 42l98 59q14 8 26 12t29 4q37 0 63 -26t26 -63q0 -39 -25.5 -65.5t-63.5 -26.5h-139v45zM123 610v58h46v-62v35q0 -31 -7.5 -54t-16.5 -29l-48 -27q26 19 26 79z" />
    <glyph glyph-name="uni06A4.fina" unicode="&#x6a4;" horiz-adv-x="865" arabic-form="final" 
d="M183.5 28.5q-48.5 28.5 -76.5 77t-28 106.5v96h62v-93q0 -41 20 -75t54 -54t75 -20h575q10 0 10 -10v-46q0 -10 -10 -10h-575q-58 0 -106.5 28.5zM814 94.5q-25 -41.5 -68 -65t-94 -23.5v0q-51 0 -94 23.5t-68 65t-25 92.5t25 93.5t68 67t94 24.5v0q51 0 94 -24.5t68 -67
t25 -93.5t-25 -92.5zM737.5 270.5q-35.5 35.5 -85.5 35.5v0q-50 0 -85.5 -35.5t-35.5 -85.5t35.5 -84.5t85.5 -34.5v0q50 0 85.5 34.5t35.5 84.5t-35.5 85.5zM551 541h75v-75h-75v75zM678 541h75v-75h-75v75zM615 669h75v-74h-75v74z" />
    <glyph glyph-name="uni06A4.init" unicode="&#x6a4;" horiz-adv-x="449" arabic-form="initial" 
d="M-10 10v46q0 10 10 10h236q40 0 68.5 28t28.5 68v24h-103v0q-46 0 -85 22t-62 60t-23 84t23 85t62 62t85 23v0q46 0 83.5 -23t59.5 -62t22 -85v-192q0 -43 -21.5 -80t-58 -58.5t-80.5 -21.5h-235q-10 0 -10 10zM229 245h107v108q0 46 -31 77t-76 31v0q-46 0 -77 -31
t-31 -77t31 -77t77 -31v0zM127 692h75v-75h-75v75zM254 692h75v-75h-75v75zM190 820h75v-75h-75v75z" />
    <glyph glyph-name="uni06A4.medi" unicode="&#x6a4;" horiz-adv-x="432" arabic-form="medial" 
d="M51 280.5q25 42.5 68 67t94 24.5v0q51 0 94 -24.5t68 -67t25 -93.5t-25 -92.5t-68 -65t-94 -23.5v0q-51 0 -94 23.5t-68 65t-25 92.5t25 93.5zM-10 10v46q0 10 10 10h432q10 0 10 -10v-46q0 -10 -10 -10h-432q-10 0 -10 10zM127.5 100.5q35.5 -34.5 85.5 -34.5v0
q50 0 85.5 34.5t35.5 84.5t-35.5 85.5t-85.5 35.5v0q-50 0 -85.5 -35.5t-35.5 -85.5t35.5 -84.5zM112 541h75v-75h-75v75zM239 541h75v-75h-75v75zM176 669h74v-74h-74v74z" />
    <glyph glyph-name="uni0686.fina" unicode="&#x686;" horiz-adv-x="693" arabic-form="final" 
d="M187.5 -307.5q-48.5 28.5 -77 77t-28.5 104.5q0 47 20.5 88.5t56.5 71.5l321 237l-178 84q-26 13 -45 13t-38 -9t-33 -24l-60 -68l-44 37l61 73q19 24 49 38t66 14q22 0 36 -5t33 -14l219 -102q8 -3 19 -3h69v-61h-90l-55 -41v-42q0 -39 28.5 -67t67.5 -28h108
q10 0 10 -10v-46q0 -10 -10 -10h-108q-63 0 -104.5 41.5t-41.5 105.5v19l-234 -173q-28 -23 -42.5 -53.5t-14.5 -64.5q0 -40 20.5 -74.5t54.5 -54.5t74 -20h292v-62h-297q-56 0 -104.5 28.5zM321 -146h56v-56h-56v56zM272 -42h55v-56h-55v56zM373 -42h56v-56h-56v56z" />
    <glyph glyph-name="uni0686.init" unicode="&#x686;" horiz-adv-x="670" arabic-form="initial" 
d="M-10 10v46q0 10 10 10h175q46 0 87 15t71 43l135 124l-188 89q-29 12 -46 12q-19 0 -38 -9t-32 -23l-66 -76l-44 38l66 80q21 24 50.5 38t64.5 14q20 0 34 -4.5t23.5 -9t12.5 -5.5l218 -102q8 -4 19 -4h75v-61h-87l-162 -149q-40 -36 -92.5 -56t-111.5 -20h-164
q-10 0 -10 10zM208 -226h74v-74h-74v74zM144 -97h75v-75h-75v75zM272 -97h75v-75h-75v75z" />
    <glyph glyph-name="uni0686.medi" unicode="&#x686;" horiz-adv-x="668" arabic-form="medial" 
d="M-10 10v46q0 10 10 10h175q46 0 87 15t71 43l135 124l-188 89q-29 12 -46 12q-20 0 -38.5 -8.5t-31.5 -23.5l-66 -76l-44 38l66 80q21 24 50.5 38t64.5 14q20 0 34 -4.5t23.5 -9t12.5 -5.5l218 -102q8 -4 19 -4h75v-61h-89l-52 -48v-16q0 -39 28.5 -67t68.5 -28h95
q10 0 10 -10v-46q0 -10 -10 -10h-95q-57 0 -97.5 37.5t-47.5 93.5l-60 -55q-40 -36 -92.5 -56t-111.5 -20h-164q-10 0 -10 10zM208 -223h74v-75h-74v75zM144 -95h75v-75h-75v75zM272 -95h75v-75h-75v75z" />
    <glyph glyph-name="uni0688.fina" unicode="&#x688;" horiz-adv-x="567" arabic-form="final" 
d="M71 66h222q36 0 61.5 23.5t25.5 59.5q0 10 -6 30l-86 236l58 21l111 -306q11 -29 36 -46.5t56 -17.5h18q10 0 10 -10v-46q0 -10 -10 -10h-19q-44 0 -78.5 22t-50.5 57q-18 -38 -50.5 -58.5t-75.5 -20.5h-222v66zM202 582h139q17 0 30.5 13t13.5 31q0 22 -12 35.5
t-35 13.5q-8 0 -16.5 -4t-23.5 -14l-94 -56l-16 42l98 59q14 8 26 12t29 4q37 0 63 -26.5t26 -63.5q0 -38 -26 -64.5t-63 -26.5h-139v45zM242 739v57h46v-61v35q0 -31 -7.5 -54t-16.5 -30l-48 -26q26 17 26 79z" />
    <glyph glyph-name="uni0698.fina" unicode="&#x698;" horiz-adv-x="372" arabic-form="final" 
d="M81 -139.5q33 22.5 51 57t18 93.5v297h62v-296q0 -72 -22 -117.5t-66 -77.5t-127 -72l-24 53q75 40 108 62.5zM204.5 45.5q-39.5 45.5 -39.5 113.5v149h47v-147q0 -39 28.5 -67t68.5 -28h63q10 0 10 -10v-46q0 -10 -10 -10h-63q-65 0 -104.5 45.5zM83 480h75v-75h-75v75z
M210 480h75v-75h-75v75zM147 609h75v-75h-75v75z" />
    <glyph glyph-name="uni0691.fina" unicode="&#x691;" horiz-adv-x="356" arabic-form="final" 
d="M81 -139.5q33 22.5 51 57t18 93.5v297h62v-296q0 -72 -22 -117.5t-66 -77.5t-127 -72l-24 53q75 40 108 62.5zM204.5 45.5q-39.5 45.5 -39.5 113.5v149h47v-147q0 -39 28.5 -67t68.5 -28h47q10 0 10 -10v-46q0 -10 -10 -10h-47q-65 0 -104.5 45.5zM82 456h139
q17 0 30.5 13.5t13.5 31.5q0 22 -12 35t-35 13q-8 0 -18 -4.5t-22 -12.5l-94 -57l-16 42l98 59q15 9 26.5 13t28.5 4q37 0 63 -26.5t26 -63.5q0 -39 -25.5 -65.5t-63.5 -26.5h-139v45zM122 613v58h46v-61v34q0 -30 -7.5 -53.5t-16.5 -29.5l-48 -27q26 19 26 79z" />
    <glyph glyph-name="uni06A9.fina" unicode="&#x6a9;" horiz-adv-x="972" arabic-form="final" 
d="M183.5 28.5q-48.5 28.5 -76.5 77t-28 106.5v95h62v-92q0 -41 20 -75t54 -54t75 -20h366q46 0 78 31.5t32 78.5q0 62 -59 97l-243 159v55l190 200l43 -39l-173 -182l225 -147q37 -24 58 -61t21 -84t-23 -87t-62.5 -63.5t-86.5 -23.5h-366q-58 0 -106.5 28.5zM847.5 21
q-33.5 21 -52 57.5t-18.5 80.5v16h51v-14q0 -39 28.5 -67t67.5 -28h48q10 0 10 -10v-46q0 -10 -10 -10h-48q-43 0 -76.5 21z" />
    <glyph glyph-name="uni06A9.init" unicode="&#x6a9;" horiz-adv-x="442" arabic-form="initial" 
d="M0 66h216q45 0 77 31.5t32 78.5q0 63 -58 97l-243 159v55l190 200l43 -39l-173 -182l225 -147q37 -24 58 -61t21 -84t-23 -87t-62.5 -63.5t-86.5 -23.5h-216q-10 0 -10 10v46q0 10 10 10z" />
    <glyph glyph-name="uni06A9.medi" unicode="&#x6a9;" horiz-adv-x="532" arabic-form="medial" 
d="M-10 10v46q0 10 10 10h216q45 0 77 31.5t32 78.5q0 63 -58 97l-243 159v55l190 200l43 -39l-173 -182l225 -147q37 -24 58 -61t21 -84t-23 -87t-62.5 -63.5t-86.5 -23.5h-216q-10 0 -10 10zM408.5 21q-33.5 21 -52 57.5t-18.5 80.5v16h50v-14q1 -39 29.5 -67t67.5 -28h47
q10 0 10 -10v-46q0 -10 -10 -10h-47q-43 0 -76.5 21z" />
    <glyph glyph-name="uni06AF.fina" unicode="&#x6af;" horiz-adv-x="972" arabic-form="final" 
d="M847.5 21q-33.5 21 -52 57.5t-18.5 80.5v16h51v-14q0 -39 28.5 -67t67.5 -28h48q10 0 10 -10v-46q0 -10 -10 -10h-48q-43 0 -76.5 21zM390 548l176 186l31 -33l-176 -186zM183.5 28q-48.5 28 -76.5 76t-28 106v97h62v-94q0 -41 20 -74.5t54 -53t75 -19.5h366
q46 0 78 31.5t32 78.5q0 62 -59 97l-243 159v55l190 200l43 -39l-173 -182l225 -147q37 -24 58 -61t21 -84t-23 -87t-62.5 -63.5t-86.5 -23.5h-366q-58 0 -106.5 28z" />
    <glyph glyph-name="uni06AF.init" unicode="&#x6af;" horiz-adv-x="547" arabic-form="initial" 
d="M-10 10v46q0 10 10 10h321q45 0 77 31.5t32 78.5q0 63 -58 97l-243 159v55l190 200l42 -39l-172 -182l225 -147q37 -24 58 -61t21 -84t-23 -87t-62.5 -63.5t-86.5 -23.5h-321q-10 0 -10 10zM56 548l176 186l31 -33l-176 -186z" />
    <glyph glyph-name="uni06AF.medi" unicode="&#x6af;" horiz-adv-x="636" arabic-form="medial" 
d="M-10 10v46q0 10 10 10h321q45 0 77 31.5t32 78.5q0 63 -58 97l-243 159v55l190 200l42 -39l-172 -182l225 -147q37 -24 58 -61t21 -84t-23 -87t-62.5 -63.5t-86.5 -23.5h-321q-10 0 -10 10zM512.5 21q-33.5 21 -52 57.5t-18.5 80.5v16l51 -1v-13q0 -39 28.5 -67t67.5 -28
h47q10 0 10 -10v-46q0 -10 -10 -10h-47q-43 0 -76.5 21zM56 548l176 186l31 -33l-176 -186z" />
    <glyph glyph-name="uni06BA.fina" unicode="&#x6ba;" horiz-adv-x="779" arabic-form="final" 
d="M217.5 -159.5q-63.5 37.5 -101 101.5t-37.5 139v187h62v-183q0 -59 29 -108.5t78 -78.5t108 -29t108.5 29t79 78.5t29.5 108.5v224h59v-228q0 -75 -37 -139t-100 -101.5t-139 -37.5q-75 0 -138.5 37.5zM630.5 45.5q-37.5 45.5 -37.5 113.5v150h42v-148q0 -39 29 -67
t68 -28h47q10 0 10 -10v-46q0 -10 -10 -10h-47q-64 0 -101.5 45.5z" />
    <glyph glyph-name="uni06C0.fina" unicode="&#x6c0;" horiz-adv-x="590" arabic-form="final" 
d="M171 54q-43 25 -68.5 68t-25.5 94q0 50 25.5 91.5t68.5 66t94 24.5v0h121v54h61v-236q0 -51 -24 -94t-65.5 -68t-92.5 -25v0q-51 0 -94 25zM350.5 129.5q35.5 35.5 35.5 86.5v120h-121v0q-33 0 -60.5 -16.5t-44 -44t-16.5 -59.5q0 -51 35.5 -86.5t85.5 -35.5v0
q50 0 85.5 35.5zM466 21q-34 21 -53 57.5t-19 80.5v149h53v-147q0 -39 28.5 -67t67.5 -28h47q10 0 10 -10v-46q0 -10 -10 -10h-47q-43 0 -77 21zM105 502l105 29q13 3 21 13t8 23q0 17 -12 28.5t-28 10.5l-114 -4l-15 49q-4 11 -4 24q0 29 19 54t49 33l74 20l13 -42l-75 -21
q-16 -5 -25 -16.5t-9 -26.5q0 -7 1 -10l5 -18l26 1l60 2q32 0 56.5 -24t24.5 -59q0 -29 -17 -52t-44 -30l-105 -28z" />
    <glyph glyph-name="uni06C1.fina" unicode="&#x6c1;" horiz-adv-x="538" arabic-form="final" 
d="M548 56v-46q0 -10 -10 -10h-48q-47 0 -84 21t-61 58l-70 107l-181 -172l-40 42l200 190h56l80 -122q35 -58 97 -58h51q10 0 10 -10z" />
    <glyph glyph-name="uni06C1.init" unicode="&#x6c1;" horiz-adv-x="257" arabic-form="initial" 
d="M-10 10v46q0 10 10 10h44q41 0 69 28.5t28 69.5v176h62v-179q0 -44 -21.5 -81t-58 -58.5t-80.5 -21.5h-43q-10 0 -10 10zM13 -348.5q-14 15.5 -14 40.5q0 81 90 213l39 -27q-46 -67 -60 -104t-15 -39q18 2 34 -12t16 -35q0 -22 -15.5 -37t-37.5 -15q-23 0 -37 15.5z" />
    <glyph glyph-name="uni06C1.medi" unicode="&#x6c1;" horiz-adv-x="570" arabic-form="medial" 
d="M250.5 -136q30.5 -30 72.5 -30h163v-62h-162q-45 0 -83 22t-60.5 59.5t-22.5 82.5v273h62v-273q0 -42 30.5 -72zM372.5 -27q23.5 43 65 68t91.5 25h41q10 0 10 -10v-46q0 -10 -10 -10h-44q-50 0 -84.5 -35.5t-34.5 -85.5v-89h-58v89q0 51 23.5 94zM196.5 93
q-23.5 -43 -64.5 -68t-91 -25h-41q-10 0 -10 10v46q0 10 10 10h40q49 0 83.5 35.5t34.5 85.5v52h62v-52q0 -51 -23.5 -94z" />
    <glyph glyph-name="uni06BE.fina" unicode="&#x6be;" horiz-adv-x="530" arabic-form="final" 
d="M190 34.5q-43 23.5 -68 63.5t-25 87t25.5 87t68 63.5t92.5 23.5v0q49 0 89 -23.5t63 -63.5t23 -87t-23 -87t-63 -63.5t-89 -23.5v0q-50 0 -93 23.5zM190 -271.5q-43 23.5 -68 63.5t-25 87t25.5 87t68 63.5t92.5 23.5v0q49 0 89 -23.5t63 -63.5t23 -87t-23 -87t-63 -63.5
t-89 -23.5v0q-50 0 -93 23.5zM367 -204.5q35 35.5 35 84.5t-35 84.5t-84 35.5v0q-50 0 -85.5 -35t-35.5 -85t35.5 -85t85.5 -35v0q49 0 84 35.5zM242 66h288q10 0 10 -10v-46q0 -10 -10 -10h-288v66zM367 101.5q35 35.5 35 84.5t-35 84.5t-84 35.5v0q-50 0 -85.5 -35
t-35.5 -85t35.5 -85t85.5 -35v0q49 0 84 35.5zM68 359h215l-49 -63h-166v63z" />
    <glyph glyph-name="uni06BE.init" unicode="&#x6be;" horiz-adv-x="768" arabic-form="initial" 
d="M280 66q34 0 61.5 17.5t42.5 45.5t15 57t-14.5 57t-42 45.5t-62.5 17.5q-51 0 -86 -34.5t-35 -85.5q0 -37 18 -64t46 -41.5t57 -14.5h247q50 0 85.5 35t35.5 85t-35.5 85t-85.5 35h-462v63h462q50 0 93 -24.5t68.5 -66.5t25.5 -92q0 -51 -25.5 -93.5t-68.5 -67.5t-93 -25
h-249q-51 0 -93 26.5t-66.5 69.5t-24.5 90q0 45 24.5 85.5t67 65.5t94.5 25q55 0 95 -28t60 -69.5t20 -78.5q0 -52 -25.5 -94.5t-66.5 -67t-85 -24.5h-280l1 66h281z" />
    <glyph glyph-name="uni06BE.medi" unicode="&#x6be;" horiz-adv-x="858" arabic-form="medial" 
d="M688.5 92.5q-25.5 -42.5 -68.5 -67.5t-93 -25h-527q-10 0 -10 10v46q0 10 10 10h527q50 0 85.5 35t35.5 85t-35.5 85t-85.5 35h-462v63h462q50 0 93 -24.5t68.5 -66.5t25.5 -92q0 -51 -25.5 -93.5zM432 98q-23 -40 -63 -63.5t-89 -23.5v0q-50 0 -93 23.5t-68 63.5t-25 87
t25.5 87t68 63.5t92.5 23.5v0q49 0 89 -23.5t63 -63.5t23 -87t-23 -87zM364 270.5q-35 35.5 -84 35.5v0q-50 0 -85.5 -35t-35.5 -85t35.5 -85t85.5 -35v0q49 0 84 35.5t35 84.5t-35 84.5zM733.5 21q-33.5 21 -52 57.5t-18.5 80.5v26h51v-24q0 -39 28.5 -67t67.5 -28h48
q10 0 10 -10v-46q0 -10 -10 -10h-48q-43 0 -76.5 21z" />
    <glyph glyph-name="uni06D2.fina" unicode="&#x6d2;" horiz-adv-x="531" arabic-form="final" 
d="M100.5 -14q21.5 37 58.5 58.5t81 21.5h291q10 0 10 -10v-46q0 -10 -10 -10h-293q-38 0 -66 -27.5t-28 -66.5q0 -40 28 -67.5t66 -27.5h255v-66h-253q-44 0 -81 21.5t-58.5 58.5t-21.5 81q0 43 21.5 80z" />
    <glyph glyph-name="uni06D3.fina" unicode="&#x6d3;" horiz-adv-x="531" arabic-form="final" 
d="M100.5 -14q21.5 37 58.5 58.5t81 21.5h291q10 0 10 -10v-46q0 -10 -10 -10h-293q-38 0 -66 -27.5t-28 -66.5q0 -40 28 -67.5t66 -27.5h255v-66h-253q-44 0 -81 21.5t-58.5 58.5t-21.5 81q0 43 21.5 80zM80 159l103 38q-15 4 -28.5 16t-21.5 32q-7 14 -7 32q0 31 19 57
t51 38l62 23l17 -47l-58 -22q-16 -6 -26 -20t-10 -31q0 -25 16.5 -40.5t40.5 -15.5q7 0 21 4l80 29l17 -46l-259 -94z" />
    <glyph glyph-name="uni06C7.fina" unicode="&#x6c7;" horiz-adv-x="503" arabic-form="final" 
d="M290.5 -132.5q45.5 24.5 67 55t21.5 77.5h-121v0q-51 0 -94 24t-68 66t-25 93q0 50 25 93t68 68t94 25v0q51 0 92.5 -25t66 -68t24.5 -93v-162q0 -75 -30.5 -121t-82 -76t-161.5 -79l-20 55q98 43 143.5 67.5zM379 63v121q0 50 -35.5 85.5t-85.5 35.5v0
q-50 0 -85.5 -35.5t-35.5 -85.5q0 -51 35.5 -86t85.5 -35v0h121zM438 66h65q10 0 10 -10v-46q0 -10 -10 -10h-65v66zM204 576q-15 21 -15 48q0 44 31 74.5t75 30.5t74.5 -30.5t30.5 -74.5q0 -35 -19 -61.5t-54 -39.5l-180 -65l-17 47l113 41q-24 9 -39 30zM253.5 583.5
q16.5 -16.5 41.5 -16.5q24 0 40.5 16.5t16.5 41.5t-16.5 41.5t-40.5 16.5q-25 0 -41.5 -16.5t-16.5 -41.5t16.5 -41.5z" />
    <glyph glyph-name="uni06C6.fina" unicode="&#x6c6;" horiz-adv-x="503" arabic-form="final" 
d="M290.5 -132.5q45.5 24.5 67 55t21.5 77.5h-121v0q-51 0 -94 24t-68 66t-25 93q0 50 25 93t68 68t94 25v0q51 0 92.5 -25t66 -68t24.5 -93v-162q0 -75 -30.5 -121t-82 -76t-161.5 -79l-20 55q98 43 143.5 67.5zM379 63v121q0 50 -35.5 85.5t-85.5 35.5v0
q-50 0 -85.5 -35.5t-35.5 -85.5q0 -51 35.5 -86t85.5 -35v0h121zM438 66h65q10 0 10 -10v-46q0 -10 -10 -10h-65v66zM210.5 563q-25.5 26 -81.5 30v50q64 -2 95 -28.5t34 -76.5q3 50 34 76.5t94 28.5v-50q-56 -4 -81 -30t-25 -88h-44q0 62 -25.5 88z" />
    <glyph glyph-name="uni06CC.fina" unicode="&#x6cc;" horiz-adv-x="725" arabic-form="final" 
d="M79 157h62v-197q0 -40 20 -74.5t54 -54.5t75 -20h216q39 0 66.5 27.5t27.5 67.5q0 38 -27.5 66t-66.5 28h-151v53h150q44 0 81 -18.5t58 -52t21 -76.5q0 -44 -21.5 -81t-58 -58.5t-80.5 -21.5h-215q-58 0 -106.5 28.5t-76.5 77t-28 106.5v200zM324 0v66h401q10 0 10 -10
v-46q0 -10 -10 -10h-401z" />
    <glyph glyph-name="uni06CC.init" unicode="&#x6cc;" horiz-adv-x="277" arabic-form="initial" 
d="M-10 10v46q0 10 10 10h62q41 0 69 28.5t28 69.5v176h62v-179q0 -44 -21.5 -81t-58 -58.5t-80.5 -21.5h-61q-10 0 -10 10zM1 -98h75v-75h-75v75zM128 -98h75v-75h-75v75z" />
    <glyph glyph-name="uni06CC.medi" unicode="&#x6cc;" horiz-adv-x="365" arabic-form="medial" 
d="M0 66h55q39 0 68 28t29 67v147h62v-147q0 -39 28 -67t68 -28h55q10 0 10 -10v-46q0 -10 -10 -10h-55q-42 0 -75.5 21.5t-52.5 57.5q-18 -36 -51 -57.5t-76 -21.5h-55q-10 0 -10 10v46q0 10 10 10zM80 -98h75v-75h-75v75zM207 -98h75v-75h-75v75z" />
    <glyph glyph-name="uniFDFC" unicode="&#xfdfc;" horiz-adv-x="1379" arabic-form="isolated" 
d="M217.5 -159.5q-63.5 37.5 -101 101.5t-37.5 139v187h62v-183q0 -59 29 -108.5t78 -78.5t108 -29t108.5 29t79 78.5t29.5 108.5v571h62v-575q0 -75 -37.5 -139t-101.5 -101.5t-140 -37.5q-75 0 -138.5 37.5zM852 -98h75v-75h-75v75zM979 -98h75v-75h-75v75zM839.5 21.5
q-36.5 21.5 -58 58.5t-21.5 81v278q0 46 -10.5 70.5t-30 38t-63.5 34.5q-19 7 -48 23l27 51l18 -9q71 -33 103 -54t49 -56t17 -98v-275q0 -41 28 -69.5t69 -28.5h42q10 0 10 -10v-46q0 -10 -10 -10h-41q-44 0 -80.5 21.5zM951 10v46q0 10 10 10h37q41 0 69.5 28.5t27.5 69.5
v176h62v-179q0 -44 -21.5 -81t-58 -58.5t-80.5 -21.5h-36q-10 0 -10 10zM1176 -139.5q33 22.5 51 57t18 93.5v297h62v-296q0 -72 -22 -117.5t-66.5 -77.5t-127.5 -72l-23 53q75 40 108 62.5z" />
    <glyph glyph-name="uni0622.fina" unicode="&#x622;" horiz-adv-x="279" arabic-form="final" 
d="M158.5 21.5q-36.5 21.5 -58 58.5t-21.5 81v422h62v-419q0 -41 28 -69.5t69 -28.5h41q10 0 10 -10v-46q0 -10 -10 -10h-40q-44 0 -80.5 21.5zM-5.5 692.5q19.5 20.5 52.5 20.5h177v-50h-174q-12 0 -21.5 -9.5t-9.5 -22.5v-39h-44v49q0 31 19.5 51.5z" />
    <glyph glyph-name="uni0623.fina" unicode="&#x623;" horiz-adv-x="279" arabic-form="final" 
d="M158.5 21.5q-36.5 21.5 -58 58.5t-21.5 81v422h62v-419q0 -41 28 -69.5t69 -28.5h41q10 0 10 -10v-46q0 -10 -10 -10h-40q-44 0 -80.5 21.5zM-14 655l103 37q-36 13 -51 48q-6 17 -6 33q0 31 18.5 57t50.5 38l63 23l17 -47l-59 -22q-16 -6 -26 -20t-10 -31
q0 -25 16.5 -40.5t40.5 -15.5q6 0 22 4l79 29l17 -47l-259 -93z" />
    <glyph glyph-name="uni0624.fina" unicode="&#x624;" horiz-adv-x="503" arabic-form="final" 
d="M290.5 -132.5q45.5 24.5 67 55t21.5 77.5h-121v0q-51 0 -94 24t-68 66t-25 93q0 50 25 93t68 68t94 25v0q51 0 92.5 -25t66 -68t24.5 -93v-162q0 -75 -30.5 -121t-82 -76t-161.5 -79l-20 55q98 43 143.5 67.5zM379 63v121q0 50 -35.5 85.5t-85.5 35.5v0
q-50 0 -85.5 -35.5t-35.5 -85.5q0 -51 35.5 -86t85.5 -35v0h121zM438 66h65q10 0 10 -10v-46q0 -10 -10 -10h-65v66zM130 505l103 37q-36 13 -51 48q-6 17 -6 33q0 31 18.5 57t50.5 38l63 23l17 -47l-59 -22q-16 -6 -26 -20t-10 -31q0 -25 16.5 -40.5t40.5 -15.5q8 0 22 4
l80 29l17 -47l-259 -93z" />
    <glyph glyph-name="uni0625.fina" unicode="&#x625;" horiz-adv-x="279" arabic-form="final" 
d="M158.5 21.5q-36.5 21.5 -58 58.5t-21.5 81v494h62v-491q0 -41 28 -69.5t69 -28.5h41q10 0 10 -10v-46q0 -10 -10 -10h-40q-44 0 -80.5 21.5zM-4 -293l103 38q-15 4 -29 16t-22 32q-6 16 -6 33q0 30 18.5 56.5t50.5 38.5l63 22l17 -47l-59 -22q-16 -6 -26 -20t-10 -31
q0 -25 16.5 -40t39.5 -15q12 0 23 4l79 29l17 -47l-258 -94z" />
    <glyph glyph-name="uni0626.fina" unicode="&#x626;" horiz-adv-x="725" arabic-form="final" 
d="M183.5 -226.5q-48.5 28.5 -76.5 77t-28 106.5v200h62v-197q0 -40 20 -74.5t54 -54.5t75 -20h216q39 0 66.5 27.5t27.5 67.5q0 38 -27.5 66t-66.5 28h-151v53h150q44 0 81 -18.5t58 -52t21 -76.5q0 -44 -21.5 -81t-58 -58.5t-80.5 -21.5h-215q-58 0 -106.5 28.5zM324 66
h401q10 0 10 -10v-46q0 -10 -10 -10h-401v66zM79 297l103 38q-15 4 -29 16t-22 32q-6 15 -6 32q0 31 18.5 57t50.5 38l63 23l17 -47l-59 -22q-16 -6 -26 -20t-10 -31q0 -25 16.5 -40.5t40.5 -15.5q7 0 21 4l80 29l17 -46l-259 -94z" />
    <glyph glyph-name="uni0626.init" unicode="&#x626;" horiz-adv-x="316" arabic-form="initial" 
d="M-10 10v46q0 10 10 10h92q41 0 69 28.5t28 69.5v176h62v-179q0 -44 -21.5 -81t-58 -58.5t-80.5 -21.5h-91q-10 0 -10 10zM-6 485l103 38q-15 4 -29 16t-22 32q-6 15 -6 32q0 31 18.5 57t50.5 38l63 23l17 -47l-59 -22q-16 -6 -26 -20t-10 -31q0 -25 16.5 -40.5
t40.5 -15.5q8 0 22 4l79 29l17 -46l-258 -94z" />
    <glyph glyph-name="uni0626.medi" unicode="&#x626;" horiz-adv-x="365" arabic-form="medial" 
d="M-10 10v46q0 10 10 10h55q39 0 68 28t29 67v147h62v-147q0 -39 28 -67t68 -28h55q10 0 10 -10v-46q0 -10 -10 -10h-55q-42 0 -75.5 21.5t-52.5 57.5q-18 -36 -51 -57.5t-76 -21.5h-55q-10 0 -10 10zM39 448l103 37q-36 13 -51 48q-6 17 -6 33q0 31 18.5 57t50.5 38l63 23
l17 -47l-59 -22q-16 -6 -25.5 -20t-9.5 -31q0 -25 16.5 -40.5t39.5 -15.5q8 0 22 4l80 29l17 -47l-259 -93z" />
    <glyph glyph-name="uni0627.fina" unicode="&#x627;" horiz-adv-x="279" arabic-form="final" 
d="M158.5 21.5q-36.5 21.5 -58 58.5t-21.5 81v494h62v-491q0 -41 28 -69.5t69 -28.5h41q10 0 10 -10v-46q0 -10 -10 -10h-40q-44 0 -80.5 21.5z" />
    <glyph glyph-name="uni0628.fina" unicode="&#x628;" horiz-adv-x="970" arabic-form="final" 
d="M183.5 28.5q-48.5 28.5 -76.5 77t-28 106.5v96h62v-93q0 -41 20 -75t54 -54t75 -20h354q50 0 85 35.5t35 85.5v121h62v-147q0 -39 29 -67t68 -28h47q10 0 10 -10v-46q0 -10 -10 -10h-47q-45 0 -80 24t-52 64q-21 -41 -59.5 -64.5t-87.5 -23.5h-354q-58 0 -106.5 28.5z
M434 -95h75v-75h-75v75z" />
    <glyph glyph-name="uni0628.init" unicode="&#x628;" horiz-adv-x="257" arabic-form="initial" 
d="M-10 10v46q0 10 10 10h44q41 0 69 28.5t28 69.5v176h62v-179q0 -44 -21.5 -81t-58 -58.5t-80.5 -21.5h-43q-10 0 -10 10zM0 -95h75v-75h-75v75z" />
    <glyph glyph-name="uni0628.medi" unicode="&#x628;" horiz-adv-x="350" arabic-form="medial" 
d="M-10 10v46q0 10 10 10h47q40 0 68.5 28t28.5 67v147h62v-147q0 -39 28.5 -67t68.5 -28h47q10 0 10 -10v-46q0 -10 -10 -10h-47q-43 0 -76.5 21.5t-51.5 57.5q-18 -36 -51.5 -57.5t-76.5 -21.5h-47q-10 0 -10 10zM135 -95h75v-75h-75v75z" />
    <glyph glyph-name="uni0629.fina" unicode="&#x629;" horiz-adv-x="584" arabic-form="final" 
d="M163.5 54q-43.5 25 -68.5 68t-25 94q0 50 25 91.5t68.5 66t94.5 24.5v0h120v54h62v-236q0 -51 -24 -94t-65.5 -68t-92.5 -25v0q-51 0 -94.5 25zM343.5 129.5q35.5 35.5 35.5 86.5v120h-121v0q-33 0 -61 -16.5t-44.5 -44t-16.5 -59.5q0 -51 36 -86.5t86 -35.5v0
q50 0 85.5 35.5zM459 21q-34 21 -53 57.5t-19 80.5v149h53v-147q0 -39 28.5 -67t67.5 -28h48q10 0 10 -10v-46q0 -10 -10 -10h-48q-43 0 -77 21zM171 640h75v-74h-75v74zM298 640h75v-74h-75v74z" />
    <glyph glyph-name="uni062A.fina" unicode="&#x62a;" horiz-adv-x="970" arabic-form="final" 
d="M79 308h62v-93q0 -41 20 -75t54 -54t75 -20h354q50 0 85 35.5t35 85.5v121h62v-147q0 -39 29 -67t68 -28h47q10 0 10 -10v-46q0 -10 -10 -10h-47q-45 0 -80 24t-52 64q-21 -41 -59.5 -64.5t-87.5 -23.5h-354q-58 0 -106.5 28.5t-76.5 77t-28 106.5v96zM353 383h75v-75
h-75v75zM480 383h75v-75h-75v75z" />
    <glyph glyph-name="uni062A.init" unicode="&#x62a;" horiz-adv-x="275" arabic-form="initial" 
d="M-10 10v46q0 10 10 10h62q41 0 69 28.5t28 69.5v176h62v-179q0 -44 -21.5 -81t-58 -58.5t-80.5 -21.5h-61q-10 0 -10 10zM16 512h75v-75h-75v75zM143 512h75v-75h-75v75z" />
    <glyph glyph-name="uni062A.medi" unicode="&#x62a;" horiz-adv-x="365" arabic-form="medial" 
d="M0 66h55q39 0 68 28t29 67v147h62v-147q0 -39 28 -67t68 -28h55q10 0 10 -10v-46q0 -10 -10 -10h-55q-42 0 -75.5 21.5t-52.5 57.5q-18 -36 -51 -57.5t-76 -21.5h-55q-10 0 -10 10v46q0 10 10 10zM83 482h75v-75h-75v75zM210 482h75v-75h-75v75z" />
    <glyph glyph-name="uni062B.fina" unicode="&#x62b;" horiz-adv-x="970" arabic-form="final" 
d="M183.5 28.5q-48.5 28.5 -76.5 77t-28 106.5v96h62v-93q0 -41 20 -75t54 -54t75 -20h354q50 0 85 35.5t35 85.5v121h52v-121q0 -51 -21.5 -94t-61 -68t-89.5 -25h-354q-58 0 -106.5 28.5zM846.5 21q-33.5 21 -52 57.5t-18.5 80.5v149h50v-147q0 -39 29 -67t68 -28h47
q10 0 10 -10v-46q0 -10 -10 -10h-47q-43 0 -76.5 21zM352 383h75v-75h-75v75zM479 383h75v-75h-75v75zM415 512h75v-75h-75v75z" />
    <glyph glyph-name="uni062B.init" unicode="&#x62b;" horiz-adv-x="275" arabic-form="initial" 
d="M-10 10v46q0 10 10 10h62q41 0 69 28.5t28 69.5v176h62v-179q0 -44 -21.5 -81t-58 -58.5t-80.5 -21.5h-61q-10 0 -10 10zM16 512h75v-75h-75v75zM143 512h75v-75h-75v75zM79 640h75v-75h-75v75z" />
    <glyph glyph-name="uni062B.medi" unicode="&#x62b;" horiz-adv-x="365" arabic-form="medial" 
d="M-10 10v46q0 10 10 10h55q39 0 68 28t29 67v147h62v-147q0 -39 28 -67t68 -28h55q10 0 10 -10v-46q0 -10 -10 -10h-55q-43 0 -77.5 23t-50.5 60q-16 -37 -50 -60t-77 -23h-55q-10 0 -10 10zM81 481h75v-75h-75v75zM208 481h74v-75h-74v75zM144 610h75v-75h-75v75z" />
    <glyph glyph-name="uni062C.fina" unicode="&#x62c;" horiz-adv-x="693" arabic-form="final" 
d="M187.5 -307.5q-48.5 28.5 -77 77t-28.5 104.5q0 47 20.5 88.5t56.5 71.5l321 237l-178 84q-26 13 -45 13t-38 -9t-33 -24l-60 -68l-44 37l61 73q19 24 49 38t66 14q22 0 36 -5t33 -14l219 -102q8 -3 19 -3h69v-61h-90l-55 -41v-42q0 -39 28.5 -67t67.5 -28h108
q10 0 10 -10v-46q0 -10 -10 -10h-108q-63 0 -104.5 41.5t-41.5 105.5v19l-234 -173q-28 -23 -42.5 -53.5t-14.5 -64.5q0 -40 20.5 -74.5t54.5 -54.5t74 -20h292v-62h-297q-56 0 -104.5 28.5zM342 -74h68v-68h-68v68z" />
    <glyph glyph-name="uni062C.init" unicode="&#x62c;" horiz-adv-x="670" arabic-form="initial" 
d="M-10 10v46q0 10 10 10h175q46 0 87 15t71 43l135 124l-188 89q-29 12 -46 12q-19 0 -38 -9t-32 -23l-66 -76l-44 38l66 80q21 24 50.5 38t64.5 14q20 0 34 -4.5t23.5 -9t12.5 -5.5l218 -102q8 -4 19 -4h75v-61h-87l-162 -149q-40 -36 -92.5 -56t-111.5 -20h-164
q-10 0 -10 10zM224 -95h71v-73h-71v73z" />
    <glyph glyph-name="uni062C.medi" unicode="&#x62c;" horiz-adv-x="668" arabic-form="medial" 
d="M-10 10v46q0 10 10 10h175q46 0 87 15t71 43l135 124l-188 89q-29 12 -46 12q-19 0 -38 -9t-32 -23l-66 -76l-44 38l66 80q21 24 50.5 38t64.5 14q20 0 34 -4.5t23.5 -9t12.5 -5.5l218 -102q8 -4 19 -4h75v-61h-89l-52 -48v-16q0 -39 28.5 -67t68.5 -28h95q10 0 10 -10
v-46q0 -10 -10 -10h-95q-57 0 -97.5 37t-48.5 94l-59 -55q-40 -36 -92.5 -56t-111.5 -20h-164q-10 0 -10 10zM213 -95h75v-75h-75v75z" />
    <glyph glyph-name="uni062D.fina" unicode="&#x62d;" horiz-adv-x="693" arabic-form="final" 
d="M187.5 -307.5q-48.5 28.5 -77 77t-28.5 104.5q0 47 20.5 88.5t56.5 71.5l321 237l-178 84q-26 13 -45 13t-38 -9t-33 -24l-60 -68l-44 37l61 73q19 24 49 38t66 14q22 0 36 -5t33 -14l219 -102q8 -3 19 -3h69v-61h-90l-55 -41v-42q0 -39 28.5 -67t67.5 -28h108
q10 0 10 -10v-46q0 -10 -10 -10h-108q-63 0 -104.5 41.5t-41.5 105.5v19l-234 -173q-28 -23 -42.5 -53.5t-14.5 -64.5q0 -40 20.5 -74.5t54.5 -54.5t74 -20h292v-62h-297q-56 0 -104.5 28.5z" />
    <glyph glyph-name="uni062D.init" unicode="&#x62d;" horiz-adv-x="670" arabic-form="initial" 
d="M-10 10v46q0 10 10 10h175q46 0 87 15t71 43l135 124l-188 89q-29 12 -46 12q-19 0 -38 -9t-32 -23l-66 -76l-44 38l66 80q21 24 50.5 38t64.5 14q20 0 34 -4.5t23.5 -9t12.5 -5.5l218 -102q8 -4 19 -4h75v-61h-87l-162 -149q-40 -36 -92.5 -56t-111.5 -20h-164
q-10 0 -10 10z" />
    <glyph glyph-name="uni062D.medi" unicode="&#x62d;" horiz-adv-x="668" arabic-form="medial" 
d="M-10 10v46q0 10 10 10h175q46 0 87 15t71 43l135 124l-188 89q-29 12 -46 12q-19 0 -38 -9t-32 -23l-66 -76l-44 38l66 80q21 24 50.5 38t64.5 14q20 0 34 -4.5t23.5 -9t12.5 -5.5l218 -102q8 -4 19 -4h75v-61h-89l-52 -48v-16q0 -39 28.5 -67t68.5 -28h95q10 0 10 -10
v-46q0 -10 -10 -10h-95q-57 0 -97.5 37.5t-47.5 93.5l-60 -55q-40 -36 -92.5 -56t-111.5 -20h-164q-10 0 -10 10z" />
    <glyph glyph-name="uni062E.fina" unicode="&#x62e;" horiz-adv-x="693" arabic-form="final" 
d="M187.5 -307.5q-48.5 28.5 -77 77t-28.5 104.5q0 47 20.5 88.5t56.5 71.5l321 237l-178 84q-26 13 -45 13t-38 -9t-33 -24l-60 -68l-44 37l61 73q19 24 49 38t66 14q22 0 36 -5t33 -14l219 -102q8 -3 19 -3h69v-61h-90l-55 -41v-42q0 -39 28.5 -67t67.5 -28h108
q10 0 10 -10v-46q0 -10 -10 -10h-108q-63 0 -104.5 41.5t-41.5 105.5v19l-234 -173q-28 -23 -42.5 -53.5t-14.5 -64.5q0 -40 20.5 -74.5t54.5 -54.5t74 -20h292v-62h-297q-56 0 -104.5 28.5zM215 597h75v-75h-75v75z" />
    <glyph glyph-name="uni062E.init" unicode="&#x62e;" horiz-adv-x="670" arabic-form="initial" 
d="M-10 10v46q0 10 10 10h175q46 0 87 15t71 43l135 124l-188 89q-29 12 -46 12q-19 0 -38 -9t-32 -23l-66 -76l-44 38l66 80q21 24 50.5 38t64.5 14q20 0 34 -4.5t23.5 -9t12.5 -5.5l218 -102q8 -4 19 -4h75v-61h-87l-162 -149q-40 -36 -92.5 -56t-111.5 -20h-164
q-10 0 -10 10zM199 580h74v-75h-74v75z" />
    <glyph glyph-name="uni062E.medi" unicode="&#x62e;" horiz-adv-x="668" arabic-form="medial" 
d="M-10 10v46q0 10 10 10h175q46 0 87 15t71 43l135 124l-188 89q-29 12 -46 12q-19 0 -38 -9t-32 -23l-66 -76l-44 38l66 80q21 24 50.5 38t64.5 14q20 0 34 -4.5t23.5 -9t12.5 -5.5l218 -102q8 -4 19 -4h75v-61h-87l-54 -49v-15q0 -39 28.5 -67t68.5 -28h95q10 0 10 -10
v-46q0 -10 -10 -10h-95q-57 0 -97.5 37t-48.5 94l-59 -55q-40 -36 -92.5 -56t-111.5 -20h-164q-10 0 -10 10zM274 505h-75v75h75v-75z" />
    <glyph glyph-name="uni062F.fina" unicode="&#x62f;" horiz-adv-x="567" arabic-form="final" 
d="M71 66h222q36 0 61.5 23.5t25.5 59.5q0 10 -6 30l-86 236l58 21l111 -306q11 -29 36 -46.5t56 -17.5h18q10 0 10 -10v-46q0 -10 -10 -10h-19q-44 0 -78.5 22t-50.5 57q-18 -38 -50.5 -58.5t-75.5 -20.5h-222v66z" />
    <glyph glyph-name="uni0630.fina" unicode="&#x630;" horiz-adv-x="567" arabic-form="final" 
d="M71 66h222q36 0 61.5 23.5t25.5 59.5q0 10 -6 30l-86 236l58 21l111 -306q10 -28 35.5 -46t56.5 -18h18q10 0 10 -10v-46q0 -10 -10 -10h-19q-44 0 -78.5 22t-50.5 57q-18 -38 -50.5 -58.5t-75.5 -20.5h-222v66zM283 592h75v-75h-75v75z" />
    <glyph glyph-name="uni0631.fina" unicode="&#x631;" horiz-adv-x="356" arabic-form="final" 
d="M81 -139.5q33 22.5 51 57t18 93.5v297h62v-296q0 -72 -22 -117.5t-66 -77.5t-127 -72l-24 53q75 40 108 62.5zM204.5 45.5q-39.5 45.5 -39.5 113.5v149h47v-147q0 -39 28.5 -67t68.5 -28h47q10 0 10 -10v-46q0 -10 -10 -10h-47q-65 0 -104.5 45.5z" />
    <glyph glyph-name="uni0632.fina" unicode="&#x632;" horiz-adv-x="356" arabic-form="final" 
d="M81 -139.5q33 22.5 51 57t18 93.5v297h62v-296q0 -72 -22 -117.5t-66 -77.5t-127 -72l-24 53q75 40 108 62.5zM204.5 45.5q-39.5 45.5 -39.5 113.5v149h47v-147q0 -39 28.5 -67t68.5 -28h47q10 0 10 -10v-46q0 -10 -10 -10h-47q-65 0 -104.5 45.5zM143 480h75v-75h-75v75
z" />
    <glyph glyph-name="uni0633.fina" unicode="&#x633;" horiz-adv-x="1289" arabic-form="final" 
d="M217.5 -159.5q-63.5 37.5 -101 101.5t-37.5 139v187h62v-183q0 -59 29 -108.5t78 -78.5t108 -29t108.5 29t79 78.5t29.5 108.5v223h59v-227q0 -75 -37 -139t-100 -101.5t-139 -37.5q-75 0 -138.5 37.5zM630.5 43.5q-37.5 45.5 -37.5 113.5v151h42v-149q0 -39 29 -67
t68 -28t67.5 28t28.5 67v149h51v-151q0 -44 -18.5 -80.5t-52 -57.5t-76.5 -21q-64 0 -101.5 45.5zM910.5 19q-33.5 21 -52.5 57.5t-19 80.5v151h51v-149q0 -39 28.5 -67t68.5 -28q39 0 67.5 28t28.5 67v181h51v-183q0 -44 -18.5 -80.5t-52 -57.5t-76.5 -21t-76.5 21z
M1165.5 21q-33.5 21 -52.5 57.5t-19 80.5v181h51v-179q0 -39 28.5 -67t67.5 -28h48q10 0 10 -10v-46q0 -10 -10 -10h-48q-42 0 -75.5 21z" />
    <glyph glyph-name="uni0633.init" unicode="&#x633;" horiz-adv-x="746" arabic-form="initial" 
d="M481 21q-34 21 -52.5 57.5t-18.5 80.5v149h51v-147q0 -39 28.5 -67t68.5 -28h72v274h62v-340h-134q-43 0 -77 21zM-10 10v46q0 10 10 10h47q40 0 68.5 28t28.5 67v147h51v-149q0 -44 -19 -80.5t-52.5 -57.5t-76.5 -21h-47q-10 0 -10 10zM226.5 19q-33.5 21 -52.5 57.5
t-19 80.5v151h51v-149q0 -39 28.5 -67t68.5 -28q39 0 67.5 28t28.5 67v149h51v-151q0 -44 -19 -80.5t-52.5 -57.5t-75.5 -21q-43 0 -76.5 21z" />
    <glyph glyph-name="uni0633.medi" unicode="&#x633;" horiz-adv-x="860" arabic-form="medial" 
d="M480.5 19q-33.5 21 -52 57.5t-18.5 80.5v151h51v-149q0 -39 28.5 -67t67.5 -28t68 28t29 67v181h50v-183q0 -44 -18.5 -80.5t-52 -57.5t-76.5 -21t-76.5 21zM-10 10v46q0 10 10 10h47q40 0 68.5 28t28.5 67v147h51v-149q0 -44 -19 -80.5t-52.5 -57.5t-76.5 -21h-47
q-10 0 -10 10zM226.5 19q-33.5 21 -52.5 57.5t-19 80.5v151h51v-149q0 -39 28.5 -67t68.5 -28q39 0 67.5 28t28.5 67v149h51v-151q0 -44 -19 -80.5t-52.5 -57.5t-75.5 -21q-43 0 -76.5 21zM735.5 21q-33.5 21 -52 57.5t-18.5 80.5v181h51v-179q0 -39 28 -67t68 -28h48
q10 0 10 -10v-46q0 -10 -10 -10h-48q-43 0 -76.5 21z" />
    <glyph glyph-name="uni0634.fina" unicode="&#x634;" horiz-adv-x="1289" arabic-form="final" 
d="M217.5 -159.5q-63.5 37.5 -101 101.5t-37.5 139v187h62v-183q0 -59 29 -108.5t78 -78.5t108 -29t108.5 29t79 78.5t29.5 108.5v223h59v-227q0 -75 -37 -139t-100 -101.5t-139 -37.5q-75 0 -138.5 37.5zM630.5 43.5q-37.5 45.5 -37.5 113.5v151h42v-149q0 -39 29 -67
t68 -28t67.5 28t28.5 67v149h51v-151q0 -44 -18.5 -80.5t-52 -57.5t-76.5 -21q-64 0 -101.5 45.5zM910.5 19q-33.5 21 -52.5 57.5t-19 80.5v151h51v-149q0 -39 28.5 -67t68.5 -28q39 0 67.5 28t28.5 67v181h51v-183q0 -44 -18.5 -80.5t-52 -57.5t-76.5 -21t-76.5 21z
M1165.5 21q-33.5 21 -52.5 57.5t-19 80.5v181h51v-179q0 -39 28.5 -67t67.5 -28h48q10 0 10 -10v-46q0 -10 -10 -10h-48q-42 0 -75.5 21zM758 474h75v-75h-75v75zM885 474h75v-75h-75v75zM821 603h75v-75h-75v75z" />
    <glyph glyph-name="uni0634.init" unicode="&#x634;" horiz-adv-x="746" arabic-form="initial" 
d="M481 21q-34 21 -52.5 57.5t-18.5 80.5v149h51v-147q0 -39 28.5 -67t68.5 -28h72v274h62v-340h-134q-43 0 -77 21zM-10 10v46q0 10 10 10h47q40 0 68.5 28t28.5 67v147h51v-149q0 -44 -19 -80.5t-52.5 -57.5t-76.5 -21h-47q-10 0 -10 10zM226.5 19q-33.5 21 -52.5 57.5
t-19 80.5v151h51v-149q0 -39 28.5 -67t68.5 -28q39 0 67.5 28t28.5 67v149h51v-151q0 -44 -19 -80.5t-52.5 -57.5t-75.5 -21q-43 0 -76.5 21zM330 468h74v-75h-74v75zM456 468h75v-75h-75v75zM393 597h74v-75h-74v75z" />
    <glyph glyph-name="uni0634.medi" unicode="&#x634;" horiz-adv-x="860" arabic-form="medial" 
d="M480.5 19q-33.5 21 -52 57.5t-18.5 80.5v151h51v-149q0 -39 28.5 -67t67.5 -28t68 28t29 67v181h50v-183q0 -44 -18.5 -80.5t-52 -57.5t-76.5 -21t-76.5 21zM-10 10v46q0 10 10 10h47q40 0 68.5 28t28.5 67v147h51v-149q0 -44 -19 -80.5t-52.5 -57.5t-76.5 -21h-47
q-10 0 -10 10zM226.5 19q-33.5 21 -52.5 57.5t-19 80.5v151h51v-149q0 -39 28.5 -67t68.5 -28q39 0 67.5 28t28.5 67v149h51v-151q0 -44 -19 -80.5t-52.5 -57.5t-75.5 -21q-43 0 -76.5 21zM735.5 21q-33.5 21 -52 57.5t-18.5 80.5v181h51v-179q0 -39 28 -67t68 -28h48
q10 0 10 -10v-46q0 -10 -10 -10h-48q-43 0 -76.5 21zM330 468h74v-75h-74v75zM456 468h75v-75h-75v75zM393 597h74v-75h-74v75z" />
    <glyph glyph-name="uni0635.fina" unicode="&#x635;" horiz-adv-x="1342" arabic-form="final" 
d="M218 -159.5q-64 37.5 -101.5 101.5t-37.5 139v187h62v-183q0 -59 29 -108.5t78.5 -78.5t108.5 -29t108.5 29t78.5 78.5t29 108.5v223h60v-227q0 -75 -37 -139t-100 -101.5t-139 -37.5q-75 0 -139 37.5zM664 23.5q-38 23.5 -58.5 64.5t-20.5 90v130h51v-136
q0 -44 31.5 -75t76.5 -31h268q51 0 87 36.5t36 87.5t-36 87.5t-88 36.5q-19 0 -37.5 -6t-42.5 -21l-299 -178l-23 56l290 172q33 20 58 28.5t55 8.5q51 0 93.5 -25t67.5 -67.5t25 -93.5t-25 -94t-68 -68.5t-94 -25.5h-261q-48 0 -86 23.5zM1218.5 21q-33.5 21 -52 57.5
t-18.5 80.5v29h50v-27q0 -39 29 -67t68 -28h47q10 0 10 -10v-46q0 -10 -10 -10h-47q-43 0 -76.5 21z" />
    <glyph glyph-name="uni0635.init" unicode="&#x635;" horiz-adv-x="822" arabic-form="initial" 
d="M234 23.5q-38 23.5 -58.5 64.5t-20.5 90v130h51v-136q0 -44 31.5 -75t76.5 -31h268q51 0 87 36.5t36 87.5t-36 87.5t-88 36.5q-19 0 -37 -6t-43 -21l-298 -178l-24 56l290 172q33 20 58 28.5t55 8.5q51 0 93.5 -25t67.5 -67.5t25 -93.5t-25 -94t-68 -68.5t-94 -25.5h-261
q-48 0 -86 23.5zM-10 10v46q0 10 10 10h47q40 0 68.5 28t28.5 67v147h51v-149q0 -44 -19 -80.5t-52.5 -57.5t-76.5 -21h-47q-10 0 -10 10z" />
    <glyph glyph-name="uni0635.medi" unicode="&#x635;" horiz-adv-x="912" arabic-form="medial" 
d="M234 23.5q-38 23.5 -58.5 64.5t-20.5 90v130h51v-136q0 -44 31.5 -75t76.5 -31h268q51 0 87 36.5t36 87.5t-36 87.5t-88 36.5q-19 0 -37 -6t-43 -21l-298 -178l-24 56l290 172q33 20 58 28.5t55 8.5q51 0 93.5 -25t67.5 -67.5t25 -93.5t-25 -94t-68 -68.5t-94 -25.5h-261
q-48 0 -86 23.5zM-10 10v46q0 10 10 10h47q40 0 68.5 28t28.5 67v147h51v-149q0 -44 -19 -80.5t-52.5 -57.5t-76.5 -21h-47q-10 0 -10 10zM788.5 21q-33.5 21 -52 57.5t-18.5 80.5v29h50v-27q0 -39 29 -67t68 -28h47q10 0 10 -10v-46q0 -10 -10 -10h-47q-43 0 -76.5 21z" />
    <glyph glyph-name="uni0636.fina" unicode="&#x636;" horiz-adv-x="1342" arabic-form="final" 
d="M218 -159.5q-64 37.5 -101.5 101.5t-37.5 139v187h62v-183q0 -59 29 -108.5t78.5 -78.5t108.5 -29t108.5 29t78.5 78.5t29 108.5v223h60v-227q0 -75 -37 -139t-100 -101.5t-139 -37.5q-75 0 -139 37.5zM664 23.5q-38 23.5 -58.5 64.5t-20.5 90v130h51v-136
q0 -44 31.5 -75t76.5 -31h268q51 0 87 36.5t36 87.5q0 33 -16.5 61.5t-45 45t-61.5 16.5q-20 0 -39 -5.5t-43 -18.5l-299 -178l-22 54l297 176q52 33 106 33q51 0 93.5 -25t67.5 -67.5t25 -93.5t-25 -94t-68 -68.5t-94 -25.5h-261q-48 0 -86 23.5zM1218.5 21
q-33.5 21 -52 57.5t-18.5 80.5v29h50v-27q0 -39 29 -67t68 -28h47q10 0 10 -10v-46q0 -10 -10 -10h-47q-43 0 -76.5 21zM973 544h75v-75h-75v75z" />
    <glyph glyph-name="uni0636.init" unicode="&#x636;" horiz-adv-x="822" arabic-form="initial" 
d="M234 23.5q-38 23.5 -58.5 64.5t-20.5 90v130h51v-136q0 -44 31.5 -75t76.5 -31h268q51 0 87 36.5t36 87.5t-36 87.5t-88 36.5q-18 0 -36.5 -6t-43.5 -21l-298 -178l-24 56l290 172q33 20 58 28.5t55 8.5q51 0 93.5 -25t67.5 -67.5t25 -93.5t-25 -94t-68 -68.5t-94 -25.5
h-261q-48 0 -86 23.5zM-10 10v46q0 10 10 10h47q40 0 68.5 28t28.5 67v147h51v-149q0 -44 -19 -80.5t-52.5 -57.5t-76.5 -21h-47q-10 0 -10 10zM543 544h75v-75h-75v75z" />
    <glyph glyph-name="uni0636.medi" unicode="&#x636;" horiz-adv-x="912" arabic-form="medial" 
d="M234 23.5q-38 23.5 -58.5 64.5t-20.5 90v130h51v-136q0 -44 31.5 -75t76.5 -31h268q51 0 87 36.5t36 88.5t-36.5 89t-88.5 37q-20 0 -39 -6t-43 -21l-303 -181l-16 56l290 172q33 20 58 28.5t55 8.5q51 0 93.5 -25t67.5 -67.5t25 -93.5t-25 -94t-68 -68.5t-94 -25.5h-261
q-48 0 -86 23.5zM-10 10v46q0 10 10 10h47q40 0 68.5 28t28.5 67v147h51v-149q0 -44 -19 -80.5t-52.5 -57.5t-76.5 -21h-47q-10 0 -10 10zM788.5 21q-33.5 21 -52 57.5t-18.5 80.5v29h50v-27q0 -39 29 -67t68 -28h47q10 0 10 -10v-46q0 -10 -10 -10h-47q-43 0 -76.5 21z
M544 544h75v-75h-75v75z" />
    <glyph glyph-name="uni0637.fina" unicode="&#x637;" horiz-adv-x="774" arabic-form="final" 
d="M71 66h374q51 0 87 36.5t36 87.5t-36.5 87t-87.5 36q-19 0 -37.5 -6t-42.5 -21l-258 -152l-30 51l255 152q33 20 58.5 28.5t55.5 8.5q51 0 93.5 -25t67.5 -67.5t25 -93.5t-25 -94t-68 -68.5t-94 -25.5h-373v66zM196 274q6 22 6 53v328h63v-284q0 -35 -7.5 -60.5
t-16.5 -34.5l-71 -35q20 11 26 33zM650.5 21q-33.5 21 -52 57.5t-18.5 80.5v29h51v-27q0 -39 28.5 -67t67.5 -28h47q10 0 10 -10v-46q0 -10 -10 -10h-47q-43 0 -76.5 21z" />
    <glyph glyph-name="uni0637.init" unicode="&#x637;" horiz-adv-x="679" arabic-form="initial" 
d="M-10 10v46q0 10 10 10h439q51 0 87 36.5t36 87.5t-36 87t-88 36q-19 0 -37.5 -6t-42.5 -21l-264 -156l-23 55l255 152q33 20 58 28.5t55 8.5q51 0 93.5 -25t67.5 -67.5t25 -93.5t-25 -94t-68 -68.5t-94 -25.5h-438q-10 0 -10 10zM190 274q6 22 6 53v328h63v-284
q0 -35 -7 -59t-15 -33l-73 -38q20 11 26 33z" />
    <glyph glyph-name="uni0637.medi" unicode="&#x637;" horiz-adv-x="769" arabic-form="medial" 
d="M-10 10v46q0 10 10 10h439q51 0 87 36.5t36 87.5t-36 87t-88 36q-19 0 -37.5 -6t-42.5 -21l-264 -156l-23 55l255 152q33 20 58 28.5t55 8.5q51 0 93.5 -25t67.5 -67.5t25 -93.5t-25 -94t-68 -68.5t-94 -25.5h-438q-10 0 -10 10zM190 274q6 22 6 53v328h63v-284
q0 -35 -7 -59t-15 -33l-73 -38q20 11 26 33zM644.5 21q-33.5 21 -52 57.5t-18.5 80.5v29h51v-27q0 -39 28.5 -67t67.5 -28h48q10 0 10 -10v-46q0 -10 -10 -10h-48q-43 0 -76.5 21z" />
    <glyph glyph-name="uni0638.fina" unicode="&#x638;" horiz-adv-x="774" arabic-form="final" 
d="M71 66h374q51 0 87 36.5t36 87.5t-36.5 87t-87.5 36q-19 0 -37.5 -6t-42.5 -21l-264 -156l-24 55l255 152q33 20 58.5 28.5t55.5 8.5q51 0 93.5 -25t67.5 -67.5t25 -93.5t-25 -94t-68 -68.5t-94 -25.5h-373v66zM196 274q6 22 6 53v328h63v-284q0 -35 -7 -59t-15 -33
l-73 -38q20 11 26 33zM650.5 21q-33.5 21 -52 57.5t-18.5 80.5v29h51v-27q0 -39 28.5 -67t67.5 -28h47q10 0 10 -10v-46q0 -10 -10 -10h-47q-43 0 -76.5 21zM411 544h75v-75h-75v75z" />
    <glyph glyph-name="uni0638.init" unicode="&#x638;" horiz-adv-x="679" arabic-form="initial" 
d="M-10 10v46q0 10 10 10h439q51 0 87 36.5t36 87.5t-36 87t-88 36q-19 0 -37.5 -6t-42.5 -21l-264 -156l-23 55l255 152q33 20 58 28.5t55 8.5q51 0 93.5 -25t67.5 -67.5t25 -93.5t-25 -94t-68 -68.5t-94 -25.5h-438q-10 0 -10 10zM190 274q6 22 6 53v328h63v-284
q0 -35 -7 -59t-15 -33l-73 -38q20 11 26 33zM405 544h75v-75h-75v75z" />
    <glyph glyph-name="uni0638.medi" unicode="&#x638;" horiz-adv-x="769" arabic-form="medial" 
d="M-10 10v46q0 10 10 10h439q51 0 87 36.5t36 87.5t-36 87t-88 36q-19 0 -37.5 -6t-42.5 -21l-264 -156l-23 55l255 152q33 20 58 28.5t55 8.5q51 0 93.5 -25t67.5 -67.5t25 -93.5t-25 -94t-68 -68.5t-94 -25.5h-438q-10 0 -10 10zM190 274q6 22 6 53v328h63v-284
q0 -35 -7 -59t-15 -33l-73 -38q20 11 26 33zM644.5 21q-33.5 21 -52 57.5t-18.5 80.5v29h51v-27q0 -39 28.5 -67t67.5 -28h48q10 0 10 -10v-46q0 -10 -10 -10h-48q-43 0 -76.5 21zM406 544h75v-75h-75v75z" />
    <glyph glyph-name="uni0639.fina" unicode="&#x639;" horiz-adv-x="641" arabic-form="final" 
d="M197.5 -402.5q-57.5 33.5 -91.5 91.5t-34 126q0 64 30.5 116.5t83 84.5t116.5 37q4 0 11 6.5t10 6.5h318q10 0 10 -10v-46q0 -10 -10 -10h-318q-50 0 -92.5 -25t-67.5 -67.5t-25 -92.5q0 -51 25 -93.5t67.5 -67.5t92.5 -25h182v-65h-182q-68 0 -125.5 33.5zM529 99.5
q-24 -40.5 -65.5 -63.5t-92.5 -23h-50q-51 0 -93 23t-65.5 63.5t-23.5 91.5v114h-57v62h239h50h182v-176q0 -51 -24 -91.5zM492 305h-121h-50h-121v-118q0 -50 35.5 -85.5t85.5 -35.5h50q50 0 85.5 35.5t35.5 85.5v118z" />
    <glyph glyph-name="uni0639.init" unicode="&#x639;" horiz-adv-x="486" arabic-form="initial" 
d="M172 36q-46 24 -72.5 66.5t-26.5 95.5q0 54 26.5 98.5t72.5 70.5t101 26h109v-61h-109q-37 0 -68 -18t-48.5 -48.5t-17.5 -66.5q0 -56 38.5 -94.5t94.5 -38.5l1 -54q-55 0 -101 24zM-10 10v46q0 10 10 10h432v-66h-432q-10 0 -10 10z" />
    <glyph glyph-name="uni0639.medi" unicode="&#x639;" horiz-adv-x="633" arabic-form="medial" 
d="M516 99.5q-24 -40.5 -65.5 -63.5t-92.5 -23h-50q-51 0 -93 23t-65.5 63.5t-23.5 91.5v114h-57v62h239h50h182v-176q0 -51 -24 -91.5zM-10 10v46q0 10 10 10h633q10 0 10 -10v-46q0 -10 -10 -10h-633q-10 0 -10 10zM479 305h-121h-50h-121v-118q0 -50 35.5 -85.5
t85.5 -35.5h50q50 0 85.5 35.5t35.5 85.5v118z" />
    <glyph glyph-name="uni063A.fina" unicode="&#x63a;" horiz-adv-x="641" arabic-form="final" 
d="M197.5 -402.5q-57.5 33.5 -91.5 91.5t-34 126q0 64 30.5 116.5t83 84.5t116.5 37q4 0 11 6.5t10 6.5h318q10 0 10 -10v-46q0 -10 -10 -10h-318q-50 0 -92.5 -25t-67.5 -67.5t-25 -92.5q0 -51 25 -93.5t67.5 -67.5t92.5 -25h182v-65h-182q-68 0 -125.5 33.5zM228 36
q-42 23 -65.5 63.5t-23.5 91.5v114h-57v62h239h50h182v-176q0 -51 -24 -91.5t-65.5 -63.5t-92.5 -23h-50q-51 0 -93 23zM456.5 101.5q35.5 35.5 35.5 85.5v118h-121h-50h-121v-118q0 -50 35.5 -85.5t85.5 -35.5h50q50 0 85.5 35.5zM289 539h75v-75h-75v75z" />
    <glyph glyph-name="uni063A.init" unicode="&#x63a;" horiz-adv-x="486" arabic-form="initial" 
d="M214 551h75v-75h-75v75zM172 36q-46 24 -72.5 66.5t-26.5 95.5q0 54 26.5 98.5t72.5 70.5t101 26h109v-61h-109q-37 0 -68 -18t-48.5 -48.5t-17.5 -66.5q0 -56 38.5 -94.5t94.5 -38.5l1 -54q-55 0 -101 24zM-10 10v46q0 10 10 10h432v-66h-432q-10 0 -10 10z" />
    <glyph glyph-name="uni063A.medi" unicode="&#x63a;" horiz-adv-x="633" arabic-form="medial" 
d="M215 36q-42 23 -66 63.5t-24 91.5v114h-57v62h240h50h182v-176q0 -51 -24 -91.5t-65.5 -63.5t-92.5 -23h-50q-51 0 -93 23zM-10 10v46q0 10 10 10h633q10 0 10 -10v-46q0 -10 -10 -10h-633q-10 0 -10 10zM443.5 101.5q35.5 35.5 35.5 85.5v118h-121h-50h-121v-118
q0 -50 35.5 -85.5t85.5 -35.5h50q50 0 85.5 35.5zM295 539h75v-75h-75v75z" />
    <glyph glyph-name="uni0641.fina" unicode="&#x641;" horiz-adv-x="865" arabic-form="final" 
d="M615 541h75v-75h-75v75zM183.5 28.5q-48.5 28.5 -76.5 77t-28 106.5v96h62v-93q0 -41 20 -75t54 -54t75 -20h575q10 0 10 -10v-46q0 -10 -10 -10h-575q-58 0 -106.5 28.5zM814 94.5q-25 -41.5 -68 -65t-94 -23.5v0q-51 0 -94 23.5t-68 65t-25 92.5t25 93.5t68 67t94 24.5
v0q51 0 94 -24.5t68 -67t25 -93.5t-25 -92.5zM737.5 270.5q-35.5 35.5 -85.5 35.5v0q-50 0 -85.5 -35.5t-35.5 -85.5t35.5 -84.5t85.5 -34.5v0q50 0 85.5 34.5t35.5 84.5t-35.5 85.5z" />
    <glyph glyph-name="uni0641.init" unicode="&#x641;" horiz-adv-x="449" arabic-form="initial" 
d="M-10 10v46q0 10 10 10h236q40 0 68.5 28t28.5 68v24h-103v0q-46 0 -85 22t-62 60t-23 84t23 85t62 62t85 23v0q46 0 83.5 -23t59.5 -62t22 -85v-192q0 -43 -21.5 -80t-58 -58.5t-80.5 -21.5h-235q-10 0 -10 10zM336 245v108q0 46 -31 77t-76 31v0q-46 0 -77 -31t-31 -77
t31 -77t77 -31v0h107zM193 692h75v-75h-75v75z" />
    <glyph glyph-name="uni0641.medi" unicode="&#x641;" horiz-adv-x="489" arabic-form="medial" 
d="M82 280.5q25 42.5 68.5 67t94.5 24.5v0q51 0 94 -24.5t68 -67t25 -93.5t-25 -92.5t-68 -65t-94 -23.5v0q-52 0 -95 23.5t-68 65t-25 92.5t25 93.5zM-10 10v46q0 10 10 10h489q10 0 10 -10v-46q0 -10 -10 -10h-489q-10 0 -10 10zM158.5 100.5q35.5 -34.5 86.5 -34.5v0
q50 0 85.5 34.5t35.5 84.5t-35.5 85.5t-85.5 35.5v0q-50 0 -86 -35.5t-36 -85.5t35.5 -84.5zM207 541h75v-75h-75v75z" />
    <glyph glyph-name="uni0642.fina" unicode="&#x642;" horiz-adv-x="696" arabic-form="final" 
d="M217.5 -253.5q-63.5 37.5 -101 101.5t-37.5 139v187h62v-183q0 -59 29 -108.5t78 -78.5t108 -29t108.5 29t79 78.5t29.5 108.5v9h-121v0q-51 0 -94 24t-68 66t-25 93q0 50 25 93t68 68t94 25v0q51 0 92.5 -25t66 -68t24.5 -93v-196q0 -75 -37.5 -139t-101.5 -101.5
t-140 -37.5q-75 0 -138.5 37.5zM573 65v121q0 50 -35.5 86t-85.5 36v0q-50 0 -86 -36t-36 -86t36 -85.5t86 -35.5v0h121zM635 66h61q10 0 10 -10v-46q0 -10 -10 -10h-61v66zM351 541h75v-75h-75v75zM478 541h75v-75h-75v75z" />
    <glyph glyph-name="uni0642.init" unicode="&#x642;" horiz-adv-x="449" arabic-form="initial" 
d="M-10 10v46q0 10 10 10h236q40 0 68.5 28t28.5 68v24h-103v0q-46 0 -85 22t-62 60t-23 84t23 85t62 62t85 23v0q46 0 83.5 -23t59.5 -62t22 -85v-192q0 -43 -21.5 -80t-58 -58.5t-80.5 -21.5h-235q-10 0 -10 10zM336 245v108q0 46 -31 77t-76 31v0q-46 0 -77 -31t-31 -77
t31 -77t77 -31v0h107zM129 694h75v-75h-75v75zM256 694h75v-75h-75v75z" />
    <glyph glyph-name="uni0642.medi" unicode="&#x642;" horiz-adv-x="432" arabic-form="medial" 
d="M51 280.5q25 42.5 68 67t94 24.5v0q51 0 94 -24.5t68 -67t25 -93.5t-25 -92.5t-68 -65t-94 -23.5v0q-51 0 -94 23.5t-68 65t-25 92.5t25 93.5zM-10 10v46q0 10 10 10h432q10 0 10 -10v-46q0 -10 -10 -10h-432q-10 0 -10 10zM127.5 100.5q35.5 -34.5 85.5 -34.5v0
q50 0 85.5 34.5t35.5 84.5t-35.5 85.5t-85.5 35.5v0q-50 0 -85.5 -35.5t-35.5 -85.5t35.5 -84.5zM112 544h75v-75h-75v75zM239 544h75v-75h-75v75z" />
    <glyph glyph-name="uni0643.fina" unicode="&#x643;" horiz-adv-x="970" arabic-form="final" 
d="M183.5 28.5q-48.5 28.5 -76.5 77t-28 106.5v96h62v-93q0 -41 20 -75t54 -54t75 -20h354q50 0 85 35.5t35 85.5v438h60v-438q0 -51 -23.5 -94t-65 -68t-91.5 -25h-354q-58 0 -106.5 28.5zM846.5 21q-33.5 21 -52 57.5t-18.5 80.5v466h50v-464q0 -39 29 -67t68 -28h47
q10 0 10 -10v-46q0 -10 -10 -10h-47q-43 0 -76.5 21zM368 301l105 38q27 10 27 34q0 5 -2 13q-6 20 -29 26l-99 23l-20 37l153 109l23 -39l-103 -73l52 -12q22 -6 40 -19.5t24 -32.5q6 -16 6 -31q0 -27 -15 -49t-42 -32l-103 -38z" />
    <glyph glyph-name="uni0643.init" unicode="&#x643;" horiz-adv-x="441" arabic-form="initial" 
d="M0 66h216q45 0 77 31.5t32 78.5q0 63 -58 97l-243 159v55l190 200l43 -39l-173 -182l225 -147q37 -24 58 -61t21 -84t-23 -87t-62.5 -63.5t-86.5 -23.5h-216q-10 0 -10 10v46q0 10 10 10z" />
    <glyph glyph-name="uni0643.medi" unicode="&#x643;" horiz-adv-x="532" arabic-form="medial" 
d="M-10 10v46q0 10 10 10h216q45 0 77 31.5t32 78.5q0 63 -58 97l-243 159v55l190 200l43 -39l-173 -182l225 -147q37 -24 58 -61t21 -84t-23 -87t-62.5 -63.5t-86.5 -23.5h-216q-10 0 -10 10zM408.5 21q-33.5 21 -52 57.5t-18.5 80.5v16h50v-14q1 -39 29.5 -67t67.5 -28h47
q10 0 10 -10v-46q0 -10 -10 -10h-47q-43 0 -76.5 21z" />
    <glyph glyph-name="uni0644.fina" unicode="&#x644;" horiz-adv-x="779" arabic-form="final" 
d="M217.5 -159.5q-63.5 37.5 -101 101.5t-37.5 139v187h62v-183q0 -59 29 -108.5t78 -78.5t108 -29t108.5 29t79 78.5t29.5 108.5v571h60v-575q0 -75 -37 -139t-100.5 -101.5t-139.5 -37.5q-75 0 -138.5 37.5zM632 45.5q-37 45.5 -37 113.5v496h40v-494q0 -39 29 -67t68 -28
h47q10 0 10 -10v-46q0 -10 -10 -10h-47q-63 0 -100 45.5z" />
    <glyph glyph-name="uni0644.init" unicode="&#x644;" horiz-adv-x="260" arabic-form="initial" 
d="M-10 10v46q0 10 10 10h39q40 0 68.5 28.5t28.5 69.5v491h62v-494q0 -44 -21.5 -81t-58 -58.5t-80.5 -21.5h-38q-10 0 -10 10z" />
    <glyph glyph-name="uni0644.medi" unicode="&#x644;" horiz-adv-x="350" arabic-form="medial" 
d="M-10 10v46q0 10 10 10h47q40 0 68.5 28t28.5 67v494h62v-494q0 -39 28.5 -67t68.5 -28h47q10 0 10 -10v-46q0 -10 -10 -10h-47q-43 0 -77 22t-51 59q-17 -37 -51 -59t-77 -22h-47q-10 0 -10 10z" />
    <glyph glyph-name="uni0645.fina" unicode="&#x645;" horiz-adv-x="802" arabic-form="final" 
d="M101 286.5q22 37.5 59.5 59t82.5 21.5h228v0q51 0 94 -24t68 -65.5t25 -92.5t-25 -94t-68 -68t-94 -25v0q-51 0 -92.5 25t-65.5 68t-24 94v120h-47q-42 0 -71.5 -29.5t-29.5 -70.5v-455h-62v455q0 44 22 81.5zM556.5 99.5q35.5 35.5 35.5 85.5t-35.5 85.5t-85.5 35.5v0
h-121v-121q0 -50 35.5 -85.5t85.5 -35.5v0q50 0 85.5 35.5zM678.5 21q-33.5 21 -52 57.5t-18.5 80.5v26h50v-24q0 -39 28.5 -67t68.5 -28h47q10 0 10 -10v-46q0 -10 -10 -10h-47q-43 0 -76.5 21z" />
    <glyph glyph-name="uni0645.init" unicode="&#x645;" horiz-adv-x="572" arabic-form="initial" 
d="M238.5 23q-41.5 25 -65.5 68t-24 94v120h-58v62h240v0q51 0 94 -24t68 -65.5t25 -92.5t-25 -94t-68 -68t-94 -25v0q-51 0 -92.5 25zM-10 10v46q0 10 10 10h53q39 0 67.5 28t28.5 67v123h51v-125q0 -44 -19 -80.5t-52.5 -57.5t-75.5 -21h-53q-10 0 -10 10zM416.5 99.5
q35.5 35.5 35.5 85.5t-35.5 85t-85.5 35v0h-120v-120q0 -50 35 -85.5t85 -35.5v0q50 0 85.5 35.5z" />
    <glyph glyph-name="uni0645.medi" unicode="&#x645;" horiz-adv-x="662" arabic-form="medial" 
d="M238.5 23q-41.5 25 -65.5 68t-24 94v120h-58v62h240v0q51 0 94 -24t68 -65.5t25 -92.5t-25 -94t-68 -68t-94 -25v0q-51 0 -92.5 25zM-10 10v46q0 10 10 10h53q39 0 67.5 28t28.5 67v124h51v-126q0 -44 -19 -80.5t-52.5 -57.5t-75.5 -21h-53q-10 0 -10 10zM416.5 99.5
q35.5 35.5 35.5 85.5t-35.5 85t-85.5 35v0h-120v-120q0 -50 35 -85.5t85 -35.5v0q50 0 85.5 35.5zM538.5 21q-33.5 21 -52.5 57.5t-19 80.5v26h51v-24q0 -39 28.5 -67t68.5 -28h47q10 0 10 -10v-46q0 -10 -10 -10h-47q-43 0 -76.5 21z" />
    <glyph glyph-name="uni0646.fina" unicode="&#x646;" horiz-adv-x="779" arabic-form="final" 
d="M217.5 -159.5q-63.5 37.5 -101 101.5t-37.5 139v187h62v-183q0 -59 29 -108.5t78 -78.5t108 -29t108.5 29t79 78.5t29.5 108.5v224h59v-228q0 -75 -37 -139t-100 -101.5t-139 -37.5q-75 0 -138.5 37.5zM318 355h75v-74h-75v74zM630.5 45.5q-37.5 45.5 -37.5 113.5v150h42
v-148q0 -39 29 -67t68 -28h47q10 0 10 -10v-46q0 -10 -10 -10h-47q-64 0 -101.5 45.5z" />
    <glyph glyph-name="uni0646.init" unicode="&#x646;" horiz-adv-x="258" arabic-form="initial" 
d="M-10 10v46q0 10 10 10h44q41 0 69 28.5t28 69.5v176h62v-179q0 -44 -21.5 -81t-58 -58.5t-80.5 -21.5h-43q-10 0 -10 10zM125 512h75v-75h-75v75z" />
    <glyph glyph-name="uni0646.medi" unicode="&#x646;" horiz-adv-x="355" arabic-form="medial" 
d="M0 66h50q39 0 68 28t29 67v147h62v-147q0 -39 28 -67t68 -28h50q10 0 10 -10v-46q0 -10 -10 -10h-50q-42 0 -75.5 21.5t-52.5 57.5q-18 -36 -51 -57.5t-76 -21.5h-50q-10 0 -10 10v46q0 10 10 10zM139 480h75v-75h-75v75z" />
    <glyph glyph-name="uni0647.fina" unicode="&#x647;" horiz-adv-x="590" arabic-form="final" 
d="M171 54q-43 25 -68.5 68t-25.5 94q0 50 25.5 91.5t68.5 66t94 24.5v0h121v54h61v-236q0 -51 -24 -94t-65.5 -68t-92.5 -25v0q-51 0 -94 25zM350.5 129.5q35.5 35.5 35.5 86.5v120h-121v0q-33 0 -60.5 -16.5t-44 -44t-16.5 -59.5q0 -51 35.5 -86.5t85.5 -35.5v0
q50 0 85.5 35.5zM466 21q-34 21 -53 57.5t-19 80.5v149h53v-147q0 -39 28.5 -67t67.5 -28h47q10 0 10 -10v-46q0 -10 -10 -10h-47q-43 0 -77 21z" />
    <glyph glyph-name="uni0647.init" unicode="&#x647;" horiz-adv-x="768" arabic-form="initial" 
d="M280 66q34 0 61.5 17.5t42.5 45.5t15 57t-14.5 57t-42 45.5t-62.5 17.5q-51 0 -86 -34.5t-35 -85.5q0 -37 18 -64t46 -41.5t57 -14.5h247q50 0 85.5 35t35.5 85t-35.5 85t-85.5 35h-462v63h462q50 0 93 -24.5t68.5 -66.5t25.5 -92q0 -51 -25.5 -93.5t-68.5 -67.5t-93 -25
h-249q-51 0 -93 26.5t-66.5 69.5t-24.5 90q0 45 24.5 85.5t67 65.5t94.5 25q55 0 95 -28t60 -69.5t20 -78.5q0 -52 -25.5 -94.5t-66.5 -67t-85 -24.5h-280l1 66h281z" />
    <glyph glyph-name="uni0647.medi" unicode="&#x647;" horiz-adv-x="556" arabic-form="medial" 
d="M0 66h71v119q0 51 24 94t65.5 68t92.5 25t94 -25t68.5 -68t25.5 -94t-25.5 -93t-68.5 -67t-94 -25h-120v-64q0 -42 30 -72t72 -30h237v-62h-236q-45 0 -83 22t-60 59.5t-22 82.5v64h-71q-10 0 -10 10v46q0 10 10 10zM359.5 -27q23.5 43 64.5 68t91 25h41q10 0 10 -10v-46
q0 -10 -10 -10h-44q-50 0 -84 -35t-34 -86v-89h-58v89q0 51 23.5 94zM339.5 100.5q35.5 34.5 35.5 84.5t-36 85.5t-86 35.5t-85.5 -35.5t-35.5 -85.5v-119h121q51 0 86.5 34.5z" />
    <glyph glyph-name="uni0648.fina" unicode="&#x648;" horiz-adv-x="503" arabic-form="final" 
d="M290.5 -132.5q45.5 24.5 67 55t21.5 77.5h-121v0q-51 0 -94 24t-68 66t-25 93q0 50 25 93t68 68t94 25v0q51 0 92.5 -25t66 -68t24.5 -93v-162q0 -75 -30.5 -121t-82 -76t-161.5 -79l-20 55q98 43 143.5 67.5zM258 63h121v121q0 50 -35.5 85.5t-85.5 35.5v0
q-50 0 -85.5 -35.5t-35.5 -85.5q0 -51 35.5 -86t85.5 -35v0zM439 66h64q10 0 10 -10v-46q0 -10 -10 -10h-64v66z" />
    <glyph glyph-name="uni0649.fina" unicode="&#x649;" horiz-adv-x="725" arabic-form="final" 
d="M79 157h62v-197q0 -40 20 -74.5t54 -54.5t75 -20h216q39 0 66.5 27.5t27.5 67.5q0 38 -27.5 66t-66.5 28h-151v53h150q44 0 81 -18.5t58 -52t21 -76.5q0 -44 -21.5 -81t-58 -58.5t-80.5 -21.5h-215q-58 0 -106.5 28.5t-76.5 77t-28 106.5v200zM324 0v66h401q10 0 10 -10
v-46q0 -10 -10 -10h-401z" />
    <glyph glyph-name="uni064A.fina" unicode="&#x64a;" horiz-adv-x="725" arabic-form="final" 
d="M183.5 -226.5q-48.5 28.5 -76.5 77t-28 106.5v200h62v-197q0 -40 20 -74.5t54 -54.5t75 -20h216q39 0 66.5 27.5t27.5 67.5q0 38 -27.5 66t-66.5 28h-151v53h150q44 0 81 -18.5t58 -52t21 -76.5q0 -44 -21.5 -81t-58 -58.5t-80.5 -21.5h-215q-58 0 -106.5 28.5zM271 -351
h75v-75h-75v75zM398 -351h75v-75h-75v75zM324 66h401q10 0 10 -10v-46q0 -10 -10 -10h-401v66z" />
    <glyph glyph-name="uni064A.init" unicode="&#x64a;" horiz-adv-x="277" arabic-form="initial" 
d="M-10 10v46q0 10 10 10h62q41 0 69 28.5t28 69.5v176h62v-179q0 -44 -21.5 -81t-58 -58.5t-80.5 -21.5h-61q-10 0 -10 10zM0 -98h75v-75h-75v75zM127 -98h75v-75h-75v75z" />
    <glyph glyph-name="uni064A.medi" unicode="&#x64a;" horiz-adv-x="365" arabic-form="medial" 
d="M0 66h55q39 0 68 28t29 67v147h62v-147q0 -39 28 -67t68 -28h55q10 0 10 -10v-46q0 -10 -10 -10h-55q-42 0 -75.5 21.5t-52.5 57.5q-18 -36 -51 -57.5t-76 -21.5h-55q-10 0 -10 10v46q0 10 10 10zM81 -98h75v-75h-75v75zM208 -98h74v-75h-74v75z" />
    <glyph glyph-name=".notdef" horiz-adv-x="505" 
d="M50 705h405v-705h-405v705zM238.5 315.5q4.5 8.5 8.5 19t7 17.5l-14 11q-7 -6 -17 -13.5t-17.5 -16t-16.5 -21.5l-40 -55l31 -22l40 55q14 17 18.5 25.5zM200.5 365.5q9.5 -1.5 21.5 -2t18 -0.5l5 15q-4 3 -15.5 10.5t-22 12.5t-25.5 10l-66 21l-12 -37l66 -20
q21 -8 30.5 -9.5zM357 257l-40 55q-12 17 -18.5 24t-15.5 14t-16 13l-13 -11q8 -25 12.5 -33.5t19.5 -28.5l40 -56zM267.5 398.5q3.5 12.5 4.5 23.5t1 27v68h-39v-68q0 -21 1.5 -31t4.5 -21t5 -19h17q2 8 5.5 20.5zM402 394l-11 37l-66 -21q-20 -7 -28.5 -11t-18 -10.5
t-16.5 -10.5l5 -15q7 0 20 0.5t24 3t26 7.5z" />
    <glyph glyph-name=".null" horiz-adv-x="600" 
 />
    <glyph glyph-name="nonmarkingreturn" unicode="&#xd;" horiz-adv-x="600" 
 />
    <glyph glyph-name="space" unicode=" " horiz-adv-x="217" 
 />
    <glyph glyph-name="space" unicode="&#xa0;" horiz-adv-x="217" 
 />
    <glyph glyph-name="exclam" unicode="!" horiz-adv-x="234" 
d="M139 180h-45l-12 495h69zM83.5 8.5q-14.5 14.5 -14.5 34.5t14 33.5t34 13.5q21 0 34.5 -14t13.5 -33q0 -21 -14 -35t-34 -14q-19 0 -33.5 14.5z" />
    <glyph glyph-name="quotedbl" unicode="&#x22;" horiz-adv-x="364" 
d="M123 412h-54l-5 263h64zM294 412h-53l-5 263h64z" />
    <glyph glyph-name="numbersign" unicode="#" horiz-adv-x="717" 
d="M505 240h142v-54h-149l-23 -187h-57l24 187h-203l-24 -187h-57l24 187h-142v54h148l25 198h-143v54h149l23 176h57l-23 -176h203l23 176h57l-23 -176h141v-54h-148zM245 240h203l25 198h-203z" />
    <glyph glyph-name="dollar" unicode="$" horiz-adv-x="665" 
d="M196.5 6.5q-71.5 21.5 -121.5 55.5l24 53q44 -29 110 -49t128 -20q87 0 137 32.5t50 90.5q0 41 -23 66.5t-61.5 39.5t-104.5 30q-85 23 -134.5 46.5t-74.5 60t-25 92.5q0 88 70 137.5t179 49.5q98 0 217 -44l-21 -57q-107 39 -195 39q-85 0 -134.5 -34t-49.5 -92
q0 -42 22.5 -67t60.5 -39.5t107 -31.5q79 -20 128.5 -42.5t77 -58.5t27.5 -90q0 -90 -70 -139.5t-180 -49.5q-72 0 -143.5 21.5zM324 -3h51v-115h-51v115zM324 795h51v-115h-51v115z" />
    <glyph glyph-name="percent" unicode="%" horiz-adv-x="833" 
d="M89 382q-44 52 -44 138t43.5 138t114.5 52t115 -52.5t44 -137.5q0 -86 -44 -138t-115 -52q-70 0 -114 52zM209 0h-63l483 708h63zM280 414q29 40 29 106q0 67 -29 106.5t-77 39.5t-76.5 -40t-28.5 -106q0 -67 28.5 -106.5t76.5 -39.5t77 40zM515 47q-44 52 -44 138
t43.5 138t114.5 52t115 -52.5t44 -137.5q0 -86 -44 -138t-115 -52q-70 0 -114 52zM706.5 79q28.5 40 28.5 106q0 67 -28.5 106.5t-77.5 39.5q-48 0 -76.5 -40t-28.5 -106q0 -67 28 -106.5t77 -39.5t77.5 40z" />
    <glyph glyph-name="ampersand" unicode="&#x26;" horiz-adv-x="750" 
d="M188.5 13.5q-52.5 21.5 -82.5 62.5t-30 97q0 61 39.5 109.5t132.5 104.5q-49 52 -69 90.5t-20 79.5q0 69 49 109.5t127 40.5q74 0 119 -37.5t45 -102.5q0 -55 -38.5 -97.5t-115.5 -87.5l195 -207q38 52 80 130l43 -24q-44 -84 -88 -144l102 -106l-40 -42l-101 105
q-48 -49 -103.5 -75.5t-126.5 -26.5q-65 0 -117.5 21.5zM496 130l-209 222q-74 -45 -110.5 -84t-36.5 -89q0 -57 47 -93t123 -36q115 0 186 80zM404 494q32 32 32 73t-27 64t-74 23q-51 0 -80.5 -26t-29.5 -70q0 -32 16.5 -61t60.5 -76q70 41 102 73z" />
    <glyph glyph-name="quotesingle" unicode="'" horiz-adv-x="193" 
d="M123 412h-54l-5 263h64z" />
    <glyph glyph-name="parenleft" unicode="(" horiz-adv-x="306" 
d="M112 43.5q-30 120.5 -30 258.5q0 137 30 257.5t87 210.5l51 -23q-102 -187 -102 -445t102 -446l-51 -22q-57 89 -87 209.5z" />
    <glyph glyph-name="parenright" unicode=")" horiz-adv-x="306" 
d="M159 302q0 256 -103 445l51 23q57 -90 87 -210.5t30 -257.5q0 -138 -30 -258.5t-87 -209.5l-51 22q103 189 103 446z" />
    <glyph glyph-name="asterisk" unicode="*" horiz-adv-x="478" 
d="M256 476.5q-5 11.5 -16 47.5l20 16l17 -13q18 -14 27 -23t27 -33l50 -70l-48 -35l-51 70q-21 29 -26 40.5zM315 541.5q-13 -1.5 -29 -1.5h-26l-8 24l17 12q18 13 29.5 19t40.5 15l83 26l18 -57l-83 -26q-29 -10 -42 -11.5zM217.5 592q-5.5 17 -7 30.5t-1.5 38.5v86h60
v-86q0 -32 -2 -44.5t-7 -28.5t-8 -24h-26q-3 11 -8.5 28zM39 580l18 57l82 -26q29 -10 41 -16t25 -15.5t21 -15.5l-8 -24h-27t-32 3t-38 11zM97 401l50 70q18 24 27 33.5t22 19t22 16.5l22 -16q-3 -9 -9 -26t-13 -29t-22 -33l-51 -69z" />
    <glyph glyph-name="plus" unicode="+" horiz-adv-x="630" 
d="M284 248h-197v58h197v204h61v-204h198v-58h-198v-207h-61v207z" />
    <glyph glyph-name="comma" unicode="," horiz-adv-x="263" 
d="M114.5 -40q14.5 37 15.5 39q-18 -2 -34 12t-16 35q0 22 15.5 37t37.5 15q23 0 37 -15.5t14 -40.5q0 -81 -90 -213l-39 27q45 67 59.5 104z" />
    <glyph glyph-name="hyphen" unicode="-" horiz-adv-x="477" 
d="M85 316h307v-58h-307v58z" />
    <glyph glyph-name="period" unicode="." horiz-adv-x="263" 
d="M95.5 9.5q-15.5 15.5 -15.5 36.5t15 36.5t37 15.5t36.5 -15.5t14.5 -36.5q0 -22 -15 -37t-36 -15t-36.5 15.5z" />
    <glyph glyph-name="slash" unicode="/" horiz-adv-x="317" 
d="M55 -100h-65l272 775h65z" />
    <glyph glyph-name="zero" unicode="0" horiz-adv-x="643" 
d="M91.5 521q32.5 78 92 120t139.5 42q78 0 137 -42t91.5 -120t32.5 -183q0 -106 -32.5 -184t-91.5 -120t-137 -42t-138 43t-93 121t-33 182q0 105 32.5 183zM153.5 180q28.5 -64 74 -95.5t96.5 -31.5q53 0 97 30.5t70.5 94t26.5 159.5q0 94 -27 158t-71.5 95.5t-95.5 31.5
q-54 0 -99 -31.5t-72.5 -95.5t-27.5 -158q0 -93 28.5 -157z" />
    <glyph glyph-name="one" unicode="1" horiz-adv-x="327" 
d="M244 0h-66v581l-117 -107l-35 49l164 152h54v-675z" />
    <glyph glyph-name="two" unicode="2" horiz-adv-x="562" 
d="M77 73l246 216q51 47 79.5 89.5t28.5 96.5q0 63 -41 103.5t-105 40.5q-69 0 -112 -48.5t-43 -123.5v-26h-63l-1 27q0 70 27.5 123.5t77 83t113.5 29.5q62 0 110 -26.5t75 -73t27 -105.5q0 -67 -31.5 -120.5t-87.5 -104.5l-222 -194h339v-60h-417v73z" />
    <glyph glyph-name="three" unicode="3" horiz-adv-x="581" 
d="M180 21.5q-53 30.5 -83.5 81.5t-30.5 112v8h66v-8q0 -43 22 -80.5t59.5 -59.5t81.5 -22q43 0 80 22t59 59.5t22 81.5q0 43 -21.5 80.5t-58.5 60t-81 22.5q-55 0 -107 -33l-16 51q62 37 123 37q62 0 114 -29t82.5 -79t30.5 -111t-30.5 -112t-83 -81.5t-113.5 -30.5
q-62 0 -115 30.5zM154 393l258 221l-338 -1v61l419 1v-63l-305 -266z" />
    <glyph glyph-name="four" unicode="4" horiz-adv-x="557" 
d="M406 150v-150h-65v150h-304v57l277 467h92v-463h107v-61h-107zM341 590l-233 -379h233v379z" />
    <glyph glyph-name="five" unicode="5" horiz-adv-x="571" 
d="M169.5 21.5q-52.5 30.5 -83 81.5t-30.5 112h66q0 -43 22 -80.5t59 -59.5t81 -22t81 22t59 59.5t22 81.5q0 43 -21.5 80.5t-59 60t-81.5 22.5q-87 0 -153 -86l-18 63q38 35 75 56.5t95 21.5q63 0 115.5 -29t83 -79t30.5 -111t-30.5 -112t-83 -81.5t-114.5 -30.5
t-114.5 30.5zM67 312l35 362h377v-61h-319l-29 -320z" />
    <glyph glyph-name="six" unicode="6" horiz-adv-x="592" 
d="M124.5 78.5q-63.5 84.5 -63.5 226.5q0 83 24.5 169t81.5 146t147 60q57 0 102.5 -25.5t73.5 -65t36 -80.5l-57 -9q-12 42 -51 81t-107 39q-65 0 -107.5 -52t-60 -127t-12.5 -144q11 60 61 100t116 40q60 0 111.5 -28.5t82 -78t30.5 -110.5t-30.5 -113t-82.5 -82.5
t-113 -30.5q-118 0 -181.5 84.5zM385 76q37 22 59 59.5t22 81.5t-22 81t-59 58.5t-81 21.5t-81 -21.5t-59 -58.5t-22 -81t22 -81.5t59 -59.5t81 -22t81 22z" />
    <glyph glyph-name="seven" unicode="7" horiz-adv-x="475" 
d="M167 0h-70l285 613h-356v61h424v-62z" />
    <glyph glyph-name="eight" unicode="8" horiz-adv-x="564" 
d="M170 20.5q-51 27.5 -81 76.5t-30 109t29.5 103.5t80.5 66t113 22.5q63 0 113.5 -22.5t80 -66t29.5 -103.5t-29.5 -109t-81 -76.5t-112.5 -27.5t-112 27.5zM362 73.5q36 19.5 57.5 54.5t21.5 78q0 63 -45 99t-114 36q-68 0 -113 -36t-45 -99q0 -43 21 -78t57.5 -54.5
t79.5 -19.5q44 0 80 19.5zM189 366q-42 20 -66 57t-24 86t24.5 88t66.5 61.5t92 22.5t92 -22.5t66.5 -61.5t24.5 -88t-24 -86t-66 -57t-93 -20t-93 20zM368 428.5q34 28.5 34 77.5q0 50 -34.5 82t-85.5 32t-85.5 -32t-34.5 -82q0 -49 34 -77.5t86 -28.5t86 28.5z" />
    <glyph glyph-name="nine" unicode="9" horiz-adv-x="592" 
d="M176 19.5q-46 25.5 -74 65t-35 80.5l57 9q7 -24 25 -51t51 -48t81 -21q65 0 107.5 51.5t60 127t13.5 144.5q-11 -60 -61 -100t-116 -40q-60 0 -111.5 28.5t-82 78t-30.5 110.5t30.5 113t82.5 82.5t113 30.5q118 0 181.5 -84.5t63.5 -226.5q0 -83 -25 -169t-81.5 -146
t-146.5 -60q-57 0 -103 25.5zM369 317.5q37 21.5 59 59t22 81.5q0 43 -22 80.5t-59 59.5t-81 22q-43 0 -80 -22t-59 -59.5t-22 -80.5q0 -44 22 -81.5t59 -59t80 -21.5q44 0 81 21.5z" />
    <glyph glyph-name="colon" unicode=":" horiz-adv-x="263" 
d="M95.5 348.5q-15.5 15.5 -15.5 36.5t15 36.5t37 15.5t36.5 -15.5t14.5 -36.5q0 -22 -15 -37t-36 -15t-36.5 15.5zM95.5 9.5q-15.5 15.5 -15.5 36.5t15 36.5t37 15.5t36.5 -15.5t14.5 -36.5q0 -22 -15 -37t-36 -15t-36.5 15.5z" />
    <glyph glyph-name="semicolon" unicode=";" horiz-adv-x="263" 
d="M114.5 -40q14.5 37 15.5 39q-18 -2 -34 12t-16 35q0 22 15.5 37t37.5 15q23 0 37 -15.5t14 -40.5q0 -81 -90 -213l-39 27q45 67 59.5 104zM95.5 348.5q-15.5 15.5 -15.5 36.5t15 36.5t37 15.5t36.5 -15.5t14.5 -36.5q0 -22 -15 -37t-36 -15t-36.5 15.5z" />
    <glyph glyph-name="less" unicode="&#x3c;" horiz-adv-x="553" 
d="M141 350l353 -146v-60l-424 175v62l424 175v-60z" />
    <glyph glyph-name="equal" unicode="=" horiz-adv-x="578" 
d="M70 494h438v-59h-438v59zM70 265h438v-59h-438v59z" />
    <glyph glyph-name="greater" unicode="&#x3e;" horiz-adv-x="553" 
d="M59 204l353 146l-353 146v60l424 -175v-62l-424 -175v60z" />
    <glyph glyph-name="question" unicode="?" horiz-adv-x="394" 
d="M185.5 272.5q14.5 36.5 47.5 85.5l15 21q28 40 39 64.5t11 62.5q0 48 -34.5 82.5t-82.5 34.5q-37 0 -66.5 -21t-42.5 -55l-8 -18l-43 16q12 58 58.5 96t107.5 38q46 0 84.5 -22.5t60.5 -60.5t22 -84q0 -35 -8.5 -62t-21.5 -47.5t-43 -61.5q-34 -48 -49.5 -80.5
t-15.5 -80.5h-44q-1 56 13.5 92.5zM159 8.5q-14 14.5 -14 34.5t14 33.5t34 13.5t33.5 -14t13.5 -33q0 -21 -14 -35t-33 -14q-20 0 -34 14.5z" />
    <glyph glyph-name="at" unicode="@" horiz-adv-x="1033" 
d="M274 -142.5q-106 57.5 -164.5 161t-58.5 235.5q0 133 59.5 235.5t166.5 159.5t243 57q133 0 238.5 -56t165 -156t59.5 -229q0 -73 -18.5 -134.5t-55.5 -98.5t-90 -37q-44 0 -72.5 25.5t-33.5 64.5q0 6 -1.5 19t-2.5 32q-26 -65 -81.5 -103t-128.5 -38q-69 0 -124.5 34.5
t-86.5 93.5t-31 131q0 73 31.5 132t86.5 92.5t124 33.5t123.5 -34t79.5 -93v122h64v-386q0 -34 18.5 -53.5t47.5 -19.5q51 0 75 63.5t24 152.5q0 118 -53 208t-146.5 139t-211.5 49q-121 0 -215 -51t-146.5 -143.5t-52.5 -211.5t52 -211.5t145 -144t213 -51.5
q49 0 100.5 11.5t92.5 32.5l16 -45q-41 -21 -97.5 -33.5t-111.5 -12.5q-136 0 -242 57.5zM611 79.5q44 26.5 68.5 72.5t24.5 102q0 58 -25 104t-69 71.5t-99 25.5q-56 0 -99.5 -26t-68 -72t-24.5 -103q0 -58 25 -103.5t69 -71.5t98 -26q56 0 100 26.5z" />
    <glyph glyph-name="A" unicode="A" horiz-adv-x="629" 
d="M277 675h70l-265 -675h-70zM283 675h69l265 -675h-69zM150 247h334v-63h-334v63z" />
    <glyph glyph-name="B" unicode="B" horiz-adv-x="617" 
d="M83 675h277q48 0 89 -24t65 -64.5t24 -88.5q0 -47 -24 -85t-63 -57q53 -16 87 -61t34 -104q0 -52 -26 -95.5t-69.5 -69.5t-95.5 -26h-298v675zM441.5 79.5q29.5 17.5 47 47t17.5 64.5q0 34 -17.5 63.5t-47 47t-64.5 17.5h-228v-257h228q35 0 64.5 17.5zM437 414.5
q34 34.5 34 83.5q0 47 -34 81.5t-82 34.5h-206v-234h206q48 0 82 34.5z" />
    <glyph glyph-name="C" unicode="C" horiz-adv-x="765" 
d="M229.5 32.5q-76.5 47.5 -121.5 128.5t-45 177q0 95 45 176t121.5 128.5t166.5 47.5q73 0 137.5 -32t111 -88t67.5 -127l-57 -10q-28 86 -98 140.5t-157 54.5q-73 0 -135.5 -39t-99 -105.5t-36.5 -145.5t36.5 -146t99 -106t135.5 -39q87 0 157 54.5t98 140.5l57 -8
q-21 -72 -67.5 -128.5t-111 -88.5t-137.5 -32q-90 0 -166.5 47.5z" />
    <glyph glyph-name="D" unicode="D" horiz-adv-x="684" 
d="M80 675h203q91 0 168.5 -45.5t123 -123t45.5 -168.5t-45.5 -169t-123 -123.5t-168.5 -45.5h-203v675zM415.5 96.5q63.5 37.5 101 101.5t37.5 140t-37.5 139.5t-101 100.5t-139.5 37h-130v-556h130q76 0 139.5 37.5z" />
    <glyph glyph-name="E" unicode="E" horiz-adv-x="556" 
d="M80 675h423l1 -62l-360 1v-249h326v-57h-326v-248h359v-60h-423v675z" />
    <glyph glyph-name="F" unicode="F" horiz-adv-x="533" 
d="M80 675h402v-62l-338 1v-249h306v-57h-306v-308h-64v675z" />
    <glyph glyph-name="G" unicode="G" horiz-adv-x="785" 
d="M225.5 32.5q-76.5 47.5 -121 128.5t-44.5 177q0 95 44.5 176t121 128.5t166.5 47.5q101 0 184.5 -60t120.5 -156l-54 -18q-32 77 -98.5 124.5t-148.5 47.5q-73 0 -135 -39t-98.5 -105.5t-36.5 -145.5t36.5 -146t98.5 -106t135 -39q70 0 130.5 37t97.5 100t40 138l61 16
q0 -96 -45 -177t-121 -128.5t-167 -47.5q-90 0 -166.5 47.5zM376 358h349v-20l-12 -34h-337v54z" />
    <glyph glyph-name="H" unicode="H" horiz-adv-x="667" 
d="M521 0v308h-375v-308h-66v675h66v-310h375v310h66v-675h-66z" />
    <glyph glyph-name="I" unicode="I" horiz-adv-x="225" 
d="M80 0v675h66v-675h-66z" />
    <glyph glyph-name="J" unicode="J" horiz-adv-x="200" 
d="M-122 -148h30q39 0 72.5 20t53.5 53.5t20 73.5v676h66v-673q0 -57 -28 -105.5t-76 -76.5t-105 -28h-33v60z" />
    <glyph glyph-name="K" unicode="K" horiz-adv-x="602" 
d="M572 675l-429 -424l-2 93l345 331h86zM146 675v-675h-66v675h66zM264 391l318 -391h-79l-299 367z" />
    <glyph glyph-name="L" unicode="L" horiz-adv-x="478" 
d="M456 0h-376v675h66v-615h310v-60z" />
    <glyph glyph-name="M" unicode="M" horiz-adv-x="844" 
d="M80 675h89l253 -571l253 571h90v-675h-64v568l-245 -536h-68l-245 536v-568h-63v675z" />
    <glyph glyph-name="N" unicode="N" horiz-adv-x="701" 
d="M526 0l-383 579v-579h-63v675h80l398 -607v607h64v-675h-96z" />
    <glyph glyph-name="O" unicode="O" horiz-adv-x="802" 
d="M232.5 32.5q-77.5 47.5 -123.5 128.5t-46 177q0 95 46 176t123.5 128.5t168.5 47.5t169 -47.5t123.5 -128.5t45.5 -176q0 -96 -45.5 -177t-123 -128.5t-169.5 -47.5q-91 0 -168.5 47.5zM537.5 86q62.5 39 99 106t36.5 146t-36.5 145.5t-99 105.5t-136.5 39t-136.5 -39
t-99 -105.5t-36.5 -145.5t36.5 -146t99 -106t136.5 -39t136.5 39z" />
    <glyph glyph-name="P" unicode="P" horiz-adv-x="578" 
d="M80 675h251q56 0 103.5 -27.5t75.5 -75t28 -103.5q0 -57 -28 -104.5t-75.5 -75.5t-103.5 -28h-185v-261h-66v675zM146 322h181q39 0 72.5 20t53 53.5t19.5 73.5q0 39 -19.5 72.5t-53 53t-72.5 19.5h-181v-292z" />
    <glyph glyph-name="Q" unicode="Q" horiz-adv-x="816" 
d="M235 39.5q-79 46.5 -125.5 125.5t-46.5 173q0 93 46.5 172t125.5 125.5t173 46.5t173 -46.5t125 -125t46 -172.5t-46 -173t-125 -125.5t-173 -46.5t-173 46.5zM483.5 -29q-33.5 22 -75.5 22l10 30q62 0 108.5 -25t68.5 -77l18 -41l-60 -19l-21 50q-15 38 -48.5 60z
M548 93q64 38 101 103t37 142t-37 141.5t-101 102.5t-140 38t-140 -38t-101.5 -102.5t-37.5 -141.5t37.5 -142t101.5 -103t140 -38t140 38z" />
    <glyph glyph-name="R" unicode="R" horiz-adv-x="610" 
d="M80 675h252q56 0 103 -27.5t74.5 -75t27.5 -103.5t-27.5 -101t-74.5 -71t-103 -26h-186v-271h-66v675zM308 270h-186v37h184q75 0 120.5 -23t71.5 -83l84 -201h-65l-78 182q-36 88 -131 88zM399 343.5q33 19.5 52.5 53t19.5 72.5t-19.5 72.5t-52.5 53t-72 19.5h-181v-290
h181q39 0 72 19.5z" />
    <glyph glyph-name="S" unicode="S" horiz-adv-x="625" 
d="M177 6.5q-71 21.5 -122 55.5l24 53q44 -29 110 -49t128 -20q87 0 137 32.5t50 90.5q0 41 -23 66.5t-61.5 39.5t-104.5 30q-85 23 -134 46.5t-74 60t-25 92.5q0 88 70 137.5t179 49.5q97 0 216 -44l-21 -57q-107 39 -195 39q-85 0 -134 -34t-49 -92q0 -42 22.5 -67
t60.5 -39.5t107 -31.5q78 -20 127.5 -42.5t77 -58.5t27.5 -90q0 -90 -70 -139.5t-180 -49.5q-72 0 -143 21.5z" />
    <glyph glyph-name="T" unicode="T" horiz-adv-x="492" 
d="M214 614h-198l-3 61h466v-61h-200v-614h-65v614z" />
    <glyph glyph-name="U" unicode="U" horiz-adv-x="620" 
d="M190.5 27q-54.5 32 -86.5 87t-32 120v441h66v-445q0 -47 23 -86.5t62.5 -62.5t86.5 -23t86.5 23t62.5 62.5t23 86.5v445h66v-441q0 -65 -32 -120t-86.5 -87t-119.5 -32t-119.5 32z" />
    <glyph glyph-name="V" unicode="V" horiz-adv-x="585" 
d="M250 0l-238 675h67l214 -600l214 600h67l-238 -675h-86z" />
    <glyph glyph-name="W" unicode="W" horiz-adv-x="835" 
d="M12 675h65l133 -604l168 558h79l168 -558l133 604h65l-154 -675h-87l-164 564l-165 -564h-87z" />
    <glyph glyph-name="X" unicode="X" horiz-adv-x="549" 
d="M89 0l448 675h-76l-449 -675h77zM537 0l-448 675h-77l449 -675h76z" />
    <glyph glyph-name="Y" unicode="Y" horiz-adv-x="567" 
d="M250 201l-238 474h74l196 -396l199 396h74l-239 -474v-201h-66v201z" />
    <glyph glyph-name="Z" unicode="Z" horiz-adv-x="549" 
d="M521 0h-493v67l407 547h-381v61h459v-68l-407 -547h415v-60z" />
    <glyph glyph-name="bracketleft" unicode="[" horiz-adv-x="317" 
d="M82 747h175v-57h-111v-777h111v-57h-175v891z" />
    <glyph glyph-name="backslash" unicode="\" horiz-adv-x="318" 
d="M-10 675h67l271 -775h-66z" />
    <glyph glyph-name="bracketright" unicode="]" horiz-adv-x="317" 
d="M60 -144v57h111v777h-111v57h175v-891h-175z" />
    <glyph glyph-name="asciicircum" unicode="^" horiz-adv-x="577" 
d="M288 494l-145 -351h-60l175 414h61l174 -414h-60z" />
    <glyph glyph-name="underscore" unicode="_" horiz-adv-x="500" 
d="M500 -58h-500v58h500v-58z" />
    <glyph glyph-name="a" unicode="a" horiz-adv-x="624" 
d="M177 28.5q-57 33.5 -90.5 90.5t-33.5 124t33.5 123.5t90.5 90t125 33.5q66 0 117.5 -33t80 -89.5t28.5 -124.5t-28.5 -125t-80 -90t-117.5 -33q-68 0 -125 33.5zM396.5 82q42.5 25 67 67.5t24.5 93.5t-24.5 93.5t-67 67.5t-93.5 25q-50 0 -92.5 -25t-67 -67.5
t-24.5 -93.5t24.5 -93.5t67 -67.5t92.5 -25q51 0 93.5 25zM498 167l-10 8v104h66v-279h-56v167zM488 310l10 8v167h56v-279h-66v104z" />
    <glyph glyph-name="b" unicode="b" horiz-adv-x="634" 
d="M214.5 28q-51.5 33 -80 90t-28.5 125t28.5 124.5t80 89.5t117.5 33q68 0 125 -33.5t90.5 -90t33.5 -123.5t-33.5 -124t-90.5 -90.5t-125 -33.5q-66 0 -117.5 33zM80 705h66v-555l-10 -6v-144h-56v705zM423.5 82q42.5 25 67 67.5t24.5 93.5t-24.5 93.5t-67 67.5t-93.5 25
q-50 0 -92.5 -25t-67 -67.5t-24.5 -93.5t24.5 -93.5t67 -67.5t92.5 -25q51 0 93.5 25z" />
    <glyph glyph-name="c" unicode="c" horiz-adv-x="590" 
d="M177 28.5q-57 33.5 -90.5 90.5t-33.5 124t33.5 124t90.5 90.5t125 33.5q58 0 107.5 -25t83 -68t45.5 -97l-56 -9q-17 60 -66.5 99t-111.5 39q-50 0 -92.5 -25t-67.5 -68t-25 -94t25 -94t67.5 -68t92.5 -25q62 0 111.5 39t66.5 99l56 -9q-12 -54 -45.5 -97.5t-83 -68
t-107.5 -24.5q-68 0 -125 33.5z" />
    <glyph glyph-name="d" unicode="d" horiz-adv-x="634" 
d="M177 28.5q-57 33.5 -90.5 90.5t-33.5 124t33.5 123.5t90.5 90t125 33.5q66 0 118 -33t80.5 -89.5t28.5 -124.5t-28.5 -125t-80.5 -90t-118 -33q-68 0 -125 33.5zM396.5 82q42.5 25 67.5 67.5t25 93.5t-25 93.5t-67.5 67.5t-92.5 25t-92.5 -25t-67.5 -67.5t-25 -93.5
t25 -93.5t67.5 -67.5t92.5 -25t92.5 25zM499 144l-10 6v555h66v-705h-56v144z" />
    <glyph glyph-name="e" unicode="e" horiz-adv-x="588" 
d="M179 28.5q-57 33.5 -90.5 90.5t-33.5 124t33 124t90 90.5t125 33.5t122.5 -33t86 -90t31.5 -124q0 -10 -2 -26h-422q4 -46 29.5 -84.5t66.5 -61t88 -22.5q54 0 98.5 28t68.5 74l50 -24q-30 -61 -88 -97t-129 -36q-67 0 -124 33.5zM454.5 353.5q-25.5 37.5 -65.5 59
t-86 21.5q-47 0 -87 -21.5t-65.5 -59t-30.5 -82.5h364q-4 45 -29.5 82.5z" />
    <glyph glyph-name="f" unicode="f" horiz-adv-x="380" 
d="M181 0h-66v424h-92v62h158v-486zM136.5 631.5q21.5 36.5 58 58t79.5 21.5h86v-59h-83q-40 0 -68 -28.5t-28 -69.5v-68h151v-62h-217v128q0 43 21.5 79.5z" />
    <glyph glyph-name="g" unicode="g" horiz-adv-x="615" 
d="M144 -164h178q47 0 87 24t63.5 64.5t23.5 88.5v337l3 7v128h56v-471q0 -65 -32 -119.5t-86.5 -86.5t-118.5 -32h-174v60zM177 28.5q-57 33.5 -90.5 90.5t-33.5 124t33.5 123.5t90.5 90t125 33.5q66 0 118 -33t80.5 -89.5t28.5 -124.5t-28.5 -125t-80.5 -90t-118 -33
q-68 0 -125 33.5zM396.5 81q42.5 25 67.5 68t25 94t-25 93.5t-67.5 67.5t-92.5 25t-92.5 -25t-67.5 -67.5t-25 -93.5t25 -94t67.5 -68t92.5 -25t92.5 25z" />
    <glyph glyph-name="h" unicode="h" horiz-adv-x="577" 
d="M444.5 344.5q-21.5 37.5 -58 59t-80.5 21.5q-43 0 -80 -21.5t-58.5 -59t-21.5 -81.5h-40q0 60 26.5 112t74 83t107.5 31t110 -30t79 -81.5t29 -112.5v-265h-66v263q0 44 -21.5 81.5zM80 705h66v-705h-66v705z" />
    <glyph glyph-name="i" unicode="i" horiz-adv-x="209" 
d="M71 485h66v-485h-66v485zM65 641h79v-69h-79v69z" />
    <glyph glyph-name="j" unicode="j" horiz-adv-x="216" 
d="M-66 -130h49q39 0 67 28.5t28 68.5v518h66v-518q0 -43 -21.5 -79.5t-58 -58t-79.5 -21.5h-51v62zM73 641h78v-69h-78v69z" />
    <glyph glyph-name="k" unicode="k" horiz-adv-x="486" 
d="M202 254l39 56l220 -310h-77zM80 704h66v-704h-66v704zM146 285l214 200h83l-297 -289v89z" />
    <glyph glyph-name="l" unicode="l" horiz-adv-x="236" 
d="M109.5 29.5q-29.5 29.5 -29.5 71.5v603h65v-607q0 -16 10.5 -26t25.5 -10h15v-61h-15q-42 0 -71.5 29.5z" />
    <glyph glyph-name="m" unicode="m" horiz-adv-x="897" 
d="M765.5 352.5q-19.5 33.5 -53 53.5t-73.5 20q-39 0 -72.5 -20t-53.5 -53.5t-20 -73.5h-40q0 56 25 104.5t69.5 77.5t100.5 29t102.5 -28t73.5 -76t27 -105v-281h-66v279q0 40 -19.5 73.5zM70 485h56v-140l10 -11v-334h-66v485zM408 352.5q-20 33.5 -53.5 53.5t-72.5 20
q-40 0 -73.5 -20t-53 -53.5t-19.5 -73.5h-40q0 56 25 104.5t69 77.5t100 29t102.5 -28t73.5 -76t27 -105v-281h-65v279q0 40 -20 73.5z" />
    <glyph glyph-name="n" unicode="n" horiz-adv-x="567" 
d="M434.5 346.5q-21.5 37.5 -58 59t-80.5 21.5q-43 0 -80 -21.5t-58.5 -59t-21.5 -81.5h-40q0 60 26.5 111.5t74 82.5t107.5 31t110 -30t79 -81.5t29 -112.5v-266h-66v265q0 44 -21.5 81.5zM70 485h56v-140l10 -11v-334h-66v485z" />
    <glyph glyph-name="o" unicode="o" horiz-adv-x="607" 
d="M177.5 28q-57.5 33 -91 90t-33.5 125q0 67 33.5 124t91 90t126.5 33q68 0 125.5 -33t91 -90t33.5 -124q0 -68 -33.5 -125t-91 -90t-125.5 -33q-69 0 -126.5 33zM396.5 82q42.5 25 67 67.5t24.5 93.5t-24.5 93.5t-67 67.5t-93.5 25q-50 0 -92.5 -25t-67 -67.5t-24.5 -93.5
t24.5 -93.5t67 -67.5t92.5 -25q51 0 93.5 25z" />
    <glyph glyph-name="p" unicode="p" horiz-adv-x="632" 
d="M213.5 28q-51.5 33 -80 90t-28.5 125t28.5 124.5t80 89.5t118.5 33t124 -33.5t90.5 -90t33.5 -123.5t-33.5 -124t-90.5 -90.5t-124 -33.5t-118.5 33zM78 485h56v-143l10 -7v-525h-66v675zM421.5 81q42.5 25 67.5 68t25 94t-25 93.5t-67.5 67.5t-92.5 25t-92.5 -25
t-67.5 -67.5t-25 -93.5t25 -94t67.5 -68t92.5 -25t92.5 25z" />
    <glyph glyph-name="q" unicode="q" horiz-adv-x="632" 
d="M177 28.5q-57 33.5 -90.5 90.5t-33.5 124t33.5 123.5t90.5 90t125 33.5q66 0 117.5 -33t80 -89.5t28.5 -124.5t-28.5 -125t-80 -90t-117.5 -33q-68 0 -125 33.5zM396.5 81q42.5 25 67 68t24.5 94t-24.5 93.5t-67 67.5t-93.5 25q-50 0 -92.5 -25t-67 -67.5t-24.5 -93.5
t24.5 -94t67 -68t92.5 -25q51 0 93.5 25zM488 335l10 7v143h56v-675h-66v525z" />
    <glyph glyph-name="r" unicode="r" horiz-adv-x="372" 
d="M70 485h56v-143l10 -7v-335h-66v485zM125.5 360q29.5 57 82 91.5t118.5 34.5h20v-60h-34q-48 0 -88.5 -24t-64 -65t-23.5 -89l-40 -11q0 66 29.5 123z" />
    <glyph glyph-name="s" unicode="s" horiz-adv-x="499" 
d="M146 10.5q-53 17.5 -93 48.5l29 43q80 -54 178 -54q64 0 96 20.5t32 59.5q0 35 -31.5 52.5t-96.5 31.5q-60 13 -98 28t-61.5 42.5t-23.5 72.5q0 61 48.5 98.5t135.5 37.5q46 0 92 -13t82 -34l-25 -46q-76 37 -149 37q-56 0 -87.5 -21.5t-31.5 -59.5q0 -41 31 -58t99 -29
q85 -15 133 -46.5t48 -91.5q0 -65 -50.5 -100.5t-142.5 -35.5q-61 0 -114 17.5z" />
    <glyph glyph-name="t" unicode="t" horiz-adv-x="426" 
d="M147 424h-121v61h349v-61h-162v-266q0 -41 28 -69t68 -28h76v-61h-78q-44 0 -80.5 21t-58 57t-21.5 80v266zM147 485v142h66v-142h-66z" />
    <glyph glyph-name="u" unicode="u" horiz-adv-x="567" 
d="M153 25q-50 30 -79 81.5t-29 112.5v266h66v-265q0 -44 21.5 -81t58.5 -58.5t81 -21.5q43 0 80 21.5t58.5 58.5t21.5 81h39q0 -60 -26.5 -111.5t-74 -82.5t-107.5 -31t-110 30zM442 141l-10 9v335h66v-485h-56v141z" />
    <glyph glyph-name="v" unicode="v" horiz-adv-x="489" 
d="M205 0l-194 485h68l167 -417l164 417h67l-191 -485h-81z" />
    <glyph glyph-name="w" unicode="w" horiz-adv-x="689" 
d="M11 485h64l87 -386l155 352h58l155 -352l84 386h64l-102 -485h-65l-165 368l-165 -368h-65z" />
    <glyph glyph-name="x" unicode="x" horiz-adv-x="467" 
d="M11 485h77l367 -485h-77zM380 485h76l-367 -485h-76z" />
    <glyph glyph-name="y" unicode="y" horiz-adv-x="510" 
d="M34 -165h63q72 0 100 67l230 583h66l-233 -596q-19 -54 -59.5 -85t-101.5 -31h-65v62zM17 485h67l185 -485h-67z" />
    <glyph glyph-name="z" unicode="z" horiz-adv-x="477" 
d="M439 0h-401v66l306 358h-298v61h381v-67l-305 -358h317v-60z" />
    <glyph glyph-name="braceleft" unicode="{" horiz-adv-x="364" 
d="M200.5 328.5q-10.5 -18.5 -33.5 -26.5q23 -8 33.5 -27t10.5 -53v-229q0 -80 76 -80h26v-57h-29q-68 0 -103 33t-35 97v237q0 51 -44 51h-35v57h35q44 0 44 50v236q0 64 35 97t103 33h29v-57h-26q-76 0 -76 -79v-229q0 -35 -10.5 -53.5z" />
    <glyph glyph-name="bar" unicode="|" horiz-adv-x="292" 
d="M178 -194h-64v936h64v-936z" />
    <glyph glyph-name="braceright" unicode="}" horiz-adv-x="364" 
d="M77 690h-26v57h29q68 0 103 -33t35 -97v-236q0 -50 44 -50h35v-57h-35q-44 0 -44 -51v-237q0 -64 -35 -97t-103 -33h-29v57h26q76 0 76 80v229q0 34 10.5 53t33.5 27q-23 8 -33.5 26.5t-10.5 53.5v229q0 79 -76 79z" />
    <glyph glyph-name="asciitilde" unicode="~" horiz-adv-x="575" 
d="M342 282q-25 13 -64 44q-32 26 -52 37t-43 11q-33 0 -53 -25.5t-20 -70.5h-51q1 72 34.5 112.5t84.5 40.5q33 0 58.5 -13t64.5 -45q30 -26 50.5 -36.5t43.5 -10.5q33 0 53 25.5t20 70.5h51q-1 -72 -34.5 -112.5t-84.5 -40.5q-33 0 -58 13z" />
    <glyph glyph-name="exclamdown" unicode="&#xa1;" horiz-adv-x="234" 
d="M95 367h45l13 -495h-70zM150.5 538.5q14.5 -14.5 14.5 -34.5t-14 -33.5t-34 -13.5q-21 0 -34.5 14t-13.5 33q0 21 14.5 35t33.5 14t33.5 -14.5z" />
    <glyph glyph-name="cent" unicode="&#xa2;" horiz-adv-x="610" 
d="M191 28.5q-57 33.5 -90.5 90.5t-33.5 124t33.5 124t90.5 90.5t125 33.5q58 0 107.5 -25t83 -68t45.5 -97l-56 -9q-17 60 -66.5 99t-111.5 39q-50 0 -92.5 -25t-67.5 -68t-25 -94t25 -94t67.5 -68t92.5 -25q62 0 111.5 39t66.5 99l56 -9q-12 -54 -45.5 -97.5t-83 -68
t-107.5 -24.5q-68 0 -125 33.5zM292 5h50v-117h-50v117zM292 598h50v-117h-50v117z" />
    <glyph glyph-name="sterling" unicode="&#xa3;" horiz-adv-x="595" 
d="M52 60h113v260h-113v53h113v104q0 113 68.5 176t196.5 63v-59q-100 0 -151.5 -46.5t-52.5 -135.5v-102h204v-53h-204v-260h309v-58h-483v58z" />
    <glyph glyph-name="currency" unicode="&#xa4;" horiz-adv-x="700" 
d="M35 43l107 108q-31 34 -47.5 77t-16.5 90t16.5 89.5t47.5 77.5l-107 107l41 40l106 -106q77 59 168 59q46 0 89.5 -15t78.5 -43l106 105l40 -40l-105 -106q31 -36 48 -79t17 -89q0 -47 -17 -90.5t-49 -77.5l106 -107l-40 -40l-108 107q-35 -27 -77.5 -42t-88.5 -15
q-92 0 -166 58l-108 -108zM458 138.5q50 28.5 79.5 76t29.5 103.5q0 57 -29.5 105t-79.5 76.5t-108 28.5q-59 0 -108.5 -28.5t-78 -77t-28.5 -104.5t29 -104t78.5 -76t107.5 -28t108 28.5z" />
    <glyph glyph-name="yen" unicode="&#xa5;" horiz-adv-x="681" 
d="M595 280h-220v-93h220v-54h-220v-134h-68v134h-220v54h220v93h-220v53h199l-246 342h73l230 -319l230 319h69l-246 -342h199v-53z" />
    <glyph glyph-name="brokenbar" unicode="&#xa6;" horiz-adv-x="291" 
d="M178 392h-65v350h65v-350zM178 -194h-65v350h65v-350z" />
    <glyph glyph-name="section" unicode="&#xa7;" horiz-adv-x="564" 
d="M465.5 211.5q-27.5 -34.5 -69.5 -48.5q38 -20 57 -49t19 -70q0 -69 -54.5 -107.5t-145.5 -38.5q-60 0 -115.5 19t-89.5 48l25 49q34 -28 83 -45t96 -17q66 0 100.5 24.5t34.5 72.5q0 33 -20.5 53.5t-53.5 33t-95 29.5q-81 21 -119.5 53t-38.5 94q0 47 27 81.5t70 50.5
q-37 18 -56 47.5t-19 68.5q0 73 54.5 111.5t154.5 38.5q49 0 101 -15t85 -40l-25 -46q-30 21 -72.5 33.5t-84.5 12.5q-72 0 -110 -25t-38 -74q0 -32 17.5 -52t46 -31.5t78.5 -25.5q64 -16 101.5 -32t60.5 -45t23 -77q0 -47 -27.5 -81.5zM408 224q25 27 25 66q0 33 -17 53.5
t-46 32.5t-77 24q-25 6 -60 17q-42 -8 -67.5 -34t-25.5 -65q0 -34 17 -54.5t44.5 -31.5t78.5 -25q37 -9 61 -18q42 8 67 35z" />
    <glyph glyph-name="copyright" unicode="&#xa9;" horiz-adv-x="830" 
d="M239 47q-81 47 -128 128t-47 177q0 95 47 176t128 128t177 47q95 0 176 -47t128 -128t47 -176q0 -96 -47 -177t-128 -128t-176 -47q-96 0 -177 47zM572 81q71 42 113 114t42 157t-42 156.5t-113 113.5t-156 42q-86 0 -157.5 -42t-113.5 -113.5t-42 -156.5t42 -157
t113.5 -114t157.5 -42q85 0 156 42zM313 172q-45 28 -71.5 76t-26.5 104t26.5 104t71.5 76t98 28q63 0 114.5 -38.5t71.5 -100.5l-45 -8q-16 46 -54.5 73.5t-83.5 27.5q-40 0 -74.5 -21.5t-54.5 -59t-20 -81.5t20 -81.5t54.5 -59t74.5 -21.5q45 0 83.5 27.5t54.5 73.5l45 -8
q-20 -62 -71.5 -100.5t-114.5 -38.5q-53 0 -98 28z" />
    <glyph glyph-name="guillemotleft" unicode="&#xab;" horiz-adv-x="434" 
d="M79 259q0 144 78 274l46 -24q-65 -122 -65 -250t65 -250l-46 -24q-78 130 -78 274zM276.5 128.5q-18.5 61.5 -18.5 130.5t18.5 130.5t55.5 123.5l46 -25q-60 -109 -60 -229q0 -119 60 -229l-46 -25q-37 62 -55.5 123.5z" />
    <glyph glyph-name="registered" unicode="&#xae;" horiz-adv-x="830" 
d="M239 47q-81 47 -128 128t-47 177q0 95 47 176t128 128t177 47q95 0 176 -47t128 -128t47 -176q0 -96 -47 -177t-128 -128t-176 -47q-96 0 -177 47zM572 81q71 42 113 114t42 157t-42 156.5t-113 113.5t-156 42q-86 0 -157.5 -42t-113.5 -113.5t-42 -156.5t42 -157
t113.5 -114t157.5 -42q85 0 156 42zM545 143l-48 114q-21 49 -73 49h-123v35h119q89 0 119 -68l55 -130h-49zM281 556h161q35 0 64 -17t46.5 -46t17.5 -64q0 -52 -37 -85t-91 -33h-114v-168h-47v413zM499.5 372q23.5 24 23.5 58t-23.5 58.5t-57.5 24.5h-114v-165h114
q34 0 57.5 24z" />
    <glyph glyph-name="degree" unicode="&#xb0;" horiz-adv-x="419" 
d="M129.5 410q-36.5 21 -58 57.5t-21.5 79.5q0 44 21.5 80t58 57t79.5 21q44 0 80.5 -21t58 -57t21.5 -80q0 -43 -21.5 -79.5t-58 -57.5t-80.5 -21q-43 0 -79.5 21zM288 468.5q32 32.5 32 78.5q0 47 -32 79.5t-79 32.5q-46 0 -78 -32.5t-32 -79.5q0 -46 32 -78.5t78 -32.5
q47 0 79 32.5z" />
    <glyph glyph-name="plusminus" unicode="&#xb1;" horiz-adv-x="569" 
d="M254 339h-184v56h184v171h61v-171h184v-56h-184v-169h-61v169zM499 0h-429v58h429v-58z" />
    <glyph glyph-name="paragraph" unicode="&#xb6;" horiz-adv-x="619" 
d="M92.5 378q-56.5 47 -56.5 125q0 80 59 126t156 46h291v-775h-66v721h-169v-721h-66v430q-92 1 -148.5 48z" />
    <glyph glyph-name="periodcentered" unicode="&#xb7;" horiz-adv-x="263" 
d="M95.5 230.5q-15.5 15.5 -15.5 36.5t15 36.5t37 15.5t36.5 -15.5t14.5 -36.5q0 -22 -15 -37t-36 -15t-36.5 15.5z" />
    <glyph glyph-name="guillemotright" unicode="&#xbb;" horiz-adv-x="434" 
d="M296 259q0 128 -65 250l46 24q79 -132 79 -274t-79 -274l-46 24q65 122 65 250zM116 259q0 120 -60 229l46 25q37 -61 55.5 -123t18.5 -131t-18.5 -131t-55.5 -123l-46 25q60 110 60 229z" />
    <glyph glyph-name="questiondown" unicode="&#xbf;" horiz-adv-x="394" 
d="M208.5 206.5q-14.5 -36.5 -47.5 -85.5q-7 -12 -15 -21q-27 -39 -38.5 -64.5t-11.5 -62.5q0 -48 34.5 -82.5t82.5 -34.5q37 0 66.5 21t43.5 55l7 18l43 -16q-12 -58 -58.5 -96t-107.5 -38q-46 0 -84 22.5t-60.5 60.5t-22.5 84q0 35 8.5 62.5t22.5 48t43 60.5
q24 34 35.5 54t20 46.5t8.5 60.5h44q1 -56 -13.5 -92.5zM235 470.5q14 -14.5 14 -34.5t-13.5 -33.5t-33.5 -13.5q-21 0 -34.5 14t-13.5 33q0 21 14 35t34 14q19 0 33 -14.5z" />
    <glyph glyph-name="Agrave" unicode="&#xc0;" horiz-adv-x="627" 
d="M277 675h70l-265 -675h-70zM283 675h69l265 -675h-69zM150 247h334v-63h-334v63zM133 875h76l138 -122h-65z" />
    <glyph glyph-name="Aacute" unicode="&#xc1;" horiz-adv-x="627" 
d="M277 675h70l-265 -675h-70zM283 675h69l265 -675h-69zM150 247h334v-63h-334v63zM416 875h76l-149 -122h-65z" />
    <glyph glyph-name="Acircumflex" unicode="&#xc2;" horiz-adv-x="627" 
d="M277 675h70l-265 -675h-70zM283 675h69l265 -675h-69zM150 247h334v-63h-334v63zM314 841l-104 -89h-55l123 122h72l124 -122h-55z" />
    <glyph glyph-name="Atilde" unicode="&#xc3;" horiz-adv-x="627" 
d="M277 675h70l-265 -675h-70zM283 675h69l265 -675h-69zM150 247h334v-63h-334v63zM346 761.5q-17 8.5 -40 28.5q-18 16 -29.5 22.5t-23.5 6.5q-23 0 -36.5 -16.5t-15.5 -45.5h-41q2 49 26 78t63 29q21 0 38 -8.5t40 -28.5q18 -16 29.5 -22.5t24.5 -6.5q22 0 35.5 16
t15.5 44h41q-2 -48 -26 -76.5t-63 -28.5q-21 0 -38 8.5z" />
    <glyph glyph-name="Adieresis" unicode="&#xc4;" horiz-adv-x="627" 
d="M277 675h70l-265 -675h-70zM283 675h69l265 -675h-69zM150 247h334v-63h-334v63zM222.5 765.5q-13.5 13.5 -13.5 33.5q0 19 13.5 32t32.5 13t32.5 -13t13.5 -32t-13.5 -33t-32.5 -14t-32.5 13.5zM342 766q-14 14 -14 33t13.5 32t33.5 13q19 0 32 -13t13 -32
q0 -20 -13 -33.5t-32 -13.5t-33 14z" />
    <glyph glyph-name="Aring" unicode="&#xc5;" horiz-adv-x="627" 
d="M277 675h70l-265 -675h-70zM283 675h69l265 -675h-69zM150 247h334v-63h-334v63zM239.5 782.5q-29.5 29.5 -29.5 71.5q0 43 30 73t74 30t74.5 -30t30.5 -73q0 -42 -30.5 -71.5t-74.5 -29.5q-45 0 -74.5 29.5zM363 806q19 19 19 48t-20 49t-48 20q-29 0 -48.5 -20
t-19.5 -49t19 -48t49 -19t49 19z" />
    <glyph glyph-name="AE" unicode="&#xc6;" horiz-adv-x="919" 
d="M274 675h70l-265 -675h-70zM289 614v61h255v-61h-255zM148 247h304v-63h-304v63zM443 675h423l1 -62l-360 1v-249h326v-57h-326v-248h359v-60h-423v675z" />
    <glyph glyph-name="Ccedilla" unicode="&#xc7;" horiz-adv-x="765" 
d="M229.5 32.5q-76.5 47.5 -121.5 128.5t-45 177q0 95 45 176t121.5 128.5t166.5 47.5q73 0 137.5 -32t111 -88t67.5 -127l-57 -10q-28 86 -98 140.5t-157 54.5q-73 0 -135.5 -39t-99 -105.5t-36.5 -145.5t36.5 -146t99 -106t135.5 -39q87 0 157 54.5t98 140.5l57 -8
q-21 -72 -67.5 -128.5t-111 -88.5t-137.5 -32q-90 0 -166.5 47.5zM297 -236l12 39h62q29 0 45 13.5t16 36.5q0 22 -15.5 35.5t-42.5 13.5h-30l24 90h46l-17 -61q40 -4 62 -25t22 -55q0 -40 -31 -63.5t-81 -23.5h-72z" />
    <glyph glyph-name="Egrave" unicode="&#xc8;" horiz-adv-x="556" 
d="M80 675h423l1 -62l-360 1v-249h326v-57h-326v-248h359v-60h-423v675zM184 882h76l138 -122h-65z" />
    <glyph glyph-name="Eacute" unicode="&#xc9;" horiz-adv-x="556" 
d="M80 675h423l1 -62l-360 1v-249h326v-57h-326v-248h359v-60h-423v675zM382 875h76l-149 -122h-65z" />
    <glyph glyph-name="Ecircumflex" unicode="&#xca;" horiz-adv-x="556" 
d="M80 675h423l1 -62l-360 1v-249h326v-57h-326v-248h359v-60h-423v675zM301 841l-104 -89h-55l123 122h72l124 -122h-55z" />
    <glyph glyph-name="Edieresis" unicode="&#xcb;" horiz-adv-x="556" 
d="M80 675h423l1 -62l-360 1v-249h326v-57h-326v-248h359v-60h-423v675zM218.5 765.5q-13.5 13.5 -13.5 33.5q0 19 13.5 32t32.5 13t32.5 -13t13.5 -32t-13.5 -33t-32.5 -14t-32.5 13.5zM338 766q-14 14 -14 33t13.5 32t33.5 13q19 0 32 -13t13 -32q0 -20 -13 -33.5
t-32 -13.5t-33 14z" />
    <glyph glyph-name="Igrave" unicode="&#xcc;" horiz-adv-x="222" 
d="M80 0v675h66v-675h-66zM-66 875h76l138 -122h-65z" />
    <glyph glyph-name="Iacute" unicode="&#xcd;" horiz-adv-x="222" 
d="M80 0v675h66v-675h-66zM216 875h76l-149 -122h-65z" />
    <glyph glyph-name="Icircumflex" unicode="&#xce;" horiz-adv-x="222" 
d="M80 0v675h66v-675h-66zM112 841l-104 -89h-55l123 122h72l124 -122h-55z" />
    <glyph glyph-name="Idieresis" unicode="&#xcf;" horiz-adv-x="222" 
d="M80 0v675h66v-675h-66zM17.5 765.5q-13.5 13.5 -13.5 33.5q0 19 13.5 32t32.5 13t32.5 -13t13.5 -32t-13.5 -33t-32.5 -14t-32.5 13.5zM137 766q-14 14 -14 33t13.5 32t33.5 13q19 0 32 -13t13 -32q0 -20 -13 -33.5t-32 -13.5t-33 14z" />
    <glyph glyph-name="Eth" unicode="&#xd0;" horiz-adv-x="742" 
d="M138 675h203q91 0 168.5 -45.5t123 -123t45.5 -168.5t-45.5 -169t-123 -123.5t-168.5 -45.5h-203v675zM474 96.5q64 37.5 101 101.5t37 140t-37 139.5t-101 100.5t-140 37h-130v-556h130q76 0 140 37.5zM17 365h326v-57h-326v57z" />
    <glyph glyph-name="Ntilde" unicode="&#xd1;" horiz-adv-x="701" 
d="M526 0l-383 579v-579h-63v675h80l398 -607v607h64v-675h-96zM387 761.5q-17 8.5 -40 28.5q-18 16 -29.5 22.5t-23.5 6.5q-23 0 -36.5 -16.5t-15.5 -45.5h-41q2 49 26 78t63 29q21 0 38 -8.5t40 -28.5q18 -16 29.5 -22.5t24.5 -6.5q22 0 35.5 16t15.5 44h41
q-2 -48 -26 -76.5t-63 -28.5q-21 0 -38 8.5z" />
    <glyph glyph-name="Ograve" unicode="&#xd2;" horiz-adv-x="802" 
d="M232.5 32.5q-77.5 47.5 -123.5 128.5t-46 177q0 95 46 176t123.5 128.5t168.5 47.5t169 -47.5t123.5 -128.5t45.5 -176q0 -96 -45.5 -177t-123 -128.5t-169.5 -47.5q-91 0 -168.5 47.5zM537.5 86q62.5 39 99 106t36.5 146t-36.5 145.5t-99 105.5t-136.5 39t-136.5 -39
t-99 -105.5t-36.5 -145.5t36.5 -146t99 -106t136.5 -39t136.5 39zM213 884h76l138 -122h-65z" />
    <glyph glyph-name="Oacute" unicode="&#xd3;" horiz-adv-x="802" 
d="M232.5 32.5q-77.5 47.5 -123.5 128.5t-46 177q0 95 46 176t123.5 128.5t168.5 47.5t169 -47.5t123.5 -128.5t45.5 -176q0 -96 -45.5 -177t-123 -128.5t-169.5 -47.5q-91 0 -168.5 47.5zM537.5 86q62.5 39 99 106t36.5 146t-36.5 145.5t-99 105.5t-136.5 39t-136.5 -39
t-99 -105.5t-36.5 -145.5t36.5 -146t99 -106t136.5 -39t136.5 39zM498 884h76l-149 -122h-65z" />
    <glyph glyph-name="Ocircumflex" unicode="&#xd4;" horiz-adv-x="802" 
d="M232.5 32.5q-77.5 47.5 -123.5 128.5t-46 177q0 95 46 176t123.5 128.5t168.5 47.5t169 -47.5t123.5 -128.5t45.5 -176q0 -96 -45.5 -177t-123 -128.5t-169.5 -47.5q-91 0 -168.5 47.5zM537.5 86q62.5 39 99 106t36.5 146t-36.5 145.5t-99 105.5t-136.5 39t-136.5 -39
t-99 -105.5t-36.5 -145.5t36.5 -146t99 -106t136.5 -39t136.5 39zM397 853l-104 -89h-55l123 122h72l124 -122h-55z" />
    <glyph glyph-name="Otilde" unicode="&#xd5;" horiz-adv-x="802" 
d="M232.5 32.5q-77.5 47.5 -123.5 128.5t-46 177q0 95 46 176t123.5 128.5t168.5 47.5t169 -47.5t123.5 -128.5t45.5 -176q0 -96 -45.5 -177t-123 -128.5t-169.5 -47.5q-91 0 -168.5 47.5zM537.5 86q62.5 39 99 106t36.5 146t-36.5 145.5t-99 105.5t-136.5 39t-136.5 -39
t-99 -105.5t-36.5 -145.5t36.5 -146t99 -106t136.5 -39t136.5 39zM429 771.5q-17 8.5 -40 28.5q-18 16 -29.5 22.5t-23.5 6.5q-23 0 -36.5 -16.5t-15.5 -45.5h-41q2 49 26 78t63 29q21 0 38 -8.5t40 -28.5q18 -16 29.5 -22.5t24.5 -6.5q22 0 35.5 16t15.5 44h41
q-2 -48 -26 -76.5t-63 -28.5q-21 0 -38 8.5z" />
    <glyph glyph-name="Odieresis" unicode="&#xd6;" horiz-adv-x="802" 
d="M232.5 32.5q-77.5 47.5 -123.5 128.5t-46 177q0 95 46 176t123.5 128.5t168.5 47.5t169 -47.5t123.5 -128.5t45.5 -176q0 -96 -45.5 -177t-123 -128.5t-169.5 -47.5q-91 0 -168.5 47.5zM537.5 86q62.5 39 99 106t36.5 146t-36.5 145.5t-99 105.5t-136.5 39t-136.5 -39
t-99 -105.5t-36.5 -145.5t36.5 -146t99 -106t136.5 -39t136.5 39zM310.5 773.5q-13.5 13.5 -13.5 33.5q0 19 13.5 32t32.5 13t32.5 -13t13.5 -32t-13.5 -33t-32.5 -14t-32.5 13.5zM430 774q-14 14 -14 33t13.5 32t33.5 13q19 0 32 -13t13 -32q0 -20 -13 -33.5t-32 -13.5
t-33 14z" />
    <glyph glyph-name="multiply" unicode="&#xd7;" horiz-adv-x="497" 
d="M74 217l133 133l-133 133l41 42l134 -134l133 134l41 -42l-133 -133l133 -133l-41 -42l-133 134l-134 -134z" />
    <glyph glyph-name="Oslash" unicode="&#xd8;" horiz-adv-x="802" 
d="M232.5 32.5q-77.5 47.5 -123.5 128.5t-46 177q0 95 46 176t123.5 128.5t168.5 47.5t169 -47.5t123.5 -128.5t45.5 -176q0 -96 -45.5 -177t-123 -128.5t-169.5 -47.5q-91 0 -168.5 47.5zM537.5 86q62.5 39 99 106t36.5 146t-36.5 145.5t-99 105.5t-135.5 39
q-74 0 -137 -39t-99.5 -105.5t-36.5 -145.5t36.5 -146t99.5 -106t137 -39q73 0 135.5 39zM298 -48h-65l271 775h66z" />
    <glyph glyph-name="Ugrave" unicode="&#xd9;" horiz-adv-x="620" 
d="M190.5 27q-54.5 32 -86.5 87t-32 120v441h66v-445q0 -47 23 -86.5t62.5 -62.5t86.5 -23t86.5 23t62.5 62.5t23 86.5v445h66v-441q0 -65 -32 -120t-86.5 -87t-119.5 -32t-119.5 32zM145 875h76l138 -122h-65z" />
    <glyph glyph-name="Uacute" unicode="&#xda;" horiz-adv-x="620" 
d="M190.5 27q-54.5 32 -86.5 87t-32 120v441h66v-445q0 -47 23 -86.5t62.5 -62.5t86.5 -23t86.5 23t62.5 62.5t23 86.5v445h66v-441q0 -65 -32 -120t-86.5 -87t-119.5 -32t-119.5 32zM411 875h76l-149 -122h-65z" />
    <glyph glyph-name="Ucircumflex" unicode="&#xdb;" horiz-adv-x="620" 
d="M190.5 27q-54.5 32 -86.5 87t-32 120v441h66v-445q0 -47 23 -86.5t62.5 -62.5t86.5 -23t86.5 23t62.5 62.5t23 86.5v445h66v-441q0 -65 -32 -120t-86.5 -87t-119.5 -32t-119.5 32zM310 841l-104 -89h-55l123 122h72l124 -122h-55z" />
    <glyph glyph-name="Udieresis" unicode="&#xdc;" horiz-adv-x="620" 
d="M190.5 27q-54.5 32 -86.5 87t-32 120v441h66v-445q0 -47 23 -86.5t62.5 -62.5t86.5 -23t86.5 23t62.5 62.5t23 86.5v445h66v-441q0 -65 -32 -120t-86.5 -87t-119.5 -32t-119.5 32zM222.5 765.5q-13.5 13.5 -13.5 33.5q0 19 13.5 32t32.5 13t32.5 -13t13.5 -32t-13.5 -33
t-32.5 -14t-32.5 13.5zM342 766q-14 14 -14 33t13.5 32t33.5 13q19 0 32 -13t13 -32q0 -20 -13 -33.5t-32 -13.5t-33 14z" />
    <glyph glyph-name="Yacute" unicode="&#xdd;" horiz-adv-x="565" 
d="M250 201l-238 474h74l196 -396l199 396h74l-239 -474v-201h-66v201zM392 875h76l-149 -122h-65z" />
    <glyph glyph-name="Thorn" unicode="&#xde;" horiz-adv-x="568" 
d="M80 558h251q56 0 103.5 -27.5t75.5 -74.5t28 -103q0 -57 -28 -104.5t-75.5 -75.5t-103.5 -28h-185v-145h-66v558zM399.5 225q33.5 20 53 54t19.5 74q0 39 -19.5 72.5t-53 53t-72.5 19.5h-181v-293h181q39 0 72.5 20zM80 675h66v-264h-66v264z" />
    <glyph glyph-name="germandbls" unicode="&#xdf;" horiz-adv-x="567" 
d="M139 -2h-58v528q0 48 23 88.5t63 64t88 23.5t88.5 -23.5t64.5 -64t24 -88.5q0 -49 -24 -89.5t-64.5 -64.5t-88.5 -24l1 58q49 0 82.5 35t33.5 85q0 49 -33.5 83t-82.5 34t-83 -34t-34 -83v-528zM217 11l25 53q33 -15 66 -15q40 0 73.5 20t53 54.5t19.5 75.5t-19.5 75
t-53 54t-73.5 20h-57v51h56q57 0 104.5 -26t75.5 -72t28 -102q0 -57 -28 -104.5t-75.5 -75.5t-104.5 -28q-48 0 -90 20z" />
    <glyph glyph-name="agrave" unicode="&#xe0;" horiz-adv-x="624" 
d="M177 28.5q-57 33.5 -90.5 90.5t-33.5 124t33.5 123.5t90.5 90t125 33.5q66 0 117.5 -33t80 -89.5t28.5 -124.5t-28.5 -125t-80 -90t-117.5 -33q-68 0 -125 33.5zM396.5 82q42.5 25 67 67.5t24.5 93.5t-24.5 93.5t-67 67.5t-93.5 25q-50 0 -92.5 -25t-67 -67.5
t-24.5 -93.5t24.5 -93.5t67 -67.5t92.5 -25q51 0 93.5 25zM498 167l-10 8v104h66v-279h-56v167zM488 310l10 8v167h56v-279h-66v104zM122 713h76l138 -122h-65z" />
    <glyph glyph-name="aacute" unicode="&#xe1;" horiz-adv-x="624" 
d="M177 28.5q-57 33.5 -90.5 90.5t-33.5 124t33.5 123.5t90.5 90t125 33.5q66 0 117.5 -33t80 -89.5t28.5 -124.5t-28.5 -125t-80 -90t-117.5 -33q-68 0 -125 33.5zM396.5 82q42.5 25 67 67.5t24.5 93.5t-24.5 93.5t-67 67.5t-93.5 25q-50 0 -92.5 -25t-67 -67.5
t-24.5 -93.5t24.5 -93.5t67 -67.5t92.5 -25q51 0 93.5 25zM498 167l-10 8v104h66v-279h-56v167zM488 310l10 8v167h56v-279h-66v104zM397 713h76l-149 -122h-65z" />
    <glyph glyph-name="acircumflex" unicode="&#xe2;" horiz-adv-x="624" 
d="M177 28.5q-57 33.5 -90.5 90.5t-33.5 124t33.5 123.5t90.5 90t125 33.5q66 0 117.5 -33t80 -89.5t28.5 -124.5t-28.5 -125t-80 -90t-117.5 -33q-68 0 -125 33.5zM396.5 82q42.5 25 67 67.5t24.5 93.5t-24.5 93.5t-67 67.5t-93.5 25q-50 0 -92.5 -25t-67 -67.5
t-24.5 -93.5t24.5 -93.5t67 -67.5t92.5 -25q51 0 93.5 25zM498 167l-10 8v104h66v-279h-56v167zM488 310l10 8v167h56v-279h-66v104zM304 679l-104 -89h-55l123 122h72l124 -122h-55z" />
    <glyph glyph-name="atilde" unicode="&#xe3;" horiz-adv-x="624" 
d="M177 28.5q-57 33.5 -90.5 90.5t-33.5 124t33.5 123.5t90.5 90t125 33.5q66 0 117.5 -33t80 -89.5t28.5 -124.5t-28.5 -125t-80 -90t-117.5 -33q-68 0 -125 33.5zM396.5 82q42.5 25 67 67.5t24.5 93.5t-24.5 93.5t-67 67.5t-93.5 25q-50 0 -92.5 -25t-67 -67.5
t-24.5 -93.5t24.5 -93.5t67 -67.5t92.5 -25q51 0 93.5 25zM498 167l-10 8v104h66v-279h-56v167zM488 310l10 8v167h56v-279h-66v104zM339 600.5q-17 8.5 -40 28.5q-18 16 -29.5 22.5t-23.5 6.5q-23 0 -36.5 -16.5t-15.5 -45.5h-41q2 49 26 78t63 29q21 0 38 -8.5t40 -28.5
q18 -16 29.5 -22.5t24.5 -6.5q22 0 35.5 16t15.5 44h41q-2 -48 -26 -76.5t-63 -28.5q-21 0 -38 8.5z" />
    <glyph glyph-name="adieresis" unicode="&#xe4;" horiz-adv-x="624" 
d="M177 28.5q-57 33.5 -90.5 90.5t-33.5 124t33.5 123.5t90.5 90t125 33.5q66 0 117.5 -33t80 -89.5t28.5 -124.5t-28.5 -125t-80 -90t-117.5 -33q-68 0 -125 33.5zM396.5 82q42.5 25 67 67.5t24.5 93.5t-24.5 93.5t-67 67.5t-93.5 25q-50 0 -92.5 -25t-67 -67.5
t-24.5 -93.5t24.5 -93.5t67 -67.5t92.5 -25q51 0 93.5 25zM498 167l-10 8v104h66v-279h-56v167zM488 310l10 8v167h56v-279h-66v104zM209.5 601.5q-13.5 13.5 -13.5 33.5q0 19 13.5 32t32.5 13t32.5 -13t13.5 -32t-13.5 -33t-32.5 -14t-32.5 13.5zM329 602q-14 14 -14 33
t13.5 32t33.5 13q19 0 32 -13t13 -32q0 -20 -13 -33.5t-32 -13.5t-33 14z" />
    <glyph glyph-name="aring" unicode="&#xe5;" horiz-adv-x="624" 
d="M177 28.5q-57 33.5 -90.5 90.5t-33.5 124t33.5 123.5t90.5 90t125 33.5q66 0 117.5 -33t80 -89.5t28.5 -124.5t-28.5 -125t-80 -90t-117.5 -33q-68 0 -125 33.5zM396.5 82q42.5 25 67 67.5t24.5 93.5t-24.5 93.5t-67 67.5t-93.5 25q-50 0 -92.5 -25t-67 -67.5
t-24.5 -93.5t24.5 -93.5t67 -67.5t92.5 -25q51 0 93.5 25zM498 167l-10 8v104h66v-279h-56v167zM488 310l10 8v167h56v-279h-66v104zM226.5 619.5q-29.5 29.5 -29.5 71.5q0 43 30 73t74 30t74.5 -30t30.5 -73q0 -42 -30.5 -71.5t-74.5 -29.5q-45 0 -74.5 29.5zM350 643
q19 19 19 48t-20 49t-48 20q-29 0 -48.5 -20t-19.5 -49t19 -48t49 -19t49 19z" />
    <glyph glyph-name="ae" unicode="&#xe6;" horiz-adv-x="1028" 
d="M177 28.5q-57 33.5 -90.5 90.5t-33.5 124t33.5 123.5t90.5 90t125 33.5q66 0 117.5 -33t80 -89.5t28.5 -124.5t-28.5 -125t-80 -90t-117.5 -33q-68 0 -125 33.5zM396.5 82q42.5 25 67 67.5t24.5 93.5t-24.5 93.5t-67 67.5t-93.5 25q-50 0 -92.5 -25t-67 -67.5
t-24.5 -93.5t24.5 -93.5t67 -67.5t92.5 -25q51 0 93.5 25zM495 167l-7 8v104h62v-279h-55v167zM488 310l7 8v167h55v-279h-62v104zM624 28q-53 33 -83.5 90t-30.5 125t30.5 125t83.5 90t119 33q68 0 123 -33t86 -90t31 -124q0 -18 -1 -26l-50 26q0 51 -25.5 95t-69 69.5
t-94.5 25.5q-52 0 -95 -25.5t-68.5 -69.5t-25.5 -95q0 -53 25.5 -97.5t68.5 -70.5t95 -26q54 0 98.5 28t69.5 74l49 -24q-30 -62 -87.5 -97.5t-129.5 -35.5q-66 0 -119 33zM547 268h424l11 -50h-435v50z" />
    <glyph glyph-name="ccedilla" unicode="&#xe7;" horiz-adv-x="590" 
d="M177 28.5q-57 33.5 -90.5 90.5t-33.5 124t33.5 124t90.5 90.5t125 33.5q58 0 107.5 -25t83 -68t45.5 -97l-56 -9q-17 60 -66.5 99t-111.5 39q-50 0 -92.5 -25t-67.5 -68t-25 -94t25 -94t67.5 -68t92.5 -25q62 0 111.5 39t66.5 99l56 -9q-12 -54 -45.5 -97.5t-83 -68
t-107.5 -24.5q-68 0 -125 33.5zM211 -228l11 40l62 -1q29 0 45 13.5t16 36.5q0 22 -15.5 36t-42.5 14h-30l24 89h46l-16 -61q39 -4 61 -25t22 -55q0 -39 -31 -63t-81 -24h-71z" />
    <glyph glyph-name="egrave" unicode="&#xe8;" horiz-adv-x="588" 
d="M179 28.5q-57 33.5 -90.5 90.5t-33.5 124t33 124t90 90.5t125 33.5t122.5 -33t86 -90t31.5 -124q0 -10 -2 -26h-422q4 -46 29.5 -84.5t66.5 -61t88 -22.5q54 0 98.5 28t68.5 74l50 -24q-30 -61 -88 -97t-129 -36q-67 0 -124 33.5zM454.5 353.5q-25.5 37.5 -65.5 59
t-86 21.5q-47 0 -87 -21.5t-65.5 -59t-30.5 -82.5h364q-4 45 -29.5 82.5zM129 712h76l138 -122h-65z" />
    <glyph glyph-name="eacute" unicode="&#xe9;" horiz-adv-x="588" 
d="M179 28.5q-57 33.5 -90.5 90.5t-33.5 124t33 124t90 90.5t125 33.5t122.5 -33t86 -90t31.5 -124q0 -10 -2 -26h-422q4 -46 29.5 -84.5t66.5 -61t88 -22.5q54 0 98.5 28t68.5 74l50 -24q-30 -61 -88 -97t-129 -36q-67 0 -124 33.5zM454.5 353.5q-25.5 37.5 -65.5 59
t-86 21.5q-47 0 -87 -21.5t-65.5 -59t-30.5 -82.5h364q-4 45 -29.5 82.5zM402 712h76l-149 -122h-65z" />
    <glyph glyph-name="ecircumflex" unicode="&#xea;" horiz-adv-x="588" 
d="M179 28.5q-57 33.5 -90.5 90.5t-33.5 124t33 124t90 90.5t125 33.5t122.5 -33t86 -90t31.5 -124q0 -10 -2 -26h-422q4 -46 29.5 -84.5t66.5 -61t88 -22.5q54 0 98.5 28t68.5 74l50 -24q-30 -61 -88 -97t-129 -36q-67 0 -124 33.5zM454.5 353.5q-25.5 37.5 -65.5 59
t-86 21.5q-47 0 -87 -21.5t-65.5 -59t-30.5 -82.5h364q-4 45 -29.5 82.5zM301 679l-104 -89h-55l123 122h72l124 -122h-55z" />
    <glyph glyph-name="edieresis" unicode="&#xeb;" horiz-adv-x="588" 
d="M179 28.5q-57 33.5 -90.5 90.5t-33.5 124t33 124t90 90.5t125 33.5t122.5 -33t86 -90t31.5 -124q0 -10 -2 -26h-422q4 -46 29.5 -84.5t66.5 -61t88 -22.5q54 0 98.5 28t68.5 74l50 -24q-30 -61 -88 -97t-129 -36q-67 0 -124 33.5zM454.5 353.5q-25.5 37.5 -65.5 59
t-86 21.5q-47 0 -87 -21.5t-65.5 -59t-30.5 -82.5h364q-4 45 -29.5 82.5zM207.5 599.5q-13.5 13.5 -13.5 33.5q0 19 13.5 32t32.5 13t32.5 -13t13.5 -32t-13.5 -33t-32.5 -14t-32.5 13.5zM327 600q-14 14 -14 33t13.5 32t33.5 13q19 0 32 -13t13 -32q0 -20 -13 -33.5
t-32 -13.5t-33 14z" />
    <glyph glyph-name="igrave" unicode="&#xec;" horiz-adv-x="208" 
d="M71 485h66v-485h-66v485zM-76 707h76l138 -123h-65z" />
    <glyph glyph-name="iacute" unicode="&#xed;" horiz-adv-x="208" 
d="M71 485h66v-485h-66v485zM207 707h77l-150 -122h-65z" />
    <glyph glyph-name="icircumflex" unicode="&#xee;" horiz-adv-x="208" 
d="M71 485h66v-485h-66v485zM104 674l-104 -89h-55l123 122h72l124 -122h-55z" />
    <glyph glyph-name="idieresis" unicode="&#xef;" horiz-adv-x="208" 
d="M71 485h66v-485h-66v485zM11.5 597.5q-13.5 13.5 -13.5 32.5t13.5 32.5t32.5 13.5t32.5 -13.5t13.5 -32.5t-13.5 -32.5t-32.5 -13.5t-32.5 13.5zM131.5 597.5q-13.5 13.5 -13.5 32.5t13.5 32.5t32.5 13.5t32.5 -13.5t13.5 -32.5t-13.5 -32.5t-32.5 -13.5t-32.5 13.5z" />
    <glyph glyph-name="eth" unicode="&#xf0;" horiz-adv-x="611" 
d="M180 24.5q-52 30.5 -82.5 82.5t-30.5 113t30.5 110.5t82 78t111.5 28.5q66 0 116 -40t61 -100q1 8 1 27q0 68 -19.5 136.5t-60.5 114t-101 45.5h-61v60h58q90 0 147 -60t81.5 -146t24.5 -169q0 -142 -63.5 -226.5t-181.5 -84.5q-61 0 -113 30.5zM376 76q37 22 58.5 59.5
t21.5 81.5t-21.5 81t-58.5 58.5t-81 21.5t-81 -21.5t-59 -58.5t-22 -81t22 -81.5t59 -59.5t81 -22t81 22zM246 492l285 166l21 -34l-285 -167z" />
    <glyph glyph-name="ntilde" unicode="&#xf1;" horiz-adv-x="567" 
d="M434.5 346.5q-21.5 37.5 -58 59t-80.5 21.5q-43 0 -80 -21.5t-58.5 -59t-21.5 -81.5h-40q0 60 26.5 111.5t74 82.5t107.5 31t110 -30t79 -81.5t29 -112.5v-266h-66v265q0 44 -21.5 81.5zM70 485h56v-140l10 -11v-334h-66v485zM351 591.5q-17 8.5 -40 28.5
q-18 16 -29.5 22.5t-23.5 6.5q-23 0 -36.5 -16.5t-15.5 -45.5h-41q2 49 26 78t63 29q21 0 38 -8.5t40 -28.5q18 -16 29.5 -22.5t24.5 -6.5q22 0 35.5 16t15.5 44h41q-2 -48 -26 -76.5t-63 -28.5q-21 0 -38 8.5z" />
    <glyph glyph-name="ograve" unicode="&#xf2;" horiz-adv-x="607" 
d="M177.5 28q-57.5 33 -91 90t-33.5 125q0 67 33.5 124t91 90t126.5 33q68 0 125.5 -33t91 -90t33.5 -124q0 -68 -33.5 -125t-91 -90t-125.5 -33q-69 0 -126.5 33zM396.5 82q42.5 25 67 67.5t24.5 93.5t-24.5 93.5t-67 67.5t-93.5 25q-50 0 -92.5 -25t-67 -67.5t-24.5 -93.5
t24.5 -93.5t67 -67.5t92.5 -25q51 0 93.5 25zM122 710h76l138 -122h-65z" />
    <glyph glyph-name="oacute" unicode="&#xf3;" horiz-adv-x="607" 
d="M177.5 28q-57.5 33 -91 90t-33.5 125q0 67 33.5 124t91 90t126.5 33q68 0 125.5 -33t91 -90t33.5 -124q0 -68 -33.5 -125t-91 -90t-125.5 -33q-69 0 -126.5 33zM396.5 82q42.5 25 67 67.5t24.5 93.5t-24.5 93.5t-67 67.5t-93.5 25q-50 0 -92.5 -25t-67 -67.5t-24.5 -93.5
t24.5 -93.5t67 -67.5t92.5 -25q51 0 93.5 25zM401 709h76l-149 -122h-65z" />
    <glyph glyph-name="ocircumflex" unicode="&#xf4;" horiz-adv-x="607" 
d="M177.5 28q-57.5 33 -91 90t-33.5 125q0 67 33.5 124t91 90t126.5 33q68 0 125.5 -33t91 -90t33.5 -124q0 -68 -33.5 -125t-91 -90t-125.5 -33q-69 0 -126.5 33zM396.5 82q42.5 25 67 67.5t24.5 93.5t-24.5 93.5t-67 67.5t-93.5 25q-50 0 -92.5 -25t-67 -67.5t-24.5 -93.5
t24.5 -93.5t67 -67.5t92.5 -25q51 0 93.5 25zM302 676l-104 -89h-55l123 122h72l124 -122h-55z" />
    <glyph glyph-name="otilde" unicode="&#xf5;" horiz-adv-x="607" 
d="M177.5 28q-57.5 33 -91 90t-33.5 125q0 67 33.5 124t91 90t126.5 33q68 0 125.5 -33t91 -90t33.5 -124q0 -68 -33.5 -125t-91 -90t-125.5 -33q-69 0 -126.5 33zM396.5 82q42.5 25 67 67.5t24.5 93.5t-24.5 93.5t-67 67.5t-93.5 25q-50 0 -92.5 -25t-67 -67.5t-24.5 -93.5
t24.5 -93.5t67 -67.5t92.5 -25q51 0 93.5 25zM334 593.5q-17 8.5 -40 28.5q-18 16 -29.5 22.5t-23.5 6.5q-23 0 -36.5 -16.5t-15.5 -45.5h-41q2 49 26 78t63 29q21 0 38 -8.5t40 -28.5q18 -16 29.5 -22.5t24.5 -6.5q22 0 35.5 16t15.5 44h41q-2 -48 -26 -76.5t-63 -28.5
q-21 0 -38 8.5z" />
    <glyph glyph-name="odieresis" unicode="&#xf6;" horiz-adv-x="607" 
d="M177.5 28q-57.5 33 -91 90t-33.5 125q0 67 33.5 124t91 90t126.5 33q68 0 125.5 -33t91 -90t33.5 -124q0 -68 -33.5 -125t-91 -90t-125.5 -33q-69 0 -126.5 33zM396.5 82q42.5 25 67 67.5t24.5 93.5t-24.5 93.5t-67 67.5t-93.5 25q-50 0 -92.5 -25t-67 -67.5t-24.5 -93.5
t24.5 -93.5t67 -67.5t92.5 -25q51 0 93.5 25zM208.5 595.5q-13.5 13.5 -13.5 33.5q0 19 13.5 32t32.5 13t32.5 -13t13.5 -32t-13.5 -33t-32.5 -14t-32.5 13.5zM328 596q-14 14 -14 33t13.5 32t33.5 13q19 0 32 -13t13 -32q0 -20 -13 -33.5t-32 -13.5t-33 14z" />
    <glyph glyph-name="divide" unicode="&#xf7;" horiz-adv-x="575" 
d="M70 378h435v-58h-435v58zM251.5 123.5q-15.5 15.5 -15.5 36.5t15 36t37 15t36.5 -15t14.5 -36q0 -22 -15 -37t-36 -15t-36.5 15.5zM251.5 504.5q-15.5 15.5 -15.5 36.5t15 36t37 15t36.5 -15t14.5 -36q0 -22 -15 -37t-36 -15t-36.5 15.5z" />
    <glyph glyph-name="oslash" unicode="&#xf8;" horiz-adv-x="607" 
d="M177.5 28q-57.5 33 -91 90t-33.5 125q0 67 33.5 124t91 90t126.5 33q68 0 125.5 -33t91 -90t33.5 -124q0 -68 -33.5 -125t-91 -90t-125.5 -33q-69 0 -126.5 33zM397 80q43 25 68 68t25 95q0 51 -25 94.5t-68 68.5t-94 25t-93.5 -25.5t-67.5 -68.5t-25 -94q0 -52 25 -95
t67.5 -68t93.5 -25t94 25zM233 -48h-58l206 587h58z" />
    <glyph glyph-name="ugrave" unicode="&#xf9;" horiz-adv-x="576" 
d="M153 25q-50 30 -79 81.5t-29 112.5v266h66v-265q0 -44 21.5 -81t58.5 -58.5t81 -21.5q43 0 80 21.5t58.5 58.5t21.5 81h39q0 -60 -26.5 -111.5t-74 -82.5t-107.5 -31t-110 30zM442 141l-10 9v335h66v-485h-56v141zM88 707h76l138 -122h-65z" />
    <glyph glyph-name="uacute" unicode="&#xfa;" horiz-adv-x="576" 
d="M153 25q-50 30 -79 81.5t-29 112.5v266h66v-265q0 -44 21.5 -81t58.5 -58.5t81 -21.5q43 0 80 21.5t58.5 58.5t21.5 81h39q0 -60 -26.5 -111.5t-74 -82.5t-107.5 -31t-110 30zM442 141l-10 9v335h66v-485h-56v141zM370 705h76l-149 -122h-65z" />
    <glyph glyph-name="ucircumflex" unicode="&#xfb;" horiz-adv-x="576" 
d="M153 25q-50 30 -79 81.5t-29 112.5v266h66v-265q0 -44 21.5 -81t58.5 -58.5t81 -21.5q43 0 80 21.5t58.5 58.5t21.5 81h39q0 -60 -26.5 -111.5t-74 -82.5t-107.5 -31t-110 30zM442 141l-10 9v335h66v-485h-56v141zM284 674l-104 -89h-55l123 122h72l124 -122h-55z" />
    <glyph glyph-name="udieresis" unicode="&#xfc;" horiz-adv-x="576" 
d="M153 25q-50 30 -79 81.5t-29 112.5v266h66v-265q0 -44 21.5 -81t58.5 -58.5t81 -21.5q43 0 80 21.5t58.5 58.5t21.5 81h39q0 -60 -26.5 -111.5t-74 -82.5t-107.5 -31t-110 30zM442 141l-10 9v335h66v-485h-56v141zM181.5 597.5q-13.5 13.5 -13.5 33.5q0 19 13.5 32
t32.5 13t32.5 -13t13.5 -32t-13.5 -33t-32.5 -14t-32.5 13.5zM301 598q-14 14 -14 33t13.5 32t33.5 13q19 0 32 -13t13 -32q0 -20 -13 -33.5t-32 -13.5t-33 14z" />
    <glyph glyph-name="yacute" unicode="&#xfd;" horiz-adv-x="523" 
d="M34 -165h63q72 0 100 67l230 583h66l-233 -596q-19 -54 -59.5 -85t-101.5 -31h-65v62zM17 485h67l185 -485h-67zM356 708h76l-149 -122h-65z" />
    <glyph glyph-name="thorn" unicode="&#xfe;" horiz-adv-x="633" 
d="M214.5 28q-51.5 33 -80 90t-28.5 125t28.5 124.5t80 89.5t117.5 33q68 0 125 -33.5t90 -90t33 -123.5t-33 -124t-90 -90.5t-125 -33.5q-66 0 -117.5 33zM79 682h65v-328l1 -19v-525h-66v872zM422.5 81q42.5 25 67 68t24.5 94t-24.5 93.5t-67 67.5t-92.5 25
q-51 0 -93.5 -25t-67 -67.5t-24.5 -93.5t24.5 -94t67 -68t93.5 -25q50 0 92.5 25z" />
    <glyph glyph-name="ydieresis" unicode="&#xff;" horiz-adv-x="523" 
d="M34 -165h63q72 0 100 67l230 583h66l-233 -596q-19 -54 -59.5 -85t-101.5 -31h-65v62zM17 485h67l185 -485h-67zM167.5 597.5q-13.5 13.5 -13.5 33.5q0 19 13.5 32t32.5 13t32.5 -13t13.5 -32t-13.5 -33t-32.5 -14t-32.5 13.5zM287 598q-14 14 -14 33t13.5 32t33.5 13
q19 0 32 -13t13 -32q0 -20 -13 -33.5t-32 -13.5t-33 14z" />
    <glyph glyph-name="Amacron" unicode="&#x100;" horiz-adv-x="627" 
d="M277 675h70l-265 -675h-70zM283 675h69l265 -675h-69zM150 247h334v-63h-334v63zM452 753h-280v45h280v-45z" />
    <glyph glyph-name="amacron" unicode="&#x101;" horiz-adv-x="624" 
d="M177 28.5q-57 33.5 -90.5 90.5t-33.5 124t33.5 123.5t90.5 90t125 33.5q66 0 117.5 -33t80 -89.5t28.5 -124.5t-28.5 -125t-80 -90t-117.5 -33q-68 0 -125 33.5zM396.5 82q42.5 25 67 67.5t24.5 93.5t-24.5 93.5t-67 67.5t-93.5 25q-50 0 -92.5 -25t-67 -67.5
t-24.5 -93.5t24.5 -93.5t67 -67.5t92.5 -25q51 0 93.5 25zM498 167l-10 8v104h66v-279h-56v167zM488 310l10 8v167h56v-279h-66v104zM439 591h-280v45h280v-45z" />
    <glyph glyph-name="Abreve" unicode="&#x102;" horiz-adv-x="627" 
d="M277 675h70l-265 -675h-70zM283 675h69l265 -675h-69zM150 247h334v-63h-334v63zM204.5 788q-42.5 35 -43.5 92h48q1 -39 30 -62.5t73 -23.5t73 23.5t30 62.5h48q-1 -57 -43.5 -92t-107.5 -35t-107.5 35z" />
    <glyph glyph-name="abreve" unicode="&#x103;" horiz-adv-x="624" 
d="M177 28.5q-57 33.5 -90.5 90.5t-33.5 124t33.5 123.5t90.5 90t125 33.5q66 0 117.5 -33t80 -89.5t28.5 -124.5t-28.5 -125t-80 -90t-117.5 -33q-68 0 -125 33.5zM396.5 82q42.5 25 67 67.5t24.5 93.5t-24.5 93.5t-67 67.5t-93.5 25q-50 0 -92.5 -25t-67 -67.5
t-24.5 -93.5t24.5 -93.5t67 -67.5t92.5 -25q51 0 93.5 25zM498 167l-10 8v104h66v-279h-56v167zM488 310l10 8v167h56v-279h-66v104zM189.5 625q-42.5 35 -43.5 92h48q1 -39 30 -62.5t73 -23.5t73 23.5t30 62.5h48q-1 -57 -43.5 -92t-107.5 -35t-107.5 35z" />
    <glyph glyph-name="Aogonek" unicode="&#x104;" horiz-adv-x="627" 
d="M277 675h70l-265 -675h-70zM283 675h69l265 -675h-69zM150 247h334v-63h-334v63zM471.5 -195.5q-29.5 25.5 -29.5 68.5q0 93 145 152l28 -25q-65 -28 -94.5 -58t-29.5 -64q0 -27 17.5 -42t49.5 -15h61v-42h-69q-49 0 -78.5 25.5z" />
    <glyph glyph-name="aogonek" unicode="&#x105;" horiz-adv-x="624" 
d="M177 28.5q-57 33.5 -90.5 90.5t-33.5 124t33.5 123.5t90.5 90t125 33.5q66 0 117.5 -33t80 -89.5t28.5 -124.5t-28.5 -125t-80 -90t-117.5 -33q-68 0 -125 33.5zM396.5 82q42.5 25 67 67.5t24.5 93.5t-24.5 93.5t-67 67.5t-93.5 25q-50 0 -92.5 -25t-67 -67.5
t-24.5 -93.5t24.5 -93.5t67 -67.5t92.5 -25q51 0 93.5 25zM498 167l-10 8v104h66v-279h-56v167zM488 310l10 8v167h56v-279h-66v104zM410 -195.5q-30 25.5 -30 68.5q0 93 146 152l28 -25q-65 -28 -94.5 -58t-29.5 -64q0 -27 17.5 -42t49.5 -15h60v-42h-68q-49 0 -79 25.5z
" />
    <glyph glyph-name="Cacute" unicode="&#x106;" horiz-adv-x="765" 
d="M229.5 32.5q-76.5 47.5 -121.5 128.5t-45 177q0 95 45 176t121.5 128.5t166.5 47.5q73 0 137.5 -32t111 -88t67.5 -127l-57 -10q-28 86 -98 140.5t-157 54.5q-73 0 -135.5 -39t-99 -105.5t-36.5 -145.5t36.5 -146t99 -106t135.5 -39q87 0 157 54.5t98 140.5l57 -8
q-21 -72 -67.5 -128.5t-111 -88.5t-137.5 -32q-90 0 -166.5 47.5zM494 885h76l-149 -122h-65z" />
    <glyph glyph-name="cacute" unicode="&#x107;" horiz-adv-x="590" 
d="M177 28.5q-57 33.5 -90.5 90.5t-33.5 124t33.5 124t90.5 90.5t125 33.5q58 0 107.5 -25t83 -68t45.5 -97l-56 -9q-17 60 -66.5 99t-111.5 39q-50 0 -92.5 -25t-67.5 -68t-25 -94t25 -94t67.5 -68t92.5 -25q62 0 111.5 39t66.5 99l56 -9q-12 -54 -45.5 -97.5t-83 -68
t-107.5 -24.5q-68 0 -125 33.5zM399 713h76l-149 -122h-65z" />
    <glyph glyph-name="Cdotaccent" unicode="&#x10a;" horiz-adv-x="765" 
d="M229.5 32.5q-76.5 47.5 -121.5 128.5t-45 177q0 95 45 176t121.5 128.5t166.5 47.5q73 0 137.5 -32t111 -88t67.5 -127l-57 -10q-28 86 -98 140.5t-157 54.5q-73 0 -135.5 -39t-99 -105.5t-36.5 -145.5t36.5 -146t99 -106t135.5 -39q87 0 157 54.5t98 140.5l57 -8
q-21 -72 -67.5 -128.5t-111 -88.5t-137.5 -32q-90 0 -166.5 47.5zM362.5 779.5q-13.5 13.5 -13.5 33.5q0 19 13.5 32t32.5 13t32.5 -13t13.5 -32t-13.5 -33t-32.5 -14t-32.5 13.5z" />
    <glyph glyph-name="cdotaccent" unicode="&#x10b;" horiz-adv-x="590" 
d="M177 28.5q-57 33.5 -90.5 90.5t-33.5 124t33.5 124t90.5 90.5t125 33.5q58 0 107.5 -25t83 -68t45.5 -97l-56 -9q-17 60 -66.5 99t-111.5 39q-50 0 -92.5 -25t-67.5 -68t-25 -94t25 -94t67.5 -68t92.5 -25q62 0 111.5 39t66.5 99l56 -9q-12 -54 -45.5 -97.5t-83 -68
t-107.5 -24.5q-68 0 -125 33.5zM268.5 602.5q-13.5 13.5 -13.5 33.5q0 19 13.5 32t32.5 13t32.5 -13t13.5 -32t-13.5 -33t-32.5 -14t-32.5 13.5z" />
    <glyph glyph-name="Ccaron" unicode="&#x10c;" horiz-adv-x="765" 
d="M229.5 32.5q-76.5 47.5 -121.5 128.5t-45 177q0 95 45 176t121.5 128.5t166.5 47.5q73 0 137.5 -32t111 -88t67.5 -127l-57 -10q-28 86 -98 140.5t-157 54.5q-73 0 -135.5 -39t-99 -105.5t-36.5 -145.5t36.5 -146t99 -106t135.5 -39q87 0 157 54.5t98 140.5l57 -8
q-21 -72 -67.5 -128.5t-111 -88.5t-137.5 -32q-90 0 -166.5 47.5zM429 764h-72l-123 122h55l104 -89l105 89h55z" />
    <glyph glyph-name="ccaron" unicode="&#x10d;" horiz-adv-x="590" 
d="M177 28.5q-57 33.5 -90.5 90.5t-33.5 124t33.5 124t90.5 90.5t125 33.5q58 0 107.5 -25t83 -68t45.5 -97l-56 -9q-17 60 -66.5 99t-111.5 39q-50 0 -92.5 -25t-67.5 -68t-25 -94t25 -94t67.5 -68t92.5 -25q62 0 111.5 39t66.5 99l56 -9q-12 -54 -45.5 -97.5t-83 -68
t-107.5 -24.5q-68 0 -125 33.5zM338 590h-72l-123 122h55l104 -89l105 89h55z" />
    <glyph glyph-name="Dcaron" unicode="&#x10e;" horiz-adv-x="684" 
d="M80 675h203q91 0 168.5 -45.5t123 -123t45.5 -168.5t-45.5 -169t-123 -123.5t-168.5 -45.5h-203v675zM415.5 96.5q63.5 37.5 101 101.5t37.5 140t-37.5 139.5t-101 100.5t-139.5 37h-130v-556h130q76 0 139.5 37.5zM314 753h-72l-123 122h55l104 -89l105 89h55z" />
    <glyph glyph-name="dcaron" unicode="&#x10f;" horiz-adv-x="643" 
d="M177 28.5q-57 33.5 -90.5 90.5t-33.5 124t33.5 123.5t90.5 90t125 33.5q66 0 118 -33t80.5 -89.5t28.5 -124.5t-28.5 -125t-80.5 -90t-118 -33q-68 0 -125 33.5zM396.5 82q42.5 25 67.5 67.5t25 93.5t-25 93.5t-67.5 67.5t-92.5 25t-92.5 -25t-67.5 -67.5t-25 -93.5
t25 -93.5t67.5 -67.5t92.5 -25t92.5 25zM499 144l-10 6v555h66v-705h-56v144zM556 804h-72l-123 122h55l104 -89l105 89h55z" />
    <glyph glyph-name="Dcroat" unicode="&#x110;" horiz-adv-x="742" 
d="M138 675h203q91 0 168.5 -45.5t123 -123t45.5 -168.5t-45.5 -169t-123 -123.5t-168.5 -45.5h-203v675zM474 96.5q64 37.5 101 101.5t37 140t-37 139.5t-101 100.5t-140 37h-130v-556h130q76 0 140 37.5zM17 365h326v-57h-326v57z" />
    <glyph glyph-name="dcroat" unicode="&#x111;" horiz-adv-x="667" 
d="M177 28.5q-57 33.5 -90.5 90.5t-33.5 124t33.5 123.5t90.5 90t125 33.5q66 0 118 -33t80.5 -89.5t28.5 -124.5t-28.5 -125t-80.5 -90t-118 -33q-68 0 -125 33.5zM396.5 82q42.5 25 67.5 67.5t25 93.5t-25 93.5t-67.5 67.5t-92.5 25t-92.5 -25t-67.5 -67.5t-25 -93.5
t25 -93.5t67.5 -67.5t92.5 -25t92.5 25zM499 144l-10 6v555h66v-705h-56v144zM392 625h235v-57h-235v57z" />
    <glyph glyph-name="Emacron" unicode="&#x112;" horiz-adv-x="556" 
d="M80 675h423l1 -62l-360 1v-249h326v-57h-326v-248h359v-60h-423v675zM438 753h-280v45h280v-45z" />
    <glyph glyph-name="emacron" unicode="&#x113;" horiz-adv-x="588" 
d="M179 28.5q-57 33.5 -90.5 90.5t-33.5 124t33 124t90 90.5t125 33.5t122.5 -33t86 -90t31.5 -124q0 -10 -2 -26h-422q4 -46 29.5 -84.5t66.5 -61t88 -22.5q54 0 98.5 28t68.5 74l50 -24q-30 -61 -88 -97t-129 -36q-67 0 -124 33.5zM454.5 353.5q-25.5 37.5 -65.5 59
t-86 21.5q-47 0 -87 -21.5t-65.5 -59t-30.5 -82.5h364q-4 45 -29.5 82.5zM442 591h-280v45h280v-45z" />
    <glyph glyph-name="Edotaccent" unicode="&#x116;" horiz-adv-x="556" 
d="M80 675h423l1 -62l-360 1v-249h326v-57h-326v-248h359v-60h-423v675zM273.5 765.5q-13.5 13.5 -13.5 33.5q0 19 13.5 32t32.5 13t32.5 -13t13.5 -32t-13.5 -33t-32.5 -14t-32.5 13.5z" />
    <glyph glyph-name="edotaccent" unicode="&#x117;" horiz-adv-x="588" 
d="M179 28.5q-57 33.5 -90.5 90.5t-33.5 124t33 124t90 90.5t125 33.5t122.5 -33t86 -90t31.5 -124q0 -10 -2 -26h-422q4 -46 29.5 -84.5t66.5 -61t88 -22.5q54 0 98.5 28t68.5 74l50 -24q-30 -61 -88 -97t-129 -36q-67 0 -124 33.5zM454.5 353.5q-25.5 37.5 -65.5 59
t-86 21.5q-47 0 -87 -21.5t-65.5 -59t-30.5 -82.5h364q-4 45 -29.5 82.5zM271.5 603.5q-13.5 13.5 -13.5 33.5q0 19 13.5 32t32.5 13t32.5 -13t13.5 -32t-13.5 -33t-32.5 -14t-32.5 13.5z" />
    <glyph glyph-name="Eogonek" unicode="&#x118;" horiz-adv-x="556" 
d="M80 675h423l1 -62l-360 1v-249h326v-57h-326v-248h359v-60h-423v675zM359.5 -195.5q-29.5 25.5 -29.5 68.5q0 93 145 152l28 -25q-65 -28 -94 -58.5t-29 -63.5q0 -26 17.5 -41.5t48.5 -15.5h61v-42h-68q-50 0 -79.5 25.5z" />
    <glyph glyph-name="eogonek" unicode="&#x119;" horiz-adv-x="588" 
d="M179 28.5q-57 33.5 -90.5 90.5t-33.5 124t33 124t90 90.5t125 33.5t122.5 -33t86 -90t31.5 -124q0 -10 -2 -26h-422q4 -46 29.5 -84.5t66.5 -61t88 -22.5q54 0 98.5 28t68.5 74l50 -24q-30 -61 -88 -97t-129 -36q-67 0 -124 33.5zM454.5 353.5q-25.5 37.5 -65.5 59
t-86 21.5q-47 0 -87 -21.5t-65.5 -59t-30.5 -82.5h364q-4 45 -29.5 82.5zM215 -192.5q-30 25.5 -30 68.5q0 92 146 151l28 -25q-66 -28 -95 -58t-29 -63q0 -27 17.5 -42.5t49.5 -15.5h60v-41h-68q-49 0 -79 25.5z" />
    <glyph glyph-name="Ecaron" unicode="&#x11a;" horiz-adv-x="556" 
d="M80 675h423l1 -62l-360 1v-249h326v-57h-326v-248h359v-60h-423v675zM338 753h-72l-123 122h55l104 -89l105 89h55z" />
    <glyph glyph-name="ecaron" unicode="&#x11b;" horiz-adv-x="588" 
d="M179 28.5q-57 33.5 -90.5 90.5t-33.5 124t33 124t90 90.5t125 33.5t122.5 -33t86 -90t31.5 -124q0 -10 -2 -26h-422q4 -46 29.5 -84.5t66.5 -61t88 -22.5q54 0 98.5 28t68.5 74l50 -24q-30 -61 -88 -97t-129 -36q-67 0 -124 33.5zM454.5 353.5q-25.5 37.5 -65.5 59
t-86 21.5q-47 0 -87 -21.5t-65.5 -59t-30.5 -82.5h364q-4 45 -29.5 82.5zM339 591h-72l-123 122h55l104 -89l105 89h55z" />
    <glyph glyph-name="Gbreve" unicode="&#x11e;" horiz-adv-x="785" 
d="M225.5 32.5q-76.5 47.5 -121 128.5t-44.5 177q0 95 44.5 176t121 128.5t166.5 47.5q101 0 184.5 -60t120.5 -156l-54 -18q-32 77 -98.5 124.5t-148.5 47.5q-73 0 -135 -39t-98.5 -105.5t-36.5 -145.5t36.5 -146t98.5 -106t135 -39q70 0 130.5 37t97.5 100t40 138l61 16
q0 -96 -45 -177t-121 -128.5t-167 -47.5q-90 0 -166.5 47.5zM376 358h349v-20l-12 -34h-337v54zM271.5 797q-42.5 35 -43.5 92h48q1 -39 30 -62.5t73 -23.5t73 23.5t30 62.5h48q-1 -57 -43.5 -92t-107.5 -35t-107.5 35z" />
    <glyph glyph-name="gbreve" unicode="&#x11f;" horiz-adv-x="615" 
d="M144 -164h178q47 0 87 24t63.5 64.5t23.5 88.5v337l3 7v128h56v-471q0 -65 -32 -119.5t-86.5 -86.5t-118.5 -32h-174v60zM177 28.5q-57 33.5 -90.5 90.5t-33.5 124t33.5 123.5t90.5 90t125 33.5q66 0 118 -33t80.5 -89.5t28.5 -124.5t-28.5 -125t-80.5 -90t-118 -33
q-68 0 -125 33.5zM396.5 81q42.5 25 67.5 68t25 94t-25 93.5t-67.5 67.5t-92.5 25t-92.5 -25t-67.5 -67.5t-25 -93.5t25 -94t67.5 -68t92.5 -25t92.5 25zM189.5 626q-42.5 35 -43.5 92h48q1 -39 30 -62.5t73 -23.5t73 23.5t30 62.5h48q-1 -57 -43.5 -92t-107.5 -35
t-107.5 35z" />
    <glyph glyph-name="Gdotaccent" unicode="&#x120;" horiz-adv-x="785" 
d="M225.5 32.5q-76.5 47.5 -121 128.5t-44.5 177q0 95 44.5 176t121 128.5t166.5 47.5q101 0 184.5 -60t120.5 -156l-54 -18q-32 77 -98.5 124.5t-148.5 47.5q-73 0 -135 -39t-98.5 -105.5t-36.5 -145.5t36.5 -146t98.5 -106t135 -39q70 0 130.5 37t97.5 100t40 138l61 16
q0 -96 -45 -177t-121 -128.5t-167 -47.5q-90 0 -166.5 47.5zM376 358h349v-20l-12 -34h-337v54zM357.5 774.5q-13.5 13.5 -13.5 33.5q0 19 13.5 32t32.5 13t32.5 -13t13.5 -32t-13.5 -33t-32.5 -14t-32.5 13.5z" />
    <glyph glyph-name="gdotaccent" unicode="&#x121;" horiz-adv-x="615" 
d="M144 -164h178q47 0 87 24t63.5 64.5t23.5 88.5v337l3 7v128h56v-471q0 -65 -32 -119.5t-86.5 -86.5t-118.5 -32h-174v60zM177 28.5q-57 33.5 -90.5 90.5t-33.5 124t33.5 123.5t90.5 90t125 33.5q66 0 118 -33t80.5 -89.5t28.5 -124.5t-28.5 -125t-80.5 -90t-118 -33
q-68 0 -125 33.5zM396.5 81q42.5 25 67.5 68t25 94t-25 93.5t-67.5 67.5t-92.5 25t-92.5 -25t-67.5 -67.5t-25 -93.5t25 -94t67.5 -68t92.5 -25t92.5 25zM267.5 603.5q-13.5 13.5 -13.5 33.5q0 19 13.5 32t32.5 13t32.5 -13t13.5 -32t-13.5 -33t-32.5 -14t-32.5 13.5z" />
    <glyph glyph-name="uni0122" unicode="&#x122;" horiz-adv-x="785" 
d="M225.5 32.5q-76.5 47.5 -121 128.5t-44.5 177q0 95 44.5 176t121 128.5t166.5 47.5q101 0 184.5 -60t120.5 -156l-54 -18q-32 77 -98.5 124.5t-148.5 47.5q-73 0 -135 -39t-98.5 -105.5t-36.5 -145.5t36.5 -146t98.5 -106t135 -39q70 0 130.5 37t97.5 100t40 138l61 16
q0 -96 -45 -177t-121 -128.5t-167 -47.5q-90 0 -166.5 47.5zM376 358h349v-20l-12 -34h-337v54zM375.5 -225q14.5 37 15.5 39q-18 -3 -34 11.5t-16 35.5t15.5 36.5t37.5 15.5q23 0 37 -15.5t14 -40.5q0 -83 -90 -213l-39 26q45 68 59.5 105z" />
    <glyph glyph-name="uni0123" unicode="&#x123;" horiz-adv-x="615" 
d="M144 -164h178q47 0 87 24t63.5 64.5t23.5 88.5v337l3 7v128h56v-471q0 -65 -32 -119.5t-86.5 -86.5t-118.5 -32h-174v60zM177 28.5q-57 33.5 -90.5 90.5t-33.5 124t33.5 123.5t90.5 90t125 33.5q66 0 118 -33t80.5 -89.5t28.5 -124.5t-28.5 -125t-80.5 -90t-118 -33
q-68 0 -125 33.5zM396.5 81q42.5 25 67.5 68t25 94t-25 93.5t-67.5 67.5t-92.5 25t-92.5 -25t-67.5 -67.5t-25 -93.5t25 -94t67.5 -68t92.5 -25t92.5 25zM322.5 730q-15.5 -38 -17.5 -42q18 2 34 -12t16 -35q0 -22 -15 -37t-37 -15q-23 0 -37 15.5t-14 40.5q0 81 90 213
l39 -27q-43 -63 -58.5 -101z" />
    <glyph glyph-name="Hbar" unicode="&#x126;" horiz-adv-x="678" 
d="M85 675h66v-310h376v310h66v-675h-66v308h-376v-308h-66v675zM45 559h588v-56h-588v56z" />
    <glyph glyph-name="hbar" unicode="&#x127;" horiz-adv-x="611" 
d="M478.5 344.5q-21.5 37.5 -58 59t-80.5 21.5q-43 0 -80 -21.5t-58.5 -59t-21.5 -81.5h-40q0 60 26.5 112t74 83t107.5 31t110 -30t78.5 -81.5t28.5 -112.5v-265h-65v263q0 44 -21.5 81.5zM114 705h66v-705h-66v705zM40 628h235v-57h-235v57z" />
    <glyph glyph-name="Imacron" unicode="&#x12a;" horiz-adv-x="222" 
d="M80 0v675h66v-675h-66zM253 753h-280v45h280v-45z" />
    <glyph glyph-name="imacron" unicode="&#x12b;" horiz-adv-x="208" 
d="M71 485h66v-485h-66v485zM244 585h-280v45h280v-45z" />
    <glyph glyph-name="Iogonek" unicode="&#x12e;" horiz-adv-x="222" 
d="M80 0v675h66v-675h-66zM2 -195.5q-30 25.5 -30 68.5q0 93 146 152l28 -25q-65 -28 -94.5 -58t-29.5 -64q0 -26 17.5 -41.5t48.5 -15.5h61v-42h-68q-49 0 -79 25.5z" />
    <glyph glyph-name="iogonek" unicode="&#x12f;" horiz-adv-x="208" 
d="M71 485h66v-485h-66v485zM-6.5 -195.5q-29.5 25.5 -29.5 68.5q0 93 145 152l28 -25q-65 -28 -94.5 -58t-29.5 -64q0 -27 17.5 -42t49.5 -15h60v-42h-68q-49 0 -78.5 25.5z" />
    <glyph glyph-name="Idotaccent" unicode="&#x130;" horiz-adv-x="222" 
d="M80 0v675h66v-675h-66zM82.5 765.5q-13.5 13.5 -13.5 33.5q0 19 13.5 32t32.5 13t32.5 -13t13.5 -32t-13.5 -33t-32.5 -14t-32.5 13.5z" />
    <glyph glyph-name="dotlessi" unicode="&#x131;" horiz-adv-x="208" 
d="M71 485h66v-485h-66v485z" />
    <glyph glyph-name="uni0136" unicode="&#x136;" horiz-adv-x="602" 
d="M572 675l-429 -424l-2 93l345 331h86zM146 675v-675h-66v675h66zM264 391l318 -391h-79l-299 367zM277.5 -216q14.5 37 15.5 39q-18 -3 -34 11.5t-16 35.5t15.5 36.5t37.5 15.5q23 0 37 -15.5t14 -40.5q0 -83 -90 -213l-39 26q45 68 59.5 105z" />
    <glyph glyph-name="uni0137" unicode="&#x137;" horiz-adv-x="486" 
d="M202 254l39 56l220 -310h-77zM80 704h66v-704h-66v704zM146 285l214 200h83l-297 -289v89zM233.5 -238q14.5 37 15.5 39q-18 -3 -34 11.5t-16 35.5t15.5 36.5t37.5 15.5q23 0 37 -15.5t14 -40.5q0 -83 -90 -213l-39 26q45 68 59.5 105z" />
    <glyph glyph-name="Lacute" unicode="&#x139;" horiz-adv-x="478" 
d="M456 0h-376v675h66v-615h310v-60zM217 875h76l-149 -122h-65z" />
    <glyph glyph-name="lacute" unicode="&#x13a;" horiz-adv-x="243" 
d="M109.5 29.5q-29.5 29.5 -29.5 71.5v603h65v-607q0 -16 10.5 -26t25.5 -10h15v-61h-15q-42 0 -71.5 29.5zM225 925h76l-149 -122h-65z" />
    <glyph glyph-name="uni013B" unicode="&#x13b;" horiz-adv-x="478" 
d="M456 0h-376v675h66v-615h310v-60zM231.5 -216q14.5 37 15.5 39q-18 -3 -34 11.5t-16 35.5t15.5 36.5t37.5 15.5q23 0 37 -15.5t14 -40.5q0 -83 -90 -213l-39 26q45 68 59.5 105z" />
    <glyph glyph-name="uni013C" unicode="&#x13c;" horiz-adv-x="247" 
d="M109.5 29.5q-29.5 29.5 -29.5 71.5v603h65v-607q0 -16 10.5 -26t25.5 -10h15v-61h-15q-42 0 -71.5 29.5zM129.5 -238q14.5 37 15.5 39q-18 -3 -34 11.5t-16 35.5t15.5 36.5t37.5 15.5q23 0 37 -15.5t14 -40.5q0 -83 -90 -213l-39 26q45 68 59.5 105z" />
    <glyph glyph-name="Lcaron" unicode="&#x13d;" horiz-adv-x="478" 
d="M456 0h-376v675h66v-615h310v-60zM145 753h-72l-123 122h55l104 -89l105 89h55z" />
    <glyph glyph-name="lcaron" unicode="&#x13e;" horiz-adv-x="245" 
d="M109.5 29.5q-29.5 29.5 -29.5 71.5v603h65v-607q0 -16 10.5 -26t25.5 -10h15v-61h-15q-42 0 -71.5 29.5zM156 802h-72l-123 122h55l104 -89l105 89h55z" />
    <glyph glyph-name="Lslash" unicode="&#x141;" horiz-adv-x="512" 
d="M37 310l304 175l28 -50l-303 -175zM489 0h-376v674h66v-614h310v-60z" />
    <glyph glyph-name="lslash" unicode="&#x142;" horiz-adv-x="406" 
d="M37 310l304 175l28 -50l-303 -175zM191.5 29.5q-29.5 29.5 -29.5 71.5v603h65v-607q0 -16 10.5 -26t25.5 -10h15v-61h-15q-42 0 -71.5 29.5z" />
    <glyph glyph-name="Nacute" unicode="&#x143;" horiz-adv-x="701" 
d="M526 0l-383 579v-579h-63v675h80l398 -607v607h64v-675h-96zM451 875h76l-149 -122h-65z" />
    <glyph glyph-name="nacute" unicode="&#x144;" horiz-adv-x="567" 
d="M434.5 346.5q-21.5 37.5 -58 59t-80.5 21.5q-43 0 -80 -21.5t-58.5 -59t-21.5 -81.5h-40q0 60 26.5 111.5t74 82.5t107.5 31t110 -30t79 -81.5t29 -112.5v-266h-66v265q0 44 -21.5 81.5zM70 485h56v-140l10 -11v-334h-66v485zM399 712h76l-149 -122h-65z" />
    <glyph glyph-name="uni0145" unicode="&#x145;" horiz-adv-x="701" 
d="M526 0l-383 579v-579h-63v675h80l398 -607v607h64v-675h-96zM323.5 -216q14.5 37 15.5 39q-18 -3 -34 11.5t-16 35.5t15.5 36.5t37.5 15.5q23 0 37 -15.5t14 -40.5q0 -83 -90 -213l-39 26q45 68 59.5 105z" />
    <glyph glyph-name="uni0146" unicode="&#x146;" horiz-adv-x="567" 
d="M434.5 346.5q-21.5 37.5 -58 59t-80.5 21.5q-43 0 -80 -21.5t-58.5 -59t-21.5 -81.5h-40q0 60 26.5 111.5t74 82.5t107.5 31t110 -30t79 -81.5t29 -112.5v-266h-66v265q0 44 -21.5 81.5zM70 485h56v-140l10 -11v-334h-66v485zM277.5 -238q14.5 37 15.5 39
q-18 -3 -34 11.5t-16 35.5t15.5 36.5t37.5 15.5q23 0 37 -15.5t14 -40.5q0 -83 -90 -213l-39 26q45 68 59.5 105z" />
    <glyph glyph-name="Ncaron" unicode="&#x147;" horiz-adv-x="701" 
d="M526 0l-383 579v-579h-63v675h80l398 -607v607h64v-675h-96zM382 753h-72l-123 122h55l104 -89l105 89h55z" />
    <glyph glyph-name="ncaron" unicode="&#x148;" horiz-adv-x="567" 
d="M434.5 346.5q-21.5 37.5 -58 59t-80.5 21.5q-43 0 -80 -21.5t-58.5 -59t-21.5 -81.5h-40q0 60 26.5 111.5t74 82.5t107.5 31t110 -30t79 -81.5t29 -112.5v-266h-66v265q0 44 -21.5 81.5zM70 485h56v-140l10 -11v-334h-66v485zM339 588h-72l-123 122h55l104 -89l105 89h55
z" />
    <glyph glyph-name="Eng" unicode="&#x14a;" horiz-adv-x="701" 
d="M526 0l-383 578v-578h-63v674h80l398 -606v606h64v-674h-96zM412 -130h51q39 0 67 28.5t28 68.5v518h63v-518q0 -43 -21.5 -79.5t-58 -58t-79.5 -21.5h-50v62z" />
    <glyph glyph-name="eng" unicode="&#x14b;" horiz-adv-x="586" 
d="M434.5 346.5q-21.5 37.5 -58 59t-80.5 21.5q-43 0 -80 -21.5t-58.5 -59t-21.5 -81.5h-40q0 60 26.5 111.5t74 82.5t107.5 31t110 -30t79 -81.5t29 -112.5v-266h-66v265q0 44 -21.5 81.5zM70 485h56v-140l10 -11v-334h-66v485zM312 -130h48q40 0 68 28.5t28 68.5v232h66
v-232q0 -43 -21.5 -79.5t-58.5 -58t-80 -21.5h-50v62z" />
    <glyph glyph-name="Omacron" unicode="&#x14c;" horiz-adv-x="802" 
d="M232.5 32.5q-77.5 47.5 -123.5 128.5t-46 177q0 95 46 176t123.5 128.5t168.5 47.5t169 -47.5t123.5 -128.5t45.5 -176q0 -96 -45.5 -177t-123 -128.5t-169.5 -47.5q-91 0 -168.5 47.5zM537.5 86q62.5 39 99 106t36.5 146t-36.5 145.5t-99 105.5t-136.5 39t-136.5 -39
t-99 -105.5t-36.5 -145.5t36.5 -146t99 -106t136.5 -39t136.5 39zM541 764h-280v45h280v-45z" />
    <glyph glyph-name="omacron" unicode="&#x14d;" horiz-adv-x="607" 
d="M177.5 28q-57.5 33 -91 90t-33.5 125q0 67 33.5 124t91 90t126.5 33q68 0 125.5 -33t91 -90t33.5 -124q0 -68 -33.5 -125t-91 -90t-125.5 -33q-69 0 -126.5 33zM396.5 82q42.5 25 67 67.5t24.5 93.5t-24.5 93.5t-67 67.5t-93.5 25q-50 0 -92.5 -25t-67 -67.5t-24.5 -93.5
t24.5 -93.5t67 -67.5t92.5 -25q51 0 93.5 25zM444 588h-280v45h280v-45z" />
    <glyph glyph-name="Ohungarumlaut" unicode="&#x150;" horiz-adv-x="802" 
d="M232.5 32.5q-77.5 47.5 -123.5 128.5t-46 177q0 95 46 176t123.5 128.5t168.5 47.5t169 -47.5t123.5 -128.5t45.5 -176q0 -96 -45.5 -177t-123 -128.5t-169.5 -47.5q-91 0 -168.5 47.5zM537.5 86q62.5 39 99 106t36.5 146t-36.5 145.5t-99 105.5t-136.5 39t-136.5 -39
t-99 -105.5t-36.5 -145.5t36.5 -146t99 -106t136.5 -39t136.5 39zM545 882h72l-125 -122h-63zM385 882h72l-125 -122h-63z" />
    <glyph glyph-name="ohungarumlaut" unicode="&#x151;" horiz-adv-x="607" 
d="M177.5 28q-57.5 33 -91 90t-33.5 125q0 67 33.5 124t91 90t126.5 33q68 0 125.5 -33t91 -90t33.5 -124q0 -68 -33.5 -125t-91 -90t-125.5 -33q-69 0 -126.5 33zM396.5 82q42.5 25 67 67.5t24.5 93.5t-24.5 93.5t-67 67.5t-93.5 25q-50 0 -92.5 -25t-67 -67.5t-24.5 -93.5
t24.5 -93.5t67 -67.5t92.5 -25q51 0 93.5 25zM447 709h72l-125 -122h-63zM287 709h72l-125 -122h-63z" />
    <glyph glyph-name="OE" unicode="&#x152;" horiz-adv-x="1150" 
d="M232.5 32.5q-77.5 47.5 -123.5 128.5t-46 177q0 95 46 176t123.5 128.5t168.5 47.5t169 -47.5t123.5 -128.5t45.5 -176q0 -96 -45.5 -177t-123 -128.5t-169.5 -47.5q-91 0 -168.5 47.5zM537.5 86q62.5 39 99 106t36.5 146t-36.5 145.5t-99 105.5t-136.5 39t-136.5 -39
t-99 -105.5t-36.5 -145.5t36.5 -146t99 -106t136.5 -39t136.5 39zM674 675h424v-62l-359 1v-249h326v-57h-326v-248h359v-60h-424v675z" />
    <glyph glyph-name="oe" unicode="&#x153;" horiz-adv-x="1022" 
d="M177.5 28q-57.5 33 -91 90t-33.5 125q0 67 33.5 124t91 90t126.5 33q68 0 125.5 -33t91 -90t33.5 -124q0 -68 -33.5 -125t-91 -90t-125.5 -33q-69 0 -126.5 33zM396.5 82q42.5 25 67 67.5t24.5 93.5t-24.5 93.5t-67 67.5t-93.5 25q-50 0 -92.5 -25t-67 -67.5t-24.5 -93.5
t24.5 -93.5t67 -67.5t92.5 -25q51 0 93.5 25zM613 28.5q-57 33.5 -90.5 90.5t-33.5 124t33 124t90 90.5t125 33.5t122.5 -33t86 -90t31.5 -124q0 -10 -2 -26l-49 26q0 51 -25.5 95t-69 69.5t-94.5 25.5q-52 0 -95 -25.5t-68.5 -69.5t-25.5 -95q0 -53 25 -97.5t68.5 -70.5
t95.5 -26q54 0 98.5 28t68.5 74l50 -24q-30 -61 -88 -97t-129 -36q-67 0 -124 33.5zM540 268h425l10 -50h-435v50z" />
    <glyph glyph-name="Racute" unicode="&#x154;" horiz-adv-x="610" 
d="M80 675h252q56 0 103 -27.5t74.5 -75t27.5 -103.5t-27.5 -101t-74.5 -71t-103 -26h-186v-271h-66v675zM308 270h-186v37h184q75 0 120.5 -23t71.5 -83l84 -201h-65l-78 182q-36 88 -131 88zM399 343.5q33 19.5 52.5 53t19.5 72.5t-19.5 72.5t-52.5 53t-72 19.5h-181v-290
h181q39 0 72 19.5zM366 875h76l-149 -122h-65z" />
    <glyph glyph-name="racute" unicode="&#x155;" horiz-adv-x="380" 
d="M70 485h56v-143l10 -7v-335h-66v485zM125.5 360q29.5 57 82 91.5t118.5 34.5h20v-60h-34q-48 0 -88.5 -24t-64 -65t-23.5 -89l-40 -11q0 66 29.5 123zM297 707h76l-149 -122h-65z" />
    <glyph glyph-name="uni0156" unicode="&#x156;" horiz-adv-x="610" 
d="M80 675h252q56 0 103 -27.5t74.5 -75t27.5 -103.5t-27.5 -101t-74.5 -71t-103 -26h-186v-271h-66v675zM308 270h-186v37h184q75 0 120.5 -23t71.5 -83l84 -201h-65l-78 182q-36 88 -131 88zM399 343.5q33 19.5 52.5 53t19.5 72.5t-19.5 72.5t-52.5 53t-72 19.5h-181v-290
h181q39 0 72 19.5zM295.5 -216q14.5 37 15.5 39q-18 -3 -34 11.5t-16 35.5t15.5 36.5t37.5 15.5q23 0 37 -15.5t14 -40.5q0 -83 -90 -213l-39 26q45 68 59.5 105z" />
    <glyph glyph-name="uni0157" unicode="&#x157;" horiz-adv-x="380" 
d="M70 485h56v-143l10 -7v-335h-66v485zM125.5 360q29.5 57 82 91.5t118.5 34.5h20v-60h-34q-48 0 -88.5 -24t-64 -65t-23.5 -89l-40 -11q0 66 29.5 123zM101.5 -238q14.5 37 15.5 39q-18 -3 -34 11.5t-16 35.5t15.5 36.5t37.5 15.5q23 0 37 -15.5t14 -40.5q0 -83 -90 -213
l-39 26q45 68 59.5 105z" />
    <glyph glyph-name="Rcaron" unicode="&#x158;" horiz-adv-x="610" 
d="M80 675h252q56 0 103 -27.5t74.5 -75t27.5 -103.5t-27.5 -101t-74.5 -71t-103 -26h-186v-271h-66v675zM308 270h-186v37h184q75 0 120.5 -23t71.5 -83l84 -201h-65l-78 182q-36 88 -131 88zM399 343.5q33 19.5 52.5 53t19.5 72.5t-19.5 72.5t-52.5 53t-72 19.5h-181v-290
h181q39 0 72 19.5zM318 753h-72l-123 122h55l104 -89l105 89h55z" />
    <glyph glyph-name="rcaron" unicode="&#x159;" horiz-adv-x="380" 
d="M70 485h56v-143l10 -7v-335h-66v485zM125.5 360q29.5 57 82 91.5t118.5 34.5h20v-60h-34q-48 0 -88.5 -24t-64 -65t-23.5 -89l-40 -11q0 66 29.5 123zM251 585h-72l-123 122h55l104 -89l105 89h55z" />
    <glyph glyph-name="Sacute" unicode="&#x15a;" horiz-adv-x="625" 
d="M177 6.5q-71 21.5 -122 55.5l24 53q44 -29 110 -49t128 -20q87 0 137 32.5t50 90.5q0 41 -23 66.5t-61.5 39.5t-104.5 30q-85 23 -134 46.5t-74 60t-25 92.5q0 88 70 137.5t179 49.5q97 0 216 -44l-21 -57q-107 39 -195 39q-85 0 -134 -34t-49 -92q0 -42 22.5 -67
t60.5 -39.5t107 -31.5q78 -20 127.5 -42.5t77 -58.5t27.5 -90q0 -90 -70 -139.5t-180 -49.5q-72 0 -143 21.5zM418 886h76l-149 -122h-65z" />
    <glyph glyph-name="sacute" unicode="&#x15b;" horiz-adv-x="499" 
d="M146 10.5q-53 17.5 -93 48.5l29 43q80 -54 178 -54q64 0 96 20.5t32 59.5q0 35 -31.5 52.5t-96.5 31.5q-60 13 -98 28t-61.5 42.5t-23.5 72.5q0 61 48.5 98.5t135.5 37.5q46 0 92 -13t82 -34l-25 -46q-76 37 -149 37q-56 0 -87.5 -21.5t-31.5 -59.5q0 -41 31 -58t99 -29
q85 -15 133 -46.5t48 -91.5q0 -65 -50.5 -100.5t-142.5 -35.5q-61 0 -114 17.5zM358 714h76l-149 -122h-65z" />
    <glyph glyph-name="Scedilla" unicode="&#x15e;" horiz-adv-x="625" 
d="M177 6.5q-71 21.5 -122 55.5l24 53q44 -29 110 -49t128 -20q87 0 137 32.5t50 90.5q0 41 -23 66.5t-61.5 39.5t-104.5 30q-85 23 -134 46.5t-74 60t-25 92.5q0 88 70 137.5t179 49.5q97 0 216 -44l-21 -57q-107 39 -195 39q-85 0 -134 -34t-49 -92q0 -42 22.5 -67
t60.5 -39.5t107 -31.5q78 -20 127.5 -42.5t77 -58.5t27.5 -90q0 -90 -70 -139.5t-180 -49.5q-72 0 -143 21.5zM223 -239l12 39h62q29 0 45 13.5t16 36.5q0 22 -15.5 35.5t-42.5 13.5h-30l24 90h46l-17 -61q40 -4 62 -25t22 -55q0 -40 -31 -63.5t-81 -23.5h-72z" />
    <glyph glyph-name="scedilla" unicode="&#x15f;" horiz-adv-x="499" 
d="M146 10.5q-53 17.5 -93 48.5l29 43q80 -54 178 -54q64 0 96 20.5t32 59.5q0 35 -31.5 52.5t-96.5 31.5q-60 13 -98 28t-61.5 42.5t-23.5 72.5q0 61 48.5 98.5t135.5 37.5q46 0 92 -13t82 -34l-25 -46q-76 37 -149 37q-56 0 -87.5 -21.5t-31.5 -59.5q0 -41 31 -58t99 -29
q85 -15 133 -46.5t48 -91.5q0 -65 -50.5 -100.5t-142.5 -35.5q-61 0 -114 17.5zM172 -228l11 40l63 -1q28 0 44 13.5t16 36.5q0 22 -15.5 36t-42.5 14h-30l24 89h46l-16 -61q39 -4 61 -25t22 -55q0 -39 -31 -63t-81 -24h-71z" />
    <glyph glyph-name="Scaron" unicode="&#x160;" horiz-adv-x="625" 
d="M177 6.5q-71 21.5 -122 55.5l24 53q44 -29 110 -49t128 -20q87 0 137 32.5t50 90.5q0 41 -23 66.5t-61.5 39.5t-104.5 30q-85 23 -134 46.5t-74 60t-25 92.5q0 88 70 137.5t179 49.5q97 0 216 -44l-21 -57q-107 39 -195 39q-85 0 -134 -34t-49 -92q0 -42 22.5 -67
t60.5 -39.5t107 -31.5q78 -20 127.5 -42.5t77 -58.5t27.5 -90q0 -90 -70 -139.5t-180 -49.5q-72 0 -143 21.5zM359 764h-72l-123 122h55l104 -89l105 89h55z" />
    <glyph glyph-name="scaron" unicode="&#x161;" horiz-adv-x="499" 
d="M146 10.5q-53 17.5 -93 48.5l29 43q80 -54 178 -54q64 0 96 20.5t32 59.5q0 35 -31.5 52.5t-96.5 31.5q-60 13 -98 28t-61.5 42.5t-23.5 72.5q0 61 48.5 98.5t135.5 37.5q46 0 92 -13t82 -34l-25 -46q-76 37 -149 37q-56 0 -87.5 -21.5t-31.5 -59.5q0 -41 31 -58t99 -29
q85 -15 133 -46.5t48 -91.5q0 -65 -50.5 -100.5t-142.5 -35.5q-61 0 -114 17.5zM294 591h-72l-123 122h55l104 -89l105 89h55z" />
    <glyph glyph-name="uni0162" unicode="&#x162;" horiz-adv-x="492" 
d="M214 614h-198l-3 61h466v-61h-200v-614h-65v614zM164 -228l11 40l62 -1q29 0 45 13.5t16 36.5q0 22 -15.5 36t-42.5 14h-30l24 89h46l-16 -61q39 -4 61 -25t22 -55q0 -39 -31 -63t-81 -24h-71z" />
    <glyph glyph-name="uni0163" unicode="&#x163;" horiz-adv-x="426" 
d="M147 424h-121v61h349v-61h-162v-266q0 -41 28 -69t68 -28h76v-61h-78q-44 0 -80.5 21t-58 57t-21.5 80v266zM147 485v142h66v-142h-66zM177 -214l12 39h62q29 0 45 13.5t16 36.5q0 22 -15.5 35.5t-42.5 13.5h-30l24 90h46l-17 -61q39 -4 61.5 -25.5t22.5 -54.5
q0 -40 -31 -63.5t-81 -23.5h-72z" />
    <glyph glyph-name="Tcaron" unicode="&#x164;" horiz-adv-x="492" 
d="M214 614h-198l-3 61h466v-61h-200v-614h-65v614zM284 753h-72l-123 122h55l104 -89l105 89h55z" />
    <glyph glyph-name="tcaron" unicode="&#x165;" horiz-adv-x="426" 
d="M147 424h-121v61h349v-61h-162v-266q0 -41 28 -69t68 -28h76v-61h-78q-44 0 -80.5 21t-58 57t-21.5 80v266zM147 485v142h66v-142h-66zM217 726h-72l-123 122h55l104 -89l105 89h55z" />
    <glyph glyph-name="Tbar" unicode="&#x166;" horiz-adv-x="492" 
d="M84 365h325v-57h-325v57zM214 614h-198l-3 61h466v-61h-200v-614h-65v614z" />
    <glyph glyph-name="tbar" unicode="&#x167;" horiz-adv-x="571" 
d="M72 314h235v-46h-235v46zM147 424h-121v61h349v-61h-162v-266q0 -41 28 -69t68 -28h76v-61h-78q-44 0 -80.5 21t-58 57t-21.5 80v266zM147 485v142h66v-142h-66z" />
    <glyph glyph-name="Umacron" unicode="&#x16a;" horiz-adv-x="620" 
d="M190.5 27q-54.5 32 -86.5 87t-32 120v441h66v-445q0 -47 23 -86.5t62.5 -62.5t86.5 -23t86.5 23t62.5 62.5t23 86.5v445h66v-441q0 -65 -32 -120t-86.5 -87t-119.5 -32t-119.5 32zM451 753h-280v45h280v-45z" />
    <glyph glyph-name="umacron" unicode="&#x16b;" horiz-adv-x="576" 
d="M153 25q-50 30 -79 81.5t-29 112.5v266h66v-265q0 -44 21.5 -81t58.5 -58.5t81 -21.5q43 0 80 21.5t58.5 58.5t21.5 81h39q0 -60 -26.5 -111.5t-74 -82.5t-107.5 -31t-110 30zM442 141l-10 9v335h66v-485h-56v141zM417 584h-280v45h280v-45z" />
    <glyph glyph-name="Uring" unicode="&#x16e;" horiz-adv-x="620" 
d="M190.5 27q-54.5 32 -86.5 87t-32 120v441h66v-445q0 -47 23 -86.5t62.5 -62.5t86.5 -23t86.5 23t62.5 62.5t23 86.5v445h66v-441q0 -65 -32 -120t-86.5 -87t-119.5 -32t-119.5 32zM237.5 782.5q-29.5 29.5 -29.5 71.5q0 43 30 73t74 30t74.5 -30t30.5 -73
q0 -42 -30.5 -71.5t-74.5 -29.5q-45 0 -74.5 29.5zM361 806q19 19 19 48t-20 49t-48 20q-29 0 -48.5 -20t-19.5 -49t19 -48t49 -19t49 19z" />
    <glyph glyph-name="uring" unicode="&#x16f;" horiz-adv-x="576" 
d="M153 25q-50 30 -79 81.5t-29 112.5v266h66v-265q0 -44 21.5 -81t58.5 -58.5t81 -21.5q43 0 80 21.5t58.5 58.5t21.5 81h39q0 -60 -26.5 -111.5t-74 -82.5t-107.5 -31t-110 30zM442 141l-10 9v335h66v-485h-56v141zM195.5 614.5q-29.5 29.5 -29.5 71.5q0 43 30 73t74 30
t74.5 -30t30.5 -73q0 -42 -30.5 -71.5t-74.5 -29.5q-45 0 -74.5 29.5zM319 638q19 19 19 48t-20 49t-48 20q-29 0 -48.5 -20t-19.5 -49t19 -48t49 -19t49 19z" />
    <glyph glyph-name="Uhungarumlaut" unicode="&#x170;" horiz-adv-x="620" 
d="M190.5 27q-54.5 32 -86.5 87t-32 120v441h66v-445q0 -47 23 -86.5t62.5 -62.5t86.5 -23t86.5 23t62.5 62.5t23 86.5v445h66v-441q0 -65 -32 -120t-86.5 -87t-119.5 -32t-119.5 32zM461 875h72l-125 -122h-63zM301 875h72l-125 -122h-63z" />
    <glyph glyph-name="uhungarumlaut" unicode="&#x171;" horiz-adv-x="576" 
d="M153 25q-50 30 -79 81.5t-29 112.5v266h66v-265q0 -44 21.5 -81t58.5 -58.5t81 -21.5q43 0 80 21.5t58.5 58.5t21.5 81h39q0 -60 -26.5 -111.5t-74 -82.5t-107.5 -31t-110 30zM442 141l-10 9v335h66v-485h-56v141zM421 706h72l-125 -122h-63zM261 706h72l-125 -122h-63z
" />
    <glyph glyph-name="Uogonek" unicode="&#x172;" horiz-adv-x="620" 
d="M190.5 27q-54.5 32 -86.5 87t-32 120v441h66v-445q0 -47 23 -86.5t62.5 -62.5t86.5 -23t86.5 23t62.5 62.5t23 86.5v445h66v-441q0 -65 -32 -120t-86.5 -87t-119.5 -32t-119.5 32zM204.5 -193.5q-29.5 25.5 -29.5 68.5q0 92 145 151l28 -25q-66 -28 -95 -58t-29 -63
q0 -27 17.5 -42.5t49.5 -15.5h60v-41h-68q-49 0 -78.5 25.5z" />
    <glyph glyph-name="uogonek" unicode="&#x173;" horiz-adv-x="576" 
d="M153 25q-50 30 -79 81.5t-29 112.5v266h66v-265q0 -44 21.5 -81t58.5 -58.5t81 -21.5q43 0 80 21.5t58.5 58.5t21.5 81h39q0 -60 -26.5 -111.5t-74 -82.5t-107.5 -31t-110 30zM442 141l-10 9v335h66v-485h-56v141zM354 -195.5q-30 25.5 -30 68.5q0 93 146 152l28 -25
q-65 -28 -94.5 -58t-29.5 -64q0 -27 17.5 -42t49.5 -15h60v-42h-68q-49 0 -79 25.5z" />
    <glyph glyph-name="Wcircumflex" unicode="&#x174;" horiz-adv-x="833" 
d="M12 675h65l133 -604l168 558h79l168 -558l133 604h65l-154 -675h-87l-164 564l-165 -564h-87zM408 825l-104 -89h-55l123 122h72l124 -122h-55z" />
    <glyph glyph-name="wcircumflex" unicode="&#x175;" horiz-adv-x="688" 
d="M11 485h64l87 -386l155 352h58l155 -352l84 386h64l-102 -485h-65l-165 368l-165 -368h-65zM343 640l-104 -89h-55l123 122h72l124 -122h-55z" />
    <glyph glyph-name="Ycircumflex" unicode="&#x176;" horiz-adv-x="565" 
d="M250 201l-238 474h74l196 -396l199 396h74l-239 -474v-201h-66v201zM296 841l-104 -89h-55l123 122h72l124 -122h-55z" />
    <glyph glyph-name="ycircumflex" unicode="&#x177;" horiz-adv-x="523" 
d="M34 -165h63q72 0 100 67l230 583h66l-233 -596q-19 -54 -59.5 -85t-101.5 -31h-65v62zM17 485h67l185 -485h-67zM263 674l-104 -89h-55l123 122h72l124 -122h-55z" />
    <glyph glyph-name="Ydieresis" unicode="&#x178;" horiz-adv-x="565" 
d="M250 201l-238 474h74l196 -396l199 396h74l-239 -474v-201h-66v201zM199.5 765.5q-13.5 13.5 -13.5 33.5q0 19 13.5 32t32.5 13t32.5 -13t13.5 -32t-13.5 -33t-32.5 -14t-32.5 13.5zM319 766q-14 14 -14 33t13.5 32t33.5 13q19 0 32 -13t13 -32q0 -20 -13 -33.5
t-32 -13.5t-33 14z" />
    <glyph glyph-name="Zacute" unicode="&#x179;" horiz-adv-x="549" 
d="M521 0h-493v67l407 547h-381v61h459v-68l-407 -547h415v-60zM371 875h76l-149 -122h-65z" />
    <glyph glyph-name="zacute" unicode="&#x17a;" horiz-adv-x="477" 
d="M439 0h-401v66l306 358h-298v61h381v-67l-305 -358h317v-60zM323 707h76l-149 -122h-65z" />
    <glyph glyph-name="Zdotaccent" unicode="&#x17b;" horiz-adv-x="549" 
d="M521 0h-493v67l407 547h-381v61h459v-68l-407 -547h415v-60zM261.5 765.5q-13.5 13.5 -13.5 33.5q0 19 13.5 32t32.5 13t32.5 -13t13.5 -32t-13.5 -33t-32.5 -14t-32.5 13.5z" />
    <glyph glyph-name="zdotaccent" unicode="&#x17c;" horiz-adv-x="477" 
d="M439 0h-401v66l306 358h-298v61h381v-67l-305 -358h317v-60zM206.5 598.5q-13.5 13.5 -13.5 33.5q0 19 13.5 32t32.5 13t32.5 -13t13.5 -32t-13.5 -33t-32.5 -14t-32.5 13.5z" />
    <glyph glyph-name="Zcaron" unicode="&#x17d;" horiz-adv-x="549" 
d="M521 0h-493v67l407 547h-381v61h459v-68l-407 -547h415v-60zM332 753h-72l-123 122h55l104 -89l105 89h55z" />
    <glyph glyph-name="zcaron" unicode="&#x17e;" horiz-adv-x="477" 
d="M439 0h-401v66l306 358h-298v61h381v-67l-305 -358h317v-60zM277 585h-72l-123 122h55l104 -89l105 89h55z" />
    <glyph glyph-name="uni0218" unicode="&#x218;" horiz-adv-x="625" 
d="M177 6.5q-71 21.5 -122 55.5l24 53q44 -29 110 -49t128 -20q87 0 137 32.5t50 90.5q0 41 -23 66.5t-61.5 39.5t-104.5 30q-85 23 -134 46.5t-74 60t-25 92.5q0 88 70 137.5t179 49.5q97 0 216 -44l-21 -57q-107 39 -195 39q-85 0 -134 -34t-49 -92q0 -42 22.5 -67
t60.5 -39.5t107 -31.5q78 -20 127.5 -42.5t77 -58.5t27.5 -90q0 -90 -70 -139.5t-180 -49.5q-72 0 -143 21.5zM292.5 -228q14.5 37 15.5 39q-18 -3 -34 11.5t-16 35.5t15.5 36.5t37.5 15.5q23 0 37 -15.5t14 -40.5q0 -83 -90 -213l-39 26q45 68 59.5 105z" />
    <glyph glyph-name="uni0219" unicode="&#x219;" horiz-adv-x="499" 
d="M146 10.5q-53 17.5 -93 48.5l29 43q80 -54 178 -54q64 0 96 20.5t32 59.5q0 35 -31.5 52.5t-96.5 31.5q-60 13 -98 28t-61.5 42.5t-23.5 72.5q0 61 48.5 98.5t135.5 37.5q46 0 92 -13t82 -34l-25 -46q-76 37 -149 37q-56 0 -87.5 -21.5t-31.5 -59.5q0 -41 31 -58t99 -29
q85 -15 133 -46.5t48 -91.5q0 -65 -50.5 -100.5t-142.5 -35.5q-61 0 -114 17.5zM242.5 -240q14.5 37 15.5 39q-18 -3 -34 11.5t-16 35.5t15.5 36.5t37.5 15.5q23 0 37 -15.5t14 -40.5q0 -83 -90 -213l-39 26q45 68 59.5 105z" />
    <glyph glyph-name="uni021A" unicode="&#x21a;" horiz-adv-x="492" 
d="M214 614h-198l-3 61h466v-61h-200v-614h-65v614zM230.5 -216q14.5 37 15.5 39q-18 -3 -34 11.5t-16 35.5t15.5 36.5t37.5 15.5q23 0 37 -15.5t14 -40.5q0 -83 -90 -213l-39 26q45 68 59.5 105z" />
    <glyph glyph-name="uni021B" unicode="&#x21b;" horiz-adv-x="426" 
d="M147 424h-121v61h349v-61h-162v-266q0 -41 28 -69t68 -28h76v-61h-78q-44 0 -80.5 21t-58 57t-21.5 80v266zM147 485v142h66v-142h-66zM240.5 -238q14.5 37 15.5 39q-18 -3 -34 11.5t-16 35.5t15.5 36.5t37.5 15.5q23 0 37 -15.5t14 -40.5q0 -83 -90 -213l-39 26
q45 68 59.5 105z" />
    <glyph glyph-name="tilde" unicode="&#x2dc;" horiz-adv-x="469" 
d="M263.5 621.5q-16.5 8.5 -39.5 28.5q-18 16 -29.5 22.5t-23.5 6.5q-22 0 -36 -16t-15 -46h-43q2 50 26.5 79.5t64.5 29.5q21 0 37.5 -8.5t39.5 -29.5q18 -15 29.5 -21.5t23.5 -6.5q21 0 35 15.5t16 44.5h42q-2 -49 -26 -78t-64 -29q-21 0 -37.5 8.5z" />
    <glyph glyph-name="gravecomb" unicode="&#x300;" 
d="M79 797h76l138 -122h-65z" />
    <glyph glyph-name="acutecomb" unicode="&#x301;" 
d="M217 797h76l-149 -122h-65z" />
    <glyph glyph-name="uni0302" unicode="&#x302;" 
d="M238 763l-104 -89h-55l123 122h72l124 -122h-55z" />
    <glyph glyph-name="tildecomb" unicode="&#x303;" 
d="M265 683.5q-17 8.5 -40 28.5q-18 16 -29.5 22.5t-23.5 6.5q-23 0 -36.5 -16.5t-15.5 -45.5h-41q2 49 26 78t63 29q21 0 38 -8.5t40 -28.5q18 -16 29.5 -22.5t24.5 -6.5q22 0 35.5 16t15.5 44h41q-2 -48 -26 -76.5t-63 -28.5q-21 0 -38 8.5z" />
    <glyph glyph-name="uni0304" unicode="&#x304;" 
d="M359 675h-280v45h280v-45z" />
    <glyph glyph-name="uni0306" unicode="&#x306;" 
d="M122.5 710q-42.5 35 -43.5 92h48q1 -39 30 -62.5t73 -23.5t73 23.5t30 62.5h48q-1 -57 -43.5 -92t-107.5 -35t-107.5 35z" />
    <glyph glyph-name="uni0307" unicode="&#x307;" 
d="M92.5 687.5q-13.5 13.5 -13.5 33.5q0 19 13.5 32t32.5 13t32.5 -13t13.5 -32t-13.5 -33t-32.5 -14t-32.5 13.5z" />
    <glyph glyph-name="uni0308" unicode="&#x308;" 
d="M92.5 687.5q-13.5 13.5 -13.5 33.5q0 19 13.5 32t32.5 13t32.5 -13t13.5 -32t-13.5 -33t-32.5 -14t-32.5 13.5zM212 688q-14 14 -14 33t13.5 32t33.5 13q19 0 32 -13t13 -32q0 -20 -13 -33.5t-32 -13.5t-33 14z" />
    <glyph glyph-name="uni030A" unicode="&#x30a;" 
d="M108.5 704.5q-29.5 29.5 -29.5 71.5q0 43 30 73t74 30t74.5 -30t30.5 -73q0 -42 -30.5 -71.5t-74.5 -29.5q-45 0 -74.5 29.5zM232 728q19 19 19 48t-20 49t-48 20q-29 0 -48.5 -20t-19.5 -49t19 -48t49 -19t49 19z" />
    <glyph glyph-name="uni030B" unicode="&#x30b;" 
d="M355 797h72l-125 -122h-63zM195 797h72l-125 -122h-63z" />
    <glyph glyph-name="uni030C" unicode="&#x30c;" 
d="M274 675h-72l-123 122h55l104 -89l105 89h55z" />
    <glyph glyph-name="uni0312" unicode="&#x312;" 
d="M149.5 816q-15.5 -38 -17.5 -42q18 2 34 -12t16 -35q0 -22 -15 -37t-37 -15q-23 0 -37 15.5t-14 40.5q0 81 90 213l39 -27q-43 -63 -58.5 -101z" />
    <glyph glyph-name="uni0326" unicode="&#x326;" 
d="M114.5 -138q14.5 37 15.5 39q-18 -3 -34 11.5t-16 35.5t15.5 36.5t37.5 15.5q23 0 37 -15.5t14 -40.5q0 -83 -90 -213l-39 26q45 68 59.5 105z" />
    <glyph glyph-name="uni0327" unicode="&#x327;" 
d="M79 -228l11 40l62 -1q29 0 45 13.5t16 36.5q0 22 -15.5 36t-42.5 14h-30l24 89h46l-16 -61q39 -4 61 -25t22 -55q0 -39 -31 -63t-81 -24h-71z" />
    <glyph glyph-name="uni0328" unicode="&#x328;" 
d="M108.5 -195.5q-29.5 25.5 -29.5 68.5q0 93 145 152l28 -25q-65 -28 -94.5 -58t-29.5 -64q0 -27 17.5 -42t49.5 -15h61v-42h-69q-49 0 -78.5 25.5z" />
    <glyph glyph-name="uni060C" unicode="&#x60c;" horiz-adv-x="263" 
d="M94 15.5q-14 15.5 -14 40.5q0 83 90 213l39 -26q-46 -68 -60 -105t-15 -39q18 3 34 -11.5t16 -35.5t-15.5 -36.5t-37.5 -15.5q-23 0 -37 15.5z" />
    <glyph glyph-name="uni0615" unicode="&#x615;" 
d="M-107 746h139q17 0 30.5 13t13.5 31q0 22 -12 35t-34 13q-8 0 -17 -4t-24 -13l-94 -57l-15 42l97 59q15 9 26.5 13t28.5 4q37 0 63 -26.5t26 -63.5q0 -38 -26 -65t-63 -27h-139v46zM-72.5 854q5.5 20 5.5 49v57h47v-61v34q0 -30 -8 -53.5t-17 -29.5l-47 -26
q14 10 19.5 30z" />
    <glyph glyph-name="uni061B" unicode="&#x61b;" horiz-adv-x="263" 
d="M92 349.5q-14 15.5 -14 40.5q0 81 90 213l39 -26q-45 -68 -59.5 -105t-15.5 -39q18 3 34 -11.5t16 -35.5q0 -22 -15.5 -37t-37.5 -15q-23 0 -37 15.5zM92.5 14q-14.5 15 -14.5 36q0 22 15.5 37t36.5 15t36 -15.5t15 -36.5t-14.5 -36t-36.5 -15q-23 0 -37.5 15z" />
    <glyph glyph-name="uni061F" unicode="&#x61f;" horiz-adv-x="394" 
d="M169.5 240.5q-8.5 26.5 -20 46.5t-35.5 54q-29 40 -43 60.5t-22.5 48t-8.5 62.5q0 46 22.5 84t60.5 60.5t84 22.5q61 0 107.5 -38t58.5 -96l-43 -16q-3 6 -7 18q-13 34 -43 55t-67 21q-48 0 -82.5 -34.5t-34.5 -82.5q0 -38 11 -62.5t39 -64.5l15 -21q33 -49 47.5 -85.5
t13.5 -92.5h-44q0 34 -8.5 60.5zM168 8q-14 14 -14 35q0 19 13.5 33t34.5 14q20 0 33.5 -13.5t13.5 -33.5t-14 -34.5t-33 -14.5q-20 0 -34 14z" />
    <glyph glyph-name="uni0640" unicode="&#x640;" horiz-adv-x="188" 
d="M-10 10v46q0 10 10 10h188q10 0 10 -10v-46q0 -10 -10 -10h-188q-10 0 -10 10z" />
    <glyph glyph-name="uni064B" unicode="&#x64b;" 
d="M-135 856l254 92l17 -47l-254 -92zM-135 747l254 92l17 -47l-254 -92z" />
    <glyph glyph-name="uni064C" unicode="&#x64c;" 
d="M-112 794q0 23 -15 38q-7 8 -17.5 18t-19.5 19l35 41q5 -5 21.5 -19.5t23.5 -25.5q16 -20 16 -48t-17 -51l91 33q-24 9 -38.5 30t-14.5 48q0 44 31 74.5t74 30.5q44 0 75 -31t31 -74q0 -36 -19 -62t-55 -39l-207 -76l-17 46q22 19 22 48zM99.5 836.5q16.5 16.5 16.5 41.5
t-16.5 41.5t-40.5 16.5q-25 0 -41.5 -16.5t-16.5 -41.5t16.5 -41.5t41.5 -16.5q24 0 40.5 16.5z" />
    <glyph glyph-name="uni064D" unicode="&#x64d;" 
d="M-135 -92l254 92l17 -47l-254 -92zM-135 -201l254 92l17 -47l-254 -92z" />
    <glyph glyph-name="uni064E" unicode="&#x64e;" 
d="M-135 747l254 92l17 -47l-254 -92z" />
    <glyph glyph-name="uni064F" unicode="&#x64f;" 
d="M-60.5 819q-14.5 21 -14.5 47q0 44 30.5 74.5t74.5 30.5t75 -30.5t31 -74.5q0 -35 -19 -61.5t-55 -39.5l-180 -65l-17 47l113 41q-24 10 -38.5 31zM-10.5 826.5q16.5 -16.5 40.5 -16.5q25 0 41.5 16.5t16.5 41.5t-16.5 41.5t-41.5 16.5q-24 0 -40.5 -16.5t-16.5 -41.5
t16.5 -41.5z" />
    <glyph glyph-name="uni0650" unicode="&#x650;" 
d="M-135 -92l254 92l17 -47l-254 -92z" />
    <glyph glyph-name="uni0651" unicode="&#x651;" 
d="M-140 850h46v-69q0 -15 10 -25t26 -10q15 0 25 10t10 25v60h45v-60q0 -15 10 -25t25 -10q16 0 26 10t10 25v69h46v-69q0 -33 -24 -57t-57 -24q-19 0 -34.5 9.5t-23.5 25.5q-9 -16 -24.5 -25.5t-34.5 -9.5q-33 0 -57 24t-24 57v69z" />
    <glyph glyph-name="uni0652" unicode="&#x652;" 
d="M-75 730.5q-31 30.5 -31 74.5t31 75t75 31t74.5 -31t30.5 -75q0 -43 -30.5 -74t-74.5 -31t-75 30.5zM36.5 769q14.5 15 14.5 38q0 21 -15 36t-37 15q-21 0 -36 -15t-15 -38q0 -21 15.5 -36t37.5 -15q21 0 35.5 15z" />
    <glyph glyph-name="uni0653" unicode="&#x653;" 
d="M-105 800.5q20 20.5 53 20.5h177v-50h-175q-12 0 -21 -9.5t-9 -22.5v-39h-45v49q0 31 20 51.5z" />
    <glyph glyph-name="uni0654" unicode="&#x654;" 
d="M-135 747l98 36q-36 13 -51 48q-6 17 -6 33q0 31 18.5 57t50.5 38l63 23l17 -47l-59 -22q-16 -6 -26 -20t-10 -31q0 -25 16.5 -40.5t40.5 -15.5q8 0 22 4l80 29l17 -47l-254 -92z" />
    <glyph glyph-name="uni0655" unicode="&#x655;" 
d="M-136 -234l98 36q-15 4 -28.5 16t-21.5 32q-7 14 -7 33q0 30 19 56t51 38l62 23l17 -47l-58 -22q-16 -6 -26 -20t-10 -31q0 -25 16.5 -40t39.5 -15q12 0 22 3l80 29l17 -46l-254 -92z" />
    <glyph glyph-name="uni0656" unicode="&#x656;" 
d="M22 0v-160h-45v160h45z" />
    <glyph glyph-name="uni0658" unicode="&#x658;" 
d="M-103 878v-52q0 -45 29 -73.5t74 -28.5q46 0 75 28.5t29 73.5v74h47v-78q0 -41 -20 -75t-55 -54t-76 -20t-75.5 19.5t-54.5 54t-20 75.5v56h47z" />
    <glyph glyph-name="uni065A" unicode="&#x65a;" 
d="M-1 763q4 50 35 76.5t94 28.5v-50q-56 -4 -81 -30t-25 -88h-44q0 62 -25.5 88t-81.5 30v50q123 -4 128 -105z" />
    <glyph glyph-name="uni065B" unicode="&#x65b;" 
d="M-47.5 780q25.5 26 25.5 88h44q0 -62 25 -88t81 -30v-50q-63 2 -94 28.5t-35 76.5q-5 -101 -128 -105v50q56 4 81.5 30z" />
    <glyph glyph-name="uni0660" unicode="&#x660;" horiz-adv-x="213" 
d="M69.5 67.5q-15.5 15.5 -15.5 37.5t15.5 37t37.5 15q21 0 36.5 -15t15.5 -37t-15.5 -37.5t-36.5 -15.5q-22 0 -37.5 15.5z" />
    <glyph glyph-name="uni0661" unicode="&#x661;" horiz-adv-x="210" 
d="M73 510q-4 69 -19 125l55 12q16 -40 23.5 -126.5t7.5 -180.5v-340h-63v339q0 102 -4 171z" />
    <glyph glyph-name="uni0662" unicode="&#x662;" horiz-adv-x="481" 
d="M167 322q-39 25 -60.5 68t-21.5 94l50 1q0 -51 35.5 -86.5t85.5 -35.5q51 0 86 35.5t35 86.5v152h61v-153q0 -51 -24 -94t-65.5 -68t-92.5 -25q-50 0 -89 25zM73 510q-4 69 -19 125l55 12q16 -40 23.5 -126.5t7.5 -180.5v-340h-63v339q0 102 -4 171z" />
    <glyph glyph-name="uni0663" unicode="&#x663;" horiz-adv-x="690" 
d="M412 316.5q-34 21.5 -52.5 58t-18.5 80.5v151h50v-149q0 -39 29 -67.5t68 -28.5t67.5 28t28.5 68v180h64v-183q0 -43 -22 -79.5t-58.5 -58t-79.5 -21.5q-42 0 -76 21.5zM73 510q-4 69 -19 125l55 12q16 -40 23.5 -126.5t7.5 -180.5v-340h-63v339q0 102 -4 171z
M157.5 316.5q-33.5 21.5 -51.5 58t-18 80.5l49 2q0 -40 28 -68t68 -28q39 0 67.5 28t28.5 68v149h51v-152q0 -44 -18.5 -80.5t-52 -57.5t-76.5 -21q-42 0 -75.5 21.5z" />
    <glyph glyph-name="uni0664" unicode="&#x664;" horiz-adv-x="434" 
d="M123 41q-53 43 -66 111q-3 17 -3 34q0 65 43 115.5t110 63.5l162 30l12 -62l-162 -29q-44 -8 -72 -42t-28 -77q0 -35 17 -62.5t45.5 -43t61.5 -14.5h156v-65h-155q-68 -2 -121 41zM148 331q-38 22 -60 59.5t-22 82.5t22 82.5t60 59.5t82 22h112v-62h-112q-43 0 -72.5 -30
t-29.5 -72q0 -43 29.5 -72.5t72.5 -29.5q10 0 32 4l5 -61q-20 -5 -37 -5q-44 0 -82 22z" />
    <glyph glyph-name="uni0665" unicode="&#x665;" horiz-adv-x="641" 
d="M90 39q-51 48 -51 146q0 61 22.5 111.5t66.5 102.5t132 140q3 3 16 15.5t21 22.5l46 -41q-8 -9 -17.5 -18.5l-21.5 -21.5q-80 -80 -121.5 -131t-59.5 -93.5t-18 -91.5q0 -74 36 -100.5t81 -26.5h197q46 0 82 26.5t36 100.5q0 49 -18.5 91.5t-60 93t-120.5 129.5
q-7 10 -82 81q-69 67 -75 74l45 43q72 -72 117 -115l41 -41q87 -86 130.5 -137.5t66 -102t22.5 -111.5q0 -98 -51.5 -146t-134.5 -48h-193q-83 0 -134 48z" />
    <glyph glyph-name="uni0666" unicode="&#x666;" horiz-adv-x="470" 
d="M337.5 115q-7.5 87 -7.5 181v337h62v-337q0 -97 4.5 -168t19.5 -127l-55 -13q-16 40 -23.5 127zM102.5 574.5q-52.5 3.5 -83.5 8.5l6 58q81 -8 180 -8h185v-62h-198q-37 0 -89.5 3.5z" />
    <glyph glyph-name="uni0667" unicode="&#x667;" horiz-adv-x="515" 
d="M311.5 123.5q-21.5 -72.5 -24.5 -123.5h-59q-1 43 21.5 125t55.5 172l126 348l59 -21l-124 -338q-33 -90 -54.5 -162.5zM84 645l126 -348q81 -222 77 -297h-60q-1 50 -22.5 121t-55.5 165l-124 338z" />
    <glyph glyph-name="uni0668" unicode="&#x668;" horiz-adv-x="515" 
d="M25 13l124 338q35 97 56 166.5t22 119.5h60q3 -74 -77 -298l-126 -347zM228 637h59q3 -50 24 -121.5t55 -164.5l124 -338l-59 -21l-126 347q-79 221 -77 298z" />
    <glyph glyph-name="uni0669" unicode="&#x669;" horiz-adv-x="478" 
d="M345.5 105q-7.5 78 -7.5 154v18h-120q-51 0 -94 24t-68 65.5t-25 92.5t25 94t68 68t94 25t92.5 -25t65.5 -68t24 -94v-164q0 -97 4.5 -168.5t19.5 -127.5l-55 -11q-16 39 -23.5 117zM338 338v121q0 50 -35 85.5t-85 35.5t-85.5 -35.5t-35.5 -85.5t35.5 -85.5t85.5 -35.5
h120z" />
    <glyph glyph-name="uni066A" unicode="&#x66a;" horiz-adv-x="545" 
d="M54 25l392 632l45 -30l-393 -631zM361 42.5q-15 15.5 -15 36.5t15 36.5t36 15.5q23 0 37.5 -15.5t14.5 -36.5q0 -22 -15.5 -37t-36.5 -15t-36 15.5zM119.5 548.5q-15.5 15.5 -15.5 36.5t15 36t37 15t36.5 -15t14.5 -36q0 -22 -15 -37t-36 -15t-36.5 15.5z" />
    <glyph glyph-name="uni066B" unicode="&#x66b;" horiz-adv-x="289" 
d="M24 -47q12 29 64 147.5t135 310.5h54l-201 -458h-52z" />
    <glyph glyph-name="uni066C" unicode="&#x66c;" horiz-adv-x="267" 
d="M115 -35q13 36 14 38q-18 -3 -34 11t-16 35q0 22 15.5 37.5t37.5 15.5t36.5 -16t14.5 -40q0 -82 -90 -214l-39 27q48 70 61 106z" />
    <glyph glyph-name="uni066D" unicode="&#x66d;" horiz-adv-x="456" 
d="M246 473.5q-6 11.5 -10.5 26.5t-7.5 24l21 16q18 -15 16 -13q18 -13 27.5 -22t26.5 -34l51 -70l-48 -35l-51 70q-19 26 -25 37.5zM304 541.5q-13 -1.5 -29 -1.5h-26l-8 24l17 12q18 13 29.5 19t40.5 15l82 26l18 -57l-82 -26q-29 -10 -42 -11.5zM206.5 592
q-5.5 17 -7 30.5t-1.5 38.5v86h60v-86q0 -32 -2 -44.5t-7 -28.5t-8 -24h-26q-3 11 -8.5 28zM27 580l19 57l82 -26q29 -10 41 -16t25 -15.5t21 -15.5l-8 -24h-27.5t-32 3t-37.5 11zM85 401l51 70q19 25 28 34.5t22 19t21 15.5l21 -16q-3 -9 -9 -26t-13 -29t-22 -33l-50 -69z
" />
    <glyph glyph-name="uni066E" unicode="&#x66e;" horiz-adv-x="880" 
d="M183.5 28.5q-48.5 28.5 -76.5 77t-28 106.5v96h62v-93q0 -41 20 -75t54 -54t75 -20h354q50 0 85 35.5t35 85.5v121h62v-121q0 -51 -24 -94t-65.5 -68t-92.5 -25h-354q-58 0 -106.5 28.5z" />
    <glyph glyph-name="uni066F" unicode="&#x66f;" horiz-adv-x="694" 
d="M290 276q25 43 68 68t94 25v0q51 0 92.5 -25t66 -68t24.5 -93v-196q0 -75 -37.5 -139t-101.5 -101.5t-140 -37.5q-75 0 -138.5 37.5t-101 101.5t-37.5 139v187h62v-183q0 -59 29 -108.5t78 -78.5t108 -29t108.5 29t79 78.5t29.5 108.5v9h-121v0q-51 0 -94 24t-68 66
t-25 93q0 50 25 93zM365.5 100q35.5 -35 86.5 -35v0h121v121q0 51 -35.5 86.5t-85.5 35.5v0q-51 0 -86.5 -35.5t-35.5 -86.5t35.5 -86z" />
    <glyph glyph-name="uni0670" unicode="&#x670;" 
d="M22 860v-160h-45v160h45z" />
    <glyph glyph-name="uni0695" unicode="&#x695;" horiz-adv-x="276" 
d="M81 -139.5q33 22.5 51 57t18 93.5v297h62v-296q0 -72 -22 -117.5t-66 -77.5t-127 -72l-24 53q75 40 108 62.5zM71 -408.5q31 -26.5 34 -76.5q3 50 34 76.5t95 28.5v-50q-56 -4 -81.5 -30t-25.5 -89h-44q0 63 -25 89t-81 30v50q63 -2 94 -28.5z" />
    <glyph glyph-name="uni06A1" unicode="&#x6a1;" horiz-adv-x="880" 
d="M183.5 28.5q-48.5 28.5 -76.5 77t-28 106.5v96h62v-93q0 -41 20 -75t54 -54t75 -20h377q40 0 68.5 28t28.5 68v24h-103v0q-46 0 -85 22t-61.5 60t-22.5 84t23 85t61.5 62t84.5 23v0q46 0 83.5 -23t59.5 -62t22 -85v-192q0 -43 -21.5 -80t-58 -58.5t-80.5 -21.5h-376
q-58 0 -106.5 28.5zM767 245v108q0 46 -31 77t-76 31v0q-46 -1 -77 -31.5t-31 -76.5t31 -77t77 -31v0h107z" />
    <glyph glyph-name="uni06A4" unicode="&#x6a4;" horiz-adv-x="880" 
d="M183.5 28.5q-48.5 28.5 -76.5 77t-28 106.5v96h62v-93q0 -41 20 -75t54 -54t75 -20h377q40 0 68.5 28t28.5 68v24h-103v0q-46 0 -85 22t-61.5 60t-22.5 84t23 85t61.5 62t84.5 23v0q46 0 83.5 -23t59.5 -62t22 -85v-192q0 -43 -21.5 -80t-58 -58.5t-80.5 -21.5h-376
q-58 0 -106.5 28.5zM660 245h107v108q0 46 -31 77t-76 31v0q-46 -1 -77 -31.5t-31 -76.5t31 -77t77 -31v0zM561 692h75v-75h-75v75zM688 692h75v-75h-75v75zM624 821h75v-75h-75v75z" />
    <glyph glyph-name="uni06B5" unicode="&#x6b5;" horiz-adv-x="758" 
d="M217.5 -159.5q-63.5 37.5 -101 101.5t-37.5 139v187h62v-183q0 -59 29 -108.5t78 -78.5t108 -29t108.5 29t79 78.5t29.5 108.5v571h62v-575q0 -75 -37.5 -139t-101.5 -101.5t-140 -37.5q-75 0 -138.5 37.5zM569 883.5q31 -26.5 34 -76.5q3 50 34 76.5t94 28.5v-50
q-56 -4 -81 -30t-25 -89h-44q0 63 -25.5 89t-81.5 30v50q64 -2 95 -28.5z" />
    <glyph glyph-name="uni06BE" unicode="&#x6be;" horiz-adv-x="768" 
d="M280 66q34 0 61.5 17.5t42.5 45.5t15 57t-14.5 57t-42 45.5t-62.5 17.5q-51 0 -86 -34.5t-35 -85.5q0 -37 18 -64t46 -41.5t57 -14.5h247q50 0 85.5 35t35.5 85t-35.5 85t-85.5 35h-462v63h462q50 0 93 -24.5t68.5 -66.5t25.5 -92q0 -51 -25.5 -93.5t-68.5 -67.5t-93 -25
h-249q-51 0 -93 26.5t-66.5 69.5t-24.5 90q0 45 24.5 85.5t67 65.5t94.5 25q55 0 95 -28t60 -69.5t20 -78.5q0 -52 -25.5 -94.5t-66.5 -67t-85 -24.5h-280l1 66h281z" />
    <glyph glyph-name="uni06C2" unicode="&#x6c2;" horiz-adv-x="496" 
d="M84.5 112q-13.5 33 -13.5 68q0 36 14.5 71t42.5 63l85 85l-41 41l44 44l170 -170q27 -27 41.5 -62t14.5 -72q0 -35 -13.5 -68t-39.5 -59q-26 -27 -60.5 -41t-71.5 -14t-71.5 14t-61.5 41q-26 26 -39.5 59zM257 63q50 0 86 36q17 17 26 39t9 46q0 49 -35 86l-86 85
l-85 -85q-36 -36 -36 -86q0 -48 35 -85q36 -36 86 -36zM81 590l103 38q-15 4 -28.5 16.5t-21.5 31.5q-7 19 -7 33q0 30 19 56.5t51 38.5l62 22l17 -46l-58 -22q-17 -7 -26.5 -21t-9.5 -31q0 -25 16.5 -40t39.5 -15q13 0 22 4l80 29l17 -47l-259 -94z" />
    <glyph glyph-name="uni06C3" unicode="&#x6c3;" horiz-adv-x="496" 
d="M84.5 112q-13.5 33 -13.5 68q0 36 14.5 71t42.5 63l85 85l-41 41l44 44l170 -170q27 -27 41.5 -62t14.5 -72q0 -35 -13.5 -68t-39.5 -59q-26 -27 -60.5 -41t-71.5 -14t-71.5 14t-61.5 41q-26 26 -39.5 59zM257 63q50 0 86 36q17 17 26 39t9 46q0 49 -35 86l-86 85
l-85 -85q-36 -36 -36 -86q0 -48 35 -85q36 -36 86 -36zM117 650h75v-74h-75v74zM244 650h75v-74h-75v74z" />
    <glyph glyph-name="uni06C6" unicode="&#x6c6;" horiz-adv-x="504" 
d="M290.5 -132.5q45.5 24.5 67 55t21.5 77.5h-121v0q-51 0 -94 24t-68 66t-25 93q0 50 25 93t68 68t94 25v0q51 0 92.5 -25t66 -68t24.5 -93v-162q0 -75 -30.5 -121t-82 -76t-161.5 -79l-20 55q98 43 143.5 67.5zM379 63v121q0 50 -35.5 85.5t-85.5 35.5v0
q-50 0 -85.5 -35.5t-35.5 -85.5q0 -51 35.5 -86t85.5 -35v0h121zM210.5 563q-25.5 26 -81.5 30v50q64 -2 95 -28.5t34 -76.5q3 50 34 76.5t94 28.5v-50q-56 -4 -81 -30t-25 -88h-44q0 62 -25.5 88z" />
    <glyph glyph-name="uni06C7" unicode="&#x6c7;" horiz-adv-x="504" 
d="M290.5 -132.5q45.5 24.5 67 55t21.5 77.5h-121v0q-51 0 -94 24t-68 66t-25 93q0 50 25 93t68 68t94 25v0q51 0 92.5 -25t66 -68t24.5 -93v-162q0 -75 -30.5 -121t-82 -76t-161.5 -79l-20 55q98 43 143.5 67.5zM258 63h121v121q0 50 -35.5 85.5t-85.5 35.5v0
q-50 0 -85.5 -35.5t-35.5 -85.5q0 -51 35.5 -86t85.5 -35v0zM204 576q-15 21 -15 48q0 44 31 74.5t75 30.5t74.5 -30.5t30.5 -74.5q0 -35 -19 -61.5t-54 -39.5l-180 -65l-17 47l113 41q-24 9 -39 30zM253.5 583.5q16.5 -16.5 41.5 -16.5q24 0 40.5 16.5t16.5 41.5
t-16.5 41.5t-40.5 16.5q-25 0 -41.5 -16.5t-16.5 -41.5t16.5 -41.5z" />
    <glyph glyph-name="uni06CE" unicode="&#x6ce;" horiz-adv-x="724" 
d="M183.5 -196.5q-48.5 28.5 -76.5 77t-28 106.5v199h62v-196q0 -41 20 -75t54 -54t75 -20h213q42 0 69.5 28t27.5 69q0 32 -20.5 58.5t-54.5 35.5l-227 51v96q0 47 23.5 86.5t64 63t88.5 23.5h146v-61h-148q-46 0 -79 -33t-33 -79v-46l186 -42q53 -15 86 -59t33 -97
q0 -43 -21.5 -80t-58.5 -58.5t-81 -21.5h-214q-58 0 -106.5 28.5zM161.5 406q-25.5 26 -81.5 30v50q64 -3 95 -29.5t34 -76.5q3 50 33.5 76.5t94.5 29.5v-50q-56 -4 -81 -30t-25 -89h-44q0 63 -25.5 89z" />
    <glyph glyph-name="uni06D3" unicode="&#x6d3;" horiz-adv-x="644" 
d="M134 21.5q-37 21.5 -58.5 58.5t-21.5 80q0 53 32.5 97t85.5 59l186 42l19 -60l-183 -41q-35 -9 -55 -35.5t-20 -58.5q0 -41 27.5 -69t68.5 -28h374v-66h-374q-44 0 -81 21.5zM80 417l103 38q-15 4 -28.5 16.5t-21.5 31.5q-7 15 -7 33q0 30 19 56.5t51 38.5l62 22l17 -46
l-58 -22q-17 -7 -26.5 -21t-9.5 -31q0 -25 16.5 -40t39.5 -15q13 0 22 4l80 29l17 -47l-259 -94z" />
    <glyph glyph-name="uni06D4" unicode="&#x6d4;" horiz-adv-x="330" 
d="M50 66h245l-15 -66h-245z" />
    <glyph glyph-name="uni06D5" unicode="&#x6d5;" horiz-adv-x="503" 
d="M92.5 112q-13.5 33 -13.5 68q0 36 14.5 71t41.5 63l86 85l-41 41l44 44l170 -170q27 -27 41.5 -62t14.5 -72q0 -35 -13.5 -68t-39.5 -59q-27 -27 -61.5 -41t-70.5 -14q-37 0 -71.5 14t-61.5 41q-26 26 -39.5 59zM265 63q24 0 46 9t39 27q35 34 35 85t-35 86l-86 85
l-85 -85q-35 -35 -35 -86q0 -50 35 -85q36 -36 86 -36z" />
    <glyph glyph-name="uni06F0" unicode="&#x6f0;" horiz-adv-x="442" 
d="M137.5 22.5q-38.5 22.5 -61 61t-22.5 84.5q0 45 22.5 83.5t61 61t84.5 22.5q45 0 83.5 -22.5t61 -61t22.5 -83.5q0 -46 -22.5 -84.5t-61 -61t-83.5 -22.5q-46 0 -84.5 22.5zM296 93q31 31 31 75q0 43 -31 74t-74 31q-44 0 -75 -30.5t-31 -74.5t31 -75t75 -31q43 0 74 31z
" />
    <glyph glyph-name="uni06F1" unicode="&#x6f1;" horiz-adv-x="206" 
d="M73 510q-4 69 -19 125l55 12q16 -40 23 -127t7 -180v-340h-62v339q0 102 -4 171z" />
    <glyph glyph-name="uni06F2" unicode="&#x6f2;" horiz-adv-x="481" 
d="M167 323q-39 25 -60.5 67.5t-21.5 93.5l50 1q0 -51 35.5 -86.5t85.5 -35.5q51 0 86 35.5t35 86.5v152h61v-152q0 -51 -24 -94t-65.5 -68t-92.5 -25q-50 0 -89 25zM73 510q-4 69 -19 125l55 12q16 -40 23 -127t7 -180v-340h-62v339q0 102 -4 171z" />
    <glyph glyph-name="uni06F3" unicode="&#x6f3;" horiz-adv-x="686" 
d="M411.5 317q-33.5 21 -52 57.5t-18.5 80.5v151h50v-149q0 -40 28.5 -68t68.5 -28q39 0 66 28t27 68v180h62v-182q0 -43 -20.5 -79.5t-56 -58t-78.5 -21.5t-76.5 21zM73 510q-4 69 -19 125l55 12q16 -40 23 -127t7 -180v-340h-62v339q0 102 -4 171zM157.5 317
q-33.5 21 -51.5 57.5t-18 80.5l49 2q0 -40 28 -68t68 -28q39 0 67.5 28t28.5 68v149h51v-151q0 -44 -18.5 -80.5t-52 -57.5t-76.5 -21q-42 0 -75.5 21z" />
    <glyph glyph-name="uni06F4" unicode="&#x6f4;" horiz-adv-x="554" 
d="M73 510.5q-4 69.5 -19 125.5l55 12q16 -40 23 -127t7 -180v-340h-62v339q0 101 -4 170.5zM177.5 292.5q-39.5 24.5 -62 66.5t-22.5 94l42 2q0 -50 35.5 -85.5t85.5 -35.5h194v-66h-182q-51 0 -90.5 24.5zM320 293q-43 25 -68 68t-25 94q0 50 25 92t68 66t94 24h76v-62
h-76q-50 0 -86 -35.5t-36 -84.5q0 -50 36 -85.5t86 -35.5h105v-66h-105q-51 0 -94 25z" />
    <glyph glyph-name="uni06F5" unicode="&#x6f5;" horiz-adv-x="686" 
d="M364 31q-35 34 -35 103v87h45v-85q0 -34 20.5 -56t61.5 -22q118 0 118 122q0 46 -18.5 88t-60 92.5t-120.5 129.5q-5 6 -60 59q-72 70 -78 77l44 43q8 -9 69.5 -69t69.5 -68q87 -87 130.5 -138.5t66 -100.5t22.5 -107q0 -97 -51 -143t-134 -46q-55 0 -90 34zM97 43
q-51 46 -51 143q0 59 22.5 108.5t66.5 100.5t132 139l52 55l44 -44l-52 -54q-79 -79 -120.5 -130t-60 -93t-18.5 -88q0 -122 118 -122q40 0 60.5 22t20.5 56v85h46v-87q0 -69 -35.5 -103t-89.5 -34q-84 0 -135 46z" />
    <glyph glyph-name="uni06F6" unicode="&#x6f6;" horiz-adv-x="518" 
d="M106 13l176 306q47 81 94.5 150t81.5 96l40 -40q-38 -34 -76.5 -94.5t-91.5 -152.5l-171 -297zM52.5 381q-13.5 33 -13.5 69q0 37 14.5 71.5t41.5 61.5l105 102l44 -44l-104 -102q-36 -36 -36 -84q0 -24 9 -46.5t27 -40.5q16 -17 40.5 -26t50.5 -9q27 0 49.5 10t32.5 28
l38 -34q-25 -29 -63 -45.5t-79 -16.5q-70 0 -116 46q-27 27 -40.5 60z" />
    <glyph glyph-name="uni06F7" unicode="&#x6f7;" horiz-adv-x="515" 
d="M311.5 123.5q-21.5 -72.5 -24.5 -123.5h-59q-1 43 21.5 125t55.5 172l126 348l59 -21l-124 -338q-33 -90 -54.5 -162.5zM84 645l126 -348q81 -222 77 -297h-60q-1 50 -22.5 121t-55.5 165l-124 338z" />
    <glyph glyph-name="uni06F8" unicode="&#x6f8;" horiz-adv-x="515" 
d="M205 517.5q21 69.5 22 119.5h60q3 -74 -77 -298l-126 -347l-59 21l124 338q35 97 56 166.5zM431 -8l-126 347q-79 221 -77 298h59q3 -50 24 -121.5t55 -164.5l124 -338z" />
    <glyph glyph-name="uni06F9" unicode="&#x6f9;" horiz-adv-x="478" 
d="M345.5 105q-7.5 78 -7.5 154v18h-120q-51 0 -94 24t-68 65.5t-25 92.5t25 94t68 68t94 25t92.5 -25t65.5 -68t24 -94v-164q0 -97 4.5 -168.5t19.5 -127.5l-55 -11q-16 39 -23.5 117zM338 338v121q0 50 -35 85.5t-85 35.5t-85.5 -35.5t-35.5 -85.5t35.5 -85.5t85.5 -35.5
h120z" />
    <glyph glyph-name="uni0756" unicode="&#x756;" horiz-adv-x="880" 
d="M183.5 28.5q-48.5 28.5 -76.5 77t-28 106.5v96h62v-93q0 -41 20 -75t54 -54t75 -20h354q50 0 85 35.5t35 85.5v121h62v-121q0 -51 -24 -94t-65.5 -68t-92.5 -25h-354q-58 0 -106.5 28.5zM399 408q-25 26 -81 30v50q63 -2 94 -28.5t34 -76.5q3 50 34 76.5t95 28.5v-50
q-56 -4 -81.5 -30t-25.5 -88h-44q0 62 -25 88z" />
    <glyph glyph-name="uni0769" unicode="&#x769;" horiz-adv-x="697" 
d="M217.5 -159.5q-63.5 37.5 -101 101.5t-37.5 139v187h62v-183q0 -59 29 -108.5t78 -78.5t108 -29t108.5 29t79 78.5t29.5 108.5v223h62v-227q0 -75 -37.5 -139t-101.5 -101.5t-140 -37.5q-75 0 -138.5 37.5zM318 355h75v-74h-75v74zM307.5 542q-25.5 26 -81.5 30v50
q123 -6 128 -106q4 50 35 76.5t94 29.5v-50q-56 -4 -81 -30t-25 -89h-44q0 63 -25.5 89z" />
    <glyph glyph-name="uni08A0" unicode="&#x8a0;" horiz-adv-x="880" 
d="M183.5 28.5q-48.5 28.5 -76.5 77t-28 106.5v96h62v-93q0 -41 20 -75t54 -54t75 -20h354q50 0 85 35.5t35 85.5v121h62v-121q0 -51 -24 -94t-65.5 -68t-92.5 -25h-354q-58 0 -106.5 28.5zM418.5 -179q-25.5 26 -81.5 30v50q63 -2 94 -28.5t34 -76.5q4 50 35 76.5t94 28.5
v-50q-56 -4 -81 -30t-25 -88h-44q0 62 -25.5 88z" />
    <glyph glyph-name="Wgrave" unicode="&#x1e80;" horiz-adv-x="833" 
d="M12 675h65l133 -604l168 558h79l168 -558l133 604h65l-154 -675h-87l-164 564l-165 -564h-87zM236 859h76l138 -122h-65z" />
    <glyph glyph-name="wgrave" unicode="&#x1e81;" horiz-adv-x="688" 
d="M11 485h64l87 -386l155 352h58l155 -352l84 386h64l-102 -485h-65l-165 368l-165 -368h-65zM162 673h76l138 -122h-65z" />
    <glyph glyph-name="Wacute" unicode="&#x1e82;" horiz-adv-x="833" 
d="M12 675h65l133 -604l168 558h79l168 -558l133 604h65l-154 -675h-87l-164 564l-165 -564h-87zM523 859h76l-149 -122h-65z" />
    <glyph glyph-name="wacute" unicode="&#x1e83;" horiz-adv-x="688" 
d="M11 485h64l87 -386l155 352h58l155 -352l84 386h64l-102 -485h-65l-165 368l-165 -368h-65zM448 674h76l-149 -122h-65z" />
    <glyph glyph-name="Wdieresis" unicode="&#x1e84;" horiz-adv-x="833" 
d="M12 675h65l133 -604l168 558h79l168 -558l133 604h65l-154 -675h-87l-164 564l-165 -564h-87zM325.5 724.5q-13.5 13.5 -13.5 33.5q0 19 13.5 32t32.5 13t32.5 -13t13.5 -32t-13.5 -33t-32.5 -14t-32.5 13.5zM445 725q-14 14 -14 33t13.5 32t33.5 13q19 0 32 -13t13 -32
q0 -20 -13 -33.5t-32 -13.5t-33 14z" />
    <glyph glyph-name="wdieresis" unicode="&#x1e85;" horiz-adv-x="688" 
d="M11 485h64l87 -386l155 352h58l155 -352l84 386h64l-102 -485h-65l-165 368l-165 -368h-65zM256.5 563.5q-13.5 13.5 -13.5 33.5q0 19 13.5 32t32.5 13t32.5 -13t13.5 -32t-13.5 -33t-32.5 -14t-32.5 13.5zM376 564q-14 14 -14 33t13.5 32t33.5 13q19 0 32 -13t13 -32
q0 -20 -13 -33.5t-32 -13.5t-33 14z" />
    <glyph glyph-name="uni1E9E" unicode="&#x1e9e;" horiz-adv-x="684" 
d="M103.5 595.5q21.5 36.5 58 58t79.5 21.5h85v-61h-82q-40 0 -68 -28.5t-28 -69.5v-516h-66v516q0 43 21.5 79.5zM256 392l260 222h-226v61h306v-63l-306 -266zM290.5 17q-49.5 26 -80.5 71l50 41q22 -35 58.5 -55.5t78.5 -20.5q44 0 81 22t59 59.5t22 81.5
q0 43 -21.5 80.5t-59 60t-81.5 22.5q-54 0 -106 -33l-16 51q61 37 122 37q62 0 114.5 -29t83 -79t30.5 -111t-30.5 -112t-83 -81.5t-114.5 -30.5q-57 0 -106.5 26z" />
    <glyph glyph-name="Ygrave" unicode="&#x1ef2;" horiz-adv-x="565" 
d="M250 201l-238 474h74l196 -396l199 396h74l-239 -474v-201h-66v201zM131 875h76l138 -122h-65z" />
    <glyph glyph-name="ygrave" unicode="&#x1ef3;" horiz-adv-x="523" 
d="M34 -165h63q72 0 100 67l230 583h66l-233 -596q-19 -54 -59.5 -85t-101.5 -31h-65v62zM17 485h67l185 -485h-67zM95 708h76l138 -122h-65z" />
    <glyph glyph-name="uni2000" unicode="&#x2000;" horiz-adv-x="469" 
 />
    <glyph glyph-name="uni2001" unicode="&#x2001;" horiz-adv-x="1123" 
 />
    <glyph glyph-name="uni2002" unicode="&#x2002;" horiz-adv-x="469" 
 />
    <glyph glyph-name="uni2003" unicode="&#x2003;" horiz-adv-x="1123" 
 />
    <glyph glyph-name="uni2004" unicode="&#x2004;" horiz-adv-x="251" 
 />
    <glyph glyph-name="uni2005" unicode="&#x2005;" horiz-adv-x="230" 
 />
    </font>
</defs>
</svg>
