<?xml version="1.0" standalone="no"?>
<!DOCTYPE svg PUBLIC "-//W3C//DTD SVG 1.1//EN" "http://www.w3.org/Graphics/SVG/1.1/DTD/svg11.dtd" >
<svg xmlns="http://www.w3.org/2000/svg" xmlns:xlink="http://www.w3.org/1999/xlink" version="1.1">
<metadata>
Created by FontForge 20170731 at Mon Aug  2 17:43:48 2021
 By Aleksey,,,
Copyright (c) 2021 by www.fontiran.com All rights reserved.
</metadata>
<defs>
<font id="KalamehWeb-Bold" horiz-adv-x="0" >
  <font-face 
    font-family="KalamehWeb"
    font-weight="700"
    font-stretch="normal"
    units-per-em="1000"
    panose-1="0 0 0 0 0 0 0 0 0 0"
    ascent="800"
    descent="-200"
    x-height="516"
    cap-height="712"
    bbox="-234 -582 1455 1288"
    underline-thickness="49"
    underline-position="-171"
    unicode-range="U+000D-FEFC"
  />
<missing-glyph horiz-adv-x="465" 
d="M30 705h405v-705h-405v705zM227 306q4 9 6 28q1 3 2 8.5t2 13.5l-27 20l-19 -10q-18 -9 -25.5 -15t-23.5 -28l-22 -30l65 -47l22 29q16 22 20 31zM166 370q6 0 18.5 2t25.5 4l10 31q-8 8 -19 19.5t-21 17t-31 12.5l-35 11l-25 -76l35 -11q26 -10 42 -10zM353 292l-21 30
q-15 21 -23 27.5t-25 15.5q-3 2 -8 4.5t-12 6.5l-27 -20q3 -13 3 -22q3 -20 7 -29t19 -30l22 -30zM264 427q9 18 11.5 28t2.5 35v37h-81v-37q0 -26 2.5 -36t11.5 -29l9 -18h34zM385 389l-24 77l-36 -11q-25 -8 -33.5 -13t-21.5 -19l-16 -16l10 -31l22 -4q15 -3 23 -3
q11 0 41 10z" />
    <glyph glyph-name="uniFDF2" unicode="&#x627;&#xfedf;&#xfee0;&#xfeea;" horiz-adv-x="1376" arabic-form="isolated" 
d="M152.5 59.5q-50.5 29.5 -80.5 80t-30 109.5q0 58 30 105.5t80.5 75t110.5 27.5v0h66v64h142v-272q0 -60 -27 -110t-74.5 -79.5t-106.5 -29.5v0q-60 0 -110.5 29.5zM310 200.5q19 19.5 19 48.5v64h-66v0q-29 0 -48.5 -18t-19.5 -46q0 -29 19.5 -48.5t48.5 -19.5v0
q28 0 47 19.5zM426.5 25q-38.5 25 -59 68.5t-20.5 95.5v184h124v-175q0 -20 13 -33.5t33 -13.5h42q10 0 10 -10v-131q0 -10 -10 -10h-42q-52 0 -90.5 25zM549 10v131q0 10 10 10h43q20 0 33 13.5t13 33.5v323h143v-323q0 -20 13.5 -33.5t33.5 -13.5h42q10 0 10 -10v-131
q0 -10 -10 -10h-42q-38 0 -68.5 15t-49.5 41q-20 -26 -50 -41t-68 -15h-43q-10 0 -10 10zM870 10v131q0 10 10 10h38q19 0 32.5 13.5t13.5 33.5v407h143v-416q0 -51 -25 -94.5t-68 -69t-95 -25.5h-39q-10 0 -10 10zM578.5 616.5q-32.5 32.5 -32.5 78.5v79h95v-79
q0 -7 4.5 -12t12.5 -5t12.5 5t4.5 12v67h90v-67q0 -7 5 -12t13 -5t12.5 5t4.5 12v79h94v-79q0 -46 -32.5 -78.5t-78.5 -32.5q-40 0 -63 28q-23 -28 -63 -28q-46 0 -78.5 32.5zM675 960h90v-160h-90v160zM1192 674h143v-674h-143v674z" />
    <glyph glyph-name="uni06440622" unicode="&#xfedf;&#xfe82;" horiz-adv-x="547" arabic-form="isolated" 
d="M47 151h273q19 0 32.5 13.5t13.5 32.5v467h143v-475q0 -51 -25 -94.5t-68 -69t-95 -25.5h-274v151zM51 615l138 37l106 -434l-139 -36zM-50.5 783.5q29.5 27.5 71.5 27.5h208v-109h-188q-27 0 -27 -26v-48h-94v82q0 46 29.5 73.5z" />
    <glyph glyph-name="uni06440622.fina" unicode="&#xfee0;&#xfe82;" horiz-adv-x="598" arabic-form="final" 
d="M47 151h273q19 0 32.5 13.5t13.5 33.5v465h143v-465q0 -20 13 -33.5t33 -13.5h43q10 0 10 -10v-131q0 -10 -10 -10h-43q-38 0 -68 15t-49 41q-20 -26 -50 -41t-68 -15h-273v151zM51 615l138 37l106 -434l-139 -36zM-50.5 783.5q29.5 27.5 71.5 27.5h208v-109h-188
q-27 0 -27 -26v-48h-94v82q0 46 29.5 73.5z" />
    <glyph glyph-name="uni06440623" unicode="&#xfedf;&#xfe84;" horiz-adv-x="547" arabic-form="isolated" 
d="M47 151h273q19 0 32.5 13.5t13.5 32.5v467h143v-475q0 -51 -25 -94.5t-68 -69t-95 -25.5h-274v151zM51 615l138 37l106 -434l-139 -36zM-22 765l89 33q-24 18 -34 46q-6 17 -6 33q0 37 24 69.5t65 46.5l81 28l37 -102l-70 -26q-9 -3 -14 -10t-5 -16q0 -12 8 -20.5
t20 -8.5q7 0 13 3l95 34l37 -102l-304 -111z" />
    <glyph glyph-name="uni06440623.fina" unicode="&#xfee0;&#xfe84;" horiz-adv-x="598" arabic-form="final" 
d="M47 151h273q19 0 32.5 13.5t13.5 33.5v465h143v-465q0 -20 13 -33.5t33 -13.5h43q10 0 10 -10v-131q0 -10 -10 -10h-43q-38 0 -68 15t-49 41q-20 -26 -50 -41t-68 -15h-273v151zM51 615l138 37l106 -434l-139 -36zM-22 765l89 33q-24 18 -34 46q-6 17 -6 33q0 37 24 69.5
t65 46.5l81 28l37 -102l-70 -26q-9 -3 -14 -10t-5 -16q0 -12 8 -20.5t20 -8.5q7 0 13 3l95 34l37 -102l-304 -111z" />
    <glyph glyph-name="uni06440625" unicode="&#xfedf;&#xfe88;" horiz-adv-x="547" arabic-form="isolated" 
d="M47 151h273q19 0 32.5 13.5t13.5 32.5v467h143v-475q0 -51 -25 -94.5t-68 -69t-95 -25.5h-274v151zM38 -305l89 33q-24 18 -34 46q-5 14 -5 33q0 37 24 69.5t64 46.5l82 28l37 -102l-70 -26q-19 -7 -19 -26q0 -12 8 -20.5t20 -8.5q3 0 13 2l94 35l37 -102l-303 -111z
M48 625l139 36l108 -443l-139 -36z" />
    <glyph glyph-name="uni06440625.fina" unicode="&#xfee0;&#xfe88;" horiz-adv-x="598" arabic-form="final" 
d="M47 151h273q19 0 32.5 13.5t13.5 33.5v465h143v-465q0 -20 13 -33.5t33 -13.5h43q10 0 10 -10v-131q0 -10 -10 -10h-43q-38 0 -68 15t-49 41q-20 -26 -50 -41t-68 -15h-273v151zM38 -305l89 33q-24 18 -34 46q-5 14 -5 33q0 37 24 69.5t64 46.5l82 28l37 -102l-70 -26
q-19 -7 -19 -26q0 -12 8 -20.5t20 -8.5q3 0 13 2l94 35l37 -102l-303 -111zM48 625l139 36l108 -443l-139 -36z" />
    <glyph glyph-name="uni06440627" unicode="&#xfedf;&#xfe8e;" horiz-adv-x="547" arabic-form="isolated" 
d="M47 151h273q19 0 32.5 13.5t13.5 32.5v467h143v-475q0 -51 -25 -94.5t-68 -69t-95 -25.5h-274v151zM48 625l139 36l108 -443l-139 -36z" />
    <glyph glyph-name="uni06440627.fina" unicode="&#xfee0;&#xfe8e;" horiz-adv-x="598" arabic-form="final" 
d="M47 151h273q19 0 32.5 13.5t13.5 33.5v465h143v-465q0 -20 13 -33.5t33 -13.5h43q10 0 10 -10v-131q0 -10 -10 -10h-43q-38 0 -68 15t-49 41q-20 -26 -50 -41t-68 -15h-273v151zM48 625l139 36l108 -443l-139 -36z" />
    <glyph glyph-name="uni06440671" unicode="&#xfedf;&#xfb51;" horiz-adv-x="547" 
d="M47 151h273q19 0 32.5 13.5t13.5 32.5v467h143v-475q0 -51 -25 -94.5t-68 -69t-95 -25.5h-274v151zM51 615l138 37l106 -434l-139 -36zM-43 827l141 83l44 -80l6 -9l-140 -83zM106 721.5q-27 27.5 -27 67.5v19l70 7v-7q0 -3 9.5 -11.5t18.5 -8.5h87q11 0 18.5 7.5
t7.5 17.5q0 13 -7 21t-20 8q-6 0 -14.5 -4.5t-22.5 -13.5l-114 -69l-33 85l117 71q32 20 68 20q48 0 82.5 -34.5t34.5 -83.5q0 -50 -34 -84.5t-83 -34.5h-93q-38 0 -65 27.5z" />
    <glyph glyph-name="uni06440671.fina" unicode="&#xfee0;&#xfb51;" horiz-adv-x="598" 
d="M47 151h273q19 0 32.5 13.5t13.5 33.5v465h143v-465q0 -20 13 -33.5t33 -13.5h43q10 0 10 -10v-131q0 -10 -10 -10h-43q-38 0 -68 15t-49 41q-20 -26 -50 -41t-68 -15h-273v151zM51 615l138 37l106 -434l-139 -36zM-43 827l141 83l44 -80l6 -9l-140 -83zM106 721.5
q-27 27.5 -27 67.5v19l70 7v-7q0 -3 9.5 -11.5t18.5 -8.5h87q11 0 18.5 7.5t7.5 17.5q0 13 -7 21t-20 8q-6 0 -14.5 -4.5t-22.5 -13.5l-114 -69l-33 85l117 71q32 20 68 20q48 0 82.5 -34.5t34.5 -83.5q0 -50 -34 -84.5t-83 -34.5h-93q-38 0 -65 27.5z" />
    <glyph glyph-name="uni0621" unicode="&#x621;" horiz-adv-x="528" arabic-form="isolated" 
d="M261 126q-50 0 -87 23t-54 70q-10 29 -10 59q0 52 31.5 91.5t89.5 59.5l106 40l49 -136l-102 -37q-13 -4 -20 -14t-7 -22q0 -17 11 -28.5t27 -11.5q9 0 15 2l138 51l22 -86l-124 -47q-45 -14 -85 -14zM33 121l415 152l49 -135l-416 -152z" />
    <glyph glyph-name="uni0622" unicode="&#x622;" horiz-adv-x="227" arabic-form="isolated" 
d="M45 634h144v-634h-144v634zM-64.5 795.5q29.5 27.5 72.5 27.5h253v-109h-234q-12 0 -19 -6.5t-7 -19.5v-48h-95v82q0 46 29.5 73.5z" />
    <glyph glyph-name="uni0623" unicode="&#x623;" horiz-adv-x="230" arabic-form="isolated" 
d="M46 634h144v-634h-144v634zM-72 752l89 33q-24 18 -35 46q-5 18 -5 33q0 37 24 69t64 46l82 29l37 -103l-70 -26q-9 -3 -14 -10t-5 -15q0 -12 8 -20.5t20 -8.5q5 0 13 2l95 34l37 -101l-304 -111z" />
    <glyph glyph-name="uni0624" unicode="&#x624;" horiz-adv-x="509" arabic-form="isolated" 
d="M252.5 -95q43.5 24 59.5 45t16 50h-65v0q-60 0 -110 27t-79.5 74.5t-29.5 106.5q0 60 29.5 110t79.5 79.5t110 29.5v0q58 0 106 -29.5t75 -79.5t27 -110v-146q0 -93 -28.5 -150.5t-92 -100t-185.5 -95.5l-45 127q89 38 132.5 62zM263 142h65v67q0 29 -18.5 48t-46.5 19v0
q-29 0 -48.5 -19t-19.5 -48t19.5 -48t48.5 -19v0zM95 588l89 33q-24 18 -35 46q-5 18 -5 33q0 37 24 69t64 46l82 29l37 -103l-70 -26q-9 -3 -14 -10t-5 -15q0 -13 8 -21t20 -8q3 0 13 2l95 34l37 -101l-304 -111z" />
    <glyph glyph-name="uni0625" unicode="&#x625;" horiz-adv-x="230" arabic-form="isolated" 
d="M-45 -306l89 33q-24 19 -34 46q-5 18 -5 33q0 37 24 69t64 47l82 28l37 -103l-70 -26q-9 -3 -14 -10t-5 -15q0 -12 8 -20.5t20 -8.5q3 0 13 2l94 35l37 -102l-303 -111zM46 674h144v-674h-144v674z" />
    <glyph glyph-name="uni0626" unicode="&#x626;" horiz-adv-x="767" arabic-form="isolated" 
d="M172 -191q-58 34 -92 92t-34 127v243h144v-235q0 -45 32 -77.5t77 -32.5h229q24 0 39 15.5t15 39.5q0 18 -11 33t-30 19l-258 59v131q0 57 29.5 106.5t80 78.5t108.5 29h186v-143h-188q-29 0 -50.5 -21.5t-21.5 -50.5v-16q56 -12 79.5 -17.5t40.5 -9.5l40 -9
q63 -19 103 -73t40 -121q0 -55 -27 -101t-73.5 -73t-101.5 -27h-229q-69 0 -127 34zM49 457l89 33q-24 19 -34 46q-5 14 -5 33q0 37 24 69t64 46l82 29l37 -103l-70 -26q-19 -6 -19 -25q0 -13 8 -21t20 -8q3 0 13 2l94 34l37 -101l-303 -111z" />
    <glyph glyph-name="uni0627" unicode="&#x627;" horiz-adv-x="230" arabic-form="isolated" 
d="M46 674h144v-674h-144v674z" />
    <glyph glyph-name="uni0628" unicode="&#x628;" horiz-adv-x="858" arabic-form="isolated" 
d="M172 34q-58 34 -92 92t-34 127v120h144v-112q0 -45 32 -77.5t77 -32.5h318q29 0 47.5 19.5t18.5 48.5v154h144v-154q0 -60 -27.5 -110t-75.5 -79.5t-107 -29.5h-318q-69 0 -127 34zM526 -213h-128v128h128v-128z" />
    <glyph glyph-name="uni0629" unicode="&#x629;" horiz-adv-x="505" arabic-form="isolated" 
d="M59 129q-15 37 -15 77q0 44 17.5 85.5t50.5 73.5l46 46l-45 44l102 100l192 -190q33 -33 50 -74.5t17 -84.5q0 -40 -15.5 -77t-45.5 -67q-32 -31 -72 -47t-83 -16t-83 16t-72 47q-29 30 -44 67zM259 149q27 0 48 21q19 18 19 44q0 27 -22 49l-46 47l-45 -45
q-21 -21 -21 -49q0 -27 19 -46q21 -21 48 -21zM64 755h128v-128h-128v128zM244 755h128v-128h-128v128z" />
    <glyph glyph-name="uni062A" unicode="&#x62a;" horiz-adv-x="858" arabic-form="isolated" 
d="M172 34q-58 34 -92 92t-34 127v120h144v-112q0 -45 32 -77.5t77 -32.5h318q29 0 47.5 19.5t18.5 48.5v154h144v-154q0 -60 -27.5 -110t-75.5 -79.5t-107 -29.5h-318q-69 0 -127 34zM284 502h128v-129h-128v129zM464 502h128v-129h-128v129z" />
    <glyph glyph-name="uni062B" unicode="&#x62b;" horiz-adv-x="858" arabic-form="isolated" 
d="M172 34q-58 34 -92 92t-34 127v120h144v-112q0 -45 32 -77.5t77 -32.5h318q29 0 47.5 19.5t18.5 48.5v154h144v-154q0 -60 -27.5 -110t-75.5 -79.5t-107 -29.5h-318q-69 0 -127 34zM412 502v-129h-128v129h128zM593 502v-129h-129v129h129zM503 681v-129h-128v129h128z
" />
    <glyph glyph-name="uni062C" unicode="&#x62c;" horiz-adv-x="709" arabic-form="isolated" 
d="M180.5 -284q-57.5 34 -91 91.5t-33.5 123.5q0 56 24.5 107t68.5 87l257 189l-107 51q-16 8 -29 8q-25 0 -48 -21l-75 -81l-100 87l76 91q28 34 66.5 50t79.5 16q45 0 86 -22l216 -101q8 -2 15 -2h92v-141h-121l-309 -227q-41 -33 -41 -88q0 -45 32.5 -77t76.5 -32h290
v-143h-301q-67 0 -124.5 34zM397 47h128v-128h-128v128z" />
    <glyph glyph-name="uni062D" unicode="&#x62d;" horiz-adv-x="709" arabic-form="isolated" 
d="M180.5 -284q-57.5 34 -91 91.5t-33.5 123.5q0 56 24.5 107t68.5 87l257 189l-107 51q-16 8 -29 8q-25 0 -48 -21l-75 -81l-100 87l76 91q28 34 66.5 50t79.5 16q45 0 86 -22l216 -101q8 -2 15 -2h92v-141h-121l-309 -227q-41 -33 -41 -88q0 -45 32.5 -77t76.5 -32h290
v-143h-301q-67 0 -124.5 34z" />
    <glyph glyph-name="uni062E" unicode="&#x62e;" horiz-adv-x="709" arabic-form="isolated" 
d="M180.5 -284q-57.5 34 -91 91.5t-33.5 123.5q0 56 24.5 107t68.5 87l257 189l-107 51q-16 8 -29 8q-25 0 -48 -21l-75 -81l-100 87l76 91q28 34 66.5 50t79.5 16q45 0 86 -22l216 -101q8 -2 15 -2h92v-141h-121l-309 -227q-41 -33 -41 -88q0 -45 32.5 -77t76.5 -32h290
v-143h-301q-67 0 -124.5 34zM204 721h128v-128h-128v128z" />
    <glyph glyph-name="uni062F" unicode="&#x62f;" horiz-adv-x="518" arabic-form="isolated" 
d="M44 151h250q22 0 35.5 13t13.5 33q0 14 -8.5 24.5t-30.5 25.5l-210 144l81 119l234 -162q38 -29 57.5 -63.5t19.5 -83.5q0 -56 -27.5 -102t-74.5 -72.5t-102 -26.5h-238v151z" />
    <glyph glyph-name="uni0630" unicode="&#x630;" horiz-adv-x="518" arabic-form="isolated" 
d="M44 151h250q22 0 35.5 13t13.5 33q0 14 -8.5 24.5t-30.5 25.5l-210 144l81 119l234 -162q38 -29 57.5 -63.5t19.5 -83.5q0 -56 -27.5 -102t-74.5 -72.5t-102 -26.5h-238v151zM115 716h128v-129h-128v129z" />
    <glyph glyph-name="uni0631" unicode="&#x631;" horiz-adv-x="286" arabic-form="isolated" 
d="M57 -97q30 25 40 54t10 84v332h144v-332q0 -84 -21 -138t-72 -96.5t-148 -90.5l-54 121q71 41 101 66z" />
    <glyph glyph-name="uni0632" unicode="&#x632;" horiz-adv-x="289" arabic-form="isolated" 
d="M57 -97q30 25 40 54t10 84v332h144v-332q0 -84 -21 -138t-72 -96.5t-148 -90.5l-54 121q71 41 101 66zM115 587h128v-128h-128v128z" />
    <glyph glyph-name="uni0633" unicode="&#x633;" horiz-adv-x="1185" arabic-form="isolated" 
d="M207 -132.5q-74 43.5 -117.5 117.5t-43.5 161v187h144v-179q0 -48 24 -89t65 -65t89 -24q49 0 90.5 24t65.5 65t24 89v219h139v-227q0 -87 -42.5 -161t-115.5 -117.5t-161 -43.5q-87 0 -161 43.5zM636.5 48.5q-28.5 50.5 -28.5 138.5v186h85v-177q0 -20 13.5 -33.5
t32.5 -13.5q20 0 33 13.5t13 33.5v177h115v-186q0 -82 -42 -135.5t-119 -53.5q-74 0 -102.5 50.5zM856 53.5q-42 53.5 -42 135.5v184h115v-175q0 -20 13 -33.5t32 -13.5h36v252h144v-403h-180q-76 0 -118 53.5z" />
    <glyph glyph-name="uni0634" unicode="&#x634;" horiz-adv-x="1185" arabic-form="isolated" 
d="M207 -132.5q-74 43.5 -117.5 117.5t-43.5 161v187h144v-179q0 -48 24 -89t65 -65t89 -24q49 0 90.5 24t65.5 65t24 89v219h139v-227q0 -87 -42.5 -161t-115.5 -117.5t-161 -43.5q-87 0 -161 43.5zM636.5 48.5q-28.5 50.5 -28.5 138.5v186h85v-177q0 -20 13.5 -33.5
t32.5 -13.5q20 0 33 13.5t13 33.5v177h115v-186q0 -82 -42 -135.5t-119 -53.5q-74 0 -102.5 50.5zM856 53.5q-42 53.5 -42 135.5v184h115v-175q0 -20 13 -33.5t32 -13.5h36v252h144v-403h-180q-76 0 -118 53.5zM703 585h129v-128h-129v128zM884 585h128v-128h-128v128z
M794 764h129v-128h-129v128z" />
    <glyph glyph-name="uni0635" unicode="&#x635;" horiz-adv-x="1291" arabic-form="isolated" 
d="M207 -132.5q-74 43.5 -117.5 117.5t-43.5 161v187h144v-179q0 -48 24 -89t65 -65t89 -24q49 0 90.5 24t65.5 65t24 89v219h139v-227q0 -87 -42 -161t-115.5 -117.5t-161.5 -43.5q-87 0 -161 43.5zM681.5 34.5q-50.5 34.5 -77 93.5t-26.5 131v114h115v-134q0 -36 25.5 -62
t60.5 -26h260q30 0 51.5 22t21.5 52q0 32 -21.5 55t-54.5 23q-14 0 -31 -6.5t-45 -24.5l-273 -164l-51 132l266 158q41 25 69.5 36t67.5 11q59 0 110 -30t81 -81.5t30 -111.5q0 -59 -30 -110.5t-81.5 -81.5t-110.5 -30h-237q-69 0 -119.5 34.5z" />
    <glyph glyph-name="uni0636" unicode="&#x636;" horiz-adv-x="1291" arabic-form="isolated" 
d="M207 -132.5q-74 43.5 -117.5 117.5t-43.5 161v187h144v-179q0 -48 24 -89t65 -65t89 -24q49 0 90.5 24t65.5 65t24 89v219h139v-227q0 -87 -42 -161t-115.5 -117.5t-161.5 -43.5q-87 0 -161 43.5zM681.5 34.5q-50.5 34.5 -77 93.5t-26.5 131v114h115v-134q0 -36 25.5 -62
t60.5 -26h260q30 0 51.5 22t21.5 52q0 32 -21.5 54.5t-51.5 22.5q-34 0 -82 -26l-273 -163l-48 127l287 172q25 16 56 24.5t60 8.5q59 0 110 -30t81 -81.5t30 -111.5q0 -59 -30 -110.5t-81.5 -81.5t-110.5 -30h-237q-69 0 -119.5 34.5zM975 651h128v-128h-128v128z" />
    <glyph glyph-name="uni0637" unicode="&#x637;" horiz-adv-x="680" arabic-form="isolated" 
d="M40 151h388q30 0 51.5 22t21.5 52q0 32 -22 55t-54 23q-14 0 -31 -7t-45 -25l-222 -130l-68 120l231 137q42 25 70.5 36t67.5 11q59 0 110 -30t81 -81.5t30 -111.5q0 -59 -30 -110.5t-81.5 -81.5t-110.5 -30h-387v151zM155 335q6 21 6 50v289h143v-168q0 -46 -8 -80
t-23 -47l-142 -75q18 10 24 31z" />
    <glyph glyph-name="uni0638" unicode="&#x638;" horiz-adv-x="680" arabic-form="isolated" 
d="M40 151h388q30 0 51.5 22t21.5 52q0 32 -22 55t-54 23q-14 0 -31 -7t-45 -25l-238 -141l-52 131l231 137q42 25 70.5 36t67.5 11q59 0 110 -30t81 -81.5t30 -111.5q0 -59 -30 -110.5t-81.5 -81.5t-110.5 -30h-387v151zM155 335q6 21 6 50v289h143v-168q0 -47 -5.5 -76
t-19.5 -42l-148 -84q18 10 24 31zM376 651h129v-128h-129v128z" />
    <glyph glyph-name="uni0639" unicode="&#x639;" horiz-adv-x="549" arabic-form="isolated" 
d="M190 -396q-67 39 -106.5 106t-39.5 146q0 72 33.5 128.5t91.5 90.5t131 43q7 1 17 17q12 16 19 16h141v-151h-141q-38 0 -70.5 -19t-51.5 -52t-19 -71q0 -39 19 -71.5t51.5 -51.5t70.5 -19h182v-151h-182q-79 0 -146 39zM222.5 56q-53.5 25 -84.5 70t-31 105
q0 63 31 113.5t85 79.5t118 29h110v-141h-110q-37 0 -60 -22.5t-23 -57.5q0 -37 23 -59t60 -22v-120q-65 0 -118.5 25z" />
    <glyph glyph-name="uni063A" unicode="&#x63a;" horiz-adv-x="549" arabic-form="isolated" 
d="M190 -396q-67 39 -106.5 106t-39.5 146q0 72 33.5 128.5t91.5 90.5t131 43q7 1 17 17q12 16 19 16h141v-151h-141q-38 0 -70.5 -19t-51.5 -52t-19 -71q0 -39 19 -71.5t51.5 -51.5t70.5 -19h182v-151h-182q-79 0 -146 39zM222.5 56q-53.5 25 -84.5 70t-31 105
q0 63 31 113.5t85 79.5t118 29h110v-141h-110q-37 0 -60 -22.5t-23 -57.5q0 -37 23 -59t60 -22v-120q-65 0 -118.5 25zM266 662h128v-128h-128v128z" />
    <glyph glyph-name="uni0641" unicode="&#x641;" horiz-adv-x="858" arabic-form="isolated" 
d="M172 34q-58 34 -92 92t-34 127v120h144v-112q0 -45 32 -77.5t77 -32.5h339q20 0 32.5 13t12.5 33v10h-47v0q-55 0 -101.5 25.5t-74 69.5t-27.5 97q0 56 28 103t74.5 74t100.5 27v0q54 0 97.5 -27t68.5 -74t25 -103v-210q0 -51 -25 -94.5t-68 -69t-95 -25.5h-340
q-69 0 -127 34zM692 340v64q0 26 -18 44t-43 18v0q-27 0 -45 -18t-18 -44q0 -27 18 -45.5t45 -18.5v0h61zM572 810h128v-128h-128v128z" />
    <glyph glyph-name="uni0642" unicode="&#x642;" horiz-adv-x="727" arabic-form="isolated" 
d="M292.5 317.5q29.5 50.5 80 80t109.5 29.5v0q59 0 106.5 -29.5t74.5 -79.5t27 -110v-209q0 -87 -43 -161t-117 -117.5t-162 -43.5q-87 0 -161 43.5t-117.5 117.5t-43.5 161v187h144v-179q0 -48 24 -89t65 -65.5t89 -24.5q49 0 90.5 24.5t65.5 65.5t24 89v-7h-66v0
q-60 0 -110 27t-79.5 74.5t-29.5 106.5t29.5 109.5zM433.5 169.5q19.5 -18.5 48.5 -18.5v0h66v65q0 29 -19 48.5t-47 19.5v0q-29 0 -48.5 -19.5t-19.5 -48.5q0 -28 19.5 -46.5zM328 641h128v-128h-128v128zM508 641h128v-128h-128v128z" />
    <glyph glyph-name="uni0643" unicode="&#x643;" horiz-adv-x="863" arabic-form="isolated" 
d="M172 34q-58 34 -92 92t-34 127v120h144v-112q0 -45 32 -77.5t77 -32.5h318q29 0 47.5 19.5t18.5 48.5v445h144v-445q0 -60 -27.5 -110t-75.5 -79.5t-107 -29.5h-318q-69 0 -127 34zM312 354l139 50q16 5 16 20q0 19 -18 23l-145 37l-38 67l205 150l47 -80l-94 -69l33 -9
q80 -21 97 -75q8 -20 8 -46q0 -40 -22.5 -72t-61.5 -47l-130 -48z" />
    <glyph glyph-name="uni0644" unicode="&#x644;" horiz-adv-x="729" arabic-form="isolated" 
d="M207 -132.5q-74 43.5 -117.5 117.5t-43.5 161v187h144v-179q0 -48 24 -89t65 -65t89 -24q49 0 90.5 24t65.5 65t24 89v520h144v-528q0 -87 -43.5 -161t-118 -117.5t-162.5 -43.5q-87 0 -161 43.5z" />
    <glyph glyph-name="uni0645" unicode="&#x645;" horiz-adv-x="729" arabic-form="isolated" 
d="M73.5 322q27.5 47 74.5 75t102 28h229v0q60 0 110 -27t79.5 -74.5t29.5 -106.5t-29.5 -109.5t-80 -80t-109.5 -29.5v0q-59 0 -106.5 29.5t-74.5 79.5t-27 110v65h-20q-25 0 -43 -18.5t-18 -43.5v-471h-144v471q0 55 27.5 102zM527.5 168.5q19.5 19.5 19.5 48.5
q0 28 -19.5 47t-48.5 19v0h-66v-66q0 -29 19 -48.5t47 -19.5v0q29 0 48.5 19.5z" />
    <glyph glyph-name="uni0646" unicode="&#x646;" horiz-adv-x="729" arabic-form="isolated" 
d="M207 -132.5q-74 43.5 -117.5 117.5t-43.5 161v187h144v-179q0 -48 24 -89t65 -65t89 -24q49 0 90.5 24t65.5 65t24 89v219h144v-227q0 -87 -43.5 -161t-118 -117.5t-162.5 -43.5q-87 0 -161 43.5zM301 466h129v-128h-129v128z" />
    <glyph glyph-name="uni0647" unicode="&#x647;" horiz-adv-x="507" arabic-form="isolated" 
d="M61 129q-15 37 -15 77q0 43 17.5 84.5t50.5 74.5l46 46l-45 44l103 100l191 -190q33 -33 50 -74.5t17 -84.5q0 -40 -15 -77t-45 -67q-32 -31 -72 -47t-83 -16t-83 16t-72 47q-30 30 -45 67zM262 149q28 0 47 21q19 18 19 44q0 28 -21 49l-46 47l-46 -45q-21 -21 -21 -49
q0 -27 20 -46q20 -21 48 -21z" />
    <glyph glyph-name="uni0648" unicode="&#x648;" horiz-adv-x="509" arabic-form="isolated" 
d="M252.5 -95q43.5 24 59.5 45t16 50h-65v0q-60 0 -110 27t-79.5 74.5t-29.5 106.5q0 60 29.5 110t79.5 79.5t110 29.5v0q58 0 106 -29.5t75 -79.5t27 -110v-146q0 -93 -28.5 -150.5t-92 -100t-185.5 -95.5l-45 127q89 38 132.5 62zM328 142v67q0 29 -18.5 48t-46.5 19v0
q-29 0 -48.5 -19t-19.5 -48t19.5 -48t48.5 -19v0h65z" />
    <glyph glyph-name="uni0649" unicode="&#x649;" horiz-adv-x="767" arabic-form="isolated" 
d="M172 -191q-58 34 -92 92t-34 127v243h144v-235q0 -45 32 -77.5t77 -32.5h229q24 0 39 15.5t15 39.5q0 18 -11 33t-30 19l-258 59v131q0 57 29.5 106.5t80 78.5t108.5 29h186v-143h-188q-29 0 -50.5 -21.5t-21.5 -50.5v-16q56 -12 79.5 -17.5t40.5 -9.5l40 -9
q63 -19 103 -73t40 -121q0 -55 -27 -101t-73.5 -73t-101.5 -27h-229q-69 0 -127 34z" />
    <glyph glyph-name="uni064A" unicode="&#x64a;" horiz-adv-x="767" arabic-form="isolated" 
d="M172 -191q-58 34 -92 92t-34 127v243h144v-235q0 -45 32 -77.5t77 -32.5h229q24 0 39 15.5t15 39.5q0 18 -11 33t-30 19l-258 59v131q0 57 29.5 106.5t80 78.5t108.5 29h186v-143h-188q-29 0 -50.5 -21.5t-21.5 -50.5v-16q56 -12 79.5 -17.5t40.5 -9.5l40 -9
q63 -19 103 -73t40 -121q0 -55 -27 -101t-73.5 -73t-101.5 -27h-229q-69 0 -127 34zM234 -311h128v-128h-128v128zM414 -311h128v-128h-128v128z" />
    <glyph glyph-name="uni066E.init" unicode="&#x66e;" horiz-adv-x="274" 
d="M-10 10v131q0 10 10 10h54q19 0 32.5 14t13.5 33v205h143v-214q0 -51 -25 -94.5t-68 -69t-95 -25.5h-55q-10 0 -10 10z" />
    <glyph glyph-name="uni066E.medi" unicode="&#x66e;" horiz-adv-x="336" 
d="M0 151h50q20 0 33 13.5t13 33.5v175h144v-175q0 -20 13 -33.5t33 -13.5h50q10 0 10 -10v-131q0 -10 -10 -10h-50q-38 0 -68.5 15t-49.5 41q-19 -26 -49.5 -41t-68.5 -15h-50q-10 0 -10 10v131q0 10 10 10z" />
    <glyph glyph-name="uni066E.fina" unicode="&#x66e;" horiz-adv-x="915" 
d="M172 34q-58 34 -92 92t-34 127v120h144v-112q0 -45 32 -77.5t77 -32.5h318q29 0 47.5 19.5t18.5 48.5v154h117v-154q0 -95 -48 -157t-135 -62h-318q-69 0 -127 34zM754.5 53.5q-42.5 53.5 -42.5 135.5v184h115v-175q0 -20 13 -33.5t33 -13.5h42q10 0 10 -10v-131
q0 -10 -10 -10h-42q-76 0 -118.5 53.5z" />
    <glyph glyph-name="uni066F.fina" unicode="&#x66f;" horiz-adv-x="729" 
d="M207 -279.5q-74 43.5 -117.5 117.5t-43.5 161v187h144v-179q0 -48 24 -89t65 -65.5t89 -24.5q49 0 90.5 24.5t65.5 65.5t24 89v-7h-66v0q-60 0 -110 27t-79.5 74.5t-29.5 106.5t29.5 109.5t80 80t109.5 29.5v0q59 0 106.5 -29.5t74.5 -79.5t27 -110v-209q0 -87 -43 -161
t-117 -117.5t-162 -43.5q-87 0 -161 43.5zM548 151v65q0 29 -19 48.5t-47 19.5v0q-29 0 -48.5 -19.5t-19.5 -48.5q0 -28 19.5 -46.5t48.5 -18.5v0h66zM690 151h39q10 0 10 -10v-131q0 -10 -10 -10h-39v151z" />
    <glyph glyph-name="uni0671" unicode="&#x671;" horiz-adv-x="230" arabic-form="isolated" 
d="M45 634h144v-634h-144v634zM35.5 699.5q-27.5 27.5 -27.5 67.5v23l71 3l3 -14q8 -14 24 -14h88q10 0 17.5 7.5t7.5 18.5q0 12 -7 20t-19 9q-6 0 -14.5 -4.5t-22.5 -13.5l-115 -70l-32 86l116 71q30 19 69 19q31 0 58 -16t43 -43t16 -58q0 -50 -34 -84.5t-83 -34.5h-93
q-38 0 -65.5 27.5zM-113 804l140 83l44 -79l6 -9l-139 -83z" />
    <glyph glyph-name="uni0679" unicode="&#x679;" horiz-adv-x="858" arabic-form="isolated" 
d="M172.5 34q-58.5 34 -92.5 92t-34 127v120h144v-112q0 -45 32 -77.5t78 -32.5h317q29 0 48 19.5t19 48.5v154h143v-154q0 -60 -27.5 -110t-75.5 -79.5t-107 -29.5h-317q-69 0 -127.5 34zM318 467h158q11 0 18.5 7.5t7.5 18.5q0 13 -7 20.5t-20 7.5q-6 1 -12.5 -2.5
t-13.5 -8t-11 -6.5l-114 -70l-33 85l117 71q32 20 68 20q48 0 82.5 -34.5t34.5 -82.5q0 -50 -34 -85t-83 -35h-158v94zM328.5 556q3.5 15 3.5 42v103h96v-68v48q0 -35 -9 -62t-26 -38l-76 -46q8 6 11.5 21z" />
    <glyph glyph-name="uni067E" unicode="&#x67e;" horiz-adv-x="858" arabic-form="isolated" 
d="M172 34q-58 34 -92 92t-34 127v120h144v-112q0 -45 32 -77.5t77 -32.5h318q29 0 47.5 19.5t18.5 48.5v154h144v-154q0 -60 -27.5 -110t-75.5 -79.5t-107 -29.5h-318q-69 0 -127 34zM398 -264h129v-128h-129v128zM307 -85h128v-128h-128v128zM486 -85h129v-128h-129v128z
" />
    <glyph glyph-name="uni0686" unicode="&#x686;" horiz-adv-x="709" arabic-form="isolated" 
d="M180.5 -284q-57.5 34 -91 91.5t-33.5 123.5q0 56 24.5 107t68.5 87l257 189l-107 51q-16 8 -29 8q-25 0 -48 -21l-75 -81l-100 87l76 91q28 34 66.5 50t79.5 16q45 0 86 -22l216 -101q8 -2 15 -2h92v-141h-121l-309 -227q-41 -33 -41 -88q0 -45 32.5 -77t76.5 -32h290
v-143h-301q-67 0 -124.5 34zM440 -42h106v-97h-106v97zM378 86h106v-107h-106v107zM505 86h107v-107h-107v107z" />
    <glyph glyph-name="uni0688" unicode="&#x688;" horiz-adv-x="518" arabic-form="isolated" 
d="M44 151h250q22 0 35.5 13t13.5 33q0 14 -8.5 24.5t-30.5 25.5l-210 144l81 119l234 -162q38 -29 57.5 -63.5t19.5 -83.5q0 -56 -27.5 -102t-74.5 -72.5t-102 -26.5h-238v151zM65 705h157q11 0 18.5 7t7.5 18q0 12 -7 20t-19 9q-6 0 -14.5 -4.5t-22.5 -13.5l-115 -70
l-32 86l116 71q30 19 68 19q48 0 83 -34.5t35 -82.5q0 -50 -34 -84.5t-84 -34.5h-157v94zM75.5 793q3.5 15 3.5 42v103h96v-68v49q0 -35 -9.5 -62t-26.5 -39l-75 -45q8 5 11.5 20z" />
    <glyph glyph-name="uni0691" unicode="&#x691;" horiz-adv-x="286" arabic-form="isolated" 
d="M57 -97q30 25 40 54t10 84v332h144v-332q0 -84 -21 -138t-72 -96.5t-148 -90.5l-54 121q71 41 101 66zM55 575h158q10 0 17.5 7t7.5 18q0 28 -26 29q-6 0 -14.5 -4.5t-22.5 -13.5l-115 -69l-32 85l116 71q30 19 69 19q48 0 82.5 -34.5t34.5 -82.5q0 -50 -34 -84.5
t-83 -34.5h-158v94zM65.5 663q3.5 15 3.5 43v102h96v-68v48q0 -34 -9 -61t-26 -39l-76 -45q8 5 11.5 20z" />
    <glyph glyph-name="uni0695.fina" unicode="&#x695;" horiz-adv-x="339" 
d="M57 -97q30 25 40 54t10 84v332h144v-332q0 -84 -21 -138t-72 -96.5t-148 -90.5l-54 121q71 41 101 66zM185.5 52q-35.5 52 -35.5 137v184h101v-175q0 -20 13 -33.5t33 -13.5h42q10 0 10 -10v-131q0 -10 -10 -10h-42q-76 0 -111.5 52zM92.5 -376.5q41.5 -24.5 42.5 -77.5
q1 53 43 77.5t116 24.5v-107q-37 -3 -60.5 -12t-38 -32.5t-14.5 -67.5h-90q0 44 -14.5 67.5t-38.5 32.5t-61 12v107q74 0 115.5 -24.5z" />
    <glyph glyph-name="uni0698" unicode="&#x698;" horiz-adv-x="323" arabic-form="isolated" 
d="M57 -97q30 25 40 54t10 84v332h144v-332q0 -84 -21 -138t-72 -96.5t-148 -90.5l-54 121q71 41 101 66zM27 587h128v-128h-128v128zM200 587h128v-128h-128v128zM114 767h128v-129h-128v129z" />
    <glyph glyph-name="uni06A1.init" unicode="&#x6a1;" horiz-adv-x="464" 
d="M-10 10v131q0 10 10 10h244q20 0 33 13t13 33v10h-48v0q-55 0 -101.5 25.5t-74 69.5t-27.5 97q0 56 28 102.5t74.5 74t100.5 27.5v0q54 0 97.5 -27t68.5 -74t25 -103v-210q0 -51 -25 -94.5t-68 -69t-95 -25.5h-245q-10 0 -10 10zM237 340h62v64q0 26 -18 44t-44 18v0
q-27 0 -45 -18t-18 -44q0 -27 18 -45.5t45 -18.5v0z" />
    <glyph glyph-name="uni06A1.medi" unicode="&#x6a1;" horiz-adv-x="491" 
d="M58.5 330.5q29.5 48.5 79.5 76.5t110 28v0q60 0 110 -28t79.5 -76.5t29.5 -108.5q0 -61 -29 -108.5t-79.5 -74t-110.5 -26.5v0q-60 0 -110.5 26.5t-79.5 74t-29 108.5q0 60 29.5 108.5zM-10 10v131q0 10 10 10h491q10 0 10 -10v-131q0 -10 -10 -10h-491q-10 0 -10 10z
M199.5 170q19.5 -19 48.5 -19v0q29 0 48 18.5t19 47.5t-19 47.5t-48 18.5v0q-29 0 -48.5 -19t-19.5 -47t19.5 -47z" />
    <glyph glyph-name="uni06A1.fina" unicode="&#x6a1;" horiz-adv-x="894" 
d="M172 34q-58 34 -92 92t-34 127v120h144v-112q0 -45 32 -77.5t77 -32.5h595q10 0 10 -10v-131q0 -10 -10 -10h-595q-69 0 -127 34zM835 113.5q-29 -47.5 -79.5 -74t-110.5 -26.5v0q-60 0 -110.5 26.5t-79.5 74t-29 108.5q0 60 29.5 108.5t79.5 76.5t110 28v0q60 0 110 -28
t79.5 -76.5t29.5 -108.5q0 -61 -29 -108.5zM693.5 264q-19.5 19 -48.5 19v0q-29 0 -48 -19t-19 -47t19 -47t48 -19v0q29 0 48.5 19t19.5 47t-19.5 47z" />
    <glyph glyph-name="uni06A9" unicode="&#x6a9;" horiz-adv-x="858" arabic-form="isolated" 
d="M172 34q-58 34 -92 92t-34 127v119h144v-111q0 -45 32 -77.5t77 -32.5h318q27 0 46.5 18t19.5 48q0 36 -35 57l-225 149v109l199 212l98 -93l-148 -155l166 -109q42 -27 65.5 -72.5t23.5 -100.5q0 -58 -28.5 -107t-76.5 -78t-106 -29h-317q-69 0 -127 34z" />
    <glyph glyph-name="uni06AF" unicode="&#x6af;" horiz-adv-x="858" arabic-form="isolated" 
d="M172 34q-58 34 -92 92t-34 127v119h144v-111q0 -45 32 -77.5t77 -32.5h318q27 0 46.5 18t19.5 48q0 36 -35 57l-225 149v109l199 212l98 -93l-148 -155l166 -109q42 -27 65.5 -72.5t23.5 -100.5q0 -58 -28.5 -107t-76.5 -78t-106 -29h-317q-69 0 -127 34zM315 619
l176 186l69 -70l-176 -186z" />
    <glyph glyph-name="uni06B5.init" unicode="&#x6b5;" horiz-adv-x="265" 
d="M-10 10v131q0 10 10 10h38q19 0 32.5 14t13.5 33v476h143v-485q0 -51 -25 -94.5t-68 -69t-95 -25.5h-39q-10 0 -10 10zM104.5 803.5q-14.5 23.5 -38.5 32.5t-61 12v107q74 1 115.5 -24t42.5 -77q1 52 43.5 77t115.5 24v-107q-37 -3 -60.5 -12t-38 -32.5t-14.5 -67.5h-90
q0 44 -14.5 67.5z" />
    <glyph glyph-name="uni06B5.medi" unicode="&#x6b5;" horiz-adv-x="321" 
d="M-10 10v131q0 10 10 10h42q20 0 33.5 13.5t13.5 33.5v476h143v-476q0 -20 13 -33.5t33 -13.5h43q10 0 10 -10v-131q0 -10 -10 -10h-43q-38 0 -68 15t-50 41q-19 -26 -49.5 -41t-68.5 -15h-42q-10 0 -10 10zM106.5 803.5q-14.5 23.5 -38 32.5t-60.5 12v107q73 1 115 -24
t43 -77q1 52 42.5 77t115.5 24v-107q-37 -3 -60.5 -12t-38 -32.5t-14.5 -67.5h-90q0 44 -14.5 67.5z" />
    <glyph glyph-name="uni06B5.fina" unicode="&#x6b5;" horiz-adv-x="782" 
d="M207 -132.5q-74 43.5 -117.5 117.5t-43.5 161v187h144v-179q0 -48 24 -89t65 -65t89 -24q49 0 90.5 24t65.5 65t24 89v520h139v-528q0 -87 -42.5 -161t-115.5 -117.5t-161 -43.5q-87 0 -161 43.5zM636.5 50.5q-28.5 50.5 -28.5 138.5v485h85v-476q0 -20 13.5 -33.5
t32.5 -13.5h43q10 0 10 -10v-131q0 -10 -10 -10h-43q-74 0 -102.5 50.5zM558.5 803.5q-14.5 23.5 -38.5 32.5t-61 12v107q73 1 115.5 -24t43.5 -77q1 52 42.5 77t115.5 24v-107q-37 -3 -60.5 -12t-38 -32.5t-14.5 -67.5h-90q0 44 -14.5 67.5z" />
    <glyph glyph-name="uni06BA" unicode="&#x6ba;" horiz-adv-x="729" arabic-form="isolated" 
d="M207 -132.5q-74 43.5 -117.5 117.5t-43.5 161v187h144v-179q0 -48 24 -89t65 -65t89 -24q49 0 90.5 24t65.5 65t24 89v219h144v-227q0 -87 -43.5 -161t-118 -117.5t-162.5 -43.5q-87 0 -161 43.5z" />
    <glyph glyph-name="uni06C0" unicode="&#x6c0;" horiz-adv-x="522" arabic-form="isolated" 
d="M61 129q-15 37 -15 77q0 43 17.5 84.5t50.5 74.5l46 46l-45 44l103 100l191 -190q33 -33 50 -74.5t17 -84.5q0 -40 -15 -77t-45 -67q-32 -31 -72 -47t-83 -16t-83 16t-72 47q-30 30 -45 67zM262 149q28 0 47 21q19 18 19 44q0 28 -21 49l-46 47l-46 -45q-21 -21 -21 -49
q0 -27 20 -46q20 -21 48 -21zM135 695l124 33q7 1 11 6t4 11q0 8 -6 13.5t-14 4.5l-142 -4l-21 71q-4 13 -4 31q0 40 25.5 74t64.5 44l103 28l26 -91l-104 -29q-24 -7 -21 -26l1 -6q76 3 78 3q39 0 67.5 -22.5t38.5 -62.5q3 -13 3 -28q0 -39 -23 -70t-61 -41l-123 -33z" />
    <glyph glyph-name="uni06C1" unicode="&#x6c1;" horiz-adv-x="505" arabic-form="isolated" 
d="M59 129q-15 37 -15 77q0 44 17.5 85.5t50.5 73.5l46 46l-45 44l102 100l192 -190q33 -33 50 -74.5t17 -84.5q0 -40 -15.5 -77t-45.5 -67q-32 -31 -72 -47t-83 -16t-83 16t-72 47q-29 30 -44 67zM259 149q27 0 48 21q19 18 19 44q0 27 -22 49l-46 47l-45 -45
q-21 -21 -21 -49q0 -27 19 -46q21 -21 48 -21z" />
    <glyph glyph-name="uni06C2.fina" unicode="&#x6c2;" horiz-adv-x="557" 
d="M150 59.5q-51 29.5 -80.5 79.5t-29.5 110q0 58 29.5 106t80.5 75t111 27v0h66v64h142v-272q0 -60 -27 -110t-74.5 -79.5t-106.5 -29.5v0q-60 0 -111 29.5zM308 200.5q19 19.5 19 48.5v64h-66v0q-29 0 -48.5 -18t-19.5 -46q0 -29 19.5 -48.5t48.5 -19.5v0q28 0 47 19.5z
M424.5 25q-38.5 25 -59 68.5t-20.5 95.5v184h124v-175q0 -20 13 -33.5t33 -13.5h42q10 0 10 -10v-131q0 -10 -10 -10h-42q-52 0 -90.5 25zM87 621l89 33q-24 18 -34 46q-6 17 -6 33q0 37 24.5 69.5t64.5 46.5l81 28l37 -102l-70 -26q-9 -3 -14 -10t-5 -16q0 -12 8 -20.5
t20 -8.5q7 0 13 3l95 34l37 -102l-304 -111z" />
    <glyph glyph-name="uni06C3.fina" unicode="&#x6c3;" horiz-adv-x="547" 
d="M318 529h128v-128h-128v128zM138 529h128v-128h-128v128zM557 141v-131q0 -10 -10 -10h-43q-54 0 -100 23.5t-73 65.5l-51 78l-155 -148l-94 98l212 199h110l86 -130q23 -35 57 -35h51q10 0 10 -10z" />
    <glyph glyph-name="uni06CC" unicode="&#x6cc;" horiz-adv-x="767" arabic-form="isolated" 
d="M172 -191q-58 34 -92 92t-34 127v243h144v-235q0 -45 32 -77.5t77 -32.5h229q24 0 39 15.5t15 39.5q0 18 -11 33t-30 19l-258 59v131q0 57 29.5 106.5t80 78.5t108.5 29h186v-143h-188q-29 0 -50.5 -21.5t-21.5 -50.5v-16q56 -12 79.5 -17.5t40.5 -9.5l40 -9
q63 -19 103 -73t40 -121q0 -55 -27 -101t-73.5 -73t-101.5 -27h-229q-69 0 -127 34z" />
    <glyph glyph-name="uni06ce.init" unicode="&#x6ce;" horiz-adv-x="329" 
d="M-10 10v131q0 10 10 10h79q19 0 32 13.5t13 33.5v205h144v-214q0 -51 -25 -94.5t-68 -69t-95 -25.5h-80q-10 0 -10 10zM117.5 573q-14.5 23 -38.5 32t-61 12v107q73 1 115.5 -24t43.5 -77q1 52 42.5 77t115.5 24v-107q-37 -3 -60.5 -12t-38 -32t-14.5 -67h-90
q0 44 -14.5 67zM0 -86h128v-128h-128v128zM180 -86h129v-128h-129v128z" />
    <glyph glyph-name="uni06ce.medi" unicode="&#x6ce;" horiz-adv-x="366" 
d="M124 528.5q-14 23.5 -38 32.5t-61 12v107q74 0 115.5 -25t42.5 -77q1 52 43 77t115 25v-107q-37 -3 -60.5 -12t-37.5 -32.5t-14 -67.5h-91q0 44 -14 67.5zM-10 10v131q0 10 10 10h65q20 0 33 13.5t13 33.5v175h144v-175q0 -20 13 -33.5t33 -13.5h65q10 0 10 -10v-131
q0 -10 -10 -10h-65q-74 0 -118 49q-46 -49 -118 -49h-65q-10 0 -10 10zM28 -86h129v-128h-129v128zM209 -86h128v-128h-128v128z" />
    <glyph glyph-name="uni06ce.fina" unicode="&#x6ce;" horiz-adv-x="768" 
d="M150.5 491.5q-14.5 23.5 -38 32t-61.5 11.5v108q74 0 116 -25t43 -77q1 52 42.5 77t115.5 25v-108q-37 -3 -60.5 -11.5t-38 -32t-14.5 -67.5h-90q0 44 -14.5 67.5zM172 -216q-58 34 -92 92t-34 127v243h144v-235q0 -45 32 -77.5t77 -32.5h232q21 0 35.5 15t14.5 35
t-14.5 34.5t-35.5 14.5h-191v124h188q88 0 145 -46.5t57 -126.5q0 -55 -27 -101t-73 -73t-102 -27h-229q-69 0 -127 34zM324 151h444q10 0 10 -10v-131q0 -10 -10 -10h-444v151z" />
    <glyph glyph-name="uni06D2" unicode="&#x6d2;" horiz-adv-x="647" arabic-form="isolated" 
d="M131.5 27q-46.5 27 -73.5 73t-27 101q0 67 40 121t104 73l40 9q88 20 120 27l45 -137l-159 -36q-19 -4 -30 -19t-11 -33q0 -24 15 -39.5t39 -15.5h378v-151h-378q-56 0 -102.5 27z" />
    <glyph glyph-name="uni06d5.fina" unicode="&#x6d5;" horiz-adv-x="559" 
d="M152.5 59.5q-50.5 29.5 -80.5 80t-30 109.5q0 58 30 105.5t80.5 75t110.5 27.5v0h66v64h142v-272q0 -60 -27 -110t-74.5 -79.5t-106.5 -29.5v0q-60 0 -110.5 29.5zM310 200.5q19 19.5 19 48.5v64h-66v0q-29 0 -48.5 -18t-19.5 -46q0 -29 19.5 -48.5t48.5 -19.5v0
q28 0 47 19.5zM426.5 25q-38.5 25 -59 68.5t-20.5 95.5v184h124v-175q0 -20 13 -33.5t33 -13.5h42q10 0 10 -10v-131q0 -10 -10 -10h-42q-52 0 -90.5 25z" />
    <glyph glyph-name="uni0671.fina" unicode="&#x671;" horiz-adv-x="290" arabic-form="final" 
d="M139 25.5q-43 25.5 -68 69t-25 94.5v445h144v-436q0 -20 13 -33.5t32 -13.5h55q10 0 10 -10v-131q0 -10 -10 -10h-56q-52 0 -95 25.5zM-113 804l140 83l44 -79l6 -9l-139 -83zM35.5 699.5q-27.5 27.5 -27.5 67.5v19l71 7v-7q0 -4 9 -12.5t18 -8.5h88q10 0 17.5 7.5
t7.5 18.5q0 12 -7 20t-19 9q-6 0 -14.5 -4.5t-22.5 -13.5l-115 -70l-32 86l116 71q30 19 69 19q31 0 58 -16t43 -43t16 -58q0 -50 -34 -84.5t-83 -34.5h-93q-38 0 -65.5 27.5z" />
    <glyph glyph-name="uni067E.fina" unicode="&#x67e;" horiz-adv-x="915" arabic-form="final" 
d="M172 34q-58 34 -92 92t-34 127v120h144v-112q0 -45 32 -77.5t77 -32.5h318q29 0 47.5 19.5t18.5 48.5v154h117v-154q0 -95 -48 -157t-135 -62h-318q-69 0 -127 34zM398 -264h129v-128h-129v128zM307 -85h128v-128h-128v128zM486 -85h129v-128h-129v128zM754.5 53.5
q-42.5 53.5 -42.5 135.5v184h115v-175q0 -20 13 -33.5t33 -13.5h42q10 0 10 -10v-131q0 -10 -10 -10h-42q-76 0 -118.5 53.5z" />
    <glyph glyph-name="uni067E.init" unicode="&#x67e;" horiz-adv-x="336" arabic-form="initial" 
d="M-10 10v131q0 10 10 10h108q19 0 32.5 14t13.5 33v205h143v-214q0 -51 -25 -94.5t-68 -69t-95 -25.5h-109q-10 0 -10 10zM91 -264h128v-128h-128v128zM-1 -85h129v-128h-129v128zM179 -85h128v-128h-128v128z" />
    <glyph glyph-name="uni067E.medi" unicode="&#x67e;" horiz-adv-x="366" arabic-form="medial" 
d="M0 151h65q20 0 33 13.5t13 33.5v175h144v-175q0 -20 13 -33.5t33 -13.5h65q10 0 10 -10v-131q0 -10 -10 -10h-65q-74 0 -118 49q-46 -49 -118 -49h-65q-10 0 -10 10v131q0 10 10 10zM119 -264h129v-128h-129v128zM28 -85h129v-128h-129v128zM208 -85h128v-128h-128v128z
" />
    <glyph glyph-name="uni0679.fina" unicode="&#x679;" horiz-adv-x="915" arabic-form="final" 
d="M172 34q-58 34 -92 92t-34 127v120h144v-112q0 -45 32 -77.5t77 -32.5h318q29 0 47.5 19.5t18.5 48.5v154h117v-154q0 -95 -48 -157t-135 -62h-318q-69 0 -127 34zM754.5 53.5q-42.5 53.5 -42.5 135.5v184h115v-175q0 -20 13 -33.5t33 -13.5h42q10 0 10 -10v-131
q0 -10 -10 -10h-42q-76 0 -118.5 53.5zM318 469h157q11 0 18.5 7t7.5 18q0 13 -6.5 20.5t-19.5 8.5q-6 0 -14.5 -4.5t-22.5 -13.5l-115 -69l-32 85l116 71q30 19 68 19q48 0 83 -34.5t35 -82.5q0 -50 -34.5 -84.5t-83.5 -34.5h-157v94zM328.5 557q3.5 15 3.5 43v102h96v-68
v48q0 -34 -9.5 -61t-26.5 -39l-75 -45q8 5 11.5 20z" />
    <glyph glyph-name="uni0679.init" unicode="&#x679;" horiz-adv-x="274" arabic-form="initial" 
d="M-10 10v131q0 10 10 10h54q19 0 32.5 14t13.5 33v205h143v-214q0 -51 -25 -94.5t-68 -69t-95 -25.5h-55q-10 0 -10 10zM1 596h158q10 0 17.5 7.5t7.5 18.5q0 13 -6.5 20.5t-19.5 8.5q-6 0 -14.5 -4.5t-22.5 -13.5l-115 -70l-32 86l116 71q30 19 69 19q31 0 58 -16t43 -43
t16 -58q0 -50 -34 -84.5t-83 -34.5h-158v93zM11.5 685q3.5 15 3.5 42v103h96v-68v49q0 -35 -9 -62t-26 -39l-76 -46q8 6 11.5 21z" />
    <glyph glyph-name="uni0679.medi" unicode="&#x679;" horiz-adv-x="336" arabic-form="medial" 
d="M0 151h50q20 0 33 13.5t13 33.5v175h144v-175q0 -20 13 -33.5t33 -13.5h50q10 0 10 -10v-131q0 -10 -10 -10h-50q-38 0 -68.5 15t-49.5 41q-19 -26 -49.5 -41t-68.5 -15h-50q-10 0 -10 10v131q0 10 10 10zM60 567h157q11 0 18.5 7.5t7.5 18.5q0 13 -7 20.5t-20 7.5
q-6 1 -14 -3.5t-22 -13.5l-115 -70l-33 85l117 71q32 20 68 20q48 0 82.5 -34.5t34.5 -82.5q0 -50 -34 -85t-83 -35h-157v94zM74 698v103h96v-68v48q0 -35 -9.5 -62t-26.5 -38l-76 -46q16 12 16 63z" />
    <glyph glyph-name="uni06A4.fina" unicode="&#x6a4;" horiz-adv-x="894" arabic-form="final" 
d="M172 34q-58 34 -92 92t-34 127v120h144v-112q0 -45 32 -77.5t77 -32.5h595q10 0 10 -10v-131q0 -10 -10 -10h-595q-69 0 -127 34zM835 113.5q-29 -47.5 -79.5 -74t-110.5 -26.5v0q-60 0 -110.5 26.5t-79.5 74t-29 108.5q0 60 29.5 108.5t79.5 76.5t110 28v0q60 0 110 -28
t79.5 -76.5t29.5 -108.5q0 -61 -29 -108.5zM693.5 264q-19.5 19 -48.5 19v0q-29 0 -48 -19t-19 -47t19 -47t48 -19v0q29 0 48.5 19t19.5 47t-19.5 47zM492 641h129v-128h-129v128zM673 641h128v-128h-128v128zM584 820h128v-128h-128v128z" />
    <glyph glyph-name="uni06A4.init" unicode="&#x6a4;" horiz-adv-x="464" arabic-form="initial" 
d="M-10 10v131q0 10 10 10h244q20 0 33 13t13 33v10h-48v0q-55 0 -101.5 25.5t-74 69.5t-27.5 97q0 56 28 102.5t74.5 74t100.5 27.5v0q54 0 97.5 -27t68.5 -74t25 -103v-210q0 -51 -25 -94.5t-68 -69t-95 -25.5h-245q-10 0 -10 10zM237 340h62v64q0 26 -18 44t-44 18v0
q-27 0 -45 -18t-18 -44q0 -27 18 -45.5t45 -18.5v0zM91 811h128v-128h-128v128zM271 811h129v-128h-129v128zM182 990h128v-128h-128v128z" />
    <glyph glyph-name="uni06A4.medi" unicode="&#x6a4;" horiz-adv-x="491" arabic-form="medial" 
d="M58.5 330.5q29.5 48.5 79.5 76.5t110 28v0q60 0 110 -28t79.5 -76.5t29.5 -108.5q0 -61 -29 -108.5t-79.5 -74t-110.5 -26.5v0q-60 0 -110.5 26.5t-79.5 74t-29 108.5q0 60 29.5 108.5zM-10 10v131q0 10 10 10h491q10 0 10 -10v-131q0 -10 -10 -10h-491q-10 0 -10 10z
M199.5 170q19.5 -19 48.5 -19v0q29 0 48 18.5t19 47.5t-19 47.5t-48 18.5v0q-29 0 -48.5 -19t-19.5 -47t19.5 -47zM93 641h129v-128h-129v128zM274 641h128v-128h-128v128zM185 820h128v-128h-128v128z" />
    <glyph glyph-name="uni0686.fina" unicode="&#x686;" horiz-adv-x="714" arabic-form="final" 
d="M180.5 -284q-57.5 34 -91 91.5t-33.5 123.5q0 56 24.5 107t68.5 87l257 189l-107 51q-16 8 -29 8q-25 0 -48 -21l-75 -81l-100 87l76 91q28 34 66.5 50t79.5 16q45 0 86 -22l216 -101q8 -2 15 -2h92v-141h-122l-18 -13v-38q0 -20 13 -33.5t33 -13.5h130q10 0 10 -10v-131
q0 -10 -10 -10h-130q-74 0 -116.5 37t-43.5 105v10l-176 -130q-41 -33 -41 -88q0 -45 32.5 -77t76.5 -32h290v-143h-301q-67 0 -124.5 34zM325 -79h72v-72h-72v72zM279 16h70v-72h-70v72zM371 16h72v-72h-72v72z" />
    <glyph glyph-name="uni0686.init" unicode="&#x686;" horiz-adv-x="721" arabic-form="initial" 
d="M-10 10v131q0 10 10 10h208q78 0 130 48l97 88l-139 67q-20 8 -30 8q-13 0 -25.5 -6t-21.5 -16l-92 -102l-100 88l92 112q29 33 67.5 49.5t78.5 16.5q28 0 47.5 -6.5t39.5 -16.5l215 -100q6 -3 16 -3h107v-140h-111l-162 -151q-46 -43 -106 -65t-124 -22h-187
q-10 0 -10 10zM219 -265h128v-128h-128v128zM127 -86h129v-128h-129v128zM307 -86h128v-128h-128v128z" />
    <glyph glyph-name="uni0686.medi" unicode="&#x686;" horiz-adv-x="719" arabic-form="medial" 
d="M-10 10v131q0 10 10 10h208q78 0 130 48l97 88l-139 67q-20 8 -30 8q-13 0 -26 -6t-21 -16l-92 -102l-100 88l92 112q29 33 67.5 49.5t78.5 16.5q28 0 47.5 -6.5t39.5 -16.5l215 -100q9 -3 16 -3h107v-140h-115l-18 -16v-24q0 -20 13.5 -33.5t33.5 -13.5h115q10 0 10 -10
v-131q0 -10 -10 -10h-115q-59 0 -98.5 33t-53.5 87l-35 -33q-46 -43 -106 -65t-124 -22h-187q-10 0 -10 10zM219 -264h128v-128h-128v128zM127 -85h129v-128h-129v128zM307 -85h128v-128h-128v128z" />
    <glyph glyph-name="uni0688.fina" unicode="&#x688;" horiz-adv-x="552" arabic-form="final" 
d="M44 151h238q22 0 37 12.5t15 34.5q0 6 -6 26l-95 258l136 51l123 -341q17 -41 54 -41h6q10 0 10 -10v-131q0 -10 -10 -10h-13q-41 0 -73 16t-48 40q-32 -32 -61 -44t-75 -12h-238v151zM195 728h157q11 0 18.5 7t7.5 18q0 12 -7 20t-19 9q-6 0 -14.5 -4.5t-22.5 -13.5
l-115 -70l-33 86l117 71q30 19 68 19q48 0 82.5 -34t34.5 -83q0 -50 -34 -84.5t-83 -34.5h-157v94zM209 858v103h96v-68v48q0 -35 -9 -61.5t-27 -38.5l-76 -45q16 10 16 62z" />
    <glyph glyph-name="uni0698.fina" unicode="&#x698;" horiz-adv-x="385" arabic-form="final" 
d="M57 -97q30 25 40 54t10 84v332h144v-332q0 -84 -21 -138t-72 -96.5t-148 -90.5l-54 121q71 41 101 66zM185.5 52q-35.5 52 -35.5 137v184h101v-175q0 -20 13 -33.5t33 -13.5h88q10 0 10 -10v-131q0 -10 -10 -10h-88q-76 0 -111.5 52zM32 587h128v-128h-128v128zM212 587
h128v-128h-128v128zM123 767h128v-129h-128v129z" />
    <glyph glyph-name="uni0691.fina" unicode="&#x691;" horiz-adv-x="339" arabic-form="final" 
d="M57 -97q30 25 40 54t10 84v332h144v-332q0 -84 -21 -138t-72 -96.5t-148 -90.5l-54 121q71 41 101 66zM185.5 52q-35.5 52 -35.5 137v184h101v-175q0 -20 13 -33.5t33 -13.5h42q10 0 10 -10v-131q0 -10 -10 -10h-42q-76 0 -111.5 52zM73 571h157q11 0 18.5 7.5t7.5 17.5
q0 13 -7 21t-19 8q-6 0 -14.5 -4.5t-22.5 -13.5l-115 -69l-33 85l117 71q32 20 68 20q48 0 82.5 -34.5t34.5 -83.5q0 -50 -34 -84.5t-83 -34.5h-157v94zM87 702v103h96v-69v48q0 -34 -9.5 -61t-26.5 -39l-76 -45q16 10 16 63z" />
    <glyph glyph-name="uni06A9.fina" unicode="&#x6a9;" horiz-adv-x="915" arabic-form="final" 
d="M172 34q-58 34 -92 92t-34 127v119h144v-111q0 -45 32 -77.5t77 -32.5h318q27 0 46.5 18t19.5 48q0 36 -35 57l-225 149v109l199 212l98 -93l-148 -155l166 -109q42 -27 65.5 -72.5t23.5 -100.5q0 -58 -28.5 -107t-76.5 -78t-106 -29h-317q-69 0 -127 34zM754 53.5
q-42 53.5 -42 135.5v25h115v-16q-1 -20 12 -33.5t34 -13.5h42q10 0 10 -10v-131q0 -10 -10 -10h-42q-77 0 -119 53.5z" />
    <glyph glyph-name="uni06A9.init" unicode="&#x6a9;" horiz-adv-x="465" arabic-form="initial" 
d="M0 151h225q27 0 46 18t19 48q0 36 -34 57l-226 149v109l199 212l99 -93l-149 -155l166 -109q42 -27 65.5 -72.5t23.5 -100.5q0 -58 -28.5 -107t-76.5 -78t-106 -29h-223q-10 0 -10 10v131q0 10 10 10z" />
    <glyph glyph-name="uni06A9.medi" unicode="&#x6a9;" horiz-adv-x="523" arabic-form="medial" 
d="M-10 10v131q0 10 10 10h225q27 0 46 18t19 48q0 36 -34 57l-226 149v109l199 212l99 -93l-149 -155l166 -109q42 -27 65.5 -72.5t23.5 -100.5q0 -58 -28.5 -107t-76.5 -78t-106 -29h-223q-10 0 -10 10zM361.5 53.5q-42.5 53.5 -42.5 135.5v25h115v-16q0 -20 13 -33.5
t33 -13.5h43q10 0 10 -10v-131q0 -10 -10 -10h-43q-76 0 -118.5 53.5z" />
    <glyph glyph-name="uni06AF.fina" unicode="&#x6af;" horiz-adv-x="915" arabic-form="final" 
d="M754 53.5q-42 53.5 -42 135.5v25h115v-16q-1 -20 12 -33.5t34 -13.5h42q10 0 10 -10v-131q0 -10 -10 -10h-42q-77 0 -119 53.5zM315 619l176 186l69 -70l-176 -186zM172 34q-58 34 -92 92t-34 127v119h144v-112q0 -45 32 -77t77 -32h318q27 0 46.5 18t19.5 48
q0 36 -35 57l-225 149v109l199 212l98 -93l-148 -155l166 -109q42 -27 65.5 -72.5t23.5 -100.5q0 -58 -28.5 -107t-76.5 -78t-106 -29h-317q-69 0 -127 34z" />
    <glyph glyph-name="uni06AF.init" unicode="&#x6af;" horiz-adv-x="558" arabic-form="initial" 
d="M-10 10v131q0 10 10 10h318q27 0 46 18t19 48q0 36 -34 57l-227 149v109l200 212l98 -93l-148 -155l166 -109q42 -27 65.5 -72.5t23.5 -100.5q0 -58 -28.5 -107t-76.5 -78t-106 -29h-316q-10 0 -10 10zM15 619l176 186l69 -70l-176 -186z" />
    <glyph glyph-name="uni06AF.medi" unicode="&#x6af;" horiz-adv-x="615" arabic-form="medial" 
d="M-10 10v131q0 10 10 10h318q27 0 46 18t19 48q0 36 -34 57l-227 149v109l200 212l98 -93l-148 -155l166 -109q42 -27 65.5 -72.5t23.5 -100.5q0 -58 -28.5 -107t-76.5 -78t-106 -29h-316q-10 0 -10 10zM454.5 53.5q-42.5 53.5 -42.5 135.5v25h115v-16q-1 -20 12.5 -33.5
t33.5 -13.5h42q10 0 10 -10v-131q0 -10 -10 -10h-42q-76 0 -118.5 53.5zM15 619l176 186l69 -70l-176 -186z" />
    <glyph glyph-name="uni06BA.fina" unicode="&#x6ba;" horiz-adv-x="782" arabic-form="final" 
d="M207 -132.5q-74 43.5 -117.5 117.5t-43.5 161v187h144v-179q0 -48 24 -89t65 -65t89 -24q49 0 90.5 24t65.5 65t24 89v219h139v-227q0 -87 -42.5 -161t-115.5 -117.5t-161 -43.5q-87 0 -161 43.5zM636.5 50.5q-28.5 50.5 -28.5 138.5v184h85v-175q0 -20 13.5 -33.5
t32.5 -13.5h43q10 0 10 -10v-131q0 -10 -10 -10h-43q-74 0 -102.5 50.5z" />
    <glyph glyph-name="uni06C0.fina" unicode="&#x6c0;" horiz-adv-x="559" arabic-form="final" 
d="M152.5 59.5q-50.5 29.5 -80.5 80t-30 109.5q0 58 30 105.5t80.5 75t110.5 27.5v0h66v64h142v-272q0 -60 -27 -110t-74.5 -79.5t-106.5 -29.5v0q-60 0 -110.5 29.5zM310 200.5q19 19.5 19 48.5v64h-66v0q-29 0 -48.5 -18t-19.5 -46q0 -29 19.5 -48.5t48.5 -19.5v0
q28 0 47 19.5zM426.5 25q-38.5 25 -59 68.5t-20.5 95.5v184h124v-175q0 -20 13 -33.5t33 -13.5h42q10 0 10 -10v-131q0 -10 -10 -10h-42q-52 0 -90.5 25zM80 597l123 33q7 1 11 6t4 11q0 7 -6 12.5t-14 5.5l-142 -5l-21 72q-4 13 -4 30q0 40 25.5 74t64.5 44l103 28l26 -91
l-104 -29q-24 -6 -21 -25l2 -7l77 3q39 0 67.5 -22.5t38.5 -62.5q4 -12 4 -28q0 -39 -23.5 -70t-61.5 -41l-123 -33z" />
    <glyph glyph-name="uni06C1.fina" unicode="&#x6c1;" horiz-adv-x="547" arabic-form="final" 
d="M557 141v-131q0 -10 -10 -10h-43q-54 0 -100 23.5t-73 65.5l-51 78l-155 -148l-94 98l212 199h110l86 -130q23 -35 57 -35h51q10 0 10 -10z" />
    <glyph glyph-name="uni06C1.init" unicode="&#x6c1;" horiz-adv-x="274" arabic-form="initial" 
d="M-10 10v131q0 10 10 10h54q19 0 32.5 14t13.5 33v205h143v-214q0 -51 -25 -94.5t-68 -69t-95 -25.5h-55q-10 0 -10 10zM22.5 -418q-25.5 27 -25.5 65q0 52 27.5 118t87.5 143l81 -55q-27 -36 -70 -108l-11 -19q25 1 47.5 -23t22.5 -55q0 -39 -27.5 -66t-65.5 -27
q-41 0 -66.5 27z" />
    <glyph glyph-name="uni06C1.medi" unicode="&#x6c1;" horiz-adv-x="583" arabic-form="medial" 
d="M269.5 -85.5q19.5 -19.5 46.5 -19.5h213v-142h-214q-56 0 -104 28t-76 76t-28 104v297h143v-297q0 -27 19.5 -46.5zM358.5 42q26.5 50 73.5 79.5t107 29.5h44q10 0 10 -10v-131q0 -10 -10 -10h-56q-29 0 -46.5 -19t-17.5 -49v-158h-131v158q0 60 26.5 110zM224 109
q-26 -50 -73 -79.5t-107 -29.5h-44q-10 0 -10 10v131q0 10 10 10h43q28 0 46 19.5t18 49.5v48h143v-48q0 -61 -26 -111z" />
    <glyph glyph-name="uni06BE.fina" unicode="&#x6be;" horiz-adv-x="553" arabic-form="final" 
d="M200 46q-49 26 -77.5 70t-28.5 96t29 96t77.5 70.5t105.5 26.5v0q56 0 99 -26t66.5 -70t23.5 -97t-23.5 -96.5t-66.5 -69.5t-99 -26v0q-57 0 -106 26zM200 -234q-49 26 -77.5 70t-28.5 96t29 96t77.5 70.5t105.5 26.5v0q56 0 99 -26t66.5 -70t23.5 -97t-23.5 -96.5
t-66.5 -69.5t-99 -26v0q-57 0 -106 26zM352 -109.5q19 19.5 19 45.5q0 27 -19 46t-46 19v0q-27 0 -46 -19t-19 -46q0 -26 19 -45.5t46 -19.5v0q27 0 46 19.5zM217 151h336q10 0 10 -10v-131q0 -10 -10 -10h-336v151zM352 170.5q19 19.5 19 45.5q0 27 -19 46t-46 19v0
q-27 0 -46 -19t-19 -46q0 -26 19 -45.5t46 -19.5v0q27 0 46 19.5zM44 405h262l-53 -144h-209v144z" />
    <glyph glyph-name="uni06BE.init" unicode="&#x6be;" horiz-adv-x="783" arabic-form="initial" 
d="M305 151q28 0 46.5 20t18.5 45t-18 45t-47 20t-47 -19t-18 -46q0 -30 19.5 -47.5t45.5 -17.5h227q29 0 48.5 18.5t19.5 46.5t-19.5 46.5t-48.5 18.5h-489v143h489q60 0 110 -27t79.5 -74.5t29.5 -106.5t-30 -108.5t-80.5 -78.5t-108.5 -29h-235q-64 0 -110 32.5t-70 82.5
t-24 101q0 46 27 92t75.5 75.5t109.5 29.5q73 0 115 -37.5t58 -83.5t16 -76q0 -72 -29.5 -120.5t-75 -72t-92.5 -23.5h-299l2 151h305z" />
    <glyph glyph-name="uni06BE.medi" unicode="&#x6be;" horiz-adv-x="840" arabic-form="medial" 
d="M721 107.5q-30 -49.5 -80.5 -78.5t-108.5 -29h-532q-10 0 -10 10v131q0 10 10 10h532q29 0 48.5 18.5t19.5 46.5t-19.5 46.5t-48.5 18.5h-489v143h489q60 0 110 -27t79.5 -74.5t29.5 -106.5t-30 -108.5zM470.5 115.5q-23.5 -43.5 -66.5 -69.5t-99 -26v0q-57 0 -106 26
t-77.5 70t-28.5 96t29 96t77.5 70.5t105.5 26.5v0q56 0 99 -26t66.5 -70t23.5 -97t-23.5 -96.5zM351 262q-19 19 -46 19v0q-27 0 -46 -19t-19 -46q0 -26 19 -45.5t46 -19.5v0q27 0 46 19.5t19 45.5q0 27 -19 46zM678.5 53.5q-42.5 53.5 -42.5 135.5v27h115v-18
q0 -20 13.5 -33.5t32.5 -13.5h43q10 0 10 -10v-131q0 -10 -10 -10h-43q-76 0 -118.5 53.5z" />
    <glyph glyph-name="uni06D2.fina" unicode="&#x6d2;" horiz-adv-x="538" arabic-form="final" 
d="M73 51q27 46 73.5 73t102.5 27h289q10 0 10 -10v-131q0 -10 -10 -10h-292q-21 0 -35.5 -14.5t-14.5 -34.5t14.5 -35t35.5 -15h236v-151h-233q-56 0 -102.5 27t-73.5 73t-27 101q0 54 27 100z" />
    <glyph glyph-name="uni06D3.fina" unicode="&#x6d3;" horiz-adv-x="538" arabic-form="final" 
d="M73 51q27 46 73.5 73t102.5 27h289q10 0 10 -10v-131q0 -10 -10 -10h-292q-21 0 -35.5 -14.5t-14.5 -34.5t14.5 -35t35.5 -15h236v-151h-233q-56 0 -102.5 27t-73.5 73t-27 101q0 54 27 100zM49 274l89 34q-10 7 -19.5 19.5t-14.5 26.5q-5 13 -5 33q0 37 24 69t64 46
l82 29l37 -103l-70 -26q-19 -6 -19 -25q0 -13 8 -21t20 -8q8 0 13 2l94 34l37 -101l-303 -112z" />
    <glyph glyph-name="uni06C7.fina" unicode="&#x6c7;" horiz-adv-x="512" arabic-form="final" 
d="M252.5 -95q43.5 24 59.5 45t16 50h-65v0q-60 0 -110 27t-79.5 74.5t-29.5 106.5q0 60 29.5 110t79.5 79.5t110 29.5v0q58 0 106 -29.5t75 -79.5t27 -110v-146q0 -93 -28.5 -150.5t-92 -100t-185.5 -95.5l-45 127q89 38 132.5 62zM328 142v67q0 29 -18.5 48t-46.5 19v0
q-29 0 -48.5 -19t-19.5 -48t19.5 -48t48.5 -19v0h65zM461 151h51q10 0 10 -10v-131q0 -10 -10 -10h-51v151zM152 646q-8 18 -8 39q0 38 18.5 69.5t50 49.5t68.5 18q38 0 69.5 -18t50 -49.5t18.5 -69.5q0 -43 -25 -78.5t-66 -50.5l-198 -71l-36 103l81 29q-15 11 -23 29z
M256 663q10 -10 26 -10q15 0 25 10t10 26t-10 26t-25 10q-16 0 -26 -10t-10 -26t10 -26z" />
    <glyph glyph-name="uni06C6.fina" unicode="&#x6c6;" horiz-adv-x="512" arabic-form="final" 
d="M252.5 -95q43.5 24 59.5 45t16 50h-65v0q-60 0 -110 27t-79.5 74.5t-29.5 106.5q0 60 29.5 110t79.5 79.5t110 29.5v0q58 0 106 -29.5t75 -79.5t27 -110v-146q0 -93 -28.5 -150.5t-92 -100t-185.5 -95.5l-45 127q89 38 132.5 62zM328 142v67q0 29 -18.5 48t-46.5 19v0
q-29 0 -48.5 -19t-19.5 -48t19.5 -48t48.5 -19v0h65zM461 151h51q10 0 10 -10v-131q0 -10 -10 -10h-51v151zM205.5 595q-14.5 23 -38.5 32t-61 12v107q73 1 115.5 -24t43.5 -77q1 52 42.5 77t115.5 24v-107q-37 -3 -60.5 -12t-38 -32t-14.5 -67h-90q0 44 -14.5 67z" />
    <glyph glyph-name="uni06CC.fina" unicode="&#x6cc;" horiz-adv-x="768" arabic-form="final" 
d="M46 246h144v-235q0 -45 32 -77.5t77 -32.5h232q21 0 35.5 15t14.5 35t-14.5 34.5t-35.5 14.5h-191v124h188q88 0 145 -46.5t57 -126.5q0 -55 -27 -101t-73 -73t-102 -27h-229q-69 0 -127 34t-92 92t-34 127v243zM324 0v151h444q10 0 10 -10v-131q0 -10 -10 -10h-444z" />
    <glyph glyph-name="uni06CC.init" unicode="&#x6cc;" horiz-adv-x="334" arabic-form="initial" 
d="M-10 10v131q0 10 10 10h108q19 0 32.5 14t13.5 33v205h143v-214q0 -51 -25 -94.5t-68 -69t-95 -25.5h-109q-10 0 -10 10zM1 -86h128v-128h-128v128zM181 -86h129v-128h-129v128z" />
    <glyph glyph-name="uni06CC.medi" unicode="&#x6cc;" horiz-adv-x="366" arabic-form="medial" 
d="M0 151h65q20 0 33 13.5t13 33.5v175h144v-175q0 -20 13 -33.5t33 -13.5h65q10 0 10 -10v-131q0 -10 -10 -10h-65q-74 0 -118 49q-46 -49 -118 -49h-65q-10 0 -10 10v131q0 10 10 10zM28 -86h128v-128h-128v128zM208 -86h129v-128h-129v128z" />
    <glyph glyph-name="uniFDFC" unicode="&#xfdfc;" horiz-adv-x="1496" arabic-form="isolated" 
d="M207 -132.5q-74 43.5 -117.5 117.5t-43.5 161v187h144v-179q0 -48 24 -89t65 -65t89 -24q49 0 90.5 24t65.5 65t24 89v520h144v-528q0 -87 -43.5 -161t-118 -117.5t-162.5 -43.5q-87 0 -161 43.5zM828 -86h128v-128h-128v128zM1008 -86h129v-128h-129v128zM873 25.5
q-43 25.5 -68 69t-25 94.5v219q0 39 -4.5 55.5t-16 25.5t-42.5 24q-44 20 -80 41l55 120l25 -12q95 -46 133 -72t55.5 -66t17.5 -116v-210q0 -20 13 -33.5t33 -13.5h55q10 0 10 -10v-131q0 -10 -10 -10h-56q-52 0 -95 25.5zM1014 10v131q0 10 10 10h33q19 0 32.5 14t12.5 33
v205h144v-214q0 -51 -25 -94.5t-68 -69t-95 -25.5h-34q-10 0 -10 10zM1261 -97q30 25 40.5 54t10.5 84v332h143v-332q0 -84 -21 -138t-72 -96.5t-148 -90.5l-54 121q71 41 101 66z" />
    <glyph glyph-name="uni0622.fina" unicode="&#x622;" horiz-adv-x="290" arabic-form="final" 
d="M139 25.5q-43 25.5 -68 69t-25 94.5v445h144v-436q0 -20 13 -33.5t32 -13.5h55q10 0 10 -10v-131q0 -10 -10 -10h-56q-52 0 -95 25.5zM-64.5 795.5q29.5 27.5 72.5 27.5h253v-109h-234q-12 0 -19 -6.5t-7 -19.5v-48h-95v82q0 46 29.5 73.5z" />
    <glyph glyph-name="uni0623.fina" unicode="&#x623;" horiz-adv-x="290" arabic-form="final" 
d="M139 25.5q-43 25.5 -68 69t-25 94.5v445h144v-436q0 -20 13 -33.5t32 -13.5h55q10 0 10 -10v-131q0 -10 -10 -10h-56q-52 0 -95 25.5zM-35 752l89 33q-24 19 -34 46q-6 17 -6 33q0 37 24.5 69t64.5 46l82 29l37 -103l-71 -26q-9 -3 -14 -10t-5 -15q0 -12 8 -20.5t21 -8.5
q3 0 13 2l94 34l37 -101l-304 -111z" />
    <glyph glyph-name="uni0624.fina" unicode="&#x624;" horiz-adv-x="512" arabic-form="final" 
d="M252.5 -95q43.5 24 59.5 45t16 50h-65v0q-60 0 -110 27t-79.5 74.5t-29.5 106.5q0 60 29.5 110t79.5 79.5t110 29.5v0q58 0 106 -29.5t75 -79.5t27 -110v-146q0 -93 -28.5 -150.5t-92 -100t-185.5 -95.5l-45 127q89 38 132.5 62zM328 142v67q0 29 -18.5 48t-46.5 19v0
q-29 0 -48.5 -19t-19.5 -48t19.5 -48t48.5 -19v0h65zM461 151h51q10 0 10 -10v-131q0 -10 -10 -10h-51v151zM95 588l89 33q-24 18 -35 46q-5 18 -5 33q0 37 24 69t64 46l82 29l37 -103l-70 -26q-9 -3 -14 -10t-5 -15q0 -13 8 -21t20 -8q3 0 13 2l95 34l37 -101l-304 -111z
" />
    <glyph glyph-name="uni0625.fina" unicode="&#x625;" horiz-adv-x="290" arabic-form="final" 
d="M139 25.5q-43 25.5 -68 69t-25 94.5v485h144v-476q0 -20 13 -33.5t32 -13.5h55q10 0 10 -10v-131q0 -10 -10 -10h-56q-52 0 -95 25.5zM-32 -306l89 33q-24 19 -34 46q-6 16 -6 33q0 37 24 69t65 47l81 28l37 -103l-70 -26q-9 -3 -14 -10t-5 -15q0 -12 8 -20.5t21 -8.5
q4 0 12 2l95 35l37 -102l-304 -111z" />
    <glyph glyph-name="uni0626.fina" unicode="&#x626;" horiz-adv-x="768" arabic-form="final" 
d="M172 -216q-58 34 -92 92t-34 127v243h144v-235q0 -45 32 -77.5t77 -32.5h232q21 0 35.5 15t14.5 35t-14.5 34.5t-35.5 14.5h-191v124h188q88 0 145 -46.5t57 -126.5q0 -55 -27 -101t-73 -73t-102 -27h-229q-69 0 -127 34zM324 151h444q10 0 10 -10v-131q0 -10 -10 -10
h-444v151zM46 418l89 34q-10 7 -19.5 19.5t-14.5 26.5q-6 15 -6 33q0 37 24.5 69t64.5 46l82 29l37 -103l-71 -26q-9 -3 -14 -10t-5 -15q0 -13 8 -21t21 -8q8 0 12 2l95 34l37 -101l-304 -112z" />
    <glyph glyph-name="uni0626.init" unicode="&#x626;" horiz-adv-x="325" arabic-form="initial" 
d="M-10 10v131q0 10 10 10h79q19 0 32 13.5t13 33.5v205h144v-214q0 -51 -25 -94.5t-68 -69t-95 -25.5h-80q-10 0 -10 10zM-24 570l89 34q-10 7 -19.5 19.5t-14.5 26.5q-6 15 -6 33q0 37 24.5 69t64.5 46l81 28l37 -102l-70 -26q-9 -3 -14 -10t-5 -15q0 -13 8 -21t21 -8
q8 0 12 2l95 34l37 -101l-304 -112z" />
    <glyph glyph-name="uni0626.medi" unicode="&#x626;" horiz-adv-x="366" arabic-form="medial" 
d="M-10 10v131q0 10 10 10h65q20 0 33 13.5t13 33.5v175h144v-175q0 -20 13 -33.5t33 -13.5h65q10 0 10 -10v-131q0 -10 -10 -10h-65q-74 0 -118 49q-46 -49 -118 -49h-65q-10 0 -10 10zM14 545l89 33q-24 18 -35 46q-5 18 -5 33q0 37 24 69t64 46l82 29l37 -103l-70 -26
q-9 -3 -14 -10t-5 -15q0 -12 8 -20.5t20 -8.5q5 0 13 2l95 34l37 -101l-304 -111z" />
    <glyph glyph-name="uni0627.fina" unicode="&#x627;" horiz-adv-x="290" arabic-form="final" 
d="M139 25.5q-43 25.5 -68 69t-25 94.5v485h144v-476q0 -20 13 -33.5t32 -13.5h55q10 0 10 -10v-131q0 -10 -10 -10h-56q-52 0 -95 25.5z" />
    <glyph glyph-name="uni0628.fina" unicode="&#x628;" horiz-adv-x="915" arabic-form="final" 
d="M172 34q-58 34 -92 92t-34 127v120h144v-112q0 -45 32 -77.5t77 -32.5h318q29 0 47.5 19.5t18.5 48.5v154h144v-175q0 -20 13 -33.5t33 -13.5h42q10 0 10 -10v-131q0 -10 -10 -10h-42q-77 0 -123 55q-53 -55 -133 -55h-318q-69 0 -127 34zM403 -85h129v-128h-129v128z
" />
    <glyph glyph-name="uni0628.init" unicode="&#x628;" horiz-adv-x="274" arabic-form="initial" 
d="M-10 10v131q0 10 10 10h54q19 0 32.5 14t13.5 33v205h143v-214q0 -51 -25 -94.5t-68 -69t-95 -25.5h-55q-10 0 -10 10zM-1 -85h129v-128h-129v128z" />
    <glyph glyph-name="uni0628.medi" unicode="&#x628;" horiz-adv-x="321" arabic-form="medial" 
d="M-10 10v131q0 10 10 10h42q20 0 33.5 13.5t13.5 33.5v175h143v-175q0 -20 13 -33.5t33 -13.5h43q10 0 10 -10v-131q0 -10 -10 -10h-43q-72 0 -118 49q-44 -49 -118 -49h-42q-10 0 -10 10zM99 -84h128v-129h-128v129z" />
    <glyph glyph-name="uni0629.fina" unicode="&#x629;" horiz-adv-x="557" arabic-form="final" 
d="M150 59.5q-51 29.5 -80.5 79.5t-29.5 110q0 58 29.5 106t80.5 75t111 27v0h66v64h142v-272q0 -60 -27 -110t-74.5 -79.5t-106.5 -29.5v0q-60 0 -111 29.5zM308 200.5q19 19.5 19 48.5v64h-66v0q-29 0 -48.5 -18t-19.5 -46q0 -29 19.5 -48.5t48.5 -19.5v0q28 0 47 19.5z
M424.5 25q-38.5 25 -59 68.5t-20.5 95.5v184h124v-175q0 -20 13 -33.5t33 -13.5h42q10 0 10 -10v-131q0 -10 -10 -10h-42q-52 0 -90.5 25zM118 741h128v-128h-128v128zM298 741h128v-128h-128v128z" />
    <glyph glyph-name="uni062A.fina" unicode="&#x62a;" horiz-adv-x="915" arabic-form="final" 
d="M46 373h144v-112q0 -45 32 -77.5t77 -32.5h318q29 0 47.5 19.5t18.5 48.5v154h144v-175q0 -20 13 -33.5t33 -13.5h42q10 0 10 -10v-131q0 -10 -10 -10h-42q-77 0 -123 55q-53 -55 -133 -55h-318q-69 0 -127 34t-92 92t-34 127v120zM284 502h128v-129h-128v129zM464 502
h128v-129h-128v129z" />
    <glyph glyph-name="uni062A.init" unicode="&#x62a;" horiz-adv-x="328" arabic-form="initial" 
d="M-10 10v131q0 10 10 10h108q19 0 32.5 14t13.5 33v205h143v-214q0 -51 -25 -94.5t-68 -69t-95 -25.5h-109q-10 0 -10 10zM-13 617h129v-129h-129v129zM168 617h128v-129h-128v129z" />
    <glyph glyph-name="uni062A.medi" unicode="&#x62a;" horiz-adv-x="366" arabic-form="medial" 
d="M0 151h65q20 0 33 13.5t13 33.5v175h144v-175q0 -20 13 -33.5t33 -13.5h65q10 0 10 -10v-131q0 -10 -10 -10h-65q-74 0 -118 49q-46 -49 -118 -49h-65q-10 0 -10 10v131q0 10 10 10zM29 588h128v-128h-128v128zM209 588h129v-128h-129v128z" />
    <glyph glyph-name="uni062B.fina" unicode="&#x62b;" horiz-adv-x="915" arabic-form="final" 
d="M172 34q-58 34 -92 92t-34 127v120h144v-112q0 -45 32 -77.5t77 -32.5h318q29 0 47.5 19.5t18.5 48.5v154h117v-154q0 -95 -48 -157t-135 -62h-318q-69 0 -127 34zM754.5 53.5q-42.5 53.5 -42.5 135.5v184h115v-175q0 -20 13 -33.5t33 -13.5h42q10 0 10 -10v-131
q0 -10 -10 -10h-42q-76 0 -118.5 53.5zM285 502h128v-129h-128v129zM465 502h128v-129h-128v129zM376 681h128v-129h-128v129z" />
    <glyph glyph-name="uni062B.init" unicode="&#x62b;" horiz-adv-x="328" arabic-form="initial" 
d="M-10 10v131q0 10 10 10h108q19 0 32.5 14t13.5 33v205h143v-214q0 -51 -25 -94.5t-68 -69t-95 -25.5h-109q-10 0 -10 10zM-13 617h129v-129h-129v129zM168 617h128v-129h-128v129zM78 796h129v-129h-129v129z" />
    <glyph glyph-name="uni062B.medi" unicode="&#x62b;" horiz-adv-x="366" arabic-form="medial" 
d="M-10 10v131q0 10 10 10h65q20 0 33 13.5t13 33.5v175h144v-175q0 -20 13 -33.5t33 -13.5h65q10 0 10 -10v-131q0 -10 -10 -10h-65q-38 0 -68.5 15t-49.5 41q-19 -26 -49.5 -41t-68.5 -15h-65q-10 0 -10 10zM28 588h129v-129h-129v129zM209 588h128v-129h-128v129z
M119 767h129v-129h-129v129z" />
    <glyph glyph-name="uni062C.fina" unicode="&#x62c;" horiz-adv-x="714" arabic-form="final" 
d="M180.5 -284q-57.5 34 -91 91.5t-33.5 123.5q0 56 24.5 107t68.5 87l257 189l-107 51q-16 8 -29 8q-25 0 -48 -21l-75 -81l-100 87l76 91q28 34 66.5 50t79.5 16q45 0 86 -22l216 -101q8 -2 15 -2h92v-141h-122l-18 -13v-38q0 -20 13 -33.5t33 -13.5h130q10 0 10 -10v-131
q0 -10 -10 -10h-130q-74 0 -116.5 37t-43.5 105v10l-176 -130q-41 -33 -41 -88q0 -45 32.5 -77t76.5 -32h290v-143h-301q-67 0 -124.5 34zM327 4h106v-109h-106v109z" />
    <glyph glyph-name="uni062C.init" unicode="&#x62c;" horiz-adv-x="721" arabic-form="initial" 
d="M-10 10v131q0 10 10 10h208q78 0 130 48l97 88l-139 67q-20 8 -30 8q-13 0 -25.5 -6t-21.5 -16l-92 -102l-100 88l92 112q29 33 67.5 49.5t78.5 16.5q28 0 47.5 -6.5t39.5 -16.5l215 -100q6 -3 16 -3h107v-140h-111l-162 -151q-46 -43 -106 -65t-124 -22h-187
q-10 0 -10 10zM157 -85h127v-128h-127v128z" />
    <glyph glyph-name="uni062C.medi" unicode="&#x62c;" horiz-adv-x="719" arabic-form="medial" 
d="M-10 10v131q0 10 10 10h208q78 0 130 48l97 88l-139 67q-20 8 -30 8q-13 0 -25.5 -6t-21.5 -16l-92 -102l-100 88l92 112q29 33 67.5 49.5t78.5 16.5q28 0 47.5 -6.5t39.5 -16.5l215 -100q6 -3 16 -3h107v-140h-115l-18 -16v-24q0 -20 13.5 -33.5t33.5 -13.5h115
q10 0 10 -10v-131q0 -10 -10 -10h-115q-59 0 -97.5 31.5t-56.5 86.5l-33 -31q-46 -43 -106 -65t-124 -22h-187q-10 0 -10 10zM154 -85h128v-128h-128v128z" />
    <glyph glyph-name="uni062D.fina" unicode="&#x62d;" horiz-adv-x="714" arabic-form="final" 
d="M180.5 -284q-57.5 34 -91 91.5t-33.5 123.5q0 56 24.5 107t68.5 87l257 189l-107 51q-16 8 -29 8q-25 0 -48 -21l-75 -81l-100 87l76 91q28 34 66.5 50t79.5 16q45 0 86 -22l216 -101q8 -2 15 -2h92v-141h-122l-18 -13v-38q0 -20 13 -33.5t33 -13.5h130q10 0 10 -10v-131
q0 -10 -10 -10h-130q-74 0 -116.5 37t-43.5 105v10l-176 -130q-41 -33 -41 -88q0 -45 32.5 -77t76.5 -32h290v-143h-301q-67 0 -124.5 34z" />
    <glyph glyph-name="uni062D.init" unicode="&#x62d;" horiz-adv-x="721" arabic-form="initial" 
d="M-10 10v131q0 10 10 10h208q78 0 130 48l97 88l-139 67q-20 8 -30 8q-13 0 -25.5 -6t-21.5 -16l-92 -102l-100 88l92 112q29 33 67.5 49.5t78.5 16.5q28 0 47.5 -6.5t39.5 -16.5l215 -100q6 -3 16 -3h107v-140h-111l-162 -151q-46 -43 -106 -65t-124 -22h-187
q-10 0 -10 10z" />
    <glyph glyph-name="uni062D.medi" unicode="&#x62d;" horiz-adv-x="719" arabic-form="medial" 
d="M-10 10v131q0 10 10 10h208q78 0 130 48l97 88l-139 67q-20 8 -30 8q-13 0 -25.5 -6t-21.5 -16l-92 -102l-100 88l92 112q29 33 67.5 49.5t78.5 16.5q28 0 47.5 -6.5t39.5 -16.5l215 -100q6 -3 16 -3h107v-140h-115l-18 -16v-24q0 -20 13.5 -33.5t33.5 -13.5h115
q10 0 10 -10v-131q0 -10 -10 -10h-115q-59 0 -98.5 33t-53.5 87l-35 -33q-46 -43 -106 -65t-124 -22h-187q-10 0 -10 10z" />
    <glyph glyph-name="uni062E.fina" unicode="&#x62e;" horiz-adv-x="714" arabic-form="final" 
d="M180.5 -284q-57.5 34 -91 91.5t-33.5 123.5q0 56 24.5 107t68.5 87l257 189l-107 51q-16 8 -29 8q-25 0 -48 -21l-75 -81l-100 87l76 91q28 34 66.5 50t79.5 16q45 0 86 -22l216 -101q8 -2 15 -2h92v-141h-121l-19 -14v-37q0 -20 13 -33.5t33 -13.5h130q10 0 10 -10v-131
q0 -10 -10 -10h-130q-74 0 -116.5 37t-43.5 105v10l-176 -130q-41 -33 -41 -88q0 -45 32.5 -77t76.5 -32h290v-143h-301q-67 0 -124.5 34zM204 721h128v-128h-128v128z" />
    <glyph glyph-name="uni062E.init" unicode="&#x62e;" horiz-adv-x="721" arabic-form="initial" 
d="M-10 10v131q0 10 10 10h208q78 0 130 48l97 88l-139 67q-20 8 -30 8q-13 0 -25.5 -6t-21.5 -16l-92 -102l-100 88l92 112q29 33 67.5 49.5t78.5 16.5q28 0 47.5 -6.5t39.5 -16.5l215 -100q6 -3 16 -3h107v-140h-111l-162 -151q-46 -43 -106 -65t-124 -22h-187
q-10 0 -10 10zM202 710h128v-128h-128v128z" />
    <glyph glyph-name="uni062E.medi" unicode="&#x62e;" horiz-adv-x="719" arabic-form="medial" 
d="M-10 10v131q0 10 10 10h208q78 0 130 48l97 88l-139 67q-20 8 -30 8q-13 0 -25.5 -6t-21.5 -16l-92 -102l-100 88l92 112q29 33 67.5 49.5t78.5 16.5q28 0 47.5 -6.5t39.5 -16.5l215 -100q6 -3 16 -3h107v-140h-111l-22 -19v-21q0 -20 13.5 -33.5t33.5 -13.5h115
q10 0 10 -10v-131q0 -10 -10 -10h-115q-59 0 -97.5 31.5t-56.5 86.5l-33 -31q-46 -43 -106 -65t-124 -22h-187q-10 0 -10 10zM331 582h-129v128h129v-128z" />
    <glyph glyph-name="uni062F.fina" unicode="&#x62f;" horiz-adv-x="552" arabic-form="final" 
d="M44 151h238q22 0 37 12.5t15 34.5q0 6 -6 26l-95 258l136 51l123 -341q17 -41 54 -41h6q10 0 10 -10v-131q0 -10 -10 -10h-13q-41 0 -73 16t-48 40q-32 -32 -61 -44t-75 -12h-238v151z" />
    <glyph glyph-name="uni0630.fina" unicode="&#x630;" horiz-adv-x="552" arabic-form="final" 
d="M44 151h238q22 0 37 12.5t15 34.5q0 6 -6 26l-95 258l136 51l123 -341q15 -41 54 -41h6q10 0 10 -10v-131q0 -10 -10 -10h-13q-41 0 -73 16t-48 40q-32 -32 -61 -44t-75 -12h-238v151zM234 726h129v-128h-129v128z" />
    <glyph glyph-name="uni0631.fina" unicode="&#x631;" horiz-adv-x="339" arabic-form="final" 
d="M57 -97q30 25 40 54t10 84v332h144v-332q0 -84 -21 -138t-72 -96.5t-148 -90.5l-54 121q71 41 101 66zM185.5 52q-35.5 52 -35.5 137v184h101v-175q0 -20 13 -33.5t33 -13.5h42q10 0 10 -10v-131q0 -10 -10 -10h-42q-76 0 -111.5 52z" />
    <glyph glyph-name="uni0632.fina" unicode="&#x632;" horiz-adv-x="339" arabic-form="final" 
d="M57 -97q30 25 40 54t10 84v332h144v-332q0 -84 -21 -138t-72 -96.5t-148 -90.5l-54 121q71 41 101 66zM185.5 52q-35.5 52 -35.5 137v184h101v-175q0 -20 13 -33.5t33 -13.5h42q10 0 10 -10v-131q0 -10 -10 -10h-42q-76 0 -111.5 52zM115 587h128v-128h-128v128z" />
    <glyph glyph-name="uni0633.fina" unicode="&#x633;" horiz-adv-x="1253" arabic-form="final" 
d="M207 -132.5q-74 43.5 -117.5 117.5t-43.5 161v187h144v-179q0 -48 24 -89t65 -65t89 -24q49 0 90.5 24t65.5 65t24 89v219h139v-227q0 -87 -42.5 -161t-115.5 -117.5t-161 -43.5q-87 0 -161 43.5zM636.5 48.5q-28.5 50.5 -28.5 138.5v186h85v-177q0 -20 13.5 -33.5
t32.5 -13.5q20 0 33 13.5t13 33.5v177h115v-186q0 -82 -42 -135.5t-119 -53.5q-74 0 -102.5 50.5zM856 51.5q-42 53.5 -42 135.5v186h115v-177q0 -20 13 -33.5t33 -13.5t33 13.5t13 33.5v207h115v-216q0 -82 -42.5 -135.5t-118.5 -53.5q-77 0 -119 53.5zM1091.5 53.5
q-42.5 53.5 -42.5 135.5v214h115v-205q0 -20 13.5 -33.5t32.5 -13.5h43q10 0 10 -10v-131q0 -10 -10 -10h-43q-76 0 -118.5 53.5z" />
    <glyph glyph-name="uni0633.init" unicode="&#x633;" horiz-adv-x="724" arabic-form="initial" 
d="M395 53.5q-42 53.5 -42 135.5v184h115v-175q0 -20 13 -33.5t32 -13.5h36v252h144v-403h-180q-76 0 -118 53.5zM-10 10v131q0 10 10 10h42q20 0 33.5 13.5t13.5 33.5v175h115v-184q0 -82 -42.5 -135.5t-119.5 -53.5h-42q-10 0 -10 10zM159.5 51.5q-42.5 53.5 -42.5 135.5
v186h115v-177q0 -20 13 -33.5t33 -13.5t33 13.5t13 33.5v177h115v-186q0 -82 -42.5 -135.5t-118.5 -53.5t-118.5 53.5z" />
    <glyph glyph-name="uni0633.medi" unicode="&#x633;" horiz-adv-x="792" arabic-form="medial" 
d="M395 51.5q-42 53.5 -42 135.5v186h115v-177q0 -20 13 -33.5t33 -13.5q19 0 32.5 13.5t13.5 33.5v207h115v-216q0 -82 -42.5 -135.5t-118.5 -53.5q-77 0 -119 53.5zM-10 10v131q0 10 10 10h42q20 0 33.5 13.5t13.5 33.5v175h115v-184q0 -82 -42.5 -135.5t-119.5 -53.5h-42
q-10 0 -10 10zM159.5 51.5q-42.5 53.5 -42.5 135.5v186h115v-177q0 -20 13 -33.5t33 -13.5t33 13.5t13 33.5v177h115v-186q0 -82 -42.5 -135.5t-118.5 -53.5t-118.5 53.5zM630.5 53.5q-42.5 53.5 -42.5 135.5v214h115v-205q0 -20 13 -33.5t33 -13.5h43q10 0 10 -10v-131
q0 -10 -10 -10h-43q-76 0 -118.5 53.5z" />
    <glyph glyph-name="uni0634.fina" unicode="&#x634;" horiz-adv-x="1253" arabic-form="final" 
d="M207 -132.5q-74 43.5 -117.5 117.5t-43.5 161v187h144v-179q0 -48 24 -89t65 -65t89 -24q49 0 90.5 24t65.5 65t24 89v219h139v-227q0 -87 -42.5 -161t-115.5 -117.5t-161 -43.5q-87 0 -161 43.5zM636.5 48.5q-28.5 50.5 -28.5 138.5v186h85v-177q0 -20 13.5 -33.5
t32.5 -13.5q20 0 33 13.5t13 33.5v177h115v-186q0 -82 -42 -135.5t-119 -53.5q-74 0 -102.5 50.5zM856 51.5q-42 53.5 -42 135.5v186h115v-177q0 -20 13 -33.5t33 -13.5t33 13.5t13 33.5v207h115v-216q0 -82 -42.5 -135.5t-118.5 -53.5q-77 0 -119 53.5zM1091.5 53.5
q-42.5 53.5 -42.5 135.5v214h115v-205q0 -20 13.5 -33.5t32.5 -13.5h43q10 0 10 -10v-131q0 -10 -10 -10h-43q-76 0 -118.5 53.5zM703 585h129v-128h-129v128zM884 585h128v-128h-128v128zM794 765h129v-129h-129v129z" />
    <glyph glyph-name="uni0634.init" unicode="&#x634;" horiz-adv-x="724" arabic-form="initial" 
d="M395 53.5q-42 53.5 -42 135.5v184h115v-175q0 -20 13 -33.5t32 -13.5h36v252h144v-403h-180q-76 0 -118 53.5zM-10 10v131q0 10 10 10h42q20 0 33.5 13.5t13.5 33.5v175h115v-184q0 -82 -42.5 -135.5t-119.5 -53.5h-42q-10 0 -10 10zM159.5 51.5q-42.5 53.5 -42.5 135.5
v186h115v-177q0 -20 13 -33.5t33 -13.5t33 13.5t13 33.5v177h115v-186q0 -82 -42.5 -135.5t-118.5 -53.5t-118.5 53.5zM241 583h128v-128h-128v128zM421 583h129v-128h-129v128zM332 763h128v-129h-128v129z" />
    <glyph glyph-name="uni0634.medi" unicode="&#x634;" horiz-adv-x="792" arabic-form="medial" 
d="M395 51.5q-42 53.5 -42 135.5v186h115v-177q0 -20 13 -33.5t33 -13.5q19 0 32.5 13.5t13.5 33.5v207h115v-216q0 -82 -42.5 -135.5t-118.5 -53.5q-77 0 -119 53.5zM-10 10v131q0 10 10 10h42q20 0 33.5 13.5t13.5 33.5v175h115v-184q0 -82 -42.5 -135.5t-119.5 -53.5h-42
q-10 0 -10 10zM159.5 51.5q-42.5 53.5 -42.5 135.5v186h115v-177q0 -20 13 -33.5t33 -13.5t33 13.5t13 33.5v177h115v-186q0 -82 -42.5 -135.5t-118.5 -53.5t-118.5 53.5zM630.5 53.5q-42.5 53.5 -42.5 135.5v214h115v-205q0 -20 13 -33.5t33 -13.5h43q10 0 10 -10v-131
q0 -10 -10 -10h-43q-76 0 -118.5 53.5zM241 583h128v-128h-128v128zM421 583h129v-128h-129v128zM332 763h128v-129h-128v129z" />
    <glyph glyph-name="uni0635.fina" unicode="&#x635;" horiz-adv-x="1349" arabic-form="final" 
d="M207 -132.5q-74 43.5 -117.5 117.5t-43.5 161v187h144v-179q0 -48 24 -89t65 -65t89 -24q49 0 90.5 24t65.5 65t24 89v219h139v-227q0 -87 -42 -161t-115.5 -117.5t-161.5 -43.5q-87 0 -161 43.5zM681.5 34.5q-50.5 34.5 -77 93.5t-26.5 131v114h115v-134q0 -36 25.5 -62
t60.5 -26h260q30 0 51.5 22t21.5 52q0 32 -21.5 55t-54.5 23q-14 0 -31 -6.5t-45 -24.5l-273 -164l-51 132l266 158q41 25 69.5 36t67.5 11q59 0 110 -30t81 -81.5t30 -111.5q0 -59 -30 -110.5t-81.5 -81.5t-110.5 -30h-237q-69 0 -119.5 34.5zM1187.5 53.5
q-42.5 53.5 -42.5 135.5v32h115v-23q0 -20 13.5 -33.5t32.5 -13.5h43q10 0 10 -10v-131q0 -10 -10 -10h-43q-76 0 -118.5 53.5z" />
    <glyph glyph-name="uni0635.init" unicode="&#x635;" horiz-adv-x="830" arabic-form="initial" 
d="M220.5 34.5q-50.5 34.5 -77 93.5t-26.5 131v114h115v-134q0 -36 25 -62t60 -26h260q31 0 52.5 22t21.5 52q0 32 -22 55t-55 23q-14 0 -30.5 -6.5t-44.5 -24.5l-273 -164l-52 132l266 158q41 25 70 36t67 11q60 0 111 -30t81 -81.5t30 -111.5q0 -59 -30 -110.5
t-81.5 -81.5t-110.5 -30h-238q-68 0 -118.5 34.5zM-10 10v131q0 10 10 10h42q20 0 33.5 13.5t13.5 33.5v175h115v-184q0 -82 -42.5 -135.5t-119.5 -53.5h-42q-10 0 -10 10z" />
    <glyph glyph-name="uni0635.medi" unicode="&#x635;" horiz-adv-x="887" arabic-form="medial" 
d="M220.5 34.5q-50.5 34.5 -77 93.5t-26.5 131v114h115v-134q0 -36 25 -62t60 -26h260q31 0 52.5 22t21.5 52q0 32 -22 55t-55 23q-14 0 -30.5 -6.5t-44.5 -24.5l-273 -164l-52 132l266 158q41 25 70 36t67 11q60 0 111 -30t81 -81.5t30 -111.5q0 -59 -30 -110.5
t-81.5 -81.5t-110.5 -30h-238q-68 0 -118.5 34.5zM-10 10v131q0 10 10 10h42q20 0 33.5 13.5t13.5 33.5v175h115v-184q0 -82 -42.5 -135.5t-119.5 -53.5h-42q-10 0 -10 10zM726 53.5q-42 53.5 -42 135.5v32h115v-23q0 -20 13 -33.5t33 -13.5h42q10 0 10 -10v-131
q0 -10 -10 -10h-42q-77 0 -119 53.5z" />
    <glyph glyph-name="uni0636.fina" unicode="&#x636;" horiz-adv-x="1349" arabic-form="final" 
d="M207 -132.5q-74 43.5 -117.5 117.5t-43.5 161v187h144v-179q0 -48 24 -89t65 -65t89 -24q49 0 90.5 24t65.5 65t24 89v219h139v-227q0 -87 -42 -161t-115.5 -117.5t-161.5 -43.5q-87 0 -161 43.5zM681.5 34.5q-50.5 34.5 -77 93.5t-26.5 131v114h115v-134q0 -36 25.5 -62
t60.5 -26h260q30 0 51.5 22t21.5 52q0 32 -21.5 54.5t-51.5 22.5q-34 0 -82 -26l-273 -163l-48 127l287 172q25 16 56 24.5t60 8.5q59 0 110 -30t81 -81.5t30 -111.5q0 -59 -30 -110.5t-81.5 -81.5t-110.5 -30h-237q-69 0 -119.5 34.5zM1187.5 53.5q-42.5 53.5 -42.5 135.5
v32h115v-23q0 -20 13.5 -33.5t32.5 -13.5h43q10 0 10 -10v-131q0 -10 -10 -10h-43q-76 0 -118.5 53.5zM974 651h129v-128h-129v128z" />
    <glyph glyph-name="uni0636.init" unicode="&#x636;" horiz-adv-x="830" arabic-form="initial" 
d="M220.5 34.5q-50.5 34.5 -77 93.5t-26.5 131v114h115v-134q0 -36 25 -62t60 -26h260q31 0 52.5 22t21.5 52q0 32 -22 55t-55 23q-13 0 -30 -6.5t-45 -24.5l-273 -164l-52 132l266 158q41 25 70 36t67 11q60 0 111 -30t81 -81.5t30 -111.5q0 -59 -30 -110.5t-81.5 -81.5
t-110.5 -30h-238q-68 0 -118.5 34.5zM-10 10v131q0 10 10 10h42q20 0 33.5 13.5t13.5 33.5v175h115v-184q0 -82 -42.5 -135.5t-119.5 -53.5h-42q-10 0 -10 10zM512 651h128v-128h-128v128z" />
    <glyph glyph-name="uni0636.medi" unicode="&#x636;" horiz-adv-x="887" arabic-form="medial" 
d="M220.5 34.5q-50.5 34.5 -77 93.5t-26.5 131v114h115v-134q0 -36 25 -62t60 -26h260q31 0 52.5 22.5t21.5 54.5q0 36 -23 61t-57 25q-15 0 -33 -7t-47 -26l-288 -173l-29 132l266 158q41 25 70 36t67 11q60 0 111 -30t81 -81.5t30 -111.5q0 -59 -30 -110.5t-81.5 -81.5
t-110.5 -30h-238q-68 0 -118.5 34.5zM-10 10v131q0 10 10 10h42q20 0 33.5 13.5t13.5 33.5v175h115v-184q0 -82 -42.5 -135.5t-119.5 -53.5h-42q-10 0 -10 10zM726 53.5q-42 53.5 -42 135.5v32h115v-23q0 -20 13 -33.5t33 -13.5h42q10 0 10 -10v-131q0 -10 -10 -10h-42
q-77 0 -119 53.5zM512 651h128v-128h-128v128z" />
    <glyph glyph-name="uni0637.fina" unicode="&#x637;" horiz-adv-x="737" arabic-form="final" 
d="M40 151h388q30 0 51.5 22t21.5 52q0 32 -22 55t-54 23q-14 0 -31 -7t-45 -25l-222 -130l-68 120l231 137q42 25 70.5 36t67.5 11q59 0 110 -30t81 -81.5t30 -111.5q0 -59 -30 -110.5t-81.5 -81.5t-110.5 -30h-387v151zM155 335q6 21 6 50v289h143v-168q0 -46 -8 -80
t-23 -47l-142 -75q18 10 24 31zM576.5 53.5q-42.5 53.5 -42.5 135.5v33h115v-24q0 -20 13 -33.5t33 -13.5h42q10 0 10 -10v-131q0 -10 -10 -10h-42q-76 0 -118.5 53.5z" />
    <glyph glyph-name="uni0637.init" unicode="&#x637;" horiz-adv-x="663" arabic-form="initial" 
d="M-10 10v131q0 10 10 10h410q31 0 52.5 22t21.5 52q0 32 -22 55t-55 23q-13 0 -30.5 -7t-44.5 -25l-239 -141l-51 131l231 137q41 25 70 36t67 11q60 0 111 -30t81 -81.5t30 -111.5q0 -59 -30 -110.5t-81.5 -81.5t-110.5 -30h-410q-10 0 -10 10zM137.5 334.5
q5.5 20.5 5.5 50.5v289h144v-168q0 -47 -5.5 -76t-19.5 -42l-148 -84q18 10 23.5 30.5z" />
    <glyph glyph-name="uni0637.medi" unicode="&#x637;" horiz-adv-x="720" arabic-form="medial" 
d="M-10 10v131q0 10 10 10h410q31 0 52.5 22t21.5 52q0 32 -22 55t-55 23q-13 0 -30.5 -7t-44.5 -25l-239 -141l-51 131l231 137q41 25 70 36t67 11q60 0 111 -30t81 -81.5t30 -111.5q0 -59 -30 -110.5t-81.5 -81.5t-110.5 -30h-410q-10 0 -10 10zM137.5 334.5
q5.5 20.5 5.5 50.5v289h144v-168q0 -47 -5.5 -76t-19.5 -42l-148 -84q18 10 23.5 30.5zM559 53.5q-42 53.5 -42 135.5v33h115v-24q0 -20 13 -33.5t33 -13.5h42q10 0 10 -10v-131q0 -10 -10 -10h-42q-77 0 -119 53.5z" />
    <glyph glyph-name="uni0638.fina" unicode="&#x638;" horiz-adv-x="737" arabic-form="final" 
d="M40 151h388q30 0 51.5 22t21.5 52q0 32 -22 55t-54 23q-14 0 -31 -7t-45 -25l-238 -141l-52 131l231 137q42 25 70.5 36t67.5 11q59 0 110 -30t81 -81.5t30 -111.5q0 -59 -30 -110.5t-81.5 -81.5t-110.5 -30h-387v151zM155 335q6 21 6 50v289h143v-168q0 -47 -5.5 -76
t-19.5 -42l-148 -84q18 10 24 31zM576.5 53.5q-42.5 53.5 -42.5 135.5v33h115v-24q0 -20 13 -33.5t33 -13.5h42q10 0 10 -10v-131q0 -10 -10 -10h-42q-76 0 -118.5 53.5zM376 651h129v-128h-129v128z" />
    <glyph glyph-name="uni0638.init" unicode="&#x638;" horiz-adv-x="663" arabic-form="initial" 
d="M-10 10v131q0 10 10 10h410q31 0 52.5 22t21.5 52q0 32 -22 55t-55 23q-13 0 -30.5 -7t-44.5 -25l-239 -141l-51 131l231 137q41 25 70 36t67 11q60 0 111 -30t81 -81.5t30 -111.5q0 -59 -30 -110.5t-81.5 -81.5t-110.5 -30h-410q-10 0 -10 10zM137.5 334.5
q5.5 20.5 5.5 50.5v289h144v-168q0 -47 -5.5 -76t-19.5 -42l-148 -84q18 10 23.5 30.5zM361 651h128v-128h-128v128z" />
    <glyph glyph-name="uni0638.medi" unicode="&#x638;" horiz-adv-x="720" arabic-form="medial" 
d="M-10 10v131q0 10 10 10h410q31 0 52.5 22t21.5 52q0 32 -22 55t-55 23q-13 0 -30.5 -7t-44.5 -25l-239 -141l-51 131l231 137q41 25 70 36t67 11q60 0 111 -30t81 -81.5t30 -111.5q0 -59 -30 -110.5t-81.5 -81.5t-110.5 -30h-410q-10 0 -10 10zM137.5 334.5
q5.5 20.5 5.5 50.5v289h144v-168q0 -47 -5.5 -76t-19.5 -42l-148 -84q18 10 23.5 30.5zM559 53.5q-42 53.5 -42 135.5v33h115v-24q0 -20 13 -33.5t33 -13.5h42q10 0 10 -10v-131q0 -10 -10 -10h-42q-77 0 -119 53.5zM359 651h129v-128h-129v128z" />
    <glyph glyph-name="uni0639.fina" unicode="&#x639;" horiz-adv-x="626" arabic-form="final" 
d="M192 -396q-67 39 -106.5 106t-39.5 146q0 73 33.5 129t92 90t131.5 43q5 1 17 17t18 16h288q10 0 10 -10v-131q0 -10 -10 -10h-288q-38 0 -70.5 -19t-51.5 -52t-19 -71q0 -39 19 -71.5t51.5 -51.5t70.5 -19h182v-151h-182q-79 0 -146 39zM548.5 128q-26.5 -46 -74 -71.5
t-107.5 -25.5h-50q-60 0 -107.5 25.5t-74 71.5t-26.5 106v48h-62v143h270h50h208v-191q0 -60 -26.5 -106zM433 282h-66h-50h-66v-63q0 -29 19 -48.5t47 -19.5h50q29 0 47.5 19.5t18.5 48.5v63z" />
    <glyph glyph-name="uni0639.init" unicode="&#x639;" horiz-adv-x="466" arabic-form="initial" 
d="M171.5 56q-53.5 25 -84.5 70t-31 105q0 63 31 113.5t85 79.5t118 29h110v-141h-110q-36 0 -59 -22.5t-23 -57.5q0 -36 23 -58.5t59 -22.5v-120q-65 0 -118.5 25zM-10 10v131q0 10 10 10h435v-151h-435q-10 0 -10 10z" />
    <glyph glyph-name="uni0639.medi" unicode="&#x639;" horiz-adv-x="625" arabic-form="medial" 
d="M541.5 128q-26.5 -46 -74 -71.5t-107.5 -25.5h-50q-60 0 -107.5 25.5t-74 71.5t-26.5 106v48h-62v143h270h50h208v-191q0 -60 -26.5 -106zM-10 10v131q0 10 10 10h625q10 0 10 -10v-131q0 -10 -10 -10h-625q-10 0 -10 10zM426 282h-66h-50h-66v-63q0 -29 19 -48.5
t47 -19.5h50q29 0 47.5 19.5t18.5 48.5v63z" />
    <glyph glyph-name="uni063A.fina" unicode="&#x63a;" horiz-adv-x="626" arabic-form="final" 
d="M192 -396q-67 39 -106.5 106t-39.5 146q0 73 33.5 129t92 90t131.5 43q5 1 17 17t18 16h288q10 0 10 -10v-131q0 -10 -10 -10h-288q-38 0 -70.5 -19t-51.5 -52t-19 -71q0 -39 19 -71.5t51.5 -51.5t70.5 -19h182v-151h-182q-79 0 -146 39zM209.5 56.5q-47.5 25.5 -74 71.5
t-26.5 106v48h-62v143h270h50h208v-191q0 -60 -26.5 -106t-74 -71.5t-107.5 -25.5h-50q-60 0 -107.5 25.5zM414.5 170.5q18.5 19.5 18.5 48.5v63h-66h-50h-66v-63q0 -29 19 -48.5t47 -19.5h50q29 0 47.5 19.5zM277 639h128v-128h-128v128z" />
    <glyph glyph-name="uni063A.init" unicode="&#x63a;" horiz-adv-x="466" arabic-form="initial" 
d="M219 662h129v-128h-129v128zM171.5 56q-53.5 25 -84.5 70t-31 105q0 63 31 113.5t85 79.5t118 29h110v-141h-110q-36 0 -59 -22.5t-23 -57.5q0 -36 23 -58.5t59 -22.5v-120q-65 0 -118.5 25zM-10 10v131q0 10 10 10h435v-151h-435q-10 0 -10 10z" />
    <glyph glyph-name="uni063A.medi" unicode="&#x63a;" horiz-adv-x="625" arabic-form="medial" 
d="M202.5 56.5q-47.5 25.5 -74 71.5t-26.5 106v48h-62v143h270h50h208v-191q0 -60 -26.5 -106t-74 -71.5t-107.5 -25.5h-50q-60 0 -107.5 25.5zM-10 10v131q0 10 10 10h625q10 0 10 -10v-131q0 -10 -10 -10h-625q-10 0 -10 10zM407.5 170.5q18.5 19.5 18.5 48.5v63h-66h-50
h-66v-63q0 -29 19 -48.5t47 -19.5h50q29 0 47.5 19.5zM273 639h128v-128h-128v128z" />
    <glyph glyph-name="uni0641.fina" unicode="&#x641;" horiz-adv-x="894" arabic-form="final" 
d="M580 641h129v-128h-129v128zM172 34q-58 34 -92 92t-34 127v120h144v-112q0 -45 32 -77.5t77 -32.5h595q10 0 10 -10v-131q0 -10 -10 -10h-595q-69 0 -127 34zM835 113.5q-29 -47.5 -79.5 -74t-110.5 -26.5v0q-60 0 -110.5 26.5t-79.5 74t-29 108.5q0 60 29.5 108.5
t79.5 76.5t110 28v0q60 0 110 -28t79.5 -76.5t29.5 -108.5q0 -61 -29 -108.5zM693.5 264q-19.5 19 -48.5 19v0q-29 0 -48 -19t-19 -47t19 -47t48 -19v0q29 0 48.5 19t19.5 47t-19.5 47z" />
    <glyph glyph-name="uni0641.init" unicode="&#x641;" horiz-adv-x="464" arabic-form="initial" 
d="M-10 10v131q0 10 10 10h244q20 0 33 13t13 33v10h-48v0q-55 0 -101.5 25.5t-74 69.5t-27.5 97q0 56 28 102.5t74.5 74t100.5 27.5v0q54 0 97.5 -27t68.5 -74t25 -103v-210q0 -51 -25 -94.5t-68 -69t-95 -25.5h-245q-10 0 -10 10zM299 340v64q0 26 -18 44t-44 18v0
q-27 0 -45 -18t-18 -44q0 -27 18 -45.5t45 -18.5v0h62zM178 809h129v-128h-129v128z" />
    <glyph glyph-name="uni0641.medi" unicode="&#x641;" horiz-adv-x="512" arabic-form="medial" 
d="M65.5 330.5q29.5 48.5 80 76.5t110.5 28v0q60 0 110 -28t79.5 -76.5t29.5 -108.5q0 -61 -29 -108.5t-79.5 -74t-110.5 -26.5v0q-61 0 -111 26.5t-79.5 74t-29.5 108.5q0 60 29.5 108.5zM-10 10v131q0 10 10 10h512q10 0 10 -10v-131q0 -10 -10 -10h-512q-10 0 -10 10z
M207.5 170q19.5 -19 48.5 -19v0q29 0 48 19t19 47t-19 47t-48 19v0q-29 0 -48.5 -19t-19.5 -47t19.5 -47zM192 641h128v-128h-128v128z" />
    <glyph glyph-name="uni0642.fina" unicode="&#x642;" horiz-adv-x="729" arabic-form="final" 
d="M207 -279.5q-74 43.5 -117.5 117.5t-43.5 161v187h144v-179q0 -48 24 -89t65 -65.5t89 -24.5q49 0 90.5 24.5t65.5 65.5t24 89v-7h-66v0q-60 0 -110 27t-79.5 74.5t-29.5 106.5t29.5 109.5t80 80t109.5 29.5v0q59 0 106.5 -29.5t74.5 -79.5t27 -110v-209q0 -87 -43 -161
t-117 -117.5t-162 -43.5q-87 0 -161 43.5zM548 151v65q0 29 -19 48.5t-47 19.5v0q-29 0 -48.5 -19.5t-19.5 -48.5q0 -28 19.5 -46.5t48.5 -18.5v0h66zM690 151h39q10 0 10 -10v-131q0 -10 -10 -10h-39v151zM328 641h128v-128h-128v128zM508 641h128v-128h-128v128z" />
    <glyph glyph-name="uni0642.init" unicode="&#x642;" horiz-adv-x="464" arabic-form="initial" 
d="M-10 10v131q0 10 10 10h244q20 0 33 13t13 33v10h-48v0q-55 0 -101.5 25.5t-74 69.5t-27.5 97q0 56 28 102.5t74.5 74t100.5 27.5v0q54 0 97.5 -27t68.5 -74t25 -103v-210q0 -51 -25 -94.5t-68 -69t-95 -25.5h-245q-10 0 -10 10zM299 340v64q0 26 -18 44t-44 18v0
q-27 0 -45 -18t-18 -44q0 -27 18 -45.5t45 -18.5v0h62zM88 817h128v-128h-128v128zM268 817h128v-128h-128v128z" />
    <glyph glyph-name="uni0642.medi" unicode="&#x642;" horiz-adv-x="491" arabic-form="medial" 
d="M58.5 330.5q29.5 48.5 79.5 76.5t110 28v0q60 0 110 -28t79.5 -76.5t29.5 -108.5q0 -61 -29 -108.5t-79.5 -74t-110.5 -26.5v0q-60 0 -110.5 26.5t-79.5 74t-29 108.5q0 60 29.5 108.5zM-10 10v131q0 10 10 10h491q10 0 10 -10v-131q0 -10 -10 -10h-491q-10 0 -10 10z
M199.5 170q19.5 -19 48.5 -19v0q29 0 48 18.5t19 47.5t-19 47.5t-48 18.5v0q-29 0 -48.5 -19t-19.5 -47t19.5 -47zM92 649h128v-129h-128v129zM272 649h129v-129h-129v129z" />
    <glyph glyph-name="uni0643.fina" unicode="&#x643;" horiz-adv-x="915" arabic-form="final" 
d="M172 34q-58 34 -92 92t-34 127v120h144v-112q0 -45 32 -77.5t77 -32.5h318q29 0 47.5 19.5t18.5 48.5v445h146v-445q0 -59 -28 -109.5t-76.5 -80t-107.5 -29.5h-318q-69 0 -127 34zM754.5 53.5q-42.5 53.5 -42.5 135.5v475h115v-466q0 -20 13 -33.5t33 -13.5h42
q10 0 10 -10v-131q0 -10 -10 -10h-42q-76 0 -118.5 53.5zM319 354l140 50q16 5 16 20q0 19 -19 23l-144 37l-38 67l205 150l47 -80l-94 -69l33 -9q78 -21 97 -75q8 -24 8 -46q0 -39 -23 -71.5t-62 -47.5l-129 -48z" />
    <glyph glyph-name="uni0643.init" unicode="&#x643;" horiz-adv-x="465" arabic-form="initial" 
d="M0 151h225q27 0 46 18t19 48q0 36 -34 57l-226 149v109l199 212l99 -93l-149 -155l166 -109q42 -27 65.5 -72.5t23.5 -100.5q0 -58 -28.5 -107t-76.5 -78t-106 -29h-223q-10 0 -10 10v131q0 10 10 10z" />
    <glyph glyph-name="uni0643.medi" unicode="&#x643;" horiz-adv-x="523" arabic-form="medial" 
d="M-10 10v131q0 10 10 10h225q27 0 46 18t19 48q0 36 -34 57l-226 149v109l199 212l99 -93l-149 -155l166 -109q42 -27 65.5 -72.5t23.5 -100.5q0 -58 -28.5 -107t-76.5 -78t-106 -29h-223q-10 0 -10 10zM361.5 53.5q-42.5 53.5 -42.5 135.5v25h115v-16q0 -20 13 -33.5
t33 -13.5h43q10 0 10 -10v-131q0 -10 -10 -10h-43q-76 0 -118.5 53.5z" />
    <glyph glyph-name="uni0644.fina" unicode="&#x644;" horiz-adv-x="782" arabic-form="final" 
d="M207 -132.5q-74 43.5 -117.5 117.5t-43.5 161v187h144v-179q0 -48 24 -89t65 -65t89 -24q49 0 90.5 24t65.5 65t24 89v520h139v-528q0 -87 -42.5 -161t-115.5 -117.5t-161 -43.5q-87 0 -161 43.5zM636.5 50.5q-28.5 50.5 -28.5 138.5v485h85v-476q0 -20 13.5 -33.5
t32.5 -13.5h43q10 0 10 -10v-131q0 -10 -10 -10h-43q-74 0 -102.5 50.5z" />
    <glyph glyph-name="uni0644.init" unicode="&#x644;" horiz-adv-x="265" arabic-form="initial" 
d="M-10 10v131q0 10 10 10h38q19 0 32.5 14t13.5 33v476h143v-485q0 -51 -25 -94.5t-68 -69t-95 -25.5h-39q-10 0 -10 10z" />
    <glyph glyph-name="uni0644.medi" unicode="&#x644;" horiz-adv-x="321" arabic-form="medial" 
d="M-10 10v131q0 10 10 10h42q20 0 33.5 13.5t13.5 33.5v476h143v-476q0 -20 13 -33.5t33 -13.5h43q10 0 10 -10v-131q0 -10 -10 -10h-43q-38 0 -68 15t-50 41q-19 -26 -49.5 -41t-68.5 -15h-42q-10 0 -10 10z" />
    <glyph glyph-name="uni0645.fina" unicode="&#x645;" horiz-adv-x="787" arabic-form="final" 
d="M73.5 322q27.5 47 74.5 75t102 28h229v0q60 0 110 -27t79.5 -74.5t29.5 -106.5t-29.5 -109.5t-80 -80t-109.5 -29.5v0q-59 0 -106.5 29.5t-74.5 79.5t-27 110v65h-20q-25 0 -43 -18.5t-18 -43.5v-471h-144v471q0 55 27.5 102zM527.5 168.5q19.5 19.5 19.5 48.5
q0 28 -19.5 47t-48.5 19v0h-66v-66q0 -29 19 -48.5t47 -19.5v0q29 0 48.5 19.5zM625.5 53.5q-42.5 53.5 -42.5 135.5v28h115v-19q0 -20 13 -33.5t33 -13.5h43q10 0 10 -10v-131q0 -10 -10 -10h-43q-76 0 -118.5 53.5z" />
    <glyph glyph-name="uni0645.init" unicode="&#x645;" horiz-adv-x="570" arabic-form="initial" 
d="M213.5 27.5q-47.5 29.5 -74.5 79.5t-27 110v65h-62v143h270v0q60 0 110 -27t79.5 -74.5t29.5 -106.5t-29.5 -109.5t-80 -80t-109.5 -29.5v0q-59 0 -106.5 29.5zM-10 10v131q0 10 10 10h66q19 0 32.5 13.5t13.5 33.5v64h115v-73q0 -82 -42.5 -135.5t-118.5 -53.5h-66
q-10 0 -10 10zM368 168.5q19 19.5 19 48.5q0 28 -19 46.5t-48 18.5v0h-66v-65q0 -29 18.5 -48.5t47.5 -19.5v0q29 0 48 19.5z" />
    <glyph glyph-name="uni0645.medi" unicode="&#x645;" horiz-adv-x="627" arabic-form="medial" 
d="M213.5 27.5q-47.5 29.5 -74.5 79.5t-27 110v65h-62v143h270v0q60 0 110 -27t79.5 -74.5t29.5 -106.5t-29.5 -109.5t-80 -80t-109.5 -29.5v0q-59 0 -106.5 29.5zM-10 10v131q0 10 10 10h66q19 0 32.5 13.5t13.5 33.5v68h115v-77q0 -82 -42.5 -135.5t-118.5 -53.5h-66
q-10 0 -10 10zM368 168.5q19 19.5 19 48.5q0 28 -19 46.5t-48 18.5v0h-66v-65q0 -29 18.5 -48.5t47.5 -19.5v0q29 0 48 19.5zM466 53.5q-42 53.5 -42 135.5v28h115v-19q0 -20 13 -33.5t33 -13.5h42q10 0 10 -10v-131q0 -10 -10 -10h-42q-77 0 -119 53.5z" />
    <glyph glyph-name="uni0646.fina" unicode="&#x646;" horiz-adv-x="782" arabic-form="final" 
d="M207 -132.5q-74 43.5 -117.5 117.5t-43.5 161v187h144v-179q0 -48 24 -89t65 -65t89 -24q49 0 90.5 24t65.5 65t24 89v219h139v-227q0 -87 -42.5 -161t-115.5 -117.5t-161 -43.5q-87 0 -161 43.5zM301 466h129v-128h-129v128zM636.5 50.5q-28.5 50.5 -28.5 138.5v184h85
v-175q0 -20 13.5 -33.5t32.5 -13.5h43q10 0 10 -10v-131q0 -10 -10 -10h-43q-74 0 -102.5 50.5z" />
    <glyph glyph-name="uni0646.init" unicode="&#x646;" horiz-adv-x="275" arabic-form="initial" 
d="M-10 10v131q0 10 10 10h54q19 0 32.5 14t13.5 33v205h143v-214q0 -51 -25 -94.5t-68 -69t-95 -25.5h-55q-10 0 -10 10zM103 617h128v-129h-128v129z" />
    <glyph glyph-name="uni0646.medi" unicode="&#x646;" horiz-adv-x="336" arabic-form="medial" 
d="M0 151h50q20 0 33 13.5t13 33.5v175h144v-175q0 -20 13 -33.5t33 -13.5h50q10 0 10 -10v-131q0 -10 -10 -10h-50q-74 0 -118 49q-46 -49 -118 -49h-50q-10 0 -10 10v131q0 10 10 10zM104 587h128v-128h-128v128z" />
    <glyph glyph-name="uni0647.fina" unicode="&#x647;" horiz-adv-x="559" arabic-form="final" 
d="M152.5 59.5q-50.5 29.5 -80.5 80t-30 109.5q0 58 30 105.5t80.5 75t110.5 27.5v0h66v64h142v-272q0 -60 -27 -110t-74.5 -79.5t-106.5 -29.5v0q-60 0 -110.5 29.5zM310 200.5q19 19.5 19 48.5v64h-66v0q-29 0 -48.5 -18t-19.5 -46q0 -29 19.5 -48.5t48.5 -19.5v0
q28 0 47 19.5zM426.5 25q-38.5 25 -59 68.5t-20.5 95.5v184h124v-175q0 -20 13 -33.5t33 -13.5h42q10 0 10 -10v-131q0 -10 -10 -10h-42q-52 0 -90.5 25z" />
    <glyph glyph-name="uni0647.init" unicode="&#x647;" horiz-adv-x="783" arabic-form="initial" 
d="M305 151q28 0 46.5 20t18.5 45t-18 45t-47 20t-47 -19t-18 -46q0 -30 19.5 -47.5t45.5 -17.5h227q29 0 48.5 18.5t19.5 46.5t-19.5 46.5t-48.5 18.5h-489v143h489q60 0 110 -27t79.5 -74.5t29.5 -106.5t-30 -108.5t-80.5 -78.5t-108.5 -29h-235q-64 0 -110 32.5t-70 82.5
t-24 101q0 46 27 92t75.5 75.5t109.5 29.5q73 0 115 -37.5t58 -83.5t16 -76q0 -72 -29.5 -120.5t-75 -72t-92.5 -23.5h-299l2 151h305z" />
    <glyph glyph-name="uni0647.medi" unicode="&#x647;" horiz-adv-x="554" arabic-form="medial" 
d="M0 151h42v65q0 60 27 110t74.5 79.5t106.5 29.5t110 -29.5t80.5 -80t29.5 -109.5t-29.5 -108.5t-80 -78.5t-110.5 -29h-64v-39q0 -27 19.5 -46.5t46.5 -19.5h249v-142h-250q-56 0 -104 28t-76.5 76t-28.5 104v39h-42q-10 0 -10 10v131q0 10 10 10zM330 42q26 50 73 79.5
t107 29.5h44q10 0 10 -10v-131q0 -10 -10 -10h-55q-29 0 -46.5 -19t-17.5 -49v-158h-131v158q0 60 26 110zM298.5 169.5q19.5 18.5 19.5 46.5q0 29 -19.5 48t-48.5 19q-28 0 -47 -19t-19 -48v-65h66q29 0 48.5 18.5z" />
    <glyph glyph-name="uni0648.fina" unicode="&#x648;" horiz-adv-x="512" arabic-form="final" 
d="M252.5 -95q43.5 24 59.5 45t16 50h-65v0q-60 0 -110 27t-79.5 74.5t-29.5 106.5q0 60 29.5 110t79.5 79.5t110 29.5v0q58 0 106 -29.5t75 -79.5t27 -110v-146q0 -93 -28.5 -150.5t-92 -100t-185.5 -95.5l-45 127q89 38 132.5 62zM263 142h65v67q0 29 -18.5 48t-46.5 19v0
q-29 0 -48.5 -19t-19.5 -48t19.5 -48t48.5 -19v0zM464 151h48q10 0 10 -10v-131q0 -10 -10 -10h-48v151z" />
    <glyph glyph-name="uni0649.fina" unicode="&#x649;" horiz-adv-x="768" arabic-form="final" 
d="M46 246h144v-235q0 -45 32 -77.5t77 -32.5h232q21 0 35.5 15t14.5 35t-14.5 34.5t-35.5 14.5h-191v124h188q88 0 145 -46.5t57 -126.5q0 -55 -27 -101t-73 -73t-102 -27h-229q-69 0 -127 34t-92 92t-34 127v243zM324 0v151h444q10 0 10 -10v-131q0 -10 -10 -10h-444z" />
    <glyph glyph-name="uni064A.fina" unicode="&#x64a;" horiz-adv-x="768" arabic-form="final" 
d="M172 -216q-58 34 -92 92t-34 127v243h144v-235q0 -45 32 -77.5t77 -32.5h232q21 0 35.5 15t14.5 35t-14.5 34.5t-35.5 14.5h-191v124h188q88 0 145 -46.5t57 -126.5q0 -55 -27 -101t-73 -73t-102 -27h-229q-69 0 -127 34zM234 -336h128v-128h-128v128zM414 -336h128v-128
h-128v128zM324 151h444q10 0 10 -10v-131q0 -10 -10 -10h-444v151z" />
    <glyph glyph-name="uni064A.init" unicode="&#x64a;" horiz-adv-x="334" arabic-form="initial" 
d="M-10 10v131q0 10 10 10h108q19 0 32.5 14t13.5 33v205h143v-214q0 -51 -25 -94.5t-68 -69t-95 -25.5h-109q-10 0 -10 10zM0 -86h128v-128h-128v128zM180 -86h129v-128h-129v128z" />
    <glyph glyph-name="uni064A.medi" unicode="&#x64a;" horiz-adv-x="366" arabic-form="medial" 
d="M0 151h65q20 0 33 13.5t13 33.5v175h144v-175q0 -20 13 -33.5t33 -13.5h65q10 0 10 -10v-131q0 -10 -10 -10h-65q-74 0 -118 49q-46 -49 -118 -49h-65q-10 0 -10 10v131q0 10 10 10zM28 -86h129v-128h-129v128zM209 -86h128v-128h-128v128z" />
    <glyph glyph-name=".notdef" horiz-adv-x="465" 
d="M30 705h405v-705h-405v705zM227 306q4 9 6 28q1 3 2 8.5t2 13.5l-27 20l-19 -10q-18 -9 -25.5 -15t-23.5 -28l-22 -30l65 -47l22 29q16 22 20 31zM166 370q6 0 18.5 2t25.5 4l10 31q-8 8 -19 19.5t-21 17t-31 12.5l-35 11l-25 -76l35 -11q26 -10 42 -10zM353 292l-21 30
q-15 21 -23 27.5t-25 15.5q-3 2 -8 4.5t-12 6.5l-27 -20q3 -13 3 -22q3 -20 7 -29t19 -30l22 -30zM264 427q9 18 11.5 28t2.5 35v37h-81v-37q0 -26 2.5 -36t11.5 -29l9 -18h34zM385 389l-24 77l-36 -11q-25 -8 -33.5 -13t-21.5 -19l-16 -16l10 -31l22 -4q15 -3 23 -3
q11 0 41 10z" />
    <glyph glyph-name=".null" horiz-adv-x="600" 
 />
    <glyph glyph-name="nonmarkingreturn" unicode="&#xd;" horiz-adv-x="600" 
 />
    <glyph glyph-name="space" unicode=" " horiz-adv-x="172" 
 />
    <glyph glyph-name="space" unicode="&#xa0;" horiz-adv-x="172" 
 />
    <glyph glyph-name="exclam" unicode="!" horiz-adv-x="277" 
d="M187 203h-98l-32 509h162zM82.5 9.5q-24.5 24.5 -24.5 56.5q0 33 23 56.5t57 23.5q36 0 58 -24t22 -56q0 -35 -24 -58t-56 -23q-31 0 -55.5 24.5z" />
    <glyph glyph-name="quotedbl" unicode="&#x22;" horiz-adv-x="447" 
d="M179 424h-125l-11 288h148zM393 424h-125l-11 288h148z" />
    <glyph glyph-name="numbersign" unicode="#" horiz-adv-x="748" 
d="M558 271h128v-118h-143l-19 -153h-126l19 153h-133l-20 -153h-125l19 153h-128v118h143l18 150h-128v118h143l19 150h125l-19 -150h134l19 150h126l-19 -150h127v-118h-142zM298 271h134l18 150h-133z" />
    <glyph glyph-name="dollar" unicode="$" horiz-adv-x="678" 
d="M189 6.5q-78 20.5 -134 52.5l52 127q42 -24 108.5 -41.5t119.5 -17.5q61 0 98.5 18.5t37.5 51.5q0 31 -28.5 46.5t-94.5 32.5q-20 6 -30 8q-95 27 -148.5 58t-76.5 71t-23 98q0 66 37.5 115t103 75.5t148.5 26.5q108 0 239 -48l-51 -131q-109 37 -189 37q-62 0 -99 -20
t-37 -55q0 -25 15 -39.5t44 -24.5t91 -25q140 -35 195.5 -85t55.5 -126q0 -69 -36 -120t-100 -78t-146 -27q-74 0 -152 20.5zM302 12h111v-110h-111v110zM302 812h111v-111h-111v111z" />
    <glyph glyph-name="percent" unicode="%" horiz-adv-x="898" 
d="M84 389.5q-49 52.5 -49 140.5t48.5 140.5t128.5 52.5t128.5 -53t48.5 -140q0 -88 -49 -140.5t-128 -52.5t-128 52.5zM272 0h-134l493 723h134zM259.5 453.5q16.5 30.5 16.5 76.5q0 48 -16.5 77.5t-47.5 29.5t-48 -30.5t-17 -76.5q0 -48 17 -77.5t48 -29.5t47.5 30.5z
M558 44.5q-49 52.5 -49 140.5t48.5 140.5t128.5 52.5t128.5 -53t48.5 -140q0 -88 -49 -140.5t-128 -52.5t-128 52.5zM733.5 108.5q16.5 30.5 16.5 76.5q0 48 -16.5 77.5t-47.5 29.5q-32 0 -48.5 -30t-16.5 -77q0 -48 17 -77.5t48 -29.5t47.5 30.5z" />
    <glyph glyph-name="ampersand" unicode="&#x26;" horiz-adv-x="768" 
d="M184 10q-58 23 -91.5 67.5t-33.5 104.5q0 63 34.5 105.5t109.5 89.5q-37 39 -58 80t-21 77q0 83 63.5 129.5t160.5 46.5q91 0 148.5 -43.5t57.5 -120.5q0 -54 -32.5 -96.5t-98.5 -79.5l122 -116q34 44 72 106l94 -56q-38 -68 -89 -132l93 -86l-86 -96l-94 88
q-60 -45 -109 -68t-112 -23q-72 0 -130 23zM443 156l-157 149q-39 -26 -58.5 -50t-19.5 -54q0 -37 33 -60t86 -23q67 0 116 38zM392 497.5q21 20.5 21 44.5t-17.5 38.5t-47.5 14.5q-33 0 -52.5 -16t-19.5 -42q0 -19 11 -36.5t40 -46.5q44 23 65 43.5z" />
    <glyph glyph-name="quotesingle" unicode="'" horiz-adv-x="234" 
d="M179 424h-125l-11 288h148z" />
    <glyph glyph-name="parenleft" unicode="(" horiz-adv-x="363" 
d="M100 25.5q-33 120.5 -33 257.5t33 257.5t95 210.5l119 -53q-49 -98 -72 -199.5t-23 -215.5q0 -113 23 -215t72 -200l-119 -53q-62 90 -95 210.5z" />
    <glyph glyph-name="parenright" unicode=")" horiz-adv-x="363" 
d="M120.5 68.5q23.5 102.5 23.5 214.5q0 113 -23.5 214.5t-71.5 200.5l119 53q62 -90 94.5 -210.5t32.5 -257.5t-32.5 -257.5t-94.5 -210.5l-119 53q48 98 71.5 200.5z" />
    <glyph glyph-name="asterisk" unicode="*" horiz-adv-x="529" 
d="M279 382q-6 15 -10 48l-4 36l45 33q12 -6 20.5 -10.5t14.5 -7.5q27 -13 39.5 -23.5t37.5 -44.5l31 -43l-111 -81l-31 43q-26 35 -32 50zM386 487q-12 0 -37 5q-28 6 -39 7l-17 54q20 20 27 28q21 21 35 29.5t54 22.5l52 16l42 -131l-51 -16q-45 -15 -66 -15zM219 587
q-15 28 -19 44t-4 58v53h138v-53q0 -43 -4 -59t-20 -44l-17 -33h-57zM26 520l43 130l51 -16q41 -14 55 -22.5t36 -32.5l25 -26l-17 -54q-16 -2 -42 -7q-28 -4 -33 -4q-11 0 -28 4.5t-39 11.5zM74 370l32 44q25 35 37.5 45t42.5 25l33 15l46 -33q-5 -25 -6 -38
q-5 -31 -11 -45.5t-31 -49.5l-32 -43z" />
    <glyph glyph-name="plus" unicode="+" horiz-adv-x="623" 
d="M241 259h-175v133h175v175h141v-175h176v-133h-176v-175h-141v175z" />
    <glyph glyph-name="comma" unicode="," horiz-adv-x="303" 
d="M91.5 -64.5q21.5 34.5 27.5 43.5l11 19q-25 -1 -47.5 23t-22.5 55q0 39 27 66t65 27q42 0 67.5 -27t25.5 -65q0 -52 -28 -118t-88 -143l-81 55q22 30 43.5 64.5z" />
    <glyph glyph-name="hyphen" unicode="-" horiz-adv-x="419" 
d="M58 355h303v-133h-303v133z" />
    <glyph glyph-name="period" unicode="." horiz-adv-x="302" 
d="M87.5 12.5q-27.5 27.5 -27.5 64.5q0 38 26 65t65 27q40 0 65.5 -27.5t25.5 -64.5q0 -39 -27.5 -65.5t-63.5 -26.5t-63.5 27.5z" />
    <glyph glyph-name="slash" unicode="/" horiz-adv-x="416" 
d="M142 -100h-152l285 812h151z" />
    <glyph glyph-name="zero" unicode="0" horiz-adv-x="612" 
d="M61 543q29 83 90.5 132t153.5 49q90 0 152 -49.5t92.5 -132.5t30.5 -185q0 -101 -31 -185t-93 -134.5t-151 -50.5q-88 0 -149.5 51.5t-92.5 136t-31 182.5q0 103 29 186zM202 229.5q18 -51.5 46.5 -76.5t59.5 -25q33 0 60.5 24.5t44 75.5t16.5 128q0 76 -17 127
t-44.5 75.5t-59.5 24.5q-33 0 -61 -24.5t-45.5 -76t-17.5 -126.5t18 -126.5z" />
    <glyph glyph-name="one" unicode="1" horiz-adv-x="390" 
d="M329 0h-152v500l-79 -69l-83 113l188 168h126v-712z" />
    <glyph glyph-name="two" unicode="2" horiz-adv-x="574" 
d="M64 136l194 180q52 52 80.5 92t28.5 80t-21.5 62t-55.5 22q-42 0 -62 -31t-20 -74v-16h-153v20q0 119 62 186t174 67q103 0 165.5 -60.5t62.5 -169.5q0 -74 -31.5 -128t-95.5 -119l-116 -108h241v-139h-454z" />
    <glyph glyph-name="three" unicode="3" horiz-adv-x="592" 
d="M182 19.5q-58 32.5 -91.5 88t-33.5 120.5v3h151v-3q0 -41 29.5 -70.5t70.5 -29.5q40 0 69.5 29.5t29.5 70.5t-29 70.5t-70 29.5q-22 0 -43 -6t-52 -19l-41 113q63 38 136 38q69 0 126.5 -28.5t91 -80t33.5 -117.5q0 -65 -33.5 -120.5t-91.5 -88t-126 -32.5t-126 32.5z
M135 410l200 163l-256 -1v139l432 1v-145l-298 -264z" />
    <glyph glyph-name="four" unicode="4" horiz-adv-x="580" 
d="M467 126v-126h-151v126h-284v128l219 457h216v-446h81v-139h-81zM316 514l-129 -249h129v249z" />
    <glyph glyph-name="five" unicode="5" horiz-adv-x="582" 
d="M170 19.5q-58 32.5 -91.5 88t-33.5 120.5h152q0 -41 29.5 -70.5t69.5 -29.5q41 0 70.5 29.5t29.5 70.5t-29.5 70.5t-70.5 29.5q-49 0 -96 -38l-56 112q75 52 152 52q69 0 126.5 -28.5t91 -80t33.5 -117.5q0 -65 -33.5 -120.5t-91.5 -88t-126 -32.5t-126 32.5zM52 323
l39 388h397v-139h-261l-27 -282z" />
    <glyph glyph-name="six" unicode="6" horiz-adv-x="603" 
d="M164.5 29.5q-61.5 41.5 -94.5 118t-33 177.5q0 117 32 206.5t95.5 140t155.5 50.5q59 0 109 -26t83.5 -71.5t44.5 -101.5l-131 -18q-13 33 -41 55.5t-67 22.5q-38 0 -66 -25.5t-42 -66t-12 -81.5q17 27 50 44t69 17q68 0 125 -27.5t91 -79t34 -119.5q0 -70 -34.5 -129
t-93.5 -93.5t-128 -34.5q-85 0 -146.5 41.5zM383.5 158q31.5 31 31.5 74t-31.5 74t-76.5 31t-76.5 -31t-31.5 -74t31.5 -74t76.5 -31t76.5 31z" />
    <glyph glyph-name="seven" unicode="7" horiz-adv-x="480" 
d="M206 0h-162l261 572h-290v139h450v-143z" />
    <glyph glyph-name="eight" unicode="8" horiz-adv-x="563" 
d="M156 19.5q-57 31.5 -90.5 86t-33.5 119.5t33 114t90 76t126 27q70 0 127 -27t90 -76t33 -114t-33.5 -119.5t-90.5 -86t-126 -31.5q-68 0 -125 31.5zM351 157q29 28 29 68t-28.5 65.5t-70.5 25.5q-41 0 -69.5 -25.5t-28.5 -65.5t28.5 -68t69.5 -28t70 28zM173 355.5
q-49 23.5 -77.5 66t-28.5 98.5t29 102.5t78 73.5t107 27q59 0 108 -27t78 -73.5t29 -102.5t-28.5 -98.5t-77.5 -66t-109 -23.5q-59 0 -108 23.5zM332.5 463.5q20.5 18.5 20.5 48.5t-21 50t-51 20t-50.5 -20t-20.5 -50q0 -29 20.5 -48t50.5 -19q31 0 51.5 18.5z" />
    <glyph glyph-name="nine" unicode="9" horiz-adv-x="603" 
d="M174.5 14q-50.5 26 -84 71.5t-44.5 101.5l131 18q14 -33 42 -55.5t67 -22.5q38 0 65.5 26t42 66t12.5 81q-17 -27 -50.5 -44t-69.5 -17q-68 0 -124.5 27.5t-90.5 79t-34 119.5q0 70 34.5 129t93.5 93.5t128 34.5q85 0 146.5 -41.5t94.5 -118t33 -177.5q0 -117 -32 -206.5
t-95.5 -140t-155.5 -50.5q-59 0 -109.5 26zM373 404.5q32 31.5 32 74.5q0 42 -32 73t-76 31q-45 0 -77 -31t-32 -73q0 -44 32 -75t77 -31q44 0 76 31.5z" />
    <glyph glyph-name="colon" unicode=":" horiz-adv-x="302" 
d="M87.5 319.5q-27.5 27.5 -27.5 64.5q0 38 26 65t65 27q40 0 65.5 -27.5t25.5 -64.5q0 -39 -27.5 -65.5t-63.5 -26.5t-63.5 27.5zM87.5 12.5q-27.5 27.5 -27.5 64.5q0 38 26 65t65 27q40 0 65.5 -27.5t25.5 -64.5q0 -39 -27.5 -65.5t-63.5 -26.5t-63.5 27.5z" />
    <glyph glyph-name="semicolon" unicode=";" horiz-adv-x="303" 
d="M91.5 -64.5q21.5 34.5 27.5 43.5l11 19q-25 -1 -47.5 23t-22.5 55q0 39 27 66t65 27q42 0 67.5 -27t25.5 -65q0 -52 -28 -118t-88 -143l-81 55q22 30 43.5 64.5zM87.5 319.5q-27.5 27.5 -27.5 64.5q0 38 26 65t65 27q40 0 65.5 -27.5t25.5 -64.5q0 -39 -27.5 -65.5
t-63.5 -26.5t-63.5 27.5z" />
    <glyph glyph-name="less" unicode="&#x3c;" horiz-adv-x="564" 
d="M222 350l286 -118v-133l-448 181v140l448 181v-133z" />
    <glyph glyph-name="equal" unicode="=" horiz-adv-x="606" 
d="M60 541h486v-133h-486v133zM60 292h486v-133h-486v133z" />
    <glyph glyph-name="greater" unicode="&#x3e;" horiz-adv-x="564" 
d="M56 232l287 118l-287 118v133l448 -181v-140l-448 -181v133z" />
    <glyph glyph-name="question" unicode="?" horiz-adv-x="433" 
d="M169 294q10 38 39 81q2 3 17 26q26 37 38.5 61.5t12.5 51.5q0 35 -24.5 59.5t-59.5 24.5q-26 0 -46.5 -14.5t-30.5 -36.5q-1 -3 -11 -24l-90 34q8 46 36 83t70 58.5t90 21.5q54 0 98 -25.5t69.5 -69.5t25.5 -98q0 -44 -18 -82.5t-59 -89.5q-67 -81 -68 -152h-98
q-1 53 9 91zM153 9.5q-24 24.5 -24 56.5q0 33 23 56.5t56 23.5q36 0 58.5 -24t22.5 -56q0 -35 -24 -58t-57 -23q-31 0 -55 24.5z" />
    <glyph glyph-name="at" unicode="@" horiz-adv-x="1036" 
d="M270 -148.5q-110 58.5 -172 163t-62 238.5t63 238.5t174.5 162t251.5 57.5q134 0 242.5 -55.5t170.5 -154.5t62 -225q0 -80 -25 -144.5t-73 -102t-114 -37.5q-97 0 -130 76q-1 3 -6 16.5t-6 20.5q-23 -52 -67.5 -82.5t-103.5 -30.5q-64 0 -114.5 34t-79 92t-28.5 127
q0 70 28.5 127.5t79.5 90.5t114 33q49 0 88 -19.5t62 -55.5v67h147v-319q0 -29 13.5 -45t36.5 -16q37 0 52 48t15 117q0 101 -47 177.5t-130 118.5t-187 42q-107 0 -190.5 -46t-130 -127.5t-46.5 -184.5q0 -105 46 -186.5t128.5 -127t188.5 -45.5q105 0 199 44l33 -97
q-44 -22 -107 -35t-125 -13q-141 0 -251 58.5zM594.5 160.5q33.5 34.5 33.5 84.5q0 51 -33.5 85t-82.5 34q-50 0 -83 -34t-33 -85q0 -50 33.5 -84.5t82.5 -34.5t82.5 34.5z" />
    <glyph glyph-name="A" unicode="A" horiz-adv-x="709" 
d="M267 712h159l-257 -712h-160zM283 712h159l258 -712h-159zM212 270h291v-140h-291v140z" />
    <glyph glyph-name="B" unicode="B" horiz-adv-x="634" 
d="M62 712h299q56 0 104 -27.5t76 -75.5t28 -104q0 -42 -17.5 -75.5t-47.5 -54.5q44 -21 69.5 -61t25.5 -94q0 -60 -30 -110.5t-80.5 -80t-110.5 -29.5h-316v712zM424.5 165.5q22.5 22.5 22.5 54.5q0 30 -22.5 53t-54.5 23h-156v-153h156q32 0 54.5 22.5zM397 455.5
q20 20.5 20 49.5q0 28 -20.5 48t-48.5 20h-134v-138h134q29 0 49 20.5z" />
    <glyph glyph-name="C" unicode="C" horiz-adv-x="776" 
d="M220 36q-81 50 -128.5 135t-47.5 186q0 100 47.5 185t128.5 135t177 50q81 0 151.5 -36t120 -99.5t68.5 -143.5l-130 -18q-21 68 -76.5 111t-123.5 43q-57 0 -105.5 -30.5t-77 -82.5t-28.5 -114t28.5 -114.5t76.5 -83t106 -30.5q68 0 123.5 43t76.5 111l130 -16
q-19 -80 -68.5 -144t-120 -100.5t-151.5 -36.5q-96 0 -177 50z" />
    <glyph glyph-name="D" unicode="D" horiz-adv-x="693" 
d="M53 712h239q97 0 178.5 -48t129.5 -129.5t48 -178.5t-48 -178.5t-129.5 -129.5t-178.5 -48h-239v712zM387.5 165.5q50.5 29.5 80 80t29.5 110.5t-29.5 110.5t-80 80t-110.5 29.5h-72v-440h72q60 0 110.5 29.5z" />
    <glyph glyph-name="E" unicode="E" horiz-adv-x="569" 
d="M53 712h485l1 -140l-334 1v-153h296v-129h-296v-152h333v-139h-485v712z" />
    <glyph glyph-name="F" unicode="F" horiz-adv-x="538" 
d="M53 712h462v-140l-310 1v-153h276v-129h-276v-291h-152v712z" />
    <glyph glyph-name="G" unicode="G" horiz-adv-x="770" 
d="M209 36q-81 50 -128.5 135t-47.5 186q0 100 47.5 185t128.5 135t176 50q108 0 196 -63t128 -165l-123 -43q-26 58 -77.5 93t-113.5 35q-57 0 -105 -30.5t-76.5 -82.5t-28.5 -114t28 -114.5t76.5 -83t105.5 -30.5q50 0 93.5 23.5t73 64.5t38.5 92l137 48
q0 -101 -47.5 -186t-128.5 -135t-176 -50t-176 50zM347 399h390v-42l-18 -79h-372v121z" />
    <glyph glyph-name="H" unicode="H" horiz-adv-x="705" 
d="M500 0v291h-295v-291h-152v712h152v-292h295v292h152v-712h-152z" />
    <glyph glyph-name="I" unicode="I" horiz-adv-x="258" 
d="M53 0v712h152v-712h-152z" />
    <glyph glyph-name="J" unicode="J" horiz-adv-x="247" 
d="M-94 -79h57q34 0 56.5 22t22.5 55v714h151v-708q0 -60 -29 -111t-78.5 -81t-107.5 -30h-72v139z" />
    <glyph glyph-name="K" unicode="K" horiz-adv-x="665" 
d="M645 712l-448 -507l-7 222l261 285h194zM205 712v-712h-152v712h152zM366 417l289 -417h-177l-257 370z" />
    <glyph glyph-name="L" unicode="L" horiz-adv-x="493" 
d="M475 0h-422v712h152v-573h270v-139z" />
    <glyph glyph-name="M" unicode="M" horiz-adv-x="867" 
d="M53 712h223l157 -477l158 477h223v-712h-144v493l-163 -428h-148l-162 428v-493h-144v712z" />
    <glyph glyph-name="N" unicode="N" horiz-adv-x="718" 
d="M445 0l-248 492v-492h-144v712h196l272 -549v549h144v-712h-220z" />
    <glyph glyph-name="O" unicode="O" horiz-adv-x="823" 
d="M227.5 36q-84.5 50 -134 135t-49.5 186q0 100 49.5 185t134 135t184.5 50q99 0 183 -50t133.5 -135t49.5 -185q0 -101 -49.5 -186t-133.5 -135t-183 -50q-100 0 -184.5 50zM519.5 159.5q49.5 30.5 78.5 83t29 114.5q0 61 -29 113.5t-78.5 83t-107.5 30.5
q-59 0 -109.5 -30.5t-79.5 -82.5t-29 -114t29 -114.5t79.5 -83t109.5 -30.5q58 0 107.5 30.5z" />
    <glyph glyph-name="P" unicode="P" horiz-adv-x="602" 
d="M53 712h269q68 0 125.5 -33.5t91 -91t33.5 -125.5t-33.5 -125.5t-91 -91t-125.5 -33.5h-117v-212h-152v712zM205 351h107q44 0 76.5 32.5t32.5 78.5q0 45 -32.5 78t-76.5 33h-107v-222z" />
    <glyph glyph-name="Q" unicode="Q" horiz-adv-x="827" 
d="M229 37.5q-85 49.5 -135 134.5t-50 185t50 184.5t135 134t185 49.5t185 -49.5t134.5 -134t49.5 -184.5t-49.5 -185t-134.5 -134.5t-185 -49.5t-185 49.5zM414 -12l19 50q80 0 132.5 -17.5t70.5 -66.5l20 -51l-138 -44l-30 77q-20 52 -74 52zM523 162.5q50 30.5 79 82
t29 112.5t-29 112.5t-79 81.5t-109 30q-60 0 -110.5 -30t-80 -81.5t-29.5 -112.5t29.5 -112.5t80 -82t110.5 -30.5q59 0 109 30.5z" />
    <glyph glyph-name="R" unicode="R" horiz-adv-x="632" 
d="M53 712h270q67 0 124.5 -33.5t91 -91t33.5 -125.5q0 -67 -33.5 -119t-90 -80.5t-125.5 -28.5h-118v-234h-152v712zM357.5 216q-21.5 17 -64.5 17h-116v73h108q83 0 123.5 -5.5t71.5 -30t55 -81.5l78 -189h-150l-69 164q-15 35 -36.5 52zM388 384q32 33 32 78t-32 78
t-76 33h-107v-222h107q44 0 76 33z" />
    <glyph glyph-name="S" unicode="S" horiz-adv-x="630" 
d="M166 6.5q-78 20.5 -134 52.5l52 127q42 -24 108.5 -41.5t119.5 -17.5q61 0 98.5 18.5t37.5 51.5q0 31 -28.5 46t-94.5 33q-20 6 -30 8q-95 27 -148.5 58t-76.5 71t-23 98q0 66 37.5 115t103 75.5t148.5 26.5q109 0 238 -48l-50 -131q-109 37 -190 37q-61 0 -98 -20
t-37 -55q0 -25 15 -39.5t44 -24.5t91 -25q139 -34 194.5 -84.5t55.5 -126.5q0 -69 -36 -120t-100 -78t-146 -27q-73 0 -151 20.5z" />
    <glyph glyph-name="T" unicode="T" horiz-adv-x="543" 
d="M195 573h-184l-1 139h522v-139h-186v-573h-151v573z" />
    <glyph glyph-name="U" unicode="U" horiz-adv-x="663" 
d="M190.5 32q-64.5 38 -102 102.5t-37.5 140.5v437h151v-445q0 -35 17.5 -64.5t47 -47t64.5 -17.5t65 17.5t47.5 47t17.5 64.5v445h151v-437q0 -76 -37.5 -140.5t-102 -102.5t-141.5 -38q-76 0 -140.5 38z" />
    <glyph glyph-name="V" unicode="V" horiz-adv-x="634" 
d="M212 0l-203 712h155l153 -548l154 548h154l-203 -712h-210z" />
    <glyph glyph-name="W" unicode="W" horiz-adv-x="902" 
d="M9 712h149l81 -559l120 502h185l119 -502l82 559h148l-129 -712h-204l-109 519l-109 -519h-203z" />
    <glyph glyph-name="X" unicode="X" horiz-adv-x="655" 
d="M186 0l460 712h-176l-461 -712h177zM646 0l-460 712h-177l461 -712h176z" />
    <glyph glyph-name="Y" unicode="Y" horiz-adv-x="612" 
d="M228 238l-219 474h164l129 -292l136 292h164l-223 -474v-238h-151v238z" />
    <glyph glyph-name="Z" unicode="Z" horiz-adv-x="578" 
d="M555 0h-532v166l354 407h-346v139h521v-166l-352 -407h354z" />
    <glyph glyph-name="bracketleft" unicode="[" horiz-adv-x="371" 
d="M65 744h266v-133h-115v-656h115v-132h-266v921z" />
    <glyph glyph-name="backslash" unicode="\" horiz-adv-x="420" 
d="M-10 712h156l284 -812h-155z" />
    <glyph glyph-name="bracketright" unicode="]" horiz-adv-x="371" 
d="M40 -177v132h115v656h-115v133h266v-921h-266z" />
    <glyph glyph-name="asciicircum" unicode="^" horiz-adv-x="606" 
d="M303 425l-118 -285h-133l181 420h139l182 -420h-134z" />
    <glyph glyph-name="underscore" unicode="_" horiz-adv-x="500" 
d="M500 -133h-500v133h500v-133z" />
    <glyph glyph-name="a" unicode="a" horiz-adv-x="637" 
d="M169 25q-62 37 -98.5 99t-36.5 135q0 72 36.5 134t98.5 98.5t136 36.5q70 0 118.5 -36t72.5 -97t24 -137t-24 -137t-72.5 -97t-118.5 -36q-74 0 -136 37zM404.5 167q37.5 37 37.5 91t-37.5 91.5t-90.5 37.5q-54 0 -91 -37.5t-37 -91.5t37 -91t91 -37q53 0 90.5 37z
M468 173l-26 -8v187h151v-352h-125v173zM442 351l26 -8v173h125v-351h-151v186z" />
    <glyph glyph-name="b" unicode="b" horiz-adv-x="647" 
d="M223.5 24q-48.5 36 -72.5 97t-24 137t24 137t72.5 97t118.5 36q73 0 135 -36.5t98.5 -98.5t36.5 -134q0 -73 -36.5 -135t-98.5 -99t-135 -37q-70 0 -118.5 36zM53 742h152v-633l-26 7v-116h-126v742zM423.5 167q37.5 37 37.5 91t-37.5 91.5t-90.5 37.5q-54 0 -91 -37.5
t-37 -91.5t37 -91t91 -37q53 0 90.5 37z" />
    <glyph glyph-name="c" unicode="c" horiz-adv-x="599" 
d="M169 25q-62 37 -98.5 99t-36.5 135q0 72 36.5 134t98.5 98.5t136 36.5q65 0 120 -28t92 -76t48 -108l-130 -19q-12 39 -46 64.5t-75 25.5q-53 0 -90.5 -37.5t-37.5 -91.5q0 -35 17 -64.5t46.5 -47t64.5 -17.5q41 0 75 25.5t46 64.5l130 -18q-11 -60 -48 -108.5t-92 -76.5
t-120 -28q-74 0 -136 37z" />
    <glyph glyph-name="d" unicode="d" horiz-adv-x="647" 
d="M169 25q-62 37 -98.5 99t-36.5 135q0 72 36.5 134t98.5 98.5t136 36.5q70 0 118.5 -36t72.5 -97t24 -137t-24 -137t-72.5 -97t-118.5 -36q-74 0 -136 37zM404.5 167q37.5 37 37.5 91t-37.5 91.5t-90.5 37.5t-90.5 -37.5t-37.5 -91.5t37.5 -91t90.5 -37t90.5 37zM468 116
l-26 -7v633h152v-742h-126v116z" />
    <glyph glyph-name="e" unicode="e" horiz-adv-x="595" 
d="M173 25q-62 37 -98.5 99t-36.5 135q0 72 36.5 134t98.5 98.5t135 36.5q75 0 133.5 -36t91.5 -98t33 -135q0 -35 -4 -58h-379q12 -39 47 -64.5t80 -25.5q73 0 117 52l110 -58q-37 -56 -97 -86.5t-132 -30.5q-73 0 -135 37zM385 378q-33 23 -75 23q-41 0 -74.5 -23
t-47.5 -60h244q-14 37 -47 60z" />
    <glyph glyph-name="f" unicode="f" horiz-adv-x="433" 
d="M273 0h-151v377h-104v140h255v-517zM147.5 667q25.5 43 69 68t94.5 25h108v-133h-99q-20 0 -33.5 -13.5t-13.5 -34.5v-62h124v-140h-275v195q0 52 25.5 95z" />
    <glyph glyph-name="g" unicode="g" horiz-adv-x="634" 
d="M145 -89h208q45 0 78.5 33t33.5 80v390l3 -7v109h126v-491q0 -69 -34 -128t-92 -94t-126 -35h-197v143zM169 25q-62 37 -98.5 99t-36.5 135q0 72 36.5 134t98.5 98.5t136 36.5q70 0 118.5 -36t72.5 -97t24 -137t-24 -137t-72.5 -97t-118.5 -36q-74 0 -136 37z
M378.5 146.5q29.5 17.5 46.5 47t17 64.5q0 54 -37.5 91.5t-90.5 37.5t-90.5 -37.5t-37.5 -91.5q0 -35 17 -64.5t46.5 -47t64.5 -17.5t64.5 17.5z" />
    <glyph glyph-name="h" unicode="h" horiz-adv-x="570" 
d="M360.5 351q-26.5 27 -65.5 27q-36 0 -63 -27t-27 -64h-78q0 60 23 115.5t67.5 90.5t105.5 35t110.5 -32t77.5 -86t28 -118v-292h-152v287q0 37 -26.5 64zM53 742h152v-742h-152v742z" />
    <glyph glyph-name="i" unicode="i" horiz-adv-x="246" 
d="M47 516h151v-516h-151v516zM45 688h156v-117h-156v117z" />
    <glyph glyph-name="j" unicode="j" horiz-adv-x="241" 
d="M-55 -61h55q20 0 33 13t13 33v531h151v-531q0 -52 -25.5 -95t-69 -68t-94.5 -25h-63v142zM44 688h156v-117h-156v117z" />
    <glyph glyph-name="k" unicode="k" horiz-adv-x="570" 
d="M242 205l99 120l215 -325h-177zM53 741h152v-741h-152v741zM205 360l148 156h186l-334 -365v209z" />
    <glyph glyph-name="l" unicode="l" horiz-adv-x="268" 
d="M140.5 23q-40.5 23 -64 62.5t-23.5 87.5v568h151v-577q0 -10 6.5 -16t17.5 -6h17v-142h-17q-47 0 -87.5 23z" />
    <glyph glyph-name="m" unicode="m" horiz-adv-x="840" 
d="M633.5 356q-22.5 23 -55.5 23q-31 0 -54 -23t-23 -55l-78 2q0 56 21.5 108t63.5 84.5t99 32.5t103 -29.5t72 -80t26 -110.5v-308h-152v301q0 32 -22.5 55zM43 516h126v-106l26 -3v-407h-152v516zM327 356q-23 23 -55 23q-31 0 -54 -23t-23 -55l-78 2q0 57 21.5 108.5
t63 84t98.5 32.5t103 -29.5t72 -80t26 -110.5v-308h-151v301q0 32 -23 55z" />
    <glyph glyph-name="n" unicode="n" horiz-adv-x="560" 
d="M350.5 352q-26.5 27 -65.5 27q-36 0 -63 -27t-27 -64h-78q0 60 23 115t67.5 90t105.5 35t110.5 -32t77.5 -86t28 -118v-292h-152v288q0 37 -26.5 64zM43 516h126v-106l26 -3v-407h-152v516z" />
    <glyph glyph-name="o" unicode="o" horiz-adv-x="628" 
d="M173.5 24.5q-64.5 36.5 -102 98.5t-37.5 136q0 73 37.5 135t102 98t141.5 36q76 0 139.5 -36t101 -98t37.5 -135q0 -74 -37.5 -136t-101 -98.5t-139.5 -36.5q-77 0 -141.5 36.5zM404.5 167q37.5 37 37.5 91t-37.5 91.5t-90.5 37.5q-54 0 -91 -37.5t-37 -91.5t37 -91
t91 -37q53 0 90.5 37z" />
    <glyph glyph-name="p" unicode="p" horiz-adv-x="643" 
d="M220 24q-49 36 -73 97t-24 137t24 137t73 97t119 36q73 0 135 -36.5t98.5 -98.5t36.5 -135q0 -72 -36.5 -134.5t-98.5 -99t-135 -36.5q-70 0 -119 36zM49 516h126v-115l26 7v-603h-152v711zM393.5 146.5q29.5 17.5 46.5 47t17 64.5q0 54 -37.5 91.5t-90.5 37.5
t-90.5 -37.5t-37.5 -91.5q0 -35 17 -64.5t46.5 -47t64.5 -17.5t64.5 17.5z" />
    <glyph glyph-name="q" unicode="q" horiz-adv-x="643" 
d="M169 24.5q-62 36.5 -98.5 99t-36.5 134.5q0 73 36.5 135t98.5 98.5t136 36.5q70 0 118.5 -36t72.5 -97t24 -137t-24 -137t-72.5 -97t-118.5 -36q-74 0 -136 36.5zM378.5 146.5q29.5 17.5 46.5 47t17 64.5q0 54 -37.5 91.5t-90.5 37.5q-54 0 -91 -37.5t-37 -91.5
q0 -35 17 -64.5t46.5 -47t64.5 -17.5t64.5 17.5zM442 408l26 -7v115h125v-711h-151v603z" />
    <glyph glyph-name="r" unicode="r" horiz-adv-x="392" 
d="M43 516h126v-115l26 7v-408h-152v516zM143 373q26 64 77.5 104t121.5 40h31v-139h-76q-41 0 -71.5 -31t-30.5 -72l-78 -35q0 69 26 133z" />
    <glyph glyph-name="s" unicode="s" horiz-adv-x="538" 
d="M146.5 8.5q-63.5 20.5 -112.5 57.5l64 99q92 -53 183 -53q41 0 58.5 9.5t17.5 27.5q0 17 -18 25.5t-66 20.5q-109 25 -158.5 62.5t-49.5 106.5q0 74 59 119t158 45q53 0 106 -15t96 -40l-52 -106q-79 36 -150 36q-30 0 -48.5 -11t-18.5 -30q0 -20 18 -28t68 -16
q102 -19 154 -59t52 -107q0 -76 -60.5 -120t-165.5 -44q-71 0 -134.5 20.5z" />
    <glyph glyph-name="t" unicode="t" horiz-adv-x="466" 
d="M132 376h-113v140h405v-139h-140v-192q0 -19 13.5 -32.5t32.5 -13.5h104v-139h-112q-52 0 -95.5 24t-69 66.5t-25.5 94.5v191zM132 516v153h152v-153h-152z" />
    <glyph glyph-name="u" unicode="u" horiz-adv-x="560" 
d="M137 20q-49 32 -77 86t-28 118v292h151v-287q0 -37 27 -64t65 -27q37 0 64 27t27 64h78q0 -60 -23 -115.5t-68 -90.5t-106 -35t-110 32zM392 106l-26 3v407h151v-516h-125v106z" />
    <glyph glyph-name="v" unicode="v" horiz-adv-x="552" 
d="M178 0l-170 516h156l111 -361l113 361h155l-172 -516h-193z" />
    <glyph glyph-name="w" unicode="w" horiz-adv-x="732" 
d="M8 516h147l58 -306l93 280h128l93 -280l50 306h146l-86 -516h-167l-100 287l-100 -287h-164z" />
    <glyph glyph-name="x" unicode="x" horiz-adv-x="556" 
d="M8 516h171l365 -516h-171zM375 516h172l-365 -516h-171z" />
    <glyph glyph-name="y" unicode="y" horiz-adv-x="564" 
d="M51 -96h93q30 0 52.5 16.5t31.5 44.5l172 551h154l-181 -584q-20 -76 -79.5 -124.5t-138.5 -48.5h-104v145zM10 516h153l147 -516h-153z" />
    <glyph glyph-name="z" unicode="z" horiz-adv-x="507" 
d="M474 0h-441v142l240 235h-245v139h450v-141l-235 -236h231v-139z" />
    <glyph glyph-name="braceleft" unicode="{" horiz-adv-x="402" 
d="M264 321q-16 -27 -52 -38q36 -11 52 -38t16 -78v-139q0 -35 18.5 -54t54.5 -19h15v-132h-37q-99 0 -150.5 47.5t-51.5 137.5v163q0 46 -43 46h-34v133h34q43 0 43 46v162q0 90 51.5 138t150.5 48h37v-133h-15q-36 0 -54.5 -18.5t-18.5 -53.5v-140q0 -51 -16 -78z" />
    <glyph glyph-name="bar" unicode="|" horiz-adv-x="303" 
d="M227 -194h-151v936h151v-936z" />
    <glyph glyph-name="braceright" unicode="}" horiz-adv-x="402" 
d="M103.5 592.5q-18.5 18.5 -54.5 18.5h-15v133h37q99 0 150.5 -48t51.5 -138v-162q0 -46 43 -46h34v-133h-34q-43 0 -43 -46v-163q0 -90 -51.5 -137.5t-150.5 -47.5h-37v132h15q36 0 54.5 19t18.5 54v139q0 51 16 78t52 38q-36 11 -52 38t-16 78v140q0 35 -18.5 53.5z" />
    <glyph glyph-name="asciitilde" unicode="~" horiz-adv-x="605" 
d="M346.5 258q-26.5 12 -61.5 39q-27 20 -41 27t-30 7q-26 0 -42 -19.5t-17 -54.5h-109q1 92 44 145.5t110 53.5q33 0 59.5 -12t62.5 -39q26 -19 40 -26.5t30 -7.5q26 0 42 19.5t17 54.5h109q-1 -92 -44 -145.5t-110 -53.5q-33 0 -59.5 12z" />
    <glyph glyph-name="exclamdown" unicode="&#xa1;" horiz-adv-x="277" 
d="M90 338h97l33 -509h-162zM194 531.5q24 -24.5 24 -56.5q0 -33 -23 -57t-56 -24q-36 0 -58.5 24t-22.5 57q0 34 24.5 57.5t56.5 23.5q31 0 55 -24.5z" />
    <glyph glyph-name="cent" unicode="&#xa2;" horiz-adv-x="629" 
d="M187 25q-62 37 -98.5 99t-36.5 135q0 72 36.5 134t98.5 98.5t136 36.5q65 0 120 -28t92 -76t48 -108l-130 -19q-12 39 -46 64.5t-75 25.5q-53 0 -90.5 -37.5t-37.5 -91.5q0 -35 17 -64.5t46.5 -47t64.5 -17.5q41 0 75 25.5t46 64.5l130 -18q-11 -60 -48 -108.5t-92 -76.5
t-120 -28q-74 0 -136 37zM267 6h111v-118h-111v118zM267 631h111v-118h-111v118z" />
    <glyph glyph-name="sterling" unicode="&#xa3;" horiz-adv-x="567" 
d="M47 140h98v142h-98v118h98v68q0 127 79 199.5t221 72.5v-134q-75 0 -117.5 -37t-44.5 -102v-67h162v-118h-162v-142h234v-133h-470v133z" />
    <glyph glyph-name="currency" unicode="&#xa4;" horiz-adv-x="699" 
d="M28 88l103 104q-38 58 -38 129q0 67 36 125l-101 101l93 92l99 -100q60 37 129 37q71 0 130 -36l100 99l92 -92l-101 -101q37 -59 37 -125q0 -71 -40 -129l104 -104l-92 -92l-106 105q-56 -34 -124 -34q-64 0 -124 34l-104 -105zM413.5 213q29.5 17 47 46t17.5 62
q0 34 -17.5 63.5t-47 46.5t-64.5 17q-34 0 -63.5 -17t-46.5 -46.5t-17 -63.5t17 -62.5t46.5 -45.5t63.5 -17q35 0 64.5 17z" />
    <glyph glyph-name="yen" unicode="&#xa5;" horiz-adv-x="676" 
d="M598 253h-180v-51h180v-118h-180v-84h-160v84h-180v118h180v51h-180v118h149l-197 341h164l152 -271l150 271h151l-196 -341h147v-118z" />
    <glyph glyph-name="brokenbar" unicode="&#xa6;" horiz-adv-x="300" 
d="M225 392h-151v350h151v-350zM225 -194h-151v350h151v-350z" />
    <glyph glyph-name="section" unicode="&#xa7;" horiz-adv-x="587" 
d="M505.5 230.5q-26.5 -32.5 -62.5 -45.5q76 -46 76 -126q0 -77 -66.5 -118.5t-171.5 -41.5q-70 0 -128.5 17t-100.5 44l49 113q41 -24 89.5 -37t89.5 -13t61 11.5t20 36.5q0 23 -31 38t-104 37l-49 16q-54 16 -86.5 51t-32.5 89q0 47 25.5 82.5t64.5 52.5
q-35 20 -52.5 52.5t-17.5 67.5q0 81 62.5 123.5t176.5 42.5q52 0 115 -16.5t102 -41.5l-52 -105q-31 17 -74.5 27.5t-78.5 10.5q-97 0 -97 -55q0 -26 24 -39t78 -28q70 -20 106 -34t65 -45.5t28 -84.5q-1 -49 -27.5 -81.5zM376 263q16 16 16 40q0 29 -21.5 41.5t-68.5 24.5
q-33 9 -40 11q-27 -5 -43 -21t-16 -40q0 -28 21 -41t69 -26l40 -10q27 5 43 21z" />
    <glyph glyph-name="copyright" unicode="&#xa9;" horiz-adv-x="785" 
d="M216 47q-81 47 -128 128t-47 177q0 95 47 176t128 128t177 47q95 0 176 -47t128 -128t47 -176q0 -96 -47 -177t-128 -128t-176 -47q-96 0 -177 47zM532.5 111.5q63.5 37.5 100.5 101t37 139.5q0 75 -37 139t-100.5 101t-139.5 37t-139.5 -37t-101 -101t-37.5 -139
q0 -76 37.5 -139.5t101 -101t139.5 -37.5t139.5 37.5zM296 180.5q-44 26.5 -70 72t-26 99.5t26 99.5t70 72t96 26.5q67 0 119.5 -43t67.5 -109l-96 -12q-10 32 -33.5 50.5t-52.5 18.5q-36 0 -62.5 -30t-26.5 -73t26.5 -73t62.5 -30q29 0 52.5 18.5t33.5 50.5l96 -12
q-15 -66 -67.5 -109t-119.5 -43q-52 0 -96 26.5z" />
    <glyph glyph-name="guillemotleft" unicode="&#xab;" horiz-adv-x="549" 
d="M66 259q0 172 110 309l104 -54q-36 -52 -57.5 -118.5t-21.5 -136.5t21.5 -136.5t57.5 -118.5l-104 -54q-110 137 -110 309zM305 259q0 151 101 276l104 -54q-33 -44 -52 -103t-19 -119t19 -119t52 -103l-104 -54q-101 125 -101 276z" />
    <glyph glyph-name="registered" unicode="&#xae;" horiz-adv-x="785" 
d="M216 47q-81 47 -128 128t-47 177q0 95 47 176t128 128t177 47q95 0 176 -47t128 -128t47 -176q0 -96 -47 -177t-128 -128t-176 -47q-96 0 -177 47zM532.5 111.5q63.5 37.5 100.5 101t37 139.5q0 75 -37 139t-100.5 101t-139.5 37t-139.5 -37t-101 -101t-37.5 -139
q0 -76 37.5 -139.5t101 -101t139.5 -37.5t139.5 37.5zM466 160l-38 92q-7 16 -17 22.5t-26 6.5h-76v65h64q58 0 91 -16.5t49 -53.5l48 -116h-95zM251 547h163q38 0 70.5 -18.5t51.5 -50.5t19 -69q0 -53 -39.5 -83t-101.5 -30h-69v-136h-94v387zM448 379q14 14 14 33t-14 34
t-32 15h-71v-96h71q18 0 32 14z" />
    <glyph glyph-name="degree" unicode="&#xb0;" horiz-adv-x="417" 
d="M119 385q-41 23 -65 63t-24 88t24 87.5t65 62.5t89 23q49 0 90 -23t65 -62.5t24 -87.5t-24 -88t-65 -63t-90 -23q-48 0 -89 23zM262.5 481q21.5 22 21.5 55q0 32 -21.5 54t-54.5 22q-32 0 -53.5 -22t-21.5 -54t21.5 -54.5t53.5 -22.5q33 0 54.5 22z" />
    <glyph glyph-name="plusminus" unicode="&#xb1;" horiz-adv-x="586" 
d="M223 340h-163v126h163v132h140v-132h163v-126h-163v-131h-140v131zM526 0h-466v133h466v-133z" />
    <glyph glyph-name="paragraph" unicode="&#xb6;" horiz-adv-x="701" 
d="M123 350q-49 24 -76.5 67.5t-27.5 100.5q0 92 68 143t177 51h375v-812h-152v690h-101v-690h-152v424q-62 2 -111 26z" />
    <glyph glyph-name="periodcentered" unicode="&#xb7;" horiz-adv-x="302" 
d="M87.5 213.5q-27.5 27.5 -27.5 64.5q0 38 26 65t65 27q40 0 65.5 -27.5t25.5 -64.5q0 -39 -27.5 -65.5t-63.5 -26.5t-63.5 27.5z" />
    <glyph glyph-name="guillemotright" unicode="&#xbb;" horiz-adv-x="549" 
d="M326.5 122.5q21.5 66.5 21.5 136.5t-21.5 136.5t-57.5 118.5l104 54q110 -139 110 -309t-110 -309l-104 54q36 52 57.5 118.5zM90.5 140q18.5 59 18.5 119t-18.5 119t-51.5 103l104 54q101 -125 101 -276t-101 -276l-104 54q33 44 51.5 103z" />
    <glyph glyph-name="questiondown" unicode="&#xbf;" horiz-adv-x="433" 
d="M264 207q-10 -38 -39 -82q-2 -3 -17 -26q-24 -33 -37.5 -59t-13.5 -54q0 -35 24.5 -59.5t59.5 -24.5q26 0 46.5 14.5t30.5 36.5q2 5 4.5 11t6.5 13l90 -34q-13 -70 -68 -116.5t-128 -46.5q-54 0 -98 25.5t-69.5 69.5t-25.5 98q0 44 18 83t59 89q67 83 68 153h98
q1 -53 -9 -91zM280 491.5q24 -24.5 24 -56.5q0 -33 -23 -57t-56 -24q-36 0 -58.5 24t-22.5 57q0 34 24.5 57.5t56.5 23.5q31 0 55 -24.5z" />
    <glyph glyph-name="Agrave" unicode="&#xc0;" horiz-adv-x="708" 
d="M267 712h159l-257 -712h-160zM283 712h159l258 -712h-159zM212 270h291v-140h-291v140zM143 952h149l134 -147h-135z" />
    <glyph glyph-name="Aacute" unicode="&#xc1;" horiz-adv-x="708" 
d="M267 712h159l-257 -712h-160zM283 712h159l258 -712h-159zM212 270h291v-140h-291v140zM418 952h149l-148 -147h-135z" />
    <glyph glyph-name="Acircumflex" unicode="&#xc2;" horiz-adv-x="708" 
d="M267 712h159l-257 -712h-160zM283 712h159l258 -712h-159zM212 270h291v-140h-291v140zM358 885l-91 -81h-112l127 148h152l126 -148h-111z" />
    <glyph glyph-name="Atilde" unicode="&#xc3;" horiz-adv-x="708" 
d="M267 712h159l-257 -712h-160zM283 712h159l258 -712h-159zM212 270h291v-140h-291v140zM396 813.5q-20 8.5 -48 28.5q-18 13 -28.5 18.5t-20.5 5.5q-20 0 -33 -14t-15 -39h-85q2 70 34.5 110.5t87.5 40.5q25 0 45.5 -9t47.5 -28q18 -14 28.5 -19.5t21.5 -5.5q19 0 32 14
t15 37h85q-2 -68 -34.5 -108t-87.5 -40q-25 0 -45 8.5z" />
    <glyph glyph-name="Adieresis" unicode="&#xc4;" horiz-adv-x="708" 
d="M267 712h159l-257 -712h-160zM283 712h159l258 -712h-159zM212 270h291v-140h-291v140zM221 826q-22 22 -22 53t22 52.5t53 21.5t53 -21.5t22 -52.5t-22 -53t-53 -22t-53 22zM392 826q-22 22 -22 53t22 52.5t53 21.5t52.5 -21.5t21.5 -52.5t-21.5 -53t-52.5 -22t-53 22z
" />
    <glyph glyph-name="Aring" unicode="&#xc5;" horiz-adv-x="708" 
d="M267 712h159l-257 -712h-160zM283 712h159l258 -712h-159zM212 270h291v-140h-291v140zM266 840.5q-37 35.5 -37 87.5t37.5 87.5t90.5 35.5q54 0 91.5 -35.5t37.5 -87.5t-37.5 -87.5t-91.5 -35.5t-91 35.5zM399.5 886q16.5 17 16.5 42q0 26 -16.5 42.5t-42.5 16.5
q-25 0 -41.5 -17t-16.5 -42q0 -26 16.5 -42.5t41.5 -16.5q26 0 42.5 17z" />
    <glyph glyph-name="AE" unicode="&#xc6;" horiz-adv-x="956" 
d="M266 712h159l-257 -712h-160zM306 573v139h268v-139h-268zM211 270h241v-140h-241v140zM440 712h485l1 -140l-334 1v-153h296v-129h-296v-152h333v-139h-485v712z" />
    <glyph glyph-name="Ccedilla" unicode="&#xc7;" horiz-adv-x="776" 
d="M220 36q-81 50 -128.5 135t-47.5 186q0 100 47.5 185t128.5 135t177 50q81 0 151.5 -36t120 -99.5t68.5 -143.5l-130 -18q-21 68 -76.5 111t-123.5 43q-57 0 -105.5 -30.5t-77 -82.5t-28.5 -114t28.5 -114.5t76.5 -83t106 -30.5q68 0 123.5 43t76.5 111l130 -16
q-19 -80 -68.5 -144t-120 -100.5t-151.5 -36.5q-96 0 -177 50zM280 -245l17 75l75 -1q41 0 41 31q0 14 -9.5 22.5t-26.5 8.5h-51l26 106h93l-15 -61q41 -5 62.5 -26.5t21.5 -53.5q0 -47 -40.5 -74t-109.5 -27h-84z" />
    <glyph glyph-name="Egrave" unicode="&#xc8;" horiz-adv-x="569" 
d="M53 712h485l1 -140l-334 1v-153h296v-129h-296v-152h333v-139h-485v712zM148 954h149l134 -147h-135z" />
    <glyph glyph-name="Eacute" unicode="&#xc9;" horiz-adv-x="569" 
d="M53 712h485l1 -140l-334 1v-153h296v-129h-296v-152h333v-139h-485v712zM348 952h149l-148 -147h-135z" />
    <glyph glyph-name="Ecircumflex" unicode="&#xca;" horiz-adv-x="569" 
d="M53 712h485l1 -140l-334 1v-153h296v-129h-296v-152h333v-139h-485v712zM301 885l-91 -81h-112l127 148h152l126 -148h-111z" />
    <glyph glyph-name="Edieresis" unicode="&#xcb;" horiz-adv-x="569" 
d="M53 712h485l1 -140l-334 1v-153h296v-129h-296v-152h333v-139h-485v712zM174 826q-22 22 -22 53t22 52.5t53 21.5t53 -21.5t22 -52.5t-22 -53t-53 -22t-53 22zM345 826q-22 22 -22 53t22 52.5t53 21.5t52.5 -21.5t21.5 -52.5t-21.5 -53t-52.5 -22t-53 22z" />
    <glyph glyph-name="Igrave" unicode="&#xcc;" horiz-adv-x="257" 
d="M53 0v712h152v-712h-152zM-84 952h149l134 -147h-135z" />
    <glyph glyph-name="Iacute" unicode="&#xcd;" horiz-adv-x="257" 
d="M53 0v712h152v-712h-152zM190 952h149l-148 -147h-135z" />
    <glyph glyph-name="Icircumflex" unicode="&#xce;" horiz-adv-x="257" 
d="M53 0v712h152v-712h-152zM129 885l-91 -81h-112l127 148h152l126 -148h-111z" />
    <glyph glyph-name="Idieresis" unicode="&#xcf;" horiz-adv-x="257" 
d="M53 0v712h152v-712h-152zM-17 826q-22 22 -22 53t22 52.5t53 21.5t53 -21.5t22 -52.5t-22 -53t-53 -22t-53 22zM154 826q-22 22 -22 53t22 52.5t53 21.5t52.5 -21.5t21.5 -52.5t-21.5 -53t-52.5 -22t-53 22z" />
    <glyph glyph-name="Eth" unicode="&#xd0;" horiz-adv-x="723" 
d="M84 712h239q96 0 178 -48t130 -129.5t48 -178.5t-48 -178.5t-130 -129.5t-178 -48h-239v712zM417.5 165.5q50.5 29.5 80 80t29.5 110.5t-29.5 110.5t-80 80t-110.5 29.5h-72v-440h72q60 0 110.5 29.5zM12 420h297v-129h-297v129z" />
    <glyph glyph-name="Ntilde" unicode="&#xd1;" horiz-adv-x="718" 
d="M445 0l-248 492v-492h-144v712h196l272 -549v549h144v-712h-220zM392 813.5q-20 8.5 -48 28.5q-18 13 -28.5 18.5t-20.5 5.5q-20 0 -33 -14t-15 -39h-85q2 70 34.5 110.5t87.5 40.5q25 0 45.5 -9t47.5 -28q18 -14 28.5 -19.5t21.5 -5.5q19 0 32 14t15 37h85
q-2 -68 -34.5 -108t-87.5 -40q-25 0 -45 8.5z" />
    <glyph glyph-name="Ograve" unicode="&#xd2;" horiz-adv-x="823" 
d="M227.5 36q-84.5 50 -134 135t-49.5 186q0 100 49.5 185t134 135t184.5 50q99 0 183 -50t133.5 -135t49.5 -185q0 -101 -49.5 -186t-133.5 -135t-183 -50q-100 0 -184.5 50zM519.5 159.5q49.5 30.5 78.5 83t29 114.5q0 61 -29 113.5t-78.5 83t-107.5 30.5
q-59 0 -109.5 -30.5t-79.5 -82.5t-29 -114t29 -114.5t79.5 -83t109.5 -30.5q58 0 107.5 30.5zM193 955h149l134 -147h-135z" />
    <glyph glyph-name="Oacute" unicode="&#xd3;" horiz-adv-x="823" 
d="M227.5 36q-84.5 50 -134 135t-49.5 186q0 100 49.5 185t134 135t184.5 50q99 0 183 -50t133.5 -135t49.5 -185q0 -101 -49.5 -186t-133.5 -135t-183 -50q-100 0 -184.5 50zM519.5 159.5q49.5 30.5 78.5 83t29 114.5q0 61 -29 113.5t-78.5 83t-107.5 30.5
q-59 0 -109.5 -30.5t-79.5 -82.5t-29 -114t29 -114.5t79.5 -83t109.5 -30.5q58 0 107.5 30.5zM466 955h149l-148 -147h-135z" />
    <glyph glyph-name="Ocircumflex" unicode="&#xd4;" horiz-adv-x="823" 
d="M227.5 36q-84.5 50 -134 135t-49.5 186q0 100 49.5 185t134 135t184.5 50q99 0 183 -50t133.5 -135t49.5 -185q0 -101 -49.5 -186t-133.5 -135t-183 -50q-100 0 -184.5 50zM519.5 159.5q49.5 30.5 78.5 83t29 114.5q0 61 -29 113.5t-78.5 83t-107.5 30.5
q-59 0 -109.5 -30.5t-79.5 -82.5t-29 -114t29 -114.5t79.5 -83t109.5 -30.5q58 0 107.5 30.5zM409 889l-91 -81h-112l127 148h152l126 -148h-111z" />
    <glyph glyph-name="Otilde" unicode="&#xd5;" horiz-adv-x="823" 
d="M227.5 36q-84.5 50 -134 135t-49.5 186q0 100 49.5 185t134 135t184.5 50q99 0 183 -50t133.5 -135t49.5 -185q0 -101 -49.5 -186t-133.5 -135t-183 -50q-100 0 -184.5 50zM519.5 159.5q49.5 30.5 78.5 83t29 114.5q0 61 -29 113.5t-78.5 83t-107.5 30.5
q-59 0 -109.5 -30.5t-79.5 -82.5t-29 -114t29 -114.5t79.5 -83t109.5 -30.5q58 0 107.5 30.5zM439 816.5q-20 8.5 -48 28.5q-18 13 -28.5 18.5t-20.5 5.5q-20 0 -33 -14t-15 -39h-85q2 70 34.5 110.5t87.5 40.5q25 0 45.5 -9t47.5 -28q18 -14 28.5 -19.5t21.5 -5.5
q19 0 32 14t15 37h85q-2 -68 -34.5 -108t-87.5 -40q-25 0 -45 8.5z" />
    <glyph glyph-name="Odieresis" unicode="&#xd6;" horiz-adv-x="823" 
d="M227.5 36q-84.5 50 -134 135t-49.5 186q0 100 49.5 185t134 135t184.5 50q99 0 183 -50t133.5 -135t49.5 -185q0 -101 -49.5 -186t-133.5 -135t-183 -50q-100 0 -184.5 50zM519.5 159.5q49.5 30.5 78.5 83t29 114.5q0 61 -29 113.5t-78.5 83t-107.5 30.5
q-59 0 -109.5 -30.5t-79.5 -82.5t-29 -114t29 -114.5t79.5 -83t109.5 -30.5q58 0 107.5 30.5zM276 828q-22 22 -22 53t22 52.5t53 21.5t53 -21.5t22 -52.5t-22 -53t-53 -22t-53 22zM447 828q-22 22 -22 53t22 52.5t53 21.5t52.5 -21.5t21.5 -52.5t-21.5 -53t-52.5 -22
t-53 22z" />
    <glyph glyph-name="multiply" unicode="&#xd7;" horiz-adv-x="579" 
d="M71 226l125 124l-125 124l94 94l125 -124l124 124l94 -94l-125 -124l125 -124l-94 -94l-124 124l-125 -124z" />
    <glyph glyph-name="Oslash" unicode="&#xd8;" horiz-adv-x="823" 
d="M227.5 36q-84.5 50 -134 135t-49.5 186q0 100 49.5 185t134 135t184.5 50q99 0 183 -50t133.5 -135t49.5 -185q0 -101 -49.5 -186t-133.5 -135t-183 -50q-100 0 -184.5 50zM520.5 159.5q49.5 30.5 78.5 83t29 114.5q0 61 -29 113.5t-78.5 83t-107.5 30.5
q-59 0 -109.5 -30.5t-79.5 -82.5t-29 -114t29 -114.5t79.5 -83t109.5 -30.5q58 0 107.5 30.5zM345 -50h-152l284 812h152z" />
    <glyph glyph-name="Ugrave" unicode="&#xd9;" horiz-adv-x="663" 
d="M190.5 32q-64.5 38 -102 102.5t-37.5 140.5v437h151v-445q0 -35 17.5 -64.5t47 -47t64.5 -17.5t65 17.5t47.5 47t17.5 64.5v445h151v-437q0 -76 -37.5 -140.5t-102 -102.5t-141.5 -38q-76 0 -140.5 38zM120 952h149l134 -147h-135z" />
    <glyph glyph-name="Uacute" unicode="&#xda;" horiz-adv-x="663" 
d="M190.5 32q-64.5 38 -102 102.5t-37.5 140.5v437h151v-445q0 -35 17.5 -64.5t47 -47t64.5 -17.5t65 17.5t47.5 47t17.5 64.5v445h151v-437q0 -76 -37.5 -140.5t-102 -102.5t-141.5 -38q-76 0 -140.5 38zM396 952h149l-148 -147h-135z" />
    <glyph glyph-name="Ucircumflex" unicode="&#xdb;" horiz-adv-x="663" 
d="M190.5 32q-64.5 38 -102 102.5t-37.5 140.5v437h151v-445q0 -35 17.5 -64.5t47 -47t64.5 -17.5t65 17.5t47.5 47t17.5 64.5v445h151v-437q0 -76 -37.5 -140.5t-102 -102.5t-141.5 -38q-76 0 -140.5 38zM334 885l-91 -81h-112l127 148h152l126 -148h-111z" />
    <glyph glyph-name="Udieresis" unicode="&#xdc;" horiz-adv-x="663" 
d="M190.5 32q-64.5 38 -102 102.5t-37.5 140.5v437h151v-445q0 -35 17.5 -64.5t47 -47t64.5 -17.5t65 17.5t47.5 47t17.5 64.5v445h151v-437q0 -76 -37.5 -140.5t-102 -102.5t-141.5 -38q-76 0 -140.5 38zM198 826q-22 22 -22 53t22 52.5t53 21.5t53 -21.5t22 -52.5t-22 -53
t-53 -22t-53 22zM369 826q-22 22 -22 53t22 52.5t53 21.5t52.5 -21.5t21.5 -52.5t-21.5 -53t-52.5 -22t-53 22z" />
    <glyph glyph-name="Yacute" unicode="&#xdd;" horiz-adv-x="611" 
d="M228 238l-219 474h164l129 -292l136 292h164l-223 -474v-238h-151v238zM368 952h149l-148 -147h-135z" />
    <glyph glyph-name="Thorn" unicode="&#xde;" horiz-adv-x="599" 
d="M53 615h269q68 0 125.5 -33.5t91 -91t33.5 -124.5q0 -68 -33.5 -126t-91 -91.5t-125.5 -33.5h-117v-115h-152v615zM388.5 287q32.5 33 32.5 79q0 44 -32.5 77t-76.5 33h-107v-222h107q44 0 76.5 33zM53 712h152v-220h-152v220z" />
    <glyph glyph-name="germandbls" unicode="&#xdf;" horiz-adv-x="610" 
d="M186 0l-132 -1v528q0 58 28.5 107t77.5 78t107 29t107.5 -29t78.5 -78t29 -107q0 -59 -29 -108.5t-78.5 -78.5t-107.5 -29v133q35 0 58.5 24t23.5 59q0 34 -24 57.5t-58 23.5t-57.5 -23.5t-23.5 -57.5v-527zM245 0l56 123q18 -9 42 -9q41 0 69.5 28.5t28.5 70.5
q0 41 -28.5 69.5t-69.5 28.5h-77v111h76q65 0 118.5 -25.5t84.5 -73t31 -109.5q0 -64 -31.5 -118t-85 -85t-117.5 -31q-51 0 -97 20z" />
    <glyph glyph-name="agrave" unicode="&#xe0;" horiz-adv-x="637" 
d="M169 25q-62 37 -98.5 99t-36.5 135q0 72 36.5 134t98.5 98.5t136 36.5q70 0 118.5 -36t72.5 -97t24 -137t-24 -137t-72.5 -97t-118.5 -36q-74 0 -136 37zM404.5 167q37.5 37 37.5 91t-37.5 91.5t-90.5 37.5q-54 0 -91 -37.5t-37 -91.5t37 -91t91 -37q53 0 90.5 37z
M468 173l-26 -8v187h151v-352h-125v173zM442 351l26 -8v173h125v-351h-151v186zM96 776h149l134 -147h-135z" />
    <glyph glyph-name="aacute" unicode="&#xe1;" horiz-adv-x="637" 
d="M169 25q-62 37 -98.5 99t-36.5 135q0 72 36.5 134t98.5 98.5t136 36.5q70 0 118.5 -36t72.5 -97t24 -137t-24 -137t-72.5 -97t-118.5 -36q-74 0 -136 37zM404.5 167q37.5 37 37.5 91t-37.5 91.5t-90.5 37.5q-54 0 -91 -37.5t-37 -91.5t37 -91t91 -37q53 0 90.5 37z
M468 173l-26 -8v187h151v-352h-125v173zM442 351l26 -8v173h125v-351h-151v186zM351 776h149l-148 -147h-135z" />
    <glyph glyph-name="acircumflex" unicode="&#xe2;" horiz-adv-x="637" 
d="M169 25q-62 37 -98.5 99t-36.5 135q0 72 36.5 134t98.5 98.5t136 36.5q70 0 118.5 -36t72.5 -97t24 -137t-24 -137t-72.5 -97t-118.5 -36q-74 0 -136 37zM404.5 167q37.5 37 37.5 91t-37.5 91.5t-90.5 37.5q-54 0 -91 -37.5t-37 -91.5t37 -91t91 -37q53 0 90.5 37z
M468 173l-26 -8v187h151v-352h-125v173zM442 351l26 -8v173h125v-351h-151v186zM306 706l-91 -81h-112l127 148h152l126 -148h-111z" />
    <glyph glyph-name="atilde" unicode="&#xe3;" horiz-adv-x="637" 
d="M169 25q-62 37 -98.5 99t-36.5 135q0 72 36.5 134t98.5 98.5t136 36.5q70 0 118.5 -36t72.5 -97t24 -137t-24 -137t-72.5 -97t-118.5 -36q-74 0 -136 37zM404.5 167q37.5 37 37.5 91t-37.5 91.5t-90.5 37.5q-54 0 -91 -37.5t-37 -91.5t37 -91t91 -37q53 0 90.5 37z
M468 173l-26 -8v187h151v-352h-125v173zM442 351l26 -8v173h125v-351h-151v186zM346 641.5q-20 8.5 -48 28.5q-18 13 -28.5 18.5t-20.5 5.5q-20 0 -33 -14t-15 -39h-85q2 70 34.5 110.5t87.5 40.5q25 0 45.5 -9t47.5 -28q18 -14 28.5 -19.5t21.5 -5.5q19 0 32 14t15 37h85
q-2 -68 -34.5 -108t-87.5 -40q-25 0 -45 8.5z" />
    <glyph glyph-name="adieresis" unicode="&#xe4;" horiz-adv-x="637" 
d="M169 25q-62 37 -98.5 99t-36.5 135q0 72 36.5 134t98.5 98.5t136 36.5q70 0 118.5 -36t72.5 -97t24 -137t-24 -137t-72.5 -97t-118.5 -36q-74 0 -136 37zM404.5 167q37.5 37 37.5 91t-37.5 91.5t-90.5 37.5q-54 0 -91 -37.5t-37 -91.5t37 -91t91 -37q53 0 90.5 37z
M468 173l-26 -8v187h151v-352h-125v173zM442 351l26 -8v173h125v-351h-151v186zM166 644q-22 22 -22 53t22 52.5t53 21.5t53 -21.5t22 -52.5t-22 -53t-53 -22t-53 22zM337 644q-22 22 -22 53t22 52.5t53 21.5t52.5 -21.5t21.5 -52.5t-21.5 -53t-52.5 -22t-53 22z" />
    <glyph glyph-name="aring" unicode="&#xe5;" horiz-adv-x="637" 
d="M169 25q-62 37 -98.5 99t-36.5 135q0 72 36.5 134t98.5 98.5t136 36.5q70 0 118.5 -36t72.5 -97t24 -137t-24 -137t-72.5 -97t-118.5 -36q-74 0 -136 37zM404.5 167q37.5 37 37.5 91t-37.5 91.5t-90.5 37.5q-54 0 -91 -37.5t-37 -91.5t37 -91t91 -37q53 0 90.5 37z
M468 173l-26 -8v187h151v-352h-125v173zM442 351l26 -8v173h125v-351h-151v186zM210 663.5q-37 35.5 -37 87.5t37.5 87.5t90.5 35.5q54 0 91.5 -35.5t37.5 -87.5t-37.5 -87.5t-91.5 -35.5t-91 35.5zM343.5 709q16.5 17 16.5 42q0 26 -16.5 42.5t-42.5 16.5q-25 0 -41.5 -17
t-16.5 -42q0 -26 16.5 -42.5t41.5 -16.5q26 0 42.5 17z" />
    <glyph glyph-name="ae" unicode="&#xe6;" horiz-adv-x="1020" 
d="M169 25q-62 37 -98.5 99t-36.5 135q0 72 36.5 134t98.5 98.5t136 36.5q70 0 118.5 -36t72.5 -97t24 -137t-24 -137t-72.5 -97t-118.5 -36q-74 0 -136 37zM404.5 167q37.5 37 37.5 91t-37.5 91.5t-90.5 37.5q-54 0 -91 -37.5t-37 -91.5t37 -91t91 -37q53 0 90.5 37z
M467 173l-25 -8v187h139v-352h-114v173zM442 351l25 -8v173h114v-351h-139v186zM615 24.5q-51 36.5 -78.5 98t-27.5 136.5q0 74 27.5 135.5t78.5 97.5t119 36q75 0 133.5 -36t91.5 -98t33 -135q0 -30 -5 -58l-109 58q0 38 -19 70.5t-51.5 52t-71.5 19.5t-72 -19t-52 -52
t-19 -71q0 -40 18 -74t50.5 -54t74.5 -20q73 0 116 52l110 -58q-37 -56 -96.5 -86.5t-131.5 -30.5q-68 0 -119 36.5zM590 311h372l25 -110h-397v110z" />
    <glyph glyph-name="ccedilla" unicode="&#xe7;" horiz-adv-x="599" 
d="M169 25q-62 37 -98.5 99t-36.5 135q0 72 36.5 134t98.5 98.5t136 36.5q65 0 120 -28t92 -76t48 -108l-130 -19q-12 39 -46 64.5t-75 25.5q-53 0 -90.5 -37.5t-37.5 -91.5q0 -35 17 -64.5t46.5 -47t64.5 -17.5q41 0 75 25.5t46 64.5l130 -18q-11 -60 -48 -108.5t-92 -76.5
t-120 -28q-74 0 -136 37zM186 -243l17 76l74 -1q22 0 31.5 7.5t9.5 23.5q0 14 -9 22.5t-26 8.5h-51l26 106h92l-14 -62q41 -5 62.5 -26.5t21.5 -53.5q0 -46 -41 -73.5t-110 -27.5h-83z" />
    <glyph glyph-name="egrave" unicode="&#xe8;" horiz-adv-x="595" 
d="M173 25q-62 37 -98.5 99t-36.5 135q0 72 36.5 134t98.5 98.5t135 36.5q75 0 133.5 -36t91.5 -98t33 -135q0 -35 -4 -58h-379q12 -39 47 -64.5t80 -25.5q73 0 117 52l110 -58q-37 -56 -97 -86.5t-132 -30.5q-73 0 -135 37zM385 378q-33 23 -75 23q-41 0 -74.5 -23
t-47.5 -60h244q-14 37 -47 60zM109 775h149l134 -147h-135z" />
    <glyph glyph-name="eacute" unicode="&#xe9;" horiz-adv-x="595" 
d="M173 25q-62 37 -98.5 99t-36.5 135q0 72 36.5 134t98.5 98.5t135 36.5q75 0 133.5 -36t91.5 -98t33 -135q0 -35 -4 -58h-379q12 -39 47 -64.5t80 -25.5q73 0 117 52l110 -58q-37 -56 -97 -86.5t-132 -30.5q-73 0 -135 37zM385 378q-33 23 -75 23q-41 0 -74.5 -23
t-47.5 -60h244q-14 37 -47 60zM364 773h149l-148 -147h-135z" />
    <glyph glyph-name="ecircumflex" unicode="&#xea;" horiz-adv-x="595" 
d="M173 25q-62 37 -98.5 99t-36.5 135q0 72 36.5 134t98.5 98.5t135 36.5q75 0 133.5 -36t91.5 -98t33 -135q0 -35 -4 -58h-379q12 -39 47 -64.5t80 -25.5q73 0 117 52l110 -58q-37 -56 -97 -86.5t-132 -30.5q-73 0 -135 37zM385 378q-33 23 -75 23q-41 0 -74.5 -23
t-47.5 -60h244q-14 37 -47 60zM317 703l-91 -81h-112l127 148h152l126 -148h-111z" />
    <glyph glyph-name="edieresis" unicode="&#xeb;" horiz-adv-x="595" 
d="M173 25q-62 37 -98.5 99t-36.5 135q0 72 36.5 134t98.5 98.5t135 36.5q75 0 133.5 -36t91.5 -98t33 -135q0 -35 -4 -58h-379q12 -39 47 -64.5t80 -25.5q73 0 117 52l110 -58q-37 -56 -97 -86.5t-132 -30.5q-73 0 -135 37zM385 378q-33 23 -75 23q-41 0 -74.5 -23
t-47.5 -60h244q-14 37 -47 60zM168 640q-22 22 -22 53t22 52.5t53 21.5t53 -21.5t22 -52.5t-22 -53t-53 -22t-53 22zM339 640q-22 22 -22 53t22 52.5t53 21.5t52.5 -21.5t21.5 -52.5t-21.5 -53t-52.5 -22t-53 22z" />
    <glyph glyph-name="igrave" unicode="&#xec;" horiz-adv-x="245" 
d="M47 516h151v-516h-151v516zM-90 764h149l134 -148h-135z" />
    <glyph glyph-name="iacute" unicode="&#xed;" horiz-adv-x="245" 
d="M47 516h151v-516h-151v516zM188 764h149l-148 -148h-135z" />
    <glyph glyph-name="icircumflex" unicode="&#xee;" horiz-adv-x="245" 
d="M47 516h151v-516h-151v516zM123 697l-91 -81h-112l127 148h152l126 -148h-111z" />
    <glyph glyph-name="idieresis" unicode="&#xef;" horiz-adv-x="245" 
d="M47 516h151v-516h-151v516zM-15.5 638q-21.5 22 -21.5 53t21.5 52.5t52.5 21.5t53 -21.5t22 -52.5t-22 -53t-53 -22t-52.5 22zM155 638q-22 22 -22 53t22 52.5t53 21.5t53 -21.5t22 -52.5t-22 -53t-53 -22t-53 22z" />
    <glyph glyph-name="eth" unicode="&#xf0;" horiz-adv-x="633" 
d="M184 22.5q-59 34.5 -93.5 93.5t-34.5 129q0 68 34 119.5t90.5 79t124.5 27.5q36 0 69 -17t51 -44q1 41 -13 81.5t-41.5 66t-65.5 25.5h-67v139h64q92 0 156 -50.5t95.5 -140t31.5 -206.5q0 -101 -32.5 -177.5t-94.5 -118t-146 -41.5q-69 0 -128 34.5zM391.5 158
q31.5 31 31.5 74t-31.5 74t-75.5 31q-45 0 -77 -31t-32 -74t32 -74t77 -31q44 0 75.5 31zM268 529l268 160l41 -66l-267 -159z" />
    <glyph glyph-name="ntilde" unicode="&#xf1;" horiz-adv-x="560" 
d="M350.5 352q-26.5 27 -65.5 27q-36 0 -63 -27t-27 -64h-78q0 60 23 115t67.5 90t105.5 35t110.5 -32t77.5 -86t28 -118v-292h-152v288q0 37 -26.5 64zM43 516h126v-106l26 -3v-407h-152v516zM355 631.5q-20 8.5 -48 28.5q-18 13 -28.5 18.5t-20.5 5.5q-20 0 -33 -14
t-15 -39h-85q2 70 34.5 110.5t87.5 40.5q25 0 45.5 -9t47.5 -28q18 -14 28.5 -19.5t21.5 -5.5q19 0 32 14t15 37h85q-2 -68 -34.5 -108t-87.5 -40q-25 0 -45 8.5z" />
    <glyph glyph-name="ograve" unicode="&#xf2;" horiz-adv-x="628" 
d="M173.5 24.5q-64.5 36.5 -102 98.5t-37.5 136q0 73 37.5 135t102 98t141.5 36q76 0 139.5 -36t101 -98t37.5 -135q0 -74 -37.5 -136t-101 -98.5t-139.5 -36.5q-77 0 -141.5 36.5zM404.5 167q37.5 37 37.5 91t-37.5 91.5t-90.5 37.5q-54 0 -91 -37.5t-37 -91.5t37 -91
t91 -37q53 0 90.5 37zM100 773h149l134 -147h-135z" />
    <glyph glyph-name="oacute" unicode="&#xf3;" horiz-adv-x="628" 
d="M173.5 24.5q-64.5 36.5 -102 98.5t-37.5 136q0 73 37.5 135t102 98t141.5 36q76 0 139.5 -36t101 -98t37.5 -135q0 -74 -37.5 -136t-101 -98.5t-139.5 -36.5q-77 0 -141.5 36.5zM404.5 167q37.5 37 37.5 91t-37.5 91.5t-90.5 37.5q-54 0 -91 -37.5t-37 -91.5t37 -91
t91 -37q53 0 90.5 37zM367 772h149l-148 -147h-135z" />
    <glyph glyph-name="ocircumflex" unicode="&#xf4;" horiz-adv-x="628" 
d="M173.5 24.5q-64.5 36.5 -102 98.5t-37.5 136q0 73 37.5 135t102 98t141.5 36q76 0 139.5 -36t101 -98t37.5 -135q0 -74 -37.5 -136t-101 -98.5t-139.5 -36.5q-77 0 -141.5 36.5zM404.5 167q37.5 37 37.5 91t-37.5 91.5t-90.5 37.5q-54 0 -91 -37.5t-37 -91.5t37 -91
t91 -37q53 0 90.5 37zM314 700l-91 -81h-112l127 148h152l126 -148h-111z" />
    <glyph glyph-name="otilde" unicode="&#xf5;" horiz-adv-x="628" 
d="M173.5 24.5q-64.5 36.5 -102 98.5t-37.5 136q0 73 37.5 135t102 98t141.5 36q76 0 139.5 -36t101 -98t37.5 -135q0 -74 -37.5 -136t-101 -98.5t-139.5 -36.5q-77 0 -141.5 36.5zM404.5 167q37.5 37 37.5 91t-37.5 91.5t-90.5 37.5q-54 0 -91 -37.5t-37 -91.5t37 -91
t91 -37q53 0 90.5 37zM352 629.5q-20 8.5 -48 28.5q-18 13 -28.5 18.5t-20.5 5.5q-20 0 -33 -14t-15 -39h-85q2 70 34.5 110.5t87.5 40.5q25 0 45.5 -9t47.5 -28q18 -14 28.5 -19.5t21.5 -5.5q19 0 32 14t15 37h85q-2 -68 -34.5 -108t-87.5 -40q-25 0 -45 8.5z" />
    <glyph glyph-name="odieresis" unicode="&#xf6;" horiz-adv-x="628" 
d="M173.5 24.5q-64.5 36.5 -102 98.5t-37.5 136q0 73 37.5 135t102 98t141.5 36q76 0 139.5 -36t101 -98t37.5 -135q0 -74 -37.5 -136t-101 -98.5t-139.5 -36.5q-77 0 -141.5 36.5zM404.5 167q37.5 37 37.5 91t-37.5 91.5t-90.5 37.5q-54 0 -91 -37.5t-37 -91.5t37 -91
t91 -37q53 0 90.5 37zM175 640q-22 22 -22 53t22 52.5t53 21.5t53 -21.5t22 -52.5t-22 -53t-53 -22t-53 22zM346 640q-22 22 -22 53t22 52.5t53 21.5t52.5 -21.5t21.5 -52.5t-21.5 -53t-52.5 -22t-53 22z" />
    <glyph glyph-name="divide" unicode="&#xf7;" horiz-adv-x="605" 
d="M60 416h485v-133h-485v133zM239.5 73.5q-27.5 27.5 -27.5 64.5q0 38 26 65t65 27q40 0 65.5 -27.5t25.5 -64.5q0 -39 -27.5 -65.5t-63.5 -26.5t-63.5 27.5zM239.5 498q-27.5 28 -27.5 64q0 38 26 65t65 27q40 0 65.5 -27.5t25.5 -64.5q0 -39 -27.5 -65.5t-63.5 -26.5
t-63.5 28z" />
    <glyph glyph-name="oslash" unicode="&#xf8;" horiz-adv-x="628" 
d="M173.5 24.5q-64.5 36.5 -102 98.5t-37.5 136q0 73 37.5 135t102 98t141.5 36q76 0 139.5 -36t101 -98t37.5 -135q0 -74 -37.5 -136t-101 -98.5t-139.5 -36.5q-77 0 -141.5 36.5zM381 142q31 18 49 48.5t18 67.5t-18 68t-49 49t-67 18q-37 0 -67.5 -18t-48.5 -49t-18 -68
t18 -67.5t48.5 -48.5t67.5 -18q36 0 67 18zM270 -50h-129l218 621h129z" />
    <glyph glyph-name="ugrave" unicode="&#xf9;" horiz-adv-x="563" 
d="M137 20q-49 32 -77 86t-28 118v292h151v-287q0 -37 27 -64t65 -27q37 0 64 27t27 64h78q0 -60 -23 -115.5t-68 -90.5t-106 -35t-110 32zM392 106l-26 3v407h151v-516h-125v106zM59 764h149l134 -147h-135z" />
    <glyph glyph-name="uacute" unicode="&#xfa;" horiz-adv-x="563" 
d="M137 20q-49 32 -77 86t-28 118v292h151v-287q0 -37 27 -64t65 -27q37 0 64 27t27 64h78q0 -60 -23 -115.5t-68 -90.5t-106 -35t-110 32zM392 106l-26 3v407h151v-516h-125v106zM337 762h149l-148 -147h-135z" />
    <glyph glyph-name="ucircumflex" unicode="&#xfb;" horiz-adv-x="563" 
d="M137 20q-49 32 -77 86t-28 118v292h151v-287q0 -37 27 -64t65 -27q37 0 64 27t27 64h78q0 -60 -23 -115.5t-68 -90.5t-106 -35t-110 32zM392 106l-26 3v407h151v-516h-125v106zM280 697l-91 -81h-112l127 148h152l126 -148h-111z" />
    <glyph glyph-name="udieresis" unicode="&#xfc;" horiz-adv-x="563" 
d="M137 20q-49 32 -77 86t-28 118v292h151v-287q0 -37 27 -64t65 -27q37 0 64 27t27 64h78q0 -60 -23 -115.5t-68 -90.5t-106 -35t-110 32zM392 106l-26 3v407h151v-516h-125v106zM139 636q-22 22 -22 53t22 52.5t53 21.5t53 -21.5t22 -52.5t-22 -53t-53 -22t-53 22z
M310 636q-22 22 -22 53t22 52.5t53 21.5t52.5 -21.5t21.5 -52.5t-21.5 -53t-52.5 -22t-53 22z" />
    <glyph glyph-name="yacute" unicode="&#xfd;" horiz-adv-x="568" 
d="M51 -96h93q30 0 52.5 16.5t31.5 44.5l172 551h154l-181 -584q-20 -76 -79.5 -124.5t-138.5 -48.5h-104v145zM10 516h153l147 -516h-153zM344 763h149l-148 -147h-135z" />
    <glyph glyph-name="thorn" unicode="&#xfe;" horiz-adv-x="643" 
d="M220 24q-49 36 -73 97t-24 137t24 137t73 97t119 36q73 0 135 -36.5t98.5 -98.5t36.5 -135q0 -72 -36.5 -134.5t-98.5 -99t-135 -36.5q-70 0 -119 36zM50 734h151v-295v-31v-603h-151v929zM393.5 146.5q29.5 17.5 46.5 47t17 64.5q0 54 -37 91.5t-91 37.5
q-53 0 -90.5 -37.5t-37.5 -91.5q0 -35 17 -64.5t46.5 -47t64.5 -17.5t64.5 17.5z" />
    <glyph glyph-name="ydieresis" unicode="&#xff;" horiz-adv-x="568" 
d="M51 -96h93q30 0 52.5 16.5t31.5 44.5l172 551h154l-181 -584q-20 -76 -79.5 -124.5t-138.5 -48.5h-104v145zM10 516h153l147 -516h-153zM144 637q-22 22 -22 53t22 52.5t53 21.5t53 -21.5t22 -52.5t-22 -53t-53 -22t-53 22zM315 637q-22 22 -22 53t22 52.5t53 21.5
t52.5 -21.5t21.5 -52.5t-21.5 -53t-52.5 -22t-53 22z" />
    <glyph glyph-name="Amacron" unicode="&#x100;" horiz-adv-x="708" 
d="M267 712h159l-257 -712h-160zM283 712h159l258 -712h-159zM212 270h291v-140h-291v140zM500 805h-296v93h296v-93z" />
    <glyph glyph-name="amacron" unicode="&#x101;" horiz-adv-x="637" 
d="M169 25q-62 37 -98.5 99t-36.5 135q0 72 36.5 134t98.5 98.5t136 36.5q70 0 118.5 -36t72.5 -97t24 -137t-24 -137t-72.5 -97t-118.5 -36q-74 0 -136 37zM404.5 167q37.5 37 37.5 91t-37.5 91.5t-90.5 37.5q-54 0 -91 -37.5t-37 -91.5t37 -91t91 -37q53 0 90.5 37z
M468 173l-26 -8v187h151v-352h-125v173zM442 351l26 -8v173h125v-351h-151v186zM445 629h-296v93h296v-93z" />
    <glyph glyph-name="Abreve" unicode="&#x102;" horiz-adv-x="708" 
d="M267 712h159l-257 -712h-160zM283 712h159l258 -712h-159zM212 270h291v-140h-291v140zM216.5 847q-52.5 42 -55.5 113h106q2 -31 25.5 -50t58.5 -19t58.5 19t25.5 50h106q-3 -71 -55.5 -113t-134.5 -42t-134.5 42z" />
    <glyph glyph-name="abreve" unicode="&#x103;" horiz-adv-x="637" 
d="M169 25q-62 37 -98.5 99t-36.5 135q0 72 36.5 134t98.5 98.5t136 36.5q70 0 118.5 -36t72.5 -97t24 -137t-24 -137t-72.5 -97t-118.5 -36q-74 0 -136 37zM404.5 167q37.5 37 37.5 91t-37.5 91.5t-90.5 37.5q-54 0 -91 -37.5t-37 -91.5t37 -91t91 -37q53 0 90.5 37z
M468 173l-26 -8v187h151v-352h-125v173zM442 351l26 -8v173h125v-351h-151v186zM164.5 670q-52.5 42 -55.5 113h106q2 -31 25.5 -50t58.5 -19t58.5 19t25.5 50h106q-3 -71 -55.5 -113t-134.5 -42t-134.5 42z" />
    <glyph glyph-name="Aogonek" unicode="&#x104;" horiz-adv-x="708" 
d="M267 712h159l-257 -712h-160zM283 712h159l258 -712h-159zM212 270h291v-140h-291v140zM515 -203.5q-38 30.5 -38 83.5q0 52 41.5 93.5t118.5 67.5l62 -41q-58 -26 -87.5 -51t-29.5 -54q0 -21 15 -34t42 -13h59v-82h-79q-66 0 -104 30.5z" />
    <glyph glyph-name="aogonek" unicode="&#x105;" horiz-adv-x="637" 
d="M169 25q-62 37 -98.5 99t-36.5 135q0 72 36.5 134t98.5 98.5t136 36.5q70 0 118.5 -36t72.5 -97t24 -137t-24 -137t-72.5 -97t-118.5 -36q-74 0 -136 37zM404.5 167q37.5 37 37.5 91t-37.5 91.5t-90.5 37.5q-54 0 -91 -37.5t-37 -91.5t37 -91t91 -37q53 0 90.5 37z
M468 173l-26 -8v187h151v-352h-125v173zM442 351l26 -8v173h125v-351h-151v186zM409 -203.5q-38 30.5 -38 83.5q0 52 41.5 93.5t118.5 67.5l62 -41q-58 -26 -87.5 -51t-29.5 -54q0 -22 15 -34.5t43 -12.5h58v-82h-79q-66 0 -104 30.5z" />
    <glyph glyph-name="Cacute" unicode="&#x106;" horiz-adv-x="776" 
d="M220 36q-81 50 -128.5 135t-47.5 186q0 100 47.5 185t128.5 135t177 50q81 0 151.5 -36t120 -99.5t68.5 -143.5l-130 -18q-21 68 -76.5 111t-123.5 43q-57 0 -105.5 -30.5t-77 -82.5t-28.5 -114t28.5 -114.5t76.5 -83t106 -30.5q68 0 123.5 43t76.5 111l130 -16
q-19 -80 -68.5 -144t-120 -100.5t-151.5 -36.5q-96 0 -177 50zM454 955h149l-148 -147h-135z" />
    <glyph glyph-name="cacute" unicode="&#x107;" horiz-adv-x="599" 
d="M169 25q-62 37 -98.5 99t-36.5 135q0 72 36.5 134t98.5 98.5t136 36.5q65 0 120 -28t92 -76t48 -108l-130 -19q-12 39 -46 64.5t-75 25.5q-53 0 -90.5 -37.5t-37.5 -91.5q0 -35 17 -64.5t46.5 -47t64.5 -17.5q41 0 75 25.5t46 64.5l130 -18q-11 -60 -48 -108.5t-92 -76.5
t-120 -28q-74 0 -136 37zM357 774h149l-148 -147h-135z" />
    <glyph glyph-name="Cdotaccent" unicode="&#x10a;" horiz-adv-x="776" 
d="M220 36q-81 50 -128.5 135t-47.5 186q0 100 47.5 185t128.5 135t177 50q81 0 151.5 -36t120 -99.5t68.5 -143.5l-130 -18q-21 68 -76.5 111t-123.5 43q-57 0 -105.5 -30.5t-77 -82.5t-28.5 -114t28.5 -114.5t76.5 -83t106 -30.5q68 0 123.5 43t76.5 111l130 -16
q-19 -80 -68.5 -144t-120 -100.5t-151.5 -36.5q-96 0 -177 50zM345 830q-22 22 -22 53t22 52.5t53 21.5t53 -21.5t22 -52.5t-22 -53t-53 -22t-53 22z" />
    <glyph glyph-name="cdotaccent" unicode="&#x10b;" horiz-adv-x="599" 
d="M169 25q-62 37 -98.5 99t-36.5 135q0 72 36.5 134t98.5 98.5t136 36.5q65 0 120 -28t92 -76t48 -108l-130 -19q-12 39 -46 64.5t-75 25.5q-53 0 -90.5 -37.5t-37.5 -91.5q0 -35 17 -64.5t46.5 -47t64.5 -17.5q41 0 75 25.5t46 64.5l130 -18q-11 -60 -48 -108.5t-92 -76.5
t-120 -28q-74 0 -136 37zM249 648q-22 22 -22 53t22 52.5t53 21.5t53 -21.5t22 -52.5t-22 -53t-53 -22t-53 22z" />
    <glyph glyph-name="Ccaron" unicode="&#x10c;" horiz-adv-x="776" 
d="M220 36q-81 50 -128.5 135t-47.5 186q0 100 47.5 185t128.5 135t177 50q81 0 151.5 -36t120 -99.5t68.5 -143.5l-130 -18q-21 68 -76.5 111t-123.5 43q-57 0 -105.5 -30.5t-77 -82.5t-28.5 -114t28.5 -114.5t76.5 -83t106 -30.5q68 0 123.5 43t76.5 111l130 -16
q-19 -80 -68.5 -144t-120 -100.5t-151.5 -36.5q-96 0 -177 50zM469 808h-152l-127 147h112l91 -81l91 81h111z" />
    <glyph glyph-name="ccaron" unicode="&#x10d;" horiz-adv-x="599" 
d="M169 25q-62 37 -98.5 99t-36.5 135q0 72 36.5 134t98.5 98.5t136 36.5q65 0 120 -28t92 -76t48 -108l-130 -19q-12 39 -46 64.5t-75 25.5q-53 0 -90.5 -37.5t-37.5 -91.5q0 -35 17 -64.5t46.5 -47t64.5 -17.5q41 0 75 25.5t46 64.5l130 -18q-11 -60 -48 -108.5t-92 -76.5
t-120 -28q-74 0 -136 37zM382 628h-152l-127 147h112l91 -81l91 81h111z" />
    <glyph glyph-name="Dcaron" unicode="&#x10e;" horiz-adv-x="693" 
d="M53 712h239q97 0 178.5 -48t129.5 -129.5t48 -178.5t-48 -178.5t-129.5 -129.5t-178.5 -48h-239v712zM387.5 165.5q50.5 29.5 80 80t29.5 110.5t-29.5 110.5t-80 80t-110.5 29.5h-72v-440h72q60 0 110.5 29.5zM332 805h-152l-127 147h112l91 -81l91 81h111z" />
    <glyph glyph-name="dcaron" unicode="&#x10f;" horiz-adv-x="650" 
d="M169 25q-62 37 -98.5 99t-36.5 135q0 72 36.5 134t98.5 98.5t136 36.5q70 0 118.5 -36t72.5 -97t24 -137t-24 -137t-72.5 -97t-118.5 -36q-74 0 -136 37zM404.5 167q37.5 37 37.5 91t-37.5 91.5t-90.5 37.5t-90.5 -37.5t-37.5 -91.5t37.5 -91t90.5 -37t90.5 37zM468 116
l-26 -7v633h152v-742h-126v116zM594 842h-152l-127 147h112l91 -81l91 81h111z" />
    <glyph glyph-name="Dcroat" unicode="&#x110;" horiz-adv-x="723" 
d="M84 712h239q96 0 178 -48t130 -129.5t48 -178.5t-48 -178.5t-130 -129.5t-178 -48h-239v712zM417.5 165.5q50.5 29.5 80 80t29.5 110.5t-29.5 110.5t-80 80t-110.5 29.5h-72v-440h72q60 0 110.5 29.5zM12 420h297v-129h-297v129z" />
    <glyph glyph-name="dcroat" unicode="&#x111;" horiz-adv-x="675" 
d="M169 25q-62 37 -98.5 99t-36.5 135q0 72 36.5 134t98.5 98.5t136 36.5q70 0 118.5 -36t72.5 -97t24 -137t-24 -137t-72.5 -97t-118.5 -36q-74 0 -136 37zM404.5 167q37.5 37 37.5 91t-37.5 91.5t-90.5 37.5t-90.5 -37.5t-37.5 -91.5t37.5 -91t90.5 -37t90.5 37zM468 116
l-26 -7v633h152v-742h-126v116zM379 684h266v-129h-266v129z" />
    <glyph glyph-name="Emacron" unicode="&#x112;" horiz-adv-x="569" 
d="M53 712h485l1 -140l-334 1v-153h296v-129h-296v-152h333v-139h-485v712zM452 805h-296v93h296v-93z" />
    <glyph glyph-name="emacron" unicode="&#x113;" horiz-adv-x="595" 
d="M173 25q-62 37 -98.5 99t-36.5 135q0 72 36.5 134t98.5 98.5t135 36.5q75 0 133.5 -36t91.5 -98t33 -135q0 -35 -4 -58h-379q12 -39 47 -64.5t80 -25.5q73 0 117 52l110 -58q-37 -56 -97 -86.5t-132 -30.5q-73 0 -135 37zM385 378q-33 23 -75 23q-41 0 -74.5 -23
t-47.5 -60h244q-14 37 -47 60zM452 628h-296v93h296v-93z" />
    <glyph glyph-name="Edotaccent" unicode="&#x116;" horiz-adv-x="569" 
d="M53 712h485l1 -140l-334 1v-153h296v-129h-296v-152h333v-139h-485v712zM246 826q-22 22 -22 53t22 52.5t53 21.5t53 -21.5t22 -52.5t-22 -53t-53 -22t-53 22z" />
    <glyph glyph-name="edotaccent" unicode="&#x117;" horiz-adv-x="595" 
d="M173 25q-62 37 -98.5 99t-36.5 135q0 72 36.5 134t98.5 98.5t135 36.5q75 0 133.5 -36t91.5 -98t33 -135q0 -35 -4 -58h-379q12 -39 47 -64.5t80 -25.5q73 0 117 52l110 -58q-37 -56 -97 -86.5t-132 -30.5q-73 0 -135 37zM385 378q-33 23 -75 23q-41 0 -74.5 -23
t-47.5 -60h244q-14 37 -47 60zM254 650q-22 22 -22 53t22 52.5t53 21.5t53 -21.5t22 -52.5t-22 -53t-53 -22t-53 22z" />
    <glyph glyph-name="Eogonek" unicode="&#x118;" horiz-adv-x="569" 
d="M53 712h485l1 -140l-334 1v-153h296v-129h-296v-152h333v-139h-485v712zM354 -203.5q-38 30.5 -38 83.5q0 52 41 93.5t119 67.5l62 -41q-58 -26 -87.5 -51t-29.5 -54q0 -21 15 -34t42 -13h58v-82h-78q-66 0 -104 30.5z" />
    <glyph glyph-name="eogonek" unicode="&#x119;" horiz-adv-x="595" 
d="M173 25q-62 37 -98.5 99t-36.5 135q0 72 36.5 134t98.5 98.5t135 36.5q75 0 133.5 -36t91.5 -98t33 -135q0 -35 -4 -58h-379q12 -39 47 -64.5t80 -25.5q73 0 117 52l110 -58q-37 -56 -97 -86.5t-132 -30.5q-73 0 -135 37zM385 378q-33 23 -75 23q-41 0 -74.5 -23
t-47.5 -60h244q-14 37 -47 60zM208 -202.5q-38 30.5 -38 83.5q0 52 41.5 93.5t118.5 67.5l62 -41q-58 -26 -87.5 -51t-29.5 -54q0 -22 15 -34.5t43 -12.5h58v-82h-79q-66 0 -104 30.5z" />
    <glyph glyph-name="Ecaron" unicode="&#x11a;" horiz-adv-x="569" 
d="M53 712h485l1 -140l-334 1v-153h296v-129h-296v-152h333v-139h-485v712zM382 805h-152l-127 147h112l91 -81l91 81h111z" />
    <glyph glyph-name="ecaron" unicode="&#x11b;" horiz-adv-x="595" 
d="M173 25q-62 37 -98.5 99t-36.5 135q0 72 36.5 134t98.5 98.5t135 36.5q75 0 133.5 -36t91.5 -98t33 -135q0 -35 -4 -58h-379q12 -39 47 -64.5t80 -25.5q73 0 117 52l110 -58q-37 -56 -97 -86.5t-132 -30.5q-73 0 -135 37zM385 378q-33 23 -75 23q-41 0 -74.5 -23
t-47.5 -60h244q-14 37 -47 60zM385 629h-152l-127 147h112l91 -81l91 81h111z" />
    <glyph glyph-name="Gbreve" unicode="&#x11e;" horiz-adv-x="770" 
d="M209 36q-81 50 -128.5 135t-47.5 186q0 100 47.5 185t128.5 135t176 50q108 0 196 -63t128 -165l-123 -43q-26 58 -77.5 93t-113.5 35q-57 0 -105 -30.5t-76.5 -82.5t-28.5 -114t28 -114.5t76.5 -83t105.5 -30.5q50 0 93.5 23.5t73 64.5t38.5 92l137 48
q0 -101 -47.5 -186t-128.5 -135t-176 -50t-176 50zM347 399h390v-42l-18 -79h-372v121zM243.5 850q-52.5 42 -55.5 113h106q2 -31 25.5 -50t58.5 -19t58.5 19t25.5 50h106q-3 -71 -55.5 -113t-134.5 -42t-134.5 42z" />
    <glyph glyph-name="gbreve" unicode="&#x11f;" horiz-adv-x="634" 
d="M145 -89h208q45 0 78.5 33t33.5 80v390l3 -7v109h126v-491q0 -69 -34 -128t-92 -94t-126 -35h-197v143zM169 25q-62 37 -98.5 99t-36.5 135q0 72 36.5 134t98.5 98.5t136 36.5q70 0 118.5 -36t72.5 -97t24 -137t-24 -137t-72.5 -97t-118.5 -36q-74 0 -136 37z
M378.5 146.5q29.5 17.5 46.5 47t17 64.5q0 54 -37.5 91.5t-90.5 37.5t-90.5 -37.5t-37.5 -91.5q0 -35 17 -64.5t46.5 -47t64.5 -17.5t64.5 17.5zM158.5 671q-52.5 42 -55.5 113h106q2 -31 25.5 -50t58.5 -19t58.5 19t25.5 50h106q-3 -71 -55.5 -113t-134.5 -42t-134.5 42z
" />
    <glyph glyph-name="Gdotaccent" unicode="&#x120;" horiz-adv-x="770" 
d="M209 36q-81 50 -128.5 135t-47.5 186q0 100 47.5 185t128.5 135t176 50q108 0 196 -63t128 -165l-123 -43q-26 58 -77.5 93t-113.5 35q-57 0 -105 -30.5t-76.5 -82.5t-28.5 -114t28 -114.5t76.5 -83t105.5 -30.5q50 0 93.5 23.5t73 64.5t38.5 92l137 48
q0 -101 -47.5 -186t-128.5 -135t-176 -50t-176 50zM347 399h390v-42l-18 -79h-372v121zM330 829q-22 22 -22 53t22 52.5t53 21.5t53 -21.5t22 -52.5t-22 -53t-53 -22t-53 22z" />
    <glyph glyph-name="gdotaccent" unicode="&#x121;" horiz-adv-x="634" 
d="M145 -89h208q45 0 78.5 33t33.5 80v390l3 -7v109h126v-491q0 -69 -34 -128t-92 -94t-126 -35h-197v143zM169 25q-62 37 -98.5 99t-36.5 135q0 72 36.5 134t98.5 98.5t136 36.5q70 0 118.5 -36t72.5 -97t24 -137t-24 -137t-72.5 -97t-118.5 -36q-74 0 -136 37z
M378.5 146.5q29.5 17.5 46.5 47t17 64.5q0 54 -37.5 91.5t-90.5 37.5t-90.5 -37.5t-37.5 -91.5q0 -35 17 -64.5t46.5 -47t64.5 -17.5t64.5 17.5zM253 650q-22 22 -22 53t22 52.5t53 21.5t53 -21.5t22 -52.5t-22 -53t-53 -22t-53 22z" />
    <glyph glyph-name="uni0122" unicode="&#x122;" horiz-adv-x="770" 
d="M209 36q-81 50 -128.5 135t-47.5 186q0 100 47.5 185t128.5 135t176 50q108 0 196 -63t128 -165l-123 -43q-26 58 -77.5 93t-113.5 35q-57 0 -105 -30.5t-76.5 -82.5t-28.5 -114t28 -114.5t76.5 -83t105.5 -30.5q50 0 93.5 23.5t73 64.5t38.5 92l137 48
q0 -101 -47.5 -186t-128.5 -135t-176 -50t-176 50zM347 399h390v-42l-18 -79h-372v121zM325.5 -329.5q21.5 34.5 27.5 43.5l11 19q-25 -1 -47.5 23t-22.5 55q0 39 27 66t65 27q42 0 67.5 -27t25.5 -65q0 -52 -28 -118t-88 -143l-81 55q22 30 43.5 64.5z" />
    <glyph glyph-name="uni0123" unicode="&#x123;" horiz-adv-x="634" 
d="M145 -89h208q45 0 78.5 33t33.5 80v390l3 -7v109h126v-491q0 -69 -34 -128t-92 -94t-126 -35h-197v143zM169 25q-62 37 -98.5 99t-36.5 135q0 72 36.5 134t98.5 98.5t136 36.5q70 0 118.5 -36t72.5 -97t24 -137t-24 -137t-72.5 -97t-118.5 -36q-74 0 -136 37z
M378.5 146.5q29.5 17.5 46.5 47t17 64.5q0 54 -37.5 91.5t-90.5 37.5t-90.5 -37.5t-37.5 -91.5q0 -35 17 -64.5t46.5 -47t64.5 -17.5t64.5 17.5zM334 816l-11 -18q25 1 47.5 -23.5t22.5 -55.5q0 -38 -27 -65t-65 -27q-42 0 -67.5 27t-25.5 65q0 52 28 117.5t88 143.5l81 -55
q-36 -49 -71 -109z" />
    <glyph glyph-name="Hbar" unicode="&#x126;" horiz-adv-x="734" 
d="M68 712h151v-292h296v292h151v-712h-151v291h-296v-291h-151v712zM35 638h664v-128h-664v128z" />
    <glyph glyph-name="hbar" unicode="&#x127;" horiz-adv-x="592" 
d="M382.5 351q-26.5 27 -65.5 27q-36 0 -63 -27t-27 -64h-78q0 60 23 115.5t67.5 90.5t105.5 35t110 -32t77 -86t28 -118v-292h-151v287q0 37 -26.5 64zM75 742h152v-742h-152v742zM30 691h266v-128h-266v128z" />
    <glyph glyph-name="Imacron" unicode="&#x12a;" horiz-adv-x="257" 
d="M53 0v712h152v-712h-152zM277 805h-296v93h296v-93z" />
    <glyph glyph-name="imacron" unicode="&#x12b;" horiz-adv-x="245" 
d="M47 516h151v-516h-151v516zM271 616h-296v94h296v-94z" />
    <glyph glyph-name="Iogonek" unicode="&#x12e;" horiz-adv-x="257" 
d="M53 0v712h152v-712h-152zM21 -203.5q-38 30.5 -38 83.5q0 52 41 93.5t119 67.5l62 -41q-58 -26 -88 -51t-30 -54q0 -22 15 -34.5t43 -12.5h58v-82h-79q-65 0 -103 30.5z" />
    <glyph glyph-name="iogonek" unicode="&#x12f;" horiz-adv-x="245" 
d="M47 516h151v-516h-151v516zM14.5 -203.5q-37.5 30.5 -37.5 83.5q0 52 41 93.5t118 67.5l62 -41q-58 -26 -87.5 -51t-29.5 -54q0 -22 15 -34.5t43 -12.5h58v-82h-79q-66 0 -103.5 30.5z" />
    <glyph glyph-name="Idotaccent" unicode="&#x130;" horiz-adv-x="257" 
d="M53 0v712h152v-712h-152zM79 826q-22 22 -22 53t22 52.5t53 21.5t53 -21.5t22 -52.5t-22 -53t-53 -22t-53 22z" />
    <glyph glyph-name="dotlessi" unicode="&#x131;" horiz-adv-x="245" 
d="M47 516h151v-516h-151v516z" />
    <glyph glyph-name="uni0136" unicode="&#x136;" horiz-adv-x="665" 
d="M645 712l-448 -507l-7 222l261 285h194zM205 712v-712h-152v712h152zM366 417l289 -417h-177l-257 370zM261.5 -326.5q21.5 34.5 27.5 43.5l11 19q-25 -1 -47.5 23t-22.5 55q0 39 27 66t65 27q42 0 67.5 -27t25.5 -65q0 -52 -28 -118t-88 -143l-81 55q22 30 43.5 64.5z
" />
    <glyph glyph-name="uni0137" unicode="&#x137;" horiz-adv-x="570" 
d="M242 205l99 120l215 -325h-177zM53 741h152v-741h-152v741zM205 360l148 156h186l-334 -365v209zM219.5 -333.5q21.5 34.5 27.5 43.5l11 19q-25 -1 -47.5 23t-22.5 55q0 39 27 66t65 27q42 0 67.5 -27t25.5 -65q0 -52 -28 -118t-88 -143l-81 55q22 30 43.5 64.5z" />
    <glyph glyph-name="Lacute" unicode="&#x139;" horiz-adv-x="493" 
d="M475 0h-422v712h152v-573h270v-139zM190 952h149l-148 -147h-135z" />
    <glyph glyph-name="lacute" unicode="&#x13a;" horiz-adv-x="264" 
d="M140.5 23q-40.5 23 -64 62.5t-23.5 87.5v568h151v-577q0 -10 6.5 -16t17.5 -6h17v-142h-17q-47 0 -87.5 23zM193 988h149l-148 -147h-135z" />
    <glyph glyph-name="uni013B" unicode="&#x13b;" horiz-adv-x="493" 
d="M475 0h-422v712h152v-573h270v-139zM191.5 -326.5q21.5 34.5 27.5 43.5l11 19q-25 -1 -47.5 23t-22.5 55q0 39 27 66t65 27q42 0 67.5 -27t25.5 -65q0 -52 -28 -118t-88 -143l-81 55q22 30 43.5 64.5z" />
    <glyph glyph-name="uni013C" unicode="&#x13c;" horiz-adv-x="276" 
d="M140.5 23q-40.5 23 -64 62.5t-23.5 87.5v568h151v-577q0 -10 6.5 -16t17.5 -6h17v-142h-17q-47 0 -87.5 23zM96.5 -333.5q21.5 34.5 27.5 43.5l11 19q-25 -1 -47.5 23t-22.5 55q0 39 27 66t65 27q42 0 67.5 -27t25.5 -65q0 -52 -28 -118t-88 -143l-81 55q22 30 43.5 64.5
z" />
    <glyph glyph-name="Lcaron" unicode="&#x13d;" horiz-adv-x="493" 
d="M475 0h-422v712h152v-573h270v-139zM195 805h-152l-127 147h112l91 -81l91 81h111z" />
    <glyph glyph-name="lcaron" unicode="&#x13e;" horiz-adv-x="271" 
d="M140.5 23q-40.5 23 -64 62.5t-23.5 87.5v568h151v-577q0 -10 6.5 -16t17.5 -6h17v-142h-17q-47 0 -87.5 23zM207 841h-152l-127 147h112l91 -81l91 81h111z" />
    <glyph glyph-name="Lslash" unicode="&#x141;" horiz-adv-x="569" 
d="M32 331l322 185l64 -112l-321 -185zM551 0h-422v711h151v-572h271v-139z" />
    <glyph glyph-name="lslash" unicode="&#x142;" horiz-adv-x="451" 
d="M32 331l322 185l64 -112l-321 -185zM234.5 23q-40.5 23 -64 62.5t-23.5 87.5v568h151v-577q0 -10 6.5 -16t17.5 -6h17v-142h-17q-47 0 -87.5 23z" />
    <glyph glyph-name="Nacute" unicode="&#x143;" horiz-adv-x="718" 
d="M445 0l-248 492v-492h-144v712h196l272 -549v549h144v-712h-220zM403 952h149l-148 -147h-135z" />
    <glyph glyph-name="nacute" unicode="&#x144;" horiz-adv-x="560" 
d="M350.5 352q-26.5 27 -65.5 27q-36 0 -63 -27t-27 -64h-78q0 60 23 115t67.5 90t105.5 35t110.5 -32t77.5 -86t28 -118v-292h-152v288q0 37 -26.5 64zM43 516h126v-106l26 -3v-407h-152v516zM363 773h149l-148 -147h-135z" />
    <glyph glyph-name="uni0145" unicode="&#x145;" horiz-adv-x="718" 
d="M445 0l-248 492v-492h-144v712h196l272 -549v549h144v-712h-220zM317.5 -326.5q21.5 34.5 27.5 43.5l11 19q-25 -1 -47.5 23t-22.5 55q0 39 27 66t65 27q42 0 67.5 -27t25.5 -65q0 -52 -28 -118t-88 -143l-81 55q22 30 43.5 64.5z" />
    <glyph glyph-name="uni0146" unicode="&#x146;" horiz-adv-x="560" 
d="M350.5 352q-26.5 27 -65.5 27q-36 0 -63 -27t-27 -64h-78q0 60 23 115t67.5 90t105.5 35t110.5 -32t77.5 -86t28 -118v-292h-152v288q0 37 -26.5 64zM43 516h126v-106l26 -3v-407h-152v516zM221.5 -333.5q21.5 34.5 27.5 43.5l11 19q-25 -1 -47.5 23t-22.5 55q0 39 27 66
t65 27q42 0 67.5 -27t25.5 -65q0 -52 -28 -118t-88 -143l-81 55q22 30 43.5 64.5z" />
    <glyph glyph-name="Ncaron" unicode="&#x147;" horiz-adv-x="718" 
d="M445 0l-248 492v-492h-144v712h196l272 -549v549h144v-712h-220zM432 805h-152l-127 147h112l91 -81l91 81h111z" />
    <glyph glyph-name="ncaron" unicode="&#x148;" horiz-adv-x="560" 
d="M350.5 352q-26.5 27 -65.5 27q-36 0 -63 -27t-27 -64h-78q0 60 23 115t67.5 90t105.5 35t110.5 -32t77.5 -86t28 -118v-292h-152v288q0 37 -26.5 64zM43 516h126v-106l26 -3v-407h-152v516zM389 626h-152l-127 147h112l91 -81l91 81h111z" />
    <glyph glyph-name="Eng" unicode="&#x14a;" horiz-adv-x="718" 
d="M445 0l-248 492v-492h-144v711h196l272 -548v548h144v-711h-220zM411 -61h63q20 0 33.5 13.5t13.5 32.5v531h143v-531q0 -52 -25.5 -95t-69 -68t-94.5 -25h-64v142z" />
    <glyph glyph-name="eng" unicode="&#x14b;" horiz-adv-x="570" 
d="M350.5 352q-26.5 27 -65.5 27q-36 0 -63 -27t-27 -64h-78q0 60 23 115t67.5 90t105.5 35t110.5 -32t77.5 -86t28 -118v-292h-152v288q0 37 -26.5 64zM43 516h126v-106l26 -3v-407h-152v516zM276 -61h55q20 0 33 13t13 33v225h152v-225q0 -52 -25.5 -95t-69.5 -68t-95 -25
h-63v142z" />
    <glyph glyph-name="Omacron" unicode="&#x14c;" horiz-adv-x="823" 
d="M227.5 36q-84.5 50 -134 135t-49.5 186q0 100 49.5 185t134 135t184.5 50q99 0 183 -50t133.5 -135t49.5 -185q0 -101 -49.5 -186t-133.5 -135t-183 -50q-100 0 -184.5 50zM519.5 159.5q49.5 30.5 78.5 83t29 114.5q0 61 -29 113.5t-78.5 83t-107.5 30.5
q-59 0 -109.5 -30.5t-79.5 -82.5t-29 -114t29 -114.5t79.5 -83t109.5 -30.5q58 0 107.5 30.5zM558 808h-296v93h296v-93z" />
    <glyph glyph-name="omacron" unicode="&#x14d;" horiz-adv-x="628" 
d="M173.5 24.5q-64.5 36.5 -102 98.5t-37.5 136q0 73 37.5 135t102 98t141.5 36q76 0 139.5 -36t101 -98t37.5 -135q0 -74 -37.5 -136t-101 -98.5t-139.5 -36.5q-77 0 -141.5 36.5zM404.5 167q37.5 37 37.5 91t-37.5 91.5t-90.5 37.5q-54 0 -91 -37.5t-37 -91.5t37 -91
t91 -37q53 0 90.5 37zM456 628h-296v93h296v-93z" />
    <glyph glyph-name="Ohungarumlaut" unicode="&#x150;" horiz-adv-x="823" 
d="M227.5 36q-84.5 50 -134 135t-49.5 186q0 100 49.5 185t134 135t184.5 50q99 0 183 -50t133.5 -135t49.5 -185q0 -101 -49.5 -186t-133.5 -135t-183 -50q-100 0 -184.5 50zM519.5 159.5q49.5 30.5 78.5 83t29 114.5q0 61 -29 113.5t-78.5 83t-107.5 30.5
q-59 0 -109.5 -30.5t-79.5 -82.5t-29 -114t29 -114.5t79.5 -83t109.5 -30.5q58 0 107.5 30.5zM536 954h147l-140 -147h-134zM333 954h147l-139 -147h-135z" />
    <glyph glyph-name="ohungarumlaut" unicode="&#x151;" horiz-adv-x="628" 
d="M173.5 24.5q-64.5 36.5 -102 98.5t-37.5 136q0 73 37.5 135t102 98t141.5 36q76 0 139.5 -36t101 -98t37.5 -135q0 -74 -37.5 -136t-101 -98.5t-139.5 -36.5q-77 0 -141.5 36.5zM404.5 167q37.5 37 37.5 91t-37.5 91.5t-90.5 37.5q-54 0 -91 -37.5t-37 -91.5t37 -91
t91 -37q53 0 90.5 37zM453 774h147l-140 -147h-134zM250 774h147l-139 -147h-135z" />
    <glyph glyph-name="OE" unicode="&#x152;" horiz-adv-x="1143" 
d="M227.5 36q-84.5 50 -134 135t-49.5 186q0 100 49.5 185t134 135t184.5 50q99 0 183 -50t133.5 -135t49.5 -185q0 -101 -49.5 -186t-133.5 -135t-183 -50q-100 0 -184.5 50zM519.5 159.5q49.5 30.5 78.5 83t29 114.5q0 61 -29 113.5t-78.5 83t-107.5 30.5
q-59 0 -109.5 -30.5t-79.5 -82.5t-29 -114t29 -114.5t79.5 -83t109.5 -30.5q58 0 107.5 30.5zM627 712h485l1 -140l-334 1v-153h297v-129h-297v-152h333v-139h-485v712z" />
    <glyph glyph-name="oe" unicode="&#x153;" horiz-adv-x="1001" 
d="M173.5 24.5q-64.5 36.5 -102 98.5t-37.5 136q0 73 37.5 135t102 98t141.5 36q76 0 139.5 -36t101 -98t37.5 -135q0 -74 -37.5 -136t-101 -98.5t-139.5 -36.5q-77 0 -141.5 36.5zM404.5 167q37.5 37 37.5 91t-37.5 91.5t-90.5 37.5q-54 0 -91 -37.5t-37 -91.5t37 -91
t91 -37q53 0 90.5 37zM580 25q-62 37 -98.5 99t-36.5 135q0 72 36.5 134t98.5 98.5t135 36.5q75 0 133.5 -36t91.5 -98t33 -135q0 -30 -5 -58l-109 58q0 38 -19 70.5t-51.5 52t-71.5 19.5t-71.5 -19t-51.5 -52t-19 -71q0 -40 17.5 -74t50 -54t74.5 -20q73 0 116 52l110 -58
q-37 -56 -96.5 -86.5t-131.5 -30.5q-73 0 -135 37zM571 311h372l25 -110h-397v110z" />
    <glyph glyph-name="Racute" unicode="&#x154;" horiz-adv-x="632" 
d="M53 712h270q67 0 124.5 -33.5t91 -91t33.5 -125.5q0 -67 -33.5 -119t-90 -80.5t-125.5 -28.5h-118v-234h-152v712zM357.5 216q-21.5 17 -64.5 17h-116v73h108q83 0 123.5 -5.5t71.5 -30t55 -81.5l78 -189h-150l-69 164q-15 35 -36.5 52zM388 384q32 33 32 78t-32 78
t-76 33h-107v-222h107q44 0 76 33zM332 952h149l-148 -147h-135z" />
    <glyph glyph-name="racute" unicode="&#x155;" horiz-adv-x="395" 
d="M43 516h126v-115l26 7v-408h-152v516zM143 373q26 64 77.5 104t121.5 40h31v-139h-76q-41 0 -71.5 -31t-30.5 -72l-78 -35q0 69 26 133zM264 764h149l-148 -147h-135z" />
    <glyph glyph-name="uni0156" unicode="&#x156;" horiz-adv-x="632" 
d="M53 712h270q67 0 124.5 -33.5t91 -91t33.5 -125.5q0 -67 -33.5 -119t-90 -80.5t-125.5 -28.5h-118v-234h-152v712zM357.5 216q-21.5 17 -64.5 17h-116v73h108q83 0 123.5 -5.5t71.5 -30t55 -81.5l78 -189h-150l-69 164q-15 35 -36.5 52zM388 384q32 33 32 78t-32 78
t-76 33h-107v-222h107q44 0 76 33zM265.5 -326.5q21.5 34.5 27.5 43.5l11 19q-25 -1 -47.5 23t-22.5 55q0 39 27 66t65 27q42 0 67.5 -27t25.5 -65q0 -52 -28 -118t-88 -143l-81 55q22 30 43.5 64.5z" />
    <glyph glyph-name="uni0157" unicode="&#x157;" horiz-adv-x="395" 
d="M43 516h126v-115l26 7v-408h-152v516zM143 373q26 64 77.5 104t121.5 40h31v-139h-76q-41 0 -71.5 -31t-30.5 -72l-78 -35q0 69 26 133zM73.5 -333.5q21.5 34.5 27.5 43.5l11 19q-25 -1 -47.5 23t-22.5 55q0 39 27 66t65 27q42 0 67.5 -27t25.5 -65q0 -52 -28 -118
t-88 -143l-81 55q22 30 43.5 64.5z" />
    <glyph glyph-name="Rcaron" unicode="&#x158;" horiz-adv-x="632" 
d="M53 712h270q67 0 124.5 -33.5t91 -91t33.5 -125.5q0 -67 -33.5 -119t-90 -80.5t-125.5 -28.5h-118v-234h-152v712zM357.5 216q-21.5 17 -64.5 17h-116v73h108q83 0 123.5 -5.5t71.5 -30t55 -81.5l78 -189h-150l-69 164q-15 35 -36.5 52zM388 384q32 33 32 78t-32 78
t-76 33h-107v-222h107q44 0 76 33zM350 805h-152l-127 147h112l91 -81l91 81h111z" />
    <glyph glyph-name="rcaron" unicode="&#x159;" horiz-adv-x="395" 
d="M43 516h126v-115l26 7v-408h-152v516zM143 373q26 64 77.5 104t121.5 40h31v-139h-76q-41 0 -71.5 -31t-30.5 -72l-78 -35q0 69 26 133zM297 616h-152l-127 147h112l91 -81l91 81h111z" />
    <glyph glyph-name="Sacute" unicode="&#x15a;" horiz-adv-x="630" 
d="M166 6.5q-78 20.5 -134 52.5l52 127q42 -24 108.5 -41.5t119.5 -17.5q61 0 98.5 18.5t37.5 51.5q0 31 -28.5 46t-94.5 33q-20 6 -30 8q-95 27 -148.5 58t-76.5 71t-23 98q0 66 37.5 115t103 75.5t148.5 26.5q109 0 238 -48l-50 -131q-109 37 -190 37q-61 0 -98 -20
t-37 -55q0 -25 15 -39.5t44 -24.5t91 -25q139 -34 194.5 -84.5t55.5 -126.5q0 -69 -36 -120t-100 -78t-146 -27q-73 0 -151 20.5zM373 955h149l-148 -147h-135z" />
    <glyph glyph-name="sacute" unicode="&#x15b;" horiz-adv-x="538" 
d="M146.5 8.5q-63.5 20.5 -112.5 57.5l64 99q92 -53 183 -53q41 0 58.5 9.5t17.5 27.5q0 17 -18 25.5t-66 20.5q-109 25 -158.5 62.5t-49.5 106.5q0 74 59 119t158 45q53 0 106 -15t96 -40l-52 -106q-79 36 -150 36q-30 0 -48.5 -11t-18.5 -30q0 -20 18 -28t68 -16
q102 -19 154 -59t52 -107q0 -76 -60.5 -120t-165.5 -44q-71 0 -134.5 20.5zM336 775h149l-148 -147h-135z" />
    <glyph glyph-name="Scedilla" unicode="&#x15e;" horiz-adv-x="630" 
d="M166 6.5q-78 20.5 -134 52.5l52 127q42 -24 108.5 -41.5t119.5 -17.5q61 0 98.5 18.5t37.5 51.5q0 31 -28.5 46t-94.5 33q-20 6 -30 8q-95 27 -148.5 58t-76.5 71t-23 98q0 66 37.5 115t103 75.5t148.5 26.5q109 0 238 -48l-50 -131q-109 37 -190 37q-61 0 -98 -20
t-37 -55q0 -25 15 -39.5t44 -24.5t91 -25q139 -34 194.5 -84.5t55.5 -126.5q0 -69 -36 -120t-100 -78t-146 -27q-73 0 -151 20.5zM204 -246l17 75l75 -1q41 0 41 31q0 14 -9.5 22.5t-26.5 8.5h-51l26 106h93l-15 -61q41 -5 62.5 -26.5t21.5 -53.5q0 -47 -40.5 -74
t-109.5 -27h-84z" />
    <glyph glyph-name="scedilla" unicode="&#x15f;" horiz-adv-x="538" 
d="M146.5 8.5q-63.5 20.5 -112.5 57.5l64 99q92 -53 183 -53q41 0 58.5 9.5t17.5 27.5q0 17 -18 25.5t-66 20.5q-109 25 -158.5 62.5t-49.5 106.5q0 74 59 119t158 45q53 0 106 -15t96 -40l-52 -106q-79 36 -150 36q-30 0 -48.5 -11t-18.5 -30q0 -20 18 -28t68 -16
q102 -19 154 -59t52 -107q0 -76 -60.5 -120t-165.5 -44q-71 0 -134.5 20.5zM157 -243l17 76l75 -1q21 0 30.5 7.5t9.5 23.5q0 14 -9 22.5t-26 8.5h-51l26 106h92l-14 -62q41 -5 62.5 -26.5t21.5 -53.5q0 -46 -41 -73.5t-110 -27.5h-83z" />
    <glyph glyph-name="Scaron" unicode="&#x160;" horiz-adv-x="630" 
d="M166 6.5q-78 20.5 -134 52.5l52 127q42 -24 108.5 -41.5t119.5 -17.5q61 0 98.5 18.5t37.5 51.5q0 31 -28.5 46t-94.5 33q-20 6 -30 8q-95 27 -148.5 58t-76.5 71t-23 98q0 66 37.5 115t103 75.5t148.5 26.5q109 0 238 -48l-50 -131q-109 37 -190 37q-61 0 -98 -20
t-37 -55q0 -25 15 -39.5t44 -24.5t91 -25q139 -34 194.5 -84.5t55.5 -126.5q0 -69 -36 -120t-100 -78t-146 -27q-73 0 -151 20.5zM400 808h-152l-127 147h112l91 -81l91 81h111z" />
    <glyph glyph-name="scaron" unicode="&#x161;" horiz-adv-x="538" 
d="M146.5 8.5q-63.5 20.5 -112.5 57.5l64 99q92 -53 183 -53q41 0 58.5 9.5t17.5 27.5q0 17 -18 25.5t-66 20.5q-109 25 -158.5 62.5t-49.5 106.5q0 74 59 119t158 45q53 0 106 -15t96 -40l-52 -106q-79 36 -150 36q-30 0 -48.5 -11t-18.5 -30q0 -20 18 -28t68 -16
q102 -19 154 -59t52 -107q0 -76 -60.5 -120t-165.5 -44q-71 0 -134.5 20.5zM352 628h-152l-127 147h112l91 -81l91 81h111z" />
    <glyph glyph-name="uni0162" unicode="&#x162;" horiz-adv-x="543" 
d="M195 573h-184l-1 139h522v-139h-186v-573h-151v573zM182 -243l17 76l74 -1q22 0 31.5 7.5t9.5 23.5q0 14 -9 22.5t-26 8.5h-51l26 106h92l-14 -62q41 -5 62.5 -26.5t21.5 -53.5q0 -46 -41 -73.5t-110 -27.5h-83z" />
    <glyph glyph-name="uni0163" unicode="&#x163;" horiz-adv-x="466" 
d="M132 376h-113v140h405v-139h-140v-192q0 -19 13.5 -32.5t32.5 -13.5h104v-139h-112q-52 0 -95.5 24t-69 66.5t-25.5 94.5v191zM132 516v153h152v-153h-152zM172 -225l17 75l75 -1q41 0 41 31q0 14 -9.5 22.5t-26.5 8.5h-51l26 106h93l-15 -61q41 -5 62.5 -27t21.5 -53
q0 -47 -40.5 -74t-109.5 -27h-84z" />
    <glyph glyph-name="Tcaron" unicode="&#x164;" horiz-adv-x="543" 
d="M195 573h-184l-1 139h522v-139h-186v-573h-151v573zM348 805h-152l-127 147h112l91 -81l91 81h111z" />
    <glyph glyph-name="tcaron" unicode="&#x165;" horiz-adv-x="466" 
d="M132 376h-113v140h405v-139h-140v-192q0 -19 13.5 -32.5t32.5 -13.5h104v-139h-112q-52 0 -95.5 24t-69 66.5t-25.5 94.5v191zM132 516v153h152v-153h-152zM285 768h-152l-127 147h112l91 -81l91 81h111z" />
    <glyph glyph-name="Tbar" unicode="&#x166;" horiz-adv-x="543" 
d="M123 420h297v-129h-297v129zM195 573h-184l-1 139h522v-139h-186v-573h-151v573z" />
    <glyph glyph-name="tbar" unicode="&#x167;" horiz-adv-x="514" 
d="M77 323h267v-96h-267v96zM132 376h-113v140h405v-139h-140v-192q0 -19 13.5 -32.5t32.5 -13.5h104v-139h-112q-52 0 -95.5 24t-69 66.5t-25.5 94.5v191zM132 516v153h152v-153h-152z" />
    <glyph glyph-name="Umacron" unicode="&#x16a;" horiz-adv-x="663" 
d="M190.5 32q-64.5 38 -102 102.5t-37.5 140.5v437h151v-445q0 -35 17.5 -64.5t47 -47t64.5 -17.5t65 17.5t47.5 47t17.5 64.5v445h151v-437q0 -76 -37.5 -140.5t-102 -102.5t-141.5 -38q-76 0 -140.5 38zM479 805h-296v93h296v-93z" />
    <glyph glyph-name="umacron" unicode="&#x16b;" horiz-adv-x="563" 
d="M137 20q-49 32 -77 86t-28 118v292h151v-287q0 -37 27 -64t65 -27q37 0 64 27t27 64h78q0 -60 -23 -115.5t-68 -90.5t-106 -35t-110 32zM392 106l-26 3v407h151v-516h-125v106zM423 616h-296v93h296v-93z" />
    <glyph glyph-name="Uring" unicode="&#x16e;" horiz-adv-x="663" 
d="M190.5 32q-64.5 38 -102 102.5t-37.5 140.5v437h151v-445q0 -35 17.5 -64.5t47 -47t64.5 -17.5t65 17.5t47.5 47t17.5 64.5v445h151v-437q0 -76 -37.5 -140.5t-102 -102.5t-141.5 -38q-76 0 -140.5 38zM243 840.5q-37 35.5 -37 87.5t37.5 87.5t90.5 35.5q54 0 91.5 -35.5
t37.5 -87.5t-37.5 -87.5t-91.5 -35.5t-91 35.5zM376.5 886q16.5 17 16.5 42q0 26 -16.5 42.5t-42.5 16.5q-25 0 -41.5 -17t-16.5 -42q0 -26 16.5 -42.5t41.5 -16.5q26 0 42.5 17z" />
    <glyph glyph-name="uring" unicode="&#x16f;" horiz-adv-x="563" 
d="M137 20q-49 32 -77 86t-28 118v292h151v-287q0 -37 27 -64t65 -27q37 0 64 27t27 64h78q0 -60 -23 -115.5t-68 -90.5t-106 -35t-110 32zM392 106l-26 3v407h151v-516h-125v106zM178 652.5q-37 35.5 -37 87.5t37.5 87.5t90.5 35.5q54 0 91.5 -35.5t37.5 -87.5t-37.5 -87.5
t-91.5 -35.5t-91 35.5zM311.5 698q16.5 17 16.5 42q0 26 -16.5 42.5t-42.5 16.5q-25 0 -41.5 -17t-16.5 -42q0 -26 16.5 -42.5t41.5 -16.5q26 0 42.5 17z" />
    <glyph glyph-name="Uhungarumlaut" unicode="&#x170;" horiz-adv-x="663" 
d="M190.5 32q-64.5 38 -102 102.5t-37.5 140.5v437h151v-445q0 -35 17.5 -64.5t47 -47t64.5 -17.5t65 17.5t47.5 47t17.5 64.5v445h151v-437q0 -76 -37.5 -140.5t-102 -102.5t-141.5 -38q-76 0 -140.5 38zM468 952h147l-140 -147h-134zM265 952h147l-139 -147h-135z" />
    <glyph glyph-name="uhungarumlaut" unicode="&#x171;" horiz-adv-x="563" 
d="M137 20q-49 32 -77 86t-28 118v292h151v-287q0 -37 27 -64t65 -27q37 0 64 27t27 64h78q0 -60 -23 -115.5t-68 -90.5t-106 -35t-110 32zM392 106l-26 3v407h151v-516h-125v106zM417 763h147l-140 -147h-134zM214 763h147l-139 -147h-135z" />
    <glyph glyph-name="Uogonek" unicode="&#x172;" horiz-adv-x="663" 
d="M190.5 32q-64.5 38 -102 102.5t-37.5 140.5v437h151v-445q0 -35 17.5 -64.5t47 -47t64.5 -17.5t65 17.5t47.5 47t17.5 64.5v445h151v-437q0 -76 -37.5 -140.5t-102 -102.5t-141.5 -38q-76 0 -140.5 38zM225.5 -195.5q-37.5 30.5 -37.5 83.5q0 52 41 93.5t118 67.5l62 -41
q-58 -26 -87.5 -51t-29.5 -54q0 -22 15 -34.5t43 -12.5h58v-82h-79q-66 0 -103.5 30.5z" />
    <glyph glyph-name="uogonek" unicode="&#x173;" horiz-adv-x="563" 
d="M137 20q-49 32 -77 86t-28 118v292h151v-287q0 -37 27 -64t65 -27q37 0 64 27t27 64h78q0 -60 -23 -115.5t-68 -90.5t-106 -35t-110 32zM392 106l-26 3v407h151v-516h-125v106zM333 -203.5q-38 30.5 -38 83.5q0 52 41.5 93.5t118.5 67.5l62 -41q-58 -26 -87.5 -51
t-29.5 -54q0 -22 15 -34.5t43 -12.5h58v-82h-79q-66 0 -104 30.5z" />
    <glyph glyph-name="Wcircumflex" unicode="&#x174;" horiz-adv-x="902" 
d="M9 712h149l81 -559l120 502h185l119 -502l82 559h148l-129 -712h-204l-109 519l-109 -519h-203zM437 838l-91 -81h-112l127 148h152l126 -148h-111z" />
    <glyph glyph-name="wcircumflex" unicode="&#x175;" horiz-adv-x="731" 
d="M8 516h147l58 -306l93 280h128l93 -280l50 306h146l-86 -516h-167l-100 287l-100 -287h-164zM371 671l-91 -81h-112l127 148h152l126 -148h-111z" />
    <glyph glyph-name="Ycircumflex" unicode="&#x176;" horiz-adv-x="611" 
d="M228 238l-219 474h164l129 -292l136 292h164l-223 -474v-238h-151v238zM308 885l-91 -81h-112l127 148h152l126 -148h-111z" />
    <glyph glyph-name="ycircumflex" unicode="&#x177;" horiz-adv-x="568" 
d="M51 -96h93q30 0 52.5 16.5t31.5 44.5l172 551h154l-181 -584q-20 -76 -79.5 -124.5t-138.5 -48.5h-104v145zM10 516h153l147 -516h-153zM285 697l-91 -81h-112l127 148h152l126 -148h-111z" />
    <glyph glyph-name="Ydieresis" unicode="&#x178;" horiz-adv-x="611" 
d="M228 238l-219 474h164l129 -292l136 292h164l-223 -474v-238h-151v238zM172 826q-22 22 -22 53t22 52.5t53 21.5t53 -21.5t22 -52.5t-22 -53t-53 -22t-53 22zM343 826q-22 22 -22 53t22 52.5t53 21.5t52.5 -21.5t21.5 -52.5t-21.5 -53t-52.5 -22t-53 22z" />
    <glyph glyph-name="Zacute" unicode="&#x179;" horiz-adv-x="578" 
d="M555 0h-532v166l354 407h-346v139h521v-166l-352 -407h354zM325 952h149l-148 -147h-135z" />
    <glyph glyph-name="zacute" unicode="&#x17a;" horiz-adv-x="507" 
d="M474 0h-441v142l240 235h-245v139h450v-141l-235 -236h231v-139zM304 764h149l-148 -147h-135z" />
    <glyph glyph-name="Zdotaccent" unicode="&#x17b;" horiz-adv-x="578" 
d="M555 0h-532v166l354 407h-346v139h521v-166l-352 -407h354zM238 826q-22 22 -22 53t22 52.5t53 21.5t53 -21.5t22 -52.5t-22 -53t-53 -22t-53 22z" />
    <glyph glyph-name="zdotaccent" unicode="&#x17c;" horiz-adv-x="507" 
d="M474 0h-441v142l240 235h-245v139h450v-141l-235 -236h231v-139zM201 635q-22 22 -22 53t22 52.5t53 21.5t53 -21.5t22 -52.5t-22 -53t-53 -22t-53 22z" />
    <glyph glyph-name="Zcaron" unicode="&#x17d;" horiz-adv-x="578" 
d="M555 0h-532v166l354 407h-346v139h521v-166l-352 -407h354zM368 805h-152l-127 147h112l91 -81l91 81h111z" />
    <glyph glyph-name="zcaron" unicode="&#x17e;" horiz-adv-x="507" 
d="M474 0h-441v142l240 235h-245v139h450v-141l-235 -236h231v-139zM336 617h-152l-127 147h112l91 -81l91 81h111z" />
    <glyph glyph-name="uni0218" unicode="&#x218;" horiz-adv-x="630" 
d="M166 6.5q-78 20.5 -134 52.5l52 127q42 -24 108.5 -41.5t119.5 -17.5q61 0 98.5 18.5t37.5 51.5q0 31 -28.5 46t-94.5 33q-20 6 -30 8q-95 27 -148.5 58t-76.5 71t-23 98q0 66 37.5 115t103 75.5t148.5 26.5q109 0 238 -48l-50 -131q-109 37 -190 37q-61 0 -98 -20
t-37 -55q0 -25 15 -39.5t44 -24.5t91 -25q139 -34 194.5 -84.5t55.5 -126.5q0 -69 -36 -120t-100 -78t-146 -27q-73 0 -151 20.5zM249.5 -330.5q21.5 34.5 27.5 43.5l11 19q-25 -1 -47.5 23t-22.5 55q0 39 27 66t65 27q42 0 67.5 -27t25.5 -65q0 -52 -28 -118t-88 -143
l-81 55q22 30 43.5 64.5z" />
    <glyph glyph-name="uni0219" unicode="&#x219;" horiz-adv-x="538" 
d="M146.5 8.5q-63.5 20.5 -112.5 57.5l64 99q92 -53 183 -53q41 0 58.5 9.5t17.5 27.5q0 17 -18 25.5t-66 20.5q-109 25 -158.5 62.5t-49.5 106.5q0 74 59 119t158 45q53 0 106 -15t96 -40l-52 -106q-79 36 -150 36q-30 0 -48.5 -11t-18.5 -30q0 -20 18 -28t68 -16
q102 -19 154 -59t52 -107q0 -76 -60.5 -120t-165.5 -44q-71 0 -134.5 20.5zM218.5 -340.5q21.5 34.5 27.5 43.5l11 19q-25 -1 -47.5 23t-22.5 55q0 39 27 66t65 27q42 0 67.5 -27t25.5 -65q0 -52 -28 -118t-88 -143l-81 55q22 30 43.5 64.5z" />
    <glyph glyph-name="uni021A" unicode="&#x21a;" horiz-adv-x="543" 
d="M195 573h-184l-1 139h522v-139h-186v-573h-151v573zM210.5 -326.5q21.5 34.5 27.5 43.5l11 19q-25 -1 -47.5 23t-22.5 55q0 39 27 66t65 27q42 0 67.5 -27t25.5 -65q0 -52 -28 -118t-88 -143l-81 55q22 30 43.5 64.5z" />
    <glyph glyph-name="uni021B" unicode="&#x21b;" horiz-adv-x="466" 
d="M132 376h-113v140h405v-139h-140v-192q0 -19 13.5 -32.5t32.5 -13.5h104v-139h-112q-52 0 -95.5 24t-69 66.5t-25.5 94.5v191zM132 516v153h152v-153h-152zM222.5 -333.5q21.5 34.5 27.5 43.5l11 19q-25 -1 -47.5 23t-22.5 55q0 39 27 66t65 27q42 0 67.5 -27t25.5 -65
q0 -52 -28 -118t-88 -143l-81 55q22 30 43.5 64.5z" />
    <glyph glyph-name="tilde" unicode="&#x2dc;" horiz-adv-x="522" 
d="M291.5 611q-20.5 9 -46.5 28q-19 14 -29.5 19.5t-20.5 5.5q-20 0 -32.5 -14.5t-14.5 -39.5h-86q2 71 35 111.5t88 40.5q25 0 45.5 -9t46.5 -28q18 -14 28.5 -19t21.5 -5q20 0 32.5 13.5t14.5 36.5h85q-2 -68 -34.5 -108.5t-87.5 -40.5q-25 0 -45.5 9z" />
    <glyph glyph-name="gravecomb" unicode="&#x300;" 
d="M56 859h149l134 -147h-135z" />
    <glyph glyph-name="acutecomb" unicode="&#x301;" 
d="M190 859h149l-148 -147h-135z" />
    <glyph glyph-name="uni0302" unicode="&#x302;" 
d="M259 792l-91 -81h-112l127 148h152l126 -148h-111z" />
    <glyph glyph-name="tildecomb" unicode="&#x303;" 
d="M286 720.5q-20 8.5 -48 28.5q-18 13 -28.5 18.5t-20.5 5.5q-20 0 -33 -14t-15 -39h-85q2 70 34.5 110.5t87.5 40.5q25 0 45.5 -9t47.5 -28q18 -14 28.5 -19.5t21.5 -5.5q19 0 32 14t15 37h85q-2 -68 -34.5 -108t-87.5 -40q-25 0 -45 8.5z" />
    <glyph glyph-name="uni0304" unicode="&#x304;" 
d="M352 712h-296v93h296v-93z" />
    <glyph glyph-name="uni0306" unicode="&#x306;" 
d="M111.5 754q-52.5 42 -55.5 113h106q2 -31 25.5 -50t58.5 -19t58.5 19t25.5 50h106q-3 -71 -55.5 -113t-134.5 -42t-134.5 42z" />
    <glyph glyph-name="uni0307" unicode="&#x307;" 
d="M78 733q-22 22 -22 53t22 52.5t53 21.5t53 -21.5t22 -52.5t-22 -53t-53 -22t-53 22z" />
    <glyph glyph-name="uni0308" unicode="&#x308;" 
d="M78 733q-22 22 -22 53t22 52.5t53 21.5t53 -21.5t22 -52.5t-22 -53t-53 -22t-53 22zM249 733q-22 22 -22 53t22 52.5t53 21.5t52.5 -21.5t21.5 -52.5t-21.5 -53t-52.5 -22t-53 22z" />
    <glyph glyph-name="uni030A" unicode="&#x30a;" 
d="M93 747.5q-37 35.5 -37 87.5t37.5 87.5t90.5 35.5q54 0 91.5 -35.5t37.5 -87.5t-37.5 -87.5t-91.5 -35.5t-91 35.5zM226.5 793q16.5 17 16.5 42q0 26 -16.5 42.5t-42.5 16.5q-25 0 -41.5 -17t-16.5 -42q0 -26 16.5 -42.5t41.5 -16.5q26 0 42.5 17z" />
    <glyph glyph-name="uni030B" unicode="&#x30b;" 
d="M386 859h147l-140 -147h-134zM183 859h147l-139 -147h-135z" />
    <glyph glyph-name="uni030C" unicode="&#x30c;" 
d="M335 712h-152l-127 147h112l91 -81l91 81h111z" />
    <glyph glyph-name="uni0312" unicode="&#x312;" 
d="M182 901l-11 -18q25 1 47.5 -23.5t22.5 -55.5q0 -38 -27 -65t-65 -27q-42 0 -67.5 27t-25.5 65q0 52 28 117.5t88 143.5l81 -55q-36 -49 -71 -109z" />
    <glyph glyph-name="uni0326" unicode="&#x326;" 
d="M91.5 -233.5q21.5 34.5 27.5 43.5l11 19q-25 -1 -47.5 23t-22.5 55q0 39 27 66t65 27q42 0 67.5 -27t25.5 -65q0 -52 -28 -118t-88 -143l-81 55q22 30 43.5 64.5z" />
    <glyph glyph-name="uni0327" unicode="&#x327;" 
d="M56 -243l17 76l74 -1q22 0 31.5 7.5t9.5 23.5q0 14 -9 22.5t-26 8.5h-51l26 106h92l-14 -62q41 -5 62.5 -26.5t21.5 -53.5q0 -46 -41 -73.5t-110 -27.5h-83z" />
    <glyph glyph-name="uni0328" unicode="&#x328;" 
d="M94 -203.5q-38 30.5 -38 83.5q0 52 41.5 93.5t118.5 67.5l62 -41q-58 -26 -87.5 -51t-29.5 -54q0 -21 15 -34t42 -13h59v-82h-79q-66 0 -104 30.5z" />
    <glyph glyph-name="uni060C" unicode="&#x60c;" horiz-adv-x="303" 
d="M85.5 27q-25.5 27 -25.5 65q0 52 27.5 118t87.5 143l81 -55q-27 -36 -70 -108l-11 -19q25 1 47.5 -23t22.5 -55q0 -39 -27.5 -66t-65.5 -27q-41 0 -66.5 27z" />
    <glyph glyph-name="uni0615" unicode="&#x615;" 
d="M-124 795h158q11 0 18.5 7t7.5 18q0 28 -27 29q-6 0 -14.5 -4.5t-22.5 -13.5l-114 -70l-33 86l117 71q30 19 68 19q48 0 82.5 -34t34.5 -83q0 -50 -34 -84.5t-83 -34.5h-158v94zM-113.5 883q3.5 15 3.5 43v102h97v-68v48q0 -35 -9 -61.5t-27 -38.5l-76 -45q8 5 11.5 20z
" />
    <glyph glyph-name="uni061B" unicode="&#x61b;" horiz-adv-x="303" 
d="M80.5 320q-25.5 27 -25.5 65q0 52 27.5 118t87.5 143l81 -54q-35 -48 -70 -109q-6 -12 -12 -19q25 2 47.5 -22.5t22.5 -55.5q0 -39 -27 -66t-65 -27q-41 0 -66.5 27zM80.5 23.5q-25.5 27.5 -25.5 64.5q0 39 27.5 65.5t64.5 26.5q36 0 63.5 -27.5t27.5 -64.5
q0 -38 -26.5 -65t-64.5 -27q-41 0 -66.5 27.5z" />
    <glyph glyph-name="uni061F" unicode="&#x61f;" horiz-adv-x="433" 
d="M107 355q-42 51 -59.5 89.5t-17.5 82.5q0 54 25.5 98t69.5 69.5t98 25.5q73 0 128 -46.5t68 -116.5l-90 -34q-4 7 -6 13t-5 11q-10 22 -30.5 36.5t-46.5 14.5q-35 0 -59.5 -24.5t-24.5 -59.5q0 -27 13 -52.5t38 -60.5q15 -23 17 -26q29 -43 39 -81t9 -91h-98
q-1 69 -68 152zM168 8q-24 23 -24 58q0 32 22.5 56t58.5 24q33 0 56 -23.5t23 -56.5q0 -32 -24 -56.5t-55 -24.5q-33 0 -57 23z" />
    <glyph glyph-name="uni0640" unicode="&#x640;" horiz-adv-x="135" 
d="M-10 10v131q0 10 10 10h135q10 0 10 -10v-131q0 -10 -10 -10h-135q-10 0 -10 10z" />
    <glyph glyph-name="uni064B" unicode="&#x64b;" 
d="M-162 966l288 105l37 -102l-289 -106zM-162 804l288 105l37 -102l-289 -106z" />
    <glyph glyph-name="uni064C" unicode="&#x64c;" 
d="M-172.5 812.5q3.5 7.5 3.5 15.5q0 13 -9 23l-27 31l-16 18l84 92q5 -4 19 -17t23 -24t15 -23q10 -17 10 -39q0 -15 -5 -29t-15 -23l67 25q-15 11 -23 28.5t-8 39.5q0 37 18.5 68.5t50 50t68.5 18.5t69 -18.5t50.5 -50t18.5 -68.5q0 -44 -25 -79.5t-66 -49.5l-276 -101
l-36 101q6 4 9.5 11.5zM109 907q10 10 10 26t-10 26t-25 10q-16 0 -26 -10t-10 -26t10 -26t26 -10q15 0 25 10z" />
    <glyph glyph-name="uni064D" unicode="&#x64d;" 
d="M-162 -105l288 105l37 -102l-289 -106zM-162 -268l288 106l37 -103l-289 -106z" />
    <glyph glyph-name="uni064E" unicode="&#x64e;" 
d="M-162 804l288 105l37 -102l-289 -106z" />
    <glyph glyph-name="uni064F" unicode="&#x64f;" 
d="M-112 901q0 37 18 68.5t49.5 50t69.5 18.5q37 0 69 -18.5t50.5 -50t18.5 -68.5q0 -44 -25 -79t-66 -50l-198 -72l-36 103l81 30q-31 24 -31 68zM0 879q10 -10 25 -10q16 0 26 10t10 26t-10 26t-26 10q-15 0 -25 -10t-10 -26t10 -26z" />
    <glyph glyph-name="uni0650" unicode="&#x650;" 
d="M-162 -105l288 105l37 -102l-289 -106z" />
    <glyph glyph-name="uni0651" unicode="&#x651;" 
d="M-175 890h95v-78q0 -8 4.5 -12.5t12.5 -4.5t12.5 4.5t4.5 12.5v66h91v-66q0 -8 4.5 -12.5t12.5 -4.5t12.5 4.5t4.5 12.5v78h95v-78q0 -46 -32.5 -79t-78.5 -33q-39 0 -64 28q-23 -28 -63 -28q-46 0 -78.5 33t-32.5 79v78z" />
    <glyph glyph-name="uni0652" unicode="&#x652;" 
d="M-68.5 718.5q-31.5 18.5 -50 50t-18.5 68.5t18.5 68.5t50 50t68.5 18.5t68.5 -18.5t50 -50t18.5 -68.5t-18.5 -68.5t-50 -50t-68.5 -18.5t-68.5 18.5zM-1 811q10 0 18 8q9 8 9 18q0 8 -7 17t-18 9t-18 -7q-9 -7 -9 -18q0 -7 7 -18q7 -9 18 -9z" />
    <glyph glyph-name="uni0653" unicode="&#x653;" 
d="M-148 855.5q30 27.5 72 27.5h254v-109h-235q-12 0 -19 -6.5t-7 -19.5v-48h-95v82q0 46 30 73.5z" />
    <glyph glyph-name="uni0654" unicode="&#x654;" 
d="M-162 804l74 28q-24 18 -35 46q-5 18 -5 33q0 37 24 69t64 46l82 29l37 -103l-70 -26q-9 -3 -14 -10t-5 -15q0 -13 8 -21t20 -8q3 0 13 2l95 34l37 -101l-289 -106z" />
    <glyph glyph-name="uni0655" unicode="&#x655;" 
d="M-163 -251l74 28q-24 18 -34 46q-5 14 -5 33q0 37 24 69.5t64 46.5l82 28l37 -102l-70 -26q-19 -7 -19 -26q0 -12 8 -20.5t20 -8.5q3 0 13 2l94 35l37 -102l-288 -106z" />
    <glyph glyph-name="uni0656" unicode="&#x656;" 
d="M45 0v-160h-91v160h91z" />
    <glyph glyph-name="uni0658" unicode="&#x658;" 
d="M-71 937v-54q0 -31 20 -50.5t51 -19.5t51 19.5t20 50.5v75h99v-77q0 -48 -22.5 -88t-61.5 -63t-86 -23t-86 23t-61.5 63t-22.5 88v56h99z" />
    <glyph glyph-name="uni065A" unicode="&#x65a;" 
d="M-43 894q42 -25 43 -77q1 52 42.5 77t115.5 25v-108q-37 -3 -60.5 -11.5t-38 -32t-14.5 -67.5h-90q0 44 -14.5 67.5t-38 32t-60.5 11.5v108q73 0 115 -25z" />
    <glyph glyph-name="uni065B" unicode="&#x65b;" 
d="M-97.5 819q23.5 9 38 32.5t14.5 67.5h90q0 -44 14.5 -67.5t38 -32.5t60.5 -12v-107q-74 0 -115.5 25t-42.5 77q-1 -52 -43 -77t-115 -25v107q37 3 60.5 12z" />
    <glyph glyph-name="uni0660" unicode="&#x660;" horiz-adv-x="246" 
d="M58 79q-27 27 -27 65t27 64.5t66 26.5q38 0 64 -26.5t26 -64.5t-26.5 -65t-63.5 -27q-39 0 -66 27z" />
    <glyph glyph-name="uni0661" unicode="&#x661;" horiz-adv-x="253" 
d="M59 373q0 92 -5.5 166t-22.5 141l131 22q41 -95 41 -413v-289h-144v312v61z" />
    <glyph glyph-name="uni0662" unicode="&#x662;" horiz-adv-x="498" 
d="M162.5 327.5q-41.5 29.5 -63 79.5t-21.5 111h117q0 -29 19.5 -48.5t48.5 -19.5q28 0 47 19.5t19 48.5v178h142v-179q0 -60 -27 -110t-74.5 -79.5t-106.5 -29.5t-100.5 29.5zM59 373q0 92 -5.5 166t-22.5 141l131 22q41 -95 41 -413v-289h-144v312v61z" />
    <glyph glyph-name="uni0663" unicode="&#x663;" horiz-adv-x="700" 
d="M360.5 344.5q-42.5 53.5 -42.5 135.5v187h115v-178q0 -20 13.5 -33.5t32.5 -13.5q20 0 33 13.5t13 33.5v207h148v-216q0 -51 -26 -94.5t-70.5 -69t-97.5 -25.5q-76 0 -118.5 53.5zM59 373q0 92 -5.5 166t-22.5 141l131 22q41 -95 41 -413v-289h-144v312v61zM124 344.5
q-43 53.5 -43 135.5l117 9q0 -20 13 -33.5t33 -13.5q19 0 32.5 13.5t13.5 33.5v178h115v-187q0 -82 -42.5 -135.5t-118.5 -53.5q-77 0 -120 53.5z" />
    <glyph glyph-name="uni0664" unicode="&#x664;" horiz-adv-x="450" 
d="M154 22q-47 23 -79 65.5t-41 95.5q-3 18 -3 37q0 50 23.5 94t65.5 73.5t94 37.5l174 29l25 -140l-175 -31q-25 -5 -40.5 -22t-15.5 -40q0 -31 20.5 -51t49.5 -18h173v-152h-172q-52 -1 -99 22zM153.5 318q-46.5 27 -73.5 73.5t-27 102.5q0 55 27 101t73.5 73.5
t101.5 27.5h124v-144h-124q-25 0 -41.5 -17t-16.5 -41q0 -26 16 -43.5t40 -17.5q13 0 22 2l11 -142q-20 -2 -31 -2q-55 0 -101.5 27z" />
    <glyph glyph-name="uni0665" unicode="&#x665;" horiz-adv-x="686" 
d="M86 47q-60 65 -60 177q0 71 25 128.5t71.5 112.5t136.5 145q32 32 35 36l105 -95q-5 -5 -16 -14.5t-20 -21.5q-79 -79 -118.5 -132t-53 -92.5t-13.5 -85.5q0 -47 22.5 -67t47.5 -20h190q25 0 47.5 20t22.5 67q0 46 -13.5 85.5t-53.5 92.5t-120 133q-9 13 -78.5 82
t-72.5 72l105 95q24 -26 73 -76t77 -78q91 -90 137.5 -145t72 -113t25.5 -129q0 -112 -60 -177t-171 -65h-172q-111 0 -171 65z" />
    <glyph glyph-name="uni0666" unicode="&#x666;" horiz-adv-x="522" 
d="M319 397v294h144v-318v-57q0 -93 5.5 -167.5t22.5 -142.5l-131 -23q-41 95 -41 414zM16 566l14 139q37 -5 99.5 -9.5t112.5 -4.5h216v-143h-223q-103 0 -219 18z" />
    <glyph glyph-name="uni0667" unicode="&#x667;" horiz-adv-x="599" 
d="M459 322q-41 -113 -64 -190t-23 -132h-142q-4 105 104 398l115 314l135 -49l-113 -310zM150 712l115 -314q109 -296 104 -398h-142q0 55 -23 132t-64 190l-12 31l-113 310z" />
    <glyph glyph-name="uni0668" unicode="&#x668;" horiz-adv-x="599" 
d="M15 32l113 310l12 33q38 101 62.5 183t24.5 138h142q5 -102 -104 -398l-115 -315zM230 696h142q0 -55 24 -136t63 -185l12 -33l113 -310l-135 -49l-115 315q-108 293 -104 398z" />
    <glyph glyph-name="uni0669" unicode="&#x669;" horiz-adv-x="510" 
d="M316.5 115.5q-9.5 80.5 -9.5 144.5v10h-64q-60 0 -110 27t-79.5 74.5t-29.5 106.5q0 60 29.5 110t79.5 79.5t110 29.5q58 0 106 -29.5t75 -79.5t27 -110v-106v-56q0 -93 5.5 -168t22.5 -143l-131 -22q-22 52 -31.5 132.5zM307 412v66q0 29 -18 48.5t-46 19.5
q-29 0 -48.5 -19.5t-19.5 -48.5q0 -28 19.5 -47t48.5 -19h64z" />
    <glyph glyph-name="uni066A" unicode="&#x66a;" horiz-adv-x="555" 
d="M31 62l392 632l101 -63l-393 -631zM336.5 35.5q-27.5 27.5 -27.5 64.5q0 38 26.5 65t64.5 27q41 0 66.5 -27.5t25.5 -64.5q0 -39 -27.5 -65.5t-64.5 -26.5q-36 0 -63.5 27.5zM78.5 506.5q-27.5 27.5 -27.5 64.5q0 38 26 65t64 27q41 0 66.5 -27.5t25.5 -64.5
q0 -39 -27.5 -65.5t-64.5 -26.5q-35 0 -62.5 27.5z" />
    <glyph glyph-name="uni066B" unicode="&#x66b;" horiz-adv-x="344" 
d="M24 -47q12 29 64 147.5t135 310.5h113l-201 -458h-111z" />
    <glyph glyph-name="uni066C" unicode="&#x66c;" horiz-adv-x="314" 
d="M117 -11l11 19q-25 -2 -47.5 22.5t-22.5 55.5q0 38 27.5 65.5t65.5 27.5q41 0 66.5 -27t25.5 -65q0 -52 -27.5 -118t-87.5 -144l-81 55q32 43 70 109z" />
    <glyph glyph-name="uni066D" unicode="&#x66d;" horiz-adv-x="521" 
d="M275 382q-6 15 -9 48q0 2 -5 36l45 33l35 -18q27 -13 39.5 -23.5t37.5 -44.5l31 -43l-110 -81l-32 43q-26 35 -32 50zM382 487q-12 0 -37 5q-28 6 -39 7l-17 54q20 20 27 28q22 22 35.5 30t53.5 22l52 16l42 -131l-51 -16q-45 -15 -66 -15zM215 587q-14 27 -18 43t-4 59
v53h137v-53q0 -43 -4 -59t-20 -44q-4 -8 -8.5 -16t-8.5 -17h-57zM22 520l43 130l51 -16q41 -14 55 -22.5t37 -32.5l24 -26l-17 -54q-7 -1 -41 -7q-28 -4 -34 -4q-11 0 -28 4.5t-39 11.5zM70 370l32 44q26 35 38.5 45.5t42.5 24.5l32 15l46 -33q-5 -25 -6 -38
q-4 -30 -10.5 -44.5t-31.5 -50.5l-32 -43z" />
    <glyph glyph-name="uni066E" unicode="&#x66e;" horiz-adv-x="858" 
d="M172 34q-58 34 -92 92t-34 127v120h144v-112q0 -45 32 -77.5t77 -32.5h318q29 0 47.5 19.5t18.5 48.5v154h144v-154q0 -60 -27.5 -110t-75.5 -79.5t-107 -29.5h-318q-69 0 -127 34z" />
    <glyph glyph-name="uni066F" unicode="&#x66f;" horiz-adv-x="727" 
d="M292.5 317.5q29.5 50.5 80 80t109.5 29.5v0q59 0 106.5 -29.5t74.5 -79.5t27 -110v-209q0 -87 -43 -161t-117 -117.5t-162 -43.5q-87 0 -161 43.5t-117.5 117.5t-43.5 161v187h144v-179q0 -48 24 -89t65 -65.5t89 -24.5q49 0 90.5 24.5t65.5 65.5t24 89v-7h-66v0
q-60 0 -110 27t-79.5 74.5t-29.5 106.5t29.5 109.5zM433.5 169.5q19.5 -18.5 48.5 -18.5v0h66v65q0 29 -19 48.5t-47 19.5v0q-29 0 -48.5 -19.5t-19.5 -48.5q0 -28 19.5 -46.5z" />
    <glyph glyph-name="uni0670" unicode="&#x670;" 
d="M45 860v-160h-91v160h91z" />
    <glyph glyph-name="uni0695" unicode="&#x695;" horiz-adv-x="289" 
d="M57 -97q30 25 40 54t10 84v332h144v-332q0 -84 -21 -138t-72 -96.5t-148 -90.5l-54 121q71 41 101 66zM89.5 -387q41.5 -25 42.5 -77q1 52 43.5 77t115.5 24v-107q-37 -3 -60.5 -12t-38 -32.5t-14.5 -67.5h-90q0 44 -14.5 67.5t-38.5 32.5t-61 12v107q74 1 115.5 -24z
" />
    <glyph glyph-name="uni06A1" unicode="&#x6a1;" horiz-adv-x="858" 
d="M172 34q-58 34 -92 92t-34 127v120h144v-112q0 -45 32 -77.5t77 -32.5h339q20 0 32.5 13t12.5 33v10h-47v0q-55 0 -101.5 25.5t-74 69.5t-27.5 97q0 56 28 103t74.5 74t100.5 27v0q54 0 97.5 -27t68.5 -74t25 -103v-210q0 -51 -25 -94.5t-68 -69t-95 -25.5h-340
q-69 0 -127 34zM692 340v64q0 26 -18 44t-43 18v0q-27 0 -45 -18t-18 -44q0 -27 18 -45.5t45 -18.5v0h61z" />
    <glyph glyph-name="uni06A4" unicode="&#x6a4;" horiz-adv-x="858" 
d="M172 34q-58 34 -92 92t-34 127v120h144v-112q0 -45 32 -77.5t77 -32.5h339q20 0 32.5 13t12.5 33v10h-47v0q-55 0 -101.5 25.5t-74 69.5t-27.5 97q0 56 28 103t74.5 74t100.5 27v0q54 0 97.5 -27t68.5 -74t25 -103v-210q0 -51 -25 -94.5t-68 -69t-95 -25.5h-340
q-69 0 -127 34zM631 340h61v64q0 26 -18 44t-43 18v0q-27 0 -45 -18t-18 -44q0 -27 18 -45.5t45 -18.5v0zM480 809h129v-128h-129v128zM661 809h128v-128h-128v128zM571 989h129v-129h-129v129z" />
    <glyph glyph-name="uni06B5" unicode="&#x6b5;" horiz-adv-x="775" 
d="M207 -132.5q-74 43.5 -117.5 117.5t-43.5 161v187h144v-179q0 -48 24 -89t65 -65t89 -24q49 0 90.5 24t65.5 65t24 89v520h144v-528q0 -87 -43.5 -161t-118 -117.5t-162.5 -43.5q-87 0 -161 43.5zM574.5 931q42.5 -25 43.5 -77q1 52 42.5 77t115.5 24v-107
q-37 -3 -60.5 -12t-38 -32.5t-14.5 -67.5h-90q0 44 -14.5 67.5t-38.5 32.5t-61 12v107q73 1 115.5 -24z" />
    <glyph glyph-name="uni06BE" unicode="&#x6be;" horiz-adv-x="783" 
d="M305 151q28 0 46.5 20t18.5 45t-18 45t-47 20t-47 -19t-18 -46q0 -30 19.5 -47.5t45.5 -17.5h227q29 0 48.5 18.5t19.5 46.5t-19.5 46.5t-48.5 18.5h-489v143h489q60 0 110 -27t79.5 -74.5t29.5 -106.5t-30 -108.5t-80.5 -78.5t-108.5 -29h-235q-64 0 -110 32.5t-70 82.5
t-24 101q0 46 27 92t75.5 75.5t109.5 29.5q73 0 115 -37.5t58 -83.5t16 -76q0 -72 -29.5 -120.5t-75 -72t-92.5 -23.5h-299l2 151h305z" />
    <glyph glyph-name="uni06C2" unicode="&#x6c2;" horiz-adv-x="505" 
d="M59 129q-15 37 -15 77q0 44 17.5 85.5t50.5 73.5l46 46l-45 44l102 100l192 -190q33 -33 50 -74.5t17 -84.5q0 -40 -15.5 -77t-45.5 -67q-32 -31 -72 -47t-83 -16t-83 16t-72 47q-29 30 -44 67zM259 149q27 0 48 21q19 18 19 44q0 27 -22 49l-46 47l-45 -45
q-21 -21 -21 -49q0 -27 19 -46q21 -21 48 -21zM58 689l89 33q-24 18 -34 46q-5 14 -5 33q0 37 24 69.5t64 46.5l82 28l37 -102l-70 -26q-9 -4 -14 -11t-5 -15q0 -12 8 -20.5t20 -8.5q3 0 13 2l94 35l37 -102l-303 -111z" />
    <glyph glyph-name="uni06C3" unicode="&#x6c3;" horiz-adv-x="505" 
d="M59 129q-15 37 -15 77q0 44 17.5 85.5t50.5 73.5l46 46l-45 44l102 100l192 -190q33 -33 50 -74.5t17 -84.5q0 -40 -15.5 -77t-45.5 -67q-32 -31 -72 -47t-83 -16t-83 16t-72 47q-29 30 -44 67zM259 149q27 0 48 21q19 18 19 44q0 27 -22 49l-46 47l-45 -45
q-21 -21 -21 -49q0 -27 19 -46q21 -21 48 -21zM64 755h128v-128h-128v128zM244 755h128v-128h-128v128z" />
    <glyph glyph-name="uni06C6" unicode="&#x6c6;" horiz-adv-x="509" 
d="M252.5 -95q43.5 24 59.5 45t16 50h-65v0q-60 0 -110 27t-79.5 74.5t-29.5 106.5q0 60 29.5 110t79.5 79.5t110 29.5v0q58 0 106 -29.5t75 -79.5t27 -110v-146q0 -93 -28.5 -150.5t-92 -100t-185.5 -95.5l-45 127q89 38 132.5 62zM328 142v67q0 29 -18.5 48t-46.5 19v0
q-29 0 -48.5 -19t-19.5 -48t19.5 -48t48.5 -19v0h65zM205.5 595q-14.5 23 -38.5 32t-61 12v107q73 1 115.5 -24t43.5 -77q1 52 42.5 77t115.5 24v-107q-37 -3 -60.5 -12t-38 -32t-14.5 -67h-90q0 44 -14.5 67z" />
    <glyph glyph-name="uni06C7" unicode="&#x6c7;" horiz-adv-x="509" 
d="M252.5 -95q43.5 24 59.5 45t16 50h-65v0q-60 0 -110 27t-79.5 74.5t-29.5 106.5q0 60 29.5 110t79.5 79.5t110 29.5v0q58 0 106 -29.5t75 -79.5t27 -110v-146q0 -93 -28.5 -150.5t-92 -100t-185.5 -95.5l-45 127q89 38 132.5 62zM263 142h65v67q0 29 -18.5 48t-46.5 19v0
q-29 0 -48.5 -19t-19.5 -48t19.5 -48t48.5 -19v0zM152 646q-8 18 -8 39q0 38 18.5 69.5t50 49.5t68.5 18q38 0 69.5 -18t50 -49.5t18.5 -69.5q0 -43 -25 -78.5t-66 -50.5l-198 -71l-36 103l81 29q-15 11 -23 29zM256 663q10 -10 26 -10q15 0 25 10t10 26t-10 26t-25 10
q-16 0 -26 -10t-10 -26t10 -26z" />
    <glyph glyph-name="uni06CE" unicode="&#x6ce;" horiz-adv-x="767" 
d="M172 -191q-58 34 -92 92t-34 127v243h144v-235q0 -45 32 -77.5t77 -32.5h229q24 0 39 15.5t15 39.5q0 18 -11 33t-30 19l-258 59v131q0 57 29.5 106.5t80 78.5t108.5 29h186v-143h-188q-29 0 -50.5 -21.5t-21.5 -50.5v-16q56 -12 79.5 -17.5t40.5 -9.5l40 -9
q63 -19 103 -73t40 -121q0 -55 -27 -101t-73.5 -73t-101.5 -27h-229q-69 0 -127 34zM150.5 491.5q-14.5 23.5 -38 32t-61.5 11.5v108q74 0 116 -25t43 -77q1 52 42.5 77t115.5 25v-108q-37 -3 -60.5 -11.5t-38 -32t-14.5 -67.5h-90q0 44 -14.5 67.5z" />
    <glyph glyph-name="uni06D3" unicode="&#x6d3;" horiz-adv-x="647" 
d="M131.5 27q-46.5 27 -73.5 73t-27 101q0 67 40 121t104 73l40 9q88 20 120 27l45 -137l-159 -36q-19 -4 -30 -19t-11 -33q0 -24 15 -39.5t39 -15.5h378v-151h-378q-56 0 -102.5 27zM49 516l89 33q-24 18 -34 46q-5 14 -5 33q0 37 24 69.5t64 46.5l82 28l37 -102l-70 -26
q-19 -7 -19 -26q0 -12 8 -20.5t20 -8.5q3 0 13 2l94 35l37 -102l-303 -111z" />
    <glyph glyph-name="uni06D4" unicode="&#x6d4;" horiz-adv-x="330" 
d="M60 151h245l-35 -151h-245z" />
    <glyph glyph-name="uni06D5" unicode="&#x6d5;" horiz-adv-x="507" 
d="M61 129q-15 37 -15 77q0 43 17.5 84.5t50.5 74.5l46 46l-45 44l103 100l191 -190q33 -33 50 -74.5t17 -84.5q0 -40 -15 -77t-45 -67q-32 -31 -72 -47t-83 -16t-83 16t-72 47q-30 30 -45 67zM262 149q28 0 47 21q19 18 19 44q0 28 -21 49l-46 47l-46 -45q-21 -21 -21 -49
q0 -27 20 -46q20 -21 48 -21z" />
    <glyph glyph-name="uni06F0" unicode="&#x6f0;" horiz-adv-x="463" 
d="M130.5 27q-45.5 27 -72.5 72.5t-27 100.5t27 100.5t72.5 72.5t100.5 27t101 -27t73 -72.5t27 -100.5t-27 -100.5t-73 -72.5t-101 -27t-100.5 27zM272 159q16 16 16 41t-16 41t-41 16t-40.5 -16t-15.5 -41t15.5 -41t40.5 -16t41 16z" />
    <glyph glyph-name="uni06F1" unicode="&#x6f1;" horiz-adv-x="245" 
d="M59 373q0 92 -5.5 166t-22.5 141l131 22q22 -53 31 -166.5t9 -246.5v-289h-143v312v61z" />
    <glyph glyph-name="uni06F2" unicode="&#x6f2;" horiz-adv-x="498" 
d="M162.5 328q-41.5 29 -63 79t-21.5 111h117q0 -29 19.5 -48.5t48.5 -19.5q28 0 47 19.5t19 48.5v178h142v-178q0 -60 -27 -110t-74.5 -79.5t-106.5 -29.5t-100.5 29zM59 373q0 92 -5.5 166t-22.5 141l131 22q22 -53 31 -166.5t9 -246.5v-289h-143v312v61z" />
    <glyph glyph-name="uni06F3" unicode="&#x6f3;" horiz-adv-x="699" 
d="M360.5 344.5q-42.5 53.5 -42.5 135.5v187h115v-178q0 -20 13 -33.5t33 -13.5t34.5 14t14.5 33v207h143v-216q0 -51 -25.5 -94.5t-69.5 -69t-97 -25.5q-76 0 -118.5 53.5zM59 373q0 92 -5.5 166t-22.5 141l131 22q22 -53 31 -166.5t9 -246.5v-289h-143v312v61zM124 344.5
q-43 53.5 -43 135.5l117 9q0 -20 13 -33.5t33 -13.5q19 0 32.5 13.5t13.5 33.5v178h115v-187q0 -82 -42.5 -135.5t-118.5 -53.5q-77 0 -120 53.5z" />
    <glyph glyph-name="uni06F4" unicode="&#x6f4;" horiz-adv-x="599" 
d="M59 373q0 92 -5.5 166t-22.5 141l131 22q40 -96 40 -413v-289h-143v313v60zM202.5 297q-45.5 28 -70 76.5t-24.5 108.5l87 6q0 -29 19.5 -48.5t48.5 -19.5h250v-151h-206q-59 0 -104.5 28zM361 298.5q-50 29.5 -79.5 79.5t-29.5 110q0 58 29.5 106t79.5 75t110 27h84
v-144h-84q-29 0 -48.5 -18t-19.5 -46q0 -29 19.5 -48.5t48.5 -19.5h103v-151h-103q-60 0 -110 29.5z" />
    <glyph glyph-name="uni06F5" unicode="&#x6f5;" horiz-adv-x="741" 
d="M374.5 42q-26.5 45 -26.5 129v82h94v-74q0 -20 12.5 -33.5t35.5 -13.5q29 0 49.5 13.5t20.5 59.5q0 38 -13.5 74.5t-53.5 89.5t-119 132q-11 15 -154 158l104 95q27 -29 79.5 -83t73.5 -75q91 -91 137.5 -145t72 -109t25.5 -119q0 -109 -59 -167.5t-172 -58.5
q-80 0 -106.5 45zM88 55.5q-59 58.5 -59 167.5q0 64 25 118.5t71 108t137 144.5q50 50 58 59l104 -95q-6 -6 -28 -26.5t-30 -31.5q-79 -79 -119 -131.5t-53.5 -89t-13.5 -74.5q0 -45 20.5 -59t48.5 -14q24 0 36.5 13.5t12.5 33.5v74h95v-82q0 -84 -27 -129t-107 -45
q-112 0 -171 58.5z" />
    <glyph glyph-name="uni06F6" unicode="&#x6f6;" horiz-adv-x="555" 
d="M58 36l149 260q147 258 230 322l98 -89q-41 -34 -83 -99.5t-100 -168.5q-22 -39 -25 -44l-145 -253zM41.5 395.5q-15.5 37.5 -15.5 77.5q0 43 18 84t52 74l112 105l101 -100l-112 -106q-22 -19 -22 -48q0 -28 20 -47q21 -19 50 -19q16 0 30 7t21 19l96 -66
q-46 -43 -97 -68.5t-99 -25.5q-63 0 -109 46q-30 30 -45.5 67.5z" />
    <glyph glyph-name="uni06F7" unicode="&#x6f7;" horiz-adv-x="599" 
d="M459 322q-41 -113 -64 -190t-23 -132h-142q-4 105 104 398l115 314l135 -49l-113 -310zM150 712l115 -314q109 -296 104 -398h-142q0 55 -23 132t-64 190l-12 31l-113 310z" />
    <glyph glyph-name="uni06F8" unicode="&#x6f8;" horiz-adv-x="599" 
d="M140 375q38 101 62.5 183t24.5 138h142q5 -102 -104 -398l-115 -315l-135 49l113 310zM449 -17l-115 315q-108 293 -104 398h142q0 -55 24 -136t63 -185l12 -33l113 -310z" />
    <glyph glyph-name="uni06F9" unicode="&#x6f9;" horiz-adv-x="510" 
d="M316.5 115.5q-9.5 80.5 -9.5 144.5v10h-64q-60 0 -110 27t-79.5 74.5t-29.5 106.5q0 60 29.5 110t79.5 79.5t110 29.5q58 0 106 -29.5t75 -79.5t27 -110v-106v-56q0 -93 5.5 -168t22.5 -143l-131 -22q-22 52 -31.5 132.5zM307 412v66q0 29 -18 48.5t-46 19.5
q-29 0 -48.5 -19.5t-19.5 -48.5q0 -28 19.5 -47t48.5 -19h64z" />
    <glyph glyph-name="uni0756" unicode="&#x756;" horiz-adv-x="858" 
d="M172 34q-58 34 -92 92t-34 127v120h144v-112q0 -45 32 -77.5t77 -32.5h318q29 0 47.5 19.5t18.5 48.5v154h144v-154q0 -60 -27.5 -110t-75.5 -79.5t-107 -29.5h-318q-69 0 -127 34zM386.5 444.5q-14.5 23.5 -38.5 32.5t-61 12v107q74 0 115.5 -25t42.5 -77q1 52 43 77
t116 25v-107q-37 -3 -60.5 -12t-38 -32.5t-14.5 -67.5h-90q0 44 -14.5 67.5z" />
    <glyph glyph-name="uni0769" unicode="&#x769;" horiz-adv-x="729" 
d="M207 -132.5q-74 43.5 -117.5 117.5t-43.5 161v187h144v-179q0 -48 24 -89t65 -65t89 -24q49 0 90.5 24t65.5 65t24 89v219h144v-227q0 -87 -43.5 -161t-118 -117.5t-162.5 -43.5q-87 0 -161 43.5zM301 466h129v-128h-129v128zM305.5 619.5q-14.5 23.5 -38 32t-60.5 11.5
v108q73 0 115 -25t43 -77q1 52 42.5 77t115.5 25v-108q-37 -3 -60.5 -11.5t-38 -32t-14.5 -67.5h-90q0 44 -14.5 67.5z" />
    <glyph glyph-name="uni08A0" unicode="&#x8a0;" horiz-adv-x="858" 
d="M172 34q-58 34 -92 92t-34 127v120h144v-112q0 -45 32 -77.5t77 -32.5h318q29 0 47.5 19.5t18.5 48.5v154h144v-154q0 -60 -27.5 -110t-75.5 -79.5t-107 -29.5h-318q-69 0 -127 34zM392.5 -250.5q-14.5 23.5 -38 32.5t-60.5 12v107q73 0 115 -25t43 -77q1 52 42.5 77
t115.5 25v-107q-37 -3 -60.5 -12t-38 -32.5t-14.5 -67.5h-90q0 44 -14.5 67.5z" />
    <glyph glyph-name="Wgrave" unicode="&#x1e80;" horiz-adv-x="902" 
d="M9 712h149l81 -559l120 502h185l119 -502l82 559h148l-129 -712h-204l-109 519l-109 -519h-203zM237 905h149l134 -147h-135z" />
    <glyph glyph-name="wgrave" unicode="&#x1e81;" horiz-adv-x="731" 
d="M8 516h147l58 -306l93 280h128l93 -280l50 306h146l-86 -516h-167l-100 287l-100 -287h-164zM156 737h149l134 -147h-135z" />
    <glyph glyph-name="Wacute" unicode="&#x1e82;" horiz-adv-x="902" 
d="M9 712h149l81 -559l120 502h185l119 -502l82 559h148l-129 -712h-204l-109 519l-109 -519h-203zM515 904h149l-148 -147h-135z" />
    <glyph glyph-name="wacute" unicode="&#x1e83;" horiz-adv-x="731" 
d="M8 516h147l58 -306l93 280h128l93 -280l50 306h146l-86 -516h-167l-100 287l-100 -287h-164zM434 738h149l-148 -147h-135z" />
    <glyph glyph-name="Wdieresis" unicode="&#x1e84;" horiz-adv-x="902" 
d="M9 712h149l81 -559l120 502h185l119 -502l82 559h148l-129 -712h-204l-109 519l-109 -519h-203zM315 703q-22 22 -22 53t22 52.5t53 21.5t53 -21.5t22 -52.5t-22 -53t-53 -22t-53 22zM486 703q-22 22 -22 53t22 52.5t53 21.5t52.5 -21.5t21.5 -52.5t-21.5 -53t-52.5 -22
t-53 22z" />
    <glyph glyph-name="wdieresis" unicode="&#x1e85;" horiz-adv-x="731" 
d="M8 516h147l58 -306l93 280h128l93 -280l50 306h146l-86 -516h-167l-100 287l-100 -287h-164zM235 612q-22 22 -22 53t22 52.5t53 21.5t53 -21.5t22 -52.5t-22 -53t-53 -22t-53 22zM406 612q-22 22 -22 53t22 52.5t53 21.5t52.5 -21.5t21.5 -52.5t-21.5 -53t-52.5 -22
t-53 22z" />
    <glyph glyph-name="uni1E9E" unicode="&#x1e9e;" horiz-adv-x="735" 
d="M86.5 619q25.5 43 69 68t94.5 25h105v-139h-96q-20 0 -33.5 -13.5t-13.5 -35.5v-524h-151v524q0 52 25.5 95zM279 409l200 164h-170v139h346v-145l-299 -264zM343.5 10.5q-50.5 23.5 -85.5 64.5l109 99q15 -21 37 -33.5t47 -12.5q41 0 70.5 29.5t29.5 70.5t-29.5 70.5
t-70.5 29.5q-21 0 -41.5 -6t-53.5 -19l-40 113q62 38 135 38q69 0 126.5 -28.5t91 -80t33.5 -117.5q0 -65 -33.5 -120.5t-91.5 -88t-126 -32.5q-57 0 -107.5 23.5z" />
    <glyph glyph-name="Ygrave" unicode="&#x1ef2;" horiz-adv-x="611" 
d="M228 238l-219 474h164l129 -292l136 292h164l-223 -474v-238h-151v238zM101 952h149l134 -147h-135z" />
    <glyph glyph-name="ygrave" unicode="&#x1ef3;" horiz-adv-x="568" 
d="M51 -96h93q30 0 52.5 16.5t31.5 44.5l172 551h154l-181 -584q-20 -76 -79.5 -124.5t-138.5 -48.5h-104v145zM10 516h153l147 -516h-153zM77 764h149l134 -147h-135z" />
    <glyph glyph-name="uni2000" unicode="&#x2000;" horiz-adv-x="630" 
 />
    <glyph glyph-name="uni2001" unicode="&#x2001;" horiz-adv-x="480" 
 />
    <glyph glyph-name="uni2002" unicode="&#x2002;" horiz-adv-x="630" 
 />
    <glyph glyph-name="uni2003" unicode="&#x2003;" horiz-adv-x="480" 
 />
    <glyph glyph-name="uni2004" unicode="&#x2004;" horiz-adv-x="680" 
 />
    <glyph glyph-name="uni2005" unicode="&#x2005;" horiz-adv-x="691" 
 />
    <glyph glyph-name="uni2006" unicode="&#x2006;" horiz-adv-x="641" 
 />
    <glyph glyph-name="uni2009" unicode="&#x2009;" horiz-adv-x="661" 
 />
    <glyph glyph-name="uni200A" unicode="&#x200a;" horiz-adv-x="626" 
 />
    <glyph glyph-name="uni200B" unicode="&#x200b;" horiz-adv-x="541" 
 />
    </font>
</defs>
</svg>
